<svg xmlns="http://www.w3.org/2000/svg" width="128" height="128" viewBox="0 0 1335.361 975.599"><path id="Path_1" data-name="Path 1" d="M3493.052,601.491l-94.238-148.943,66.817-116.617c-7.584-11.164-15.9-.915-25,4.156-51.573,28.745-103.005,58.914-152.6,90.88L3169.07,418.18c-5.772-10.232,13.426-20.252,20.975-25.933,38.822-29.209,81.92-54.476,120.345-84.548l19.882-80.237-90.594-21.433-70.634,57.5c-8.118-19.859-1.806-78.676,15.551-88.525L3603.154,62.059,3835.427,152.3l370.181-8.566,15.1,113.9,24.771,330.641,13.732,6.981c71.782,5.923,144.935,6.2,216.3,16.38,10.367,1.48,16.713-4.115,25.388,10.066L4264.176,957.933l5.607-191.04-50.145-6.194L4137.27,984.6l-216.5,53.053c-14.394-9.962,8.952-25.686,17.24-32.133,31.366-24.4,97.849-52.536,120.348-82.019,17.9-23.459,62.813-150.9,78.206-189.233,4.391-10.934,18.842-24,6.586-32.468L3932.122,907.947l-18.35-172.169c-58.979,39.453-124.241,73.264-188.209,104.958-10.333,5.12-23.461,19.505-32.136,7.932l177.114-230.4L3992.7,650.007c5.9-23.686,26.934-35.685,37.276-57.152,21.753-45.147,7.531-130.934,34.532-177.069l-18.2-10.323L3915.736,512.706l-23.384-78.554c-38.751,40.129-122.385,65.037-145.6,114.82-7.153,15.339-27.208,148.51-35.284,148.2L3654.22,507.642l147.01-124.8,31.266-48-160.625,52.792c-25,32.244-113.922,73.889-112.486,115.214C3560.5,534.937,3588.2,604.053,3601.817,635l-10.021,11.1L3360,741.106c-14.448-10.482,8.921-23.671,17.222-32.707C3413.634,668.759,3452.076,635.8,3493.052,601.491Z" transform="translate(-3165.539 -62.059)" fill="#ff5224"/></svg>