<?xml version="1.0" encoding="UTF-8"?>
<svg id="Layer_1" xmlns="http://www.w3.org/2000/svg" version="1.1" viewBox="0 0 128 128">
  <!-- Generator: Adobe Illustrator 29.8.7, SVG Export Plug-In . SVG Version: 2.1.1 Build 1)  -->
  <defs>
    <style>
      .st0 {
        fill: #ff5224;
      }
    </style>
  </defs>
  <path id="Path_1" class="st0" d="M32.2,67.9l-9-14.3,6.4-11.2c-.7-1.1-1.5,0-2.4.4-4.9,2.8-9.9,5.6-14.6,8.7l-11.4-1.2,2-2.5s7.9-5.2,11.5-8.1l20.3-18.7L7.9,30l-6.8,5.5,4.8-14.7,13.9-8.1-3.6-4.4-9.8-1.9L17.2,0h110.8v86.8l-8.3-9.5-1.2,14.9-11.8,17.5-.5-7.6,3-12.6-2.5-5.7-4,2.9-8.7,17.9-20.8,5.1,1.7-3.1s9.4-5,11.5-7.9c1.7-2.2,7.5-18.1,7.5-18.1l.6-3.1-20.2,19.8-1.8-16.5c-5.7,3.8-18,10.1-18,10.1l-3.1.8,17-22.1,11.7,3,3.6-5.5,3.3-17-1.7-1-12.5,10.3-2.2-7.5-14,11s-2.6,14.2-3.4,14.2l-5.5-18.2,14.1-12,3-4.6-15.4,5.1-10.8,11s2.8,9.7,4.1,12.7l-1,1.1-22.2,9.1,1.7-3.1s7.2-7,11.1-10.2Z"/>
</svg>