<?xml version="1.0" encoding="UTF-8"?><svg width="128" height="128" id="Isolation_Mode" data-name="Isolation Mode" xmlns="http://www.w3.org/2000/svg" viewBox="0 0 18.5 42.43"><defs><style>
      .cls-1 {
        fill: #efdece;
      }
    </style></defs><path class="cls-1" d="M14.82,6.28h-1.62s-.06,8.48-.06,8.48l5.35,5.97-.03,4.18-7.15-.05-2,2.05c.07,2.43-.29,5.13-.1,7.52.1,1.27,1.32,1.39,2.02,2.29l7.15.05-.04,5.66-18.34-.13.15-21.17,5.44-6.43.06-8.49h-1.35s.04-6.21.04-6.21l10.12.07.4.41-.04,5.8Z"/><path class="cls-1" d="M11.79,34.84c-.17-.05-1.1-1.32-1.16-1.53-.15-.53-.11-3.09-.01-3.73.07-.48,1.79-3.08,2.04-3.09l.86,1.76-1,2.12c.48.49.75,1.29,1.46.72,1.74-1.38.53-2.45.43-4.32l2.01,1.37.89,2.34-1.05,1.97c1.33.31,1.34-.76,2.17-1.33l-.03,3.77-6.61-.05Z"/></svg>