<?xml version="1.0" encoding="UTF-8"?><svg width="128" height="128" id="Isolation_Mode" data-name="Isolation Mode" xmlns="http://www.w3.org/2000/svg" viewBox="0 0 32.82 32.99"><defs><style>
      .cls-1 {
        fill: #1d1d1b;
      }
    </style></defs><polygon class="cls-1" points="15.64 14.89 14.46 15.31 7.18 16.72 4.07 20.31 .7 22.04 0 14.85 7.83 11.87 15.64 14.89"/><path class="cls-1" d="M31.51,23.64l-4.61,5.64-8.03-3.49-2.99-7.67,6.86,4.7c1.7.37,3.56-.37,5.17-.18,1.19.14,2.4.91,3.61,1Z"/><path class="cls-1" d="M18.12,15.64c-.32.06-.38-.44-.44-.68-.6-2.46-.77-5.06-1.39-7.53-.43-.4-.81-.85-1.24-1.24-1.7-1.57-3.07-2.32-3.98-4.71-.1-.26-.14-.48-.1-.76l6.82-.71,3.3,8.12-2.96,7.52Z"/><path class="cls-1" d="M16.65,26.02c1.15.87,2.8,2,3.67,3.16.68.91,1.04,2.18,1.72,3.11l-7.06.7-3.3-8.11,2.97-7.52c.7.2.41.87.5,1.36.5,2.43.97,4.9,1.5,7.29Z"/><path class="cls-1" d="M29.08,5.76l-.02.57-3.34,7.61-7.6,3.19c-.18-.19.49-.98.65-1.22,1.28-2,2.65-3.97,4.07-5.88-.11-1.32-.18-2.6-.19-3.95,0-.35-.23-.66-.21-.94.09-1.01,1.08-2.51.96-3.64.38-.09.41.08.62.25,1.5,1.16,3,2.52,4.45,3.75.18.15.38.23.61.25Z"/><path class="cls-1" d="M17.12,17.87l8.54-1.5c1.17-1.04,2.18-2.92,3.42-3.79.76-.53,1.92-.95,2.73-1.49.15-.23.45.16.48.27.13.52-.04,1.35.02,1.96.09.99.41,2.23.49,3.23.04.45.1,1.52-.26,1.76l-7.85,2.84c-2.29-.86-4.73-1.7-6.95-2.77-.24-.11-.59-.14-.61-.5Z"/><path class="cls-1" d="M14.64,16.12l-4.72,7.1c.24,1.15.16,2.27.22,3.43.02.38.29.68.24,1.24-.08.79-.76,2.35-1,3.25-.08.3.15.43-.38.36l-5.22-4.23-.08-.34,3.59-7.87,7.35-2.94Z"/><path class="cls-1" d="M16.88,14.89l-6.93-4.63c-.98-.42-1.99.09-2.86.14-1.64.08-3.69-.11-5.19-.81-.23-.11-.5-.3-.41-.58.64-.71,1.4-1.49,2-2.23.49-.61,1.69-2.45,2.24-2.74.2-.1.36-.18.58-.09l7.62,3.59,2.94,7.35Z"/></svg>