<?xml version="1.0" encoding="UTF-8"?>
<svg id="b" data-name="Layer 2" xmlns="http://www.w3.org/2000/svg" width="125.356" height="126.678" viewBox="0 0 125.356 126.678">
  <g id="c" data-name="Layer 1">
    <g>
      <path d="m103.987,125.006c-10.314,0-10.314,1.672-20.628,1.672s-10.315-.778-20.629-.778c-10.316,0-10.316-.211-20.632-.211s-10.316-.724-20.632-.724c-5.664,0-10.929-1.385-14.641-5.097s-6.825-8.977-6.825-14.641c0-10.461,1.101-10.461,1.101-20.921,0-10.461,1.013-10.461,1.013-20.922,0-10.463-1.873-10.463-1.873-20.925,0-10.463.78-10.463.78-20.925,0-5.664,1.472-11.548,5.184-15.26S15.802,0,21.466,0c10.314,0,10.314,1.229,20.628,1.229S52.408.017,62.723.017s10.316,1.304,20.632,1.304,10.316-.86,20.632-.86c5.664,0,11.196,2.453,14.908,6.165,3.712,3.712,5.392,9.244,5.392,14.908,0,10.461.853,10.461.853,20.921,0,10.461-1.375,10.461-1.375,20.922s1.591,10.463,1.591,20.925c0,10.463-2.007,10.463-2.007,20.925,0,5.664-.381,11.557-4.093,15.269s-9.605,4.509-15.269,4.509Z" fill="#fffcee"/>
      <g>
        <path d="m76.799,28.564h-28.145c-11.438,0-20.744,9.306-20.744,20.744v28.145c0,11.438,9.306,20.744,20.744,20.744h28.145c11.438,0,20.744-9.306,20.744-20.744v-28.145c0-11.438-9.306-20.744-20.744-20.744Zm13.739,48.889c0,7.588-6.151,13.739-13.739,13.739h-28.145c-7.588,0-13.739-6.151-13.739-13.739v-28.145c0-7.588,6.151-13.739,13.739-13.739h28.145c7.588,0,13.739,6.151,13.739,13.739v28.145h0Z" fill="#0e1011"/>
        <path d="m62.726,45.371c-9.93,0-18.01,8.079-18.01,18.009s8.079,18.01,18.01,18.01,18.01-8.079,18.01-18.01-8.079-18.009-18.01-18.009Zm0,29.014c-6.078,0-11.004-4.927-11.004-11.004s4.927-11.004,11.004-11.004,11.004,4.927,11.004,11.004-4.927,11.004-11.004,11.004Z" fill="#0e1011"/>
        <circle cx="80.77" cy="45.507" r="4.315" fill="#0e1011"/>
      </g>
    </g>
  </g>
</svg>