<?xml version="1.0" encoding="UTF-8"?>
<svg id="b" data-name="Layer 2" xmlns="http://www.w3.org/2000/svg" width="133.532" height="34.546" viewBox="0 0 133.532 34.546">
  <g id="c" data-name="Layer 1">
    <path d="m48.449,1.848C50.408.658,51.878.045,52.856.009c.891-.072,2.494.29,4.809,1.082,18.208,6.382,33.545,11.592,46.01,15.63,1.562.505,4.254,1.298,8.082,2.38l2.404.703,2.47.649c1.869.541,3.495,1.01,4.877,1.406,7.79,2.308,11.798,3.968,12.022,4.976.042,1.48-.425,2.542-1.404,3.191-.981.613-2.183.685-3.609.216-10.684-3.317-22.793-7.157-36.327-11.52-2.404-.793-5.23-1.747-8.481-2.866l-4.341-1.46-4.341-1.516c-7.345-2.56-13.088-4.469-17.23-5.733l-.266-.054-.333-.054h.066c-1.735-.433-4.339.054-7.814,1.46-1.202.505-2.492,1.1-3.872,1.785-.533.254-1.068.541-1.604.867l-.667.324-.601.326c-4.317,2.342-10.64,6.039-18.965,11.087l-9.418,5.679c-3.515,2.055-6.698,3.876-9.549,5.462-1.334.723-2.648.687-3.938-.108l-.268-.433-.268-.485c-.891-2.199.2-4.146,3.271-5.841l5.879-3.137,5.875-3.137c4.585-2.416,8.481-4.525,11.686-6.328,3.251-1.803,6.858-3.894,10.82-6.274l5.342-3.191,5.276-3.245Z" fill="#fffcee"/>
  </g>
</svg>