<?xml version="1.0" encoding="UTF-8"?>
<svg id="Layer_2" xmlns="http://www.w3.org/2000/svg" version="1.1" viewBox="0 0 1500 1500">
  <!-- Generator: Adobe Illustrator 29.8.5, SVG Export Plug-In . SVG Version: 2.1.1 Build 2)  -->
  <defs>
    <style>
      .st0 {
        fill: #25211e;
      }

      .st1 {
        fill: #f75e29;
      }
    </style>
  </defs>
  <g id="a">
    <g>
      <path class="st1" d="M891.7,1500c12-67.9,85-95.5,111.5-156,4.8-10.9,4.4-15.8,4.6-27.4,0-3.4-3-15.6,5.7-11.6,3.3,1.5,15.1,23.2,17.1,27.9,6.5,15.9,10.4,37.2,9,54,2.6,2.9,15.5-15.4,16.6-17.5,11.9-22.1,9.4-62.6,8-87.6-.3-6.3-2.6-13.9-2.9-20.2-2.1-39.3,7.5-70,34.8-98.7,1.9-2,16.4-15.4,17.5-15.9,2.4-1.1,4.7-.9,7.2-.8,1.5,8.7-5.2,16.9-5.3,25.1-.2,25.8,24.6,55.7,36.5,77.8,5.3,9.9,18.5,44,24.9,49.1,11.5,9.3,22.1-5.7,23.6-16.6,5.3-38.8-26-73.3-36.5-109.6-16.8-57.6,7.4-77,31.1-123.4,13.3-26,18.2-50.1,11.3-79.2,15.7-3.1,27.3,20,32.2,32.3,17.5,44.4-13.9,88.1,0,130.4,6.2,18.6,29.9,39.4,50.5,36.6,1.8-1.3,1.4-3.7,1.3-5.7-.6-8.3-5.1-17.9-5.8-27.7-2.9-41.6,9.7-66.9,31.9-100.1,26.2-39.2,81.4-83.2,76.7-134.6-.5-5.5-6.6-20.5-4.3-23.4,5.2-6.6,12.7,4.7,15.9,9,19.9,27.1,25.8,53.1,23.5,86.8-1.5,22.7-14.7,57.9,4.9,76.1,41.8,49.2-9.9,127.6-15.2,133.3-1.2,39.9-9.1,76.6-28.3,111.6-12.9,23.5-32.4,43.2-32.7,72.4-2.6.6-2.9-.8-4.1-2.4-3-4-6.2-13.6-9.8-19.2-9.5-15-31.1-35.1-45.7-45.7-3.4-2.4-16.4-11.9-20-9.4-1.4.9-2.6,23.2-3.4,27.7-6.1,34.9-27.2,77.9-57.2,98-5.9,4-57.6,28.7-59.9,26.3,2.9-13.7,4.5-23.3,0-37-1.2-3.8-14.4-28.3-16.3-29.3-7.1-3.9-5,4-6.1,8.5-2.6,10.7-20.6,39.4-28.4,48.4-16.7,19.5-42,33.7-58.6,54.5-2.7,3.4-6.5,8.4-6.6,12.9h-55.1c0-4.1-2.6-8.1-7.3-5.1l2.9,5.1h-89.9Z"/>
      <path class="st1" d="M161.7,1500c-10.7-24.3-6.7-44.2,1.6-68.1,14.8-42.6,36-80.7,13.2-126.2-.9-1.8-7.7-13.2-8.3-8.1,0,6.2.1,15-1.8,20.9-1.3,3.9-2.6,8.5-3.9,12.8-7.8,24.4-29,45.6-49.6,59-13.3,8.7-41.2,1.1-51.3-10.7-31.3-36.7,5-107.7,28.9-140,41.7-56.5,89-108.2,84.4-184.6-.7-11-4.8-22.2-3.3-33.5,2.3-.3,4.4.1,6.6.8,7.3,2.1,42.5,31.5,48.4,38.5,9.2,11.1,15.8,25.3,18.9,39.4,12.8-5.5,19.8-20.3,21.1-33.8,3.3-33.5-15.8-37.3-23.6-62.9-6.7-22.1-4.9-51,5.1-72,3.7-7.7,19.1-29.3,27.7-29.7,5.5-.2.9,11.8.8,15.6-2.4,66.6,22.2,72.3,47.2,123.5,28.8,59,18.9,115.8-12.3,170.3-8.6,15.1-23.4,28.9-25,47.2-1.2,14.5-1.6,30.8,6.2,43,1,1.6-.2,2.9,3.7,2.1,13.9-35.8,35.1-74,69.5-93.7,6.4-3.7,46.9-23.5,51.5-24,2.1-.2,4.7,0,5.3,2.2,1.4,4.9-15.8,15.9-19.7,19.6-28.7,27.6-42.6,55.9-39.4,96.8,4,51.7,60.8,92.4,65.7,144.2,1.6,17.4-.4,34.9-4.9,51.6h-23c1.3-9.7-4.6-9.4-3.3,0h-36.1c1-3.3-2.6-2.8-3.2-4.5-1.1-3.1,2-5.7-2.5-5.3-2.7.2-5.3,3.1-8.3,3.3-5,.3-19.1-5-18.8,6.6h-18c2.6-13.8-1.5-31-5.4-44.6-1.5-5.3-14.5-40.1-16.8-40.6s-4.5,2.6-5.3,4.5c-4.8,11-4.9,28.9-10.4,42-2.4,5.7-11.8,22.3-15.5,27.1-3.4,4.4-9.3,6.6-10.5,11.6h-1.6c1.5-5.3-8.3-4.9-6.6,0h-23c-.2-2.9-2.1-5.6-4.9-6.6v6.6h-49.2,0ZM248.6,1316.4c2.7,2.5,11.2-5,5.7-8.2-3.6-.7-7.2,6.8-5.7,8.2ZM324.5,1491.8c0-1.1-.9-2-2-2s-2,.9-2,2,.9,2,2,2,2-.9,2-2Z"/>
      <path class="st1" d="M488,1500c17.7-37.2,32.3-80.8,34.7-122.2,1.1-19.4-3.4-37.1-3.2-54.8.9-73.4,50.4-151.5,105.4-197,14.8-12.2,62.3-42.2,80.5-40.4,4.5.4,13.6,8.2,12.8,12.6-.5,2.6-24.4,33.1-29.1,43-28.4,60.2-17.5,128.3,21.3,181.3l22.5,30.7c-5.4-40.1-5.3-79.6,11-117.1,3.1-7.3,22.3-45.2,32.2-35.4,1.9,1.9-3.8,42.7-2.8,53.2,5.2,57.6,73.8,112,101.2,163.6,13.7,25.9,24.7,52.7,25.4,82.5h-411.8Z"/>
      <path class="st1" d="M1451.6,625.2c4.2,4.2-14,17.1-17.3,21.3-15.2,19.8-9.3,57.3-30.3,76.3,5.3,1.1,17.2-3.2,21.9-6,7.2-4.2,11-13.9,16.6-17.8,6.1-4.2,5.9,2.5,5.1,6.7-8.5,43.9-36.6,56.5-76.3,66.3-20.9,5.2-42.1,4.6-59.9,18.8-3.3,2.7-13.7,16.4-14.8,16.4-6.2,0-1.6-17.8-.4-21.6,17.9-55.3,67.1-53.9,91.7-95.2,8.3-13.9,14.6-34.9,25.9-46.2,4.5-4.6,32.7-23.9,37.8-18.8h0Z"/>
      <path class="st1" d="M185.4,380.8c-5.2,6.3-14.8-9.9-20.4-14-21.3-15.8-43.9-16.8-60.3-43-17.8-28.6-4.7-51.9-11.6-80.2-1.1-4.4-6.8-9.4-3.3-14.8,31.7,14.4,18.5,66.9,56.6,75.4.4-7.8-.6-15.9,0-23.7,1.6-20.4,7.9-32.1.8-53.3-2.6-7.9-10.2-14.3-9-23,4.8-4.8,20.6,12.6,23.8,16.4,6.8,8.1,15.3,20.9,18.1,31.1,6.2,22.8-5.5,41.6-4.2,64.9.7,13.4,16.7,55.5,9.5,64.2h0Z"/>
      <path class="st1" d="M1423.1,453c1.9,1.2.5,28.9,0,33.3-1,8.3-6.5,21.2-11,28.4-4.3,6.9-11.3,11-13.4,18.5,13.8,1.7,27.3-7.2,36-17.2,4.7-5.4,10.8-19.1,14.7-22.6,5.7-5.2,6.3,6.2,6.3,11.2.1,38.1-21.2,59.2-54.3,73.2-19.6,8.3-28.8,6.7-44.6,24.3-4.2,4.7-12.6,21.5-18.6,17.8-4.7-2.9-5.6-27.5-5.1-33.3,5-59.6,65.4-67.5,84.1-125.8,1.1-3.3.4-11.2,6-7.8h0Z"/>
      <path class="st1" d="M107.6,1112.9c-10.8,12.7-27.9,27.8-25.2,45.3-11.2,2.6-15.3-10.8-17.3-19.6-13.8-59.1,45.2-90,46.8-148.5.2-6.4-6.6-35.8,7.5-25.5,5.9,4.3,21.2,53.9,22,63.2,3.9,42.9-8.8,55.6-33.8,85h0Z"/>
      <path class="st1" d="M688.5,163.2c8.2-1.8-.5,18.1-.8,22.1-3.1,36.3,28.8,61.1,31.2,96.6,1,15.6-5.8,51.4-19.6,60.8-13.5,9.2-9-8.8-10.1-16.3-2.3-17.1-20.3-33.7-28-49-13.7-27.3-12.4-50.2,0-77.6,3.1-6.9,21.1-35.2,27.4-36.6h0Z"/>
      <path class="st1" d="M417.3,1042.7c-3.6,2.4-6.2-7.9-8-10.6-12.8-18.4-38.8-9.8-50.6-36.5-5.9-13.4-3.1-33.1-12.5-42.7-1.7-1.7-10.8-6.8-6.4-9.6,2.6-1.6,15.6,4.2,18.4,6.1,13.6,8.8,11.5,21,19.8,32.2,1.9,2.6,10.9,12.5,13.3,14.3,13.5,10.6,25,10.9,27.9,32.7.3,2.6,0,12.9-1.9,14.1h0Z"/>
      <path class="st1" d="M80.5,475.9c15.1,20.3,25.3,34.6,23.4,61.2-2.3,32.2-26.4,50.2-26.4,82,0,4.3,1.4,8,1.7,12.1-3.2.7-6.5,3.2-9,.1-8.8-15.5-18.3-26.6-20.3-45.3-3.9-37.7,21.2-57.8,24.4-91.7.5-5.5-4-24,6.2-18.4h0Z"/>
      <path class="st1" d="M1187.7,281.8c-2-3.3,3.4-21.7,3.1-28.5-.7-21.3-9.9-40.3-6.3-63.5,2.4-15.3,21.5-49.8,32.6-60.8,1.6-1.6,2.2-3.7,5.5-2.7,6,1.8-.2,13.7-.7,17.3-5.9,46.9,17,83-14.2,126.8-2.4,3.4-16,18-20.2,11.3h0Z"/>
      <path class="st1" d="M-7.8,1333.6l-6.5-.8c2.5-3.6,5.1-3.2,6.5.8Z"/>
      <g>
        <path class="st1" d="M833.6,508.3c-3.5,31.7-41.1,52.8-58.4,77.6-9.6,13.7-7.6,22.9-13.4,35.7-1.7,3.7-16.1,22.3-20,18.6,3-15.2,4.9-34.6-2.9-48.7-3.9-7.1-3.5,2.5-4.9,5.7-11.9,25.8-44.7,33.1-59.7,61.6-9.9,18.9-10.3,32.5-7.9,53.5-4,4.1-13.2-11.3-14.6-14.1-6.6-13.5-9.7-35.5-8.2-50.4,4.4-45.1,39.9-67.2,60.5-103.4,13.3-23.4,23.6-59.3,15.2-85.8-2.8-9-17.6-26.2,8.1-19.6,19.8,5.1,47,45.9,47.2,66.8,8.6-10.4,16.5-29.8,16.5-43.4.2-68.7-53-113.7-30.5-189.3,4.8-16,25-51,39.6-58.8,14.6-7.8,6,12.7,5.5,18.6-5,69.4,25.7,71.1,61.5,115.5,15.7,19.6,25,54,27,78.7,2.5.4,3.9-.1,5.8-1.5,3.4-2.4,18.2-20.6,21.1-24.8,5.5-8.1,11.5-19.4,13.7-29,5.6-24.8-6.3-50.9-11.1-75-.1-1.4,1.6-3.9,2.5-4.1,3.7-.8,29.8,25.7,33.6,30.3,24.9,29.6,27.5,62.6,22.9,100-2.5,20-12.3,38.4-13.2,57.3-.6,12.9-1.6,22.4,14.5,17.8,13.2-3.8,30.1-21.5,34.4-34.5,1.7-5.3,1.8-29.7,7.7-28.3,4.1.9,14.5,38,15.2,43.8,12.4,105.8-79.2,102.4-134.1,152-4.4,4-14.7,21.3-14.9,5-.4-33.4,39.8-51.3,28-86.1-2.8-2.5-12.7,11.8-14.9,13.8-6.1,5.5-43.4,27.9-49.1,22.3,2.9-33.4,4-77.5-23-101.6-.6,7.6.8,16.3,0,23.8h0Z"/>
        <path class="st1" d="M1102.5,464.1c-5.4,5.3-19.2-16.2-21.6-20.2-17.1-29.6-16.1-64.2-7.4-96.5,1.3-5,9.9-34.2,17.5-29.2,1.4.9,6.1,28.2,7.3,32.8.5,2,1.7,7.9,4.1,8.1,11.7-24.9,33-45.1,39-73.3.8-3.9,1.2-22.6,2-23.4,4.3-4.2,10,5.7,11.5,9,18.2,38.4,22,83.3-5.9,117.1-19.1,23.1-50.6,41-46.6,75.5h0Z"/>
        <g>
          <path class="st0" d="M891,820.5c-3.3-17.6-4.9-31.5-.8-49.2,10.4-45.6,23.1-70.4,56.5-102.5,10.8-10.4,11-13,19.8-24.5,42.2-55.4,124.2-60.3,171.4-115.6,14.5-17,14.2-35.2,24.2-52.9,11.2-20,24.8-18.3,41.4-4.7,2.3,0,21.6-34.5,24.3-39.4,5-9.2,24-44,25.3-51.8,4.2-24.9-12.9-46.6-12.1-71.5,1.7-53.3,80.3-80.6,108.9-31.1,2.8,4.9,7.5,21.3,10.1,22.6,7.1,3.6,33.3-2.1,44.9-.6,45,5.5,59.8,82.3,22.7,107.9-18.5,12.8-36.1,12.4-56.2,17.2-16.9,4.1-25.9,18.4-35.4,31.8-12.8,18.1-23,38.2-35,56.8-.2.7,7.7,2.2,9.7,3.4,8.6,4.9,18.3,16.9,17.8,27.3-.9,16.7-13.6,17.3-22.6,26.6-6,6.3-23.7,29.5-27,36.9-9.4,21-12.7,72.3-11.7,95.6.9,21.8,9.6,43.6,9.3,65.8-.4,29.9-10.1,46.2-20.6,71.4-5.9,14.2-2.6,21.6-4.2,35.1-2.8,22.3-27,66.6-45.4,79.6-9,6.3-20.5,8.6-29.4,14.5-11.8,7.8-21.7,34.7-31,47.7-7.5,10.5-18.8,22.6-27.5,32.4-1.8,2.1-6.6,3.3-7.4,6.6-1.4,5.2,5.9,7,8.9,10.3,21.9,24.1,20.7,41.8,33.3,68.4,7.9,16.7,13.1,16.6,24.9,27.6,8.8,8.2,19.8,22.8,11.5,34.4-7.4,10.3-22.7,10-31,16.6-14.6,11.5-19.3,30.3-42.1,33.3-10,1.3-41.5-.6-40-15.3,1-10.3,18-14,26.3-16.5,2.8-.8,6.9.4,9.3-1.3,1.4-1.1,18.3-26.5,20.2-29.8,1.5-2.7,6.7-12.6,6.7-14.8,0-7.4-38.4-53.8-46-62.3-19.2-21.7-36.5-24.6-29.2-60.2.8-3.9,3.4-7.2,4.1-10.7,2.9-14.3,5-28.8,8.6-43-16.2,2.6-35.8-1.9-50.6-9.2-9.3-4.6-17.9-12.4-26.6-17.6-20.9-12.4-31.7-14.5-49-34.6-3.7-4.4-12.7-19.4-14.9-21.2-10.5-8.2-48-13.8-65-25.2-8.2-5.5-13-15.3-22.6-20l12.6,23.5c12,27.1,5.8,63.2,23.6,87.9,7.2,10,19.3,13.7,21.6,27.6,3.1,18.9-22.2,28.7-32.4,42.2-7.1,9.3-10.3,20.7-19.6,29.5-8.8,8.3-35.2,21.4-40.4,4.1-4-13.2,13.3-13.1,17.9-20.2,3.5-18.3,22.9-54,22.5-70.8-.3-14-14.2-33.1-20-45.7-9.9-21-18.6-42.5-28-63.8-5-11.3-14.7-21.7-14.3-34.8.3-11.2,10.9-23.8,22.2-23.8h77.9ZM1376.5,340.2c-20,8.8-31.9-3.9-37.8-22-3.4-10.2-3.2-24.6-11.3-32.9-18-18.5-56-6.5-62,18.5-3.8,16.1,2.9,24.9,5.7,39.4,5.4,28.2,1.3,40.8-9.6,66.5-11.9,28.2-30.5,53.4-42.4,81.4,7.6-8.4,26.4-4.6,27.7,5.8.4,3-.4,12.8.3,13.6,3.5,3.7,9-1.2,11.2-4.3,7.5-10.3,45-80.5,51.7-80.7,5.5-.2-.8,12.9-1.6,14.8-10.6,23.9-27,47.1-40.2,69.6l8.3,1.6c16.9-25.5,31.3-55.7,49.4-80.1,4.6-6.2,11.8-15.3,17.8-20,24.9-19.6,76.4-4.5,80.3-49.2,1.5-17-2.2-37.8-20.9-43-14.1-3.9-29.3,3-43-.5-.7,4.6.7,9.8,4.2,13,4.7,4.3,12,1.8,12.2,8.3h0ZM976.3,892.7c.7,5.5,3.1,9.9,3.3,13.9.3,6-8.6.3-10.7-2.5-3.8-5.1-8.4-22.6-8.4-28.9,0-5.2,2.4-10.6,2.7-16.1.4-7.3-1.5-13.4-1.7-20.5,8.7,1.4,10.2,14,9.8,21.3,11.1-1.9,11.6-14.3,9.8-23.7-.6-3.3-4.6-6.4-6.3-10.1-9.4-20.1.2-45.1,16.1-58.9,2.4-2.1,12.4-8.1,14.8-5.6.3.2.7,3.8-1.1,5.1-2.4,1.7-7.8-.5-12,7.5-1.4,2.7,0,5.1-1,7-3.3,6.3-9.2,12.3-10.5,20.7-2.4,16.1,8.3,23.2,11,36.3.8,4.1-.4,9.2.6,12.5,1.4,4.4,9.2,2,13.4,3,17.9,4.6,26.6,17.8,40,25.6,4,2.3,22,6.5,23.3,8.6.7,1.1,0,3.2.2,4.7l-13.1,1.6c7.4,3,13.9,1.4,21.3,0,.9,4.1-.9,2.9-3.1,4.3-5.3,3.4-10.2,4.5-16.6,3.9,4.1,4.7,1.6,25.1,2.3,26.2,3.7,6.1,29,7.2,35.8,6.1,13.4-2.1,24.7-18.2,38.9-21.8,2.9-.7,17.8-2.5,20.5-2.4,11.1.7,24.8,30.1,22.2,40.9,37.7-20.7,29.8-68.1,10.1-99.5-14.2-22.6-32.2-21-52.7-32.6-12.9-7.3-23.3-20.2.2-13.4,12.7,3.7,43.6,13.2,52.2,21.6,4.1,4,21.9,30.1,24.9,35.8,4.5,8.6,8,20.9,7.9,30.7,14.2-13.5,9.9-32.8,11.5-50,2.1-23.4,19-41.3,21.3-64,2.4-23.7-5.2-44.3-6.6-67.1-1.2-19,0-48.2,1.7-67.3,3.4-37.8,12.7-61.7,41.8-86,3.9-3.3,11.6-6.5,14-9,9.1-9.3,3.6-17.4-9-15.6-9.3,1.3-7.7,10.8-24.6,8-12-1.9-6.9-14.4-19.8-13.1-12.9,1.3-20.1,18.9-32.6,18.1-1.9-.1-7.6-1.8-8.5-3.1-4.6-6.7,5.9-5.4,10-8.2.7-.5,11-12.4,11.4-13.2,1.3-2.9,4.8-20.2-.8-18.9-3.1.7-12.9,5.3-15.8,7.2-4.3,2.7-10.2,10.6-13.1,11.5-2.8.8-18.2.9-20.2-.4-8.2-5.4,9.1-13.5,9.6-14.3,2.3-4-1.3-14.1-2.9-18.5-3.5-9.8-5.5-13.7-11.3-1.4-9.9,20.9-16.1,43.9-31.4,62.1-37.7,44.7-98.5,52.7-142.5,85.4-16.1,12-19.8,24.8-32.1,38.4-12.2,13.4-28.3,22.4-38.3,38.8-5.3,8.8-7.9,19-11.8,28.4,2.7,2,20.5-9.3,24.4-10.5,53.6-16.9,112.8,27.8,141.2,70.4.3,4.2-.6,1.8-2.8,1.2-16.3-4.5-27.6-22.6-42-30.2-12.7-6.7-50.8-21.6-64.3-22.6-22.2-1.8-54.1,8.6-62.3,31.1-14.8,40.4,6.1,67.6,26.1,98.5,16.1,24.9,22.7,40.9,48.3,58.3,10.2,6.9,21.6,12.1,31.9,18.9,16.8,11,19.4,18.3,43.1,20.8,21.5,2.3,14.1.9,20.4-11.6,2.1-4.2,7.7-12,10.2-16.4,1-1.7,5.6-8.2,4.4-9.4-8.5,3-16.3,4.1-25.5,3.3-4.8-.4-16.8-4.9-17.8-4.7-2.4.5-10.3,11-17.4,8-1.2,4.6,3.8,3.9,4.9,4.9.5.4.7,5,6.6,4.9.6.5,1,1.2,1.6,1.6,7.7,6.1,13.8,4.7,23,6.6-6.4,8.6-30.8,0-36.1-7.4-2.4-3.3-2.2-7.4-5.7-10.7-2.4-2.3-17.4-6.5-8-9.5,4.7-1.5,11.4,1.8,15.3-1.9,20.4-2.3,4.8-33.2-2.6-42.5-11.1-13.9-36.9-29.1-54.3-20.1-6.6,3.4-9.3,7.7-8.7,15.1.1,1.4,0,2.8,1.6,3.3,0,.5,0,1.1,0,1.6h0ZM1263.3,792.7c-.9-.8-8.4,3.7-8.2,4.1,2.5,6.4,6.7-.4,8.2-4.1ZM1261.7,800.9c-1.7-1.8-18.1,4.9,0,4.9-.2-1.3.3-4.6,0-4.9ZM871.3,845.1h-3.3v4.9c2.4-.5,3.8-2.7,3.3-4.9h0ZM865.2,854.9c0-1.1-.9-2-2-2s-2,.9-2,2,.9,2,2,2,2-.9,2-2ZM914.4,882.8c0-1.1-.9-2-2-2s-2,.9-2,2,.9,2,2,2,2-.9,2-2ZM843.5,923.8c.5-2.3-.9-4.4-3.3-4.9v4.9h3.3ZM1096.5,1018.8c0-1.1-.9-2-2-2s-2,.9-2,2,.9,2,2,2,2-.9,2-2ZM1087.8,1054.9c-1.6-1.7-7.5,3.1-2.4,4.9,3.5,1.2,3-4.3,2.4-4.9ZM1099.3,1069.7c-7.3.9-2.3,7.1,0,4.9.2-1.6-.3-3.5,0-4.9,1.1-.1,2.2,0,3.3,0,.5-3.4.2-3.7-3.3-3.3-.1,1.1.2,2.3,0,3.3ZM1089.9,1079.5c0-1.1-.9-2-2-2s-2,.9-2,2,.9,2,2,2,2-.9,2-2ZM1122.3,1113.9c6.3,1.4,7.7-5.2,8.2-9.8l-8.2,9.8Z"/>
          <path class="st1" d="M1043.5,951.7c-1.2-1.1-6.1-.3-4.9-4.9,7.1,3,15.1-7.5,17.4-8,.9-.2,12.9,4.3,17.8,4.7,9.1.7,16.9-.3,25.5-3.3,1.2,1.2-3.4,7.7-4.4,9.4-2.6,4.4-8.1,12.2-10.2,16.4-6.3,12.5,1.1,13.9-20.4,11.6-23.7-2.5-26.3-9.8-43.1-20.8-10.3-6.8-21.7-12-31.9-18.9-25.7-17.3-32.2-33.4-48.3-58.3-20-30.9-41-58.2-26.1-98.5,8.3-22.5,40.1-32.9,62.3-31.1,13.5,1.1,51.6,15.9,64.3,22.6,14.4,7.6,25.7,25.7,42,30.2,2.2.6,3.2,3,2.8-1.2-28.4-42.6-87.6-87.2-141.2-70.4-3.9,1.2-21.8,12.5-24.4,10.5,3.9-9.4,6.5-19.6,11.8-28.4,9.9-16.4,26.1-25.4,38.3-38.8,12.3-13.6,16-26.4,32.1-38.4,44-32.7,104.8-40.7,142.5-85.4,15.3-18.1,21.5-41.2,31.4-62.1,5.8-12.3,7.8-8.3,11.3,1.4,1.6,4.5,5.2,14.6,2.9,18.5-.5.9-17.8,8.9-9.6,14.3,2,1.3,17.4,1.3,20.2.4,2.9-.9,8.8-8.8,13.1-11.5,3-1.9,12.8-6.5,15.8-7.2,5.7-1.3,2.1,16.1.8,18.9-.4.8-10.6,12.7-11.4,13.2-4.2,2.8-14.6,1.6-10,8.2.9,1.3,6.6,3,8.5,3.1,12.5.8,19.6-16.8,32.6-18.1,12.9-1.3,7.8,11.2,19.8,13.1,17,2.7,15.3-6.7,24.6-8,12.6-1.8,18.1,6.3,9,15.6-2.4,2.4-10.1,5.7-14,9-29.1,24.3-38.4,48.2-41.8,86-1.7,19.1-2.9,48.3-1.7,67.3,1.4,22.8,9,43.4,6.6,67.1-2.3,22.6-19.2,40.6-21.3,64-1.5,17.2,2.7,36.4-11.5,50,0-9.7-3.4-22.1-7.9-30.7-3-5.7-20.7-31.8-24.9-35.8-8.6-8.4-39.4-17.9-52.2-21.6-23.5-6.8-13.2,6-.2,13.4,20.5,11.6,38.5,10,52.7,32.6,19.7,31.4,27.5,78.8-10.1,99.5,2.5-10.8-11.1-40.2-22.2-40.9-2.7-.2-17.6,1.6-20.5,2.4-14.2,3.6-25.5,19.7-38.9,21.8-6.8,1.1-32.1,0-35.8-6.1-.7-1.1,1.7-21.5-2.3-26.2,6.4.6,11.3-.5,16.6-3.9,2.1-1.4,3.9-.2,3.1-4.3-7.4,1.4-13.9,2.9-21.3,0l13.1-1.6c-.2-1.5.5-3.7-.2-4.7-1.4-2.2-19.3-6.3-23.3-8.6-13.4-7.8-22.1-21-40-25.6-4.1-1.1-11.9,1.4-13.4-3-1-3.3.2-8.4-.6-12.5-2.7-13.2-13.4-20.3-11-36.3,1.3-8.4,7.2-14.4,10.5-20.7.9-1.8-.4-4.2,1-7,4.1-8,9.6-5.8,12-7.5,1.7-1.3,1.3-4.8,1.1-5.1-2.5-2.4-12.4,3.5-14.8,5.6-15.9,13.8-25.5,38.8-16.1,58.9,1.7,3.7,5.7,6.8,6.3,10.1,1.8,9.4,1.3,21.9-9.8,23.7.3-7.3-1.1-19.9-9.8-21.3.2,7.1,2,13.2,1.7,20.5-.3,5.5-2.7,10.9-2.7,16.1s4.7,23.9,8.4,28.9c2.1,2.8,11,8.5,10.7,2.5-.2-4-2.6-8.4-3.3-13.9,9.8,21.5,39.4,45.4,64,42.6-3.9,3.7-10.6.5-15.3,1.9-9.5,3,5.5,7.2,8,9.5,3.5,3.3,3.2,7.4,5.7,10.7,5.3,7.3,29.8,15.9,36.1,7.4-9.2-1.8-15.3-.5-23-6.6l26.9,4.9c4.3-1.8,10.3-4.1,9.1-9.8-14.9,1.6-24.7.3-38.9-2.9-1.7-.4-5.8-1.6-5.4,1.3,3.9-.4,4.9,3.5,6.6,4.9-5.9,0-6.1-4.5-6.6-4.9h0ZM1191.2,563.2c.3-.3.2-7.3,0-8.9-2.2-12.7-19.8-14.4-14.3-4.5.4.6,3.8,1.5,5.3,3.6,1.6,2.3,4.9,13.9,9.1,9.8h0ZM1260.1,568.1c2.5,2.5,20.5-9.9,19.7-13.9-1.7-8-23,7.1-19.7,13.9ZM1245.3,574.7c5.3,3.9,13-17.4,4-21.3-9.8,0-7.2,19-4,21.3ZM1140.9,586.7c4.4-3,18.4-5.3,12.7-12.9-7.2-9.6-26.4,9.1-21.4,18.9,6.1,1.8,6.4-4.4,8.7-6ZM1037,635.3c-10.8-.8-14.6-.6-13.1,11.5-14.5,6.3-17.1,20.7-26.2,27.9-1.2.9-5.6.4-7.4,3.3-1.5,2.3-.3,5.4-.8,6.5-1.9,4.4-16.1,5.6-16.5,22.1-.6,21.2,21.9.1,25.2-7.9.8-2,.5-7.1-.5-7.7,8.1-3.9,7.2-4.1,3.3-11.5,3.4.8,9.8,3,12.8,1.3.6-.4,1.5-3.3,2.7-4.6,7-7.2,33.6-34,41.9-34.4.4,0,2.1,1.4,4,1.4,2.6,0,5.6-1.9,8-1.5,1.6.3,1.9,4,3.4,5.2,6.6,5.1,19.9-5.2,13.2-10.1-3-2.2-16.2-2.5-20.4-1.5,21.2-15,44.4-26,60.7-46.7-5.3-1.3-14.7,3.5-20.3,5.9-10.2,4.5-69.1,32.8-69.9,40.8h0ZM1245.3,587.8c-2.9-3-9.9,4.5-11.5,7.3-6.9,11.7-13.4,32.3-9.3,45.5.6,2,7.1,15.4,7.8,16,2.9,2.5,4.6-3.7,4.8-5.9.5-7.1-2.3-14-1.4-22.6.7-6.3,11.3-38.5,9.7-40.3h0ZM1220.7,589.4c-2.5-2.4-8.8,2.2-10.5,5.1-3.3,5.3-1.4,8.9-1,14.6,3.1,3.4,13.1-18.1,11.5-19.7h0ZM1194.5,625.5c5.2-2.7,7.2-9.9,0-9.8v9.8ZM1190,636.4c-1.1-.7.4-3.3-2.1-2.7-1.4,5-4.3,9.3-3.3,14.7l8.2-4.9c-1.7,8.8,2.4,5.4,5.8,8.1s10.2,12.8,14.7,11.5c8.9-12-12.5-16.3-17.3-20.5-1.9-1.6,1-1.7-6-6.3h0ZM1139.8,652c-8.2,1.9-12.9,13.8-6.9,14.4.9,0,16.8-6.5,17.1-7.5,2.5-7.3-4.7-8.1-10.2-6.9ZM1186.2,663.2c-4.2-4.2-7.2,6.7-6.5,9.8,4.7,1.4,8.4-8,6.5-9.8ZM1035.3,671.4h-3.3v6.5c3.3-.9,3.7-3.5,3.3-6.5h0ZM1084.5,674.7c-3-.4-4.8,0-6.5,2.5v2.4h6.5v-4.9h0ZM1231.6,683.4c-3.5-4-17.5-12.4-15.8-3.1.2,1.3,13.3,19.9,14.7,21,7.5,6.6,7.4-10.7,1.1-18h0ZM1086.2,710.7c-.5-4.9.8-10.9,0-15.6-2-10.8-29-6.1-25.7,7.4,2,8.1,8-3.7,14.7-1.5,4.6,1.5,4.1,11.9,10.9,9.7h0ZM1169.8,689.4c-1.2-1.2-18.6,3.7-19.4,5.1-1.8,2.9-.3,8.6,4.8,7.3,3.1-.8,19-8,14.7-12.4h0ZM1205.9,704.1c2.8-2.8-3.5-10.6-7.1-11.9-4.3-1.6-8.4,1.1-12.6.5.2,1.4-.4,4,0,4.8.6.9,18.8,7.4,19.6,6.7h0ZM1168.2,707.4c.9-.8,1.8-7.9,1.6-9.8-3.5-.2-6.9,14.8-1.6,9.8ZM1017.3,702.5c-3.7,0-12.3-2.2-14.8,3.3,10.5-1.4,5,2.4,6.6,8.8.3,1.3,3.2,1,3.4,2.1.2,2.1-2.4,6.4-1.7,7.2,1.8,1.9,6.4-6.3,9.6-5.2.8-.8,0-2.8.2-3,4.3-4,13.5.8,11.2-8.7-1.9-7.9-9.5-4.5-14.5-4.4h0ZM1229.3,746.3c2.1,2.1,6.6,3.1,7.6-.6,2.1-7.3-13.2-34.9-20.3-33.4-1.9.4-2.8,3.2-2.2,5.4.4,1.6,13.7,27.4,14.9,28.6h0ZM1198.9,722.7c-1.8-1.6-18.2-8.1-19.2-7.1-2.7,8,16.1,22.6,22.1,23,6.6.4-.2-13.6-2.9-16h0ZM1160,751.7c9.7-4,21.5,10.1,29,11.3,5.8.9,4.2-8.9,1.5-13-5.6-8.3-36.4-17.6-30.4,1.8h0ZM1144.8,755.4c-3-2.9-19.1-2.7-20.8-.3-5,7.5,20.3,22.9,27.8,13.8,0-.8-6.5-13-7-13.5h0ZM1227.9,762.5c-2.8-3.3-4.2-6.7-8.8-8.4-2-.8-8.2-2.2-6.6,1.7,1.9,4.9,8.4,13.8,11.3,19.9,1.9,4.2,3.3,17.6,9.1,15.2,10-4.1-.4-22.9-4.9-28.4h0ZM940.2,774.6c3.4-2.4,12.6-8.5,16-9.4s6.8-.4,10.2-.5c.9-5.2-1.6-2.5-4-3.2-10-3.1-16.2-2.2-25.4,4.2-22.4,15.5-23.6,61.4-9,82.5l20.4,28c3-17-9.5-28.8-16.4-42.6,7.4-4.6,1.4-15.8,1.5-22.1,0-3.7,1.3-8.2,1.8-12.3,9-5.3,8.5-14.5,19.7-16.4.2,0,1.4,1.2,3.3.8,8.7-1.9,19.7-8.3,3.2-7.3,3.4-1.8,8.4-2,9.8-4.9-12.4-2.5-20.3,5.1-31.2,8.2.4-1.3-.2-3.4,0-4.9h0ZM1127.2,786.1c-.4-.4-7-2.1-10.6-5-5.7-4.5-8.4-11.1-14.1-15.4-2.5-.3-12.2-8.8-13.9-5.9-6.7,11.9,17.9,31,29.6,31.3,1.7,0,12.6-1.5,9-5h0ZM1177.8,766.7c-.6-1-19.5-6.6-22.7-6.8-4.6,9.8,18.2,23.6,22.7,16.1.7-1.1.7-8.3,0-9.4h0ZM1206.7,776.3c-7.4,8.3,3.9,24,9.3,31.6,3.2,4.5,10.6,16,11.3,3.6.7-12.2-15-24.8-20.6-35.2ZM1002.5,789.4c-1.6-1.9-7.4,6.3-8.9,6.6-4.3,4.8-.7,29.5,3.2,31.1,7.5,3.2,1.4-8,1-12.5-.3-3.1-.6-6.6-.2-9.7.5-4.1,6.4-13.7,4.9-15.5h0ZM958.3,791c-3.7-3.3-12.6,6-14.4,9.4-3.4,6.4-6,27.6,4.5,24.2.4-5.2-.8-11,.3-16,.7-3.1,10.9-16.3,9.5-17.5h0ZM1219,848.4c1.6-4.9,2.2-8,.9-13.1-.9-3.4-15.4-26.9-18.1-29.5-10.2-9.8-34.4-15.3-48.4-14.8-.6,3.2,1.5,4,3.8,5.2,5.9,3.3,14.9,4.6,22.5,8.7,15,8.1,20.7,17.2,29.6,31.1,2.7,4.2,3,12.3,9.8,12.3h0ZM1015.1,799.8c-1.2-1.2-9.3-7-7.6-1.4,1.5,4.8,9,14,10.7,20.5,3.2,12.1-.4,24.6,12.2,33.7,14.2,10.4.5-8.9-.7-12.4-4.5-13-2.9-29.2-14.5-40.4h0ZM1036.8,796.1c-.9-.6-3.3,0-4.8-.1,2.3,12.3.9,25.3,4.4,37.4,6.1,20.9,25.6,31.9,46.4,33.1-11.4-11.9-23.9-12.3-33.8-27.6-6.3-9.7-10.4-41.5-12.3-42.7h0ZM1058.3,833.7c-.4-.3-2.2,0-3.2-.9-2.7-2.5-3.5-7.7-8.3-7.2.5,9.4,11.2,20.5,19.5,23.9,5,2.1,3.3-1.1,3.4-4.3,2.2,1.2,11.6,3.7,13.9,3.3,1.9-.7.3-4.2.8-5,.3-.4,6.7.8,1.6-6.6.4.3,3.4-.3,4.8.9,10.2,8.2,30.8,39.1,31.4,52.3.2,5.8-4.8,21.9,4,13.9,10.6-9.6,1.2-37.9-3.3-49.1,17.2,5.7,25.4,11.1,29.6,29.4,1.3,5.8-1,12.2,3.2,16.5,5.9-9.5.4-19.8-.8-29.5l18.1,12.6c1.3,1.3,8.1,14.8,8.1,16v28.7c3.8.8,2.6-.4,3.7-2.1,7.8-12.3,5-31.9-.1-44.9-16.3-41.2-64.7-35.9-96.9-58.8-2.8-2-11.1-12.6-14.9-8.9-3.2,3.2,10,20.6,13.1,22.9-3.3-4.9-21.7-16.9-27.9-19.7-1-2.1-2.3-12-5.4-4.5-2.1,5.2,2.9,15.7,5.4,20.9h0ZM953.3,836.9c-.2-.2-4.9-.7-4.9.9,1.4,3.8.7,25.3,4.1,25.3,4.3,0,2.3-24.9.8-26.2h0ZM1096,892.6c3.9,4.3,12.1-18.2,5.7-18-1.8,0-6.4,17.2-5.7,18ZM1145.2,902.5c2.5-2.3,1.5-24.5-4.1-24.6-5.3,0-.6,21-.8,24.6,1.3-.2,4.6.3,4.9,0h0ZM1089.5,886.1c-1.7-1.9-10,6.4-8.2,8.2,4.6-.2,9.3-3,8.2-8.2ZM1079.6,910.7c-3,.8-9.4-.2-8.2,4.9,8.4,2.2,7.5,6.8,16.8,2.9s18.4-13,17.6-24.1c-1.1,0-2.2,0-3.3,0-4.5.4-22.6,10.2-23,16.4Z"/>
          <path class="st1" d="M1122.3,1113.9l8.2-9.8c-.5,4.6-1.9,11.2-8.2,9.8Z"/>
          <path class="st1" d="M1261.7,800.9c.3.4-.2,3.6,0,4.9-18.1,0-1.7-6.7,0-4.9Z"/>
          <path class="st1" d="M1263.3,792.7c-1.5,3.6-5.6,10.5-8.2,4.1-.2-.4,7.3-4.9,8.2-4.1Z"/>
          <path class="st1" d="M1087.8,1054.9c.6.6,1,6.1-2.4,4.9-5.1-1.8.8-6.6,2.4-4.9Z"/>
          <path class="st1" d="M871.3,845.1c.5,2.3-.9,4.4-3.3,4.9v-4.9h3.3Z"/>
          <path class="st1" d="M843.5,923.8h-3.3v-4.9c2.4.5,3.8,2.7,3.3,4.9h0Z"/>
          <circle class="st1" cx="1087.9" cy="1079.5" r="2"/>
          <path class="st1" d="M1099.3,1069.7c.2-1-.1-2.2,0-3.3,3.4-.5,3.7-.2,3.3,3.3-1.1.1-2.2-.1-3.3,0Z"/>
          <circle class="st1" cx="912.4" cy="882.8" r="2"/>
          <circle class="st1" cx="1094.4" cy="1018.8" r="2"/>
          <path class="st1" d="M976.3,891c-1.6-.5-1.5-1.9-1.6-3.3,1.6.5,1.5,1.9,1.6,3.3Z"/>
          <path class="st0" d="M1086.2,836.9c-3.1-2.4-16.4-19.7-13.1-22.9,3.8-3.8,12,6.8,14.9,8.9,32.3,23,80.6,17.7,96.9,58.8,5.1,13,7.9,32.6.1,44.9-1.1,1.7.1,2.9-3.7,2.1v-28.7c0-1.2-6.8-14.8-8.1-16l-18.1-12.6c1.2,9.7,6.7,20,.8,29.5-4.2-4.3-1.9-10.7-3.2-16.5-4.2-18.3-12.4-23.7-29.6-29.4,4.5,11.2,13.9,39.5,3.3,49.1-8.8,8-3.8-8.2-4-13.9-.6-13.3-21.1-44.1-31.4-52.3-1.4-1.1-4.4-.5-4.8-.9h0Z"/>
          <path class="st0" d="M1219,848.4c-6.7,0-7.1-8.1-9.8-12.3-8.9-13.9-14.5-23-29.6-31.1-7.6-4.1-16.6-5.4-22.5-8.7-2.3-1.3-4.4-2.1-3.8-5.2,14-.5,38.2,4.9,48.4,14.8,2.7,2.6,17.2,26.1,18.1,29.5,1.4,5.1.7,8.2-.9,13.1h0Z"/>
          <path class="st0" d="M1245.3,587.8c1.7,1.8-9,34-9.7,40.3-.9,8.6,1.9,15.5,1.4,22.6-.2,2.3-1.9,8.4-4.8,5.9-.7-.6-7.2-14-7.8-16-4.1-13.2,2.4-33.8,9.3-45.5,1.6-2.8,8.7-10.3,11.5-7.3h0Z"/>
          <path class="st0" d="M1036.8,796.1c1.9,1.2,5.9,32.9,12.3,42.7,10,15.3,22.5,15.8,33.8,27.6-20.8-1.2-40.3-12.1-46.4-33.1-3.5-12.1-2.1-25.1-4.4-37.4,1.5.2,3.8-.5,4.8.1h0Z"/>
          <path class="st0" d="M1127.2,786.1c3.6,3.5-7.3,5.1-9,5-11.7-.3-36.2-19.4-29.6-31.3,1.6-2.9,11.4,5.6,13.9,5.9,5.7,4.3,8.4,10.9,14.1,15.4,3.7,2.9,10.2,4.6,10.6,5h0Z"/>
          <path class="st0" d="M940.2,779.6c-2.4,8.3-3.8,9.4-4.9,19.7-.5,4.1-1.7,8.6-1.8,12.3,0,6.3,5.9,17.5-1.5,22.1-10.7-21.4-13-44.3,8.2-59-.2,1.5.4,3.6,0,4.9Z"/>
          <path class="st0" d="M1015.1,799.8c11.6,11.2,10,27.3,14.5,40.4,1.2,3.5,14.9,22.7.7,12.4-12.6-9.2-9-21.6-12.2-33.7-1.7-6.5-9.2-15.7-10.7-20.5-1.7-5.5,6.4.3,7.6,1.4h0Z"/>
          <path class="st0" d="M1160,751.7c-5.9-19.4,24.8-10,30.4-1.8,2.7,4.1,4.3,13.9-1.5,13-7.5-1.2-19.2-15.2-29-11.3h0Z"/>
          <path class="st0" d="M1227.9,762.5c4.6,5.5,14.9,24.3,4.9,28.4-5.8,2.4-7.1-11-9.1-15.2-2.8-6.1-9.3-15-11.3-19.9-1.5-3.9,4.6-2.4,6.6-1.7,4.6,1.7,6.1,5.1,8.8,8.4h0Z"/>
          <path class="st0" d="M1206.7,776.3c5.6,10.4,21.4,23.1,20.6,35.2-.7,12.4-8.1.9-11.3-3.6-5.4-7.6-16.7-23.3-9.3-31.6Z"/>
          <path class="st0" d="M1144.8,755.4c.5.5,7,12.7,7,13.5-7.5,9.2-32.8-6.3-27.8-13.8,1.6-2.4,17.7-2.7,20.8.3h0Z"/>
          <path class="st0" d="M1058.3,833.7c-2.5-5.1-7.5-15.6-5.4-20.9,3.1-7.5,4.4,2.4,5.4,4.5,5.3,11.3,14.8,21.1,26.2,26.2-.5.7,1.1,4.2-.8,5-2.3.4-11.8-2.2-13.9-3.3-3.6-1.9-8.5-8.9-11.5-11.5h0Z"/>
          <path class="st0" d="M1086.2,710.7c-6.9,2.3-6.4-8.2-10.9-9.7-6.7-2.2-12.8,9.6-14.7,1.5-3.3-13.5,23.7-18.2,25.7-7.4.8,4.6-.5,10.7,0,15.6h0Z"/>
          <path class="st0" d="M1229.3,746.3c-1.1-1.1-14.5-27-14.9-28.6-.6-2.2.3-5,2.2-5.4,7.1-1.5,22.4,26.1,20.3,33.4-1.1,3.7-5.6,2.6-7.6.6h0Z"/>
          <path class="st0" d="M1190,636.4c7,4.6,4.1,4.7,6,6.3,4.7,4.2,26.2,8.5,17.3,20.5-4.5,1.3-11.2-8.7-14.7-11.5s-7.5.6-5.8-8.1l-8.2,4.9c-1-5.5,1.9-9.8,3.3-14.7,2.6-.7,1,1.9,2.1,2.7h0Z"/>
          <path class="st0" d="M1198.9,722.7c2.7,2.4,9.5,16.4,2.9,16-6-.4-24.8-15-22.1-23,1-1.1,17.3,5.4,19.2,7.1h0Z"/>
          <path class="st0" d="M1231.6,683.4c6.3,7.3,6.4,24.6-1.1,18-1.4-1.2-14.4-19.8-14.7-21-1.7-9.3,12.4-.9,15.8,3.1h0Z"/>
          <path class="st0" d="M1140.9,586.7c-2.3,1.6-2.6,7.8-8.7,6-4.9-9.9,14.2-28.5,21.4-18.9,5.7,7.6-8.2,9.9-12.7,12.9Z"/>
          <path class="st0" d="M1177.8,766.7c.7,1.1.6,8.3,0,9.4-4.5,7.5-27.3-6.4-22.7-16.1,3.3.2,22.1,5.8,22.7,6.8h0Z"/>
          <path class="st0" d="M1066.5,635.3c4.2-1.1,17.3-.7,20.4,1.5,6.8,4.9-6.6,15.3-13.2,10.1-1.5-1.1-1.8-4.9-3.4-5.2-2.4-.4-5.4,1.5-8,1.5-1.9,0-3.6-1.4-4-1.4,0-5,4.2-5.6,8.2-6.6h0Z"/>
          <path class="st0" d="M958.3,791c1.4,1.3-8.8,14.4-9.5,17.5-1.1,5,0,10.9-.3,16-10.6,3.4-8-17.8-4.5-24.2,1.8-3.4,10.7-12.7,14.4-9.4h0Z"/>
          <path class="st0" d="M1002.5,789.4c1.5,1.8-4.5,11.5-4.9,15.5-.3,3.1,0,6.6.2,9.7.5,4.4,6.5,15.6-1,12.5-3.9-1.6-7.6-26.3-3.2-31.1,1.5-.3,7.4-8.5,8.9-6.6h0Z"/>
          <path class="st0" d="M1017.3,702.5c5,0,12.6-3.4,14.5,4.4,2.3,9.5-6.9,4.7-11.2,8.7-8.9,1-8-8.1-3.3-13.1Z"/>
          <path class="st0" d="M1139.8,652c5.5-1.2,12.7-.4,10.2,6.9-.3,1-16.2,7.6-17.1,7.5-5.9-.6-1.3-12.5,6.9-14.4Z"/>
          <path class="st0" d="M1245.3,574.7c-3.2-2.3-5.8-21.2,4-21.3,9,3.9,1.3,25.2-4,21.3Z"/>
          <path class="st0" d="M997.6,674.7c1,1.7,2.4,3.2,3.3,4.9,3.9,7.4,4.8,7.6-3.3,11.5-1.8-1.2-6.6.5-8.2-6.6.5-1.1-.7-4.2.8-6.5,1.8-2.9,6.2-2.4,7.4-3.3h0Z"/>
          <path class="st0" d="M1191.2,563.2c-4.2,4.1-7.4-7.5-9.1-9.8-1.6-2.2-5-3-5.3-3.6-5.5-9.8,12.1-8.1,14.3,4.5.3,1.6.4,8.6,0,8.9h0Z"/>
          <path class="st0" d="M1260.1,568.1c-3.3-6.8,18-21.9,19.7-13.9.9,4-17.2,16.4-19.7,13.9Z"/>
          <path class="st0" d="M1205.9,704.1c-.8.8-19-5.8-19.6-6.7-.5-.8.1-3.4,0-4.8,4.3.7,8.4-2.1,12.6-.5,3.5,1.4,9.8,9.1,7.1,11.9h0Z"/>
          <path class="st0" d="M1169.8,689.4c4.3,4.4-11.6,11.6-14.7,12.4-5,1.3-6.5-4.3-4.8-7.3.9-1.4,18.3-6.3,19.4-5.1h0Z"/>
          <path class="st0" d="M1102.6,894.3c-1.4,12.6-13.5,13.8-23,16.4.3-6.1,18.5-16,23-16.4Z"/>
          <path class="st0" d="M1145.2,902.5c-.3.3-3.6-.2-4.9,0,.2-3.5-4.5-24.6.8-24.6,5.6,0,6.5,22.2,4.1,24.6h0Z"/>
          <path class="st0" d="M1220.7,589.4c1.6,1.6-8.3,23.1-11.5,19.7-.4-5.7-2.3-9.3,1-14.6,1.8-2.9,8-7.4,10.5-5.1h0Z"/>
          <path class="st0" d="M1037,635.3c0,1,2.8,2.5.2,5.8-4.3,5.5-9.8,4.2-13.3,5.7-1.5-12.1,2.3-12.3,13.1-11.5Z"/>
          <path class="st0" d="M953.3,836.9c1.5,1.2,3.6,26.2-.8,26.2-3.4,0-2.7-21.5-4.1-25.3,0-1.6,4.7-1,4.9-.9h0Z"/>
          <path class="st0" d="M1096,892.6c-.7-.8,4-17.9,5.7-18,6.4-.2-1.9,22.3-5.7,18Z"/>
          <path class="st0" d="M961.5,776.3c16.4-1,5.4,5.4-3.2,7.3-1.9.4-3.1-.8-3.3-.8-.9-3.3,3.8-5.1,6.6-6.6h0Z"/>
          <path class="st0" d="M1186.2,663.2c1.8,1.8-1.8,11.2-6.5,9.8-.7-3.1,2.4-14,6.5-9.8Z"/>
          <path class="st0" d="M1089.5,886.1c1.2,5.2-3.6,8-8.2,8.2-1.9-1.8,6.5-10,8.2-8.2Z"/>
          <path class="st0" d="M1194.5,625.5v-9.8c7.2,0,5.2,7.1,0,9.8Z"/>
          <path class="st0" d="M1168.2,707.4c-5.2,5-1.8-10,1.6-9.8.2,1.9-.8,9-1.6,9.8Z"/>
          <path class="st0" d="M1324,409.1c5.2-18.2,24.5-34.5,44-28.4,16.5,5.2-14.3,10.9-18.9,13.3-4.1,2.1-21.5,18.4-25.1,15.1h0Z"/>
          <path class="st0" d="M1297.4,294.7c5.9-.7,13.5,2.6,15.1,8.7-4.2,6.2-9,2.4-13.6,2.9-7.3.8-11.6,8.3-16.8,12.7-8.2-9.6,5.5-23.1,15.2-24.3Z"/>
          <path class="st0" d="M1258.4,487.8c-3.3-7.6,20.3-47.4,23.8-47.5,1.8,0,2.6,3.6,2.4,5.6-.6,8.3-20.2,34.5-26.2,41.9h0Z"/>
          <path class="st1" d="M1315.8,400.9c1.4,7.8-8,12.5-11,16.9-1.8,2.6-1.6,10.9-7.1,12.6-2.2-13.4,5.1-25.3,18-29.5Z"/>
          <path class="st1" d="M1284.6,405.8c2.8,7-2.6,9.6-3.1,11.1-3.2,8.7-4.2,17.2-12.4,23.3.7-8.9,5-20.5,9.2-28.4,1.4-2.7,2.4-6.5,6.3-5.9h0Z"/>
          <path class="st1" d="M1324,315.7c2.6,2.5,1.4,17.1,1.6,21.3l-5-12.2c-.3-2-.7-12.9,3.3-9.1Z"/>
          <path class="st1" d="M1291.2,343.5c.1-3.5-1.3-6.7-1.2-10.2,0-1.5.7-7.5,3.6-6.2,4.8,2.3,2.8,14.7-2.4,16.4h0Z"/>
          <path class="st1" d="M1406,371.4c1.8,1.6-8.2,11.3-11.5,8.2-.6-.5-.2-4.8,1.6-5.8,1.7-.9,3.2.6,4.1.5s1.4-4.8,5.7-2.9h0Z"/>
          <path class="st0" d="M1028.7,920.4c-1.2.8-8.8-.8-9.5-1.8-.8-1.3.4-4.2-.6-5.9-.4-.7-11.4-9.4-12.3-9.9-4.9-2.4-24.1-1.2-17.7-11.8,7.2-11.9,34.2,5.9,38.9,15.2,1.3,2.7,3.7,12.4,1.2,14.2h0Z"/>
        </g>
        <g>
          <path class="st0" d="M313.7,227.2c-4.1,5.7.7,7.5,3.3,1.6,7.8,2.5,11.1,8.7,14.3,9.6,4.3,1.2,8.3-1.7,12.6-1.4,5.8.5,15.9,9.6,18.9,14.4,1.3,2,.7,5.8,2.2,8.1,2.3,3.4,13.9,7.3,18.4,11.9,8.8,9,6.3,16.6,9.8,23s17.3,5.3,21.4,21.2c3.2,12.3-.7,9.2,9.6,19.2,4.2,4.1,3.2.5,7.7,9.1.7,1.4,4.6,6.8,4.7,7.3.7,3.3-.7,6.5.5,10,.6,1.6,10,6.8,11.8,8.6,8.5,8.4,10.7,19.7,12.3,31.1,1.7.7,3.3-3.8,3.3-4.1v-24.6c0-15.8,28.6-78.7,39.9-90.4,3.6-3.7,8.8-6.5,14.2-5.5-2.3,35.5,3.3,69.8,13.6,103.6,4.2,14,10.5,27.1,14.7,41,13.8,45,19.1,90.4,16,137.3,3.6,3.8,56.3-29.3,57.1-40.5l18.2-71.8c-3.4-13.7-29.1-32.1-15.3-46.6,2.2-2.3,6.7-3,7.1-3.6,2.9-4.4-4.6-19.2,7.8-25.8,10.2-5.4,43.1,5.8,47.7,17.5,5.4,13.8,1.6,30.4-5.2,43-3.3,6.1-9.2,11.1-11.5,18-10.2,30-5.4,71.3-24.1,100.5-4,6.2-9.7,9.5-13.7,14.1-17.7,20.1-35.4,38.3-56.3,55.3,4.6,27.9,16.3,54.3,24.8,81.2,7.6,24,16.9,48.2,22.1,73,1.1,5.1,1.1,11.5,2.1,16.8,24.6-17.4,43.5-38.1,71.6-50.6,32.2-14.3,69.2-22.3,102.3-34.7-1.1-5.2-3-10.1-3.3-15.5-.6-8.2,1.6-16.4,1.5-23.2-.2-14.8-4-28.4,1-43.2,4.5-13.3,16.5-23.4,24.6-6.6,12.6,26.4,15,67.7,26.7,95.9.6,17.6-28.8,17.5-41.3,22.3-17.5,6.8-35,22.9-51.8,31.8-21.1,11.1-45,13.9-61.6,31.9-14,15.2-58.6,72-67.1,88.7-2.3,4.4-2.3,9.2-4.5,13.6-6.6,13-25.4,41.3-24.5,54.3,1.1,15.4,18.1,23.2,5.7,41.7-11.5,17.3-44.9,26-64.4,27.1-10.1.5-16.4-2.7-22.3-10.7-7.1-9.6-9.3-29.6-23.9-27.7.7,29.5,7.8,63.3,4.9,92.6-1.6,16.3-18.5,31-30.3,41.9-19.1,17.7-42.8,30.5-58.3,51.6,5.2,9.7,7.5,25.9,15.6,33.6,13.2,12.6,48.7,5.9,54.2,26.2,1.8,6.9.7,14.3-7,16.1-8.6,2-48.9,1.5-58.5.2-5-.7-8.5-2.6-12.5-5.5-6.8-5.1-33.5-33.6-39.3-41.1-3.1-4-8.3-11.4-8.3-16.4,0-11,23-28.2,30.5-36.9,6.2-7.3,11.2-16.7,17.2-23.8,15.1-17.8,31.3-34.5,45.6-52.9-4-32-18-62.8-25.6-93.4-1-3.9.5-8.1-1.2-11.9-1.2-2.7-26.5-22.7-31.9-28.8-44.8-50.3-53.9-102.1-78-161.4-5.2-12.7-12.2-25.7-18.3-37.6-25.4,5.1-62.7,14-76.3,38.1-4.3,7.7-22.3,49.4-22.6,56.2-.6,12.4,19.9,24.1,19.4,39.2-.3,10.1-11.8,9.5-12.9,10.6-.9.9,5.2,18.3-1.6,25.4-8.3,8.6-37.5-.4-46-6.5-16.4-11.8-6.9-37.3.3-52.3,2.4-5,6.8-9.3,8.8-14.2,15.1-36.9,11.2-79,45.3-107.2,18.2-15.1,40.6-24.2,58.9-38.6-16.5-10.3-34.6-22.5-52.4-30.4-23.8-10.6-57.6-9-79.3,6.1-4.6,3.2-22,24.8-24.1,10.3-.5-3.2,1.2-23.7,1.9-27.6,2.3-13.8,14.6-41.1,23.6-51.8,16.5-19.6,47.7-31.3,73-31.1-20.6-34.8-32.4-75.2-57.4-107.3-9.3-12-45.6-45-40.8-60.4,2.4-7.8,15.9,5.5,19.6,7.8,29.5,17.8,55.8,17.6,83.5,31.3,7.8,3.9,13.3,10.8,21.3,13.9-3.1-7.5,3.9-20.3,3.3-25.4-.4-3.7-7.3-8.4-8.3-16.4-1.3-11.6,4.8-15,4.9-19.7,0-3.5-6-12.5-6.5-19.7-.7-10.3,5.2-17.5,4.9-22.8-.5-7.3-5.9-12.1-5-24.8.8-10.4,7.2-14.8,7.9-18.2.8-4.2-2.2-9.3.3-17.9,2.5-8.6,8.9-11.4,10.7-15.5,2.5-5.6-.3-10.3,5.1-17.9,5.8-8.2,10.6-5.6,15-8.8,6.7-4.9,3.5-13.7,21-14.3,6.4-.2,8.7,2.8,11.7,3,1.8.2,7.9-3.8,15.3-3h0ZM289.1,241.9c-2.8-.7-2.3-2.8-7.2.2-9.6,5.8-4.3,22.1,2.8,20.7,2.6-.5,4.7-4.1,6-4.5.8-.3,2.3.3,3.3,0,.5-.1,1.1.1,1.6,0,3.4-.7,5.8-1,4.6-5.4-1.6-5.9-5.7-9.6-11.2-11h0ZM310.4,253.4c-3.5,0-6.7-.9-4.9,4.1,1.6,4.4,5.3,1.6,4.9-4.1,1.9,0,7.6.4,8.1-.1,1.2-1.3-1.8-4.4,1.7-4.8.2.9-.2,2.2,0,3.3,4.8.9,5.4-3.9,0-3.3-2.5-9.4-5.1-8.2-14.8-8.2-.4,4.7,4.6,8.9,4.9,13.1h0ZM344.9,253.4c-.3-.3.9-3-1-3.4-2.7-.5-6.1,1.5-8.8,1.8-1.9,2.6,6.1,7.6,7.3,9.9,1.1,2.2.6,6.2.9,6.5.7.8,13.1-1,8.2-8.2-1.2-1.7-5-4.7-6.6-6.6h0ZM266.1,255c-6.6.6-9.3,7.5-8.2,13.1,11.4,1.5,11.2-4,8.2-13.1ZM318.6,268.1c.2.4-.1,1.1,0,1.6s-.2,1.2,0,1.6c0,.2-1.5.1,0,3.3.3.6,2.8,1.1,3.2,2.9.5,2-.4,6.5,0,7,.7.8,18-2.2,18-8.2,0-4.9-2.8-5.6-4.9-8.2-4.5-5.5-7.3-9.3-15.6-8.4-8,.9-1.1,7.7-.8,8.4ZM303.5,265.3c-14.8-6-18.4,22.6-10,24.3,2.8.5,17.4-3.2,18.4-6.1,1.6-4.8-4.9-16.8-8.4-18.2ZM282.4,294.2c1.3-1.9,0-27.2-12.9-15.3-6,5.6-1.9,12-1.7,18.8,2.6-.9,13.8-2.3,14.6-3.5ZM374.4,287.8c-.6-1.3.2-3.4-1.5-5.8-4.5-6.2-18.2-11.9-21.4-3.2-1,2.9,3.7,3.1,5.7,5.7,2.7,3.6,6.5,14.7,7.8,16,.8.8,2.3.1,2.9.3,8.7,3.3,11.7.7,9.8-9.1-.6-3.3-3.1-3.7-3.3-4.1h0ZM256.3,281.3c-10.7-1.4-11.6,19.8,0,16.4v-16.4ZM320.3,282.9h-4.9v3.3h4.9v-3.3ZM349.8,292.7c-6.4-6.5-20.4-6.1-20.9.8,0,1.1,8.1,18.4,9,19,5.4,3.5,12.9-.5,15.3-6.7,2.6-6.9,1.9-7.8-3.3-13.1ZM302.5,323.6c2.7,1.6,19.3-2.7,21.8-6.4,14.4-21.2-33.7-33.2-26.6-2.7.3,1.1,4.4,8.8,4.9,9.1h0ZM273,331.8c3,1.9,15.2-1,17-4.6,1.6-3.2-2.1-19.2-4-20.6-4.1-3-13.8,1.7-15.7,5.9-1.8,4-.4,17.4,2.7,19.4h0ZM259.6,309.1c-15.2-2.3-17.8,24.9-7,27.7s3.7-13,3.9-16.9c.2-3.8,3.2-6.9,3.2-10.8h0ZM380.4,309.4c-5.9,1.9,3.4,20.8,6.2,22.8,5.8,4.2,16.4-.7,15.1-8.4-1.6-8.9-12.1-17.5-21.2-14.5h0ZM545,479.6c-4.7-33.9-15.7-66.7-27.9-98.3l-4.9,3.3c-3.8-20.2-9-40.8-9.5-61.5-.1-4.3,4.7-10-3.7-6.4-8.3,31-24.5,65.5-21.3,98.3.4,3.7,10.3,30.4,12.4,33.5.4.7,2.1,2.2,2.5,1.6-.9-4.9-1.6-10,.8-14.7,12.3,2.9,5.6,2.6,6.6,10.6,0,.5,2.1,8.7,2.5,9,.2.2,4.7.1,4.9,0,1-.8-1.6-3.8-1.6-4.1v-46.7c7.5,3.7,3.2,12.7,3.8,16.9.2,1.5,2.5,3.1,2.7,5.3.5,4.4,1.8,12.6,1.9,16.4s-3.8,1-3.4,4c1.2-.2,2.7-.3,3.2,1.2,2.7,8.2,2.2,23.4,3.3,32.5.3,2.5.3,5,3.3,5.7,5.1-31.6-1.1-63.2-6.6-94.2,1.2-2.3,3.1,2.2,3.6,3,2.7,4.5,10.8,22.3,3,22.5v1.6c5.5.5,7.6,13.9,8.2,18.9,12,98.6-31.4,199.3-22.9,299.9.2,2,.6,8.8,3.2,9-1.7-44.7,12.5-87.9,21.3-131.1.2-1-.2-2.3,0-3.3.1-.5-.1-1.1,0-1.6,18.2-40.4,20.8-87.6,14.8-131.1h0ZM364.1,319.4c-4.9-2.8-18.9-1.1-20.7,5.7-1.2,4.5,4.6,18.4,9,19.9,2.5.8,15.9-3.7,16.7-5,2.4-3.9-.8-18.2-5-20.6h0ZM321.5,329.2c-3.7.5-12.8,3.5-14.1,7.2-1.6,4.6,3,19,7.3,20,1.7.4,22.8-7,23.5-9,.9-2.8-1.9-14.9-3.9-17-2.7-2.8-9-1.7-12.8-1.1h0ZM279.7,342.3c-5.6,4.6-6.3,24.6,5.1,24.1,2.2,0,11.8-3.4,13.3-4.9,4.8-4.8.2-22.9-8.2-22.8-.9,0-9.6,3.1-10.2,3.6h0ZM400.2,342.2c-1.5.3-4.7,1.7-5.4,3-1.1,1.8,6.4,20.4,8.4,22.9,7.9,9.9,18.6.3,16.8-10.2-1.6-9.1-10-17.6-19.8-15.7h0ZM423.6,343.6h-4.9v3.2c2.3.5,4.4-.9,4.9-3.2h0ZM259.6,346.8c-14.1,2-18.3,32.6-1.6,27.2,10.1-3.3,0-19,1.6-27.2ZM428.5,348.5l-4.9-1.7c-.8,4.3.9,3.4,4.9,3.3v-1.6h0ZM388.9,374.5c.9-1.4.4-12.5-.1-15-1.7-7.7-9.6-10.3-16.7-9.3-21.5,3-11.6,30.4,1.3,29.4,1.7-.1,15.1-4.4,15.6-5.1h0ZM481,358.3c.5-2.3-.9-4.4-3.3-4.9v4.9h3.3ZM349.4,384.1c1.1-1.1,1.7-3.9,1.9-5.5,3.4-31.5-46.9-15.1-31.1,8,4.8,7,25,1.7,29.2-2.5h0ZM284.5,402.2c2.8,1.6,16.9-1.5,19.9-3.2,9-5.2,2.9-27.6-13.7-23.6-13.2,3.2-12,23.4-6.1,26.8ZM422,414c19-.9,28.7-7.1,19.3-26.7-4-8.4-22.1-13.9-24.2-6.8-.7,2.4,9.7,24.2,9.8,29.3l-4.9,4.1h0ZM398.5,386.7c-8.1-2.5-21.7-2.2-22.6,8.4-.1,1.7,3.3,20.8,3.8,21.8,1.1,2.2,12,10.3,15.2,10.2.7,0,13.2-5.3,13.9-5.7,8.4-5.4,2.9-25.7-3.1-30.9-2.1-1.8-4.2-.5-5.4-1.2-1.5-.8-1.5-2.5-1.8-2.6h0ZM265.9,386.4c-18.6-4.9-19.6,31.4-1,27.3,11.5-2.5,1-18.5,1-27.3ZM346.1,396.4c-1.2.3-11.6,5.9-12.8,6.9-8.8,7.4-5.6,29.8,4.1,35.5,3.9,2.3,16.9,0,21.8-1.4,5.3-1.6,13.1-6.6,13.5-12.7.2-3.6-4.9-19.3-7.2-22.2-3.9-4.9-13.4-7.7-19.4-6h0ZM301.8,412.8c-12.9,1.8-17.6,12.3-15.6,24.6,2.5,15,10.5,16.7,24.6,13.9,13.1-2.6,11.5-18.7,8-28.6-3.2-9.2-7.4-11.3-17.1-9.9h0ZM441.2,419.3c-12.4,3.7-1.1,14.7.1,20.5,1,4.7-1.1,16.5,4.8,18.3s20.1-6.8,20.3-13.7c.3-13.8-9.3-29.8-25.2-25.1h0ZM271.1,425.5c-28.4-1-17.1,53.8,7.1,36.2,8.1-6-10.3-26.8-7.1-36.2ZM401.9,458.5c.4.7-1.2,2.6-.9,3.6,2.1,7.8,28.9-1.7,30.3-8.2,1.7-8-2-20.6-10.9-22.8-15-3.7-26.3,7.8-23.1,23.1.9,4.1,4.1,3.5,4.6,4.3h0ZM227.8,483.4c4.8,4.7,9.9,12.2,14.5,17.4-1.7-5.5-1.2-14.9-3.3-19.6-1-2.2-23.1-23.5-26.5-26-11.2-8.3-40.8-19.3-54.6-22.5-1.5-.3-4.3-2-5,0,7.3,11,17.9,19.7,25.3,30.5,17.4,25.3,21.9,56.9,39,82.3,10,14.8,17.7,22.8,35.8,27.3l-55.8-90.9c-1-4.5,3.7-1,4.4-.3,3.9,4,6.1,10.4,11.8,13.6,8.4,6,24.8,42.2,30.6,44.8.9.4,2.8.3,2.4-.8-3.3-5-5.7-10.6-8.2-16-3.9-8.3-4.7-15.6-10.1-24.7-7-11.8-19.5-25.2-29.2-34.7,2.5-1.2,8.7,2.7,10.7,4.1,4.7,3.2,14.2,11.3,18.3,15.3h0ZM369.5,443.5c-13.4,1.9-33.6,6.5-28.4,24.3,4.7,15.9,19.9,13.4,33,9,15.4-5.2,17.7-13.3,10.2-26.7-2.8-5.1-2.7-8.7-10.7-8.4-2.2,0-3.6,1.7-4.1,1.8h0ZM474.4,496c27.2-8.8,3-45.8-14.7-33.6-10.8,7.5,6.3,24.4,4.9,35.2,2.9,1.3,5.2-1.3,6.5-1.6,1-.2,2.4.3,3.3,0ZM331.3,487.3c3.2-3.8-1.6-21.5-5.4-23.9-5.1-3.2-23.3-1.2-26.1,3-1.5,2.2-1.1,13.8-.4,16.9,3.1,13.6,24.9,12.2,32,4h0ZM418.7,468.1c.1-.1.6-3.5-.8-3.3-4.5,2.6-1.1,5.1.8,3.3ZM433.4,510.7c28.4-2.5,20-38.3,4-40.9-7.5-1.2-22.6,3-25,10.9-1.7,5.6,4.2,23,7.8,27.3,1.5,1.8,2.5.8,3.4,1.1,4,1.6,5,2.1,9.8,1.6h0ZM285.8,473c-16.6-1.3-27.6,4.4-21.9,22.7.9,3,5.3,9.2,8.3,9.8,1.7.4,16.2-4.2,16.7-4.9,2.8-4.3-5.4-21.4-3-27.7h0ZM381,481.2c-2.3-2.2-4.6,4-7,5.3-13.1,7.5-21.2.8-19.3,23.4s12.4,23.5,31.8,17.1c4.2-1.4,17.5-7,18.7-10.8,4.5-15-6-37.7-24.3-32.5-2.5,1.6.1-2.4,0-2.4h0ZM495.3,503c-6.7-4.9-20.2.2-23.9,7.2.8,3.8,10.6,28,12.4,28.4,5.4,1.4,16.7-4,18.2-9.4,2-6.7-1-22-6.7-26.2h0ZM329.8,502.9c-42.9,3.7-14.4,56.2,11.8,36.5,10.1-7.6,3.6-37.9-11.8-36.5ZM454.8,515.7c-2.4,1.1-7.9,1.1-11.4,2.5-15,6-17.9,18.3-8,30.9,7.3,9.2,18.5,2.9,26-2.2.4-.3,2.2.8,3.4-1,8.6-12.8-3.3-22.5-6.7-33.4-2.3-.8-1.7,2.6-3.3,3.3h0ZM293.8,514.2c-36.4-8.8-30.2,52.6,2.3,37.1,12.5-6-2.8-26.4-2.3-37.1ZM410.5,532c-6.7-2.1-35,5.4-39.3,10.7-7.6,9.3-.8,33.8,15.4,31.9,2.3-.3,31.4-11.8,32.7-12.9,2.1-1.8.6-4,1-5,.2-.4,3-.9,3.3-4.1.4-4.3-2.1-6.1-3.3-9-2.5-6.2-1.4-8.8-9.8-11.5h0ZM558.1,548.4c.6.8,4.3-2.9,3.2-4.9-.6-.8-4.3,2.9-3.2,4.9ZM497.4,548.4c-1,.5-2.2.6-3.3,1.6-8.8,8.5-1.6,9.4,1.5,19,1.5,4.5,1,17.7,8.1,12,1.4-1.1,7.9-32.9,5-35.8-3.5-3.5-9.8,2.4-11.4,3.2ZM477.7,546.8c-2.5-2.5-5.2,4.6-4.9,4.9,2,1.6,6.5-3.3,4.9-4.9ZM354.2,553.8c-8-8-32.7-1.2-32.4,13.5.3,18,21.9,24.7,34.6,11.5,5-5.2,2.2-20.7-2.2-25h0ZM428.5,564.8c3.3,2.8,10.5-4.4,4.1-8.2h-2.4c.5,1.9-2.3,7.6-1.6,8.2ZM482.6,577.9c-.5-7.3.6-12.4-6.6-17.1-6.9-4.5-26.7.9-29.9,7.7-3,6.4,1.8,25.7,6.9,30,9.3,8,27.7.4,29.6-10.8.2-1,0-2.2,0-3.3,2-1.6,2-3.3,0-4.9,0-.5,0-1.1,0-1.6h0ZM291.9,563.5c-17,3.8-10.7,40.2,15.1,31.5,13.2-4.4-.2-19.7,1-30.3-1.7-2.5-12.9-1.9-16.2-1.2h0ZM416.6,575.1c-7,1.1-28.2,9.8-31.1,16.4-3.3,7.6,1,26.1,9,29.5,9.7,4.2,39.4-3,43-13.6,4.8-14.3-3.7-35-20.8-32.3h0ZM261.2,596c-1.9-1.9-37.2-14.3-41.8-14.8-19.9-2-48.5,3.3-63.9,16.4-13.7,11.6-25.2,33.4-28.7,50.8,4.4-2.7,8.9-4.8,13.6-6.9,65.3-28.2,109.5,21.1,164,48.2,23.2,11.5,50.2,18.8,72.7,30.6,15.4,8,35.2,22.5,49.3,32.6,7.7,5.5,14,13.5,23.4,16.8l-20.5-24.6c-19.4-22.5-44.6-38.3-66.5-58.1-22.9-20.7-40.8-48-68.4-62.8-21.8-11.7-65.4-22.3-90-21.7-4.3.1-24.5,4.3-25.3,3.3-6.9-7.2,24.1-12.6,27.3-12.9,10.4-1,23.7.2,34.1,1.6,6,.8,12.5,4,18.3,4.7,3.1.3,3.5-1.9,2.3-3.2h0ZM375.6,630c1.1-.9,3.5-6.7,3.4-8.3-.2-2.2-8.7-24.5-10.2-25.7-6.7-5.5-24.9-2.2-29.9,3.8-7.1,8.5-2.3,32.6,8.9,35.2,5.9,1.4,23.4-1.2,27.9-4.9h0ZM318.6,618.9c1.1-7.4-.8-15.6-9.8-12.3-5.2,3.4,7,11.4,9.8,12.3ZM492.1,639.8c1.1-1.2,5.4-16.2,5.4-18.4.2-26.4-35.7-12.3-35.9,3.2,0,2.9,4,16.7,6.3,18.1,4,2.4,20.8.8,24.2-2.9h0ZM433,625.9c-6.4,1-26.5,7.6-29.8,12.9-5.6,9,4,26,14.6,26.1,5.2,0,32.2-9.3,34.5-13.1,2.5-4.1-.2-19.3-3.3-22.9-3.7-4.3-11-3.7-16-2.9h0ZM553.1,627.1c-3.8-.2-2.9-.5-3.3,2.4-1.5,11.9-.9,35,0,47.6,2.8,38,17.3,77.5,20.9,115.3.9,9.5.7,16-2.9,24.1-.6,1.3,2.8.2,3.3,1.9,1,3.8.3,22.5-.2,27.5-1.8,17.4-10.2,35.9-12.1,53.5,12-2,4.4-2.5,5.7-10.6.5-3,4.7-8,6.2-12,10.7-29.1,15.3-53.5,12.6-83.9-.6-7.1-2.5-14.2-2.3-21.4,3.3-.5-.3,4.2,4.1,3.3,6.7-1.4-5.1-7-5.4-7.6-4.9-11.8-5.3-29.9-10.2-42.4,2.2-3.2,5.5,3.3,6.6,2.4.2-.1-.4-2.3.4-2.8,3.5-2.5,8.9,3.6,4.6-7-1.2,2.3-12.6,3.8-13.1,3.3-2.1-1.9-10.3-49.2-11.2-55.2-1.9-12.6-2.7-25.5-3.6-38.2h0ZM353.3,648.6c-4.5,6.5,15.4,27.2,21.9,27.5,8.6.3,18.4-3.3,17-13.3-3.9-27.5-18.6-21-38.8-14.2ZM536.8,650.1c-4.3-.4-2.7-.2-3.2,2.5-2.9,15.8-4.6,41.4-3.4,57.4,1,12.3,5.5,24.8,8.3,36.8l-6.6,3.3c2.7.6,6.6-2.2,8.8-1.6,2.7.8,1.5,5.2,4.3,4.8l-.5-21.8c-8.1-25.4-6.8-54.8-7.7-81.4h0ZM492.5,651.7c-16.7,3.9-21.8,13.5-15.8,29.8,1.4,3.7,6.8,10.6,10.9,7.8,1.6-1.1,4.5-32.6,5-37.6h0ZM574.5,692.7l1-11.5-9.2-19.6c.8,7.1,1.8,16.6,3.7,23.3.5,1.9,2.1,7.5,4.5,7.8h0ZM450.9,667c-6.6.2-30.2,8.1-33,14.2-4,8.7,6.4,29.1,16.1,29,3.4,0,24.7-9,28-11.3,11.2-7.9,4.8-32.5-11-32h0ZM408.8,704.1c.6-14.4-10.2-24.5-24.6-19.7-.8,3.1,1.1,3.2,2.7,4.6,3.7,3.4,11.3,9.8,15.2,12.7,2.2,1.7,3.3,3.1,6.6,2.4h0ZM577.8,697.6h-6.5v3.2c3.1.4,5.7,0,6.5-3.2ZM447.1,744.6c1.9,1.7,7.8,5.5,10.1,5.4.9,0,16.3-5.3,17.1-5.8,9.8-6.5,6-30.6-4.8-36-3.5-1.8-8,3.6-11.4,5-7.3,2.8-27.7,6.1-23.4,16.7.4.9,11.2,13.6,12.5,14.7h0ZM590.9,727.1c-4.2-3.5-4.9,7.6-5.2,8-1,1.2-6-1.9-4.6,3.5l4.9-.8c3,29.3,13.3,64.3,11.5,93.4-1.1,18.2-4.5,40.2-9.5,57.7-2.4,8.4-7.7,16-7,25,2.3-2.1,10.4-9.2,11.4-11.2,28-55.3,10.9-114.3-2.5-170.8-.5-2.1,1.2-4.7.9-4.9h0ZM361.3,738.6l-4.9.8c1.5,1.7,2.5,3,4.9,2.5v-3.3h0ZM553.6,740.2c0-1.1-.9-2-2-2s-2,.9-2,2,.9,2,2,2,2-.9,2-2ZM448.8,892c-50.9-44.2-58.5-95.6-99.8-140.4-1.5-1.6-9.1-6.3-10.7-4.9,6.1,8.5,12.2,17,17.3,26.2,12.3,22.5,21.1,49.8,33.3,71.6,5.1,9.1,23.7,29,25.7,35,.9,2.8-1.3,5.9-.8,6.5,3.1,3.7,2.8-4.2,4.9-3.3-.7,5.6,8.1,10.1,12.6,13.7,8.9,7,17.2,10,26.7,16.8,17.6,12.6,28,29.7,48.2,41.2,1.7,1,4.7-.1,5.8.7.9.7.2,5.5,2.9,6.2,1.5.4,7-1.2,5.6-4.8l-9.8-3.3c-2.3-3.7,6.6-3.4,3.3-6.5-.8-.7-5.2,2.8-8.2.9-1.7-1.1-9.3-12.2-11.5-14.9-1.2-1.4-8.1-3.9-4.9-7.3,1.8-2,7,5.2,9.1,1.7v-13.1c3.7,3.8,11.6,13.7,4.1,15.6,2.6,3.2,7.1,1.7,9.9,4.8,2.2,2.4,3.7,8.9,5.9,12.3.9,1.3,3.3,1.5,3.7,2,.9,1.3-1.9,3.9-1.1,5.9.1.3,5.2,4.9,6.2,3.6,2.6-3.3-4.7-12.2-3.3-16.4,8.4.9,8.6,10.2,16.4,13.1,1.2-20.1-5.5-41.4-12.8-60.2-19-49.3-52.3-81.9-91.3-115.3l-7.2-2.7c8.2,14.8,23.2,25.2,34.2,38,8.3,9.8,23.4,29.1,28.7,40.3.8,1.8-.8,4.1-.5,4.5.5.7,4.4,1.3,5.6,3.5s-1.4,4.7-.7,6.3c.1.3,2.3.4,3,1.5,2,3.3,2.8,7,6.6,9.5l-7.4.8c-3.5,6.6,8.8,1,11.6,6.5,1.6,3.2-2.2,8.1.5,14.1,2.3,5.1,6.9,2.1,3.5,8.8h6.5c.6,3-2.8,1.1-3.3,1.7-.7.8,2.7,2.8,3.1,4.5.5,2-1.7,5.2-1.4,5.4,3.3,1.5,7.6-.2,6.7,8.9-.1,1.1-5.9.7-3.4,4.3.2.3,7-4,6.5,3.3-2.1,0-6.5,2.7-8.1,1.6-.5-.4-5.8-10.7-6-11.3-1-3.3,0-6.4-.7-8.8-.3-1.2-8.4-2.1,0-5.2-.9-4.3-7.6-5.8-8.2-6.9-14.8-23.6-31.3-71.6-60.5-83.5-9.7-3.9,2.7,6.1,3.1,6.7,14.4,17.4,25.2,38.8,36,57.8,3.5,6.1,8,12.5,9.9,19.3l-9.8-2.4c1.7,4.7,1.6,6-1.6,9.8l6.5,3.3c-1.9,0-3.6,1.7-5.5,1.3-2.2-.4-30.7-24.5-34.9-28.2h0ZM464.6,756.6l.8,4.9c8.5,6.2,13.9,20.5,20.5,27,1.5,1.5,2.5,3.5,5,1.7,5.9-2.9,1.4-29.9-1.6-34.6-5.8-9.3-17-.5-24.7.9h0ZM558.1,758.2c.3-.3-.2-3.6,0-4.9-13.8,2.8-2.5,7.4,0,4.9ZM413.2,783.4c-4.1-5.8-17.6-20.5-23.2-25.1-1.8-1.5-2.7-4-5.7-3.3-3.6,3.7,28,35.5,29.5,41,5.9-2.1,2-8.9-.6-12.6ZM546.6,756.6c-3.6-3.1-9.6,5.9-8.2,9.8h9.8c-.2-1.6-1.3-9.5-1.6-9.8ZM560.6,769c.7-1.2,2.7-3.2,1.6-4.2-7.4,1.5-12.6,4.8-4.1,9.8-1.3-3.8,1.9-4.4,2.6-5.6ZM354.7,820.5c-1.7-11.6-9.4-46.3-18.8-52.5-5.9-4-7.2-.7-5.8,5.5.3,1.2,2.5,1.2,3.1,2.5,5.4,12.1,7,23.3,13.6,35.3,1.8,3.3,4.4,7.6,7.9,9.3h0ZM705.7,769.7h-4.9s0,4.9,0,4.9h4.9s0-4.9,0-4.9ZM543.3,777.9c0-7.6-5.5-2.8-8.6-3.6-2.2-.5-3.1-3.9-6.1-3l1.6,80.3c2.9-1.6,4.6-8.7,5.4-11.8,5.4-21.1,2.3-40.8-.5-61.9h8.2ZM609.3,776.2c0-1.1-.9-2-2-2s-2,.9-2,2,.9,2,2,2,2-.9,2-2ZM549.9,784.5v-6.5c-.9-2-4.2,5.6-3.3,6.5h3.3ZM556.4,781.2c-.3-.3-3.6.2-4.9,0,1.2,26.6.5,52.9-5.4,79-.9,4-11.9,33-.8,18.9,15-18.9,16.3-55.9,14.5-79.1-.2-2.5-2.7-18.1-3.3-18.8h0ZM566.3,784.5c1.9-1.9-.7-5.3-3.3-.8-.2,1.4,3.1.9,3.3.8ZM567.9,797.6l-4.1-4.9c-3.6-.8-2.4,1.6-2.4,4.9h6.6,0ZM403.9,800.9c1-1.1-.4-5.7-2.5-6.5-5.7-2.2-.6,9.9,2.5,6.5ZM448.2,804.2c-5,2.8-13.2-2.8-13.1,4.9,6.4-4,3.7,3.3,8.7,1.4,2.2-.8,4.9-3.6,4.3-6.3h0ZM403.9,809.1c-6.6-5.1-.5,5.4-.4,5.9.4,1.9-1.7,4.8-1.2,5.5,3,3.7,2.8-4.2,4.9-3.3,3.1,15.6,15.8,31.4,26.3,43.4l-3.3,2.4c8.5,2.3,22.2,8.4,21.3,18.1,3.3.1,6.3-6.1,6.8-6.3.9-.3,4.2,2,7.9-2l-12.3-9.6c-5.6,5.4-3,2-4.7.5-15.8-14.4-27.6-41.2-38.6-50.4-2.3-1.9-4.8-.4-6.3-1.5-.8-.6-.3-2.7-.4-2.8h0ZM428.5,810.7c-2.3-.5-4.4.9-4.9,3.2h4.9v-3.2h0ZM515.4,818.9v8.2h3.3v-8.2h-3.3ZM403.9,827.1c.5-3.1-1.9-5.5-4.9-4.9l4.9,4.9ZM440.4,828.7c0-1.1-.9-2-2-2s-2,.9-2,2,.9,2,2,2,2-.9,2-2ZM441.6,832h-4.9v3.2c2.3.5,4.4-.9,4.9-3.2h0ZM418.7,930.4c5.9-14.6-6.7-18.5-13.8-28-5.9-7.8-33.8-58.8-37.8-58.9-4.2-.1-1,9.9-.3,11.8,4.2,11.2,24.1,47.5,31.2,56.5,4.1,5.2,15.8,12.8,20.8,18.6h0ZM407.2,876.3c-1.4-2.1-12.9-2.1-8.2,1.6.8.6,5.1-1,4.9.8-.5,4.3-3,9.6,4.9,10.7,1-2.9-2.5-3.8-2.9-5.9s2.1-5.8,1.2-7.1h0ZM413.7,892.6c1.2-2.3-1-4.4-1.6-3.3-1.2,2.3,1,4.4,1.6,3.3ZM474.4,891c-2.8-2.5-7.4,2.1-4.9,4.9,1.6,1.8,6.7-3.4,4.9-4.9ZM425.2,895.9c-3.7,6.4-11-2.2-11.4-1.6-3.4,4.4,12.1,13.7,14.7,11.5,1.4-1.2-4.5-7.1-3.3-9.8ZM481,895.9c-1.6-1.7-7.5,3.1-2.4,4.9,3.5,1.2,3-4.3,2.4-4.9ZM387.9,900.8c0-1.1-.9-2-2-2s-2,.9-2,2,.9,2,2,2,2-.9,2-2ZM561,928.3c.6-.6,8.8-13,9.4-14.3,1-2.1,4.1-9,0-9.8-3.2-.7-10.9,14.6-13.2,17.9-1.4,2-5,4.6-5.6,5.9-1.9,4.4,7.7,2.1,9.4.4h0ZM553.1,938.5l-.8-4.9c-1.7,1.5-3,2.5-2.5,4.9h3.3ZM564.6,935.3h-3.3v4.9h3.3v-4.9ZM558.1,943.5v-6.5c-.9-2-4.2,5.6-3.3,6.5h3.3ZM491.2,951.4c-1.2-.8-2.1-6.1-5.3-6.3-3.6,9.6,9.2,19.2,13.1,9,1.8-4.7-7.2-2.3-7.8-2.7h0ZM582.7,946.8c-1-1.2-23.5,15-27.4,16-7.8,2-18.5,1.8-24.8,4-.5.2-4,5.5-8.5,5.4,4.7,7.4,31.7-2.1,32.8-.8s-.4,6.5-2.3,8.3c-4.7,4.1-15,3.9-19,9.7l26.9-1.2c3.4,2,5.6,3.7,1.8,6.2l-15.6,5.7c6.5,7,8.3-.7,8.9-.6,3.3.2,3.7,2,9.1.7,4.6-1.1,24.9-12.8,26-16.8,1.6-5.6-12.8-27-8-36.5h0ZM495.8,968.1c-2.9-2.8-8.4,2.6-2.4,4.9,3.5,1.3,2.9-4.4,2.4-4.9Z"/>
          <path class="st1" d="M317,228.8c-2.6,5.8-7.4,4.1-3.3-1.6,1.8.2,2.5,1.4,3.3,1.6Z"/>
          <path class="st1" d="M261.2,596c1.2,1.2.8,3.5-2.3,3.2-5.8-.6-12.3-3.8-18.3-4.7-10.4-1.5-23.7-2.6-34.1-1.6-3.2.3-34.1,5.7-27.3,12.9.9.9,21-3.2,25.3-3.3,24.6-.6,68.2,10,90,21.7,27.6,14.8,45.5,42.1,68.4,62.8,21.8,19.8,47.1,35.6,66.5,58.1l20.5,24.6c-9.4-3.3-15.7-11.3-23.4-16.8-14.1-10.1-33.9-24.6-49.3-32.6-22.6-11.8-49.6-19.1-72.7-30.6-54.5-27.1-98.8-76.4-164-48.2-4.7,2.1-9.2,4.2-13.6,6.9,3.6-17.4,15-39.2,28.7-50.8,15.4-13.1,44-18.4,63.9-16.4,4.6.5,40,12.8,41.8,14.8h0ZM171,596c-7.7-.6-7.4,4.2-8.2,9.8,8.2,1.6,1.3-4.9,8.2-9.8ZM161.2,617.3c-12.7,6.9-5,13.6,0,1.6,10.1-1.2,20.1-2.9,30.4-3.3,3.4-.1,3-1,2.4-4.1-.9-5.2-28.3,3.3-32.8,5.7h0ZM212,610.7h-14.8v4.9c5.1-.5,14.7,2.6,14.8-4.9ZM220.2,612.4l-6.5.8c2.5,3.6,5.1,3.2,6.5-.8ZM318,675.3c-37.8-21.7-75.2-51.7-120.8-51.4-.8,4.9,1.2,2.6,4,3.3,47.7,11.6,70.7,34.7,113,54.4,10.5,4.9,22.9,9.2,33.9,12.8,1-3.5-4.7-5.7-7.1-6.8-9.3-4.6-14.2-7.1-23-12.2h0ZM333.4,671.4c-17.7-23.1-45.4-37.5-73.8-42.6-2.5,2.2,7.5,7.8,8.7,8.5,8.8,5,19.3,9,28.5,14.2,11.9,6.6,23.2,16.9,36.6,19.9Z"/>
          <path class="st1" d="M530.2,615.6c-8.8,43.2-23.1,86.4-21.3,131.1-2.6-.3-3.1-7-3.2-9-8.5-100.6,35-201.3,22.9-299.9-.6-5-2.6-18.3-8.2-18.9v-1.6c7.8-.1-.3-18-3-22.5-.5-.8-2.4-5.2-3.6-3,5.4,31.1,11.7,62.7,6.6,94.2-3-.6-3-3.2-3.3-5.7-1.1-9.1-.5-24.3-3.3-32.5-.5-1.5-2-1.3-3.2-1.2-.4-3,3.5,0,3.4-4s-1.3-12-1.9-16.4c-.3-2.2-2.5-3.8-2.7-5.3-.6-4.3,3.7-13.3-3.8-16.9v46.7c0,.3,2.6,3.3,1.6,4.1-.2.2-4.7.2-4.9,0-.3-.3-2.4-8.6-2.5-9-1-8.1,5.7-7.7-6.6-10.6-2.4,4.7-1.7,9.8-.8,14.7-.4.5-2-1-2.5-1.6-2.1-3.1-12-29.8-12.4-33.5-3.2-32.8,12.9-67.3,21.3-98.3,8.5-3.6,3.6,2.1,3.7,6.4.6,20.7,5.7,41.3,9.5,61.5l4.9-3.3c12.2,31.7,23.2,64.5,27.9,98.3l-6.6,2.4c6.3,2.4,5.2,6.2,4.9,12.3l-4.1-1.6c-4,4.5,5,3.4,5.8,5.7,2.3,6.9-6.5,2.7-6.6,4.9l6.7,3.5c-1.4,10.8.7,21.7,0,32.5-1.6,23-10,48.2-14.7,71.3-.1.5.1,1.1,0,1.6l-1.6,2.4,1.6.8h0ZM497.4,363.2c-2.4,11.8-6,24.9-6.7,36.9-.4,6,.1,24.1,1.9,29.4,2.7,8.1,5.9,7.2,6.5-1.4,1.2-15.7.6-42.9,0-59.1,0-2,1.2-6.1-1.6-5.7h0ZM484.3,404.2l-1.6-11.5c-1,2.8-2.3,10.1,1.6,11.5ZM542.1,530.4c0-1.1-.9-2-2-2s-2,.9-2,2,.9,2,2,2,2-.9,2-2Z"/>
          <path class="st1" d="M448.8,892c4.2,3.6,32.7,27.8,34.9,28.2,1.8.3,3.6-1.3,5.5-1.3l-6.5-3.3c3.2-3.8,3.4-5.1,1.6-9.8l9.8,2.4c-1.9-6.7-6.4-13.2-9.9-19.3-10.8-18.9-21.6-40.4-36-57.8-.5-.6-12.9-10.6-3.1-6.7,29.2,11.8,45.7,59.8,60.5,83.5.7,1.1,7.3,2.5,8.2,6.9-8.4,3.1-.3,4,0,5.2.6,2.4-.3,5.6.7,8.8.2.6,5.4,10.9,6,11.3,1.6,1.1,5.9-1.6,8.1-1.6.5-7.3-6.3-3-6.5-3.3-2.5-3.5,3.3-3.1,3.4-4.3.9-9.1-3.4-7.4-6.7-8.9-.3-.1,1.9-3.3,1.4-5.4-.4-1.6-3.7-3.7-3.1-4.5.5-.6,3.9,1.3,3.3-1.6h-6.5c3.4-6.7-1.1-3.8-3.5-8.8-2.7-6,1.1-10.9-.5-14.1-2.8-5.6-15.1,0-11.6-6.5l7.4-.8c-3.7-2.5-4.6-6.1-6.6-9.5-.7-1.1-2.8-1.2-3-1.5-.7-1.6,1.8-4,.7-6.3s-5.1-2.8-5.6-3.5c-.3-.5,1.3-2.7.5-4.5-5.4-11.2-20.4-30.5-28.7-40.3-11-12.8-26-23.2-34.2-38l7.2,2.7c39,33.4,72.3,66,91.3,115.3,7.2,18.8,14,40.1,12.8,60.2-7.8-2.9-8-12.2-16.4-13.1-1.4,4.2,5.9,13.1,3.3,16.4-1,1.3-6.1-3.3-6.2-3.6-.8-2,2-4.7,1.1-5.9-.4-.5-2.8-.7-3.7-2-2.2-3.3-3.7-9.9-5.9-12.3-2.9-3.1-7.3-1.6-9.9-4.8,7.5-1.8-.3-11.8-4.1-15.6v13.1c-2,3.5-7.2-3.6-9-1.7-3.2,3.4,3.7,5.9,4.9,7.3,2.2,2.7,9.9,13.8,11.5,14.9,3,1.9,7.4-1.6,8.2-.9,3.4,3.1-5.6,2.8-3.3,6.5l9.8,3.3c1.4,3.6-4.1,5.2-5.6,4.8-2.7-.7-2-5.5-2.9-6.2-1.1-.9-4.1.3-5.8-.7-20.2-11.5-30.6-28.6-48.2-41.2-9.4-6.8-17.8-9.8-26.7-16.8-4.5-3.5-13.3-8.1-12.6-13.7-2.1-1-1.8,7-4.9,3.3-.5-.6,1.8-3.7.8-6.5-2-6.1-20.6-26-25.7-35-12.2-21.8-21-49.1-33.3-71.6-5-9.2-11.2-17.7-17.3-26.2,1.6-1.4,9.2,3.3,10.7,4.9,41.3,44.8,48.9,96.1,99.8,140.4h0Z"/>
          <path class="st1" d="M553.1,627.1c.9,12.7,1.7,25.6,3.6,38.2.9,6,9.1,53.3,11.2,55.2.5.5,11.9-1,13.1-3.3,4.3,10.6-1.1,4.5-4.6,7-.7.5-.2,2.7-.4,2.8-1,.9-4.4-5.6-6.6-2.4,4.9,12.5,5.3,30.6,10.2,42.4.3.6,12.1,6.2,5.4,7.6-4.3.9-.8-3.7-4.1-3.3-.2,7.2,1.7,14.2,2.3,21.4,2.7,30.4-1.9,54.8-12.6,83.9-1.5,4-5.7,9-6.2,12-1.3,8,6.2,8.6-5.7,10.6,1.9-17.6,10.3-36.1,12.1-53.5.5-4.9,1.2-23.7.2-27.5-.4-1.7-3.9-.5-3.3-1.9,3.6-8.1,3.8-14.6,2.9-24.1-3.6-37.8-18.1-77.2-20.9-115.3-.9-12.5-1.5-35.7,0-47.6.4-3-.6-2.7,3.3-2.4h0Z"/>
          <path class="st1" d="M416.6,575.1c17.1-2.7,25.7,18,20.8,32.3-3.6,10.6-33.2,17.8-43,13.6-8.1-3.4-12.3-21.9-9-29.5,2.9-6.6,24.2-15.3,31.1-16.4h0ZM415.4,605.8c-.7-.9-11.5-1.1-13.6-2-2.6-1-2.5-3.5-3.7-4.5-7.2-6.5-6.4,2.2-3.3,8.2,7,13.3,24.6,3.2,20.6-1.7h0Z"/>
          <path class="st1" d="M381,481.2c0,0-2.5,4.1,0,2.4,18.3-5.2,28.8,17.5,24.3,32.5-1.2,3.9-14.5,9.5-18.7,10.8-19.4,6.4-29.9,5.8-31.8-17.1s6.2-15.9,19.3-23.4c2.3-1.3,4.7-7.5,7-5.3h0ZM365.4,504.2c-5.2,1.2-.6,13.8,2.4,15.6,3.5,2.1,17.2.1,18.1-3.3,1.5-6.2-12-2.9-14.8-4.8-1.9-1.3-1.6-8.4-5.6-7.4h0Z"/>
          <path class="st1" d="M590.9,727.1c.2.2-1.5,2.8-.9,4.9,13.4,56.5,30.5,115.4,2.5,170.8-1,2-9,9.1-11.4,11.2-.7-9,4.6-16.6,7-25,5-17.5,8.4-39.6,9.5-57.7,1.8-29.2-8.5-64.2-11.5-93.4l-4.9.8c-1.4-5.3,3.6-2.2,4.6-3.5.3-.4,1-11.5,5.2-8h0Z"/>
          <path class="st1" d="M582.7,946.8c-4.8,9.6,9.6,31,8,36.5-1.2,4-21.4,15.7-26,16.8-5.5,1.2-5.8-.5-9.1-.7-.6,0-2.4,7.6-8.9.6l15.6-5.7c3.8-2.5,1.6-4.2-1.8-6.2l-26.9,1.2c4-5.8,14.3-5.6,19-9.7,2-1.7,3.5-7,2.3-8.3s-28.1,8.2-32.8.8c4.5.1,8-5.2,8.5-5.4,6.3-2.2,16.9-2,24.8-4,4-1,26.4-17.2,27.4-16h0ZM577.8,981.2c.7-6.5-.3-12.7-4.1-18-4.8,2-1.5,11.5,0,14.8,1.1,2.4-.3,4.1,4,3.3h0Z"/>
          <path class="st1" d="M410.5,532c5.1,3.8.9,8.2,1.8,12,1,4.1,10.7,4.9,8,12.6-.5,1,1.1,3.2-1,5-1.3,1.2-30.5,12.7-32.7,12.9-16.2,2-23-22.5-15.4-31.9,4.3-5.3,32.6-12.8,39.3-10.7h0ZM380.9,551.7c-4.1-3.5-5.4,9.6-.7,13,4.1,3,16.2-.6,18.7-3.2,4.4-4.5-12.5-3-14.8-4.1-2.8-1.4-2.8-5.4-3.3-5.7Z"/>
          <path class="st1" d="M450.9,667c15.8-.5,22.2,24.1,11,32-3.3,2.3-24.5,11.2-28,11.3-9.7,0-20.1-20.3-16.1-29,2.8-6.1,26.4-14,33-14.2h0ZM444.9,691c-9.2,1.3-12.6-1.8-18-8.2-.2,8.3-2,17,9,16.5,4.9-.2,10.2-2.6,9.1-8.3h0Z"/>
          <path class="st1" d="M346.1,396.4c6.1-1.6,15.5,1.1,19.4,6,2.3,2.8,7.4,18.6,7.2,22.2-.4,6.1-8.2,11.2-13.5,12.7-4.9,1.5-17.8,3.6-21.8,1.4-9.7-5.6-13-28.1-4.1-35.5,1.2-1,11.6-6.5,12.8-6.9h0ZM352.8,427.4c-.8-1.3-13.1-3.3-12.9-10.9-6-.7-2.5,13.3,0,14.9,3.7,2.4,9.1-1.9,13.2.7-.1-1.5.5-3.6-.2-4.7Z"/>
          <path class="st1" d="M433,625.9c5-.8,12.3-1.4,16,2.9,3.1,3.7,5.8,18.8,3.3,22.9-2.3,3.8-29.3,13.2-34.5,13.1-10.6,0-20.2-17.2-14.6-26.1,3.3-5.3,23.4-11.8,29.8-12.9h0ZM430.1,651.7c-7.8,1-16.1-1.5-18.1-9.8-6.5,2.4-2.5,14.5,2.8,16.1,4.9,1.5,19.2-3.3,15.2-6.3Z"/>
          <path class="st1" d="M369.5,443.5c1.8.7,7.2,2.4,8.2,3.3,1.8,1.6-6.4,1.5-3.2,4.9.3.4,8-2,9.8-1.6,7.5,13.5,5.2,21.5-10.2,26.7-13.1,4.4-28.3,6.9-33-9-5.2-17.8,15-22.4,28.4-24.3h0Z"/>
          <path class="st1" d="M375.6,630c-4.4,3.7-21.9,6.3-27.9,4.9-11.3-2.6-16-26.6-8.9-35.2,5-6,23.2-9.3,29.9-3.8,1.5,1.2,10.1,23.6,10.2,25.7.1,1.6-2.3,7.4-3.4,8.3h0ZM343.2,609.1c-.9,10.2,1,20.5,13.6,17.7,16.4-3.6-3.6-7.7-5.4-8.7-2.9-1.7-2.7-9.9-8.2-9h0Z"/>
          <path class="st1" d="M329.8,502.9c15.4-1.3,21.9,28.9,11.8,36.5-26.2,19.7-54.7-32.8-11.8-36.5Z"/>
          <path class="st1" d="M482.6,577.9c-9,3.2-6.9-11.7-14.8-7.3-1.6,4.3,1.8,11.6,5.3,13.6,3.5,2,7.3-5.7,9.5,3.6-1.9,11.2-20.3,18.7-29.6,10.8-5.1-4.4-9.9-23.6-6.9-30,3.2-6.8,23-12.2,29.9-7.7,7.3,4.7,6.1,9.9,6.6,17.1h0Z"/>
          <path class="st1" d="M447.1,744.6c-1.3-1.1-12.1-13.8-12.5-14.7-4.3-10.7,16.2-13.9,23.4-16.7,3.5-1.4,7.9-6.8,11.4-5,10.8,5.4,14.6,29.5,4.8,36-.7.5-16.2,5.8-17.1,5.8-2.3,0-8.2-3.7-10.1-5.4h0ZM444.9,727.1c-2.4,8.9,9,19.3,16.4,12.3,1.6-5.1-14.5-14.3-16.4-12.3Z"/>
          <path class="st1" d="M433.4,510.7c-1.5-6.1,5.5-7.6,9.8-8.2.4-3.4-4.8-.4-6.3-1.8-.7-.6,0-4-1.9-5.5-1.2-.9-9-.8-4-4.1,2.6-1.7,8.4.3,7.3-4.8-7-1.5-13.4.4-11.6,8.7.4,2,4.9,1.2,4.8,4.8-.2,5.1-3.9,7.4-8,9.4-.8-.3-1.9.7-3.4-1.1-3.5-4.3-9.4-21.6-7.8-27.3,2.3-7.9,17.5-12.1,25-10.9,16,2.6,24.4,38.4-4,40.9h0ZM449.8,494.3c.5-2.3-.9-4.4-3.3-4.9v4.9h3.3Z"/>
          <path class="st1" d="M398.5,386.7c.3,0,.3,1.8,1.8,2.6,1.2.6,3.3-.6,5.4,1.2,5.9,5.2,11.5,25.4,3.1,30.9-.6.4-13.1,5.7-13.9,5.7-3.2.1-14.1-8-15.2-10.2-.5-1-4-20.1-3.8-21.8.9-10.7,14.5-10.9,22.6-8.4h0ZM389.1,399.3c-4.9-4.2-3.8,12.7-1.8,15.4s11.1.9,10-3.1c-6.2-1-7.6-11.8-8.2-12.3Z"/>
          <path class="st1" d="M492.1,639.8c-3.4,3.7-20.2,5.3-24.2,2.9-2.3-1.4-6.3-15.1-6.3-18.1.2-15.6,36-29.6,35.9-3.2,0,2.2-4.3,17.3-5.4,18.4h0Z"/>
          <path class="st1" d="M301.8,412.8c9.6-1.3,13.9.7,17.1,9.9,3.4,9.9,5.1,26-8,28.6-14.1,2.8-22.2,1.1-24.6-13.9-2-12.3,2.7-22.8,15.6-24.6h0ZM308.8,445.1c3.3-5-6.2-7.3-8.1-9.1s-4.2-8.9-5.8-8.9c-4-.1-4.2,18.5,5,19.7,1.6.2,8.6-1.3,8.9-1.7Z"/>
          <path class="st1" d="M454.8,515.7c.9,3.4,5,3.9,6.6,6.1,3.9,5.4,6.5,21.4-3.3,17.6l-3.3-7.4c.2,2.7-.7,6.3.2,8.8,1.3,3.7,7.6.7,6.4,5.9-7.5,5.1-18.8,11.5-26,2.2-9.9-12.6-7-24.9,8-30.9,3.6-1.4,9-1.4,11.4-2.5h0Z"/>
          <path class="st1" d="M353.3,648.6c20.3-6.8,35-13.3,38.8,14.2,1.4,10-8.3,13.6-17,13.3-6.4-.2-26.4-21-21.9-27.5Z"/>
          <path class="st1" d="M401.9,458.5c-.5-.8-3.8-.2-4.6-4.3-3.2-15.3,8.1-26.8,23.1-23.1,8.9,2.2,12.6,14.9,10.9,22.8-1.4,6.5-28.2,16-30.3,8.2-.3-1,1.3-3,.9-3.6h0Z"/>
          <path class="st1" d="M354.2,553.8c4.3,4.3,7.2,19.8,2.2,25-12.7,13.1-34.3,6.5-34.6-11.5-.3-14.7,24.4-21.5,32.4-13.5h0ZM334.9,563.3c-.6-.5-3.4.1-4.8,0,0,3.6-.5,8.9,1.5,12,1.7,2.7,12.4,3.6,13.3,2.7,4-4.1-6.5-6.6-8.3-8.9-1.4-1.8-1.4-5.5-1.6-5.7h0Z"/>
          <path class="st1" d="M418.7,930.4c-4.9-5.7-16.6-13.4-20.8-18.6-7.1-9.1-27-45.3-31.2-56.5-.7-1.9-3.9-11.9.3-11.8,4,.1,31.9,51,37.8,58.9,7.1,9.5,19.7,13.4,13.8,28h0Z"/>
          <path class="st1" d="M331.3,487.3c-7,8.2-28.9,9.7-32-4-.7-3.1-1.1-14.7.4-16.9,2.8-4.2,21.1-6.3,26.1-3,3.8,2.4,8.7,20.2,5.4,23.9h0Z"/>
          <path class="st1" d="M293.8,514.2c-.5,10.7,14.8,31.1,2.3,37.1-32.4,15.5-38.6-45.9-2.3-37.1ZM280.8,528.9c-.7-.6-3.4,0-4.8-.1-3.9,8.7,7.5,20.4,14.8,15.6,6.6-4.4-4-4.7-6.1-6.3-2.7-2-3.5-8.9-3.9-9.2h0Z"/>
          <path class="st1" d="M441.2,419.3c15.9-4.7,25.5,11.3,25.2,25.1-.2,6.9-14.4,15.5-20.3,13.7s-3.8-13.6-4.8-18.3c-1.2-5.8-12.5-16.8-.1-20.5h0Z"/>
          <path class="st1" d="M495.3,503c5.7,4.2,8.7,19.5,6.7,26.2-1.6,5.4-12.8,10.8-18.2,9.4-1.7-.4-11.5-24.6-12.4-28.4,3.7-7,17.2-12.2,23.9-7.2h0Z"/>
          <path class="st1" d="M291.9,563.5c3.3-.7,14.5-1.3,16.2,1.2-1.2,10.6,12.2,25.9-1,30.3-25.8,8.7-32.2-27.7-15.1-31.5h0Z"/>
          <path class="st1" d="M471.2,496c-1.3.3-3.6,2.9-6.5,1.6,1.3-10.8-15.7-27.7-4.9-35.2,17.7-12.3,41.9,24.8,14.7,33.6,3.5-5-3.1-6.9-3.3,0Z"/>
          <path class="st1" d="M403.9,809.1c.2.1-.4,2.2.4,2.8,1.5,1.1,4-.4,6.3,1.5,11,9.2,22.8,36,38.6,50.4,1.7,1.6-.9,4.9,4.7-.5l12.3,9.6c-3.8,3.9-7.1,1.7-7.9,2-.5.2-3.4,6.4-6.8,6.3.9-9.7-12.9-15.8-21.3-18.1l3.3-2.4c-10.4-12-23.2-27.8-26.3-43.4-2.1-1-1.9,7-4.9,3.3-.5-.7,1.6-3.6,1.2-5.5,0-.5-6.2-11,.4-5.9h0Z"/>
          <path class="st1" d="M556.4,781.2c.7.7,3.2,16.3,3.3,18.8,1.9,23.2.5,60.2-14.5,79.1-11.1,14.1-.1-14.9.8-18.9,5.9-26.1,6.6-52.4,5.4-79,1.3.2,4.6-.3,4.9,0h0Z"/>
          <path class="st1" d="M349.4,384.1c-4.2,4.1-24.4,9.5-29.2,2.5-15.8-23,34.5-39.5,31.1-8-.2,1.6-.8,4.4-1.9,5.5h0Z"/>
          <path class="st1" d="M536.8,650.1c.9,26.7-.4,56,7.7,81.4l.5,21.8c-2.8.4-1.6-4-4.3-4.8-2.2-.7-6.1,2.1-8.8,1.6l6.6-3.3c-2.7-12-7.3-24.5-8.3-36.8-1.2-16,.5-41.6,3.4-57.4.5-2.7-1.1-2.8,3.2-2.5h0Z"/>
          <path class="st1" d="M271.1,425.5c-3.2,9.3,15.2,30.2,7.1,36.2-24.1,17.6-35.5-37.1-7.1-36.2Z"/>
          <path class="st1" d="M388.9,374.5c-.4.7-13.9,5-15.6,5.1-12.9,1-22.8-26.4-1.3-29.4,7.1-1,15,1.6,16.7,9.3.5,2.5,1,13.6.1,15h0Z"/>
          <path class="st1" d="M285.8,473c-2.4,6.3,5.8,23.4,3,27.7-.5.7-14.9,5.3-16.7,4.9-2.9-.7-7.3-6.9-8.3-9.8-5.7-18.3,5.3-24,21.9-22.7h0Z"/>
          <path class="st1" d="M422,414l4.9-4.1c0-5.1-10.5-27-9.8-29.3,2.1-7.2,20.1-1.6,24.2,6.8,9.4,19.6-.3,25.7-19.3,26.7h0Z"/>
          <path class="st1" d="M464.6,756.6c7.6-1.5,18.9-10.2,24.7-.9,3,4.7,7.4,31.7,1.6,34.6-2.4,1.8-3.4-.2-5-1.7-6.6-6.5-12-20.8-20.5-27l-.8-4.9h0Z"/>
          <path class="st1" d="M321.5,329.2c3.7-.5,10-1.6,12.8,1.1,2,2.1,4.8,14.2,3.9,17-.7,2-21.8,9.4-23.5,9-4.3-1-8.9-15.4-7.3-20,1.3-3.7,10.4-6.7,14.1-7.2h0Z"/>
          <path class="st1" d="M543.3,777.9h-8.2c2.8,21.1,5.9,40.8.5,61.9-.8,3.1-2.5,10.2-5.4,11.8l-1.6-80.3c3-.9,3.9,2.5,6.1,3,3.2.7,8.6-4,8.6,3.6h0Z"/>
          <path class="st1" d="M302.5,323.6c-.4-.3-4.6-7.9-4.9-9.1-7.1-30.4,41.1-18.4,26.6,2.7-2.5,3.7-19.1,7.9-21.8,6.4h0ZM309.2,310.3c-1.6-1-1.2-5.6-5.3-4.5-1.5,10.2,5.2,15.4,13.1,7.4-1.7-3.1-5.7-1.7-7.8-2.9h0Z"/>
          <path class="st1" d="M400.2,342.2c9.8-1.9,18.2,6.6,19.8,15.7,1.8,10.5-9,20.1-16.8,10.2-2-2.5-9.5-21.1-8.4-22.9.7-1.2,3.9-2.7,5.4-3h0Z"/>
          <path class="st1" d="M284.5,402.2c-5.9-3.4-7.1-23.6,6.1-26.8,16.7-4,22.8,18.4,13.7,23.6-3,1.7-17.1,4.8-19.9,3.2ZM290.4,386.6c-1.4-.9-3-.4-4.6-.5-3.4,8.1,4.6,15.3,11.5,10.7,5.6-3.7-3.2-5.6-4.9-6.8-1.3-.9-1.7-3.2-2.1-3.4h0Z"/>
          <path class="st1" d="M279.7,342.3c.6-.5,9.3-3.6,10.2-3.6,8.4-.1,13,18,8.2,22.8-1.5,1.5-11.1,4.8-13.3,4.9-11.4.5-10.7-19.6-5.1-24.1h0Z"/>
          <path class="st1" d="M492.5,651.7c-.5,5-3.4,36.6-5,37.6-4.1,2.7-9.5-4.1-10.9-7.8-5.9-16.3-.8-25.9,15.8-29.8h0Z"/>
          <path class="st1" d="M364.1,319.4c4.3,2.4,7.5,16.7,5,20.6-.8,1.3-14.2,5.8-16.7,5-4.5-1.5-10.2-15.4-9-19.9,1.8-6.8,15.8-8.5,20.7-5.7h0ZM356.2,330.5c.3.2,2.2,6.4,4.2,6.4.3,0,3.8-3.4,4-4.3.5-3-12-16-13-3-.4,5.3,3.7.2,4.8.9h0Z"/>
          <path class="st1" d="M273,331.8c-3.1-1.9-4.5-15.3-2.7-19.4,1.9-4.2,11.5-8.8,15.7-5.9,2,1.4,5.7,17.4,4,20.6-1.8,3.6-14,6.5-17,4.6h0Z"/>
          <path class="st1" d="M497.4,548.4c1.5-.8,7.9-6.6,11.4-3.2,2.9,2.9-3.6,34.6-5,35.8-7.1,5.7-6.7-7.5-8.1-12-3.1-9.6-10.3-10.4-1.5-19,0,3,1.6,5.5,4.9,4.9l-1.6-6.5Z"/>
          <path class="st1" d="M303.5,265.3c3.5,1.4,10.1,13.4,8.4,18.2-1,2.8-15.6,6.6-18.4,6.1-8.5-1.7-4.9-30.2,10-24.3Z"/>
          <path class="st1" d="M380.4,309.4c9.1-3,19.6,5.5,21.2,14.5,1.4,7.7-9.3,12.6-15.1,8.4-2.8-2.1-12.1-20.9-6.2-22.8Z"/>
          <path class="st1" d="M265.9,386.4c0,8.8,10.5,24.8-1,27.3-18.6,4.1-17.6-32.2,1-27.3Z"/>
          <path class="st1" d="M354.7,820.5c-3.4-1.7-6.1-6.1-7.9-9.3-6.6-12-8.2-23.2-13.6-35.3-.5-1.2-2.8-1.3-3.1-2.5-1.5-6.2-.2-9.5,5.8-5.5,9.4,6.3,17.1,41,18.8,52.5h0Z"/>
          <path class="st1" d="M349.8,292.7c-7.2,4.4-5.1,11.8,3.3,13.1-2.3,6.2-9.9,10.2-15.3,6.7-.9-.6-9-18-9-19,.5-6.9,14.6-7.3,20.9-.8Z"/>
          <path class="st1" d="M374.4,287.8l-.8,9.8-7.4-8.2,1.6,11.5c-.6-.2-2.1.4-2.9-.3-1.3-1.3-5.1-12.4-7.8-16-2-2.7-6.7-2.9-5.7-5.7,3.2-8.7,16.9-3,21.4,3.2,1.8,2.4,1,4.5,1.5,5.8h0Z"/>
          <path class="st1" d="M259.6,346.8c-1.6,8.1,8.5,23.9-1.6,27.2-16.7,5.4-12.6-25.2,1.6-27.2Z"/>
          <path class="st1" d="M413.2,783.4c2.6,3.7,6.5,10.4.6,12.6-1.6-5.5-33.2-37.3-29.5-41,3.1-.7,3.9,1.7,5.7,3.3,5.6,4.6,19.1,19.3,23.2,25.1Z"/>
          <path class="st1" d="M335,268.1l-4.1,4.9.8-5.8c-6-1.1-6.5,6.5-4.1,10.7,1.7,3,9.2-2.9,12.4-1.7,0,6-17.3,9-18,8.2-.4-.5.5-5,0-7-.5-1.7-2.9-2.2-3.2-2.9,7.2,1.2,7.4-4.4,0-3.3-.2-.5.1-1.1,0-1.6,8.9-1.9,4.4-9.2,0-1.6-.3-.7-7.2-7.5.8-8.4,8.3-.9,11.1,2.8,15.6,8.4h0Z"/>
          <path class="st1" d="M282.4,294.2c-.8,1.2-12,2.5-14.6,3.5-.2-6.8-4.3-13.2,1.7-18.8,12.8-11.9,14.2,13.4,12.9,15.3Z"/>
          <path class="st1" d="M259.6,309.1c0,3.9-3,6.9-3.2,10.8-.2,3.9,7.2,19.7-3.9,16.9s-8.2-30,7-27.7Z"/>
          <path class="st1" d="M408.8,704.1c-3.3.7-4.4-.7-6.6-2.4-3.9-2.9-11.5-9.3-15.2-12.7-1.6-1.5-3.5-1.5-2.7-4.6,14.4-4.8,25.2,5.3,24.6,19.7h0Z"/>
          <path class="st1" d="M289.1,241.9c-3.8,6.1-.7,10.7,1.6,16.4-1.3.5-3.4,4-6,4.5-7.1,1.4-12.3-14.9-2.8-20.7,4.9-3,4.4-.9,7.2-.2h0Z"/>
          <path class="st1" d="M561,928.3c-1.8,1.7-11.3,4-9.4-.4.6-1.3,4.2-3.9,5.6-5.9,2.3-3.3,10-18.6,13.2-17.9,4.1.9,1,7.7,0,9.8-.6,1.3-8.8,13.7-9.4,14.3h0Z"/>
          <path class="st1" d="M320.3,248.5c5.4-.6,4.9,4.2,0,3.3-.2-1,.2-2.4,0-3.3-3.5.4-.5,3.5-1.7,4.8-.5.6-6.2,0-8.1.1.4,5.6-3.3,8.5-4.9,4.1-1.8-5,1.4-4,4.9-4.1-.3-4.2-5.3-8.4-4.9-13.1,9.6,0,12.3-1.2,14.8,8.2h0Z"/>
          <path class="st1" d="M351.4,259.9c4.9,7.3-7.5,9-8.2,8.2-.2-.2.2-4.3-.9-6.5-1.2-2.3-9.2-7.3-7.3-9.9,2.8-.2,6.1-2.3,8.8-1.8,1.9.4.7,3.1,1,3.4-8.7-.8,1.7,12.9,6.6,6.6h0Z"/>
          <path class="st1" d="M574.5,692.7c-2.4-.3-3.9-5.9-4.5-7.8-1.8-6.8-2.9-16.2-3.7-23.3l9.2,19.6-1,11.5h0Z"/>
          <path class="st1" d="M256.3,281.3v16.4c-11.6,3.4-10.7-17.7,0-16.4Z"/>
          <path class="st1" d="M266.1,255c3,9.1,3.2,14.6-8.2,13.1-1.1-5.6,1.5-12.5,8.2-13.1Z"/>
          <path class="st1" d="M318.6,618.9c-2.9-.9-15.1-8.9-9.8-12.3,9-3.3,10.9,4.9,9.8,12.3Z"/>
          <path class="st1" d="M491.2,951.4c.6.4,9.6-2,7.8,2.7-3.9,10.2-16.7.6-13.1-9,3.2.2,4.1,5.5,5.3,6.3h0Z"/>
          <path class="st1" d="M425.2,895.9c-1.2,2.7,4.7,8.6,3.3,9.8-2.6,2.3-18.1-7.1-14.7-11.5.4-.6,7.8,8.1,11.4,1.6Z"/>
          <path class="st1" d="M546.6,756.6c.4.3,1.4,8.2,1.6,9.8h-9.8c-1.5-4,4.5-12.9,8.2-9.8Z"/>
          <path class="st1" d="M407.2,876.3c.9,1.3-1.6,5-1.2,7.1s3.8,3,2.9,5.9c-8-1.1-5.4-6.4-4.9-10.7.2-1.8-4.1-.2-4.9-.8-4.7-3.7,6.8-3.7,8.2-1.6h0Z"/>
          <path class="st1" d="M448.2,804.2c.5,2.7-2.1,5.5-4.3,6.3-5.1,1.9-2.3-5.4-8.7-1.4-.1-7.7,8.1-2.1,13.1-4.9h0Z"/>
          <path class="st1" d="M428.5,564.8c-.6-.5,2.2-6.3,1.6-8.2h2.4c6.4,3.7-.8,11-4.1,8.2Z"/>
          <path class="st1" d="M560.6,769c-.7,1.2-3.8,1.8-2.6,5.6-8.5-5-3.2-8.3,4.1-9.8,1.1,1-.9,3-1.6,4.2Z"/>
          <rect class="st1" x="513" y="821.4" width="8.2" height="3.3" transform="translate(-306.5 1339.2) rotate(-89.9)"/>
          <path class="st1" d="M403.9,800.9c-3.1,3.3-8.2-8.7-2.5-6.5,2.1.8,3.5,5.4,2.5,6.5Z"/>
          <path class="st1" d="M567.9,797.6h-6.6c0-3.2-1.1-5.7,2.4-4.9l4.1,4.9h0Z"/>
          <path class="st1" d="M558.1,758.2c-2.5,2.5-13.8-2.1,0-4.9-.2,1.3.3,4.6,0,4.9Z"/>
          <path class="st1" d="M474.4,891c1.8,1.5-3.3,6.7-4.9,4.9-2.5-2.8,2.1-7.4,4.9-4.9Z"/>
          <path class="st1" d="M495.8,968.1c.5.5,1.1,6.2-2.4,4.9-5.9-2.3-.4-7.7,2.4-4.9Z"/>
          <path class="st1" d="M577.8,697.6c-.9,3.3-3.5,3.7-6.5,3.2v-3.3h6.5Z"/>
          <path class="st1" d="M481,895.9c.6.6,1,6.1-2.4,4.9-5.1-1.8.8-6.6,2.4-4.9Z"/>
          <path class="st1" d="M558.1,943.5h-3.3c-.9-.9,2.4-8.5,3.3-6.5v6.5h0Z"/>
          <rect class="st1" x="561.4" y="935.3" width="3.3" height="4.9"/>
          <path class="st1" d="M549.9,784.5h-3.3c-.9-.9,2.4-8.5,3.3-6.5v6.5h0Z"/>
          <path class="st1" d="M361.3,738.6v3.3c-2.4.5-3.4-.7-4.9-2.5l4.9-.8h0Z"/>
          <path class="st1" d="M403.9,827.1l-4.9-4.9c3-.6,5.4,1.8,4.9,4.9Z"/>
          <path class="st1" d="M481,358.3h-3.3v-4.9c2.4.5,3.8,2.7,3.3,4.9h0Z"/>
          <path class="st1" d="M428.5,810.7v3.3h-4.9c.5-2.4,2.7-3.8,4.9-3.2h0Z"/>
          <path class="st1" d="M553.1,938.5h-3.3c-.5-2.4.7-3.4,2.5-4.9l.8,4.9Z"/>
          <path class="st1" d="M441.6,832c-.5,2.4-2.7,3.8-4.9,3.2v-3.3h4.9Z"/>
          <circle class="st1" cx="385.9" cy="900.8" r="2"/>
          <circle class="st1" cx="438.4" cy="828.7" r="2"/>
          <circle class="st1" cx="607.3" cy="776.2" r="2"/>
          <path class="st1" d="M558.1,548.4c-1.1-2.1,2.6-5.7,3.2-4.9,1.1,2.1-2.6,5.7-3.2,4.9Z"/>
          <circle class="st1" cx="551.6" cy="740.2" r="2"/>
          <path class="st1" d="M418.7,468.1c-1.9,1.9-5.3-.7-.8-3.3,1.4-.2.9,3.1.8,3.3Z"/>
          <path class="st1" d="M482.6,584.5c.1-1.6,0-3.3,0-4.9,2,1.6,2,3.3,0,4.9Z"/>
          <path class="st1" d="M566.3,784.5c-.1.1-3.5.6-3.3-.8,2.6-4.5,5.1-1.1,3.3.8Z"/>
          <path class="st1" d="M413.7,892.6c-.6,1.1-2.8-1-1.6-3.3.6-1.1,2.8,1,1.6,3.3Z"/>
          <path class="st1" d="M227.8,483.4c-4.1-4-13.6-12.1-18.3-15.3-2-1.4-8.1-5.3-10.7-4.1,9.7,9.5,22.2,23,29.2,34.7,5.4,9.1,6.2,16.4,10.1,24.7,2.6,5.4,4.9,11,8.2,16,.4,1.1-1.6,1.2-2.4.8-5.8-2.6-22.3-38.8-30.6-44.8-5.6-3.2-7.9-9.7-11.8-13.6-.7-.7-5.4-4.2-4.4.3l55.8,90.9c-18.1-4.5-25.8-12.5-35.8-27.3-17-25.4-21.6-57-39-82.3-7.4-10.8-18-19.5-25.3-30.5.6-2,3.5-.4,5,0,13.8,3.1,43.4,14.2,54.6,22.5,3.4,2.5,25.5,23.8,26.5,26,2.1,4.7,1.7,14.1,3.3,19.6-4.6-5.2-9.7-12.7-14.5-17.4h0Z"/>
          <path class="st1" d="M295.7,258.3c-.5.1-1.1-.1-1.6,0l.8-1.6.8,1.6Z"/>
          <path class="st0" d="M318,675.3c8.8,5.1,13.7,7.6,23,12.2,2.3,1.1,8.1,3.3,7.1,6.8-11-3.6-23.5-7.9-33.9-12.8-42.2-19.6-65.2-42.7-113-54.4-2.8-.7-4.8,1.6-4-3.3,45.6-.3,83,29.7,120.8,51.4h0Z"/>
          <path class="st0" d="M333.4,671.4c-13.5-3.1-24.7-13.3-36.6-19.9-9.2-5.1-19.7-9.2-28.5-14.2-1.2-.7-11.2-6.3-8.7-8.5,28.4,5.1,56.1,19.5,73.8,42.6Z"/>
          <path class="st0" d="M161.2,617.3c4.5-2.4,31.9-11,32.8-5.7.6,3.1,1,4-2.4,4.1-10.3.4-20.2,2.1-30.4,3.3v-1.6h0Z"/>
          <path class="st0" d="M212,610.7c0,7.5-9.6,4.4-14.8,4.9v-4.9h14.8Z"/>
          <path class="st0" d="M220.2,612.4c-1.5,4-4,4.4-6.5.8l6.5-.8Z"/>
          <path class="st0" d="M497.4,363.2c2.9-.4,1.5,3.7,1.6,5.7.6,16.2,1.3,43.4,0,59.1-.6,8.6-3.8,9.5-6.5,1.4-1.8-5.3-2.3-23.4-1.9-29.4.7-12,4.3-25.1,6.7-36.9h0Z"/>
          <path class="st0" d="M415.4,605.8c4,4.9-13.6,15-20.6,1.7-3.1-5.9-3.9-14.6,3.3-8.2,1.2,1,1.1,3.5,3.7,4.5,2.2.8,12.9,1.1,13.6,2h0Z"/>
          <path class="st0" d="M365.4,504.2c4-.9,3.7,6.1,5.6,7.4,2.8,1.9,16.3-1.4,14.8,4.8-.8,3.5-14.6,5.4-18.1,3.3-3-1.8-7.6-14.4-2.4-15.6h0Z"/>
          <path class="st0" d="M577.8,981.2c-4.3.8-2.9-.8-4-3.3-1.5-3.3-4.9-12.7,0-14.8,3.8,5.3,4.8,11.6,4.1,18h0Z"/>
          <path class="st0" d="M380.9,551.7c.4.4.5,4.4,3.3,5.7,2.2,1.1,19.2-.5,14.8,4.1-2.5,2.6-14.6,6.1-18.7,3.2-4.8-3.4-3.4-16.5.7-13Z"/>
          <path class="st0" d="M444.9,691c1.2,5.7-4.2,8.1-9.1,8.3-10.9.4-9.2-8.2-9-16.5,5.4,6.4,8.8,9.5,18,8.2h0Z"/>
          <path class="st0" d="M352.8,427.4c.7,1.1,0,3.2.2,4.7-4.1-2.6-9.5,1.7-13.2-.7-2.4-1.6-6-15.6,0-14.9-.2,7.6,12.1,9.6,12.9,10.9Z"/>
          <path class="st0" d="M430.1,651.7c3.9,3-10.3,7.8-15.2,6.3-5.3-1.6-9.3-13.7-2.8-16.1,1.9,8.3,10.2,10.8,18.1,9.8Z"/>
          <path class="st0" d="M343.2,609.1c5.5-.9,5.3,7.3,8.2,9,1.7,1,21.8,5,5.4,8.7-12.6,2.8-14.5-7.5-13.6-17.7h0Z"/>
          <path class="st0" d="M444.9,727.1c1.9-2,17.9,7.1,16.4,12.3-7.4,7-18.8-3.4-16.4-12.3Z"/>
          <path class="st0" d="M389.1,399.3c.6.6,2,11.3,8.2,12.3,1,4-8.1,5.9-10,3.1s-3.1-19.6,1.8-15.4Z"/>
          <path class="st0" d="M308.8,445.1c-.3.4-7.3,1.9-8.9,1.7-9.2-1.2-9-19.8-5-19.7,1.6,0,3.8,7,5.8,8.9s11.4,4.1,8.1,9.1Z"/>
          <path class="st0" d="M334.9,563.3c.2.2.2,3.9,1.6,5.7,1.8,2.3,12.4,4.8,8.3,8.9-.9.9-11.6,0-13.3-2.7-2-3.2-1.5-8.4-1.5-12,1.4.2,4.2-.4,4.8,0h0Z"/>
          <path class="st0" d="M280.8,528.9c.4.3,1.2,7.2,3.9,9.2,2.1,1.6,12.7,1.9,6.1,6.3-7.3,4.8-18.7-6.9-14.8-15.6,1.4.2,4.1-.4,4.8.1h0Z"/>
          <path class="st0" d="M309.2,310.3c2,1.2,6-.2,7.8,2.9-7.9,8-14.6,2.9-13.1-7.4,4.1-1.1,3.7,3.5,5.3,4.5h0Z"/>
          <path class="st0" d="M290.4,386.6c.4.3.8,2.5,2.1,3.4,1.6,1.2,10.4,3.1,4.9,6.8-6.9,4.6-14.9-2.6-11.5-10.7,1.5,0,3.2-.4,4.6.5h0Z"/>
          <path class="st1" d="M420.3,543.5c-1.2,4.4-6.5-1.3-4.9-3.3.7-.9,3.4,3.5,4.9,3.3Z"/>
        </g>
      </g>
    </g>
  </g>
</svg>