<?xml version="1.0" encoding="UTF-8"?>
<svg id="Layer_2" data-name="Layer 2" xmlns="http://www.w3.org/2000/svg" viewBox="0 0 949.63 620.62">
  <defs>
    <style>
      .cls-1 {
        fill: #ff5224;
      }

      .cls-2 {
        fill: #efdece;
      }

      .cls-3 {
        fill: #1d1d1b;
      }
    </style>
  </defs>
  <g id="h_hero_main-header">
    <g>
      <g>
        <path class="cls-1" d="M924.3,87.65c1.49.63,2.34,2.5,2.96,3.92,7.05,16.05,15.38,38.31,20.78,55.02.69,2.13,2.24,5.61,1.28,7.5l-40.28,39.02-3.62,1.04c-11.63-.91-24.52,1.86-35.92,1.41-6.02-.24-1.49-4.18-.63-7.17,2.64-9.25,4.93-18.66,7.71-27.98,1.11-3.72,3.16-5.93,2.97-10.81-.17-4.36-10.98-18.13-13.59-23.13-.56-1.08-1-2.13-.63-3.36-1.13-.25-1.97.85-2.68,1.61-5.87,6.36-11.21,15.64-17.04,22.39l-.29,44.11-37.36-20.2-20.28-56.46,1.78-38.97,51.87-18.29-29.33,28.44c4.96,10.62,6.52,23.56,13.98,32.65l9.44,7.01-6.89-40.3,35.4-33.55c1.13-5.24,2.46-10.6,3.15-15.91,1.28-9.82,3.02-20.08,4.16-30,.24-2.12-1.96-6.65,1.55-5.42l44.95,72.99c-.61,4.06-1.02,8.33-2,12.32-2.76,11.25-8.88,19.9-15.42,29.38l3.72,28.02c1.78.17,2.32-1.42,3.08-2.59,1.51-2.3,10.8-17.5,10.99-18.56l6.17-34.11Z"/>
        <polygon class="cls-1" points="846.75 41.61 805.02 52.63 852.81 8.12 846.75 41.61"/>
      </g>
      <g>
        <g>
          <path class="cls-2" d="M766.44,165.83c-.65-11.48-4.69-22.37-12.13-32.65-6.86-9.24-16.83-17.65-29.89-25.26-1.48-.86-2.94-1.66-4.38-2.41-1.39-.74-2.77-1.43-4.12-2.06,0,0,0,0,0,0-.09-.04-.16-.09-.25-.12-.38-.13-.78-.16-1.17-.06-13.97-1.69-25.59-3.8-34.87-6.35-2.23-.68-4.16-1.26-5.77-1.73-.61-.22-1.43-.15-2.47.22-.42.2-.68.4-.78.6-.12.2-.06.3.14.31,3.44,1.34,8.31,2.63,14.62,3.86,6.11,1.23,12.62,2.36,19.55,3.41,2.7.4,5.28.77,7.73,1.08-.09.37.18.71.8,1.04,5.45,2.43,11.07,5.7,16.88,9.78,6.01,4.09,10.8,8.04,14.35,11.83,8.52,8.69,14.13,18.6,16.84,29.75,2.7,11.56,1.61,22.78-3.26,33.68-4.86,10.9-12.23,19.88-22.08,26.92-8.82,6.47-19.42,11.14-31.79,14.01-3.02.65-6.02,1.16-9,1.5-2.21.27-4.41.46-6.6.56-5.4.25-10.74.02-16.02-.7-.74-.1-1.47-.22-2.2-.33-1.24-.19-2.47-.41-3.68-.67-10.08-2.08-18.96-6.08-26.63-12-10.78-8.54-16.09-18.25-15.94-29.09,0-5.94,1.79-10.9,5.41-14.88,3.19-3.78,7.98-6.29,14.38-7.51,4.73-.66,10.88-.77,18.44-.32,6.94.65,13.56,1.79,19.86,3.42,3.24.93,6.48,1.96,9.73,3.09.69.16,1.32.11,1.89-.16,1.8.37,3.61.71,5.45,1.02,3.87.54,7.85,1.08,11.92,1.62,1.23.04,2.16-.24,2.8-.83.42-.4.33-.6-.29-.62-6.59-.63-12.87-1.6-18.82-2.9-.14-.18-.38-.35-.73-.51-5.71-2.05-11.45-3.65-17.22-4.79-2.98-.6-5.97-1.07-8.97-1.4-5.2-.61-10.42-.85-15.67-.71-15.37.32-25.17,5.32-29.38,15.01-2.45,5.86-3.04,11.63-1.8,17.3,1.24,5.67,3.83,10.93,7.77,15.77,7.07,9.04,16.79,15.4,29.17,19.09.1.03.2.07.3.09,1.06.33,2.11.64,3.17.92,10.48,2.84,21.31,3.61,32.51,2.33,1.47-.17,2.93-.37,4.37-.59,1.39-.22,2.77-.46,4.13-.74,9.24-1.84,17.94-4.91,26.1-9.2,11.26-5.98,20.55-14.38,27.86-25.19,7.32-10.82,10.57-22.28,9.74-34.4ZM766.56,77.97c-.58-7.19-3.44-13.74-8.57-19.64-5.14-5.89-11.32-10.71-18.57-14.43-12.91-6.15-27.67-8.49-44.31-6.99-16.64,1.71-31.14,6.66-43.5,14.85-14.23,9.36-23.74,21.44-28.53,36.23-4.59,14.8-2.72,29.61,5.6,44.42,6.59,11.28,16.72,20.93,30.39,28.96,2.91,1.74,5.94,3.33,9.08,4.8,7.89,3.68,16.51,6.48,25.85,8.41,1.8.37,3.61.71,5.45,1.02,3.87.54,7.85,1.08,11.92,1.62,1.23.04,2.16-.24,2.8-.83.42-.4.33-.6-.29-.62-6.59-.63-12.87-1.6-18.82-2.9-6.35-1.39-12.34-3.16-17.95-5.3-14.84-5.67-27.11-13.98-36.79-24.95-10.65-12.22-15.95-25.61-15.88-40.15.06-14.54,6.14-28.16,18.24-40.88,9.76-10.32,22.79-17.37,39.09-21.14,15.28-3.59,29.81-3.42,43.61.52,16.03,4.63,27.32,13.09,33.87,25.39,3.86,7.09,4.96,14.09,3.3,21-1.9,7.93-6.48,13.2-13.73,15.83-4.55,1.49-10.62,2.01-18.17,1.55-4.02-.14-8.94-.56-14.75-1.29,0,0,0,0,0,0-.39-.05-.78-.1-1.17-.15-.08,0-.17-.02-.25-.03-13.97-1.69-25.59-3.8-34.87-6.35-2.23-.68-4.16-1.26-5.77-1.73-.61-.22-1.43-.15-2.47.22-.42.2-.68.4-.78.6-.12.2-.06.3.14.31,3.44,1.34,8.31,2.63,14.62,3.86,6.11,1.23,12.62,2.36,19.55,3.41,2.7.4,5.28.77,7.73,1.08,2.61.33,5.08.61,7.41.85,8.29.81,14.89.96,19.8.46,9.05-.94,15.79-3.68,20.24-8.24,5.09-5.16,7.24-11.74,6.49-19.75Z"/>
          <path class="cls-3" d="M758.24,190.75c-4.86,10.9-12.23,19.88-22.08,26.92-8.82,6.47-19.42,11.14-31.79,14.01-3.02.65-6.02,1.16-9,1.5-8.55-1.33-18.05-1.71-28.51-1.14-10.08-2.08-18.96-6.08-26.63-12-10.78-8.54-16.09-18.25-15.94-29.09,0-5.94,1.79-10.9,5.41-14.88,3.19-3.78,7.98-6.29,14.38-7.51,4.73-.66,10.88-.77,18.44-.32,6.94.65,13.56,1.79,19.86,3.42,3.24.93,6.48,1.96,9.73,3.09.69.16,1.32.11,1.89-.16,1.8.37,3.61.71,5.45,1.02,3.87.54,7.85,1.08,11.92,1.62,1.23.04,2.16-.24,2.8-.83.42-.4.33-.6-.29-.62-6.59-.63-12.87-1.6-18.82-2.9-.14-.18-.38-.35-.73-.51-5.71-2.05-11.45-3.65-17.22-4.79-14.84-5.67-27.11-13.98-36.79-24.95-10.65-12.22-15.95-25.61-15.88-40.15.06-14.54,6.14-28.16,18.24-40.88,9.76-10.32,22.79-17.37,39.09-21.14,15.28-3.59,29.81-3.42,43.61.52,16.03,4.63,27.32,13.09,33.87,25.39,3.86,7.09,4.96,14.09,3.3,21-1.9,7.93-6.48,13.2-13.73,15.83-4.55,1.49-10.62,2.01-18.17,1.55-4.02-.14-8.94-.56-14.75-1.29,0,0,0,0,0,0-.09-.04-.16-.09-.25-.12-.38-.13-.78-.16-1.17-.06-13.97-1.69-25.59-3.8-34.87-6.35-2.23-.68-4.16-1.26-5.77-1.73-.61-.22-1.43-.15-2.47.22-.42.2-.68.4-.78.6-.12.2-.06.3.14.31,3.44,1.34,8.31,2.63,14.62,3.86,6.11,1.23,12.62,2.36,19.55,3.41,2.7.4,5.28.77,7.73,1.08-.09.37.18.71.8,1.04,5.45,2.43,11.07,5.7,16.88,9.78,6.01,4.09,10.8,8.04,14.35,11.83,8.52,8.69,14.13,18.6,16.84,29.75,2.7,11.56,1.61,22.78-3.26,33.68Z"/>
        </g>
        <g>
          <path class="cls-2" d="M160.53,307.54c-4.21-10.7-11.47-19.77-21.75-27.2-9.41-6.62-21.51-11.49-36.3-14.62-1.67-.34-3.31-.65-4.91-.91-1.55-.26-3.08-.49-4.56-.66,0,0,0,0,0,0-.1-.02-.18-.03-.28-.04-.4,0-.76.09-1.11.31-13.8,2.77-25.52,4.41-35.12,4.9-2.34.05-4.34.1-6.03.17-.64-.02-1.41.31-2.28.99-.33.31-.52.58-.56.8-.05.22.03.31.23.25,3.68.2,8.71-.1,15.09-.91,6.18-.74,12.72-1.7,19.63-2.89,2.69-.46,5.25-.92,7.68-1.4.03.37.4.62,1.09.75,5.94.6,12.3,1.93,19.1,3.99,6.99,2.01,12.77,4.25,17.34,6.75,10.81,5.57,19.25,13.22,25.31,22.96,6.18,10.14,8.66,21.13,7.46,33.01-1.2,11.87-5.38,22.7-12.53,32.48-6.34,8.91-14.95,16.66-25.8,23.26-10.19,5.98-20.79,9.84-31.8,11.58-11.59,1.92-22.52,1.07-32.74-2.53-12.91-4.74-21.01-12.28-24.26-22.64-1.87-5.63-1.71-10.91.48-15.82,1.85-4.6,5.61-8.48,11.3-11.65,4.28-2.11,10.09-4.13,17.41-6.07,6.79-1.57,13.44-2.56,19.93-2.98,3.37-.14,6.77-.18,10.21-.12.71-.06,1.29-.31,1.74-.76,1.81-.21,3.65-.45,5.5-.74,3.84-.69,7.79-1.43,11.83-2.2,1.18-.34,1.98-.9,2.39-1.66.28-.5.12-.68-.47-.5-6.46,1.46-12.72,2.51-18.78,3.14-.18-.14-.47-.21-.85-.25-6.06-.16-12.01.12-17.85.84-3.02.37-6,.87-8.95,1.48-5.13,1.05-10.16,2.47-15.11,4.23-14.5,5.12-22.23,12.94-23.19,23.46-.49,6.33.76,12,3.72,17,2.96,5,7.07,9.17,12.32,12.54,9.55,6.36,20.77,9.36,33.68,8.98,12.12-.15,23.85-2.86,35.22-8.12,11.35-5.26,21.21-12.21,29.55-20.85,8.82-9.21,15.01-20.09,18.56-32.65,3.56-12.57,3.06-24.47-1.54-35.72ZM133.11,224.07c-2.8-6.64-7.57-11.96-14.29-15.96-6.72-3.99-14.11-6.63-22.16-7.89-14.19-1.8-28.94.62-44.27,7.26-15.27,6.83-27.49,16.07-36.66,27.73C5.16,248.56-.09,263,0,278.55c.29,15.49,6.7,28.97,19.24,40.43,9.79,8.65,22.44,14.64,37.93,17.98,3.32.73,6.69,1.3,10.14,1.7,8.65,1.02,17.71.98,27.18-.11,1.81-.21,3.65-.45,5.5-.74,3.84-.69,7.79-1.43,11.83-2.2,1.18-.34,1.98-.9,2.39-1.66.28-.5.12-.68-.47-.5-6.46,1.46-12.72,2.51-18.78,3.14-.18-.14-.47-.21-.85-.25-6.06-.16-12.01.12-17.85.84-15.87-.72-30.12-4.77-42.76-12.15-13.95-8.27-23.17-19.33-27.66-33.16-4.5-13.83-2.99-28.67,4.51-44.53,6.03-12.86,16.2-23.64,30.5-32.32,13.38-8.2,27.24-12.59,41.57-13.18,16.67-.63,30.04,3.87,40.13,13.49,5.89,5.52,9.13,11.83,9.71,18.9.68,8.12-2.01,14.57-8.08,19.33-3.86,2.85-9.45,5.24-16.77,7.17-3.86,1.14-8.66,2.27-14.41,3.4,0,0,0,0,0,0-.38.07-.77.15-1.16.22-.07.02-.15.03-.22.05-13.8,2.77-25.52,4.41-35.12,4.9-2.34.05-4.34.1-6.03.17-.64-.02-1.41.31-2.28.99-.33.31-.52.58-.56.8-.05.22.03.31.23.25,3.68.2,8.71-.1,15.09-.91,6.18-.74,12.72-1.7,19.63-2.89,2.69-.46,5.25-.92,7.68-1.4,2.59-.5,5.02-1.01,7.3-1.52,8.12-1.83,14.44-3.76,18.94-5.77,8.3-3.72,13.84-8.44,16.64-14.17,3.21-6.49,3.21-13.42-.03-20.79Z"/>
          <path class="cls-3" d="M160.56,333.78c-1.2,11.87-5.38,22.7-12.53,32.48-6.34,8.91-14.95,16.66-25.8,23.26-10.19,5.98-20.79,9.84-31.8,11.58-11.59,1.92-22.52,1.07-32.74-2.53-12.91-4.74-21.01-12.28-24.26-22.64-1.87-5.63-1.71-10.91.48-15.82,1.85-4.6,5.61-8.48,11.3-11.65,4.28-2.11,10.09-4.13,17.41-6.07,6.79-1.57,13.44-2.56,19.93-2.98,3.37-.14,6.77-.18,10.21-.12.71-.06,1.29-.31,1.74-.76,1.81-.21,3.65-.45,5.5-.74,3.84-.69,7.79-1.43,11.83-2.2,1.18-.34,1.98-.9,2.39-1.66.28-.5.12-.68-.47-.5-6.46,1.46-12.72,2.51-18.78,3.14-.18-.14-.47-.21-.85-.25-6.06-.16-12.01.12-17.85.84-15.87-.72-30.12-4.77-42.76-12.15-13.95-8.27-23.17-19.33-27.66-33.16-4.5-13.83-2.99-28.67,4.51-44.53,6.03-12.86,16.2-23.64,30.5-32.32,13.38-8.2,27.24-12.59,41.57-13.18,16.67-.63,30.04,3.87,40.13,13.49,5.89,5.52,9.13,11.83,9.71,18.9.68,8.12-2.01,14.57-8.08,19.33-3.86,2.85-9.45,5.24-16.77,7.17-3.86,1.14-8.66,2.27-14.41,3.4,0,0,0,0,0,0-.1-.02-.18-.03-.28-.04-.4,0-.76.09-1.11.31-13.8,2.77-25.52,4.41-35.12,4.9-2.34.05-4.34.1-6.03.17-.64-.02-1.41.31-2.28.99-.33.31-.52.58-.56.8-.05.22.03.31.23.25,3.68.2,8.71-.1,15.09-.91,6.18-.74,12.72-1.7,19.63-2.89,2.69-.46,5.25-.92,7.68-1.4.03.37.4.62,1.09.75,5.94.6,12.3,1.93,19.1,3.99,6.99,2.01,12.77,4.25,17.34,6.75,10.81,5.57,19.25,13.22,25.31,22.96,6.18,10.14,8.66,21.13,7.46,33.01Z"/>
        </g>
        <g>
          <path class="cls-2" d="M245.65,218.9c-.81-2.75-2.56-4.89-5.26-6.45-2.7-1.55-5.56-2.2-8.58-1.96-3.02.25-5.7,1.46-8.04,3.64-4.22,3.8-5.64,9.13-4.27,15.98,1.7,7.93,5.35,12.59,10.96,13.96.06.02.13.03.2.05l.08.29c4.06.72,7.52-.18,10.4-2.74,1.87-1.62,3.39-5.16,4.56-10.62,1.09-5.01,1.07-9.06-.05-12.15ZM240.82,237.29c-1.3,3.58-3.97,5-8.03,4.28-4.17-1.12-7.22-4.28-9.17-9.47-1.96-5.18-1.89-9.68.19-13.49.85-2.17,2.38-3.68,4.58-4.55,2.2-.85,4.46-.99,6.76-.38,5.39,1.62,8.1,5.41,8.15,11.36,0,3.64-.84,7.72-2.48,12.25ZM288.15,190.93c-6.21-21.86-15.97-39.79-29.26-53.81-13.74-14.09-28.43-20.87-44.06-20.33-3.9.3-7.87,1.04-11.93,2.23-.07.02-.14.03-.21.06-20.03,5.89-35.08,15.64-45.15,29.27-8.66,11.93-13.32,26.21-13.98,42.83-.45,14.43,1.97,29.93,7.27,46.51,4.29,13.88,9.97,27.04,17.03,39.47,4.33,7.48,8.59,13.26,12.79,17.36,6.79,7.18,14.67,12.54,23.62,16.1,8.63,3.22,17.62,4.58,26.96,4.08,9.34-.51,17.95-2.99,25.82-7.43,8.85-4.73,16.07-11.02,21.67-18.85,5.93-8.14,9.97-17.97,12.13-29.49,4.5-22.44,3.6-45.11-2.71-68.01ZM290.3,241.82c-1.78,25.91-9.52,44.92-23.23,57.06-6.82,5.85-14.54,9.87-23.17,12.09-8.62,2.21-17.38,2.39-26.25.51-9.01-1.62-17.2-5.18-24.59-10.69-6.76-4.85-12.68-11.2-17.77-19.1-6.88-10.35-12.78-22.06-17.68-35.13-5.86-15.56-9.37-30.42-10.54-44.58-1.08-16.75,1.25-31.3,7.01-43.67,6.67-14.33,18-25.13,34-32.39,4.1-1.84,8.56-3.47,13.41-4.91.06-.02.12-.03.18-.05,15.32-4.5,30.39-1.14,45.2,10.08,13.8,10.66,24.75,26.12,32.82,46.36,8.2,20.63,11.74,42.11,10.61,64.41ZM240.39,212.45c-2.7-1.55-5.56-2.2-8.58-1.96-3.02.25-5.7,1.46-8.04,3.64-4.22,3.8-5.64,9.13-4.27,15.98,1.7,7.93,5.35,12.59,10.96,13.96.06.02.13.03.2.05l.08.29c4.06.72,7.52-.18,10.4-2.74,1.87-1.62,3.39-5.16,4.56-10.62,1.09-5.01,1.07-9.06-.05-12.15-.81-2.75-2.56-4.89-5.26-6.45ZM240.82,237.29c-1.3,3.58-3.97,5-8.03,4.28-4.17-1.12-7.22-4.28-9.17-9.47-1.96-5.18-1.89-9.68.19-13.49.85-2.17,2.38-3.68,4.58-4.55,2.2-.85,4.46-.99,6.76-.38,5.39,1.62,8.1,5.41,8.15,11.36,0,3.64-.84,7.72-2.48,12.25Z"/>
          <path class="cls-3" d="M279.69,177.41c-8.08-20.23-19.02-35.69-32.82-46.36-14.82-11.22-29.88-14.58-45.2-10.08-.06.02-.12.03-.18.05-4.85,1.44-9.32,3.07-13.41,4.91-16,7.26-27.33,18.06-34,32.39-5.76,12.36-8.09,26.92-7.01,43.67,1.17,14.16,4.69,29.02,10.54,44.58,4.9,13.07,10.8,24.78,17.68,35.13,5.09,7.89,11.02,14.25,17.77,19.1,7.38,5.51,15.57,9.08,24.59,10.69,8.87,1.88,17.62,1.7,26.25-.51,8.63-2.22,16.35-6.25,23.17-12.09,13.72-12.14,21.45-31.16,23.23-57.06,1.12-22.3-2.42-43.78-10.61-64.41ZM245.7,231.05c-1.17,5.47-2.69,9.01-4.56,10.62-2.88,2.55-6.34,3.46-10.4,2.74l-.08-.29c-.07-.02-.14-.03-.2-.05-5.61-1.37-9.26-6.02-10.96-13.96-1.37-6.85.05-12.17,4.27-15.98,2.34-2.18,5.02-3.4,8.04-3.64,3.02-.25,5.88.41,8.58,1.96,2.7,1.56,4.45,3.71,5.26,6.45,1.11,3.09,1.14,7.14.05,12.15Z"/>
        </g>
        <g>
          <path class="cls-2" d="M463.22,192.31c-3.53-13.46-8.53-27.57-15-42.31-6.21-14.6-12.98-28.19-20.3-40.76-7.63-12.9-14.97-23.33-22-31.29-3.74-4.02-7.25-7.26-10.53-9.71-3.28-2.44-6.37-3.88-9.27-4.31-7.15-1.1-12.38,2.89-15.68,11.97-1.52,4.29-2.63,9.95-3.33,16.98-.65,7.23-.67,15.88-.06,25.94.03.72.06,1.45.1,2.19.21,4.43.49,9.16.87,14.17.25.14.6.25,1.06.33,1.23-.2,1.97-.62,2.22-1.27.08-.21.11-.43.09-.68-1.02-11.43-1.53-21.52-1.54-30.27.1-8.35.74-15.26,1.91-20.73.97-5.4,2.42-9.56,4.34-12.48l.21-.38.29-.08c.28-.51.51-.8.71-.85-.06-.19.11-.35.5-.47l-.09-.29c.34-.31.7-.52,1.1-.64l.29-.09-.09-.29.59-.18.59-.17c.39-.11.68-.2.88-.25.19-.06.42-.02.68.12.19-.06.39-.12.59-.18l.29-.09c.64.02,1.32.14,2.03.37,1.35.24,2.78.78,4.31,1.62,3.05,1.66,6.23,4.15,9.55,7.43,6.56,6.39,13.62,15.52,21.16,27.38,7.23,11.54,14.19,24.31,20.87,38.35,6.55,14.29,12.01,28.16,16.38,41.59,4.41,14.28,7.13,26.81,8.17,37.6.57,5.59.56,10.61-.06,15.05-.27,2.01-.66,3.93-1.18,5.79-.53,1.85-1.2,3.55-2.03,5.08-.14.25-.38.53-.71.84l-.21.38-.21.38c-.33.31-.67.62-1,.94.06.19-.02.33-.21.38l-.21.38c-.4.11-.76.33-1.09.64-.2.06-.33.15-.41.28-.07.13-.15.21-.25.23-.07.02-.22.06-.45.14l-.29.09c-.33.3-.7.52-1.09.64l-.29.09c-.4.12-.69.2-.88.26-.79.23-1.63.26-2.53.1-1.69.06-3.37-.19-5.03-.76-3.27-.96-6.65-3.06-10.17-6.29-6.34-5.61-12.67-14.09-19-25.46-5.11-9.38-9.24-18.72-12.4-28.04-1.35-3.87-2.33-7.2-2.94-10.01-.12-.39-.47-.5-1.06-.33-1.63.27-2.3.89-2.01,1.87,1.54,9.58.92,17.66-1.84,24.23-1.16,3.33-2.75,5.55-4.76,6.68-2.02,1.13-4.43,1.26-7.26.37-3.32-1.15-7.03-4-11.13-8.54-.35-2.49-.76-4.94-1.22-7.36-.84-3.59-1.6-6.89-2.27-9.89-.25-.14-.63-.14-1.11,0-.49.14-.99.45-1.5.91-.5.47-.72.8-.66,1,1.38,4.69,2.54,10.25,3.48,16.69-.2.26-.21.44-.02.53.04.04.08.09.11.13,1.33,1.46,2.63,2.76,3.92,3.89,6.04,5.32,11.65,6.95,16.82,4.89,6.05-2.63,9.73-8.62,11.04-17.97.1-.66.18-1.32.24-1.99,1.25,3.33,2.78,6.93,4.59,10.81,5.09,11.52,10.73,21.27,16.92,29.26,7.1,9.65,13.92,15.44,20.46,17.35,5.58,1.56,10.7.48,15.36-3.24,5.34-4.34,8.11-11.98,8.31-22.92.15-9.64-1.75-21.56-5.71-35.76ZM376.08,224.65c-.16-4.35-.45-8.61-.9-12.78-.21-1.99-.45-3.96-.74-5.91-.35-2.49-.76-4.94-1.22-7.36-.84-3.59-1.6-6.89-2.27-9.89-.25-.14-.63-.14-1.11,0-.49.14-.99.45-1.5.91-.5.47-.72.8-.66,1,1.38,4.69,2.54,10.25,3.48,16.69.03.22.06.44.09.66.21,1.45.41,2.94.6,4.46,1.08,9.5,1.5,18.55,1.26,27.16-.23,10.1-1.38,18.54-3.44,25.33-2.55,8-5.78,13-9.67,15-3.51,1.88-7.19,2.22-11.07,1.01s-7.42-3.26-10.61-6.16c-6.15-5.67-11.89-14.65-17.2-26.95-5.04-11.32-9.25-24.59-12.66-39.8-3.29-14.82-5.57-29.84-6.83-45.03-1.07-15.26-1.03-28.93.11-41,1.17-12.71,3.58-22.28,7.25-28.69,1.03-1.58,2.02-2.94,2.97-4.07.33-.3.56-.59.71-.84l.59-.17c-.06-.19,0-.33.21-.38.19-.06.27-.18.21-.38.39-.11.68-.2.88-.26l.29-.08c.53-.37.99-.61,1.39-.73.98-.29,1.86-.55,2.65-.78,2.02-.37,3.9-.5,5.65-.37,3.48.25,7.01,1.35,10.57,3.29,6.49,3.21,12.7,8.74,18.64,16.6,5,6.85,8.95,14.12,11.85,21.8,1.23,3.48,2.06,6.65,2.47,9.52.19-.06.54-.16,1.03-.3.49-.14,1-.41,1.54-.77s.77-.65.72-.85c-.02-.1-.03-.19-.06-.29-.7-4.13-2.08-8.55-4.15-13.22-1.15-2.6-2.51-5.29-4.07-8.06-4.87-8.59-10.32-15.53-16.35-20.8-6.84-5.88-13.8-8.85-20.86-8.91-6.21-.1-11.4,1.86-15.56,5.86-4.84,4.62-8.3,12.79-10.41,24.5-1.88,11-2.59,24.23-2.1,39.66.76,14.93,2.58,30.19,5.45,45.77,2.98,15.98,6.87,30.3,11.66,42.97,5.08,13.65,10.7,24.06,16.85,31.21,6.78,7.82,13.85,11.19,21.21,10.09,11.96-1.38,19.37-11.77,22.2-31.17,1.06-7.99,1.36-17.15.89-27.46Z"/>
          <path class="cls-3" d="M465.07,235.61c-.27,2.01-.66,3.93-1.18,5.79-.53,1.85-1.2,3.55-2.03,5.08-.14.25-.38.53-.71.84l-.21.38-.21.38c-.33.31-.67.62-1,.94.06.19-.02.33-.21.38l-.21.38c-.4.11-.76.33-1.09.64-.2.06-.33.15-.41.28-.07.13-.15.21-.25.23-.07.02-.22.06-.45.14l-.29.09c-.33.3-.7.52-1.09.64l-.29.09c-.4.12-.69.2-.88.26-.79.23-1.63.26-2.53.1-1.69.06-3.37-.19-5.03-.76-3.27-.96-6.65-3.06-10.17-6.29-6.34-5.61-12.67-14.09-19-25.46-5.11-9.38-9.24-18.72-12.4-28.04-1.35-3.87-2.33-7.2-2.94-10.01-.12-.39-.47-.5-1.06-.33-1.63.27-2.3.89-2.01,1.87,1.54,9.58.92,17.66-1.84,24.23-1.16,3.33-2.75,5.55-4.76,6.68-2.02,1.13-4.43,1.26-7.26.37-3.32-1.15-7.03-4-11.13-8.54-.35-2.49-.76-4.94-1.22-7.36-.84-3.59-1.6-6.89-2.27-9.89-.25-.14-.63-.14-1.11,0-.49.14-.99.45-1.5.91-.5.47-.72.8-.66,1,1.38,4.69,2.54,10.25,3.48,16.69-.2.26-.21.44-.02.53.04.04.08.09.11.13.21,1.45.41,2.94.6,4.46,1.08,9.5,1.5,18.55,1.26,27.16-.23,10.1-1.38,18.54-3.44,25.33-2.55,8-5.78,13-9.67,15-3.51,1.88-7.19,2.22-11.07,1.01s-7.42-3.26-10.61-6.16c-6.15-5.67-11.89-14.65-17.2-26.95-5.04-11.32-9.25-24.59-12.66-39.8-3.29-14.82-5.57-29.84-6.83-45.03-1.07-15.26-1.03-28.93.11-41,1.17-12.71,3.58-22.28,7.25-28.69,1.03-1.58,2.02-2.94,2.97-4.07.33-.3.56-.59.71-.84l.59-.17c-.06-.19,0-.33.21-.38.19-.06.27-.18.21-.38.39-.11.68-.2.88-.26l.29-.08c.53-.37.99-.61,1.39-.73.98-.29,1.86-.55,2.65-.78,2.02-.37,3.9-.5,5.65-.37,3.48.25,7.01,1.35,10.57,3.29,6.49,3.21,12.7,8.74,18.64,16.6,5,6.85,8.95,14.12,11.85,21.8,1.23,3.48,2.06,6.65,2.47,9.52.19-.06.54-.16,1.03-.3.49-.14,1-.41,1.54-.77s.77-.65.72-.85c-.02-.1-.03-.19-.06-.29.08-.21.11-.43.09-.68-1.02-11.43-1.53-21.52-1.54-30.27.1-8.35.74-15.26,1.91-20.73.97-5.4,2.42-9.56,4.34-12.48l.21-.38.29-.08c.28-.51.51-.8.71-.85-.06-.19.11-.35.5-.47l-.09-.29c.34-.31.7-.52,1.1-.64l.29-.09-.09-.29.59-.18.59-.17c.39-.11.68-.2.88-.25.19-.06.42-.02.68.12.19-.06.39-.12.59-.18l.29-.09c.64.02,1.32.14,2.03.37,1.35.24,2.78.78,4.31,1.62,3.05,1.66,6.23,4.15,9.55,7.43,6.56,6.39,13.62,15.52,21.16,27.38,7.23,11.54,14.19,24.31,20.87,38.35,6.55,14.29,12.01,28.16,16.38,41.59,4.41,14.28,7.13,26.81,8.17,37.6.57,5.59.56,10.61-.06,15.05Z"/>
        </g>
        <g>
          <path class="cls-2" d="M564.53,170.54c-.28-2.85-1.6-5.29-3.96-7.33-2.36-2.03-5.05-3.21-8.06-3.53-3.02-.32-5.88.37-8.58,2.07-4.86,2.94-7.25,7.91-7.19,14.89.18,8.11,2.9,13.37,8.14,15.76.06.03.12.06.19.08l.03.31c3.85,1.47,7.42,1.23,10.73-.74,2.14-1.24,4.3-4.43,6.47-9.58,2.01-4.72,2.75-8.7,2.23-11.94ZM556.33,187.69c-1.95,3.27-4.84,4.17-8.69,2.7-3.88-1.88-6.3-5.56-7.24-11.02s-.04-9.86,2.73-13.22c1.24-1.97,3.03-3.17,5.36-3.61,2.32-.42,4.56-.13,6.71.89,4.99,2.6,6.94,6.83,5.86,12.69-.68,3.57-2.26,7.43-4.73,11.57ZM609.99,124.16c-2-22.63-8.22-42.08-18.64-58.34-10.85-16.42-24.01-25.83-39.46-28.23-3.89-.43-7.92-.45-12.13-.05-.07,0-.14,0-.21.02-20.78,2.03-37.39,8.79-49.84,20.28-10.74,10.1-18,23.25-21.77,39.45-3.15,14.08-3.68,29.77-1.58,47.04,1.61,14.44,4.72,28.43,9.33,41.97,2.85,8.16,5.95,14.64,9.3,19.45,5.33,8.32,12.06,15.07,20.18,20.25,7.87,4.78,16.44,7.8,25.71,9.07,9.27,1.25,18.19.43,26.75-2.46,9.58-2.99,17.85-7.81,24.82-14.45,7.35-6.88,13.16-15.78,17.45-26.69,8.62-21.2,11.99-43.63,10.1-67.31ZM602.56,174.55c-6.61,25.11-17.77,42.34-33.52,51.69-7.79,4.47-16.13,6.97-25.03,7.53-8.89.56-17.52-.91-25.88-4.42-8.55-3.28-15.93-8.31-22.14-15.12-5.73-6.03-10.36-13.38-13.88-22.09-4.82-11.46-8.41-24.06-10.78-37.82-2.83-16.39-3.5-31.64-1.99-45.77,2.08-16.65,7.1-30.51,15.08-41.58,9.24-12.83,22.39-21.31,39.47-25.44,4.37-1.04,9.06-1.8,14.1-2.31.06,0,.12,0,.18-.01,15.89-1.55,30.06,4.58,42.51,18.38,11.55,13.06,19.41,30.3,23.54,51.69,4.18,21.8,3.63,43.56-1.66,65.26ZM560.58,163.21c-2.36-2.03-5.05-3.21-8.06-3.53-3.02-.32-5.88.37-8.58,2.07-4.86,2.94-7.25,7.91-7.19,14.89.18,8.11,2.9,13.37,8.14,15.76.06.03.12.06.19.08l.03.31c3.85,1.47,7.42,1.23,10.73-.74,2.14-1.24,4.3-4.43,6.47-9.58,2.01-4.72,2.75-8.7,2.23-11.94-.28-2.85-1.6-5.29-3.96-7.33ZM556.33,187.69c-1.95,3.27-4.84,4.17-8.69,2.7-3.88-1.88-6.3-5.56-7.24-11.02s-.04-9.86,2.73-13.22c1.24-1.97,3.03-3.17,5.36-3.61,2.32-.42,4.56-.13,6.71.89,4.99,2.6,6.94,6.83,5.86,12.69-.68,3.57-2.26,7.43-4.73,11.57Z"/>
          <path class="cls-3" d="M604.21,109.29c-4.14-21.39-11.99-38.63-23.54-51.69-12.45-13.8-26.62-19.93-42.51-18.38-.06,0-.12,0-.18.01-5.04.5-9.73,1.27-14.1,2.31-17.08,4.13-30.23,12.61-39.47,25.44-7.98,11.06-13,24.92-15.08,41.58-1.51,14.13-.84,29.38,1.99,45.77,2.36,13.76,5.96,26.36,10.78,37.82,3.52,8.71,8.15,16.06,13.88,22.09,6.22,6.8,13.59,11.84,22.14,15.12,8.36,3.51,16.99,4.98,25.88,4.42,8.9-.56,17.23-3.07,25.03-7.53,15.75-9.35,26.91-26.58,33.52-51.69,5.29-21.7,5.84-43.45,1.66-65.26ZM562.3,182.48c-2.17,5.15-4.33,8.34-6.47,9.58-3.31,1.97-6.88,2.21-10.73.74l-.03-.31c-.07-.03-.13-.06-.19-.08-5.25-2.4-7.96-7.65-8.14-15.76-.06-6.99,2.33-11.95,7.19-14.89,2.71-1.7,5.57-2.4,8.58-2.07,3.01.32,5.7,1.5,8.06,3.53,2.36,2.04,3.67,4.48,3.96,7.33.52,3.24-.22,7.22-2.23,11.94Z"/>
        </g>
        <g>
          <path class="cls-2" d="M94.85,479.04c-1.76-1.16-3.7-1.28-5.8-.37-3.86,1.6-6.77,4.79-8.75,9.56-.9,2.33-1.24,4.77-1,7.32.23,2.56,1.23,4.6,2.99,6.12,1.77,1.54,4.02,1.69,6.77.46,2.74-1.22,4.66-2.69,5.73-4.39,4.08-4.21,5.35-8.76,3.81-13.64-.74-2.21-2-3.89-3.76-5.06ZM96.32,490.06c-.17,2.33-1.1,4.43-2.8,6.31-2.04,2.11-4.11,3.25-6.21,3.42-2.44-.33-3.99-1.82-4.65-4.46-.65-2.64-.62-5.07.11-7.28,1.63-3.81,3.84-6.03,6.62-6.66,2.27-.28,3.99.53,5.16,2.46,1.17,1.94,1.76,4,1.76,6.21ZM118.25,550.39c-1.48-2.94-3.02-5.61-4.62-7.99-.16-.23-.35-.4-.57-.5-.25-.1-.54-.11-.87-.02-.63.18-1.11.56-1.45,1.16-.08.14-.14.28-.19.42-.13.43-.08.85.19,1.24,6.49,9.7,11.52,21.61,15.06,35.74,2.12,7.94,2.93,14.3,2.43,19.07-.49,7.73-2.89,12.78-7.2,15.17-4.2,2.56-8.63,3.31-13.28,2.24-4.37-1.01-8.82-3.59-13.3-7.72-8.02-7.19-15.94-18.64-23.75-34.35-6.67-13.27-12.33-27.6-16.95-42.97-1.94-6.58-3.45-12.7-4.55-18.38-1.1-5.68-1.67-10.22-1.73-13.62.06-.28.11-.57.17-.85.06-.28.05-.65,0-1.11.17-.84-.15-1.13-.94-.85-1.19.06-1.9.66-2.12,1.79-.22,2.25-.09,5.25.39,8.99.1.76.21,1.56.33,2.39.05.32.1.64.16.98.86,5.33,2.24,11.43,4.13,18.29,4.58,15.66,10.19,30.5,16.87,44.51,7.81,16.45,15.87,28.66,24.18,36.65,4.72,4.47,9.43,7.47,14.15,9,5,1.57,9.93,1.23,14.81-1.06,5.22-2.51,8.68-6.54,10.37-12.11s1.99-11.56.9-17.97c-.81-5.62-2.36-11.98-4.64-19.07-2.45-6.98-5.1-13.33-7.95-19.06ZM141.17,437.85c-10.64-12.58-23.23-20.9-37.78-24.96-12.61-3.38-24.93-2.65-36.95,2.21-9.76,3.82-19.25,10.43-28.49,19.82-6.46,6.54-12.86,14.65-19.2,24.31-8.21,12.39-12.73,24.04-13.55,34.94-.6,11.25,2.2,19.11,8.4,23.58,6.59,4.7,14.68,4.09,24.27-1.84,2.5-1.68,4.97-3.56,7.41-5.67.05-.04.1-.09.15-.13,1.08-.97,1.45-1.71,1.1-2.22-.31-.47-.84-.48-1.59-.04-.07.05-.13.08-.2.13-9.63,8.42-18.03,11.33-25.19,8.73-6.65-2.2-10.41-8.18-11.28-17.94-1.04-10.39,1.97-21.52,9.04-33.4,4.75-8.35,10.44-16.23,17.07-23.62,7.98-9.05,16.2-15.9,24.65-20.58,10.77-5.98,21.87-8.36,33.28-7.13,13.4,1.61,25.62,7.17,36.65,16.65,11.03,9.49,18.72,20.78,23.07,33.89,2.4,7.26,3.32,14.16,2.77,20.68-.67,7.11-3.32,14.18-7.96,21.22-3.73,5.46-8.89,11.38-15.46,17.75-7.82,7.45-14.73,12.95-20.74,16.48-3.85,2.34-7.62,4.25-11.31,5.73-1.08.23-1.72.84-1.91,1.83-.2,1,.18,1.29,1.15.89,3.91-1.34,7.9-3.24,11.98-5.7.83-.49,1.67-1.01,2.51-1.55,3.06-1.98,6.18-4.26,9.33-6.85,7.25-6.09,13.45-12.09,18.61-18,6.05-6.77,10.56-13.48,13.5-20.13,2.88-7.11,3.88-14.43,3.02-21.98-1.39-13.11-6.84-25.47-16.34-37.09ZM89.07,502.13c2.74-1.22,4.66-2.69,5.73-4.39,4.08-4.21,5.35-8.76,3.81-13.64-.74-2.21-2-3.89-3.76-5.06-1.76-1.16-3.7-1.28-5.8-.37-3.86,1.6-6.77,4.79-8.75,9.56-.9,2.33-1.24,4.77-1,7.32.23,2.56,1.23,4.6,2.99,6.12,1.77,1.54,4.02,1.69,6.77.46ZM89.4,481.39c2.27-.28,3.99.53,5.16,2.46,1.17,1.94,1.76,4,1.76,6.21-.17,2.33-1.1,4.43-2.8,6.31-2.04,2.11-4.11,3.25-6.21,3.42-2.44-.33-3.99-1.82-4.65-4.46-.65-2.64-.62-5.07.11-7.28,1.63-3.81,3.84-6.03,6.62-6.66Z"/>
          <path class="cls-3" d="M128.98,430.68c-11.03-9.49-23.25-15.04-36.65-16.65-11.41-1.23-22.5,1.15-33.28,7.13-8.45,4.68-16.67,11.53-24.65,20.58-6.63,7.39-12.32,15.27-17.07,23.62-7.07,11.89-10.09,23.02-9.04,33.4.87,9.76,4.63,15.74,11.28,17.94,7.15,2.6,15.55-.31,25.19-8.73.07-.05.13-.08.2-.13-.47-3.74-.6-6.73-.39-8.99.22-1.13.93-1.74,2.12-1.79.8-.28,1.11,0,.94.85.05.46.05.83,0,1.11-.05.28-.11.58-.17.85.06,3.41.64,7.95,1.73,13.62,1.09,5.68,2.6,11.8,4.55,18.38,4.63,15.38,10.29,29.7,16.95,42.97,7.81,15.71,15.73,27.16,23.75,34.35,4.48,4.14,8.93,6.71,13.3,7.72,4.65,1.07,9.08.32,13.28-2.24,4.31-2.4,6.71-7.44,7.2-15.17.5-4.77-.31-11.13-2.43-19.07-3.54-14.12-8.57-26.04-15.06-35.74-.26-.39-.32-.81-.19-1.24-4.08,2.46-8.07,4.35-11.98,5.7-.97.4-1.35.11-1.15-.89.19-.99.83-1.6,1.91-1.83,3.69-1.48,7.46-3.39,11.31-5.73,6.01-3.53,12.93-9.03,20.74-16.48,6.57-6.37,11.73-12.29,15.46-17.75,4.64-7.05,7.29-14.12,7.96-21.22.55-6.52-.37-13.42-2.77-20.68-4.35-13.1-12.04-24.4-23.07-33.89ZM94.8,497.73c-1.07,1.71-2.99,3.17-5.73,4.39-2.75,1.23-5.01,1.08-6.77-.46-1.76-1.52-2.76-3.56-2.99-6.12-.23-2.55.1-4.99,1-7.32,1.98-4.77,4.89-7.96,8.75-9.56,2.1-.91,4.03-.78,5.8.37,1.76,1.17,3.01,2.85,3.76,5.06,1.54,4.88.28,9.43-3.81,13.64Z"/>
        </g>
        <g>
          <g>
            <path class="cls-2" d="M180.2,371.48c4.65-2.77,8.15-6.64,10.49-11.63,2.33-4.98,2.88-10.08,1.65-15.29-1.15-4.37-3.48-8.09-6.99-11.19-3.51-3.08-7.44-4.92-11.79-5.53-5.71-.76-10.93.31-15.65,3.21-4.55,2.8-7.93,6.74-10.13,11.83-.12.17-.19.36-.24.56-.02.05-.03.09-.06.14h0c-2.2,5.77-2.54,11.08-1,15.91,1.21,4.57,3.73,8.24,7.56,10.98,3.82,2.76,8.1,4.2,12.83,4.34,4.74.14,9.17-.98,13.32-3.35ZM149.77,358.66c-1.78-4.93-1.64-10.33.45-16.23.04-.09.08-.19.1-.29.02-.04.04-.09.06-.13,2.14-4.83,5-8.24,8.62-10.19,3.25-1.83,6.96-2.4,11.13-1.73,4.09.47,7.78,1.97,11.08,4.48,3.3,2.51,5.71,5.56,7.22,9.14,1.6,4.43,1.77,9.11.5,14.02-1.27,4.92-3.81,8.72-7.62,11.41-3.24,2.47-7,3.67-11.28,3.58-4.28-.09-8.22-1.22-11.84-3.4-4.02-2.67-6.82-6.23-8.42-10.66Z"/>
            <path class="cls-2" d="M244.08,509.34c-2.41-10.88-6.15-25.42-11.2-43.62-5.2-18.58-9.38-32.85-12.54-42.81-2.6-8.41-5.37-15.14-8.27-20.18-2.44-4.35-6.43-8.13-11.94-11.35-2.31-1.56-3.98-2.45-7.24-3.14-5.46-.64-12.32-.23-16.62,2.63-4.3,2.86-7.52,6.75-9.67,11.66-3.93,8.39-4.11,20.53-.54,36.43,2.38,9.59,6.76,23.79,13.12,42.6,4.76,14.38,9.78,28.57,15.05,42.54,3.53,9.17,6.37,16.09,8.49,20.76.14.38.5,1.24,1.08,2.55.58,1.31,1,2.19,1.28,2.64s.66,1.23,1.18,2.35c.51,1.12.99,1.97,1.43,2.58.43.6,1.01,1.32,1.75,2.14.74.82,1.42,1.5,2.05,2.03.62.54,1.34.99,2.12,1.35,3.67,1.72,9.16,1.26,16.47-1.38,6.67-2.63,11.4-6.4,14.19-11.33,2.96-5.64,4.24-11.44,3.83-17.38-.57-4.59-1.91-11.61-4.02-21.07ZM245.01,534.46c.15,5.83-1.5,11.2-4.93,16.15-1.56,2.31-4.04,4.18-7.44,5.63-3.2,1.38-5.93,2.25-8.18,2.64-3.03.66-5.72.44-8.08-.67-2.18-1.17-4.27-3.36-6.28-6.54-1.98-3.65-4.72-9.72-8.23-18.24-4.42-11.02-9.32-24.28-14.69-39.74-5.57-15.39-9.95-28.72-13.15-39.97-5.21-16.83-7.74-29.52-7.57-38.07.11-5.7,1.36-10.99,3.73-15.88,2.36-4.88,5.88-8.52,10.87-9.65,13.12-2.96,18.66,4.36,23.05,8.65,3.31,3.15,6.41,8.12,9.31,14.91,1.65,3.98,3.8,10.5,6.42,19.56,2.63,9.06,4.64,15.84,6.05,20.34,4.48,16.01,8.22,29.67,11.23,40.99,1.88,7.59,3.47,14.41,4.79,20.46,1.97,9.09,3.02,15.57,3.11,19.44Z"/>
            <path class="cls-3" d="M245.01,534.46c.15,5.83-1.5,11.2-4.93,16.15-1.56,2.31-4.04,4.18-7.44,5.63-3.2,1.38-5.93,2.25-8.18,2.64-3.03.66-5.72.44-8.08-.67-2.18-1.17-4.27-3.36-6.28-6.54-1.98-3.65-4.72-9.72-8.23-18.24-4.42-11.02-9.32-24.28-14.69-39.74-5.57-15.39-9.95-28.72-13.15-39.97-5.21-16.83-7.74-29.52-7.57-38.07.11-5.7,1.36-10.99,3.73-15.88,2.36-4.88,5.88-8.52,10.87-9.65,13.12-2.96,18.66,4.36,23.05,8.65,3.31,3.15,6.41,8.12,9.31,14.91,1.65,3.98,3.8,10.5,6.42,19.56,2.63,9.06,4.64,15.84,6.05,20.34,4.48,16.01,8.22,29.67,11.23,40.99,1.88,7.59,3.47,14.41,4.79,20.46,1.97,9.09,3.02,15.57,3.11,19.44Z"/>
          </g>
          <path class="cls-3" d="M188.93,357.72c-1.27,4.92-3.81,8.72-7.62,11.41-3.24,2.47-7,3.67-11.28,3.58-4.28-.09-8.22-1.22-11.84-3.4-4.02-2.67-6.82-6.23-8.42-10.66-1.78-4.93-1.64-10.33.45-16.23.04-.09.08-.19.1-.29.02-.04.04-.09.06-.13,2.14-4.83,5-8.24,8.62-10.19,3.25-1.83,6.96-2.4,11.13-1.73,4.09.47,7.78,1.97,11.08,4.48,3.3,2.51,5.71,5.56,7.22,9.14,1.6,4.43,1.77,9.11.5,14.02Z"/>
        </g>
        <g>
          <g>
            <path class="cls-2" d="M415.88,300.77c5.07-1.91,9.19-5.11,12.37-9.6,3.17-4.49,4.61-9.41,4.32-14.76-.37-4.5-2-8.58-4.91-12.24-2.92-3.65-6.46-6.16-10.64-7.52-5.49-1.75-10.82-1.62-15.97.41-4.97,1.95-9,5.24-12.05,9.87-.15.15-.25.32-.34.51-.03.04-.05.08-.08.13h0c-3.18,5.29-4.44,10.46-3.78,15.48.39,4.72,2.22,8.77,5.51,12.14,3.28,3.38,7.24,5.56,11.86,6.53,4.64.97,9.2.65,13.7-.95ZM388.18,282.79c-.89-5.17.21-10.46,3.3-15.9.06-.08.11-.17.15-.27.03-.04.06-.08.08-.12,2.96-4.38,6.38-7.23,10.28-8.51,3.52-1.23,7.28-1.14,11.26.25,3.94,1.19,7.31,3.31,10.12,6.36,2.81,3.05,4.65,6.48,5.5,10.27.8,4.64.14,9.28-1.98,13.89-2.12,4.62-5.29,7.92-9.51,9.89-3.63,1.86-7.53,2.38-11.73,1.54-4.2-.84-7.88-2.65-11.06-5.43-3.49-3.34-5.62-7.33-6.42-11.98Z"/>
            <path class="cls-2" d="M454.51,447.72c-.46-11.14-1.58-26.1-3.35-44.91-1.85-19.21-3.46-33.99-4.82-44.35-1.08-8.74-2.62-15.84-4.59-21.32-1.64-4.71-4.9-9.13-9.76-13.28-2-1.95-3.48-3.11-6.57-4.37-5.26-1.59-12.09-2.4-16.82-.34-4.74,2.06-8.59,5.32-11.57,9.77-5.34,7.56-7.66,19.49-6.94,35.77.66,9.86,2.46,24.61,5.42,44.25,2.16,15,4.6,29.84,7.33,44.53,1.87,9.65,3.43,16.96,4.71,21.93.07.4.27,1.31.62,2.7.34,1.39.6,2.34.79,2.82s.44,1.32.75,2.52c.31,1.19.63,2.12.95,2.79.31.67.77,1.47,1.35,2.42.58.94,1.13,1.73,1.66,2.36.52.64,1.14,1.21,1.85,1.71,3.31,2.34,8.79,2.86,16.46,1.54,7.03-1.42,12.35-4.3,15.96-8.66,3.91-5.03,6.19-10.51,6.83-16.44.25-4.62.17-11.76-.25-21.45ZM451,472.62c-.88,5.76-3.45,10.77-7.7,15.03-1.95,2-4.71,3.41-8.31,4.23-3.39.79-6.23,1.17-8.52,1.16-3.1.11-5.71-.58-7.83-2.08-1.94-1.54-3.61-4.06-5.03-7.55-1.3-3.94-2.93-10.4-4.9-19.41-2.41-11.63-4.9-25.54-7.47-41.71-2.78-16.14-4.74-30.03-5.91-41.67-2.17-17.48-2.42-30.42-.75-38.81,1.11-5.59,3.27-10.58,6.47-14.97,3.19-4.39,7.29-7.36,12.4-7.59,13.44-.6,17.61,7.57,21.17,12.57,2.7,3.69,4.88,9.12,6.54,16.32.93,4.21,1.89,11,2.88,20.38.99,9.38,1.78,16.41,2.38,21.09,1.59,16.55,2.87,30.66,3.84,42.33.51,7.81.88,14.8,1.12,20.99.35,9.29.23,15.85-.36,19.69Z"/>
            <path class="cls-3" d="M451,472.62c-.88,5.76-3.45,10.77-7.7,15.03-1.95,2-4.71,3.41-8.31,4.23-3.39.79-6.23,1.17-8.52,1.16-3.1.11-5.71-.58-7.83-2.08-1.94-1.54-3.61-4.06-5.03-7.55-1.3-3.94-2.93-10.4-4.9-19.41-2.41-11.63-4.9-25.54-7.47-41.71-2.78-16.14-4.74-30.03-5.91-41.67-2.17-17.48-2.42-30.42-.75-38.81,1.11-5.59,3.27-10.58,6.47-14.97,3.19-4.39,7.29-7.36,12.4-7.59,13.44-.6,17.61,7.57,21.17,12.57,2.7,3.69,4.88,9.12,6.54,16.32.93,4.21,1.89,11,2.88,20.38.99,9.38,1.78,16.41,2.38,21.09,1.59,16.55,2.87,30.66,3.84,42.33.51,7.81.88,14.8,1.12,20.99.35,9.29.23,15.85-.36,19.69Z"/>
          </g>
          <path class="cls-3" d="M426.9,288.75c-2.12,4.62-5.29,7.92-9.51,9.89-3.63,1.86-7.53,2.38-11.73,1.54-4.2-.84-7.88-2.65-11.06-5.43-3.49-3.34-5.62-7.33-6.42-11.98-.89-5.17.21-10.46,3.3-15.9.06-.08.11-.17.15-.27.03-.04.06-.08.08-.12,2.96-4.38,6.38-7.23,10.28-8.51,3.52-1.23,7.28-1.14,11.26.25,3.94,1.19,7.31,3.31,10.12,6.36,2.81,3.05,4.65,6.48,5.5,10.27.8,4.64.14,9.28-1.98,13.89Z"/>
        </g>
        <g>
          <g>
            <path class="cls-2" d="M651.14,258.2c5.23-1.42,9.63-4.21,13.23-8.38,3.59-4.17,5.48-8.93,5.7-14.29.06-4.52-1.18-8.73-3.73-12.65-2.56-3.91-5.85-6.74-9.88-8.49-5.3-2.26-10.62-2.64-15.94-1.11-5.13,1.47-9.45,4.37-12.93,8.68-.16.14-.28.3-.39.48-.03.04-.06.08-.09.12h0c-3.66,4.97-5.41,9.99-5.23,15.06-.06,4.73,1.38,8.94,4.33,12.61,2.94,3.68,6.68,6.22,11.19,7.63,4.52,1.41,9.1,1.52,13.73.35ZM625.28,237.67c-.4-5.23,1.2-10.39,4.79-15.52.06-.08.12-.16.18-.26.03-.03.07-.08.09-.11,3.36-4.08,7.03-6.59,11.04-7.5,3.62-.89,7.35-.45,11.18,1.32,3.81,1.55,6.97,3.99,9.47,7.29,2.51,3.3,4.01,6.89,4.5,10.74.35,4.7-.74,9.25-3.28,13.64-2.54,4.4-6.01,7.38-10.41,8.95-3.79,1.51-7.73,1.66-11.82.42-4.1-1.23-7.59-3.38-10.49-6.45-3.16-3.65-4.9-7.83-5.25-12.53Z"/>
            <path class="cls-2" d="M675.67,408.16c.6-11.13.9-26.14.92-45.03-.02-19.3-.22-34.16-.59-44.61-.25-8.8-1.11-16.02-2.55-21.66-1.19-4.84-4.01-9.56-8.46-14.14-1.81-2.13-3.17-3.43-6.13-4.97-5.09-2.08-11.81-3.53-16.71-1.93-4.92,1.6-9.05,4.48-12.44,8.63-6.03,7.02-9.47,18.67-10.3,34.95-.28,9.87.12,24.74,1.2,44.56.73,15.13,1.75,30.15,3.08,45.03.94,9.79,1.81,17.21,2.61,22.28.03.4.15,1.33.36,2.74.21,1.42.38,2.38.52,2.89s.31,1.36.51,2.58c.2,1.21.42,2.17.68,2.87.25.7.62,1.54,1.11,2.53.49.99.96,1.82,1.42,2.51.46.68,1.02,1.31,1.68,1.87,3.07,2.64,8.48,3.68,16.24,3.09,7.13-.74,12.7-3.11,16.71-7.11,4.37-4.64,7.16-9.88,8.36-15.71.69-4.57,1.28-11.69,1.78-21.38ZM669.81,432.61c-1.42,5.65-4.45,10.39-9.09,14.23-2.13,1.81-5.02,2.95-8.67,3.43-3.45.47-6.32.58-8.59.34-3.09-.18-5.63-1.11-7.6-2.81-1.78-1.72-3.21-4.38-4.3-7.99-.92-4.05-1.93-10.63-3.03-19.79-1.3-11.81-2.46-25.89-3.48-42.23-1.24-16.33-1.87-30.34-1.93-42.04-.5-17.61.47-30.52,2.93-38.7,1.64-5.46,4.26-10.22,7.86-14.29,3.59-4.07,7.95-6.63,13.06-6.38,13.44.68,16.81,9.21,19.88,14.52,2.34,3.93,4,9.54,4.96,16.86.53,4.28.84,11.13.93,20.56.1,9.44.21,16.51.37,21.22.02,16.63-.05,30.8-.19,42.51-.23,7.82-.53,14.82-.88,21-.54,9.28-1.27,15.81-2.22,19.56Z"/>
            <path class="cls-3" d="M669.81,432.61c-1.42,5.65-4.45,10.39-9.09,14.23-2.13,1.81-5.02,2.95-8.67,3.43-3.45.47-6.32.58-8.59.34-3.09-.18-5.63-1.11-7.6-2.81-1.78-1.72-3.21-4.38-4.3-7.99-.92-4.05-1.93-10.63-3.03-19.79-1.3-11.81-2.46-25.89-3.48-42.23-1.24-16.33-1.87-30.34-1.93-42.04-.5-17.61.47-30.52,2.93-38.7,1.64-5.46,4.26-10.22,7.86-14.29,3.59-4.07,7.95-6.63,13.06-6.38,13.44.68,16.81,9.21,19.88,14.52,2.34,3.93,4,9.54,4.96,16.86.53,4.28.84,11.13.93,20.56.1,9.44.21,16.51.37,21.22.02,16.63-.05,30.8-.19,42.51-.23,7.82-.53,14.82-.88,21-.54,9.28-1.27,15.81-2.22,19.56Z"/>
          </g>
          <path class="cls-3" d="M663.25,247.29c-2.54,4.4-6.01,7.38-10.41,8.95-3.79,1.51-7.73,1.66-11.82.42-4.1-1.23-7.59-3.38-10.49-6.45-3.16-3.65-4.9-7.83-5.25-12.53-.4-5.23,1.2-10.39,4.79-15.52.06-.08.12-.16.18-.26.03-.03.07-.08.09-.11,3.36-4.08,7.03-6.59,11.04-7.5,3.62-.89,7.35-.45,11.18,1.32,3.81,1.55,6.97,3.99,9.47,7.29,2.51,3.3,4.01,6.89,4.5,10.74.35,4.7-.74,9.25-3.28,13.64Z"/>
        </g>
        <g>
          <g>
            <path class="cls-2" d="M899.54,255.89c5.41-.31,10.3-2.12,14.68-5.46,4.37-3.34,7.22-7.6,8.54-12.79,1-4.41.66-8.78-1.02-13.15-1.69-4.35-4.32-7.81-7.9-10.36-4.72-3.32-9.84-4.78-15.36-4.39-5.33.38-10.15,2.31-14.45,5.81-.18.1-.34.23-.48.39-.04.03-.07.06-.11.1h0c-4.61,4.1-7.37,8.65-8.24,13.64-1.04,4.62-.5,9.03,1.62,13.24,2.11,4.21,5.24,7.47,9.37,9.78,4.13,2.32,8.58,3.38,13.36,3.19ZM878.49,230.44c.7-5.2,3.33-9.92,7.91-14.18.08-.06.15-.13.23-.21.04-.03.08-.06.11-.09,4.14-3.29,8.25-4.99,12.36-5.05,3.73-.12,7.29,1.09,10.67,3.61,3.4,2.31,5.99,5.35,7.75,9.1,1.77,3.75,2.49,7.57,2.18,11.44-.63,4.67-2.64,8.89-6.04,12.66-3.4,3.78-7.41,5.97-12.04,6.59-4.02.69-7.9.02-11.65-2.04-3.75-2.06-6.73-4.88-8.92-8.49-2.33-4.23-3.17-8.68-2.54-13.35Z"/>
            <path class="cls-2" d="M892.41,407.67c2.9-10.77,6.31-25.38,10.25-43.85,3.98-18.88,6.87-33.47,8.68-43.76,1.58-8.66,2.24-15.9,2-21.72-.15-4.98-1.94-10.18-5.34-15.59-1.33-2.46-2.39-4.01-4.96-6.14-4.55-3.09-10.82-5.91-15.95-5.36-5.14.55-9.79,2.51-13.96,5.86-7.36,5.62-13.14,16.3-17.33,32.05-2.32,9.6-5.02,24.22-8.07,43.84-2.43,14.96-4.54,29.85-6.33,44.69-1.11,9.77-1.8,17.21-2.07,22.34-.06.4-.13,1.33-.22,2.76-.09,1.43-.13,2.41-.09,2.93s.02,1.4-.04,2.63c-.06,1.23-.03,2.21.07,2.95.1.73.29,1.64.56,2.71.27,1.07.56,1.98.87,2.75.3.76.73,1.49,1.26,2.18,2.46,3.22,7.53,5.36,15.24,6.39,7.13.75,13.07-.41,17.82-3.49,5.24-3.63,9.05-8.18,11.44-13.64,1.62-4.33,3.68-11.17,6.18-20.54ZM881.61,430.37c-2.56,5.23-6.51,9.24-11.84,12.04-2.46,1.33-5.52,1.84-9.2,1.55-3.47-.26-6.3-.75-8.48-1.45-2.99-.82-5.27-2.26-6.85-4.33-1.39-2.05-2.23-4.95-2.54-8.71-.06-4.15.32-10.8,1.14-19.98,1.18-11.82,2.96-25.84,5.36-42.04,2.18-16.23,4.46-30.07,6.83-41.53,3.16-17.33,6.8-29.75,10.9-37.25,2.74-5,6.29-9.11,10.65-12.35,4.35-3.23,9.15-4.84,14.1-3.53,13,3.45,14.53,12.5,16.43,18.33,1.48,4.33,1.93,10.17,1.35,17.52-.37,4.29-1.49,11.06-3.36,20.31-1.86,9.25-3.22,16.19-4.04,20.83-3.43,16.27-6.43,30.12-9.01,41.54-1.85,7.6-3.59,14.39-5.22,20.36-2.45,8.97-4.53,15.2-6.23,18.68Z"/>
            <path class="cls-3" d="M881.61,430.37c-2.56,5.23-6.51,9.24-11.84,12.04-2.46,1.33-5.52,1.84-9.2,1.55-3.47-.26-6.3-.75-8.48-1.45-2.99-.82-5.27-2.26-6.85-4.33-1.39-2.05-2.23-4.95-2.54-8.71-.06-4.15.32-10.8,1.14-19.98,1.18-11.82,2.96-25.84,5.36-42.04,2.18-16.23,4.46-30.07,6.83-41.53,3.16-17.33,6.8-29.75,10.9-37.25,2.74-5,6.29-9.11,10.65-12.35,4.35-3.23,9.15-4.84,14.1-3.53,13,3.45,14.53,12.5,16.43,18.33,1.48,4.33,1.93,10.17,1.35,17.52-.37,4.29-1.49,11.06-3.36,20.31-1.86,9.25-3.22,16.19-4.04,20.83-3.43,16.27-6.43,30.12-9.01,41.54-1.85,7.6-3.59,14.39-5.22,20.36-2.45,8.97-4.53,15.2-6.23,18.68Z"/>
          </g>
          <path class="cls-3" d="M913.65,247.72c-3.4,3.78-7.41,5.97-12.04,6.59-4.02.69-7.9.02-11.65-2.04-3.75-2.06-6.73-4.88-8.92-8.49-2.33-4.23-3.17-8.68-2.54-13.35.7-5.2,3.33-9.92,7.91-14.18.08-.06.15-.13.23-.21.04-.03.08-.06.11-.09,4.14-3.29,8.25-4.99,12.36-5.05,3.73-.12,7.29,1.09,10.67,3.61,3.4,2.31,5.99,5.35,7.75,9.1,1.77,3.75,2.49,7.57,2.18,11.44-.63,4.67-2.64,8.89-6.04,12.66Z"/>
        </g>
        <g>
          <path class="cls-2" d="M329.45,372.26c-1.4-1.64-3.23-2.36-5.51-2.17-4.16.28-7.95,2.35-11.35,6.24-1.6,1.92-2.69,4.17-3.26,6.76-.57,2.6-.29,4.8.83,6.62,1.43,2.16,3.59,3.11,6.49,2.86,2.9-.25,5.24-1.04,6.99-2.37,5.02-2.63,7.55-6.59,7.61-11.91.2-2.38-.39-4.39-1.79-6.03ZM327.15,383.21c-.9,2.15-2.46,3.84-4.67,5.08-2.61,1.33-4.93,1.75-6.98,1.24-2.04-.51-2.98-2.37-2.79-5.61-.05-2.53.83-4.78,2.63-6.75,2.78-3.07,5.58-4.47,8.41-4.17,2.24.46,3.61,1.78,4.1,3.98s.25,4.28-.71,6.23ZM314.91,454.57c-.13-.93-.25-1.88-.38-2.86-.32-2.47-.63-5.11-.93-7.92.08-.45-.16-.59-.75-.44-.59.16-1.16.43-1.7.78-.54.35-.76.73-.65,1.12,0,.09.02.18.03.27,1.41,13.07,1.88,24.2,1.42,33.37.05,2.53-.25,6.95-.87,13.27-.73,9.1-2.15,15.63-4.26,19.59-1.01,1.75-1.93,3.07-2.75,3.93-.74.41-1.75.79-3.03,1.13-1.29.34-2.57.48-3.87.41-2.33,0-4.6-.57-6.81-1.67-4.25-1.61-8.01-4.94-11.28-9.99-2.97-4.71-5.51-10.6-7.63-17.66-2.21-6.61-3.91-14.1-5.11-22.48-2.16-15.1-2.98-31.1-2.44-47.99.1-7.45.58-14.15,1.41-20.1.83-5.94,1.76-10.54,2.8-13.79.23-.7.47-1.4.71-2.09l-1.05-.36c-.94.47-1.55.95-1.84,1.45-1.03,2.01-1.91,4.8-2.64,8.35-.1.49-.2,1.01-.3,1.53-.14.78-.28,1.61-.41,2.47-.79,5.73-1.36,12.24-1.72,19.55-.79,16.74-.22,33.02,1.71,48.82,1.11,8.82,2.72,16.76,4.84,23.82,2.03,7.51,4.57,13.82,7.64,18.93,3.13,5.3,6.9,9.05,11.3,11.26,5.41,2.78,10.76,2.92,16.03.45,5.12-2.23,8.56-7.19,10.3-14.86.69-2.94,1.4-8.97,2.12-18.07.86-10.2.89-20.27.11-30.24ZM389.79,470.46c-.91-4.95-2.13-9.12-3.69-12.51-1.56-3.4-3.81-7.45-6.78-12.16-6.2-10.52-15.73-23.7-28.57-39.53,3.91-3.82,7.27-7.22,10.07-10.18,2.98-3.13,5.98-6.91,9.03-11.34s5.14-9.07,6.27-13.94c1.12-4.85,1.22-9.81.28-14.86-.79-5.29-2.81-10.8-6.04-16.5-4-6.97-8.46-12.88-13.35-17.71-7.99-7.6-17.36-12.07-28.1-13.4-17.07-1.97-36.46,3.57-58.16,16.63-23.33,14.14-37.36,28.94-42.08,44.42-3.01,9.29-2.11,16.58,2.71,21.85,4.87,5.47,12.47,6.92,22.79,4.34,2.57-.69,5.29-1.63,8.14-2.83.25-.11.47-.2.68-.31.9-.44,1.39-.85,1.46-1.22.14-.25.1-.4-.12-.45-.23-.04-.54-.01-.93.09-.04.02-.07.03-.11.05-10.98,4.63-19.66,4.95-26.01.96-5.68-3.76-7.88-9.96-6.59-18.57,1.17-9.01,5.97-17.93,14.4-26.78,5.06-5.6,12.27-11.46,21.64-17.6,19.68-12.72,37.62-18.93,53.8-18.64,10.63.1,19.92,3.11,27.88,9.02,4.48,3.24,9.06,8.05,13.75,14.42,4.07,5.69,7.16,11.22,9.24,16.59,3.5,9.87,3.28,19.26-.67,28.17-2.95,7.15-8.71,14.86-17.3,23.11-1.45,1.66-3.32,3.44-5.56,5.31-.54.36-.68.61-.43.75,10.57,13.27,18.72,24.21,24.44,32.84,4.3,6.47,7.67,12.35,10.16,17.61,3.46,7.34,5.19,13.76,5.19,19.27-.02,7-1.96,12.4-5.81,16.19-3.66,3.74-9.44,3.92-17.35.54-9.81-4.14-19.5-11.39-29.07-21.74-7.81-8.49-16.53-20.77-26.15-36.83-.3-.34-.69-.4-1.16-.16-.47.23-.97.53-1.51.88-.54.36-.76.73-.65,1.13,1.7,2.84,3.38,5.55,5.01,8.14,1.36,2.14,2.7,4.2,4.01,6.18,5.67,8.55,10.93,15.54,15.76,20.97,9.88,10.7,20.02,18.45,30.44,23.28,6.75,3.05,12.59,3.49,17.53,1.32,5.46-2.54,9.15-6.93,11.07-13.17,1.22-4.14,1.36-8.68.46-13.64ZM316.64,392.57c2.9-.25,5.24-1.04,6.99-2.37,5.02-2.63,7.55-6.59,7.61-11.91.2-2.38-.39-4.39-1.79-6.03-1.4-1.64-3.23-2.36-5.51-2.17-4.16.28-7.95,2.35-11.35,6.24-1.6,1.92-2.69,4.17-3.26,6.76-.57,2.6-.29,4.8.83,6.62,1.43,2.16,3.59,3.11,6.49,2.86ZM323.76,373c2.24.46,3.61,1.78,4.1,3.98s.25,4.28-.71,6.23c-.9,2.15-2.46,3.84-4.67,5.08-2.61,1.33-4.93,1.75-6.98,1.24-2.04-.51-2.98-2.37-2.79-5.61-.05-2.53.83-4.78,2.63-6.75,2.78-3.07,5.58-4.47,8.41-4.17Z"/>
          <path class="cls-3" d="M387.2,477.37c0-5.52-1.74-11.94-5.19-19.27-2.48-5.26-5.86-11.14-10.16-17.61-5.72-8.64-13.86-19.58-24.44-32.84-.25-.14-.11-.39.43-.75,2.25-1.88,4.11-3.65,5.56-5.31,8.59-8.25,14.35-15.96,17.3-23.11,3.96-8.9,4.18-18.3.67-28.17-2.08-5.37-5.17-10.9-9.24-16.59-4.69-6.37-9.27-11.17-13.75-14.42-7.95-5.91-17.24-8.92-27.88-9.02-16.19-.29-34.12,5.92-53.8,18.64-9.37,6.14-16.58,12-21.64,17.6-8.43,8.85-13.23,17.78-14.4,26.78-1.28,8.61.92,14.81,6.59,18.57,6.36,3.99,15.03,3.67,26.01-.96.73-3.56,1.61-6.35,2.64-8.35.29-.5.9-.98,1.84-1.45l1.05.36c-.24.7-.48,1.4-.71,2.09-1.04,3.26-1.97,7.85-2.8,13.79-.83,5.95-1.31,12.66-1.41,20.1-.54,16.89.28,32.89,2.44,47.99,1.2,8.38,2.9,15.87,5.11,22.48,2.12,7.06,4.66,12.94,7.63,17.66,3.27,5.06,7.03,8.39,11.28,9.99,2.2,1.1,4.48,1.66,6.81,1.67,1.3.08,2.58-.06,3.87-.41,1.28-.35,2.29-.73,3.03-1.13.82-.86,1.74-2.17,2.75-3.93,2.11-3.96,3.53-10.49,4.26-19.59.62-6.32.92-10.74.87-13.27.47-9.17,0-20.3-1.42-33.37-1.64-2.59-3.31-5.3-5.01-8.14-.1-.4.11-.77.65-1.13.54-.35,1.04-.65,1.51-.88.47-.24.86-.18,1.16.16,9.63,16.06,18.34,28.34,26.15,36.83,9.57,10.35,19.26,17.59,29.07,21.74,7.91,3.38,13.69,3.2,17.35-.54,3.85-3.8,5.79-9.19,5.81-16.19ZM331.24,378.29c-.06,5.32-2.59,9.29-7.61,11.91-1.76,1.33-4.09,2.11-6.99,2.37-2.9.25-5.06-.7-6.49-2.86-1.12-1.82-1.4-4.02-.83-6.62.58-2.59,1.66-4.84,3.26-6.76,3.41-3.89,7.19-5.96,11.35-6.24,2.28-.19,4.12.53,5.51,2.17,1.4,1.64,2,3.65,1.79,6.03Z"/>
        </g>
        <g>
          <path class="cls-2" d="M540.72,320.2c-1.34-1.63-3.14-2.32-5.41-2.08-4.16.37-7.9,2.53-11.22,6.49-1.56,1.96-2.61,4.18-3.15,6.69-.54,2.51-.21,4.75,1.02,6.74s3.33,2.81,6.33,2.46c2.99-.34,5.26-1.17,6.79-2.47,5.15-2.79,7.72-6.75,7.71-11.87-.05-2.33-.74-4.31-2.07-5.95ZM538.81,331.16c-.85,2.17-2.37,3.9-4.56,5.18-2.58,1.39-4.89,1.86-6.95,1.4-2.23-1.05-3.26-2.94-3.1-5.65.17-2.71.93-5.02,2.29-6.91,2.71-3.14,5.47-4.59,8.32-4.37,2.24.41,3.64,1.71,4.18,3.89.53,2.2.48,4.34-.18,6.46ZM541.66,395.29c-.53-3.25-1.2-6.25-2.01-9.01-.08-.28-.21-.49-.41-.64-.21-.17-.49-.26-.83-.28-.64-.02-1.23.2-1.73.67-.12.11-.22.23-.3.35-.26.37-.33.79-.19,1.23,3.29,11.2,4.51,24.07,3.67,38.61-.37,8.22-1.5,14.52-3.41,18.92-2.78,7.22-6.59,11.33-11.42,12.32-4.77,1.19-9.22.58-13.34-1.84-3.87-2.28-7.33-6.05-10.38-11.35-5.5-9.27-9.62-22.56-12.36-39.89-2.39-14.66-3.48-30.01-3.29-46.07.11-6.86.5-13.16,1.16-18.9.66-5.74,1.47-10.25,2.43-13.52.14-.25.28-.5.42-.76.14-.25.25-.6.33-1.05.41-.76.2-1.13-.64-1.1-1.15-.29-2.01.06-2.56,1.07-.88,2.08-1.66,4.98-2.32,8.69-.14.76-.27,1.55-.4,2.38-.06.32-.1.64-.15.98-.77,5.35-1.29,11.58-1.54,18.69-.33,16.32.6,32.15,2.76,47.52,2.53,18.03,6.56,32.1,12.09,42.21,3.16,5.68,6.77,9.95,10.81,12.83,4.29,3,9.11,4.15,14.45,3.43,5.72-.83,10.23-3.64,13.52-8.45,3.28-4.81,5.35-10.43,6.24-16.88.92-5.6,1.34-12.13,1.29-19.58-.25-7.39-.88-14.24-1.89-20.57ZM602.59,315.67c-.72-6.83-2.51-13.8-5.35-20.89-6.38-15.19-15.91-26.9-28.56-35.13-11.02-7-22.99-9.99-35.92-8.97-10.46.73-21.49,4.19-33.12,10.38-8.12,4.3-16.65,10.12-25.6,17.44-11.54,9.37-19.33,19.13-23.39,29.28-3.94,10.54-3.63,18.88.95,25,4.89,6.46,12.79,8.3,23.7,5.51,2.89-.85,5.81-1.91,8.78-3.19.06-.02.12-.06.18-.08,1.31-.6,1.89-1.19,1.71-1.78-.15-.54-.65-.72-1.5-.52-.07.02-.15.04-.23.06-11.72,5.16-20.6,5.41-26.65.79-5.68-4.09-7.48-10.92-5.38-20.5,2.12-10.22,8.32-19.94,18.63-29.15,7.04-6.55,14.82-12.36,23.36-17.43,10.33-6.23,20.23-10.31,29.69-12.24,12.07-2.48,23.37-1.43,33.9,3.16,12.29,5.56,22.29,14.52,29.97,26.87,7.69,12.36,11.64,25.44,11.86,39.24.11,7.65-1.07,14.5-3.56,20.57-2.76,6.57-7.42,12.52-13.96,17.86-5.2,4.08-11.89,8.19-20.07,12.29-9.69,4.77-17.93,7.94-24.72,9.51-4.38,1.07-8.55,1.77-12.52,2.08-1.1-.1-1.89.29-2.37,1.18-.49.89-.21,1.29.83,1.19,4.13-.11,8.51-.72,13.14-1.84.94-.22,1.89-.47,2.86-.74,3.52-.97,7.17-2.22,10.96-3.74,8.74-3.64,16.46-7.5,23.15-11.6,7.81-4.64,14.11-9.69,18.9-15.16,4.87-5.91,8.03-12.6,9.46-20.07.12-.6.23-1.19.33-1.8.99-5.77,1.17-11.63.53-17.6ZM528.28,340.5c2.99-.34,5.26-1.17,6.79-2.47,5.15-2.79,7.72-6.75,7.71-11.87-.05-2.33-.74-4.31-2.07-5.95-1.34-1.63-3.14-2.32-5.41-2.08-4.16.37-7.9,2.53-11.22,6.49-1.56,1.96-2.61,4.18-3.15,6.69-.54,2.51-.21,4.75,1.02,6.74s3.33,2.81,6.33,2.46ZM534.82,320.81c2.24.41,3.64,1.71,4.18,3.89.53,2.2.48,4.34-.18,6.46-.85,2.17-2.37,3.9-4.56,5.18-2.58,1.39-4.89,1.86-6.95,1.4-2.23-1.05-3.26-2.94-3.1-5.65.17-2.71.93-5.02,2.29-6.91,2.71-3.14,5.47-4.59,8.32-4.37Z"/>
          <path class="cls-3" d="M587.76,284.29c-7.69-12.35-17.68-21.31-29.97-26.87-10.53-4.59-21.82-5.64-33.9-3.16-9.46,1.93-19.36,6.01-29.69,12.24-8.54,5.08-16.32,10.88-23.36,17.43-10.3,9.21-16.51,18.93-18.63,29.15-2.1,9.58-.3,16.41,5.38,20.5,6.05,4.62,14.93,4.37,26.65-.79.08-.02.16-.05.23-.06.66-3.71,1.43-6.6,2.32-8.69.55-1.01,1.41-1.37,2.56-1.07.84-.03,1.06.33.64,1.1-.08.45-.19.8-.33,1.05-.14.26-.29.52-.42.76-.95,3.27-1.77,7.77-2.43,13.52-.66,5.74-1.05,12.05-1.16,18.9-.19,16.06.91,31.41,3.29,46.07,2.74,17.33,6.87,30.62,12.36,39.89,3.05,5.29,6.51,9.07,10.38,11.35,4.12,2.42,8.57,3.03,13.34,1.84,4.83-.99,8.63-5.09,11.42-12.32,1.91-4.4,3.04-10.7,3.41-18.92.84-14.54-.37-27.41-3.67-38.61-.14-.45-.07-.86.19-1.23-4.63,1.11-9.01,1.73-13.14,1.84-1.04.1-1.31-.3-.83-1.19.49-.88,1.27-1.28,2.37-1.18,3.96-.31,8.13-1,12.52-2.08,6.79-1.57,15.03-4.73,24.72-9.51,8.18-4.11,14.87-8.21,20.07-12.29,6.54-5.34,11.19-11.29,13.96-17.86,2.48-6.06,3.67-12.92,3.56-20.57-.21-13.8-4.17-26.89-11.86-39.24ZM535.07,338.02c-1.54,1.3-3.8,2.13-6.79,2.47-2.99.35-5.1-.47-6.33-2.46s-1.56-4.23-1.02-6.74c.54-2.51,1.59-4.73,3.15-6.69,3.32-3.96,7.06-6.12,11.22-6.49,2.27-.24,4.07.45,5.41,2.08,1.33,1.64,2.02,3.62,2.07,5.95,0,5.12-2.56,9.08-7.71,11.87Z"/>
        </g>
        <g>
          <path class="cls-2" d="M785.18,297.37c-.96-1.93-2.56-3.08-4.82-3.45-4.11-.75-8.29.35-12.54,3.28-2.02,1.47-3.63,3.39-4.82,5.76-1.19,2.37-1.46,4.58-.81,6.62.85,2.44,2.72,3.9,5.6,4.36,2.87.46,5.33.27,7.36-.59,5.51-1.32,8.93-4.55,10.28-9.69.78-2.26.7-4.36-.26-6.29ZM780.28,307.42c-1.41,1.87-3.33,3.13-5.78,3.79-2.85.66-5.21.49-7.07-.5-1.85-.99-2.3-3.03-1.32-6.12.57-2.47,1.97-4.43,4.2-5.91,3.44-2.3,6.5-2.97,9.18-2,2.06.99,3.06,2.61,3,4.87-.07,2.25-.8,4.21-2.2,5.87ZM821.32,319.33c4.03-3.55,7.19-7.54,9.47-11.98,2.28-4.43,3.58-9.21,3.9-14.34.53-5.33-.09-11.15-1.82-17.47-2.18-7.74-5.06-14.55-8.63-20.43-5.89-9.31-13.89-15.94-23.98-19.87-7.41-2.8-15.69-4.17-24.82-4.12-2.44.02-4.94.13-7.5.35-8.62.73-17.94,2.62-27.96,5.65-.06.01-.11.03-.17.05-2.68.82-5.25,1.67-7.74,2.56-21.77,7.72-36.41,17.8-43.91,30.24-5.19,8.28-6.09,15.57-2.71,21.85,3.38,6.5,10.4,9.76,21.04,9.79,2.65-.04,5.52-.29,8.59-.76.27-.04.51-.09.74-.14.97-.21,1.54-.48,1.7-.82.2-.2.2-.36,0-.46-.21-.1-.52-.14-.92-.14-.04,0-.09.02-.13.02-11.78,1.8-20.26,0-25.45-5.43-4.59-5.04-5.22-11.58-1.86-19.62,3.33-8.45,10.17-15.94,20.51-22.46,6.27-4.19,14.7-8.13,25.28-11.79.14-.05.29-.1.43-.14,3.61-1.22,7.13-2.27,10.57-3.17,5.46-1.44,10.71-2.48,15.73-3.12,3.41-.45,6.73-.7,9.94-.76,7.2-.17,13.88.59,20.06,2.26,10.28,2.69,18.56,7.88,24.83,15.55,3.55,4.23,6.82,10.02,9.81,17.34,2.56,6.51,4.2,12.63,4.91,18.34.99,10.42-1.51,19.47-7.53,27.15-4.61,6.22-12.08,12.28-22.42,18.19-1.82,1.26-4.06,2.52-6.7,3.79-.61.21-.81.43-.6.62,7.02,15.44,12.24,28.05,15.68,37.82,2.58,7.32,4.42,13.85,5.55,19.56,1.56,7.95,1.67,14.6.33,19.96-1.73,6.78-4.93,11.54-9.59,14.28-4.46,2.73-10.1,1.5-16.95-3.7-8.51-6.42-16.13-15.8-22.89-28.18-5.5-10.14-10.95-24.17-16.37-42.1-.21-.41-.57-.56-1.08-.45s-1.07.27-1.68.49c-.62.21-.91.53-.9.93.96,3.16,1.92,6.19,2.87,9.1.79,2.41,1.59,4.74,2.37,6.97,3.41,9.68,6.8,17.75,10.16,24.2,6.96,12.77,14.92,22.78,23.84,29.99,5.8,4.61,11.36,6.46,16.67,5.56,5.92-1.13,10.57-4.47,13.96-10.06,2.19-3.72,3.44-8.09,3.77-13.11.33-5.03.16-9.37-.53-13.04-.67-3.68-1.87-8.15-3.6-13.45-3.45-11.72-9.47-26.82-18.05-45.3,4.72-2.76,8.81-5.24,12.25-7.43,3.65-2.31,7.49-5.24,11.52-8.79ZM767.8,313.93c2.87.46,5.33.27,7.36-.59,5.51-1.32,8.93-4.55,10.28-9.69.78-2.26.7-4.36-.26-6.29-.96-1.93-2.56-3.08-4.82-3.45-4.11-.75-8.29.35-12.54,3.28-2.02,1.47-3.63,3.39-4.82,5.76-1.19,2.37-1.46,4.58-.81,6.62.85,2.44,2.72,3.9,5.6,4.36ZM766.11,304.6c.57-2.47,1.97-4.43,4.2-5.91,3.44-2.3,6.5-2.97,9.18-2,2.06.99,3.06,2.61,3,4.87-.07,2.25-.8,4.21-2.2,5.87-1.41,1.87-3.33,3.13-5.78,3.79-2.85.66-5.21.49-7.07-.5-1.85-.99-2.3-3.03-1.32-6.12ZM751.72,362.26c-.62,0-1.23.13-1.84.34-.62.21-.91.53-.9.93-.01.08-.02.17-.04.24-1.82,13.03-4.09,23.94-6.78,32.73-.58,2.47-1.94,6.68-4.09,12.66-2.92,8.64-5.9,14.63-8.91,17.96-1.42,1.45-2.63,2.5-3.63,3.13-.82.21-1.9.34-3.22.37-1.33.02-2.61-.17-3.84-.55-2.27-.58-4.33-1.67-6.2-3.27-3.73-2.6-6.57-6.76-8.5-12.45-1.73-5.29-2.76-11.63-3.09-18.99-.53-6.95-.35-14.63.53-23.04,1.59-15.17,4.7-30.89,9.34-47.14,1.93-7.2,4.02-13.58,6.28-19.14,2.26-5.57,4.29-9.8,6.09-12.69.39-.62.79-1.25,1.19-1.86l-.93-.6c-1.02.22-1.73.54-2.13.96-1.49,1.7-3.03,4.19-4.61,7.47-.21.45-.43.92-.65,1.39-.34.73-.67,1.5-1.01,2.3-2.17,5.36-4.32,11.54-6.45,18.53-4.85,16.05-8.27,31.97-10.25,47.77-1.08,8.82-1.46,16.92-1.13,24.28.13,7.78,1.05,14.52,2.8,20.22,1.73,5.91,4.47,10.47,8.21,13.68,4.57,4.02,9.72,5.47,15.43,4.35,5.52-.91,10.05-4.88,13.62-11.89,1.39-2.69,3.55-8.35,6.47-17,3.32-9.68,5.82-19.44,7.5-29.3.1-.93.21-1.89.33-2.88.29-2.47.64-5.11,1.03-7.89.19-.41-.01-.62-.62-.6ZM785.18,297.37c-.96-1.93-2.56-3.08-4.82-3.45-4.11-.75-8.29.35-12.54,3.28-2.02,1.47-3.63,3.39-4.82,5.76-1.19,2.37-1.46,4.58-.81,6.62.85,2.44,2.72,3.9,5.6,4.36,2.87.46,5.33.27,7.36-.59,5.51-1.32,8.93-4.55,10.28-9.69.78-2.26.7-4.36-.26-6.29ZM780.28,307.42c-1.41,1.87-3.33,3.13-5.78,3.79-2.85.66-5.21.49-7.07-.5-1.85-.99-2.3-3.03-1.32-6.12.57-2.47,1.97-4.43,4.2-5.91,3.44-2.3,6.5-2.97,9.18-2,2.06.99,3.06,2.61,3,4.87-.07,2.25-.8,4.21-2.2,5.87Z"/>
          <path class="cls-3" d="M809.65,373.88c-3.44-9.77-8.67-22.38-15.68-37.82-.21-.19,0-.41.6-.62,2.64-1.27,4.87-2.53,6.7-3.79,10.34-5.91,17.81-11.97,22.42-18.19,6.02-7.68,8.52-16.73,7.53-27.15-.71-5.72-2.35-11.83-4.91-18.34-2.99-7.32-6.26-13.1-9.81-17.34-6.27-7.67-14.55-12.86-24.83-15.55-6.18-1.67-12.86-2.43-20.06-2.26-3.21.06-6.53.32-9.94.76-5.02.64-10.27,1.68-15.73,3.12-3.43.9-6.96,1.95-10.57,3.17-.14.05-.29.1-.43.14-10.58,3.66-19.01,7.59-25.28,11.79-10.34,6.52-17.17,14-20.51,22.46-3.35,8.04-2.73,14.58,1.86,19.62,5.19,5.42,13.67,7.23,25.45,5.43,1.58-3.28,3.12-5.77,4.61-7.47.4-.42,1.11-.73,2.13-.96l.93.6c-.4.61-.8,1.24-1.19,1.86-1.8,2.9-3.82,7.13-6.09,12.69-2.26,5.57-4.35,11.95-6.28,19.14-4.64,16.25-7.75,31.96-9.34,47.14-.89,8.41-1.07,16.09-.53,23.04.32,7.36,1.35,13.69,3.09,18.99,1.93,5.69,4.77,9.85,8.5,12.45,1.87,1.6,3.93,2.69,6.2,3.27,1.23.39,2.51.57,3.84.55,1.33-.02,2.41-.15,3.22-.37,1.01-.63,2.22-1.68,3.63-3.13,3.01-3.33,5.99-9.32,8.91-17.96,2.15-5.98,3.51-10.19,4.09-12.66,2.7-8.79,4.96-19.69,6.78-32.73-.96-2.91-1.91-5.95-2.87-9.1,0-.41.29-.72.9-.93.61-.22,1.16-.38,1.68-.49s.88.04,1.08.45c5.42,17.93,10.87,31.96,16.37,42.1,6.76,12.38,14.38,21.76,22.89,28.18,6.84,5.21,12.49,6.44,16.95,3.7,4.66-2.74,7.86-7.5,9.59-14.28,1.34-5.35,1.23-12-.33-19.96-1.13-5.71-2.97-12.23-5.55-19.56ZM785.44,303.65c-1.35,5.14-4.77,8.38-10.28,9.69-2.03.86-4.49,1.05-7.36.59-2.88-.46-4.75-1.92-5.6-4.36-.65-2.04-.38-4.24.81-6.62,1.19-2.37,2.79-4.3,4.82-5.76,4.25-2.93,8.43-4.03,12.54-3.28,2.25.37,3.86,1.52,4.82,3.45.96,1.93,1.04,4.03.26,6.29Z"/>
        </g>
      </g>
    </g>
  </g>
</svg>