<?xml version="1.0" encoding="UTF-8"?>
<svg id="Layer_2" xmlns="http://www.w3.org/2000/svg" version="1.1" viewBox="0 0 1500 1500">
  <!-- Generator: Adobe Illustrator 29.8.5, SVG Export Plug-In . SVG Version: 2.1.1 Build 2)  -->
  <defs>
    <style>
      .st0 {
        fill: #ff5224;
      }

      .st1 {
        fill: #25211e;
      }
    </style>
  </defs>
  <g id="a">
    <g>
      <path class="st1" d="M1043.8,876c2.5-.8,4.7,0,5.5,2.7,2,6.4.6,23.1,2.4,31.4,4.5,21.8,19.4,35.5,18.2,61.2-1.5,33.3-40.3,41.5-48.8,8.2-5.5-21.5,3-59.1,10.8-79.9,1.3-3.5,9.9-22.9,11.9-23.5h0ZM1040.3,924.8c-4.3-.1-6.5,39.9-5.9,44.7,2.6,21.2,21,20.8,20.3-3.3-.1-4.9-11.9-41.3-14.4-41.4h0Z"/>
      <path class="st1" d="M649.7,351.4c-3.5,3.5-11.6-10.2-13.2-13-8.9-15.9-10-27.2,0-43.2,7.6-12.3,20-13.6,16.5-32.2-1.1-5.8-13-24.8,6-9.3,12.2,10,13.6,25.2,7.5,39.4-4.3,9.9-15.3,17-17.6,27.9-1.7,7.9,2,29.4.9,30.4h0Z"/>
      <path class="st1" d="M1118.8,860.7c.2.5-.1,1.1,0,1.7.3,1.6.3,6.9,0,8.4l-1.7,1.7c-2.1,5-2.8,7.9-9.2,8.6-16.4,1.7-20.3-5.6-14.7-19.9,5.1-13,22.6-9.5,25.7-.5h0ZM1095.1,865.8c-5.4,5.9,12,10.3,13.5,2.5,1.2-6.4-12.8-3.3-13.5-2.5Z"/>
      <path class="st0" d="M968.1,1189.9c3.7-.9,12.2-1.4,14.8,1.3,2.7,2.6,3,19.1.9,21.2-4.3,4.3-18.4,3.3-21.2-2.6s-2.5-18,5.4-19.9h0Z"/>
      <path class="st1" d="M953.4,1157.5c-4.1.6-11.8-2.9-14.4,1.7-7.2,12.7,10.3,2.4,16,3.4.2,1,2.7,2.2,1.6,5.6-1.8,5.2-23.7,9.1-26.9,3.3-8.2-15,14.5-32.7,22.8-18.9,1.1,1.8.4,4,.9,5h0Z"/>
      <path class="st1" d="M1274,948.4c-4.9,11.1.3,26.1,11.8,14.3.8-1.9-12.3-11.3,1.7-9.2,6.5,3.1,8.2,5.7,6,13.5-2.8,9.9-10.8,10.6-19.5,7.5-15.9-5.7-9.6-26.3,0-26.1h0Z"/>
      <path class="st1" d="M999.4,1064.3c-6.8-7.2,1.3-21.6,14.1-18.5,21.9,5.4-1,32.3-14.1,18.5Z"/>
      <path class="st1" d="M1265.3,1076.8c2.2,3.4-1.1,15.4-4.8,17.5-11.8,6.5-20.4-8.5-16.6-19.1,3.1-3.7,20.3,0,21.5,1.7h0Z"/>
      <path class="st0" d="M475.5,581.1c1.3,2.3.4,14.6-1.7,16.2-6.9,4.9-19.8,1.5-20-8.9-.3-12.8,18.1-13.6,21.7-7.3h0Z"/>
      <path class="st0" d="M1114.8,898.3c14-.7,15.5,19.9,1.2,20.9-16.3,1.1-14.1-20.2-1.2-20.9Z"/>
      <path class="st1" d="M518,579c-4.7,2.2-11.9-6.7-12.7-6.7-5.2-.2.5,12.9.8,15.1-7.1.6-12.9-6.9-11.5-13.9,2-10.3,7.9-10,17-7.6,7.5,2,8.6,6.7,6.3,13.1h0Z"/>
      <path class="st0" d="M1249,911.6c12-7.4,27.1,21.5,2.2,18.3-10.4-1.3-4.7-16.8-2.2-18.3Z"/>
      <path class="st0" d="M1305.8,927.9c-1,.6-13.7.6-14.7,0-3.5-2.2-1.3-15.7,9-15.1,9.6.6,8.9,13,5.7,15.1h0Z"/>
      <ellipse class="st1" cx="493.7" cy="617.4" rx="8.1" ry="8.1"/>
      <path class="st1" d="M929.5,1211.2c-3.3,5.2-18.4,2.5-16-6.6,3.6-13.7,21-1.3,16,6.6Z"/>
      <path class="st0" d="M1287.5,953.4c-14-2.1-.9,7.3-1.7,9.2-11.5,11.8-16.7-3.3-11.8-14.3,1.5,0,11.3,4,13.5,5.1Z"/>
      <path class="st0" d="M518,579c-2.7,7.6-4.1,7.8-11.8,8.4-.3-2.2-6.1-15.3-.8-15.1.7,0,7.9,8.9,12.7,6.7Z"/>
      <path class="st0" d="M953.4,1157.5c.9,2.2,1.2,2.6,1.7,5.1-5.7-1-23.3,9.3-16-3.4,2.6-4.5,10.3-1.1,14.4-1.7Z"/>
      <path class="st0" d="M1118.8,860.7c7.7.2,13.3-2,18.6,4.2-7,9.7-10-3.1-18.6-2.5-.1-.6.2-1.2,0-1.7h0Z"/>
      <path class="st0" d="M1117.1,872.5l1.7-1.7c-.3,1.3-1.6,1.6-1.7,1.7Z"/>
      <path class="st0" d="M1169.4,960.2c1.8,4.5-3,22.5,0,24.5,5.7,3.9,20.2-11,22.8-16,8.3,4.9,13,8.3,9.3,18.4,4.4,1.4,4.6-4.8,5.1-5,1.9-1.1,11.6,11.8-1.7,7.6,2.5,1.7,3.7,6.2,5.9,7.6,1,.6.5-6.6,3.4-1.7,3.4,5.8,2.5,13.8,2.5,20.2-.5.6-4.3-2.4-5-1.7-3.2,3,3.6,2.7,3.5,5.8,0,3.4-2.3,8.6-3.5,11.9-5.5,14.8-26.6,61.6-40.5,67.4-1.5.6-3.8-1.1-4.8-.5-1.2.8-1,5.5-4.5,4.8-2.3-.5-2.4-2.8-1.7-5.1,1.7-5.5,14-7-2.5-11.8l1.7,5-8.4,3.4,8.4-.8c-1,2.9-5.2,9.4-5,11.8.1,2.2,5.7-.9,5.1,2.5-7.1,3-15.3,7.1-21.8,11.1-28,17.5-32.7,29.9-70.2,31.2-9.9.3-6.2-2.4-9.7-4-9-4.2-5.1,1.7-6.7,3.5-3.4,4-37,2.7-41.9-2.1-11.4-10.9,28.5-20.3,34.4-23.1,20.6-9.7,22.1-22.1,34.9-37.7,11.3-13.8,28-22.5,33.2-41,3.2-11.5,3.6-25.3,6.4-37.5,2.8-12.2,6.9-28.1,16-36.3,10.1-9.2,21.6-14,35.5-12.6h0ZM1144.8,998.3c-1.9-2.6-3.7-6.7-5.9-8.5-6.3-5.3-11.9-2.5-9.3,5.9,1.1,3.6,19.9,23.3,22.9,20.1.9-7.7-4-12.5-7.7-17.5ZM1164.4,1020.8c2.1,3,21.7-2.2,25.7-3.6,17.5-6.4,14.5-17-4.8-11.5-2.2.6-18.5,7-19.3,7.6-2.2,1.9-2,4.9-1.5,7.5h0ZM1140.8,1016.7c0-4.2-3.4-7.6-7.6-7.6s-7.6,3.4-7.6,7.6,3.4,7.6,7.6,7.6,7.6-3.4,7.6-7.6ZM1186.4,1030c0-3.9-3.2-7.1-7.1-7.1s-7.1,3.2-7.1,7.1,3.2,7.1,7.1,7.1,7.1-3.2,7.1-7.1ZM1204.8,1032.7l-4.2-5c-3.7-.8-2.5,1.7-2.5,5h6.7,0ZM1170.7,1066.1c1.5-2.7.4-11.2-.9-14.4-7.4-18.5-54.7-19-49.1,0,2.6,8.6,13.7,2.5,19.1,2.7,9.5.5,8.3,11.9,13.3,15.5,4,2.8,9.7.7,10.9,1.7.5.4,1.3,10,6.1,11.6,2-4.8,3.9-5.7,9.3-5.1,2.3-2-7.3-9-10.9-8.5-1.8.2.3,4.2-2.6,3.5-1.9-5.7,3.9-5.7,4.7-7.1h0ZM1149.1,1091.7c-2-1.9-5.4.7-.8,3.4,1.5.2,1-3.2.8-3.4ZM1132.2,1106.9c-1.1-1.1-9.4,0-8.4,4.2,1.5,6.5,12.3-.3,8.4-4.2ZM1088.4,1132.2h-3.4v5h3.4v-5ZM1100.2,1142.3c1.8-1.6-3.4-6.8-5-5-2.5,2.8,2.2,7.6,5,5Z"/>
      <path class="st0" d="M1040.3,924.8c2.5,0,14.3,36.5,14.4,41.4.6,24.2-17.8,24.6-20.3,3.3-.6-4.8,1.7-44.8,5.9-44.7h0Z"/>
      <path class="st0" d="M1095.1,865.8c.7-.8,14.7-3.9,13.5,2.5-1.5,7.8-18.8,3.5-13.5-2.5Z"/>
      <path class="st1" d="M1170.7,1066.1c-.8,1.3-6.5,1.3-4.7,7.1,2.9.8.8-3.2,2.6-3.5,3.6-.5,13.3,6.5,10.9,8.5-5.4-.6-7.2.3-9.3,5.1-4.7-1.7-5.6-11.2-6.1-11.6-1.2-1-7,1.1-10.9-1.7-5-3.6-3.8-15-13.3-15.5-5.4-.3-16.6,5.9-19.1-2.7-5.7-19.1,41.6-18.6,49.1,0,1.3,3.2,2.4,11.7.9,14.4h0Z"/>
      <path class="st1" d="M1164.4,1020.8c-.5-2.6-.7-5.6,1.5-7.5.8-.7,17.1-7,19.3-7.6,19.3-5.5,22.3,5.1,4.8,11.5-4,1.4-23.5,6.7-25.7,3.6h0Z"/>
      <path class="st1" d="M1144.8,998.3c3.8,5,8.7,9.9,7.7,17.5-3,3.1-21.7-16.5-22.9-20.1-2.7-8.4,3-11.2,9.3-5.9,2.2,1.8,3.9,5.9,5.9,8.5Z"/>
      <circle class="st1" cx="1133.2" cy="1016.7" r="7.6"/>
      <ellipse class="st1" cx="1179.3" cy="1030" rx="7.1" ry="7.1"/>
      <path class="st1" d="M1132.2,1106.9c3.9,3.9-7,10.6-8.4,4.2-.9-4.1,7.3-5.3,8.4-4.2Z"/>
      <path class="st1" d="M1204.8,1032.7h-6.7c0-3.3-1.1-5.9,2.5-5l4.2,5h0Z"/>
      <path class="st1" d="M1100.2,1142.3c-2.9,2.5-7.6-2.2-5-5,1.6-1.8,6.8,3.5,5,5Z"/>
      <rect class="st1" x="1085" y="1132.2" width="3.4" height="5"/>
      <path class="st1" d="M1149.1,1091.7c.1.1.6,3.6-.8,3.4-4.6-2.6-1.1-5.3.8-3.4Z"/>
      <path class="st1" d="M1186.3,934.9c1.3-.8,5.2-13,5.1-15.9-.1-7.4-10.2-23.4-8.3-26.1,1.4-2,19.5-6.8,23.5-4.4,4.8,2.9,5.5,24.7,5.1,30.4-.4,7.3-6.2,21.1-5.2,25,.2,1,6.3,3.3,8.6,5.3,2.4,2.1,18.2,19,18.5,20.3,1,4.6-7.3,4.6-10.1,4.2,17.5,29.2,5.9,57.1-7,84.9-20.1,43.3-28.5,47.1-67.1,71.2-12.3,7.7-24,20.8-35.8,26.7-17.7,8.9-71.4,13.1-91.6,11-14.8-1.5-36.4-9.5-30.6-28.5,6.3-20.9,42.6-21.9,55.8-33.6,6-5.3,14.4-21.7,21.1-29.5,9-10.5,23.3-19.5,27.8-32.9,8.3-24.7,5.4-53.1,23.6-76,4.7-5.9,23.5-17.5,24.3-18.8,1.2-2-2.8-9.8-1.5-13.2,6.8-1.4,40.8,1.9,43.9,0h0ZM1169.4,960.2c-13.9-1.4-25.4,3.4-35.5,12.6-9.1,8.2-13.2,24.1-16,36.3-2.8,12.2-3.2,25.9-6.4,37.5-5.2,18.5-21.9,27.2-33.2,41-12.8,15.6-14.2,28-34.9,37.7-5.9,2.8-45.8,12.2-34.4,23.1,5,4.8,38.5,6,41.9,2.1,1.6-1.8-2.3-7.7,6.7-3.5,3.5,1.6-.3,4.3,9.7,4,37.5-1.2,42.1-13.7,70.2-31.2,6.5-4.1,14.7-8.1,21.8-11.1.6-3.5-5-.3-5.1-2.5-.1-2.4,4-8.9,5-11.8l-8.4.8,8.4-3.4-1.7-5c16.5,4.8,4.2,6.3,2.5,11.8-.7,2.3-.6,4.6,1.7,5.1,3.5.7,3.3-4,4.5-4.8,1-.6,3.2,1.1,4.8.5,13.9-5.7,35-52.6,40.5-67.4,1.3-3.4,3.4-8.5,3.5-11.9,0-3.1-6.7-2.8-3.5-5.8.8-.7,4.6,2.3,5,1.7,0-6.5.9-14.4-2.5-20.2-2.9-4.9-2.4,2.3-3.4,1.7-2.2-1.4-3.4-5.9-5.9-7.6,13.3,4.3,3.5-8.7,1.7-7.6-.5.3-.7,6.5-5.1,5,3.7-10.1-1.1-13.6-9.3-18.4-2.6,5-17.1,19.9-22.8,16-2.9-2,1.8-20,0-24.5h0Z"/>
      <g>
        <path class="st1" d="M322.1,326.3c.9,12.1-10.4,26.2,5.8,33.1l33.3-4.7c.7,2.3-2.7,9-1.7,10.1.6.7,12.3,3.6,16.6,6.1,25.6,15.2,23.9,39.8,35.9,62,6.8,12.5,19.4,16,29.3,24.7,6.8,6,11.4,15.2,18.9,19.9,10.4,6.6,24.7,5.6,36.5,10.8,23.3,10.2,19.1,29.3-3.5,36.3-10.8,3.3-58.7,5.2-70,3.4-11.7-1.8-27.4-13.2-38.9-18.5-14.3-6.6-25.5-7.4-39.1-18.3-11.2-9-41.3-48.1-45.1-61.1-3.1-10.5-1.3-24.3.4-34.9h-6.8c-.7-.6,7.5-15.9,8.4-17.3,1.5-2.3,7.5-5,8.1-9.2.3-2.3-6-13-7.3-17.4-5.3-19.1-5.5-33.3,19.2-25.1h0ZM375.2,388c-2.9-2.8-2.8-5.6-7.9-8.3-3.5-1.8-22-7.2-23.2-1.9l3.5,20.8c-3.1,3.1-20.1-11.7-22.8-11.5-1.9.2-12,12.8-7.6,16.6l-5-1.7c-.6.6-1.6,13.9-1.4,15.8.8,9.4,11.6,25.8,16.8,33.7,24,35.9,30.9,34,68.4,49.7,5.1,2.1,20.4,11.8,23.5,12.1,3.5.4,6.2-1.8,8.2-1.8.8,0,3.3,10.3,8.5-3.3,8.8,9.4,8.6,5.1,18.5,4.9,11.9-.2,27,2.4,38.1-2.4,8.1-3.6,8.2-6.5,0-10.1s-17.1-3-25-5.4c-18.1-5.3-21.3-15.8-34-26.7-7.5-6.4-17.7-10.9-24.5-17.6-16.4-16.2-14.3-44.1-29.4-61.3-1.3-1.5-3.7-.9-4.5-1.6h0Z"/>
        <path class="st1" d="M610.8,562.2c-11.5-3.3-.2-26.5,1.3-35,3.9-21.9.8-43.2-11.7-61.7-22.4-33-55.3-47.6-40.9-95.5,7.3-24.2,23.2-28.1,18.9-59.5-1.3-9.6-8.1-21.1-9.4-29.5-1.5-9.7,5.6-2.7,8.8,1.4,11.9,14.9,20.8,38.8,19.5,58-1.3,19-15.3,33.1-11,53.2,6.7,32,45.1,47.2,49.7,86.9,3.8,33.2-16.6,52.1-25.1,81.6h0Z"/>
        <path class="st1" d="M565.3,617.8c-11.4-2.9-10.8-20.1-9.9-29.3,2.7-29,16.3-46.8,5.7-78.6-13.6-40.5-70.8-46.1-68.4-98.8.8-18,17.4-49.3,31-60.9,1.7-1.5,3.9-2.5,6.2-2.2-8.3,28.1-25.3,63.6.8,87.7,5.9,5.5,13.3,6.5,18.9,9.8,33.1,19.5,46.3,56,36.4,92.7-2.9,10.9-20.7,48.4-20.7,53.5v26.1h0Z"/>
        <path class="st1" d="M526.1,647c11.8-1.2,24.9-.4,36.2,3.4,3.7,1.2,17.4,7.5,16.5,12.2-.3,1.5-20.7,5.2-25.8,7.9-17.6,9.3-45,46.8-67.5,28.1-3.3-2.8-5.7-6.3-6.2-10.6-3.3-25.3,25.8-38.7,46.9-40.9h0ZM545,660c-13-4.8-58.8,6.9-52.1,25.9,3.1,8.9,19.5-1,24.3-4,8.9-5.6,20.1-15,27.9-21.9Z"/>
        <path class="st0" d="M375.2,388c.8.8,3.2.2,4.5,1.6,15.1,17.3,13,45.1,29.4,61.3,6.8,6.8,17,11.2,24.5,17.6,12.8,10.8,16,21.4,34,26.7,8,2.3,17.1,1.9,25,5.4s8.1,6.6,0,10.1c-11.1,4.9-26.1,2.2-38.1,2.4-9.9.2-9.7,4.5-18.5-4.9-5.2,13.5-7.8,3.3-8.5,3.3-2,0-4.7,2.2-8.2,1.8-3-.4-18.3-10-23.5-12.1-37.6-15.7-44.5-13.8-68.4-49.7-5.3-7.9-16.1-24.3-16.8-33.7-.2-1.9.9-15.2,1.4-15.8l5,1.7c-4.5-3.7,5.7-16.4,7.6-16.6,2.7-.2,19.7,14.6,22.8,11.5l-3.5-20.8c1.2-5.2,19.7,0,23.2,1.9,5.1,2.7,5,5.5,7.9,8.3h0ZM372.9,412.1c1.1-2,6-16,5.1-16.9-8.9-4.3-18.5,20.2-15.2,23.6,4.2,1.2,8.2-3.5,10.1-6.7-3.6,16.3,17.2,10.5,10.3,2.4-2.6-3.1-6.7-2.6-10.3-2.4ZM356.1,423.9c-1.5-7.7-29.9-11.5-32.1-8.4-3.1,11.3,29.7,11.5,32.1,8.4ZM350.1,433.3c0-3.2-2.6-5.9-5.9-5.9s-5.9,2.6-5.9,5.9,2.6,5.9,5.9,5.9,5.9-2.6,5.9-5.9ZM370.9,462.3c3.3-3.3,1-14.9,10.5-17.5,3.1-.9,12.1,2.8,11.5-4.9-.8-10.6-37.7-6.3-38.6,13.5-.5,11.6,10.8,15,16.6,8.9h0ZM367.9,474.5l-5,.8c1.5,1.8,2.6,3.1,5,2.5v-3.4h0ZM376.3,489.7c6.5-3.1,3.2-9.7-3.4-8.4l3.4,8.4ZM451.9,502.4l-3.5,1.2,2.5,7.1,3.5-1.2-2.5-7.1Z"/>
        <path class="st0" d="M545,660c-7.7,6.9-19,16.3-27.9,21.9-4.7,3-21.1,12.9-24.3,4-6.7-18.9,39.2-30.6,52.1-25.9Z"/>
        <g>
          <path class="st1" d="M1351.6,688.7c14,81.6-13.8,166-108.8,167-6.9,0-17.7-3.1-5.9-7.6,25.3-9.6,34.6-2.4,58.5-25,30.1-28.5,38.1-67,37.7-107.3-.1-17-2.8-41-5.1-58.2-2.2-16.7-7.1-32.9-8.4-49.8,3.5-.7,3.9,1.7,5.4,3.9,13.5,19.9,19.3,49.2,23.7,72.5.5,2.6,2.9,4.3,3,4.5h0Z"/>
          <g>
            <path class="st0" d="M686.8,562.2c-14.4-51.6-20-109.6-5.9-161.9,2.1-7.9,18.9-53.9,27-52.3,4.4.9,1.1,16.7,4.6,20.7l11.4,19.8c2.4-21,9.8-45.9,21.3-63.9,21.6-34,73.7-49.5,94.1-84.7,2.7-4.7,9.1-24.8,10.4-25.1,6.9-1.5,12.3,20.8,12.7,26.1,1.5,21.6-10.6,33.4-9.3,53.2,13.8-12.9,30.2-25.7,47.5-33.5,37-16.8,73.5-15.6,102.7-49.1,3.1-3.5,15.8-23.2,17.2-23.7,7.8-2.5,6.1,6.2,5.7,12.7-1.1,17-6.5,40.7-15.6,55.3-1.8,2.9-19.4,22.1-18.3,23,3.4,3.1,6.5-4.1,8.1-5,48.2-26.1,90.6-8,136.6-43.4,9.3-7.1,15.3-16.7,23.2-24.1,1.8-1.7,2.9-3.9,5.9-3.3,1.2,17.4-6.5,36.3-16.1,50.5-9.7,14.1-28.3,25.9-16.6,45.5,12,20.2,45.8,12,62.6,2.1,22.3-13.2,30.7-30.8,36-55.2.5-2.3-1.4-4.9,2.5-4.1,23.6,24.8,18.8,64.7-4.2,88.5,7.9,2.6,14.8.2,21.5-3.8,45.2-27.2,35.7-94.9,91.6-112.5,4.2-1.3,23.3-6.1,15.7,2.5-58.4,66.6.6,113.9-5.5,184.7-3,34.7-34.6,77.8-30.3,107.7,1.1,7.5,5.9,15.9,14.2,16.3,20.1.8,32.6-50.4,58.2-43.1-28,32.3-7.3,70.6-10.2,107.9-1.7,22.6-14.3,69.6-25.6,89.1-2.1,3.5-4.3,7.7-8.1,9.6,0-.3-2.5-2-3-4.5-4.4-23.4-10.2-52.6-23.7-72.5-1.5-2.2-1.9-4.6-5.4-3.9,1.3,16.8,6.2,33.1,8.4,49.8,2.2,17.1,4.9,41.2,5.1,58.2-9.9,8.5-17.4,23.1-30.4,27,1-93.8-66.4-224.9-129.1-293.5-66.9-73.2-142.6-111.4-243-114.6-110.2-3.5-219.2,65-215.2,184.7.2,4.8,3.7,18,2.5,21.1-1.4,3.8-20.7,16.3-25.5,19.9-1.8,1.4-4.9,1.4-5.6,1.9h0Z"/>
            <path class="st0" d="M1417.4,344.6c.6,6.8-4.7,10.7-7.1,17.4-6.6,18.9,3.2,36.6-2.1,56.9s-31,38.4-51.6,42.1c-.7-8.1,6.7-13.9,10.4-20.8,11.3-21.2,5.5-45.9,15.7-67,6.7-13.8,19-26,34.6-28.6h0Z"/>
          </g>
          <g>
            <path class="st1" d="M1302.7,742.6c-.1,13.6-3.6,42.5-15.2,51.4-15.6,12-6.2-23.3-10.1-31.1-4.4-8.7-40.2-20.9-50.5-22.9-59.4-11.3-106.6,16.4-150.3,49.8-65.5,50.2-82.2,91.6-124.9,158.5-48,75.3-100.9,167.5-171.3,222.6-111.9,87.5-275.7,107.1-391.4,15.2-4.9-3.9-10.5-12.2-15.5-14.9-5.8-3.2-16.1-4.5-23-7.4-72.9-30.4-129.1-95-161.3-166-32.5-71.5-27.4-189.2,3.4-260.9,5.7-13.3,19.6-31.3,23.5-42.3,2.6-7.6,2.9-18,5.4-26.6,4-13.6,12.3-26.1,18.4-38.9,2.4-5,2.4-11.2,7.3-14.6,3.3,0,2.2,29.6,13.2,26.8,15.3-4,12.4-44.7,17.2-57.1,1.8-4.7,15.6-23.8,20.2-23.6,4.6.3.8,11.3.8,14.2-.2,18.3,5.3,26.1,15.2,40.6,3.2,2.1,20.6-3.6,26.4-4.1,49.8-3.7,96.6,33.3,115.4,77.3,3,7,7.8,22.4,9.6,30,9.9,40.9,3.8,83.5,5.6,125.1,1.4,2.1,28.5-16,31.2-18.6,4.8-4.6,8.4-12.5,12.7-17.7,2.3-2.8,7.5-4.7,8.2-7,1.4-4.2-2.7-14.6-3.1-20-2.1-26.7,9.9-58.2,37.1-66.6-2.6,14.5-5.6,26.2-5,41.3,0,2-1.3,6.3,1.7,5.9,32.8-58.7,59.6-121.8,105.5-172,7.2-7.9,19.6-20.7,27.9-27,.7-.5,3.8-.5,5.6-1.9,4.8-3.6,24.1-16.1,25.5-19.9,1.1-3.1-2.4-16.3-2.5-21.1-4-119.7,105-188.2,215.2-184.7,100.5,3.2,176.1,41.4,243,114.6,62.6,68.5,130.1,199.7,129.1,293.5h0ZM1068.1,395.2c.6-3.1-1.5-4.2-3.5-5.7-5.7-4.1-61.6-27.2-63.9-24.6,2.8,15.5,4.7,27.1-.5,42.5-7.6,22.6-33.4,35.6-27.8,62.5,4.1,19.7,41.2,31.7,51.1,9.7,9-20-6.2-41.5,2.2-60.2,6.8-14.9,26.6-24.6,42.5-24.2h0ZM823.5,633c.4-.4,2.1-.5,2.5-1.6.6-1.7-1.3-4.7-.8-5.2.4-.3,3.2.5,4.6-.4.8-.5,4-7.8,3.7-8.8-.3-1.2-9.8-6.5-8.3-11.1,1.5-1.4,15.9,7,23.1,3.8,4.4-1.9,4.8-5.9,7.3-8,4.1-3.3,11.8-3.8,15.1-10.2-10.3-6,1.1-2.4,3.3-3.3.7-.3,10.7-8.6,11-9.3,1-1.7-1.7-5.5-.9-6.7s8.6,0,6.7-5.1c-3.7,1.2-8.2-1.8-10.9-1.7-.4,0-3,6.6-6,3.4-1.8-1.9,2.1-9.1,3.7-9.8,2.6-1,3.9,1,5.6,1.2.9,0,.6-2.8,1.8-3.2,8.2-2.5,5,4.2,5.7,5.1,2.8,3.2,3.5-3.2,4.4-3.4,1.8-.4,10,1,10.7,1.8.8.9.8,4.1-2.4,3.3-2.1-.6-5.1-4.9-6.9-1.6-1.4,2.6.4,4.4,0,6-.5,2.3-3.4,2.9-2.6,5.9.7.8,18.1-10,18.5-11,1.9-3.8-5.2-1.4-6.6-5.3-1.4-4,2-12,1.5-12.4-.2-.2-2.8.4-4.4-.6-5.2-3.3-3.3-8-4.3-9.2-.5-.6-4.2-.7-6-1.6s-4-3.5-4.9-3.6c-4.5-.7-7.3,8.8,1,6.6l-5,1.7,3.4,3.3c-4.7,1.6-10.8.2-11.7,6.1-.5,3.3,6.5,2.4,3.3,5.7-.4.4-5-3.4-7.6-3.3-3.1,0-7.9,8.1-9.2,2.5-1.9-8,9.1-16.5,12.5-22.8,9.8-17.9,2.5-39-2.4-57.2l-5.7,3.5-6,16.7c-4.8-17.2-18.7-26.8-16.9-46.4.8-9.1,6.6-17.6,8.4-25.4,1.6-7.1-8.7,3.5-10,5.2-6.5,8.1-14.4,27.1-15,37.4-1,16.6,9.4,31.1,6.6,47.8l-8.5-16c-2-1.6-14.8-16.7-16.8-14.4-.4,14.3,10.3,23,10.3,37.9s-7.2,25-16.9,32.1c-14.3,10.5,0-15.1,3.3-20.3,1.3-4.1-42.5,12.5-43.9,14.4-.2.3,2.4,4.5,1.7,5-8.6-2.6-8.4,3.5-10.4,4.9-.9.6-3.6-1.4-6.3-.6-23,6.8-68.2,50.5-84.5,69.6-41.9,49.3-62.6,106.6-97.5,160.1l2.2,5.5c9.7-6.3,8.7-19.1,21.1-21.9-4.7,19.9,7,38.2,5,58.2-1.5,15-12.7,30.9-27,36.3,1.9-9.4,9.8-16,13.3-24.7,6.4-15.9,2.9-28.4.2-44.5-4.1-.4-5.5,4-8.8,5.5-24.7,10.7-34.3-43.4-28.3-59.4-10.1,10.3-12.9,25.6-11.9,39.7,1.2,15.9,25.2,55.6,7.8,68.4-10,7.3-12.2-6.7-19.5-8.6v26.1c0,2.7-7.7,14.1-11,16l2.5-26.9c-1.4-1.7-10.4,7.1-11,8.5-2.3,5.1,2.7,5.4,2.6,10.1-8.6-.9-2.7,1.6-4.2,5-.9,2.1-5.3,4.6-6.8,6.8-.5-6.6-8.3,2.2-5.9-5.9.5-1.5,7.1-2,8.5-5.1l-5-2.5h8.4c-1.3-1.4-1.5-4.9-1.7-5.1-.8-.8-20.6,7.4-21.2,8.4-1.8,2.7,4.4,10.5,4.4,12.7,0,.5-7.4,2.1-1.3,7.1,6.8,5.5,8.6-1.3,13.9-4.6-4,7.8,11.4,8.5,14.3,11.8,7.4,8.5-13.7-2.8-14.5-2.9-3.7-.4-9.6,2.4-14.1,1.2-.8.8,2.3,18.7,3.4,20.7,1.3,2.5,14.6,4.7,6,11.5-4,3.2-8.7-1.3-4.5,9.4,2.5,6.4,3.7-.6,5.8-2.2,1.4-1.1,4.4-.8,5.5-2.1,1.2-1.5-3.1-5.6.7-5.2,4.2,8.9-1.5,6.5-3.3,8.5-3.4,3.5,5.3,5.9,8.2-1.1,1.8-4.5-6.5-4.7-1.5-6.5,3.4-1.2,6.7-.9,10.1-.8,1.5,6.3-7.8.5-4.9,7.4.6,1.4,11.9,9.5,8.3,12.8s-5.4-3.5-6.7-4.3c-2.1-1.3-18.1,1.5-18.5,3.5-.1.6,1.3,10.4,1.7,10.7.6.5,7.5.4,9-.1,3-1,1.7-6.2,5.2-4.8,5.8,2.3-3.9,10.5,5.9,8.4-2.6,5.6-11.2.1-16.8,3.5-.5,16.8,5.5,10.2,11.2,12.9,4.4,2,4.2,8.9,10.6,7.3,2.4-11.4-8.8-2.2-3.3-13.5l4.2,5,.8-3.4h6.8l-1.7,13.5,6.8-1.7-1.7-5,8.4-1.7c.9,4-2.4,8.8-1.7,12.4.1.7,5.9,2.2,3.4,7.9-.8.8-9.7-2.3-6.8,4.2,1.6,3.6,8.1.4,6.7,5.9l-5.1.9c-.6,4.6,6.3,9.9-3.3,5.9.7,4.9-.1,5.8-5.1,5.1,0,2.2,4.9,4.8,5,5.9.4,4.6-11.8-2.4-10.1,3.3.2.7,6.4,12.1,7,12.5.4.3,8.7-1.2,9.9.2,1,1.1-1.9,5.9-1.5,7.5.7,3,14.3,5.1,15,4.3.2-.2.2-4.9,0-5-1.2-1.1-7.2,3.7-5-8.5,2.7,4,5.3-4.8,8.4-1.7,1.5,1.5-8.3,13.1,3.4,16-3.5,1.2-5.4,5.6-7.3,7.1-1.4,1-4.2.2-4.5.5-.7.7,3.3,8,3.6,8.2,2.8,1.6,12.4-6.2,16.6-3.2,3,3.4-10.6,4.9-5.9,15.1,4.4,9.5,9.7.8,13.3,1.8,6,1.5,2,8.7-5.8,3.3-.3,1.6-.2,2.1.8,3.4,2.1,2.7,25,17.7,29.1,19.8,8.6,4.4,19.3,7,28.3,10.5l.8-5c7.5-2.3,3.8,5,7.6,6.7,6.7,3.1,1.7-8.1,8.4-5,4.7,2.1-1.2,11.3,9.3,8.4l-1.7-6.7c3.1-.4,4.9,0,6.7,2.5-1.5,2.8-5.2,5.3-.9,7,1,.4,19.4,2.3,22.1,2.3,106.8,3,176.3-83.8,227.6-163.8,65.8-102.6,95.5-180.7,212.4-238,3.8-1.8,13.5-7.8,14.3-8.1,5.8-2.1,18.7-4.8,25.4-6.3,4.1-.9,24.7-3,25.7-3.9.6-.6-1.6-3.9-1.3-5.7.5-2.6,6.7-5.2,6.4-9.5,6-1.5,2.5,6.7,3.4,10.9-3.1.1-3.9-2.4-3.4,2.5h15.2l-1.7-8.4,8.4,1.7c3.3-6.6-1.7-11.7-1.7-15.8,0-2.8,3.8-9.1,3.4-9.5s-6.9-.1-8.4-4.3c-1.3-3.6,7.6-3.3,5-9.2-2.8,3.1-10.8-.9-11.8,0-.7.7,5.2,16.4-5.1,16.8l.3-27.7c.9-3,5.9-2.2,7.4-4.3,1.8-2.6-1.2-7.6,3.3-6.8,6.7,1.2,4.7,8.6,2.6,13.4h11.8l-6.7-6.7c10.2,1.5,10.5,2.1,15.2-7.6,0-2.5-10.6,2.1-8.4-4.2,3.7-1.4,8.3,1.8,10.9,1.8,1.4,0-.1-5.3,4.3-3.4l-1.7,5h6.7c-4-2.8-9.9-16.9-11.8-18.5-6.9-5.7,3.2,17.1-6.7,11.8,1.9-10.1-3.7-5.6-5.1-6.8-.5-.4,2.7-7.9,1.4-12.3-1.2-3.9-24.6-23.8-26.7-21.4,0,6.4,2.1,10.2-5.1,11.8-.2-5-.3-15.6-3.4-19.4-1.4-1.7-32.7-18.9-34.9-19.1-7.6-.7-2.2,13.9-12.3,9.8-1.2-5.7,4.6-8.3,5-13.5l-11.8-3.4c.8,9.4-16.1,39-6.8,44.7,12.9,7.9,11.2-22.6,19.6-24.4,5.3-1.1,11.5,17,12.1,21.4,1.3,9-2.4,20.1,3.8,26.6-8.2.1-5.1,6.5-6.7,9.3,1.4-1.3,5.9.3.8,3.4-1.4.3-1-3.3-.8-3.4-5.2,8.6-22.9,14.6-31,20.5-3.1,2.3-3.4,6.9-7.8,6.5.3-13,15.3-17.9,22.8-25.2,11-10.7,12.9-27.9,9.2-42.2-3.7,2.7-3.9,8.1-7.5,11.9-9.1,9.6-22.1,5.7-25.4-6.8-5.9-22.4,21.1-42.4,4.6-72-2.6-4.7-7.4-8.9-10.1-13.5-8.1-13.4-10.6-25.9-5.4-41-5.6-6.1-14.9,26.4-15.2,29.5-1.9,22.5,17.4,47.3,7.6,70-7.6,17.8-29.4,18.5-30.4-3.4-6,8.5-10.2,24.1-9.3,34.5,1.4,16.3,22.9,40.6,1.7,54.8,4.4-16.8-11.8-32.3-13.5-48.1-1.9-17.2,2.4-26.3,9.8-40.8,1.5-3,5.5-6.9,6.2-9.1.5-1.4-.4-8.4-.9-8.4h-27l3.4,3.4c-3.1-.3-8.6,3.7-10.8,3.5-1.6-.2-1.4-4.4-3.4-4.8-.9-.2-17.2,3.2-17.9,3.7-2.3,1.7-.9,7.4-4.2,9.3-8-1.2,3.9-4.4.9-6.7-3.3-2.6-16.3,3.2-20.2,5.1l18.2,8.7c2.5,13.9-8.5,4.1-12.1,4.6-1.4.2-3.1,8.5-7.7,6.9-2.2-8.7,4.6-7.3,10.1-10.9-3.1-9.7-9.5-2.2-10.1-2.5-.2-.2-.4-3.9-2.6-5-2-1.1-4.2,6.4-9.3,3.4l1.7,6.7c-4.2,1.6-4.8-5.5-5.9-5-4.9,2.2-4,16.5-2.3,18.4.7.8,4.4-.3,4.8.1,3.3,3.2-1.9,6.4-7.3,5-1.3-.3-1.1-3.2-2.3-3.4-3.9-.7-11.2,4.8-14.1-2.5-1.2-3,6.6-4.3,7.5-4.3,1.2,0,.3,4.7,3.5,3.5,9.1-3.7-7.6-10.8-12.9-4.9l-19.9,13.3c-.7,3,2.8,1.1,3.4,1.7.3.3-3.1,8.1-3.4,8.4-2.9,3.1-2.8-3.5-5.8-3.6-4.8-.2-10.3,2.2-9.5,7.6.3,1.8,6.6,1.6,5.2,6-5.4-3.1-21,.5-24.4,5.3-1.1,1.5-.7,4.5-1,4.8-.2.2-2.9-1.8-4.9-.9-1.2.5-17,15.7-19.7,18.4-81.8,79.4-106.1,222.9-212.1,279.7-16.2,8.7-30.7,13.5-49.2,14.9-3.9-7.4,10.8-9,16.5-12.1,25.8-14.1,48.1-34.8,67-56.1,8.3-9.4,31.5-35.7,35.3-45.9,2.1-5.6-2.7-8.9,4.1-6,13.3-17.1,23.8-37.4,33.7-57,7.3-14.4,15.2-33.8,24.7-48.4.9-1.3,2.9-5.3,3.2-6.6.7-3-6.9-2.7-3.3-5.7.6-.4,5.1.9,7.7-1.6s5-15,7.5-19.1c10.1-17.2,28.1-40.2,40.6-55.2-3.6,1.2-11.3-5.6-8.4-8.4s9.5,4.7,8.4,8.4h0ZM889.3,521.7v3.4h6.8s0-3.4,0-3.4h-6.8ZM916.3,525.1c-1-1.5-7.3-.3-8.9-.7s-9-6.2-8-.2c1.4,8.2,13.8,8,18.6,13.5-1.5,2.7-7.5-1.9-8.4-.8-3.6,4,6.6,8.6,6.8,9.6.7,3.4-2.1,8.3,0,12.3,7.5-2.5,13.8-4.1,11.8-13.5,3.3-.4.4,3.4,2.7,5.2,3.5,2.9,10.2-2.4,9.1-3.5l-8.4-4.2c5.9.4,7.5,3.3,6.7-4.2,19.4,9.6,6.5-5.1-2.5-6.8-5.7-1,.4,10.3-5.1,8.4s2-5.1.1-8.4c-.8-1.4-7.2-5.4-7.7-5-.7.5,0,6.5-5.9,5-3.6-.9-.5-6.2-.9-6.7h0ZM1078.3,557.1h-16.9c-1.3,6,5.1,1.6,7.6,5,4.4,5.9.5,16.1-4.3,11.8-.6-.6,2.6-7.8,1.7-10.1-2.9-3.8-12.5,23.1,3.9,18.2,9-2.7,8.5-17.6,7.9-25h0ZM302.1,1098.5c-.4-1.6-1.8-15.1-1.5-15.8.6-2.2,4.7-2.1,5-3.9.6-3-2.2-7.4-1.8-10.7-6.8,3.6-3.3-2.9-11-1.8-.8.1-9.4,4.5-13.1,4.8-1.7.1-4.1-1.7-6.3-1.2,1.3-6.2,5.9-6.2,9.6-8.9,1.8-1.3,1-5.6,6.4-4.6,1,.2.4,3.9,1.6,3.4.8-.3,7.5-3.8,7.6-4.2,1.1-5-2.7-3.5-3.3-5.4-10.5-33.9-30.5-137.1-17.4-167.1.6-1.4-.2-5.1,3-3.7,7.9,3.6,6.8,42.8,7.8,51.3,3,27.2,18.3,83.5,29.9,108.4,6.1,12.9,6.7,2.5,8.7,3.9,5.2,6.9.8,9.3.7,14.3,0,5.2,20.6,40.2,22.9,38l3.4-5.1c-3.6,10.2.5,13.9,6.1,21.8,7.8,11,18.9,21.2,26.8,32.3,2.9,2.9,6.1.4,9.3-.1.8,2.9-3.5.7-3.5,2.7,0,3.6,3.9,8.3,6.9,5.8.3-.2-.7-8.8,3.4-5,2.4,2.2-.8,13,6.9,17.4,5.2,3,6.9,3.4,11.6-.6.3,1.9-1.6,4.1-1.3,5.7.6,3.9,37.8,23.8,43.5,25.5s8.6,2.4,9.5-4l7.4-6.9c2.8,13.9-2.9,7.9-3.4,8.4-1.6,2.1,6.6,8,8.9,8.9,3.6,1.4,6.6-.9,7.6-.3,2.3,1.4,2.7,6.3,11.3,6.5,1.5-.4-.3-10.6,4.2-6.8,1.7,1.4-2.6,10.1,8.5,8.4l-.8-3.4,9.3,1.7-6.7,3.3c31.2,5.2,65.4,8.1,96.7,1.4,12.3-2.6,5.2-1.4,7.9-13.2,4.4.3,6.1,9.3,6.9,9.9,1.2.9,18.5-2.9,20-4,2-1.5,2.1-7.1,4.3-7.6,1.8-.4,4.2,3.5,8.2,3.4,1.1,0,19-6,19.6-6.8s-7-13.1,5.9-15.1l-.9,11.8c1.4,1.2,12.5-3.3,12.9-5.8.7-3.8-.6-13.1.6-17.8-8.1,6.3-6.8-.3-7.6,0-2.1.7-6,5.4-10,5.1-1,0-.8-3.1-2.1-3.4-8.5-2.1-29.1-.7-39.7-2.2-115.5-15.6-181.2-131.9-195.2-238.3-11-83.7,18.4-177.9-29.8-251.8-20.8-31.9-61.3-45.7-96.9-32.7.3,18.1-9.1,34.8-22.7,46.1-1.9,1.6-2.7,4.1-5.9,3.4,6-19.3,18.8-31.1,16.9-53.2-1.5-18.4-16.2-32.1-18.6-49.7-2.3.3-2.9,2.3-3.3,4.3-2,10.9-.7,22.7-3.6,33.5-3.3,12.4-14.8,31.2-29.8,25-2.8-1.1-8.2-8.9-10.5-7.1-10,25.2-19.8,49.1-9.8,76.3,1.2,3.2,9.6,16.6,8,18.1-6.9.4-11.5-4.5-14.3-10.1-13.3,21.8-20.6,47.2-25.7,72.1-1.5,7.2-1.2,14.6-2.3,21.3-1.7,10.5-9.8,22.9.1,31.3-1.4.2-4.8-.9-5.2.9-.5,2.5-.5,19.2,0,21.8.4,2.2,5.1-.2,5.2,1.8-5.3,6.9-5.5,9.9-5.1,18.6.3,7.1.4,15.2,8.5,12.6l-6.8,6.7c10.5-1.3,22,.6,11,11.8-4-3.8-.3-8.2-7.6-6.7-3.2,3,4.7,39.7,8.3,44.5,1.4,2,4.7.6,5.2,1,.2.2-1.8,3.7-1.8,5.9,0,3.4,6.9,17.4,9.4,19.4,1.8,1.5,11.7,4,12.6,7.6,1,3.8-6.1,5.4-6.5,6.1-1.3,2.3,9.5,22.2,11.8,25.7,2.7,4.1,13.2,13.7,15,16.2-.2-.3.1-2.3,0-3.4h5v5c-1.3-1.2-4.9-1.5-5-1.7.4.6-.4,4.6,1.5,6,5,3.6,12-8,8.6,10.8,3.3-1.1,3.8-9.8,2.6-11.9-.7-1.1-8.2-2.1-1.7-5,.3-.1,4.7,4.9,4.9,5.2,2.6,3.6-1.4,7.3,7.8,3.2,1.2,8.2-2.5,4.4-8.4,3.4-3,10.3,5.7,18.8,15.1,21.3,5.3,1.4,2.8-2.8,4.3-2.8,2.7,0,5.6,4.4,9.3,3.5l-6.8,3.4c-.9,5.4,6.5,12.7,11.8,11.8,1,4,5.2,6.8,7.6,10.1l5.9-3.4c-.5,3.8-.8,9.9,4.3,10.1.5,0,.6-6.4,7.5-1.7,1.3-9.9-6.3-4.6-6.7-5s.5-3.8,0-5.5c-.6-2-1.2-2.1-2.5-7.1-1.5-5.8-9.5-8.8-12.6-5.8-.7.7,1,7.6-3.5,8.3h0ZM1223.4,663.4c.5-5.2-4.2-5.5-8.4-5,1,3.6,5.6,3.4,8.4,5ZM1220,670.1c1.3-9-7.4-6.7-13.5-6.7,0,3.6,5.5.5,8.1,2,1.4.8,1.1,6,5.4,4.7ZM1256,698.4c-.4-.7.9-3.5,0-6-1.3-3.9-9.6-29-15.8-24,7.1,5,2.6,9.1,3.5,12.4.6,2.2,4.4,2,5,3.9,1.3,4.7-.9,11-1.7,15.7l6.7-3.4c-5.3,15.4,6.5,11.7,5.2,2.7-.2-1.1-2.8-1-2.9-1.4h0ZM1226.7,681.9l-5-1.7c-.8,4.4,1,3.5,5,3.4v-1.6h0ZM1240.2,690.4c-7.2-1-11.1,7-15.2,9.1-1.3.7-3.3-.8-3.4-.6-.8,1.4,1,7.6-.8,10.2l-5.9-3.4-1.7,10.1,11.8-3.4c-3.2-7,0-3.9,2.4-6.9,1-1.3.6-3.9,1.4-4.5,1.7-1.5,12.4-.9,11.4-10.5h0ZM1243.6,705.6c-.3-.2-3.6-.6-3.4.8,3.5,5.1-1.3,6.3-1.7,10.9,5.3,0,13.2-.4,9.2-6.8-.5-.8-2.3-1-2.9-1.7-1.4-1.6-1.2-3.2-1.3-3.3h0ZM1221.7,715.6v3.4h11.8v-3.4h-11.8ZM534.9,827c-5.6-1.6-8.6,10-6.7,11.8,4.7,4.7,7.6-8.5,6.7-11.8ZM516.1,992.4c-.5-.4-11.3,0-12,.1-12.2,1.8-.9,11.1-1.2,18.2,4.8-4.2,11-3.4,16.8-5,2.1,2.1-6.9,8.8-8.5,9.3-2.4.9-3.5-3.6-6.7-2.6-1.2,1.2,6.5,15.5,9.3,16.8,2.9,0,3.4-11.5,4.3-13.8.7-1.7,3.1-1.6,3.8-3.4.8-2.2,3.1-12.1,2.9-13.9-.2-1.6-4.5-.2-6.8-1.7-1.3-.8-1.3-3.5-2-4h0ZM769.5,1145.7c-4.5-.7-8.5.7-10.1,5,1.2.9,10-2.3,10.1-5ZM737.4,1157.5c-4.4-1.5-6.5,4.5-8,5-5.3,1.6-3.1-.4-8.6,3.3-1,.7-3.3-.1-3.6.2-.7.6,3,8.5,1.7,10.1-.7.9-6.5-2.2-5,3.4,4-.4,9.5-2.8,13-4.6,2-1,2-2.8,3.5-3.7,7-4.3,11,0,7.1-13.6h0Z"/>
            <path class="st0" d="M1277.4,762.9c-23.8,14-52.3,30.7-80.4,33.5-20.6,2-51.9,3.2-72.4,2-15.8-1-32.6-4.9-48-8.5,43.6-33.4,90.9-61.1,150.3-49.8,10.3,2,46.2,14.2,50.5,22.9h0Z"/>
            <path class="st0" d="M1142.4,641.4c1.7-2.7-1.5-9.2,6.7-9.3-6.2-6.5-2.5-17.6-3.8-26.6-.6-4.4-6.8-22.6-12.1-21.4-8.4,1.8-6.7,32.3-19.6,24.4-9.3-5.7,7.5-35.3,6.8-44.7l11.8,3.4c-.4,5.1-6.3,7.8-5,13.5,10.2,4,4.8-10.6,12.3-9.8,2.1.2,33.5,17.5,34.9,19.1,3.1,3.7,3.2,14.4,3.4,19.4,7.2-1.6,5-5.4,5.1-11.8,2.1-2.4,25.5,17.6,26.7,21.4,1.3,4.4-1.9,11.9-1.4,12.3,1.4,1.1,7-3.3,5.1,6.8,9.9,5.3-.2-17.5,6.7-11.8,1.9,1.6,7.9,15.7,11.8,18.5h-6.7l1.7-5c-4.4-1.8-2.9,3.4-4.3,3.4-2.6,0-7.2-3.1-10.9-1.8-2.2,6.3,8.5,1.7,8.4,4.2-4.7,9.7-5,9.1-15.2,7.6l6.7,6.7h-11.8c2.1-4.8,4.1-12.2-2.6-13.4-4.5-.8-1.4,4.1-3.3,6.8-1.5,2.1-6.5,1.2-7.4,4.3l-.3,27.7c10.3-.5,4.3-16.2,5.1-16.8,1-.9,8.9,3.1,11.8,0,2.6,6-6.3,5.7-5,9.2,1.5,4.1,8,3.9,8.4,4.3s-3.3,6.7-3.4,9.5c0,4.2,5,9.2,1.7,15.8l-8.4-1.7,1.7,8.4h-15.2c-.5-4.9.2-2.4,3.4-2.5-.8-4.2,2.6-12.4-3.4-10.9.3,4.2-6,6.9-6.4,9.5-.3,1.8,1.9,5.1,1.3,5.7-.9.9-21.6,3-25.7,3.9-6.6,1.5-19.5,4.2-25.4,6.3-.8.3-10.5,6.2-14.3,8.1-116.9,57.3-146.7,135.4-212.4,238-51.3,80-120.7,166.8-227.6,163.8-2.6,0-21-1.9-22.1-2.3-4.4-1.8-.7-4.3.9-7-1.8-2.6-3.6-2.9-6.7-2.5l1.7,6.7c-10.5,2.9-4.6-6.3-9.3-8.4-6.7-3-1.7,8.1-8.4,5-3.8-1.8,0-9-7.6-6.7l-.8,5c-9-3.5-19.7-6.1-28.3-10.5-4.2-2.1-27-17.1-29.1-19.8-1-1.3-1-1.8-.8-3.4,7.8,5.4,11.7-1.8,5.8-3.3-3.7-.9-9,7.8-13.3-1.8-4.7-10.2,8.8-11.7,5.9-15.1-4.2-3-13.8,4.8-16.6,3.2-.4-.2-4.3-7.5-3.6-8.2.2-.2,3.1.5,4.5-.5,2-1.5,3.9-5.9,7.3-7.1-11.7-2.9-1.9-14.5-3.4-16-3.1-3.2-5.7,5.7-8.4,1.7-2.2,12.1,3.9,7.3,5,8.5.2.2.2,4.9,0,5-.7.8-14.3-1.4-15-4.3-.4-1.6,2.5-6.4,1.5-7.5-1.2-1.3-9.5.2-9.9-.2-.6-.4-6.8-11.8-7-12.5-1.7-5.8,10.5,1.3,10.1-3.3-.1-1.1-5-3.7-5-5.9,5,.7,5.8-.1,5.1-5.1,9.7,4,2.8-1.2,3.3-5.9l5.1-.9c1.4-5.5-5.1-2.3-6.7-5.9-3-6.5,6-3.4,6.8-4.2,2.4-5.6-3.3-7.2-3.4-7.9-.7-3.6,2.6-8.4,1.7-12.4l-8.4,1.7,1.7,5-6.8,1.7,1.7-13.5h-6.8l-.8,3.4-4.2-5c-5.4,11.2,5.7,2,3.3,13.5-6.4,1.7-6.2-5.3-10.6-7.3-5.8-2.6-11.8,4-11.2-12.9,5.5-3.3,14.2,2.1,16.8-3.5-9.9,2-.2-6.1-5.9-8.4-3.5-1.4-2.2,3.9-5.2,4.8-1.5.5-8.5.7-9,.1-.4-.4-1.8-10.2-1.7-10.7.4-2,16.5-4.8,18.5-3.5,1.3.8,3,7.6,6.7,4.3s-7.7-11.4-8.3-12.8c-2.9-6.9,6.4-1.1,4.9-7.4-3.4-.1-6.8-.4-10.1.8-5.1,1.8,3.3,2,1.5,6.5-2.9,7-11.5,4.7-8.2,1.1,1.8-1.9,7.5.5,3.3-8.5-3.8-.4.6,3.7-.7,5.2-1.1,1.4-4.1,1-5.5,2.1-2.1,1.6-3.2,8.6-5.8,2.2-4.3-10.7.4-6.2,4.5-9.4,8.6-6.8-4.7-9-6-11.5-1.1-2-4.1-19.9-3.4-20.7,4.5,1.2,10.4-1.5,14.1-1.2.9,0,22,11.4,14.5,2.9-2.9-3.3-18.3-4-14.3-11.8-5.3,3.3-7.1,10.1-13.9,4.6-6.2-5,1.3-6.6,1.3-7.1,0-2.3-6.2-10-4.4-12.7.6-.9,20.4-9.1,21.2-8.4.2.2.4,3.7,1.7,5h-8.4s5,2.5,5,2.5c-1.4,3-8,3.5-8.5,5.1-2.4,8.1,5.4-.7,5.9,5.9,1.5-2.2,5.9-4.7,6.8-6.8,1.5-3.4-4.4-5.9,4.2-5,0-4.7-4.9-4.9-2.6-10.1.6-1.3,9.6-10.2,11-8.5l-2.5,26.9c3.3-1.9,11-13.3,11-16v-26.1c7.3,1.8,9.5,15.9,19.5,8.6,17.5-12.8-6.6-52.4-7.8-68.4-1.1-14.1,1.7-29.4,11.9-39.7-6,16,3.6,70.1,28.3,59.4,3.3-1.4,4.8-5.9,8.8-5.5,2.7,16.1,6.2,28.6-.2,44.5-3.5,8.7-11.4,15.3-13.3,24.7,14.2-5.4,25.5-21.3,27-36.3,1.9-19.9-9.7-38.3-5-58.2-12.4,2.8-11.4,15.6-21.1,21.9l-2.2-5.5c35-53.5,55.6-110.8,97.5-160.1,16.3-19.1,61.5-62.8,84.5-69.6,2.8-.8,5.5,1.2,6.3.6,2-1.4,1.8-7.5,10.4-4.9.7-.5-2-4.7-1.7-5,1.4-1.9,45.2-18.4,43.9-14.4-3.4,5.2-17.6,30.8-3.3,20.3,9.7-7.1,16.9-19.9,16.9-32.1s-10.6-23.6-10.3-37.9c2.1-2.4,14.8,12.8,16.8,14.4l8.5,16c2.8-16.7-7.6-31.2-6.6-47.8.6-10.3,8.6-29.3,15-37.4,1.3-1.6,11.7-12.3,10-5.2-1.8,7.8-7.5,16.3-8.4,25.4-1.8,19.6,12.1,29.2,16.9,46.4l6-16.7,5.7-3.5c4.9,18.2,12.2,39.3,2.4,57.2-3.5,6.4-14.4,14.9-12.5,22.8,1.4,5.7,6.2-2.4,9.2-2.5,2.7,0,7.2,3.8,7.6,3.3,3.2-3.3-3.8-2.5-3.3-5.7.9-5.9,7-4.5,11.7-6.1l-3.4-3.3,5-1.7c-8.4,2.2-5.5-7.4-1-6.6.9.2,3.2,2.8,4.9,3.6s5.5,1,6,1.6c.9,1.2-1,6,4.3,9.2,1.6,1,4.2.5,4.4.6.5.4-2.9,8.4-1.5,12.4,1.4,3.8,8.5,1.5,6.6,5.3s-17.8,11.8-18.5,11c-.8-3,2-3.6,2.6-5.9.4-1.5-1.5-3.3,0-6,1.7-3.3,4.8,1.1,6.9,1.6,3.2.9,3.3-2.4,2.4-3.3-.8-.8-8.9-2.2-10.7-1.8-1,.2-1.6,6.7-4.4,3.4-.7-.8,2.4-7.6-5.7-5.1-1.2.4-.9,3.3-1.8,3.2-1.7-.1-3-2.2-5.6-1.2-1.7.7-5.5,7.9-3.7,9.8,3,3.2,5.6-3.4,6-3.4,2.7,0,7.2,2.9,10.9,1.7,1.9,5.1-5.9,3.9-6.7,5.1s1.8,5,.9,6.7c-.4.6-10.4,9-11,9.3-2.2.9-13.6-2.7-3.3,3.3-3.3,6.4-11,6.9-15.1,10.2-2.6,2-2.9,6.1-7.3,8-7.2,3.2-21.6-5.2-23.1-3.8-1.5,4.6,8,9.8,8.3,11.1.2,1-3,8.3-3.7,8.8-1.4.9-4.2,0-4.6.4-.5.4,1.4,3.5.8,5.2-.3,1-2.1,1.1-2.5,1.6,1.1-3.7-5.5-11.2-8.4-8.4s4.8,9.6,8.4,8.4c-12.5,14.9-30.5,38-40.6,55.2-2.4,4.1-4.8,16.5-7.5,19.1s-7.1,1.2-7.7,1.6c-3.7,2.9,4,2.6,3.3,5.7-.3,1.2-2.4,5.2-3.2,6.6-9.5,14.6-17.4,34.1-24.7,48.4-9.9,19.6-20.4,39.9-33.7,57-6.8-2.9-2,.4-4.1,6-3.8,10.2-26.9,36.6-35.3,45.9-19,21.3-41.2,42-67,56.1-5.7,3.1-20.4,4.7-16.5,12.1,18.5-1.4,33-6.2,49.2-14.9,106-56.8,130.3-200.3,212.1-279.7,2.7-2.6,18.5-17.8,19.7-18.4,2.1-.9,4.7,1,4.9.9.3-.4,0-3.3,1-4.8,3.4-4.8,19-8.3,24.4-5.3,1.4-4.4-4.9-4.2-5.2-6-.8-5.5,4.7-7.8,9.5-7.6,3,.1,2.9,6.6,5.8,3.6.3-.3,3.7-8.1,3.4-8.4-.5-.6-4.1,1.3-3.4-1.7l19.9-13.3c5.3-6,22.1,1.1,12.9,4.9-3.1,1.3-2.3-3.4-3.5-3.5-.9,0-8.6,1.3-7.5,4.3,2.8,7.3,10.1,1.8,14.1,2.5,1.2.2.9,3.1,2.3,3.4,5.4,1.4,10.6-1.8,7.3-5-.4-.4-4.1.7-4.8-.1-1.7-1.9-2.6-16.2,2.3-18.4,1.1-.5,1.7,6.7,5.9,5l-1.7-6.7c5.1,3,7.2-4.5,9.3-3.4,2.2,1.2,2.3,4.9,2.6,5,.5.4,6.9-7.1,10.1,2.5-5.5,3.7-12.3,2.3-10.1,10.9,4.6,1.6,6.3-6.7,7.7-6.9,3.6-.5,14.6,9.4,12.1-4.6l-18.2-8.7c3.9-1.8,16.9-7.6,20.2-5.1,3,2.3-8.8,5.5-.9,6.7,3.2-1.9,1.9-7.6,4.2-9.3.7-.5,17-3.9,17.9-3.7,1.9.4,1.8,4.6,3.4,4.8,2.2.2,7.7-3.8,10.8-3.5l-3.4-3.4h27c.4,0,1.3,7,.9,8.4-.7,2.2-4.7,6.1-6.2,9.1-7.4,14.5-11.7,23.6-9.8,40.8,1.7,15.7,17.9,31.3,13.5,48.1,21.2-14.2-.4-38.5-1.7-54.8-.9-10.5,3.3-26,9.3-34.5,1,21.9,22.8,21.2,30.4,3.4,9.8-22.7-9.5-47.5-7.6-70,.3-3.1,9.5-35.6,15.2-29.5-5.2,15.1-2.7,27.6,5.4,41,2.8,4.6,7.5,8.8,10.1,13.5,16.5,29.7-10.5,49.6-4.6,72,3.3,12.5,16.3,16.3,25.4,6.8,3.6-3.8,3.8-9.2,7.5-11.9,3.7,14.3,1.9,31.5-9.2,42.2-7.6,7.4-22.5,12.2-22.8,25.2,4.4.5,4.7-4.2,7.8-6.5,8.1-5.9,25.7-11.9,31-20.5-.1.1-.5,3.7.8,3.4,5-3,.5-4.7-.8-3.4h0ZM842,543.6c.6-3.2-2-5.6-5-5l5,5ZM818.4,545.3v5.1s5,0,5,0v-5.1s-5,0-5,0ZM852.1,548.7c-1.3-1.7-21.3-6.8-11.8,2.5,5.3,5.2,14.6,1.2,11.8-2.5ZM891,553.7c2.5.5,11.1.5,10.1-4.2s-11.5-.1-10.1,4.2ZM776.2,557.1c1.9-1.9-2.6-9.8-7.4-8.3-1.7.5-2,3.6-3.2,4.4-9,5.8-15.2,7-12.9,20.8l12.7-15.2c3.4,8.9,3.7.8,6-.8,1.7-1.1,4.8-.7,5-.9h0ZM784.6,548.7c-3.2-2.5-6,5.8-5,6.7,2,2,6.7-3.4,5-6.7ZM872.4,557.1c-10.4-2-9.1,6.4,0,6.7v-6.7ZM858.4,564.5c-8.6-2.7-2.2,3.1-2.8,6.8-.2,1.1-5.7-.3-.1,9.4,2.7,2.6,8.2-9,8.4-11,.5-4.5-4.9-.8-5.5-5.3h0ZM1000.6,577.4c3.4-3.2-8.9-8.4-6.7-2.5.8,2.2,5.6,3.6,6.7,2.5ZM1004,580.7c-1.6,0-6.5-.3-6.7,0-6.6,6.6,21,13.2,25.3,11.8,4-3.4-15.9-10.5-18.6-8.4,0-1.1,0-2.3,0-3.4,12.4-.2,16-2.1,1.7-6.7-.2,2.3-1.6,4.5-1.7,6.7h0ZM821.7,587.4c3.4-4-5-11.1-9.3-11.7-5.1-.7-16.6,3.4-17.6,9.3-.9,5.5,8.4,1,11,1.1,3.2.1,13,4.8,15.9,1.3h0ZM872.4,577.4h-8.4c-.2,6.9,8.6,6.9,8.4,0ZM791.4,587.5c3.7-3.7-7.1-11.3-11.8-8.4-.6,3.6,3.6,4.5,6.2,6.1.5.3,3,4.9,5.6,2.3ZM838.6,580.7c-5.4-1.7-9.5,14-8.4,15.1l10.1,1.7-1.7-16.9ZM1157.6,590.8c2.2-2.4-4.4-10.6-6.7-8.4-1.6,1.5,4.5,10.8,6.7,8.4ZM775,592.5c0-1.1-.9-2.1-2.1-2.1s-2.1.9-2.1,2.1.9,2.1,2.1,2.1,2.1-.9,2.1-2.1ZM826.8,590.9h-5v3.4h5v-3.4ZM769.5,592.5c-2.9-2.9-8.6,2.7-2.5,5,3.6,1.4,3-4.5,2.5-5ZM1174.4,592.5c-7,0-7.8-1.6-5,5-4.9-1-6.7,2.1-6.7,6.7,4.3,2.1,13.2-10.6,11.8-11.8ZM750.9,594.2c-23.2-2.4-63.5,11.1-68.8,36.6-5.2,24.8,18.5,29.7,34.2,15.6,8.5-10.6,13.6-23.2,19.4-35.4-17.7,4.1-19.9,31-40.5,28.7.1-3-.4-6.2.1-9.2,2.7-15.3,40.6-32.5,55.6-31.3v-5h0ZM820.1,602.6l-.8-6.7c-4.5,3.5-5.7,6.2.8,6.7ZM1160.9,599.3c-.2-.3-6.7-3.2-5,.8,1.9,4.5,7.6,2.4,5-.8ZM772.8,604.3c1.8-1.6-3.4-6.8-5-5-2.5,2.8,2.2,7.6,5,5ZM786.3,601h-3.4v5h3.4v-5ZM813.3,601c-.6-.6-6.3-1.1-5,2.5,1.9,5.2,6.8-.9,5-2.5ZM849.2,602.6c0-1.1-.9-2.1-2.1-2.1s-2.1.9-2.1,2.1.9,2.1,2.1,2.1,2.1-.9,2.1-2.1ZM935.3,606c0-1.1-.9-2.1-2.1-2.1s-2.1.9-2.1,2.1.9,2.1,2.1,2.1,2.1-.9,2.1-2.1ZM948.3,614.5c5.5-4.9-2.5-12.8-8.4-4.2,3.1-.8,6.5,5.9,8.4,4.2ZM956.8,606l-5,.8c1.5,1.8,2.6,3.1,5,2.5v-3.4h0ZM803.2,609.4c-8.7,0-1.1,8.9-3.4,13.5,3.1.3,18.6,1.2,14.4-5.1-1.8-2.7-11.1,2.7-11-8.4h0ZM921.3,617.8c1.4-6.5-5.3-7.7-10.1-8.4-1.7,8.1,3,8.4,10.1,8.4ZM982.1,609.4c-2.3-.5-4.5.9-5,3.3h5.1v-3.3h0ZM992.2,609.4c-4.4-.8-3.5,1-3.4,5h1.6l1.7-5h0ZM1194.7,622.9l3.4-13.5c-3.3,1-11.7,14.1-3.4,13.5ZM984.2,617.8c0-1.1-.9-2.1-2.1-2.1s-2.1.9-2.1,2.1.9,2.1,2.1,2.1,2.1-.9,2.1-2.1ZM993.9,616.2c-1.7-1.7-6.8,3.3-5,5,1.7,1.7,6.8-3.3,5-5ZM1161.7,623.5c-.9,1.6-2.5,3-2.4,5.3,4.1,8.2,9.7-7.3,9.6-8.4,0-1.5-7-8.8-5.7-.4.8,5-.6,1.8-1.5,3.5h0ZM788,617.8h-3.4v5h3.4v-5ZM1189.6,617.8c-4.8-1.5-8.6,8.2-6.7,10.1,4.4,4.3,6.5-6.2,6.7-10.1ZM958.4,626.3l-.8-6.7-4.2,4.2c-.8,3.6,1.7,2.5,5,2.5ZM1008.3,621.2c-5.8,3-12.1,16.3-1.7,16.2,7.8,0,6.7-17.3,1.7-16.2ZM1203.1,631.3c-.9-3.4-3.6-3.8-6.7-3.3v3.4h6.7ZM1188.4,631.3c0-1.1-.9-2.1-2.1-2.1s-2.1.9-2.1,2.1.9,2.1,2.1,2.1,2.1-.9,2.1-2.1ZM788,641.5c-14.4-4.4-22.1,9.9-25.3,21.9,2.8,2.9,10.4-9.7,11.9-10.8,3.8-2.8,13.3-3.3,13.4-11.1h0ZM1029.3,639.8c-1.6-1.8-6.8,3.5-5,5,2.9,2.5,7.6-2.2,5-5ZM1184.6,639.7c-1.4.2-4.6-.4-5,0-1.8,1.5,6.1,18.8,5,0ZM1155.2,645.5c-2-1.5-5.5-2.2-7.8-4v6.7s-5.1-1.7-5.1-1.7l.8,16.8c3.6-1.3,3.8-9.7,4.2-10.1.7-.7,18.9,6.5,12.2-3.4-.2-.3-4-4-4.4-4.3h0ZM1000.6,644.8c-2.9-2.9-8.6,2.7-2.5,5,3.6,1.4,3-4.5,2.5-5ZM745.8,646.5c-2.9-2.5-7.6,2.2-5,5,1.6,1.8,6.8-3.5,5-5ZM1022.6,646.5h-9.3c-3.1,9.7,9.8,10.7,9.3,0ZM1027.6,651.6c-3.7,5.3,6.8,9.6,8.4,2.5,1.1-5.1-7.5-3.9-8.4-2.5ZM789.5,651.7c-7.4-4.6-4.8,7.8,1.9,6.6.6-.6-1.6-6.4-1.9-6.6ZM933.1,653.3h-3.4v5h3.4v-5ZM1152.5,656.6c-2.6-3.2-2.6-.6-3,2.1-.6,3.7,6.2,26.5,8.9,26.5s2.2-4.7,1.8-6.8c-1.3-6.9-3.3-11.5-6.5-16.9-1.5-2.5-1-4.8-1.2-5h0ZM958.5,719c-1.7-17.3,10.7-31.5,20.5-44.4,2.9-3.9,8.9-5.9,8.1-12.9-16.3,4.7-39.3,33.2-40.5,49.8-1.9,25.5,25.2,28.4,35.8,7,1.8-3.6,9.8-28.5.6-26.4-7.3,9.7-8.4,29.1-24.5,27h0ZM791.4,665.1c-.9-.9-8.8,2.4-6.7,3.4h6.7v-3.4ZM1171.8,674.4c-.8-.9-.7-4.4-2.4-1.7-1.9,6,2.2,17,1.3,21.5-1,5.4-16.5,13.9-5.5,21.5,1-4.1,6.2-8.8,7.5-11.5.6-1.2-.5-4.2.3-5.2.7-.8,4.6.8,4.9-1.1.7-3.3-.6-15.1-1.8-18.5-1.2-3.5-2.5-3.1-4.3-5h0ZM1044.5,678.5h-5.1v6.7h5.1v-6.7ZM713.8,683.6c-20.4-.2-18.9,29.6,2.2,23.3,2.1-.6,6.9-5.5,7.6-7.6,4.2-12.5-11.6.8-14.8-2.2l5-13.5h0ZM1127.2,705.5l-4.6-16.3-5.5-3.9c-2.3,2.7,4.5,20.1,10.1,20.2ZM909.5,687c-29,5.5-8.7,37.9,6.8,17.7,13.4-17.6-10.8-3.2-11.8-4.2-3.4-3.6,6.8-11.8,5-13.5h0ZM1164.3,695.4c1.8-1.9-2.5-9.5-6.7-8.4-1.9,2.3,4.8,10.5,6.7,8.4ZM1069.8,700.5c8.7.8,11.2-3.2,4.2-8.4l-4.2,8.4ZM759.3,700.5c.4-3.1.1-4.9-2.5-6.7h-2.5v6.7h5ZM1115.4,700.5c-6.6,0-6.7,6.7,0,6.7v-6.7ZM1095.5,706.3c0-2.1-1.7-3.8-3.8-3.8s-3.8,1.7-3.8,3.8,1.7,3.8,3.8,3.8,3.8-1.7,3.8-3.8ZM1140.7,705.5c-4-1.2-4.6,3.1-5,6.7h5v-6.7ZM730.6,708.9c-.3-.3-2.3.1-3.3,0v5h5c-1.1-1.3-1.5-4.9-1.7-5h0ZM1076.6,725.7c7.1-10.2-25,1.2-27.4,2.1-30.3,11.6-58.6,31-77.6,57.4-4.5,6.2-28.1,43.3-23.2,48.4,4.1.5,7.3-1.5,10.2-4.1,13.3-11.9,26.8-31.5,39.6-44.8,23.3-24.2,48.3-44,78.5-59h0ZM663.2,724.1c-5.8-5.3-32.8,18-37.1,22.8-11,12.5-18.7,39.5,5.7,36.1,12.4-1.7,22.1-22.2,21.2-33.6-9.5.3-10,10.7-14.4,16.7-6,8.2-17.7,13.7-13.4-1.6,6-21.5,32-21.4,38-40.4h0ZM708.7,727.5c-1.7-1.7-6.8,3.3-5,5s6.8-3.3,5-5ZM696.9,740.9c-5.5-.6-9.4.4-8.4,6.7h8.4v-6.7ZM713.8,766.2c6.9,2.8,15.7-15.3,9.2-16.8s-9.7,11.9-9.2,16.8ZM737.4,761.2c-3.6-2.8-9.2,1-6.7,6.7,1.4,1.8,8.5-5.3,6.7-6.7ZM889.3,813.5c-1.9,1.9-2.9,22-9.3,25.3-3.3.3-3.3-2.1-4.1-4.3-4.3-12,2.8-30.9,8.6-41.8,3.3-6.2,11.3-11.1,9.8-19.7-19.7,12.1-33.9,41.9-30.3,64.8,2.3,14.8,19,18.5,26.1,4.4,4.6-8.9,4.7-16.7,2.4-26.2-.5-2-.5-5.4-3.3-2.5h0ZM718.8,783.1h-5.1s0,5.1,0,5.1h5.1s0-5.1,0-5.1ZM685.1,798.3c-5.3-5.2-22.3,20.4-14.3,21.9,8.7-3.2,15.4-12.4,14.3-21.9ZM831.9,803.4c-4.1-3.8-26.2,19.7-29.5,23.6-12.6,14.9-38.9,67.1-11.9,77.7,31.2,12.3,41.8-41.4,34.7-62.5-2.5-3.1-2.9.4-3.3,2.6-2.9,16.1-6.8,45.1-26.9,46.2-5.9-21.9,8.6-47.9,21.8-64.8,5.7-7.2,14.9-10.5,15.1-22.8h0ZM621,850.5c3.8-5.5-7.4-10.2-6.7,1.7.3.4,6.5-1.4,6.7-1.7ZM614.2,853.9c-.1-.1-3.6-.6-3.4.8,2.6,4.6,5.3,1.1,3.4-.8ZM933.1,859c-6.7-6.8-25.5,25.5-26.6,31.6-.6,3.5-.5,7-.4,10.6,4,4.2,20.9-20.1,22.7-23.7,3.1-6.1,5.3-11.3,4.3-18.4h0ZM659.8,879.2c.6.8,4.5-2.9,3.3-5.1-.6-.8-4.5,2.9-3.3,5.1ZM529.8,884.3h-5v3.4h5v-3.4ZM626,887.7c-5.2-.2-26,2.9-23.6,10.9s24-3.1,23.6-10.9ZM519.7,889.3v3.4h10.1v-3.4h-10.1ZM744.1,889.4c-26.6,5.4-36.5,25.7-35.5,51.5.3,7.9,6.1,31,2.7,36.2-2.6,3.9-8.9,0-10.8-2.8-6.4-9.1.7-40.6-16.3-17.5-23.7,32.2,5.2,58.6.5,83.1-.5,2.6-6,11.7-4.7,13,35.9-16,.8-50.9,8.5-77.6,3.3,1.6,3.8,6.2,6.9,9.1,4.9,4.6,10.3,5.7,16.8,3.6,16.8-5.4,4.2-42.6,5.1-55.5.6-8.6,6.5-21.7,12.6-28.1.5,5.5-1.1,9.8-.4,15.6,1.6,13.9,11.9,26.6,12.9,39.5.7,9.2-7,29.6,5.1,33.6,9.3,3.1,17.5-3.1,20.4-11.8,1.2-3.4,2-17.5,5.2-8.7,9.8,27.4-8.5,38.5-20.1,57.8-4.9,8.2-13.5,24.8-.3,29.2.2-23.1,23.8-34.1,30.5-53,5.4-15.2,2.2-35.5-7.2-48.7-7.2-10.2-9-11.2-12,.9-2.2,8.9-1.7,22.4-13,24.9-.2-9.7,2.4-17.7,1.5-27.6-1.9-19.4-16.1-27.5-12.8-50.4.9-5.9,4.3-10.6,4.6-16.4h0ZM548.4,894.4l-8.4,1.7c2.5,9.8,8.7,8.6,8.4-1.7ZM509.6,901.2c-1.3,6.9,11.3,14.7,13.5,7.6,2-6.4-9.4-7.8-13.5-7.6ZM538.3,901.2l-6.7.8c2.6,3.7,5.2,3.3,6.7-.8ZM486,902.8c-1.7-1.7-6.8,3.3-5,5s6.8-3.3,5-5ZM546.7,916.3c-4.3-7.8-9.9-9.6-18.5-8.4-1.1,6.5,3,7.1,8.4,6.7l-5.1,3.4c.5,9.9,9.1-1.2,15.2-1.7h0ZM492.7,914.6c-.4-.4-8.8.5-8.4,3.3l8.4,5.1v-8.4h0ZM500.7,916.9c-.4-.3-3.9-2.4-4.5-1.4l3.3,7.6c-3.9-.7-9.7,2.8-5.1,6,1.2.8,9.8-.3,12.6,0,7,.9,11.7,7.7,11.1-7.7-2.9-.3-6.3.6-9,0-1.1-.2-2.1-8.7-5.3,0-1.5-1.1-1.7-3.3-3-4.5h0ZM567,931.5l1.7-16.9-8.4,11,6.8,5.9h0ZM528.2,936.6c1-.8,3.5,3.4,4.2,3.3,1.7,0,2.4-5.3,3.5-6.6,2.9-3.4,8.8-3.8,7.4-10.3-5.6,4.5-12.9,9.5-19.9,11.3-8.5,2.2-16.5-3.6-12.2,10.6,2.8.4,1.4-3.5,4.1-4.5,1.5-.5,7.7,1.7,9.9.9,2.8-1,2.6-4.7,2.8-4.8h0ZM529.8,924.8c-3.1-.4-5.8,0-6.7,3.3h6.7v-3.3ZM594,926.5l-5,.8c1.5,1.8,2.6,3.1,5,2.5v-3.4h0ZM556.9,931.3l-3.4.9,2.2,8.5,3.4-.9-2.2-8.5ZM575.4,936.6c.8-7-2.5-7-1.7,0h1.7ZM580.5,934.9c1.2-2.4-1.1-4.5-1.7-3.4-1.2,2.4,1.1,4.5,1.7,3.4ZM521.4,945l-10.1,4.2c2.7,3.6,5.6,4.9,10.1,4.2v-8.4ZM546.7,961.9c6.8,1.2,11.9-3,5.9-8.4l-5.9,8.4ZM572,956.8c-6.5,2.6-17.4-4.4-15.2,5,6.8-1.3,16.2,5.9,15.2-5ZM843.7,960.2c-4.9-5.4-23.5,30.4.9,28.8,15.9-1,19.7-27.3,13.5-27.1-2,0-8.4,19.1-16,16.8l1.7-18.5h0ZM522.7,962.4c-5.6-2.1-11.5,3-11.4,8.7,3.8,5.3,5.5.5,8.9-1.2,2-1,6-1.1,6.2-1.3,1.4-1.3-3.5-6.1-3.8-6.2h0ZM531.5,968.6h-3.4v5c2.4-.6,3.9-2.7,3.4-5h0ZM553.5,968.6c-3.1.2-17.6,3-16.9,7.6s4,.7,5.2.2c10.7-3.6,9.6-1.3,20.1.6v-5l-8.4,1.7v-5.1s0,0,0,0ZM590.6,970.3l-8.4,1.7c3.8,7.6-2.2,2.5-1.7,8.4,6.9,1.8,9.7-3.7,10.1-10.1ZM627.7,973.7h-3.4v5h3.4v-5ZM648,980.4l-10.1-1.7v5.1l5-1.7,3.4,6.7,1.7-8.4h0ZM546.7,983.8c-7.6-1.5-7.2,6.7-8.4,11.8,2.3,2.4,9.9-8.7,8.4-11.8ZM538.3,987.2h-5v3.4h5v-3.4ZM577.1,1000.6c3.7-3.5-6.3-5.8-6.7-6.1-1.6-1.2-4-7.8-6.7-5.7-.4.3-2.6,6.1,0,7.6s4.4-.5,6-.3c1.1.2,4,7.8,7.5,4.5h0ZM604.1,988.9c-9.1-.9-21.3,2.6-23.5,12.5,6.1,13.6,25.6-10.9,23.5-12.5ZM610.8,999c-.6-.6-6.5-.2-7.6,1.7-1.8,3.3,4.6-.1.8,5,3.4,1.1,9.7-3.9,6.7-6.7h0ZM624.3,1007.4c-1.6-1.7-7.3,2-8.4,4.2,3.9,6.8,11.3-1.3,8.4-4.2ZM669.9,1015.8h-3.4v5h3.4v-5ZM551.8,1027.6c0-2.8,0-5.6,0-8.4-3.3,1-9.6.7-12.2,1.7-1,.4-4.2,2.7-8.1,4.4-5.3,2.3-8.4,11.3,0,9.1-3.1,10.4,4.2-3.1,6.8-4.2s5.3-.3,7.2-.9c1.6-.6,1.1-3.1,2-3.1.9,0,2.9,1.6,4.3,1.5.1,4.6-.8,6.9,5.7,4.8,2.6-.8,3.9-5.3,2.7-6.5-.3-.3-6.3,1.5-8.4,1.7h0ZM583.8,1034.4c1.7-1.5-4.7-9.8-6.7-4.2-1.9,5.4,2.3,4.4,6.7,4.2ZM575.4,1031c-3-3.8-10.1,13.7,0,10.1v-10.1ZM565.3,1034.4h-3.4v5h3.4v-5ZM550.1,1041.2l8.4-.9c-5-6.2-4,.6-8.4.9ZM583.7,1039.6c-.2-.2-3.9-1-4.9-1.8,1.8,6.2-5.3,4.8-5.1,10.1,3.8.7,13.2-4.1,10-8.3h0ZM609.2,1044.5c-4.5-1.6-2.7,3-4.5,3.4-2.3.5-5-.3-7.4,0-.9,8.4,1.6,3.7,6,4.2,1.7.2,3,2.5,3.3,2.5,2.6,0,3-7.6,2.5-10.1h0ZM813.3,1049.6c-5.4.6-6.8,5.9-12.9,6.7-5.3.7-3.8-3.1-4.9-3.4-4.4-1.2-3.7,2-4.9,2.7-3.3,2-9.3,4.1-5.3,10.8,6.4,10.6,31.4-5,27.9-16.9h0ZM614.2,1052.9v11.8h3.4v-11.8h-3.4ZM577.1,1054.6c-12.2-2.7-7.4,12.7-6.7,20.2,6.5-3.6,4.6,1.6,6.1,1.8s3.6-1.5,4.9-1.4c1,.1,4.1,8,7.5,4.6,5.2-5.3-14.1-9.3-15.2-11.3-.4-.8-1.8-8.9-1.6-9.6.8-2.8,5.3-1.5,5-4.4h0ZM561.9,1068.1v6.8s3.4,0,3.4,0v-6.8s-3.4,0-3.4,0ZM606.7,1076.5c-3.5.8-8.8,18.8-3.4,18.5,3.2-.2,12.7-20.7,3.4-18.5ZM594,1077.4l-4.3,4.3,5.9,5.9,4.3-4.3-5.9-5.9ZM691.5,1085.4c-1.7.4-3.3,2.5-5.6,2.9-4.8.7-27.6-1.7-24.3,9.1,3.5,11.7,45.7,5.9,37.1-11.7-2.4-1.4-4.7-1-7.2-.3h0ZM590.6,1090c-6.9,0-14.9-1.5-16.9,6.7,8.4-1.7,4,7.2,10.1,6.8l-1.6-9.3c4.1.5,8.5,2.1,8.4-4.2h0ZM653,1090c-1.6-1.8-6.9,3.4-5,5,2.8,2.5,7.6-2.2,5-5ZM646.3,1108.6c-1.7-1.7-6.8,3.3-5,5s6.8-3.3,5-5ZM636.2,1118.7c2.8-2.8-4.3-10.7-6.7-4.2-2.2,5.8,6,4.9,6.7,4.2Z"/>
            <path class="st0" d="M1068.1,395.2c-15.8-.4-35.7,9.3-42.5,24.2-8.5,18.6,6.7,40.2-2.2,60.2-9.9,22-47,10-51.1-9.7-5.6-26.9,20.2-39.9,27.8-62.5,5.2-15.4,3.3-27,.5-42.5,2.3-2.5,58.3,20.5,63.9,24.6,2.1,1.5,4.1,2.6,3.5,5.7h0Z"/>
            <path class="st0" d="M916.3,525.1c.3.4-2.8,5.8.9,6.7,5.9,1.4,5.2-4.5,5.9-5,.5-.3,6.9,3.7,7.7,5,1.9,3.4-5.5,6.6-.1,8.4s-.6-9.5,5.1-8.4c9,1.7,21.9,16.4,2.5,6.8.7,7.5-.8,4.6-6.7,4.2l8.4,4.2c1.1,1.1-5.6,6.4-9.1,3.5-2.3-1.8.6-5.6-2.7-5.2,2,9.4-4.3,11-11.8,13.5-2-4,.8-8.9,0-12.3-.2-1-10.4-5.6-6.8-9.6.9-1,6.9,3.5,8.4.8-4.8-5.5-17.1-5.3-18.6-13.5-1.1-6,6.2-.2,8,.2s7.9-.8,8.9.7h0ZM926.4,550.4c-3.5-.5-3.8-.2-3.4,3.4l3.4-3.4Z"/>
            <path class="st0" d="M516.1,992.4c.7.5.7,3.2,2,4,2.3,1.5,6.6,0,6.8,1.7.2,1.9-2.1,11.7-2.9,13.9-.7,1.8-3.1,1.7-3.8,3.4-1,2.3-1.4,13.9-4.3,13.8-2.7-1.4-10.5-15.6-9.3-16.8,3.2-1.1,4.3,3.5,6.7,2.6,1.5-.5,10.6-7.2,8.5-9.3-5.9,1.6-12.1.9-16.8,5,.3-7.1-11-16.4,1.2-18.2.7-.1,11.5-.5,12-.1h0Z"/>
            <path class="st0" d="M1078.3,557.1c.5,7.4,1.1,22.3-7.9,25-16.3,4.8-6.8-22.1-3.9-18.2,1,2.3-2.3,9.5-1.7,10.1,4.8,4.3,8.7-6,4.3-11.8-2.5-3.4-8.9,1-7.6-5h16.9,0Z"/>
            <path class="st0" d="M1256,698.4c.2.3,2.8.3,2.9,1.4,1.3,9-10.5,12.7-5.2-2.7l-6.7,3.4c.8-4.7,3-10.9,1.7-15.7-.5-1.9-4.4-1.7-5-3.9-.9-3.4,3.5-7.4-3.5-12.4,6.2-5,14.5,20.1,15.8,24,.8,2.5-.5,5.2,0,6h0Z"/>
            <path class="st0" d="M1240.2,690.4c.9,9.5-9.7,9-11.4,10.5-.7.6-.4,3.3-1.4,4.5-2.3,3-5.6,0-2.4,6.9l-11.8,3.4,1.7-10.1,5.9,3.4c1.8-2.5,0-8.7.8-10.2,0-.2,2.1,1.3,3.4.6,4.1-2.1,8-10,15.2-9.1h0Z"/>
            <path class="st0" d="M1243.6,705.6c.1.1,0,1.7,1.3,3.3.6.7,2.4,1,2.9,1.7,3.9,6.4-3.9,6.7-9.2,6.8.4-4.6,5.1-5.9,1.7-10.9-.2-1.5,3-1.1,3.4-.8h0Z"/>
            <path class="st0" d="M534.9,827c.9,3.3-2,16.5-6.7,11.8-1.9-1.8,1.1-13.4,6.7-11.8Z"/>
            <path class="st0" d="M1220,670.1c-4.3,1.3-4-3.9-5.4-4.7-2.6-1.5-8.1,1.5-8.1-2,6,0,14.8-2.3,13.5,6.7Z"/>
            <rect class="st0" x="1226" y="711.5" width="3.4" height="11.8" transform="translate(509.4 1944.5) rotate(-90)"/>
            <path class="st0" d="M1223.4,663.4c-2.8-1.6-7.4-1.4-8.4-5,4.2-.4,8.9-.2,8.4,5Z"/>
            <rect class="st0" x="891" y="520" width="3.4" height="6.8" transform="translate(367.2 1414.9) rotate(-89.9)"/>
            <path class="st0" d="M1226.7,681.9v1.6c-4.1.2-5.9,1.1-5-3.4l5,1.7h0Z"/>
            <path class="st1" d="M744.1,889.4c-.3,5.8-3.7,10.5-4.6,16.4-3.3,22.9,11,31,12.8,50.4,1,9.9-1.6,18-1.5,27.6,11.3-2.5,10.8-16.1,13-24.9,3-12.1,4.8-11.1,12-.9,9.3,13.2,12.5,33.5,7.2,48.7-6.7,18.9-30.3,29.9-30.5,53-13.2-4.4-4.6-21,.3-29.2,11.7-19.3,29.9-30.4,20.1-57.8-3.2-8.8-4,5.3-5.2,8.7-3,8.7-11.2,14.9-20.4,11.8-12-4-4.4-24.4-5.1-33.6-1-12.9-11.3-25.6-12.9-39.5-.7-5.8.9-10.1.4-15.6-6.1,6.3-12,19.5-12.6,28.1-.9,12.9,11.7,50.1-5.1,55.5-6.5,2.1-11.9,1-16.8-3.6-3.1-2.9-3.6-7.5-6.9-9.1-7.7,26.6,27.4,61.6-8.5,77.6-1.3-1.3,4.2-10.4,4.7-13,4.7-24.5-24.2-51-.5-83.1,17-23.1,9.9,8.5,16.3,17.5,2,2.8,8.3,6.7,10.8,2.8,3.4-5.3-2.4-28.3-2.7-36.2-1-25.8,8.9-46.1,35.5-51.5h0Z"/>
            <path class="st1" d="M1076.6,725.7c-30.2,15-55.2,34.9-78.5,59-12.8,13.3-26.3,32.9-39.6,44.8-2.9,2.6-6.1,4.6-10.2,4.1-4.9-5.1,18.7-42.2,23.2-48.4,19-26.4,47.3-45.8,77.6-57.4,2.4-.9,34.5-12.3,27.4-2.1h0Z"/>
            <path class="st1" d="M831.9,803.4c-.2,12.3-9.5,15.6-15.1,22.8-13.3,16.9-27.8,42.9-21.8,64.8,20.2-1.1,24-30.2,26.9-46.2.4-2.1.8-5.7,3.3-2.6,7.1,21.1-3.5,74.8-34.7,62.5-27-10.6-.7-62.8,11.9-77.7,3.3-3.9,25.4-27.4,29.5-23.6h0Z"/>
            <path class="st1" d="M750.9,594.2v5c-15-1.2-52.9,16-55.6,31.3-.5,2.9,0,6.2-.1,9.2,20.6,2.3,22.8-24.6,40.5-28.7-5.8,12.2-10.9,24.8-19.4,35.4-15.7,14-39.4,9.1-34.2-15.6,5.3-25.5,45.6-39,68.8-36.6h0Z"/>
            <path class="st1" d="M958.5,719c16.1,2.1,17.2-17.3,24.5-27,9.2-2.1,1.2,22.8-.6,26.4-10.6,21.4-37.7,18.5-35.8-7,1.2-16.6,24.2-45.1,40.5-49.8.8,7.1-5.2,9.1-8.1,12.9-9.8,13-22.2,27.1-20.5,44.4h0Z"/>
            <path class="st1" d="M889.3,813.5c2.9-2.8,2.8.5,3.3,2.5,2.3,9.5,2.2,17.3-2.4,26.2-7.2,14.1-23.8,10.3-26.1-4.4-3.6-23,10.6-52.7,30.3-64.8,1.5,8.6-6.5,13.5-9.8,19.7-5.8,10.8-12.9,29.8-8.6,41.8.8,2.2.8,4.6,4.1,4.3,6.4-3.3,7.5-23.4,9.3-25.3h0Z"/>
            <path class="st1" d="M663.2,724.1c-6,19-32.1,18.9-38,40.4-4.3,15.3,7.4,9.9,13.4,1.6,4.4-6,4.9-16.5,14.4-16.7.9,11.5-8.8,31.9-21.2,33.6-24.4,3.4-16.7-23.6-5.7-36.1,4.3-4.8,31.3-28.1,37.1-22.8h0Z"/>
            <path class="st1" d="M933.1,859c.9,7.1-1.2,12.3-4.3,18.4-1.8,3.6-18.6,28-22.7,23.7,0-3.5-.2-7.1.4-10.6,1.1-6.1,19.9-38.4,26.6-31.6h0Z"/>
            <path class="st1" d="M691.5,1085.4c2.5-.6,4.8-1,7.2.3,8.6,17.5-33.6,23.4-37.1,11.7-3.3-10.9,19.4-8.5,24.3-9.1,2.3-.3,3.9-2.4,5.6-2.9h0Z"/>
            <path class="st1" d="M843.7,960.2l-1.7,18.5c7.6,2.2,14-16.8,16-16.8,6.2-.2,2.4,26.1-13.5,27.1-24.4,1.6-5.8-34.2-.9-28.8h0Z"/>
            <path class="st1" d="M713.8,683.6l-5,13.5c3.2,3,19.1-10.3,14.8,2.2-.7,2.1-5.5,7-7.6,7.6-21.1,6.4-22.6-23.5-2.2-23.3h0Z"/>
            <path class="st1" d="M813.3,1049.6c3.5,11.9-21.5,27.5-27.9,16.9-4.1-6.7,2-8.8,5.3-10.8,1.2-.7.5-3.9,4.9-2.7,1,.3-.4,4.1,4.9,3.4,6.1-.8,7.4-6.1,12.9-6.7h0Z"/>
            <path class="st1" d="M909.5,687c1.7,1.6-8.4,9.9-5,13.5,1,1.1,25.3-13.3,11.8,4.2-15.4,20.2-35.8-12.2-6.8-17.7h0Z"/>
            <path class="st1" d="M1171.8,674.4c1.8,2,3.1,1.5,4.3,5,1.2,3.4,2.5,15.1,1.8,18.5-.4,1.8-4.2.3-4.9,1.1-.9,1,.3,4-.3,5.2-1.3,2.7-6.5,7.4-7.5,11.5-11-7.5,4.5-16.1,5.5-21.5.8-4.5-3.2-15.5-1.3-21.5,1.7-2.7,1.6.9,2.4,1.7h0Z"/>
            <path class="st1" d="M821.7,587.4c-2.9,3.4-12.7-1.2-15.9-1.3-2.7-.1-12,4.4-11-1.1,1-5.9,12.5-9.9,17.6-9.3,4.4.6,12.8,7.7,9.3,11.7h0Z"/>
            <path class="st1" d="M604.1,988.9c2.1,1.6-17.4,26-23.5,12.5,2.2-9.8,14.4-13.3,23.5-12.5Z"/>
            <path class="st1" d="M500.7,916.9c1.4,1.2,1.5,3.4,3,4.5,3.2-8.7,4.2-.2,5.3,0,2.7.6,6.2-.4,9,0,.6,15.4-4,8.6-11.1,7.7-2.8-.3-11.4.8-12.6,0-4.7-3.2,1.2-6.6,5.1-6l-3.3-7.6c.7-1,4.1,1.1,4.5,1.4h0Z"/>
            <path class="st1" d="M776.2,557.1c-.2.2-3.3-.2-5,.9-2.3,1.6-2.6,9.7-6,.8l-12.7,15.2c-2.2-13.8,4-15,12.9-20.8,1.2-.8,1.5-3.9,3.2-4.4,4.8-1.5,9.3,6.4,7.4,8.3h0Z"/>
            <path class="st1" d="M528.2,936.6c-.2.2,0,3.8-2.8,4.8-2.2.8-8.4-1.5-9.9-.9-2.8,1-1.3,4.9-4.1,4.5-4.4-14.2,3.7-8.4,12.2-10.6,7-1.8,14.3-6.9,19.9-11.3,1.3,6.5-4.5,6.9-7.4,10.3-1.1,1.3-1.8,6.5-3.5,6.6-.7,0-3.2-4.1-4.2-3.3h0Z"/>
            <path class="st1" d="M788,641.5c-.1,7.8-9.5,8.3-13.4,11.1-1.6,1.2-9.1,13.7-11.9,10.8,3.2-12,10.9-26.3,25.3-21.9h0Z"/>
            <path class="st1" d="M551.8,1027.6c-1.4.1-3.4-1.5-4.3-1.5-.9,0-.4,2.5-2,3.1-1.9.7-4.6-.2-7.2.9s-9.9,14.6-6.8,4.2c-8.5,2.2-5.3-6.8,0-9.1,3.9-1.7,7.1-4,8.1-4.4,2.6-1,8.9-.7,12.2-1.7,0,2.8,0,5.6,0,8.4,2.1-.2,8.1-2,8.4-1.7,1.1,1.3-.1,5.7-2.7,6.5-6.5,2.1-5.6-.2-5.7-4.8h0Z"/>
            <path class="st1" d="M685.1,798.3c1.1,9.6-5.6,18.7-14.3,21.9-8-1.6,9-27.1,14.3-21.9Z"/>
            <path class="st1" d="M626,887.7c.4,7.7-21.2,18.9-23.6,10.9s18.4-11.1,23.6-10.9Z"/>
            <path class="st1" d="M1155.2,645.5c.4.3,4.2,4.1,4.4,4.3,6.7,9.9-11.5,2.8-12.2,3.4-.4.4-.6,8.8-4.2,10.1l-.8-16.8,5,1.7v-6.7c2.3,1.8,5.8,2.6,7.8,4h0Z"/>
            <path class="st1" d="M577.1,1054.6c.4,2.9-4.1,1.6-5,4.4-.2.7,1.2,8.8,1.6,9.6,1.1,2.1,20.4,6,15.2,11.3-3.3,3.4-6.5-4.5-7.5-4.6-1.3-.1-3.4,1.6-4.9,1.4s.3-5.4-6.1-1.8c-.7-7.6-5.4-22.9,6.7-20.2h0Z"/>
            <path class="st1" d="M1004,580.7c.2-2.2,1.6-4.5,1.7-6.7,14.3,4.6,10.6,6.5-1.7,6.7,0,1.1,0,2.3,0,3.4,2.7-2.1,22.6,5.1,18.6,8.4-4.3,1.5-31.9-5.2-25.3-11.8.3-.3,5.2,0,6.7,0h0Z"/>
            <path class="st1" d="M546.7,916.3c-6.1.6-14.7,11.6-15.2,1.7l5.1-3.4c-5.4.4-9.5-.3-8.4-6.7,8.7-1.2,14.2.6,18.5,8.4h0Z"/>
            <path class="st1" d="M1152.5,656.6c.2.2-.3,2.5,1.2,5,3.2,5.3,5.2,9.9,6.5,16.9.4,2.1,1,6.9-1.8,6.8s-9.5-22.8-8.9-26.5c.4-2.7.4-5.3,3-2.1h0Z"/>
            <path class="st1" d="M1008.3,621.2c4.9-1.1,6.1,16.2-1.7,16.2-10.4,0-4.1-13.3,1.7-16.2Z"/>
            <path class="st1" d="M713.8,766.2c-.5-4.9,2.7-18.3,9.2-16.8s-2.2,19.6-9.2,16.8Z"/>
            <path class="st1" d="M803.2,609.4c0,11.1,9.2,5.8,11,8.4,4.3,6.3-11.3,5.4-14.4,5.1,2.3-4.6-5.3-13.5,3.4-13.5h0Z"/>
            <path class="st1" d="M838.6,580.7l1.7,16.9-10.1-1.7c-1-1.1,3.1-16.8,8.4-15.1Z"/>
            <path class="st1" d="M606.7,1076.5c9.3-2.2-.2,18.4-3.4,18.5-5.4.3-.1-17.7,3.4-18.5Z"/>
            <path class="st1" d="M858.4,564.5c.6,4.5,6,.8,5.5,5.3-.2,2-5.7,13.5-8.4,11-5.6-9.7,0-8.3.1-9.4.5-3.8-5.9-9.5,2.8-6.8h0Z"/>
            <path class="st1" d="M522.7,962.4c.3.1,5.2,4.9,3.8,6.2-.2.2-4.2.4-6.2,1.3-3.5,1.7-5.2,6.5-8.9,1.2-.1-5.7,5.8-10.9,11.4-8.7h0Z"/>
            <path class="st1" d="M590.6,1090c0,6.3-4.3,4.6-8.4,4.2l1.6,9.3c-6.1.4-1.8-8.5-10.1-6.8,2-8.2,10-6.8,16.9-6.7h0Z"/>
            <path class="st1" d="M509.6,901.2c4.1-.3,15.4,1.2,13.5,7.6-2.2,7.1-14.8-.7-13.5-7.6Z"/>
            <path class="st1" d="M1127.2,705.5c-5.6-.1-12.4-17.5-10.1-20.2l5.5,3.9,4.6,16.3Z"/>
            <polygon class="st1" points="567 931.5 560.2 925.6 568.6 914.6 567 931.5"/>
            <path class="st1" d="M852.1,548.7c2.8,3.7-6.5,7.7-11.8,2.5-9.5-9.3,10.5-4.2,11.8-2.5Z"/>
            <path class="st1" d="M553.5,968.6v5.1s8.4-1.7,8.4-1.7v5c-10.5-1.9-9.3-4.3-20.1-.6-1.2.4-4.5,4.2-5.2-.2s13.7-7.4,16.9-7.6h0Z"/>
            <path class="st1" d="M572,956.8c1,11-8.4,3.7-15.2,5-2.2-9.5,8.7-2.5,15.2-5Z"/>
            <path class="st1" d="M1161.7,623.5c1-1.7,2.3,1.5,1.5-3.5-1.3-8.5,5.6-1.2,5.7.4,0,1.1-5.5,16.7-9.6,8.4-.1-2.3,1.5-3.7,2.4-5.3h0Z"/>
            <path class="st1" d="M609.2,1044.5c.5,2.5,0,10.1-2.5,10.1-.3,0-1.6-2.4-3.3-2.5-4.4-.5-6.9,4.2-6-4.2,2.4-.2,5.1.5,7.4,0,1.8-.4,0-5,4.5-3.4Z"/>
            <path class="st1" d="M921.3,617.8c-7.1,0-11.8-.3-10.1-8.4,4.8.7,11.6,1.9,10.1,8.4Z"/>
            <path class="st1" d="M1022.6,646.5c.5,10.7-12.3,9.7-9.3,0h9.3Z"/>
            <path class="st1" d="M590.6,970.3c-.4,6.4-3.2,11.9-10.1,10.1-.5-5.9,5.5-.8,1.7-8.4l8.4-1.7Z"/>
            <path class="st1" d="M791.4,587.5c-2.6,2.6-5.1-2-5.6-2.3-2.7-1.6-6.8-2.5-6.2-6.1,4.7-2.9,15.5,4.7,11.8,8.4Z"/>
            <path class="st1" d="M1174.4,592.5c1.4,1.2-7.5,13.9-11.8,11.8,0-4.7,1.8-7.8,6.7-6.7-2.8-6.7-2-5.1,5-5Z"/>
            <path class="st1" d="M546.7,983.8c1.5,3.1-6.1,14.2-8.4,11.8,1.2-5.1.9-13.3,8.4-11.8Z"/>
            <path class="st1" d="M546.7,961.9l5.9-8.4c6.1,5.4,1,9.6-5.9,8.4Z"/>
            <path class="st1" d="M521.4,945v8.4c-4.5.7-7.5-.6-10.1-4.2l10.1-4.2Z"/>
            <path class="st1" d="M583.7,1039.6c3.2,4.1-6.2,8.9-10,8.3-.2-5.3,6.9-3.9,5.1-10.1,1,.9,4.7,1.6,4.9,1.8h0Z"/>
            <path class="st1" d="M696.9,740.9v6.7s-8.4,0-8.4,0c-1-6.4,2.9-7.4,8.4-6.7Z"/>
            <path class="st1" d="M1069.8,700.5l4.2-8.4c7,5.2,4.5,9.2-4.2,8.4Z"/>
            <path class="st1" d="M548.4,894.4c.3,10.3-5.9,11.5-8.4,1.7l8.4-1.7Z"/>
            <path class="st1" d="M1027.6,651.6c1-1.4,9.6-2.6,8.4,2.5-1.6,7.2-12.1,2.8-8.4-2.5Z"/>
            <path class="st1" d="M1194.7,622.9c-8.3.7.1-12.5,3.4-13.5l-3.4,13.5Z"/>
            <polygon class="st1" points="648 980.4 646.3 988.8 642.9 982.1 637.9 983.8 637.9 978.7 648 980.4"/>
            <path class="st1" d="M1189.6,617.8c-.2,3.9-2.3,14.4-6.7,10.1-1.9-1.9,1.9-11.6,6.7-10.1Z"/>
            <path class="st1" d="M891,553.7c-1.4-4.3,9.1-8.9,10.1-4.2s-7.6,4.7-10.1,4.2Z"/>
            <path class="st1" d="M948.3,614.5c-2,1.7-5.3-5-8.4-4.2,5.9-8.6,13.9-.7,8.4,4.2Z"/>
            <rect class="st1" x="591.8" y="1078.2" width="6" height="8.4" transform="translate(-591.3 738.1) rotate(-45)"/>
            <path class="st1" d="M577.1,1000.6c-3.4,3.3-6.3-4.3-7.5-4.5-1.7-.2-3.6,1.8-6,.3s-.4-7.3,0-7.6c2.7-2.2,5.1,4.4,6.7,5.7.4.3,10.4,2.6,6.7,6.1h0Z"/>
            <path class="st1" d="M575.4,1031v10.1c-10.1,3.6-3-14,0-10.1Z"/>
            <circle class="st1" cx="1091.7" cy="706.3" r="3.8"/>
            <path class="st1" d="M492.7,914.6v8.4l-8.4-5.1c-.4-2.9,8-3.8,8.4-3.3h0Z"/>
            <path class="st1" d="M624.3,1007.4c2.9,2.9-4.5,11-8.4,4.2,1.1-2.2,6.8-5.9,8.4-4.2Z"/>
            <rect class="st1" x="610" y="1057.2" width="11.8" height="3.4" transform="translate(-443.4 1674.1) rotate(-90)"/>
            <path class="st1" d="M621,850.5c-.2.3-6.4,2.1-6.7,1.7-.7-11.9,10.5-7.2,6.7-1.7Z"/>
            <path class="st1" d="M636.2,1118.7c-.7.7-8.9,1.6-6.7-4.2,2.4-6.5,9.5,1.4,6.7,4.2Z"/>
            <path class="st1" d="M872.4,557.1v6.7c-9.1-.3-10.4-8.7,0-6.7Z"/>
            <path class="st1" d="M610.8,999c2.9,2.9-3.4,7.9-6.7,6.7,3.7-5.2-2.6-1.8-.8-5,1.1-1.9,7-2.3,7.6-1.7h0Z"/>
            <path class="st1" d="M1164.3,695.4c-1.9,2.1-8.7-6.1-6.7-8.4,4.2-1.1,8.5,6.5,6.7,8.4Z"/>
            <path class="st1" d="M1157.6,590.8c-2.3,2.4-8.3-6.9-6.7-8.4,2.3-2.2,9,6,6.7,8.4Z"/>
            <path class="st1" d="M872.4,577.4c.2,6.9-8.6,6.9-8.4,0h8.4Z"/>
            <path class="st1" d="M583.8,1034.4c-4.4.2-8.7,1.2-6.7-4.2,2-5.6,8.4,2.7,6.7,4.2Z"/>
            <rect class="st1" x="523.1" y="886" width="3.4" height="10.1" transform="translate(-366.7 1415.1) rotate(-89.9)"/>
            <path class="st1" d="M737.4,761.2c1.8,1.4-5.3,8.5-6.7,6.7-2.5-5.7,3.1-9.5,6.7-6.7Z"/>
            <rect class="st1" x="1039.4" y="678.5" width="5.1" height="6.7"/>
            <path class="st1" d="M1184.6,639.7c1.1,18.8-6.8,1.5-5,0,.4-.4,3.7.2,5,0Z"/>
            <path class="st1" d="M789.5,651.7c.3.2,2.4,6,1.9,6.6-6.7,1.3-9.3-11.1-1.9-6.6Z"/>
            <path class="st1" d="M759.3,700.5h-5v-6.7h2.5c2.7,1.8,2.9,3.6,2.5,6.7h0Z"/>
            <path class="st1" d="M1140.7,705.5v6.7h-5c.4-3.7,1.1-8,5-6.7Z"/>
            <path class="st1" d="M550.1,1041.2c4.4-.3,3.3-7.1,8.4-.9l-8.4.9Z"/>
            <path class="st1" d="M1000.6,577.4c-1.1,1-5.9-.4-6.7-2.5-2.2-5.9,10.1-.6,6.7,2.5Z"/>
            <path class="st1" d="M1115.4,700.5v6.7c-6.7,0-6.6-6.7,0-6.7Z"/>
            <path class="st1" d="M784.6,548.7c1.6,3.4-3,8.7-5,6.7-.9-.9,1.9-9.2,5-6.7Z"/>
            <path class="st1" d="M958.4,626.3c-3.3,0-5.9,1.1-5-2.5l4.2-4.2.8,6.7h0Z"/>
            <rect class="st1" x="554.5" y="931.6" width="3.6" height="8.8" transform="translate(-219.2 171.7) rotate(-14.7)"/>
            <rect class="st1" x="713.7" y="783.2" width="5.1" height="5.1" transform="translate(-2.7 2.5) rotate(-.2)"/>
            <rect class="st1" x="818.3" y="545.3" width="5.1" height="5.1" transform="translate(270.2 1366.8) rotate(-89.8)"/>
            <path class="st1" d="M820.1,602.6c-6.5-.5-5.4-3.2-.8-6.7l.8,6.7Z"/>
            <path class="st1" d="M1000.6,644.8c.5.5,1.1,6.4-2.5,5-6.1-2.3-.4-8,2.5-5Z"/>
            <path class="st1" d="M769.5,592.5c.5.5,1.1,6.4-2.5,5-6.1-2.3-.4-8,2.5-5Z"/>
            <rect class="st1" x="560.2" y="1069.8" width="6.8" height="3.4" transform="translate(-509.2 1632.7) rotate(-89.9)"/>
            <path class="st1" d="M1029.3,639.8c2.5,2.8-2.2,7.6-5,5-1.8-1.6,3.4-6.8,5-5Z"/>
            <path class="st1" d="M653,1090c2.5,2.9-2.2,7.6-5,5-1.8-1.6,3.5-6.8,5-5Z"/>
            <path class="st1" d="M772.8,604.3c-2.9,2.5-7.6-2.2-5-5,1.6-1.8,6.8,3.5,5,5Z"/>
            <path class="st1" d="M745.8,646.5c1.8,1.6-3.4,6.8-5,5-2.5-2.8,2.2-7.6,5-5Z"/>
            <path class="st1" d="M813.3,601c1.8,1.6-3.2,7.7-5,2.5-1.3-3.6,4.4-3.1,5-2.5Z"/>
            <path class="st1" d="M646.3,1108.6c1.7,1.7-3.4,6.8-5,5s3.4-6.8,5-5Z"/>
            <path class="st1" d="M730.6,708.9c.2.2.6,3.8,1.7,5h-5.1v-5c1,.1,3-.3,3.3,0h0Z"/>
            <path class="st1" d="M529.8,924.8v3.4h-6.7c.9-3.4,3.6-3.8,6.7-3.3h0Z"/>
            <path class="st1" d="M1203.1,631.3h-6.7v-3.3c3.1-.4,5.8,0,6.7,3.3Z"/>
            <path class="st1" d="M993.9,616.2c1.7,1.7-3.3,6.8-5,5-1.7-1.7,3.3-6.8,5-5Z"/>
            <path class="st1" d="M708.7,727.5c1.7,1.7-3.3,6.8-5,5s3.3-6.8,5-5Z"/>
            <path class="st1" d="M486,902.8c1.7,1.7-3.3,6.8-5,5s3.3-6.8,5-5Z"/>
            <rect class="st1" x="533.2" y="987.2" width="5" height="3.4"/>
            <rect class="st1" x="624.4" y="973.7" width="3.4" height="5"/>
            <rect class="st1" x="524.8" y="884.3" width="5" height="3.4"/>
            <path class="st1" d="M538.3,901.2c-1.5,4.1-4.1,4.5-6.7.8l6.7-.8Z"/>
            <rect class="st1" x="666.5" y="1015.8" width="3.4" height="5"/>
            <rect class="st1" x="784.7" y="617.8" width="3.4" height="5"/>
            <rect class="st1" x="929.8" y="653.3" width="3.4" height="5"/>
            <rect class="st1" x="821.8" y="590.9" width="5" height="3.4"/>
            <rect class="st1" x="783" y="601" width="3.4" height="5"/>
            <rect class="st1" x="561.9" y="1034.4" width="3.4" height="5"/>
            <path class="st1" d="M1160.9,599.3c2.6,3.2-3.1,5.3-5,.8-1.7-4,4.8-1.1,5-.8Z"/>
            <path class="st1" d="M791.4,665.1v3.4h-6.7c-2-.9,5.8-4.3,6.7-3.4h0Z"/>
            <path class="st1" d="M956.8,606v3.4c-2.5.5-3.5-.7-5-2.5l5-.8h0Z"/>
            <path class="st1" d="M531.5,968.6c.5,2.3-.9,4.5-3.4,5v-5h3.4Z"/>
            <path class="st1" d="M594,926.5v3.4c-2.5.5-3.5-.7-5-2.5l5-.8h0Z"/>
            <path class="st1" d="M842,543.6l-5-5c3.1-.6,5.6,1.8,5,5Z"/>
            <path class="st1" d="M982.1,609.4v3.4h-5c.6-2.4,2.7-3.9,5-3.3h0Z"/>
            <circle class="st1" cx="982.1" cy="617.8" r="2.1"/>
            <circle class="st1" cx="772.9" cy="592.5" r="2.1"/>
            <path class="st1" d="M992.2,609.4l-1.7,5h-1.6c-.2-4.1-1.1-5.9,3.4-5h0Z"/>
            <circle class="st1" cx="1186.3" cy="631.3" r="2.1"/>
            <path class="st1" d="M659.8,879.2c-1.1-2.1,2.7-5.9,3.3-5.1,1.1,2.1-2.7,5.9-3.3,5.1Z"/>
            <circle class="st1" cx="933.2" cy="606" r="2.1"/>
            <circle class="st1" cx="847.1" cy="602.6" r="2.1"/>
            <path class="st1" d="M575.4,936.6h-1.7c-.8-7,2.5-7,1.7,0Z"/>
            <path class="st1" d="M614.2,853.9c1.9,2-.7,5.4-3.4.8-.2-1.5,3.2-.9,3.4-.8Z"/>
            <path class="st1" d="M580.5,934.9c-.6,1.1-2.9-1-1.7-3.4.6-1.1,2.9,1,1.7,3.4Z"/>
            <path class="st1" d="M926.4,550.4l-3.4,3.4c-.5-3.5-.2-3.8,3.4-3.4Z"/>
          </g>
        </g>
        <path class="st1" d="M370.9,462.3c-5.9,6-17.2,2.7-16.6-8.9.9-19.8,37.8-24.1,38.6-13.5.6,7.7-8.4,4-11.5,4.9-9.4,2.6-7.2,14.2-10.5,17.5h0Z"/>
        <path class="st1" d="M356.1,423.9c-2.3,3.1-35.2,3-32.1-8.4,2.1-3.1,30.5.7,32.1,8.4Z"/>
        <path class="st1" d="M372.9,412.1c-1.9,3.2-5.9,7.9-10.1,6.7-3.3-3.4,6.2-27.9,15.2-23.6.9.9-3.9,14.9-5.1,16.9,3.6-.1,7.7-.6,10.3,2.4,6.9,8.1-13.9,13.9-10.3-2.4Z"/>
        <ellipse class="st1" cx="344.2" cy="433.3" rx="5.9" ry="5.9"/>
        <path class="st1" d="M376.3,489.7l-3.4-8.4c6.6-1.2,9.9,5.3,3.4,8.4Z"/>
        <rect class="st1" x="449.5" y="502.8" width="3.8" height="7.5" transform="translate(-141.4 176.4) rotate(-19.2)"/>
        <path class="st1" d="M367.9,474.5v3.4c-2.5.5-3.5-.7-5-2.5l5-.8h0Z"/>
        <g>
          <path class="st0" d="M951.7,948.4c12.1,13.3,25.1-2,32.4-12.3,2.6-3.7,11.9-21.6,13.1-22.4,9.3-6,2,19.1,1.3,21.5-3.8,12.9-11.2,29-19.7,39.3-6,7.3-30.7,26.6-31.8,32.4-1.9,9.6,8.5,10.1,15.4,8.5,4.2-1,16.1-12.8,12.2-1.3-11.6,34.5-42.1,33-65.8,52.3-9.6,7.8-18.7,18.5-24.5,29.5,14.7-3.9,28.5-14.3,44.5-12.5,2.7.3,15.4,3.6,14.5,7.4-36.1,16.9-49.7,54.1-69.8,85.4-27.6,43-63.5,71.4-112.4,87.5-1.6-6.5,4-8.6,5.9-13.5,2.7-6.9,6.3-28.9-6.4-26.7-9,1.5-30.1,25.7-38.4,32.6-37.9,31.7-96.2,55.6-146,56.5-1.7,0-8.9-.9-7.6-4.2,1.5-3.5,22.1-12.4,27.9-17.7,5.8-5.3,11-12.9,12.6-20.3-22,3.8-42.9,12.1-65.2,15-70.7,8.9-141.8-7.7-201-46.6-41.2-27.2-72.3-70.1-114-95.1-6.6-4-29-12.6-32.4-16.5-1.1-1.3-1.8-2.4,0-3.4,7.9-4.1,31.8-3.9,41.3-3.4,3-3-7.9-12.3-10.3-14.2-20.5-17.1-47.1-28.5-67.4-47.3-26.1-24.2-47-68.8-52.3-103.7,8.9,1.1,15.2,13.7,24.5,13.6,5.6,0,12.6-8.9,12.3-14-.7-14.3-29.4-49.3-37.7-65.4-21.1-41-28.7-88.1-22.5-133.8.7-5.1,8.1-40.4,9.9-41.6,6.8-4.6,10.5,20,13.1,24.8,9.3,17.1,32.1,14.6,38-4.9,10.7-35.4-16.2-67.5-23.7-100.5-10.3-45.4,7.5-87.9,37.4-121.8,7.3-8.3,17.4-19,27.8-22.8-10.1,34.1-22.5,69.8-3.6,103.2,7.1,12.6,21.4,25.3,34.7,12.2,14.6-14.4,3.5-30.5,1-47.1,11,1.3,34.8,11.9,41.3-3.4,9.2-21.7-35.3-48.9-37.8-73.5-1.2-11.8,9.9-44.9,21-49.6,3.4-1.4,2.4,2.3,2.5,4.2.9,17.4-6.3,23.4,5.3,41.9,14.2,22.7,43.4,24.7,58.7,42.5,19.5,22.6,13.3,72.3,51.7,74.9,26.9,1.8,17.1-31.6,30.1-45.5,1-1.1,3.4-4.8,5.1-1.7,1.6,2.9,2.9,13.3,5.1,18.5,10.6,25.9,35.4,40.1,45.5,64.2,7.1,16.8,11.5,41,7.6,59-18.8-44-65.6-81-115.4-77.3-5.8.4-23.2,6.1-26.4,4.1-10-14.5-15.4-22.3-15.2-40.6,0-2.9,3.9-14-.8-14.2-4.6-.3-18.4,18.9-20.2,23.6-4.8,12.4-1.9,53.1-17.2,57.1-10.9,2.9-9.9-26.8-13.2-26.8-4.9,3.5-4.9,9.6-7.3,14.6-6.1,12.9-14.4,25.3-18.4,38.9-2.5,8.7-2.8,19-5.4,26.6-3.8,11.1-17.7,29-23.5,42.3-30.8,71.7-35.9,189.4-3.4,260.9,32.2,71,88.4,135.5,161.3,166,6.9,2.9,17.2,4.2,23,7.4,4.9,2.7,10.5,11,15.5,14.9,115.7,91.9,279.4,72.4,391.4-15.2,70.4-55.1,123.3-147.3,171.3-222.6h0Z"/>
          <path class="st0" d="M253.1,1049.6c-1.8-2.6-12.3-12.2-15-16.2-2.3-3.5-13.2-23.4-11.8-25.7.4-.7,7.6-2.3,6.5-6.1-1-3.6-10.8-6.1-12.6-7.6-2.5-2-9.4-16-9.4-19.4,0-2.2,2-5.7,1.8-5.9-.5-.4-3.8.9-5.2-1-3.5-4.8-11.4-41.5-8.3-44.5,7.3-1.5,3.6,2.9,7.6,6.7,11.1-11.2-.5-13.1-11-11.8l6.8-6.7c-8.1,2.6-8.2-5.5-8.5-12.6-.4-8.7-.2-11.7,5.1-18.6-.1-2-4.8.4-5.2-1.8-.5-2.6-.5-19.2,0-21.8.4-1.8,3.8-.7,5.2-.9-9.9-8.5-1.8-20.8-.1-31.3,1.1-6.7.8-14.1,2.3-21.3,5.1-24.9,12.4-50.3,25.7-72.1,2.8,5.6,7.4,10.5,14.3,10.1,1.6-1.5-6.9-14.9-8-18.1-10-27.2-.2-51.2,9.8-76.3,2.3-1.8,7.7,6,10.5,7.1,15.1,6.2,26.5-12.5,29.8-25,2.9-10.8,1.6-22.7,3.6-33.5.4-2,.9-4,3.3-4.3,2.4,17.6,17.1,31.2,18.6,49.7,1.8,22.1-11,33.9-16.9,53.2,3.2.7,4-1.8,5.9-3.4,13.7-11.2,23-28,22.7-46.1,35.7-13,76.1.8,96.9,32.7,48.3,74,18.8,168.1,29.8,251.8,14,106.5,79.7,222.7,195.2,238.3,10.6,1.4,31.2,0,39.7,2.2,1.3.3,1.1,3.4,2.1,3.4,4,.3,7.9-4.4,10-5.1.8-.3-.6,6.3,7.6,0-1.2,4.7,0,13.9-.6,17.8-.4,2.5-11.5,7.1-12.9,5.8l.9-11.8c-12.9,2.1-5.3,14.3-5.9,15.1-.6.8-18.5,6.7-19.6,6.8-4,.1-6.3-3.8-8.2-3.4-2.2.5-2.3,6.1-4.3,7.6-1.5,1.2-18.9,4.9-20,4-.9-.6-2.6-9.7-6.9-9.9-2.7,11.8,4.4,10.6-7.9,13.2-31.3,6.7-65.5,3.8-96.7-1.4l6.7-3.3-9.3-1.7.8,3.4c-11.1,1.7-6.8-7-8.5-8.4-4.5-3.8-2.7,6.3-4.2,6.8-8.6-.2-9-5.1-11.3-6.5-1.1-.7-4,1.7-7.6.3-2.4-.9-10.5-6.8-8.9-8.9.4-.6,6.2,5.5,3.4-8.4l-7.4,6.9c-.9,6.4-3.7,5.8-9.5,4s-42.9-21.7-43.5-25.5c-.3-1.6,1.7-3.8,1.3-5.7-4.8,4-6.4,3.5-11.6.6-7.8-4.4-4.5-15.2-6.9-17.4-4.1-3.8-3.1,4.8-3.4,5-3,2.5-6.9-2.2-6.9-5.8,0-1.9,4.2.3,3.5-2.7-3.2.5-6.5,3-9.3.1-7.9-11.2-19-21.4-26.8-32.3-5.6-7.8-9.7-11.6-6.1-21.8l-3.4,5.1c-2.3,2.2-23-32.8-22.9-38,0-5.1,4.5-7.5-.7-14.3-2-1.4-2.7,9-8.7-3.9-11.6-24.8-26.9-81.2-29.9-108.4-.9-8.5.1-47.7-7.8-51.3-3.2-1.5-2.3,2.2-3,3.7-13.1,30,7,133.2,17.4,167.1.6,1.9,4.3.5,3.3,5.4,0,.4-6.8,3.9-7.6,4.2-1.2.5-.6-3.2-1.6-3.4-5.4-1-4.6,3.3-6.4,4.6-3.8,2.7-8.3,2.8-9.6,8.9,2.1-.4,4.6,1.4,6.3,1.2,3.7-.2,12.3-4.7,13.1-4.8,7.7-1,4.3,5.4,11,1.8-.4,3.3,2.5,7.7,1.8,10.7-.4,1.8-4.4,1.6-5,3.9-.2.8,1.1,14.3,1.5,15.8,4.5-.7,2.7-7.6,3.5-8.3,3.1-3,11.1,0,12.6,5.8,1.3,5,1.9,5.1,2.5,7.1.5,1.7-.3,5.1,0,5.5s8-4.8,6.7,5c-6.9-4.7-7,1.7-7.5,1.7-5.1-.2-4.8-6.3-4.3-10.1l-5.9,3.4c-2.4-3.3-6.6-6.1-7.6-10.1-5.3.9-12.8-6.4-11.8-11.8l6.8-3.4c-3.7.9-6.6-3.4-9.3-3.5-1.5,0,.9,4.2-4.3,2.8-9.3-2.5-18.1-11-15.1-21.3,5.9,1,9.7,4.8,8.4-3.4-9.2,4.1-5.2.4-7.8-3.2-.2-.3-4.6-5.4-4.9-5.2-6.5,2.9,1,3.8,1.7,5,1.3,2.1.7,10.8-2.6,11.9,3.4-18.8-3.6-7.3-8.6-10.8-2-1.4-1.1-5.4-1.5-6,.2.2,3.8.5,5,1.7v-5h-5c.1,1-.3,3.1,0,3.4h0ZM313.9,700.5c-3.3-3.1-13.8,7.5-8.4,11.8,3.2,2.6,9.5-10.7,8.4-11.8ZM322.3,712.3c-2.6,2.2-5.9-.2-7.4,0-1.3.2-.9,2.8-1.3,2.9-1.3.6-4.1-2-4.8-1.3-4.3,4.9,6.4,4.4,5.1,8.4h1.6c0-6.5,9-2.1,6.8-10.1h0ZM359.5,786.4c-3.3-2.3,2.9-27.3,3.2-32.8.3-5.3,1.9-16.4-3.3-19.4-1,13.4-10,26.4-11.7,39.8-4.4,35.1,30.4,32.8,31.6,3.3,0-1.4-1.1-12.4-4.7-9.3-2.7,2.3-6.1,24.7-15.1,18.4h0ZM283.5,747.7h-3.4v5h3.4v-5ZM248.1,794.9v26.1c0,4.8-7.6,23.1-14.4,16-11.9-12.4,14.8-55.3,10.1-70.9-2.9-.3-3.9,2.9-5.2,4.9-7.1,10.1-17,37.5-17.6,49.9-2,41.2,36.1,36.8,35.6,3.4,0-5.8-1.9-14.5-3.6-20.1-.7-2.5-2.2-8.6-5-9.4h0ZM261.6,779.7v5.1h6.8v-5.1h-6.8ZM313.4,809.8c2.3-6.7-6.5-7.8-8-6.4-.5.5.3,8,0,10.1,1.7,1.6,7.7-3,8-3.7ZM393,820.4c-5.7-3.6-4.9,4.3-6.1,7.9-7,22-22.2,50.2-14.4,74.1,6.4,19.5,33.1,16.3,35.9-7.1,1.1-9.4-9.6-71.3-15.4-74.9h0ZM210.3,844c-6.8,1.2-8.6,14.3,2.3,9.1,6.2-2.9,1.4-9.8-2.3-9.1ZM275,853.9c-2.8-2.5-7.6,2.2-5,5,1.6,1.8,6.9-3.4,5-5ZM295.3,865.7c-1.8-1.8-13.1.4-10.1,6.7l6.7,1.7-1.7-3.4h5.1c-.2-1.4.3-4.7,0-5.1h0ZM226.1,879.2h-5v3.4h5v-3.4ZM212.6,882.6c-8.9,1.6-5.9,11,1.7,10.1l-1.7-10.1ZM235.9,897.4c.9-.6,11.2-11.7,4.5-11.4-.6,0-6.2,7.5-11,5,.2,4.1,2,9,6.5,6.3ZM271.7,891.1c-.2-.3-6.4-2-6.7-1.7-4,3.9,11.3,7.4,6.7,1.7ZM251.4,904.5c2.7-2.7-4-9.5-6.7-6.7-3.5,3.6,3.2,10.2,6.7,6.7ZM315.5,902.8h-5.1s0,5.1,0,5.1h5.1s0-5.1,0-5.1ZM219.4,907.9c-.9-.9-8.8,2.4-6.7,3.4h6.7v-3.4ZM234.5,907.9c-6.1-1-17.2,8.7-5,8.4-6.7,16.8-8.7,38.4-6.6,56.3,1.3,10.5,9.7,29.3,22.4,28,21.8-2.2,9-35.2.2-45.5.5,11.2,2.2,22.6-.9,33.7-7.2.8-11.3-7.5-12.7-13.4-5.5-23,.7-44.7,2.6-67.6h0ZM320.6,913h-5v3.4h5v-3.4ZM270,918c-4-3.8-10.5,7.6-8.4,11.8,5.9,2.5,10-10.2,8.4-11.8ZM216,931.5l-.8-5c-1.8,1.5-3.1,2.6-2.5,5h3.4ZM217.7,940c-1.7-1.7-10.2.2-6.7,5,2.8,3.9,9.8-2,6.7-5ZM271.7,948.4c2.4-2.3-6.9-8.3-8.4-6.7-2.2,2.3,6,9,8.4,6.7ZM364.5,943.3c-3.1-1.2-8.3,5.3-6.7,6.7,3,2.8,7.6-2.9,6.7-6.7ZM270,950.1l-10.1-1.7c0,6.4,7.6,2.6,3.4,10.1l6.7-8.4h0ZM330.7,957.7c-1.4,5.5,0,21.6,0,28.7s10.7,37.1,16.8,43.9c8.5,9.3,24.8,12,30.8-1.3,7.9-17.4-7.8-39.1-18.9-51.8-.1,3-.2,5.9.4,8.9,1.1,6.3,13.6,35.5,5.3,38.2-12.1,4-21.3-31.6-23.8-40-1.8-6.2-4.3-23.6-6.4-27.4-1.4-2.6-3.9-.5-4.2.9h0ZM261.5,961.9v3.4h8.5s0-3.4,0-3.4h-8.5ZM324,983.8c2.5-2.2-6.3-7.2-6.7-6.7-2.5,3.5,4,9.1,6.7,6.7ZM268.1,979c-7-4.5-4.2,7.6-3.1,12,.4,1.4,2.8,1.3,2.9,1.5.6,1.3-2,4.1-1.3,4.8,4.1,3.9,6.9-5.4,6.3-9,0-.5-4.4-9-4.8-9.3h0ZM396.6,1002.3c2.2,2.2,10-2.9,4.2-5-5-1.8-5.5,3.8-4.2,5ZM244.7,1002.3c-12.7,1.9-7.2,2.2-6.9,9.4,0,.6-6.1.9-1.5,9.1,7.1-3.3,8.2-11.5,8.4-18.5ZM264.9,1002.3c-9.7-.9-4.5,5.6-5,11.8l4.2-5c4.2,2-.3,10.1,7.6,5l3.4,5.1c.5-7.9-11.1-9.4-10.1-16.9h0ZM318.9,1002.3h-5v6.7c4,1.2,4.6-3.1,5-6.7ZM253.1,1039.4c.4.4,9.9-.9,11-1.5,3.4-2,9.5-11.6,6.9-15.4-1.4-2-11.6-4.9-14.4-6.7v6.8c-6.7-2.3-10.7,2.3-16.9,0,4.2,7.4,2.4,10.7,12.3,6.6,2.2-.9.2-3.9,2.9-3.3,2.4,4.3-3.5,5.5-3.4,5.9.4.8,2.2,1.4,2.6,3.4.3,1.3-1.5,3.7-.9,4.2h0ZM285.2,1025.9c2.2-2.2-2.9-10-5-4.2-1.8,5,3.8,5.5,5,4.2ZM281.8,1037.8c-.9.7-6.9-1.5-6.8,5.9l11.8,4.2c-.3-3.6-7.8-6.6-5.1-10.1.3-.4,3.5.9,3.4-.8l-3.4-2.5c-.2.9.2,3.2,0,3.4h0ZM290.2,1037.8h-3.4c-.5,2.5.7,3.5,2.5,5l.8-5ZM418.5,1044.5v3.4h6.8s0-3.4,0-3.4h-6.8ZM275.1,1046.2l-8.4.8c1.1,2.8,4.7.7,4.9,1,1.2,1.7-2,6.1,3.5,4.9v-6.7ZM389.8,1047.9c-3.6.9-13.2-2.9-11.8,3.3l11.8-3.3ZM345.9,1052.9c-5.9-.4-5.3,5.6-5,10.1,4.4-1.7,5.7-5.7,5-10.1ZM462.3,1068.1c1.7-1.6-2-7.3-4.2-8.4-6.8,3.9,1.3,11.3,4.2,8.4ZM342.5,1069.8c.3-.3-.2-3.7,0-5l-6.7,1.7c0,2.9,5.6,4.5,6.7,3.3h0ZM388,1066.5c-.4-.4-9.7-1.3-11.7-1.8,4.2,3.7-4.6,3.5-1.7,6.7,1,1.1,12.8,2.4,13.5,1.7-.3-1.7.5-5.9-.1-6.6h0ZM447.2,1068.1c-3-3.7-5.1,7.3-5.1,8.4l6.8,1.7c-.9-1.9-1.4-9.7-1.7-10.1h0ZM399.9,1069.8c-4.8-4.4-4.9,9.3-3.4,11.8,6.8,2,4.5-10.7,3.4-11.8ZM484.7,1071.4c0-1.1-.9-2.1-2.1-2.1s-2.1.9-2.1,2.1.9,2.1,2.1,2.1,2.1-.9,2.1-2.1ZM354.4,1078.2c3-3-3.3-9.2-8.4-5-1.7,4.5,7,6.5,8.4,5ZM445.5,1128.8c-21.7-8-22.8-37.7-32.9-55.6-6.9,4.2-1.5,22.6.6,29.8,3.9,13.2,12.5,25.4,18.1,37.4,8.4-2.6,15.7,3.9,22.7-3.9,9.6-10.7-1.4-34.7-13.5-39.7-.9,11.1,8.1,20.9,5,32h0ZM378.8,1074.7l-1.9,6.5,9.8,2.8,1.9-6.5-9.8-2.8ZM470.8,1093.4c-2.2-3-12.5-5.4-10.1,3.3,2.4,1,13.7,1.6,10.1-3.3ZM391.5,1095.1c-3.2-.5-5.6,2-5,5h6.7l-1.7-5ZM375,1105.2c0-1.1-.9-2.1-2.1-2.1s-2.1.9-2.1,2.1.9,2.1,2.1,2.1,2.1-.9,2.1-2.1ZM394.9,1108.6c-1-1-5.9.3-6.7,2.5-3.3,9,11.2,2,6.7-2.5ZM388.1,1118.7v6.8s3.4,0,3.4,0v-6.8s-3.4,0-3.4,0ZM383,1122.1c-2.3-.5-4.5.9-5,3.3h5.1v-3.3h0ZM396.5,1130.5c.5-2.3-.9-4.5-3.4-5v5h3.4ZM405,1127.1h-3.4v5h3.4v-5ZM533.2,1128.8c-2.3-.9-13.1,4.2-10.1,6.7.9.8,13.8-1,10.1-6.7ZM411.6,1142.5c-1.5-1.1-6.8,3.7-6.7,4.1.2,2.3,5.2,12.1,6.8,4.9,1-4.7,3.7-1.9,8.5-2.5v-5c-9.9,4.1-7.3-.5-8.6-1.5h0ZM518,1147.4c1.6-2.4-2.9-6.2-5.9-5-8.9,7.8,4,7.9,5.9,5ZM457.3,1144c-1.3-1.3-21.2,5.1-20.2,11.8,6,0,5.5-11.1,9.3-1.7,1.2-2.5,15.9-5.3,11-10.1ZM497.8,1145.7c-.5-.5-12,1.3-8.4,6.7,3.4,1.2,12-2.8,8.4-6.7ZM528.2,1147.4c-.6-.6-6.3-1.1-5,2.5,1.9,5.2,6.8-.9,5-2.5ZM572,1154.1c-3.1-.4-5.8,0-6.7,3.3h6.7v-3.3ZM556.8,1177.7c-15.6-1.5-23.9-18.7-38.8-21.9-2,2,13.6,19.8,16,21.9,11.1,10,41.7,20.1,33.3-4.6-1.3-4-12.4-19-8.8-8.9h-5.1s3.3,13.5,3.3,13.5h0ZM415.5,1159.1c0-1.1-.9-2.1-2.1-2.1s-2.1.9-2.1,2.1.9,2.1,2.1,2.1,2.1-.9,2.1-2.1ZM475.5,1159.6c-6.6-2.8-7.1,10.2-4.7,14.8,5.3-1.2,11.5-1.9,13.5-7.6-2-.5-8.2-6.9-8.7-7.2ZM612.5,1171c-5.8-1.3-2.6,5.2-3.4,9-.1.5-6.2,3.1-3.3,6.2,4,4.2,9.3-11.7,6.7-15.2h0ZM681.7,1172.7c-.9-.9-9.7,2.2-6.7,5,.9.9,9.7-2.2,6.7-5ZM516.3,1181.1v-6.7l-8.4,4.2,8.4,2.5ZM669.9,1176.1h-6.7c0,6.7,6.7,6.6,6.7,0ZM521.4,1182.8c-2.1-1.1-5.9,2.7-5.1,3.3,2.1,1.1,5.9-2.7,5.1-3.3ZM617.6,1182.8h-3.4v5h3.4v-5ZM669.9,1182.8v5.1h6.8v-5.1h-6.8ZM691.9,1187.8c.6.8,4.5-2.9,3.3-5.1-.6-.8-4.5,2.9-3.3,5.1ZM509.6,1184.5h-3.4v5c2.4-.6,3.9-2.7,3.4-5h0ZM663.1,1191.2c3.7-3.8-15-14.5-11.8,3.4,2.8.7.7-2.8,2.7-3.3,1.1-.3,7.7,1.3,9.1,0h0ZM649.7,1189.6c-.4-.6-11.5-2.9-13.5-3.4.5,11.6,9.7,2.7,10.1,10.1,1.8.5,3.6-6.4,3.4-6.7h0ZM534.9,1187.8h-5.1s0,5.1,0,5.1h5.1s0-5.1,0-5.1ZM573.7,1187.8v6.8s3.4,0,3.4,0v-6.8s-3.4,0-3.4,0ZM513,1192.9c-.3-.3-8.1-2-8.4-1.7-1.3,1.1,3.8,6.8,4.2,6.8,3,0,5.5-3.8,4.2-5.1h0ZM585.5,1191.2c-3.2-4-6.3,10.7-7,11.6-.2.3-3.9-1.5-6.5,1-5,4.9.9,7.8,5.7,7.7,1,0,1-2.4,1.4-2.7,1.5-.8,4.7,1.3,4.7-4.1,2.1-1,2,7.2,5,3.4.5-.7-2.8-16.2-3.4-16.9h0ZM521.4,1201.3v-6.7h-1.7v6.7h1.7ZM597.3,1201.3c1.9-2-.7-5.4-3.4-.8-.2,1.5,3.2.9,3.4.8ZM599,1204.7h-3.4v5h3.4v-5ZM558.5,1206.4c-3.7.4-8,1.1-6.7,5h6.7v-5h0Z"/>
          <path class="st0" d="M737.4,1157.5c3.9,13.6,0,9.3-7.1,13.6-1.5.9-1.5,2.7-3.5,3.7-3.6,1.8-9,4.2-13,4.6-1.5-5.6,4.3-2.5,5-3.4,1.4-1.6-2.3-9.5-1.7-10.1.3-.3,2.6.5,3.6-.2,5.5-3.7,3.4-1.6,8.6-3.3,1.5-.5,3.6-6.5,8-5h0Z"/>
          <path class="st0" d="M769.5,1145.7c-.1,2.7-9,5.9-10.1,5,1.7-4.3,5.6-5.7,10.1-5Z"/>
          <path class="st1" d="M393,820.4c5.8,3.6,16.5,65.5,15.4,74.9-2.8,23.4-29.5,26.6-35.9,7.1-7.8-23.9,7.4-52.1,14.4-74.1,1.1-3.6.3-11.4,6.1-7.9h0ZM391.5,852.3c-.3,4.7-3.5,8.8-4.6,13.1-1.5,6-5.8,35.8,3.7,35.8s5.4-36,4.2-43.1c-.4-2.5,0-5.2-3.4-5.9h0Z"/>
          <path class="st1" d="M330.7,957.7c.3-1.3,2.8-3.4,4.2-.9,2.1,3.8,4.5,21.1,6.4,27.4,2.5,8.4,11.7,44,23.8,40,8.3-2.7-4.2-31.9-5.3-38.2-.5-3-.5-5.9-.4-8.9,11.2,12.7,26.8,34.4,18.9,51.8-6,13.3-22.3,10.6-30.8,1.3-6.2-6.8-16.8-35.1-16.8-43.9s-1.4-23.2,0-28.7h0Z"/>
          <path class="st1" d="M248.1,794.9c2.8.7,4.2,6.9,5,9.4,1.7,5.6,3.5,14.3,3.6,20.1.4,33.4-37.6,37.8-35.6-3.4.6-12.4,10.5-39.7,17.6-49.9,1.4-2,2.3-5.1,5.2-4.9,4.6,15.5-22,58.5-10.1,70.9,6.8,7.1,14.4-11.2,14.4-16v-26.1h0Z"/>
          <path class="st1" d="M445.5,1128.8c3.1-11.1-6-21-5-32,12.1,5,23.1,29,13.5,39.7-7,7.8-14.3,1.4-22.7,3.9-5.6-12-14.2-24.3-18.1-37.4-2.1-7.2-7.4-25.6-.6-29.8,10,17.9,11.2,47.7,32.9,55.6h0Z"/>
          <path class="st1" d="M234.5,907.9c-1.9,22.8-8.1,44.6-2.6,67.6,1.4,5.9,5.5,14.2,12.7,13.4,3-11.1,1.4-22.5.9-33.7,8.8,10.3,21.6,43.3-.2,45.5-12.7,1.3-21.2-17.5-22.4-28-2.1-17.9-.1-39.5,6.6-56.3-12.2.2-1-9.4,5-8.4h0Z"/>
          <path class="st1" d="M359.5,786.4c9.1,6.3,12.4-16.1,15.1-18.4,3.7-3.1,4.8,7.9,4.7,9.3-1.2,29.5-36,31.8-31.6-3.3,1.7-13.4,10.7-26.4,11.7-39.8,5.3,3,3.7,14.1,3.3,19.4-.3,5.5-6.5,30.5-3.2,32.8h0Z"/>
          <path class="st1" d="M556.8,1177.7l-3.3-13.5h5.1c-3.7-10.1,7.5,4.9,8.8,8.9,8.4,24.7-22.2,14.6-33.3,4.6-2.4-2.2-18-19.9-16-21.9,14.9,3.2,23.2,20.4,38.8,21.9h0Z"/>
          <path class="st1" d="M253.1,1039.4c-.5-.5,1.2-2.9.9-4.2-.4-2-2.2-2.6-2.6-3.4-.2-.3,5.8-1.6,3.4-5.9-2.7-.6-.7,2.4-2.9,3.3-9.9,4.1-8,.7-12.3-6.6,6.2,2.3,10.2-2.3,16.9,0v-6.8c2.8,1.8,13.1,4.7,14.5,6.7,2.7,3.7-3.4,13.4-6.9,15.4-1,.6-10.6,1.9-11,1.5h0ZM264.9,1024.3c-6.4-2-9.2,6.8-4.2,5,1-.4,3.9-3.6,4.2-5Z"/>
          <path class="st1" d="M585.5,1191.2c.5.7,3.9,16.2,3.4,16.9-3,3.8-3-4.3-5-3.4,0,5.4-3.2,3.3-4.7,4.1-.4.2-.4,2.6-1.4,2.7-4.9.1-10.8-2.7-5.7-7.7,2.5-2.5,6.3-.8,6.5-1,.7-.8,3.8-15.6,7-11.6h0Z"/>
          <path class="st1" d="M475.5,1159.6c.5.2,6.7,6.7,8.7,7.2-1.9,5.7-8.2,6.4-13.5,7.6-2.4-4.6-1.9-17.6,4.7-14.8Z"/>
          <path class="st1" d="M244.7,1002.3c-.2,7-1.3,15.3-8.4,18.5-4.6-8.2,1.5-8.6,1.5-9.1-.3-7.2-5.8-7.5,6.9-9.4Z"/>
          <path class="st1" d="M268.1,979c.4.3,4.7,8.8,4.8,9.3.6,3.6-2.2,13-6.3,9-.7-.7,1.9-3.5,1.3-4.8,0-.2-2.5-.1-2.9-1.5-1.2-4.5-3.9-16.5,3.1-12h0Z"/>
          <path class="st1" d="M457.3,1144c4.9,4.9-9.7,7.7-11,10.1-3.7-9.4-3.3,1.7-9.3,1.7-1-6.7,19-13,20.2-11.8Z"/>
          <path class="st1" d="M264.9,1002.3c-1,7.5,10.6,8.9,10.1,16.9l-3.4-5.1c-7.9,5-3.4-3.1-7.6-5l-4.2,5c.6-6.2-4.7-12.7,5-11.8h0Z"/>
          <path class="st1" d="M411.6,1142.5c1.3,1-1.3,5.6,8.5,1.5v5c-4.8.6-7.5-2.2-8.5,2.5-1.5,7.2-6.6-2.6-6.8-4.9,0-.4,5.3-5.3,6.7-4.1h0Z"/>
          <path class="st1" d="M388,1066.5c.7.7-.2,4.9.1,6.6-.7.7-12.5-.6-13.5-1.7-2.9-3.2,5.9-3,1.7-6.7,2,.5,11.3,1.4,11.7,1.8h0Z"/>
          <path class="st1" d="M210.3,844c3.7-.6,8.5,6.2,2.3,9.1-10.9,5.1-9.1-8-2.3-9.1Z"/>
          <path class="st1" d="M663.1,1191.2c-1.3,1.4-8-.2-9.1,0-2,.5.1,4-2.7,3.3-3.2-17.9,15.4-7.2,11.8-3.4h0Z"/>
          <path class="st1" d="M235.9,897.4c-4.5,2.7-6.3-2.2-6.5-6.3,4.8,2.5,10.3-5,11-5,6.7-.3-3.6,10.8-4.5,11.4Z"/>
          <path class="st1" d="M322.3,712.3c2.2,8-6.8,3.6-6.8,10.1h-1.6c1.3-4-9.4-3.5-5.1-8.4.7-.7,3.5,1.9,4.8,1.3.3-.2,0-2.7,1.3-2.9,1.6-.2,4.8,2.1,7.4,0h0Z"/>
          <path class="st1" d="M270,918c1.6,1.6-2.5,14.3-8.4,11.8-2-4.2,4.5-15.6,8.4-11.8Z"/>
          <path class="st1" d="M313.4,809.8c-.3.7-6.3,5.3-8,3.7.3-2.1-.5-9.6,0-10.1,1.4-1.4,10.3-.3,8,6.4Z"/>
          <path class="st1" d="M313.9,700.5c1.1,1.1-5.2,14.3-8.4,11.8-5.4-4.3,5.1-14.9,8.4-11.8Z"/>
          <path class="st1" d="M281.8,1037.8c.3-.2-.2-2.4,0-3.4l3.4,2.5c.2,1.8-3,.4-3.4.8-2.7,3.5,4.8,6.5,5.1,10.1l-11.8-4.2c-.1-7.4,5.9-5.2,6.8-5.9h0Z"/>
          <path class="st1" d="M649.7,1189.6c.2.3-1.6,7.2-3.4,6.7-.5-7.4-9.6,1.5-10.1-10.1,2,.5,13.1,2.8,13.5,3.4h0Z"/>
          <path class="st1" d="M295.3,865.7c.3.3-.2,3.7,0,5h-5.1s1.7,3.4,1.7,3.4l-6.7-1.7c-3-6.3,8.3-8.5,10.1-6.7h0Z"/>
          <path class="st1" d="M612.5,1171c2.5,3.5-2.7,19.4-6.7,15.2-2.9-3,3.2-5.7,3.3-6.2.8-3.8-2.4-10.3,3.4-9h0Z"/>
          <rect class="st1" x="379.3" y="1074.4" width="6.8" height="10.2" transform="translate(-760.7 1145) rotate(-73.8)"/>
          <path class="st1" d="M212.6,882.6l1.7,10.1c-7.6.9-10.6-8.5-1.7-10.1Z"/>
          <path class="st1" d="M399.9,1069.8c1.2,1.1,3.4,13.8-3.4,11.8-1.5-2.5-1.4-16.2,3.4-11.8Z"/>
          <path class="st1" d="M470.8,1093.4c3.5,4.9-7.7,4.3-10.1,3.3-2.4-8.7,7.9-6.3,10.1-3.3Z"/>
          <path class="st1" d="M270,950.1l-6.7,8.4c4.3-7.5-3.3-3.7-3.4-10.1l10.1,1.7h0Z"/>
          <path class="st1" d="M533.2,1128.8c3.7,5.7-9.2,7.5-10.1,6.7-3-2.6,7.8-7.6,10.1-6.7Z"/>
          <path class="st1" d="M518,1147.4c-1.9,2.9-14.8,2.8-5.9-5,3-1.2,7.5,2.7,5.9,5Z"/>
          <path class="st1" d="M354.4,1078.2c-1.4,1.4-10.1-.5-8.4-5,5.1-4.1,11.4,2,8.4,5Z"/>
          <path class="st1" d="M497.8,1145.7c3.5,3.9-5,7.9-8.4,6.7-3.5-5.4,7.9-7.3,8.4-6.7Z"/>
          <path class="st1" d="M447.2,1068.1c.3.4.8,8.2,1.7,10.1l-6.8-1.7c0-1.1,2-12.1,5.1-8.4h0Z"/>
          <path class="st1" d="M462.3,1068.1c-2.9,2.9-11-4.4-4.2-8.4,2.2,1.1,5.9,6.8,4.2,8.4Z"/>
          <path class="st1" d="M251.4,904.5c-3.5,3.5-10.3-3.2-6.7-6.7,2.7-2.7,9.5,4,6.7,6.7Z"/>
          <path class="st1" d="M345.9,1052.9c.6,4.4-.7,8.4-5,10.1-.3-4.5-.9-10.5,5-10.1Z"/>
          <path class="st1" d="M394.9,1108.6c4.5,4.5-10,11.5-6.7,2.5.8-2.2,5.7-3.5,6.7-2.5Z"/>
          <path class="st1" d="M217.7,940c3.1,3.1-4,8.9-6.7,5-3.4-4.8,5-6.8,6.7-5Z"/>
          <path class="st1" d="M271.7,948.4c-2.4,2.2-10.6-4.4-8.4-6.7,1.5-1.6,10.9,4.5,8.4,6.7Z"/>
          <path class="st1" d="M389.8,1047.9l-11.8,3.3c-1.4-6.3,8.2-2.4,11.8-3.3Z"/>
          <rect class="st1" x="669.9" y="1182.8" width="6.8" height="5.1"/>
          <rect class="st1" x="261.6" y="779.7" width="6.8" height="5.1"/>
          <path class="st1" d="M513,1192.9c1.2,1.3-1.2,5.1-4.2,5.1-.4,0-5.5-5.6-4.2-6.8.3-.3,8.1,1.4,8.4,1.7h0Z"/>
          <path class="st1" d="M275.1,1046.2v6.7c-5.6,1.3-2.4-3.1-3.5-4.9-.2-.3-3.8,1.8-4.9-1l8.4-.8Z"/>
          <polygon class="st1" points="516.3 1181.1 507.9 1178.6 516.3 1174.4 516.3 1181.1"/>
          <path class="st1" d="M364.5,943.3c.9,3.8-3.7,9.5-6.7,6.7-1.6-1.4,3.6-7.9,6.7-6.7Z"/>
          <path class="st1" d="M324,983.8c-2.7,2.4-9.3-3.3-6.7-6.7.4-.5,9.2,4.5,6.7,6.7Z"/>
          <rect class="st1" x="264.1" y="959.4" width="3.4" height="8.5" transform="translate(-698.2 1228.2) rotate(-89.9)"/>
          <path class="st1" d="M396.6,1002.3c-1.3-1.3-.8-6.8,4.2-5,5.8,2.1-2,7.3-4.2,5Z"/>
          <path class="st1" d="M669.9,1176.1c0,6.6-6.7,6.7-6.7,0h6.7Z"/>
          <path class="st1" d="M318.9,1002.3c-.4,3.7-1.1,8-5,6.7v-6.7h5Z"/>
          <path class="st1" d="M285.2,1025.9c-1.3,1.3-6.8.8-5-4.2,2.1-5.8,7.3,2,5,4.2Z"/>
          <path class="st1" d="M558.5,1206.4v5h-6.7c-1.2-4,3.1-4.6,6.7-5Z"/>
          <path class="st1" d="M391.5,1095.1l1.7,5h-6.7c-.5-3.1,1.9-5.6,5-5Z"/>
          <rect class="st1" x="310.4" y="902.9" width="5.1" height="5.1" transform="translate(-3.2 1.1) rotate(-.2)"/>
          <rect class="st1" x="529.8" y="1187.9" width="5.1" height="5.1" transform="translate(-4.2 1.9) rotate(-.2)"/>
          <path class="st1" d="M681.7,1172.7c2.9,2.9-5.8,5.9-6.7,5-2.9-2.9,5.8-5.9,6.7-5Z"/>
          <path class="st1" d="M271.7,891.1c4.6,5.6-10.8,2.2-6.7-1.7.3-.3,6.5,1.4,6.7,1.7Z"/>
          <rect class="st1" x="572" y="1189.5" width="6.8" height="3.4" transform="translate(-617.1 1763.9) rotate(-89.9)"/>
          <rect class="st1" x="386.4" y="1120.4" width="6.8" height="3.4" transform="translate(-733.2 1509.3) rotate(-89.9)"/>
          <rect class="st1" x="420.2" y="1042.8" width="3.4" height="6.8" transform="translate(-625.3 1465.7) rotate(-89.9)"/>
          <path class="st1" d="M342.5,1069.8c-1.1,1.1-6.7-.5-6.7-3.3l6.7-1.7c-.2,1.4.3,4.7,0,5h0Z"/>
          <path class="st1" d="M275,853.9c1.8,1.6-3.5,6.8-5,5-2.5-2.9,2.2-7.6,5-5Z"/>
          <path class="st1" d="M528.2,1147.4c1.8,1.6-3.2,7.7-5,2.5-1.3-3.6,4.4-3.1,5-2.5Z"/>
          <path class="st1" d="M572,1154.1v3.4h-6.7c.9-3.4,3.6-3.8,6.7-3.3h0Z"/>
          <rect class="st1" x="221.1" y="879.2" width="5" height="3.4"/>
          <rect class="st1" x="315.6" y="913" width="5" height="3.4"/>
          <rect class="st1" x="401.6" y="1127.1" width="3.4" height="5"/>
          <rect class="st1" x="280.1" y="747.7" width="3.4" height="5"/>
          <path class="st1" d="M219.4,907.9v3.4h-6.7c-2-.9,5.8-4.3,6.7-3.4h0Z"/>
          <rect class="st1" x="595.7" y="1204.7" width="3.4" height="5"/>
          <rect class="st1" x="614.2" y="1182.8" width="3.4" height="5"/>
          <path class="st1" d="M509.6,1184.5c.5,2.3-.9,4.5-3.4,5v-5h3.4Z"/>
          <path class="st1" d="M290.2,1037.8l-.8,5c-1.8-1.5-3.1-2.6-2.5-5h3.4Z"/>
          <path class="st1" d="M216,931.5h-3.4c-.5-2.5.7-3.5,2.5-5l.8,5Z"/>
          <path class="st1" d="M383,1122.1v3.4h-5c.6-2.4,2.7-3.9,5-3.3h0Z"/>
          <path class="st1" d="M396.5,1130.5h-3.4v-5c2.4.6,3.9,2.7,3.4,5h0Z"/>
          <circle class="st1" cx="413.5" cy="1159.1" r="2.1"/>
          <circle class="st1" cx="482.6" cy="1071.4" r="2.1"/>
          <path class="st1" d="M521.4,1182.8c.8.6-2.9,4.5-5.1,3.3-.8-.6,2.9-4.5,5.1-3.3Z"/>
          <circle class="st1" cx="373" cy="1105.2" r="2.1"/>
          <path class="st1" d="M691.9,1187.8c-1.1-2.1,2.7-5.9,3.3-5.1,1.1,2.1-2.7,5.9-3.3,5.1Z"/>
          <rect class="st1" x="519.7" y="1194.6" width="1.7" height="6.7"/>
          <path class="st1" d="M597.3,1201.3c-.1.1-3.6.6-3.4-.8,2.6-4.6,5.3-1.1,3.4.8Z"/>
          <path class="st0" d="M391.5,852.3c3.3.7,3,3.4,3.4,5.9,1.1,7.1,5.5,43.1-4.2,43.1-9.8,0-5.2-29.8-3.7-35.8,1.1-4.3,4.3-8.4,4.6-13.1h0Z"/>
          <path class="st0" d="M264.9,1024.3c-.4,1.4-3.3,4.7-4.2,5-4.9,1.8-2.2-7,4.2-5Z"/>
        </g>
      </g>
    </g>
  </g>
</svg>