<?xml version="1.0" encoding="UTF-8"?>
<svg id="Layer_2" xmlns="http://www.w3.org/2000/svg" version="1.1" viewBox="0 0 1500 1500">
  <!-- Generator: Adobe Illustrator 29.8.5, SVG Export Plug-In . SVG Version: 2.1.1 Build 2)  -->
  <defs>
    <style>
      .st0 {
        fill: #ff5224;
      }

      .st1 {
        fill: #25211e;
      }
    </style>
  </defs>
  <g id="a">
    <g>
      <path class="st0" d="M1389.2,654.7c-1.7,7.4-5.3,14.3-6,21.9-1.7,19.2,10.4,42.6-6.2,58.8-2.1,2.1-15.9,11.8-18,10-1.9-1.6.2-19.1,0-23.4-.7-12.5-4.9-19.6-1-32.8,3.4-11.7,18-34.4,31.3-34.5h0Z"/>
      <g>
        <path class="st0" d="M1425.5,1500h-3l-4.5-10.6c8.1,3.5,5.5-1.1,6-1.5.4-.3,2.6.6,3.4,0,.9-.7,3.1-6,4.2-.7.5,2.5-7.4,8.4-6.1,12.8h0Z"/>
        <path class="st0" d="M1144.6,339.1c-2.1-4.4-3.2-12.9-6.1-18.5-4.6-8.6-14.7-15.1-19.3-22.2-10.1-15.6-33.3-77.4-31.2-94.8.4-3.6,3.3-11.7,7.1-12.7,4.9-1.4,15.2,4.1,14,8.9l3-1.5c-1.3,5.5,2.8,7.3,4.8,11.1,2.6,4.8,15.9,31.4,13.1,34.4-1.3.2-2,.2-3-.7-2.1-1.9-8.5-16.4-11.3-20.5-1.6-2.4-9.1-11.5-11.3-14-.7-.8-4.7-5.9-5.9-4.2-4.1,5.4,10.9,53.1,14.7,61.4,14,1.7,29,5.6,42.4,10,53.1,17.3,92.4,318.6,101.7,371.1,1.5,8.2.9,17.4,2.2,25,1,5.3,9.8,30.8,14,32.9l18.9-31,9.8-9.9,2.2,3c-2-7.9,11.2-17,17.4-21.1,4.5-3.1,30.3-17.2,34-13.6,1.2,8.2-11.5,11.4-14.6,15.6-.7.9-7.4,14.5-8.3,16.7-27.9,63.9,24.5,106.1,15,169.2-3.2,21.3-12.2,47.6-23.2,66.1-12,20.2-32.5,35.5-35.3,60-1.6,14.1-1.2,25.3,15.5,15.5,11-6.5,19.2-37.5,26.7-50.1,3.9-6.5,13.7-19.4,19.6-24.6,11.6-10.3,23.7-15.8,39.4-15.9,3.3,3.4-10.4,19.5-12.4,23.1-20.5,37-6.7,72.8-25.1,109.5-21.6,43-69.1,60.7-74.2,113.3-.6,6.2,0,12.5-.2,18.7l14.6-20.9c14.5-9.9,33.1-17.8,47.3-28.3,6.1-4.5,9.9-13.7,18.3-12.8.7-2.6-2.9-.8-3.1-2.3-.3-2,3.7-8.2,5.2-10.8,2-3.6,10.5-16.6,11.5-19.8s2.2-22.1,3.1-23.1c2.5-.5,3.2.6,4.2,2.6,2.3,4.7,4.6,21,5,26.8,3.3,51.9-34,78.9-57.6,119.5-14.9,25.6-24.1,57.9-21.2,87.7,1.1,10.9,13,36.7,26.3,35.2,14.5-1.7,10.6-23.6,11.6-33.6,3.7-39.8,8.8-88.7,51.4-105.1-2.8,13.8-11.3,26.4-13.2,40.5-6.1,45.1,25.3,73.7,42.2,111.2,11.2,24.9,22.2,53.6,20.9,81.2-7.3,1.6-2.6-3.7-6.8-7.6l-3.8,3c1.6-3.3-1.4-9-4.5-6-.3.3.5,5.9-4.5,6.8l4.5.7c-1.4,7,6.9,6.7,6.8,0,1.4.7,1.7,3.7,2.6,4.2,5.5,3.2,8.9-5.4,7.3,12.4l-2.3-6.1-8.3,6.1v-9.1s-7.6,3.8-7.6,3.8h6c-2.4,1.3-3.2,8.1-3,10.4,0,.6,9.7,5.1-3.1,2.4,4.3,9.5-2.8,4.2-4.4,8.4-2.7,7.3,3.9,4.6,4.4,5.2.2.2.1,4.3,0,4.5-.2.3-4.9-2.4-6-1.5-2.9,2.4,2.8,3.1,3,4.1.3,1.5-.4,4.5,0,5,.4.5,5.9-.3,7.6,0l-1.5,4.5h4.5c-.6-4.1-1.6-7.9,1.5-11.4-6.3,1.8-.6-3.1-1.5-3.7h-6s6-4.5,6-4.5c-3.3-1.3-10.2,4.5-9.1-1.5h7.6c.4-.3-2.6-5.2.9-6,1.2-.3,12.5.7,12.7,2.2l-1.4,12.9c-6.9,1.6.9-10.3-6-9l1.5,13.6c.4.5,3.9-2.2,4.5-1.5,2.4,2.6-2.1,3.1-2.5,3.6-3.8,6-3.9,10.1-12.7,7l6,4.5c-2.5-.8-5.3,1.2-6.9,1.4-.6,0-2.2-5.8-9.7-1.3l7.5,1.5c-1.4,2.7-5.4,3.1-4.5,7.5l6-1.5-4.5,3c-.9,1.8,6.5,1.8,3,4.5-.6.5-4.5-.3-6,0,2.2,7.7,13.1-2.2,13.6-1.5.3,4.4,1,8.8-4.5,9.1-.7,2.7,3.5.7,3,2.2-1.4,4.1-8.3-.1-9.1.8-.3.3.1,6.7-1.5,7.6-.7.4-3.2-.2-4.5,0l3-2.2c-1.7-4.5-9.2-4.3-12.6-2.3-1.7,1-.1,5.3-4,4.6l6.9,2.6,3.7-7.2c-.5,3.4.8,8.1,0,11.1-.4,1.8-3.7,0-3.1,2.5l4.5,3h-51.4c5.9-13.9,12.4-27.5,15.9-42.3,8.2-34.8,5-75.1-10.6-107.3-15.8,27.1-24.6,59.2-58.6,68.5-7.4,2-20.6,2-26.6,5.2-2.8,1.5-3.2,4.5-3.7,4.7-.9.5-3-1.1-4.8-.8-1.9.3-5.9,4.5-8.4-1.4s5.5-3.4,7.6-6.1c2.1-2.7,2-9.4,3-12.9.3-1.1,2.7-.6,3.1-3.4,1.2-8.7-.4-26.2-3.3-34.5-.4-1.3-4.3-5.8-4.3-6.3,0-1.4,1.9-3.4,1.5-6,0-.4-1.5-3.3-2.5-6.7-2-6.8-6.3-12.6-5.1-20l-3,1.5c.7-6.3-1.9-12.9-4.5-18.6-.5-1.1-2.9-.8-2.8-1.7,1.1-18.2.3-29.7,5.9-48.4,1.8-5.9,7.9-14.2,6.7-20.5-2.5,1.6-7.6.8-9.5,1.9-1.6.9-14.2,22.4-15.7,25.8-6.9,15.2-5.3,27-5.8,43.3l-5.3-6-8.3,14.3,7.6-6c-2.3,2.9,0,7.3-.2,8.9-.2,1.2-11.1,4.4-7.4,13,1.6,1.7,11.6-6.9,13.6-1.5-7.6-1.7-3.4,4.8-4.5,6.1-2.6,3-3.1-2.5-3.3-2.6-5-3.2-7.6,6.5-7.3,10.2,2.5,1.4,8.8-1.9,9.1-1.5.6.7-.4,7.2,4.5,6.1,1.9-3.7-.3-8.3,0-11.1,0-.3,3.4-2.5,4.7-4.6,1.5-2.5,1-8.5,5.2-8.5.8,0,1.3,3.2,3.1,4.4,2.4,1.6,5.8,1,8.1,2.5s8.1,7.3,4.6,9.7h4.6c1.5,3.9-3.2,8-6.1,6-.2-.1,1.5-2.1,1.1-2.7-.2-.4-2.6-.2-2.7-1.2-.1-1.9,4.2-8.2-5-6.8-5.9.9-2.5,20.9,5,15.2-.3,3,.6,6.7,0,9.5-.2.8-1.9,1-2.8,2.4-1.4,2.2,2.4,4.6-4.7,1.7-1.4,4.2,6,5.5,6.2,7,.7,4.9-5.9,7.2,4.4,10.4l-6,1.5,3.8,3.8c1.3-4,2.8-3.2,6.8-3l-1.5,6,7.5-1.5c1,8.2-4,4.1-5.7,4.8-.6.3-7.6,8.5-9.4,9.6l9,8.3-4.5-9.1,9.1-1.5c-.7,2.2-1.1,11.1-1.8,11.8-.6.7-4.2.5-6,2.4-1.7,1.9,1.9,6.4-2.1,8.4-2.8,1.2-2.2-7.5-2.2-8.3,0-3,.8-5.4,1.5-8.3-4.2-.7-2.6.8-3.3,3.5-.9,3.7-1.1,10.4,0,14,3,10.2,3.8,1.4,5,.7.6-.3,2.5,1.5,3.5,1.4,1.2,0,.8-2.9,1.5-2.9,3.2,0,11.4,3.3,7.7,7.4-3.3.7-1.4-2.3-4.2-3.4-7.5-2.9.2,10-7.1,9.4,3.5,9,14.8-4.3,15.8-4.3,15.5.3,44.8-6.7,58.2-16.2,6.2-4.4,12.4-12.9,18-18.3l13.8-27.7c-.2,10.4,4.7,22.5,4.7,32.5,0,24.2-7.4,54.8-16.7,77.2-1.8,4.4-5.6,7.8-6.1,12.8h-31.8c.3-12.6,10.7-18.8,16.7-27.9,2.8-4.3,11.3-20,12.8-24.9,1.5-4.9-.2-10.2,3.5-14.7,1-5-4,2-4.1,2.3-1.2,2.8-3.1,11.6-3.5,12.1-.8.9-4,.5-5.4,1.3-3.6,2.1-7.3,4.7-11,6.5-1,.5-2,1-3,1.5-2.7,1.3-4.4,2.5-6.4,3.5-6.5,3.2-13.7.6-11.7,11.7h-7.5s4.5,0,4.5,0l-4.5,3,3,7.5c-2.1,0-4.1-5.8-5.6-6-2.3-.4-5.4,0-6.5,2.3-1.3,2.6,2.7,1.9,3,3.3.4,2-.6,4.3.4,6.2,1.2,2.2,10.3,5.3,5.7,12.4h-1.5c1.6-5.7-3-6.5-5.3-10.6l-.8,6-6-3.1c3.6-4.4,6.7-9.4-.7-12.1,2.3,6.9-1.3,5.3-2.2,7.2-1,2.2-1.3,9.5,0,10.9.2.2,4.8-3.2,6,1.5h-272.3c1.2-8.3,5.7-17.4,7.2-25.3,4-20.6,1.8-39.8,11.7-59.4,1.6-3.2,14.8-23.8,19-19.6-3.7,15.7-9.2,36.5,1.5,50.6,5.4,7.1,13.9,6.7,20.4.8,10.1-9.1,9.1-37.2,11.7-50.3,3.7-18.8,11.9-37,23.9-51.7,2.5-3.1,24-24.6,26-25.5,1.7-.7,8-1.7,8.7-1,2.1,2.1-11,22.6-12.8,27.2-15.6,39.2-7.2,58.4-2.3,96.7-4.7-.8-4.5,4,0,3,.3,3.2,1.4,5.8,1.5,10.6,0,1.5,0,3,0,4.5h9.1c1.8-3.8-2.7-2.4-3-4-.5-2.4,1.2-6.6-1.5-8.1,1.1-2.4,2-5.1,3-7.6h0c2.8-6.6,4.1-14.1,9.1-19.7,1.6,9.5,9.7-1.7,10.6,7.6-.4.3-4.7-2.5-6-1.5-.8.6-4.5,15.6-6.1,18.1l6.1,1.5c-4.2-7,6.2-3.8,1.5-10.6l10.6-1.5c.3,3.1-4,.6-5.8,1.7-5.1,3.2,3.8,15.4,5.8,13.4l4.6-16.6c2.6-.8.7,3.6,2.2,3,1-.4,2.7-2.4,2.3-3.8-.8-3.3-12.4-.3-1.5-8.3-5.3-2.3-6.4,3.1-6.8,3-3.5-.3-6-5.7-5.3-9.1,5-.3,3.1,6.4,9.1,4.5,0-2,0-4,0-6,1.4,0,5.7.3,6,0,.2-.2-2.3-4.2-1.5-6-7.9,4.1-4.7,2.5-4.5,6-2,0-4,0-6,0,1-4.3,8.2-6.9,5.6-11.8-.4-.7-3.2.7-2.5-1.8,2.7.7,6.2-1.6,8.2-1.5.9,0,2,7.7,9.5,2,1.3-1,2.7,0,1.9-3.5-7.1-.4-12.6-2.4-19.7,0l4.5-1.5c.7-2.6-2.2-.9-2.8-1.6-.3-.3,2.1-5.5,1.3-7.4l-3.8,4.5-3.8-4.5c.4-.7,0-4.9,1-7.3,26.6-63.9,50.6-111.2,35.3-183.3,1.6-2.3,5.8.3,6,0,.5-.6-.4-4.5,0-6.1,1.1-4.3,8.6-12.6,10.6-18.1l9.1-5.3-7.5-.7c4.9-19.5,3.5-43,18.1-59,.6,8.1-1.9,15.2-1.5,23.4.6,13.3,7.8,26.6,9,39.4,1.6,16.4-3,32.8-2.3,49.1,6.9-7.1,12.8-17.7,14.8-27.5,3.8-19-1.1-34.7-5-52.6,2.6,2.1,5,1.9,6-1.5h-6c-4-19.8-3.1-22.5.2-42.2-.7.7-.7,1.9,0,2.6s1.9.7,2.6,0,.7-1.9,0-2.6-1.9-.7-2.6,0c.3-3,.9-5.3,1.4-7.7l6.1-8.3-6.1,5.3c.3-2.8.2-5.6,1.5-8.3-2.9-3.2-2.8,1.1-4.2,2.2-41.6,34.9-29.4,46.9-41.7,92.6-1.8,6.5-6.6,12.4-7.2,19.3-.9-.2-2-1.2-3-1.5-7.5-33.7-17.9-51.7-12.1-87.7-.2,6.1,3.5,2.1,0-1.5,3.2-18.2,8.9-38.5,14.1-56.3,12.9-44.5,29.6-88.5,45-131.9,16.4-1.3,24-15.1,24.3-30.3.1-5.3-4-13.5-3-16.4.8-2.3,4.7-2.3,6.6-4.1,4.3-3.9,9.4-21.8,9.9-27.9.6-7.1-3.7,5.5-4.5,3.8-2-8.4,8.6-11.7,2.6-19.2-7.6-9.4-47.9-29.9-60.6-35.5-6.7-3-25.5-11.2-31.8-10-2.1.4-13.7,10-17.6,11,13.8,7.4,29.5,12.4,42.8,20.7,1.7,1.1,12.5,7.8,10.1,10.3l-68.1-23.6c-7.6,9.1-6.1,21-9.6,31.4-1.2,3.6-12.7,21.2-11.6,22.4,22.2,5.8,44.3,16.3,64.7,26.8,2.7,1.4,7.3,6.2,11.5,8.3,4.9,2.4,10.6,3.2,16.2,6.5.8.5,5.8,1.4,3,3.8-4.1,3.4-93.3-41.8-99.9-37.2-8.3,5.8-2,62.8-2.9,75.8-1,14.1-5.2,24.1-8.4,37-3,12-2.7,29.5-14.4,37-9.4,5.9-24.2,2.3-25.7-8.9-3.1-22.6,18.9-35.1,21.2-56.2.7-7-3.3-18.9-6-25.6-.5-1.2-.3-5.1-3-2.2-1.9,2.1-4.3,22.4-6.4,27.6-15.2,37.5-40.7,76.3-43.6,118.2-2.3,33.2,7.5,56-14.4,85.4-19.9,26.7-35.8,38.5-42.7,75.3-9.1,49.2,8.7,104.9,5.8,152.4-1.3,20.6-14.3,64-43,47.3-30.6-17.8-3.6-77.3,3.1-102.3,5-18.6,18.7-72-7.1-79.8-29.8-9-32.5,52.1-40.8,69.7-6.1,12.8-20.3,21-33.3,12-21.7-15.2,8.4-41.9,14.9-57.6,6-14.4,5.3-31.4,3-46.5-6.6-43.2-23.2-32.6-41.3-3.9-31.5,50.1-41.6,115-64.8,169.6-4.9,11.6-18.7,43.8-35.3,34.4-9.2-5.2-6.8-21.7-4.5-30.3,7.8-29.6,35.1-46.3,46.5-74.5,2.5-6.2,16.8-57.6,14.9-60-2.3-2.7-6.8,8.8-7.4,10-13.1,28.4-15.6,46.5-36.6,72.3-3,3.7-26.3,25.9-22.6,29.5l7.5-3c-.5,12.2-8.7,1.7-10.6,3-.7.5-6,14.6-6.6,16.9-3.6,13.8-4,29.9,4.4,42,2.6,3.8,8.5,6.3,8.3,11.3-9,23-20.6,45.2-27.3,68.9h-340.4c.8-4.7-4-4.5-3,0h-4.5c3.7-3.7,7-29.8,9.1-31.8.6-.5,7,2.4,9.1,1.5-4.7-6.3-8.5-3-3.6-11.9,7.9-14.6,22.4-26.7,32.4-39.5,7.3,3.8,11.9,0,3-3,.3-.4-.2-3,.8-4.4,6.1-8.1,12.5-15.8,18.1-24.3,5.1,0,.6,24.5-.8,27.6-1.2,2.7-5.8,2.2-6,2.7-.2.2,1.9,3.3,1.5,5.1-.7,2.8-10.4,2.2-7.5,10,5.8,1.3,1-3.9,1.5-4.5.3-.4,10.2-3.4,10.6-3,.9.8-2,5.1,2.3,4.6,3.3-.4,8.3-5.8,11.4-6.8,1.1-.4,1.3.7,1.4.7l-1.5,6c2.7.6,3.8-1.8,6-3,.2.5,1.1,2.1,1.5,3,2.5,5.3,4.5,8.1,4.5,0,2.5-.3,4.4.2,4.5,0,2.6-3.7-2.1-5.8-6.1-4.6l1.5-3c-2.2-.4-4.2,1.4-6.1,1.5-1,0-2.1-.2-3,0-.5-4.4,2.9-3.5,4.5-4.5l4.5,1.5c.2-1.4-.3-3.2,0-4.5,3.2-.3,3.9,1.5,4.5,4.5-2.4.3-3.5-1-3,2.3,0,1.5,2.1.5,3,.8,6.2,1.8,4.8-1.1,3-6-.2-.5-1.1-1-1.5-1.5-.7-1,2-3-3-3,0-3.8,3.5-5.4,6.8-6.1,4.6,3.1-1.4,3.8-.7,7.6,1.4.3,3.4-.3,4.5,0,1.3.4,1.8,1.7,4.5,1.5,6.8-.4,2.9-4.4,3.5-5.7.2-.4,2.5.2,2.7-2.5.3-3.3-.4-7.4-4.7-6.9,1,3.4-1.1,6.5-1.5,9.1h-4.5c-.5-3.2-3.6-9-2.9-11.2.6-1.9,3.7-2,4.1-2.7.3-.4-1.1-2.6-.5-4.3,1-2.7,4.7-16.1,5.4-16.7s5.4,2.2,6,1.5c2.2-2.6-5.9-6.9-3-10.6l3.8,4.5c7.3-3.3,7.6-14.1,1.5-13.6s4.1,7.3,2.3,9c-5.7.7-7.5-5.3-7.5-10,0-3.7,2.3-5.4,2.5-7.5.3-3.4-4-8.8,1.9-8.1.8-2.1-6.1-1.3-3-4.5.3-.4,2.8,2.5,3,.8-5-11.1-5.7-22.6-2.7-34.4,1.1-4.4,14.3-29.6,17.1-32.8.4-.5,7.9-6.5,9.4-7.7,1.7-1.4,17.6-11.5,18.5-10.5-8.8,18.4-14.7,39.9-11.4,60.6.3,1.7,3.4,15.3,6.9,12,1-10.4,6.2-20.2,8.4-30.1,4.8-21.2,2.6-38.5,17.3-56.8,2.5-3.1,8.5-3.8,5.3-8.3-4.1-.4-7.6.9-11.3,2.3-19.7,7.6-47.1,22-59,39.7-20.8,31.1-11.2,53.5-13.6,87.4-1.6,22.8-11.3,46.8-31.1,59.7-2.7-1.5.7-5.2.8-6,1.9-.2,4.2-.8,4.5-3h-4.5c.3-2.2,1.5-5.7,1.5-6.1,4.8,1.2,4.5-5.9,0-4.5.6-11.9-.4-27.9-1.7-39.9-.2-1.5-2.1-15-5.8-11.5-1.3,8.2-2.5,16.4-5.2,24.2-13.6,38.3-55.7,59.9-72.2,95.7-4.2,9.1-7.4,21.4-8.8,31.3l-26.3-30.4c-13.7-17.4-11.5-38.5-6.9-58.8-2.5-.2-5.2.3-7.1,2-3.7,3.1-19,19.4-21.6,22.9-4.2,5.8-3.8,7-3,12.9-2.2.7-6.1-.6-6.1,3.8,0,1.3,5.8,1,6.1.8-.9.9-1.2,4.3-1.6,4.5-1.8,1.2-5.1-6-9.8,6.1-.5,1.3-2.1,5.2-2.2,5.5-.6,2.7.6,10.2,0,11.1-.3.3-2.3-.3-3,0-3.2,1.3-7.3,2.4-10.6,3.8s-3.6,7.1-5.3.7c-9.3,4.1-1.2,7.6-6.8,13.6l6,4.5h-86.2c.7-8.5-4-4.3-7.6,0h-3c.7-4.1-3.3-2.1-6-6v3h-4.5v-3h4.5c-.7-1-2.5-2.9-2.5-3.8,0-3,5.4-17.1,6.7-21.5,1.1-4,2.4-7.7,3.3-10.6,3.2-11.1,7.9-24.6,7.3-36.2-.4-7-10.2-17.3-7.1-26.1,3.8-.2,7.5.2,11,1.9,10.7,5.2,21.3,42.8,28.7,54.5,1.2,1.9,1.4,3.2,4.2,2.6.8-8.7,1.8-19.8,4.5-28,17.3-54,69.4-73.7,100.6-115.7,6.7-9,17.6-28.1,21.3-39.2,4.8-14.3,7.9-32.7,6.7-47.7-.9-11.4-6-22.3-3-34.1,2.6-2.7,16.1,11.9,18.1,14.4,19.6,24.5,26.7,58.2,22.6,89.1-2,15-26.1,58.9-6.8,70.5,17.3,10.4,33.6-20.6,38.3-32.9,19.1-49.9-1.6-84.8,1.9-134.2,3.9-54.6,40.3-103.5,83.3-136,36-27.2,77.7-44.2,100.3-85.7,1.9-3.6,10.7-26.7,12.3-27.1,5.5-1.3,7.9,22.4,8.3,26.5,2.5,25.7-1,51.9-12.3,75.4-12.4,25.8-43.4,52.9-39.2,83.4,1.5,11.3,6.5,15.9,18.2,12,18.7-6.4,36.1-45.7,39.2-63.6.6-3.3-1.5-15.4,3.9-14.2,7.8,1.7,19.3,30.8,20.3,38.7,1.6,12.7-1.4,31.4-6.7,42.9-3.6,7.9-10.5,13.9-14.7,21.3-4,7.1,6.9,5.5,12.2,4.9,1.8-.2,14.8-2.5,15.4-2.9,1-.6,1.2-3,2.5-3.8,24.8-14.9,45.5-39.8,53.9-68.2,1.8-6.1,5.5-37.9,7.1-39,2-1.4,8.2,2.8,6,6,7.3-3.7-1-6.6-4.5-9.8l6,.8c1.2-4.8-5.8-3.8-6.2-5.4-2-8.6,10.1-24.1,4.7.9l4.5-4.5c-.8,2.3,3.7,5.4,3,6-12.7.7,2.8,6.2,3,6.8,1.4,3.7-3.9,1.7-4.6,2.3l4.5,6-6,4.5c7.7-.2,8-8.1,15.1-4.5v-6c2.3,0,1.7,2.8,3.9,4.4,1.7,1.2,4.4,1.4,5.9,3.1.9-1.4-1.6-5-.8-6,2.9-3.2,2.6,5.3,6,3l-4.5-4.5,3-4.5c-5.7,2.8-6.5-.7-10.6-2.3-2.3-.9-6.5,2.1-6.1-3.7,6.8,1.5,5.9-4.8.8-3.1-1,.3-.6,3-.8,3.1-.5.3-2.6-.6-3.4,0-1.8,1.4-.4,3.4-2.6,3,3-4-4.2-13-6.1-7.6,1.5-8.8,5.5-1.4,10.6-.7-3.8-5.1-10.5-10-16.6-11.4,0-2.8,6.5-3.9,7.5-3,1.5,1.4-3.9,8.2,9.1,1.5-.7,14.3,10,6,14.1,6.3,2.2.2,5.3,3.7,8.6,2.7-2-3.6-9.8-5.7-13.6-6,0,1,0,2,0,3-3.6.1-5.3,1-4.5-3,1.5,0,3-.1,4.5,0-.1-6.3-5.4-7.4-6.1-13.6-6.8.7-9.8,7.3-18.1,7.5,3.2-27.6,17.2-53.5,35.5-74.1,17.5-19.7,49.7-37.5,74.5-46.5,2.9-1.1,17-6.2,15.5.4-.4,1.8-17.8,16.2-21.1,20.1-10.6,12.7-20.9,33-15.7,50,3,9.8,15.3,11.2,23.6,7.4,10.9-4.9,36.1-41.5,42.3-53,29.6-55.8,14.3-127,70.1-171.8,2-1.6,17.7-13.4,18.9-12.1-.9,8.2-8.5,15.3-11.7,22.3-3.1,6.9-14.2,36.1-15.1,42.3-2.3,16.6,5.9,41.3,7.1,58.6,2.3,31.8-18.8,90.5-32.8,119.8-.9,1.9-3.1,1.9-3.2,2.1-1.2,3.3,2.2,23.4-3.4,24.8,7.1,19,4.6,43.6,33.1,35.2-.5-6.7,7.2-17.2,6.4-23-.1-1-2.6-.8-3-2.1-4.3-14.1-4.2-40.6-1.2-55.2,10.5-50.6,54.5-75.7,54.2-133.5,0-5.5-5.2-26.4-4.5-28.5,3.1-10.8,20,8.8,22.5,11.9,9.3,11.7,16.1,24.4,15.2,40,4.5,4.7,18.6-18.5,20.1-23,14.5-44.8,6.6-88.3,41.2-128.2,3.5-4,28.8-26.3,31.8-25.7,5.2,1-1.6,14-2.1,17.5-1,7.2-1,24.5,6,28.7,1.9,1.1,17-.7,19.6-1.7,9-3.4,20.8-21.4,22.4-30.5,1.1-6.1-.1-12.6.7-18.9,2.1-15.5,11.6-31.1,11.8-48.8.2-21.5-20.5-281.3-28.4-298.2h0ZM1172.9,316.2c-1.3-2.3,10.7-6.2,11.2-1.9,6.9,9.8,41.4,303.5,47.4,315.8.9,1.8.8,4.5,3.4,4.9-.5-9.8-8.6-130.6-25.4-197.4-.3-.7-20.3-74.6-20.9-75-.4-.3.6-32.6.5-32.8-.1-1.8-11.4-6.8-12.3-8.5l-3.8-5.2ZM1204.6,668.3l-10.3-294.9c0-9.6-14.1-35.2-21.9-41.5-1.3-1.1-9-5.9-8.1-1,.5,2.6,7.5,10.9,9.6,14.6,14.8,26.6,23.2,288.7,26.4,317.4.3,2.7.8,6.5,4.4,5.4ZM1242.4,671.2c3-1.9,1.2-21.7-5.9-21.1-3.1,4.5-1.5,25.8,5.9,21.1ZM1185,660.7c-4.8,15.4-7.9,34.6-6.1,50.7.2,2.3.2,3.8,2.4,5.2,9.8,2.1,8.8-40.4,8.1-45.9-.4-3-1.2-8.9-4.3-10h0ZM1248.5,700.8v65c0,4.7,6.6,24.9,13.7,19.8,4.7-3.3-1.1-14.3-1.5-18.4-1.2-13-.2-27-2.1-40.3-1.3-9.6-4-19.3-7.2-28.4-.5-.4-2.9,1.7-3,2.3h0ZM1315.1,703.1c-.6-.6-7,1.3-6,3,3.5,3,7.9-1.1,6-3ZM1097.6,724.2c0-1-.8-1.9-1.9-1.9s-1.9.8-1.9,1.9.8,1.9,1.9,1.9,1.9-.8,1.9-1.9ZM1166.8,739.3v3h6.1s0-3,0-3h-6.1ZM1219.8,759c-.2-5.5,1.1-11.8-2.3-16.6-7.8,4.3-6.9,16.7,2.3,16.6ZM1097.2,802.9c-20.8,17.5-14.5,21.5-17.5,45.6-2.8,22.4-25.6,39.8-37.6,57.4-4.9,7.2-7.2,15.6-12.3,22.5-11.1,15-26.7,24.6-36.7,42-7.3,12.8-11.7,25-2.4,38.2,2.2,3.1,7.5,5.8,6.5,9.7-1.7,6.6-37.5,34-42.2,43.4l35.3-19.9c18.2-11.6,24.9-30.4,34.3-48.9-7.8,3.5-15.1,3.7-19.4-4.7-3.9-7.6,4.8-20,9.6-26.3,5.4-7,14.2-13.3,19.6-19.7,13.7-16.2,40.5-51.6,47.4-70.6,5.1-14.1,3.2-15,3.4-28.3.1-9.2,5.8-22.1,12.1-28.9,3.6-3.8,17.6-12.9,19.1-15.8s-2.5-4.1-2.2-7.9c.9-9.7,15.2-28,27-23.8,1.1-5-4.2-8.4-8.6-8.6-11.5-.6-26,18.5-26.2,29-.1,7.1,5.7,9.8-6.1,12.9,0-3.8-1.2-9.4-6-7.6l3,10.6h0ZM1333.2,759c-8,1.2-14.3-1-12.1,9l4.5-6c1.8,2.3-.4,10.3,0,10.6,4.2,2.6,6.4-5,6.1-8.2-.1-1.3-3.7-.3-3.1-1.6l4.5-3.8h0ZM1302.6,764c-4.2-2.7-12.6-2.1-13.2,4.1,5-.8,8.5-2.2,12.1,2.3l-2.3,3.8,8.3-3c-1.4-1.4-4-6.5-5-7.1ZM1313.6,783.2c0-.7-.1-5.6-.3-5.9-.6-.7-2.6.6-2.7-.9s1.4-.3,2-.8c4.6-3.9-6.5-11-2-1.5l-13.6,1.5c-.4.3,4.2,7-.8,9-6.3,2.6-1.7-5.2-5.3-6,.7,2.3-3,3.1-3,3.9-.2,11.4,7,3,9,5.1.3,3.1-1.4,7,2.3,6.1,1.4-6.3,8.8.6,14.5-.7,3.6-.8,1.8-3.9,4.4-3.9,1.7,4.3-2.4,4.3-2.7,5.3-.2.6,1.3,5.4-.5,6.7-2.3,1.6-7.6-2.7-5.8,4.7,1.8.9,1.9-6.6,4.5-3,.5.6.2,12.2,3.1,15.1,4-.4-.8-8.3,0-9.1,1.9-.2,4.2.3,6,0,.4.5-.9,3.2.8,3,3.5.6,1.7-1,2.3-3,.9-.1,2.6-2.1,3-1.5l-.7,6c3.7-2.2,3.1-5.5,4.4-8.6.2-.5,2.5-.6,2.5-1.3,0-2.4-4-6.3-3.1-9.7l-3,6c-5.4-1-1.9-12.2-3-13.6l-4.5,1.5c-.7-3.8.6-5.6,4.5-6.1.7-2.9-3.3,0-3-3l11.4,1.5c2.9-3.7-1.2-2.4-3.3-3.6-.6-.3-.6-2.3-1.2-2.3-3.2.1-8.4,5.2-9.9-.2l4.5-3h-7.5c-1.2,1.2,5.6,12-3,12.1,0,3.1,1.5,7.1-3,6,1.5-6.2-3-3.7-4.2-4.8-1.4-1.2,1.4-5.1-2.6-4.2-1.8.4.5,3.6-2.3,3-1.2-5.4.7-8.5,6-5.3,2.3,1.4,1.2,5.3,6.1,5.3h0ZM1172.9,771.1c-3.2-3.1-17.5,5.6-16.6,9.8,1.3,6.2,20.4-6.1,16.6-9.8h0ZM1092.7,775.7l-4.5.7c1.4,1.6,2.3,2.8,4.5,2.3v-3h0ZM1104.8,780.2c-2.1-.5-4,.8-4.5,3h4.5v-3h0ZM1333.3,781.7c-.2-.2-5.7-1.8-6.1-1.5l1.5,10.6c4.1.4,2.4,0,3-2.3.3-1.3,1.8-6.5,1.6-6.8h0ZM1098.7,783.2l-4.5-1.5c-.7,4,.9,3.2,4.5,3v-1.5h0ZM1295.4,793.8c-4.9-1.3-3.8,4.9-.7,7.5l.7-7.5ZM1309,795.3h-7.5v3c.7.6,8.6-.9,7.5-3ZM1298.8,811.9c0-1-.8-1.9-1.9-1.9s-1.9.8-1.9,1.9.8,1.9,1.9,1.9,1.9-.8,1.9-1.9ZM1002.3,834.6c0-1-.8-1.9-1.9-1.9s-1.9.8-1.9,1.9.8,1.9,1.9,1.9,1.9-.8,1.9-1.9ZM1119.9,928.4c1.9-2,3.3-28,3-32.5-.4-7.1-3.1-15.5-3.1-22.7,0-8.7,3.7-16.3,3.1-25-19.4,14-8.2,44.2-6.1,64.3.5,4.4-.5,9.3,0,13.6.3,2.1.9,4.5,3,2.2h0ZM1041.2,948c4.7-7.8,14-11.4,12.1-22.7-6.5,2.5-10.7,12-12.5,18.5-.4,1.4-2.5,4.5.4,4.2h0ZM1248.9,938.9c0-1-.8-1.9-1.9-1.9s-1.9.8-1.9,1.9.8,1.9,1.9,1.9,1.9-.8,1.9-1.9ZM979.6,963.1c0-1-.8-1.9-1.9-1.9s-1.9.8-1.9,1.9.8,1.9,1.9,1.9,1.9-.8,1.9-1.9ZM784,972.2c1.5-1.5-3-6.1-4.5-4.5s3,6.1,4.5,4.5ZM977.7,979.8c2.5-1.1,5-3.3,4.5-6-2.5,1.1-5,3.3-4.5,6ZM752.3,979.8c-4.6-.4-4.9,3.8-4.5,7.5,4.6.4,4.9-3.8,4.5-7.5ZM885.4,985.8c1.8-2.3-6.6-4.6-7.6,1.5,1.4.2,7.3-1.2,7.6-1.5ZM738.6,994.9c.2-.2,1-3.7.8-4.5-6.9,1.9-2.9,6.7-.8,4.5ZM746.2,997.9h-3v4.5h3v-4.5ZM788.6,1005.5l-4.5.7c1.4,1.6,2.3,2.8,4.5,2.3v-3h0ZM856.7,1010c-3.6.2-3,2.2-7.2,1.9-6.7-.4,2.9,6,5.6,4.1.2-.2,2-5.6,1.6-6h0ZM728,1014.6c1.1-2.1-1-4-1.5-3-1.1,2.1,1,4,1.5,3ZM738.6,1019.1c-1-6.3-3.6-1.2-6-3.2-1-.8,1.9-5.7-3.1-4.4l4.5,7.5-6-1.5c-1.4,8.7,7,2.8,10.6,1.5.1,1-.1,2,0,3,1.6,1.2,5.6-2.5,6-4.5-2.1-.1-4.1.8-6,1.5h0ZM769.1,1020.5c-.7-.7,1-7.5-5.5-8.9-4.1-.9-1.4,3.6-2.2,4.5-4-2.8-7.6-.4-2.6,1.9l11.7,5.6c-6.8,1.5-9.4-4.1-15.1-4.5-.3.3,3.2,6.3,3.1,8.2,0,1.2-4.8-.1-3.1,3.9h6.1l-1.5-3,4.6.7c2.2,1.5-.1-2.2,0-2.3.5-.4,9.9,3.4,12.1,3,2.6-11.2-6-7.9-7.4-9.2h0ZM750.7,1019.1c-1.8-1.8-6,3-4.5,6,2-.3,5.8-4.8,4.5-6ZM722,1026.7h-4.5v3c2.1.5,4-.8,4.5-3h0ZM748.7,1031.8c-2.9-2.1-7.9-4.4-11.5-5.1.9,6.1,15.2,6.2,13.6,13.6,5.8-1.8,1-6.3-2.1-8.5h0ZM859.7,1034.2v-6h-1.5v6h1.5ZM867.3,1032.7c-1.4-3.7-3.7-4-6-.7l6,.7ZM879.4,1041.8c6.2-.6-1-12-2.3-12.1-5.9-.3.7,10.1,2.3,12.1ZM873.3,1031.2c-1.3-1.2-5.6,2.5-6,4.5,2.6.4,8.4-2.3,6-4.5ZM781,1040.3v-4.5h-1.5l-1.5,4.5h3,0ZM1315.1,1035.7h-4.5v3h4.5v-3ZM761.3,1040.3c-9.6-4.1-7,3.2-.9,3.1,1.5,0,.8-3,.9-3.1,1.2-.7,5.3,1.4,4.5-1.5l-5.3-1.5.8,3h0ZM891.4,1044.8l.8-6c-4.9,2.7-7.8,4.9-.8,6ZM1212.6,1041.8c0-1-.8-1.9-1.9-1.9s-1.9.8-1.9,1.9.8,1.9,1.9,1.9,1.9-.8,1.9-1.9ZM1209.2,1044.8c-4.9-1.3-3.8,4.9-.7,7.5l.7-7.5ZM754.2,1047.8c0-1-.8-1.9-1.9-1.9s-1.9.8-1.9,1.9.8,1.9,1.9,1.9,1.9-.8,1.9-1.9ZM743.2,1049.4l-6,.7c1.6,2.3,3.2,2.6,6,2.3v-3h0ZM1221.3,1061.4c.6.7,13-8,6.8-12.1l-6.8,12.1ZM768.9,1114.4c-.5.3-2.1-.2-3,0l3,3c-.3,1-1.1,2-1.5,3l-10.6,1.5c-.8-4.5,3.2-3.5,5-4.5,5-2.8-2.4-3-3.5-3.7-2.5-1.8.3-6.5-4.5-5.3,2.1,4.8-4.2,12-1.3,16.4.5.7,9.4,1.9,10.4,6.2-3.3,7.2-5.6,12.7-10,19.5-2.4,3.7-12,18.2-15.8,18.3.6-2.4.8-5.1,1.5-7.5-5.1.4-8.3,7.7-1.5,7.5-2.9,11.6-12.9,21-14.7,34.4-1.9,14,2.5,27.9.9,41.7-.4,3.5-4.9,18.4-4.3,19.1,4.7,5,15.8-19,15.1-22.7l7.5,6c2.5-10.3-8-6.5-9.1-7.6-.8-.7,1-19.1,1.4-21.8.3-1.9,4.1.2,4.7-1.6.9-4.7-3.2-7.9-3.1-10.5,0-.8,2.7-.6,3.1-1.8.6-2.3-.4-5.2.7-8.1,4.9-12.9,14.5-23.5,22-34.7v6c7.9-.3,2.5-7.3,3.6-12.1,1.5-6.4,9.7-16.3,12.2-22.7,4-10.1,4.9-21.9,6.9-32.5.5-2.5-1-2.6,3-2.3v34c0,8.1-8.4,26.2-10.2,35.1-.3,1.6-1.2,5.5.4,6.4l44.6-49.1-7.5.8c-1.1-11.4-2.6-1.7-3.9-.2-1.4,1.7-3.5,2.3-5,4.2-5.3,6.9-7.6,15-13.8,20.2,4.6-19.8,4-37.5,1.5-57.5,6.4-3.1,5.5,2.4,11.3,1.5,4.1-.6-.9-7.7-4.7-8.9-2.6-.8-2.1,4.8-6.6,2.9-.3-1.8-1.1-5.3-1.5-7.6,7.3,1.7,6.1-7.9,0-3-3.8-3.5-5.6-24-7.6-25.7-.5-.4-3.2.2-4.5,0,.9,9.7-3.7,59.7-10.6,63.5h0ZM988.3,1082.6c4.3,4.2,35.4-18.5,31.1-28.7-5.8-5.1-6.8,3.7-10.6,7.6-4.5,4.7-12.6,10-18,15.3-1.3,1.3-4.4,4-2.5,5.8ZM1213.7,1067.5c-.7-4.7,2.3-12.5-3-15.1,0,4.4,4.5,8.4-1.5,6.8l4.5,8.4h0ZM1207.7,1055.4c-.1-.1-3.2-.6-3,.7,2.4,4.1,4.7,1,3-.7ZM756.8,1062.9c1.4-1.4-2.7-6-4.5-4.5-.3.2,2.2,6.8,4.5,4.5ZM767.4,1061.5c-.4-.4-4.6.2-6,0,2.6,2.8-2.5,8.1-1.5,9.1,2.8,2.7,10.4-6.2,7.5-9.1h0ZM773.8,1067.5c0-1-.8-1.9-1.9-1.9s-1.9.8-1.9,1.9.8,1.9,1.9,1.9,1.9-.8,1.9-1.9ZM880.9,1066h-3v4.5h3v-4.5ZM769.3,1070.5c0-1-.8-1.9-1.9-1.9s-1.9.8-1.9,1.9.8,1.9,1.9,1.9,1.9-.8,1.9-1.9ZM1216.7,1076.6c1.5-3-2.7-7.8-4.5-6-.8.8,1.7,8.3,4.5,6ZM764.4,1088.7c6.4.5,9,3.9,10.6-3l-4.5-3,6-4.6-4.6.7,1.5-5.3c-7.7-1-2.7,1.8-3.8,4.6-1.2,2.9-1.7,4.7-2.6,7.2-.2.5-2.9-.4-2.6,3.3-6.5-.5-11.3-.5-18.2,0,.2-2,.5-3.3,2.3-4.5,2.9-1.2,2,3.1,3.1,3.1,7.4.4,6.2-9,1.4-10.7-3.2-1.2-2.4,3.6-4.5,4.5-2.7,1.2-1.8-2.2-3.4-2.9-5.6-2.6-6.9,0-10.5.8-1.4.3-3.1-.7-4-.4-3.9,1.2-5.8,8.2-11.6,7.1l11.3,10.7h5.4c.9-2.1-6.3-1.7-3-4.6.4-.4,5.1.2,6.1-2.3.4-1.8-4.7-7.7-3-9.8,2.2-2.7,3.4,2.6,4.1,3,1.7.9,4.5,1,6.5,1.6l-4.5,6c1.9.7,3.7-1.4,4.5-1.5-.1,1-.6,3.2.9,3.1,5.1-1.2,10.6,2.7,15,0,.7,0-4.3,13.4,5.3,5.2.7-2.8-2.7-5.2-3-8.3h0ZM1226.2,1075c0-1-.8-1.9-1.9-1.9s-1.9.8-1.9,1.9.8,1.9,1.9,1.9,1.9-.8,1.9-1.9ZM1219,1076.6v1.5c1-.5,1-1,0-1.5ZM725,1081.1c-.5-2.2-2.4-3.5-4.5-3v3h4.5ZM900.5,1078.1c-2.8-.5-5,1.7-4.5,4.5l4.5-4.5ZM1239.4,1081.1c-3.1-4.9-11.3-4.8-9.1,1.5l9.1-1.5ZM712.9,1088.7h-3c-.5,2.2.7,3.1,2.3,4.5l.7-4.5ZM950.5,1093.2c-20.8,7.1-49.9,17-56,40.8,8.1-5,14.8-12.2,23.2-16.9,11.7-6.6,34-8.1,32.8-23.9h0ZM749.2,1105.3c-1.8-.3-4.1.2-6,0l4.5,5.3-4.5.8c.9,3.4,4.5,3.2,7.6,3-.2-2.4.4-5.3,0-7.6,4.3.9,6.9-1.6,6-6l-4.5,3-3-9.1c1.4,3.5-.4,7.4,0,10.6h0ZM732.4,1103.6c1-2.4-2.3-5.1-4.3-5.8-.2,2.1-2.6,7.8-1.5,9.1.9,1,5.7-2.9,5.8-3.2h0ZM885,1105c2.7-7.3-7.6-5.9-11.7-5.7,0,3.3,8.7,4.1,9.1,4.5-7.2,7.9,1.6,3.9,2.6,1.2h0ZM1357.8,1100.7c0-1-.8-1.9-1.9-1.9s-1.9.8-1.9,1.9.8,1.9,1.9,1.9,1.9-.8,1.9-1.9ZM1200.1,1100.8c-10.1-2.2-3.4,5.8-9.1,11.3l4.5.8c0,2.9-6.3,15.7-5.8,16.4,1.3,1.8,3.5-1.3,1.3,7.7,9.4-.5,1-15.9,7.5-15.1v-1.5c-7.4.6,1.5-5,1.6-5.6.3-3.3-1.6-9.9,0-14.1h0ZM1266.7,1102.3c-1.5-1.5-8.8,4.2-3.8,6,2.7,1,3.6-3.5,3.8-6ZM1344.2,1108.3c0-1-.8-1.9-1.9-1.9s-1.9.8-1.9,1.9.8,1.9,1.9,1.9,1.9-.8,1.9-1.9ZM846.1,1111.3c-2.6-2.4-7.4,5.7-10.4,4.7-2.7,15.6,11.8-3.4,10.4-4.7ZM712.9,1118.9c-.7-2.9-3.3-3.4-6-3-1.6.7,4.1,3.6,6,3ZM751.1,1123.4c0-1-.8-1.9-1.9-1.9s-1.9.8-1.9,1.9.8,1.9,1.9,1.9,1.9-.8,1.9-1.9ZM1205.6,1121.5l-2.3,1,3.6,8,2.3-1-3.6-8ZM1017,1126.5c-4.1-.9-2.6,1.2-3.7,3-9,13.7-22.4,21.9-29.5,33-5.6,8.7-8.3,27.8-7.6,38.1,4.3.8,2.5-1,3.4-3.3,3.4-8.4,4.6-15.7,9.6-23.8,8.8-14.3,15.1-17.2,22.9-34.5,1.2-2.7,7.1-5.9,5-12.4h0ZM1203.1,1131c.5-2.1-.8-4-3-4.5v4.5h3ZM830.9,1128c-5.7-1.8-8,5.8-3.8,9l3.8-9ZM703.8,1132.5c-1.5-1.5-6.1,3-4.5,4.5s6.1-3,4.5-4.5ZM1330.2,1132.5c-4-1.7-10.1,2.7-7.5,6,1.9,2.6,3.3-2.2,4.2-3,1.1-.9,4.4,1.6,3.3-3.1h0ZM689.1,1143.1c0-1-.8-1.9-1.9-1.9s-1.9.8-1.9,1.9.8,1.9,1.9,1.9,1.9-.8,1.9-1.9ZM823.1,1143.4c-5.2-2-7.7,6.3-7.2,10.3,3.4-1.7,9.8.6,11.4-3,.7-1.6-3.8-7.1-4.2-7.3h0ZM731.1,1150.7l-6,.7c2.3,3.3,4.7,2.9,6-.7ZM681.5,1153.7c0-1-.8-1.9-1.9-1.9s-1.9.8-1.9,1.9.8,1.9,1.9,1.9,1.9-.8,1.9-1.9ZM1234.9,1156.7c-1.9-6.3-7.9-.4-6,1.5,1,1,4.6-1.9,6-1.5ZM811.3,1174.9c2,3.7,7.9,5.8,10.6,2.3,2.2-2.6,7.2-19.6,4.5-21.3-25.7-.4-12.7,13.3-13.6,14.4-.5.6-3.6-1.2-3,1.5l7.5,1.6-6,1.5h0ZM765.9,1168.8c-1.9-1-5.3,2.4-4.5,3,1.9,1,5.3-2.4,4.5-3ZM758.3,1174.8c-2.8.8-3.6-1.3-3,4.5,1,0,2.3.2,3,0,.6-.2,2.7-3.5,4.5-3.8-2.8-4-3.3-1.1-4.5-.8ZM808.2,1179.4h-4.5c-.6,3.6.7,6.4,4.5,6,.4-1.5-.5-5.3,0-6,.1-.2,2.5.4,3.1-.7-2.3-6-6.3-5.5-3.1.7ZM761.7,1188.4c0-1-.8-1.9-1.9-1.9s-1.9.8-1.9,1.9.8,1.9,1.9,1.9,1.9-.8,1.9-1.9ZM821.8,1191.5c-2.6-2.3-6.8,1.9-4.5,4.5,1.4,1.6,6.1-3.1,4.5-4.5ZM1301.5,1197.5c.3-.3,1.7-4.9,1.5-6-2.9.7-3.4,3.3-3,6,.5,0,1.3.2,1.5,0h0ZM672.1,1286.7c1.6.4,2.7,3.1,5.3,3.1.8,0,.4-2.6,1.9-3,1.5-.5,3.7.2,5.3-.5,2.9-1.1,4.9-3.9,8.1-4.2,2.1-.2,3.2,5.4,8.2,3.1l-4.3-6.8c2.6-1,8.9-9.6,9.6-9.8,6.6-1.7-.6,9.3.7,10.6,5.8,5.5,9.8-19.6,8.7-20.9-.4-.4-4.9-.2-2.6-3.3.3-.4,2.6,1.1,3.1-2.2.9-6.4-.7-10.4-3.1-16l4.5.8c-3.4-4.5-.2-11.9-1.5-16.4-.4-1.4-2.9-.9-3-1-.6-.8,9.6-13-4.5-16.6,1.1,3.2-1.7,7.6-1.6,9.7,0,.5,8.4,2.9-1.4,5.4l-1.5-3c2.1,7.6,1.8,12.5-1.5,19.6-5.8-2.1,1.7-10.7,1.5-15.1-4.2-3.1-14.4,14.9-17.4,18.2-2.7,2.9-10.5,7.3-11.2,10.1-1,3.8,7,7.9,4.4,14.1l4.5-3,.8,4.6,5.3.7c-1.6,3.6-9,.8-11.1-.6-2.9-2-4.8-14.8-8.6-12.2l-10.6,15.1,6.8-3,.7,3,10.6-1.5c.3,2.6-3.5,1.3-4.4,4-.7,2.2,3,8-4.7,8.1,3.9-6.8-6.2-9.3-12.1-9.1-.2,5.9,6.9-.2,4.5,9.1,2.5,1.2,5.3-3.8,6-3,2.8,2.7-2.5,3.1-2.6,3.3-.4.6.9,2.3.6,3.3-.8,2.3-3.1,2.9-2.5,5.6,2.5,0,2.3-4.3,4-4.7,2-.4,3.7,1.4,5.1,1.6,0-1,0-2,0-3l6.8,1.5c-1.5-8.9,7,2.5,3,3-4.5.6-6.4-.8-9.8-1.5,0,1,0,2,0,3-3.2-.8-10,1.7-7.5,4.5.3.3,6.1-2.8,8.3,1.5.3-1.8-.7-3.8-.8-6h0ZM1225.8,1203.6h-7.5v1.5h7.5v-1.5ZM944.1,1208.5c-11.5-10.7-33.3,10.7-29.9,23.8,7.1-4.6,10.3-13.9,18.6-17,4.1-1.5,9.6,1.6,11.5.3,1.1-.7,1.2-5.7-.2-7.1h0ZM740.1,1223.2h-3v4.5h3v-4.5ZM778,1229.3c.4-2.8,0-5.2-3-6v6h3ZM735.6,1236.9c3.3-1.7,5.8-5.7,2.2-7.6l-2.2,7.6ZM594.9,1230.8c-2.1-2.1-11.2,7.2-13,9,.3,2.6-8,9.5-6.7,10.6,2.9,2.6,20.6-14.3,19.7-19.6h0ZM1283.3,1230.8c-3.6-3-15.2,9.2-13.6,10.6,7.4,1.3,10.2-5.5,13.6-10.6ZM781,1232.3c-8.4-1.4-7.7,2.8-2.3,7.5,2.8-1.9,2.4-4.4,2.3-7.5ZM744.7,1249c-2-1.8-4.8,5.9-9.1,3,.3,2.4,5.7,5.1,5.7,6.8,0,1-3.9,4-2.7,6.8,8.6.7,4.3-4.5,4.4-9.8,0-2.5,1.9-6.5,1.7-6.8h0ZM1218.3,1259.5c2.9-2.8-5.9-10.2-9-5.3l6,2.3-1.5,3c1.2-.2,4.2.3,4.5,0h0ZM1234.9,1268.6c-4.9-1.1-7.4,3.5-7.5,7.5,1.6,1.7,9.3-6,7.5-7.5ZM582.8,1333.6c1.9-21.9,3.5-31.1,12.2-51.7.9-2,6.5-4.4,4.4-10.3-13.7,9.1-25.6,22.5-30.2,38.6,3.8,2.5,6-6.3,9-6.8,0,2.9-1.5,5.1-1.6,8.2-.1,3.8,0,22.8.7,25.5.6,2.3,2.3,4,4,5.6,0,.5,0,1,0,1.5-.3,6.5-1.2,13.2,5.3,18.1,1.6-.4.6-3.1.7-4.5.8-5.7-.4-3.1-1.5-6-.7-1.9-3-5.6-3-7.6,0-2.1,4.1-8.1,0-10.6h0ZM744.7,1277.7c2.5-2.4-3.6-8.5-6-6-3.2,3.2,2.9,9.2,6,6ZM741.7,1285.2c.4-2.8,0-5.2-3-6v6h3ZM1232.2,1300c-.4-.7,1.6-14,.9-16.7-1-3.8-5.4-4.6-8.8-4.1l4.5,2.3c1.2,3.2-3.1,1.8-3.1,3.1s2,3.3,1.6,5.2l-3-1.5c.7,4.1-2.5,22,3.6,21,.4,0,6-4,6.3-4.4,3-4.7-1.8-4.5-2-4.9h0ZM737.1,1286.7l-6-4.5c-.6,7-7.1,20.1,4.5,8.3.2-.7-7.6-1,1.5-3.8h0ZM659.6,1289.5c.9-1.6.2-3.9.3-5.7-6,6.8-6.2,8.3-13.6,1.5l1.5,9.1-3,.8c5.3,6.3,1.3,10.7-6,11.3l1.5,4.5c5.5-1.6,4.4-6.8,12.1-4.5.6-2.5-2.1-1-2.6-1.8-1-1.7-.3-3.9-.4-5.7,4.1-1.5,2.9,2.9,4.4,3.8,1.1.7,5.5-1.3,7.7.7v-4.5c-19.4-.8-3.2-7-1.8-9.4h0ZM661.5,1341.2c.2.4,5,5.8,5.3,6,4.8,2.2,3-2.3,4.2-4,.4-.6,4.7-.5,2.5-3.5-1-1.3-5.9.4,0-8.4-6.1-1.8-3.7-5.1,1.5-2.2-2.7-6.1,6.1-3.4,4.5-6.8-1.1-2.4-3.8-2.6-6-2.3l.8,3h-5.3c-1.2-14.8,8.8-9,14.6-17.2.9-1.3.3-3.7.5-4,1.4-1.3,13.2,4.8,16.6,3l-1.5-6c7.5-1.5,3,3.1,4.7,5.8,4.2,6.5,11.1-6.1,10.4-10.3-8.8-1.8-7.3-2.8-1.5-7.6-8.8.1-2.8,11.3-10.6,9-.8-2.2,6-1.2,3-4.5-.2-.2-4.6-1.6-5.1-1.6-1.7,0-1.2,4.4-2.8,5.8-.8.7-2.3,0-2.7.3-.2-1.1.7-3.2-.8-3-2.1,1.2-6.3.8-7.9,2-.8.6-.2,2.4-.4,2.6-.7.7-3.5-.5-8.5,4.4-1.4,1.4-3.5,1.5-3.6,1.7-4.3,4.9,6.5,1.5,7.5-1.5-.3,5.3-6.4,8.8-11.1,7.6-1.7-.4,0-3.7-2.5-3.1v7.5c-3.5-2.7-2.9-5.9-9.1-4.5-.7,3.2,2.9,3.8,3.1,6.8,0,.3-5.8,2.2-3.1,5.3.6.7,5.2-2.1,6-1.5.5.4,2.3,10.8,4.6,12.8l-9.1,2.3c-.3.3,1.1,5.2,1.5,6-.7-1-9.8-2-7.5,3.8,2.3,5.7,10.3.2,7.5-3.8h0ZM643.3,1288.3l-6,9.1c2.4,2.9,6.4-7.7,6-9.1ZM679.6,1289.8v3h7.6s0-3,0-3h-7.6ZM678.1,1294.3c1.1-2.1-1-4-1.5-3-1.1,2.1,1,4,1.5,3ZM635.8,1312.4c.4-.4-3.5-8-2.3-10.6-2.5,1.1-5.8,13-5.3,13.6,2.2,2.6,3.1-2.4,4.3-2.9,1-.5,3,.2,3.3,0ZM734.1,1301.9c-6.2,1.3-10.4,6.5-3.8,10.6l3.8-10.6ZM706.9,1307.9c-2-2.3-14.5,11.8-15.1,14.4-1.2,5.2,7.7-.6,9,.7.6,2.1-2.4,8-1.5,9.1,2.7,3.1,3.4-6.2,6-3,.4.5-.3,3.4,0,4.5,13.8-3.2.8-5.6-1.3-9.4-.8-1.4,2.2-6.3,1.3-8.8l-6,.8c1.9-7.1,9.2-.3,7.5-8.3h0ZM653.8,1309.5c-2.6-1.7-8.1,4-7.5,4.5,4.6,2.5,4.8-.7,6.8-1.5,1.5-.6-.4,3.8,2.2,3,0-1.2-1.3-5.8-1.6-6h0ZM720.5,1310.9h-6c3.9,7.2-2.9,3.9-4.3,6.3-1.1,1.8.3,7.7-.2,10.4l6.5-7.9,4.1-8.7h0ZM1224.3,1310.9c-1.8-1.9-16.2,4.3,0,6-.2-1.5.4-5.6,0-6ZM640.3,1318.5c0-2-1.4-4-1.5-6-2.6,1.2-1.4,4.2-6,3,2.7,5.5,3.6,4,7.6,3,0,9.8-11.5-.4-13.6,1.5.2,5.1,3.4,5.9,7.6,5.3-.7,5.6-7.1,2.5-10.6,2.3l4.5,3c-.7,3.4-5.1-.2-6.1,5.3-.8,4.7,4.1,5.4,7.6,6.8l-3,3c4.1,1.9,12-8.5,8.3-9.1-5.1-.8-2.3,4.6-8.3,1.5,1.6-2,12.1-18,12.1-9.1l-6,3.8c7.6,2.1,9.6-3.1,7.6-9.8l3.8,3c-.3-2,3.5-2.9,3.7-3.1,1-1.5-3.4-6-3.8-6-1.4-.1-2.7,1.3-3.6,1.6h0ZM515.1,1315.4c0-1-.8-1.9-1.9-1.9s-1.9.8-1.9,1.9.8,1.9,1.9,1.9,1.9-.8,1.9-1.9ZM688.7,1323c-.2-.2-4.6-1.4-5.1-1.3-5.4,1.1.9,7.6,1.3,7.4,1.3-.6,4.9-4.6,3.8-6h0ZM563.1,1335.1c.5-.4,6.9-11.1,2.3-12.1l-5.3,11.3c-.2,1.3,2.8.9,3,.8h0ZM696.3,1336.6c0-3.7,1.2-9.1-3-10.6.8,2.5.2,9.6,3,10.6ZM1257.6,1338.2c-1.8.5-7-2.1-7.6-1.5-2.6,2.7,6.3,7,7.6,1.5ZM644.8,1357.8c.4-3-2.9-6.7,2.3-9.1.6-.3,2.8,7.5,6.8,6,.6-6.5-3.2-9.2-6.8-13.6-4-1-1.5,3.6-2.3,4.5-2.6,3.2-3.1-3.3-3.8-3-2.5,1.2-.7,3.1-1.3,4.2-.3.5-2.3.2-2.4.3-.7,1,6.4,5.7,4.5,7.5-3.1,3-5.6-3.9-7-4.3-3.9-1.2-14-1.8-10.6,3.9.7,1.2,5.4-.3-.6,6.4,8.9,1.8,5.1-3.5,6.1-4.5,1.5-1.6,6.4,2.8,8.4,3,2.4.3,4.8-1.4,6.7-1.5-.7,5.8-2.6,11.7-1.5,18.1,1.6-1.3,5.5-1.1,6.1-2.3,2.3-5.2-2.7-2.7-3.1-3-2.6-2.3-1.3-6.6-1.5-9.8,1.4-1.6,7.3,7.7,10.6-2.3-2.9-1.4-7.3-.8-10.6-.7h0ZM417,1348.2c-.8-.9-.5-2.4-.6-2.4-3.2-2.1-4.4,10.8,3.1,3.8.4-1.2-1.6-.4-2.4-1.3ZM1197.1,1347.2c-.2-.2-3,.4-3.8-1.5,2.2,6.4-5.2.2-6.8,4.5l9,3c-.2-1.5,2.3-5.3,1.5-6h0ZM487.5,1354.8c4.1-1.3,2.2-2.8,1.5-6h-1.5v6ZM956.5,1351.8c-2.7-3.6-6.5,10.6-6.9,12-3.5,14.4-4.1,43.6,15.9,43.9,1.4-1.3-6-16.3-6.9-19.6-3.1-12.3-1.1-23.9-2.2-36.4h0ZM514.7,1353.3l-6,.7c2.3,3.3,4.7,2.9,6-.7ZM1233.4,1353.3c-3.2-3.2-11.2,9.8-9.1,12.1,3.6,3.8,10.3-10.9,9.1-12.1ZM1194,1356.3c-3.4,1.9-4.2-1.8-7.5-1.5l1.5,6-6,1.5c4.7-.3,4.8,2.7,7.5,4.5l4.5-10.6h0ZM505.6,1357.8c-3.2-3.2-8.7,6.4-7.5,9.1,1.7-1.2,10.5-6.1,7.5-9.1ZM514.7,1363.9c.5-2.8-1.7-5-4.5-4.5l-1.5,5.3,6-.8h0ZM1221.3,1362.4l-12.1.7c5.7,6.6,9.8,10.8,12.1-.7ZM656.9,1363.9c-3.3.4-7.2,1-6,4.5h6v-4.5h0ZM507.1,1365.4c-2.2-.5-3.2.6-4.5,2.3,1.5.7,6-1.6,4.5-2.3ZM516.2,1366.9h-4.5c-1.5,1.3,4.7,9.7,4.5,0ZM254.5,1377.5c3.2-1.2,5.1-4.2,4.5-7.6-4.8,1.5-5.2,2.4-4.5,7.6ZM511.7,1371.4c-4.2-4.1-1.5,4.7-1.5,6.8s-1.9,8.1-1.5,8.3c7.3,3.9,5.2-13,3-15.1h0ZM1213.5,1373.2c-3.3-5.5-11.7,1.2-10.3,7.3,4-3.5,5.7-3.2,10.6-1.5-.2-1.8.6-4.4-.2-5.8h0ZM1221.6,1375.6c-.9-.5.7-3.3-1.8-2.7-3.6,2.8,1.6,10.9,4.4,8.9.3-.2,4-5.3,3.1-5.9-1.8-.1-4.1.7-5.8-.4ZM1177.4,1382c2.3-.3,5.5-6.3,4.5-7.6-5,2.2-6.6,2.2-4.5,7.6ZM418.3,1379c0-1-.8-1.9-1.9-1.9s-1.9.8-1.9,1.9.8,1.9,1.9,1.9,1.9-.8,1.9-1.9ZM576.7,1377.5c-9.2,2.2-7.3,4.1-6,12.1,5.2-1.1,1.3-6.8,1.7-7.4.5-.8,5.6-.8,4.4-4.7h0ZM461.8,1383.5c.5-2.1-.8-4-3-4.5v4.5h3ZM452.7,1383.5c-.2-.2-5.7-1.9-6-1.5v3h6c0-.5.2-1.3,0-1.5h0ZM647.9,1382h-4.5v3h4.5v-3ZM634,1383.8c-1-.9-4.1,0-5.8-.3-.8,3.6,5.9,21.2,10.6,16.6.6-.6-4.1-15.8-4.8-16.4h0ZM1220.2,1385c0-1-.8-1.9-1.9-1.9s-1.9.8-1.9,1.9.8,1.9,1.9,1.9,1.9-.8,1.9-1.9ZM1178.9,1385c-2.6-2.6-7.7,2.4-2.2,4.5,3.2,1.2,2.7-4.1,2.2-4.5ZM451.9,1385.6l-2.8,6.7,2.9,1.2,2.8-6.7-2.9-1.2ZM1186.5,1391.1c-2.4-5.9-4.9-7.4-4.5,0,1.4.4,3.2-.2,4.5,0,.3.6-.3,2.1,0,3,3.1.5,3.4.1,3-3-1-.2-2.1.2-3,0h0ZM1200.1,1386.5c-8.9-2-.6,10.1-5.3,16.6,7.5-2.7,5.2-2.2,6.3-7.6.2-1,1.7-1.7,2-2.2.2-.4-5.3-1.6-3-6.8h0ZM487.9,1389.5c0-1-.8-1.9-1.9-1.9s-1.9.8-1.9,1.9.8,1.9,1.9,1.9,1.9-.8,1.9-1.9ZM256,1389.6h-6v3l6-1.5v-1.5h0ZM487.5,1398.6c3.2-3-5.4-9.9-9.1-3.8l4.5-.8-1.5,4.5c1.5-.2,5.6.4,6,0ZM575.2,1395.6c-1.8-1.8-6,3-4.5,6,2-.3,5.8-4.8,4.5-6ZM508.7,1401.7c-.3.2-4.8-.1-6.5.2-2.1.4-8.2.5-8.6,2.8,5.2,2.7,7.7-.7,11-1.1,1.2-.1,3.4,1.6,4.1,1.1.3-.2-.3-2.7,0-3,.6-.5,4.2,1,4.5-.7-5.6-5.9-4.2.5-4.5.7h0ZM269.6,1400.2h-4.5v3h4.5v-3ZM1228.8,1401.7h-6v4.5c2.8.4,4.4,0,6-2.3v-2.2h0ZM1203.1,1403.2c-6.5.3-5.4,5.8-.7,9.1l.7-9.1ZM1192.5,1404.7c-1.7-1.5-7.5,4.9-6,6h6.1c-2-1.8.2-5.8,0-6h0ZM575.2,1415.3c.7-7.8-10.6-2.7-7.5,0h7.5ZM581.3,1412.3h-3v4.5h3v-4.5ZM1236.4,1416.8l-7.5-1.5c-2.4,2.1,8.7,9.8,7.5,1.5ZM390.7,1416.8h-4.5v3h4.5v-3ZM479.9,1416.8c-2.8-.4-5.2,0-6,3,2.8.4,5.2,0,6-3ZM1097.2,1416.8c-2.6-2.6-7.7,2.4-2.2,4.5,3.2,1.2,2.7-4.1,2.2-4.5ZM1201.6,1416.8c-7.4-5.3-8.9,17.6,0,6.4,3.3-4.2-.8-3.1-1.1-3.7-.4-.7,1.3-2.6,1.1-2.7h0ZM1180.4,1422.8l-1.5-4.5h-1.5c-.2,3.6-1,5.3,3,4.5h0ZM1189.5,1418.3c-2.6-2.6-7.7,2.4-2.2,4.5,3.2,1.2,2.7-4.1,2.2-4.5ZM476.9,1421.3h-4.5v4.5c3.7,1,3-1.6,4.5-4.5h0ZM1100.2,1424.3c1.1-2.1-1-4-1.5-3-1.1,2.1,1,4,1.5,3ZM1187.8,1426.1c-1.8-2.8-7.1-1.8-7.4,2.1,10,0-.9,13.3,9.1,11.3.7-2.5-2.9-.7-3.1-2.4-.3-2.6,3.2-8.2,1.4-11h0ZM1191,1424.3v9.1h3v-9.1h-3ZM1100.2,1431.9c.7-4.7-1.4-6.7-6-6-1.6,1.2,4.8,7.6,6,6ZM430,1428.9h-3c-.5,2.2.7,3.1,2.3,4.5l.7-4.5ZM1254.6,1436.4c-.2,1-1.1,2.5-1.5,4.5-5.8,1-4.7,3.8-4.5,9.1,0,1.5,0,3,0,4.5,2.5-.4,2.7-2.5,3-4.5.5-3.4.6-4.9,1.5-9.1,3.5-.6,7,1.9,6.1-3-.3-.3-5.7.6-4.5-1.5.2-.4,6.9.4.7-6-1.7.9-.4,4.3-.7,6h0ZM409.8,1436.1l.5-4.1c-5.6,1.2-4.2,4.5-6,9.1l5.5-4.9h0ZM452.7,1441c-.2-5.4-3.5-8.6-9.1-7.5,2,4.6,4.2,6.5,9.1,7.5ZM1124.8,1434.9c0-1-.8-1.9-1.9-1.9s-1.9.8-1.9,1.9.8,1.9,1.9,1.9,1.9-.8,1.9-1.9ZM1198.6,1433.4h-3v4.5c2.2-.5,3.5-2.4,3-4.5h0ZM461.8,1434.9c-.8-.8-5.4,0-5.9,2.4-.3,1.7,2.1,5.7,1.4,8.2,3.1,3.9,5-10.2,4.5-10.6h0ZM1242.5,1434.9c-2-.6-7.6,2.3-6,3,2.7.4,5.3,0,6-3ZM430,1436.5h-7.6c-.3,2.5,3.7,1.7,4.5,3.8,1.6,3.7-2.3,3.7-2.5,4.2-1.2,2.7-2.8,7.2-3.6,10.1-2.9,1.7-4.5-6.2-7.5-3-2.4,2.5.7,8.5,6,6.1l-6,15.1c2.2,2.2,15.4-6.2,17.4-9,.8-1.1,1.6-2.7,0-3.1-4.2,2.7-10.6,1.2-5.3-2.3,1.4-.9,12.9,2.1,8.8-5-.6-1-4.2-.5-4.2-4,0-1.5,5.2-1,4.5-4.5-.7-3.8-5.9-.5-6-.8l1.5-7.5h0ZM414.9,1439.5c-2.1-2-4.6,4.9-7.4,3.9-4.7,4.5-.3,6,4.4,6.1,2.7,0,1.1-2.4,2.2-2.4,1.3,0,3.3,2.1,5.4,1.4l-6.8-4.5c-1.6-1.6,3.2-3.6,2.3-4.5ZM1189.5,1447c-3.5,3-7.2-4.7-6.8-7.6l-2.3,7.6-1.5-3.8c-3.7-2.9-5.1,7.1-9.1,9.8,6.5,1.2,10.6-4.3,16.6-4.5.7,2.6-3.1.6-3.1,2.4,0,9.7,9.9,1.4,6.2-3.9h4.5c1.7-3.2-3-4.2-4.5-3-.3.2.3,2.7,0,3h0ZM404.3,1445.5c-.8-3-3.2-3.4-6-3v3h6ZM1129.4,1444c0-1-.8-1.9-1.9-1.9s-1.9.8-1.9,1.9.8,1.9,1.9,1.9,1.9-.8,1.9-1.9ZM1236.4,1444l-6,.7c1.6,2.3,3.2,2.6,6,2.3v-3h0ZM1265.2,1444c-2.6-2.3-6.8,1.9-4.5,4.5,1.4,1.6,6.1-3.1,4.5-4.5ZM1416.4,1444c-4.5-5.1-1.6,7.4-1.6,8.2,0,4.5-4.8,8,3.1,7-1.1-4.1,1.6-11.6-1.5-15.1ZM1245.5,1445.5h-4.5l1.5,4.5c.6.7,4-2.7,3-4.5ZM1404.3,1450c.7-6.3-2.2-6.3-1.5,0h1.5ZM1259.1,1454.6c.2-3.2.6-5.7-2.3-7.5-2.8,1.9-2.4,4.4-2.3,7.5h4.5ZM395.6,1450c0-1-.8-1.9-1.9-1.9s-1.9.8-1.9,1.9.8,1.9,1.9,1.9,1.9-.8,1.9-1.9ZM1153.6,1450c0-1-.8-1.9-1.9-1.9s-1.9.8-1.9,1.9.8,1.9,1.9,1.9,1.9-.8,1.9-1.9ZM1236.4,1456.1v-6h-1.5v6h1.5ZM1057.9,1453.1c-.2-.2-5.7-1.8-6-1.5-3.6,3.5,10.2,6.6,6,1.5ZM1166.4,1455.1c-1.3-1.7-6.4-4.2-8.4-3.1-.8.4.8,4.5-4.8,1.1-.5,4.7,4.1,4.7,7.6,4.5-3.7,1.9,3.1,9,4,9.2,2,.4,10.4-3.7,11.1-5.4-4-1.1-2-3.2-3-6.8-2.1.4-2.5,4-5.3,4.5-1.4.2-.2-2.8-1.1-4h0ZM242.8,1457.6c0-1-.8-1.9-1.9-1.9s-1.9.8-1.9,1.9.8,1.9,1.9,1.9,1.9-.8,1.9-1.9ZM407.3,1456.1h-9.1c1.3,2.3-.5,13.1,0,13.6,1.5,1.7,11-4.9,8.1-7.7-.7-.7-3.7-.7-3.6-2.8l4.5-3h0ZM1153.6,1459.1c0-1-.8-1.9-1.9-1.9s-1.9.8-1.9,1.9.8,1.9,1.9,1.9,1.9-.8,1.9-1.9ZM413.3,1459.1h-4.5v3c2.1.5,4-.8,4.5-3h0ZM1183.9,1460.6c0-1-.8-1.9-1.9-1.9s-1.9.8-1.9,1.9.8,1.9,1.9,1.9,1.9-.8,1.9-1.9ZM1235.3,1460.6c0-1-.8-1.9-1.9-1.9s-1.9.8-1.9,1.9.8,1.9,1.9,1.9,1.9-.8,1.9-1.9ZM1419.5,1462.2c-.3-.2-2.1,0-3,0-1.5,3,2.7,7.8,4.5,6,.4-.3-1.3-5.8-1.5-6ZM1230.4,1471.2c.7,1,4.1,2.1,4.5,4.5v1.5c-5,.7-10.2,4.2-3,4.5-3.4,1.8,3.3,9.3,3.8,9.1,5.8-2.6.5-6.8-2.3-9.1,1.9-1.2,3.6-2,3-4.5,4.5,0,2.5,2.5,3.1,3,2.5,1.8,7.9-6,6-9-2.6-.2-1.4,3.5-4,4.5-1.7.6-3.2-1.5-3.6-1.5-.3-2.6-5.8-4-6-4.5-.9-1.8,2.1-5.7-3-4.5-.5,3-.1,3.8,1.5,6h0ZM1103.3,1466.7h-3v4.5h3v-4.5ZM257.5,1468.3c-.4-.4-3.3.1-4.5,0,.2,5.3,3.5,8.7,9.1,7.5,1.3-4.8-3.2-2-4.3-3.3-.9-1,0-3.9-.3-4.2h0ZM1255,1469.7c0-1-.8-1.9-1.9-1.9s-1.9.8-1.9,1.9.8,1.9,1.9,1.9,1.9-.8,1.9-1.9ZM168.2,1471.2h-4.5v3h4.5v-3ZM383.1,1471.2c-8.5-4.7-1.8,7.5-1.9,9.6,0,3.6-3.9,3.9-4.2,5-.7,3.3.4,7.6,0,11,6.2,1.2,0-6,2.9-9.7,1.2-1.5,3.7-.2,4.7-1.9,2.9-5.1-.2-7.4-2.1-11.1-.6-1.3.6-2.9.5-3h0ZM236.3,1477.3c-.9-3.4-4.7-3.1-7.6-3,.9,3.4,4.7,3.1,7.6,3ZM1278.8,1486.3c5.6.9,6.6-2.4,6-7.6l-6,5.3v2.2ZM159.2,1480.3h-3v4.5c2.2-.5,3.5-2.4,3-4.5h0ZM1253.4,1484.8c0-1-.8-1.9-1.9-1.9s-1.9.8-1.9,1.9.8,1.9,1.9,1.9,1.9-.8,1.9-1.9ZM1244,1489.4c-2.3-2.3-6.5,4.5-2.3,4.5s3.1-3.6,2.3-4.5ZM387.6,1493.9c-2.3-2.3-4.8,4.3-4.5,4.5,1.9,1.5,6-3.1,4.5-4.5ZM1239.4,1498.4c2.5,0,3.5.8,3-2.3,0-1.6-2.2-.5-3-.8-3.1-1.1-5.6-2.1-9.1-1.5,1.7,4.3,4.9,4.6,9.1,4.5h0Z"/>
        <path class="st0" d="M687.2,1298.8l-1.5-1.5,1.5,1.5Z"/>
        <path class="st0" d="M1322.7,808.9c-1.3-1.8-4.3-1-4.7-2.4-.7-2.4,1.2-8.7,2.4-11.2,5.8,1-2,9.7,6.8,7.6-1.3,2-1,4.1-1.5,6-1,.1-2.1-.2-3,0h0Z"/>
        <path class="st0" d="M750.7,1106.8c-1.2-.2-1.3,0-1.5-1.5,1.1.2,1.3.4,1.5,1.5Z"/>
        <rect class="st0" x="1329.4" y="1454.5" width="5.8" height="4.4" transform="translate(-511 750.1) rotate(-26.6)"/>
        <path class="st0" d="M463.3,1413.8c-.6-.5-1.1-1-1.5-1.5.3-.1,1,0,1.5,0v1.5Z"/>
        <path class="st0" d="M694.8,1295.8c.2.9-.4,2.4,0,3.5.6,1.8,3.8,0,3.1,2.5l-10.6-3c3.3.7,5.1-1.5,7.6-3h0Z"/>
        <path class="st0" d="M284.7,1445.5c2.2-.7,10-6.9,7.6.8-.5,1.5-6.8,3.1-7.6,3.8.2-.2.1-3.5,0-4.5Z"/>
        <path class="st1" d="M284.7,1445.5c.1,1,.2,4.4,0,4.5-.2.2-6.1.5-6.1-.8,0-4.4,3.9-3.1,6.1-3.8Z"/>
        <path class="st1" d="M463.3,1412.3c5,0,2.3,2,3,3-1.5.1-2.1-.7-3-1.5v-1.5h0Z"/>
        <path class="st1" d="M442.1,1410.7c0,.8-3.4,4.5-.8,6,19.8-12.9,29.4-36.8,31.1-59.7,2.4-33.9-7.2-56.3,13.6-87.4,11.8-17.7,39.3-32.1,59-39.7,3.7-1.4,7.3-2.7,11.3-2.3,3.2,4.6-2.8,5.3-5.3,8.3-14.7,18.3-12.5,35.6-17.3,56.8-2.3,9.9-7.4,19.8-8.4,30.1-3.5,3.3-6.6-10.3-6.9-12-3.3-20.6,2.6-42.2,11.4-60.6-1-1-16.8,9.2-18.5,10.5-1.4,1.1-8.9,7.2-9.4,7.7-2.8,3.2-16,28.4-17.1,32.8-3,11.8-2.4,23.3,2.7,34.4-.2,1.7-2.7-1.1-3-.8-3.1,3.3,3.8,2.4,3,4.5-5.9-.6-1.6,4.8-1.9,8.1-.2,2.2-2.4,3.8-2.5,7.5,0,4.8,1.7,10.7,7.5,10,1.8-1.7-8-8.5-2.3-9,6-.6,5.8,10.3-1.5,13.6l-3.8-4.5c-2.8,3.6,5.2,8,3,10.6-.6.7-5.4-2.1-6-1.5s-4.4,14-5.4,16.7c-.6,1.6.8,3.8.5,4.3-.5.7-3.5.7-4.1,2.7-.7,2.1,2.4,8,2.9,11.2.2,1.4-.2,3.1,0,4.5-1.2-.3-3.1.2-4.5,0-.7-3.8,5.4-4.5.7-7.6-3.3.6-6.9,2.2-6.8,6.1-.5,0-1.2-.1-1.5,0-2.1.8-1.2,1.5-1.5,3-3.9.3-3.3,2.3-4.5,3-1.6,1-5,0-4.5,4.5-.5,0-1-.1-1.5,0,0,0-.3-1.1-1.4-.7-3.1,1-8.1,6.4-11.4,6.8-4.3.6-1.4-3.7-2.3-4.6-.4-.4-10.3,2.6-10.6,3-.5.6,4.4,5.8-1.5,4.5-2.9-7.8,6.8-7.2,7.5-10,.5-1.8-1.6-4.9-1.5-5.1.3-.4,4.8,0,6-2.7,1.4-3,5.9-27.5.8-27.6-5.6,8.5-12,16.2-18.1,24.3-1.1,1.4-.6,4-.8,4.4-.2.2-1.2.7-3,3-9.9,12.8-24.4,24.9-32.4,39.5-4.9,9-1.1,5.6,3.6,11.9-2.1.9-8.5-2-9.1-1.5-2.1,2-5.4,28-9.1,31.8h-30.3c-.9-2.2-2-4.4-3.7-6.1-6.1-6.5-15.1-11.6-20.3-19-2.8-4-9.5-24.4-11.6-24.8-1.6-.3-3.2,2.3-4.7,2.6-1.8.3-4.5-1.6-5-1.1-2.9,2.6,3,3.1,3.1,4,.5,2.7-1.3,5.5-1.6,8.1-2.8.7-.6-3.2-2.2-3-1.4.2-.2,1.9-1.2,2.6-3.1,2.1-5.4-1.6-4.1,8-6.2,1.2.2-9.8-7.5-9.1-.6.7,2.7,7.8,1.5,9-1,1-6.3-2.8-4.5,6.1l7.5-4.5,1.5,9.1c-1,.9-10.8-5.9-10.6-.7.2,3.7,8,3.2,10.6,3.8v1.5c-5.5,2,0,8.8-1.5,13.6h-6c.9-5.4-3.7-2.9-6,0h-4.5v-12.1c1.1-1,4.6-3.6,4.6-3.9.1-1.4-2-4.5-1.6-6.7.7-.3,2.8.4,3,0,.7-.9-.6-8.4,0-11.1,0-.3,1.7-4.2,2.2-5.5,4.7-12.1,8-4.9,9.8-6.1.4-.3.7-3.6,1.6-4.5.8-.7,7.1-2.3,7.6-3.8,2.4-7.7-5.4-1.4-7.6-.8-.7-5.9-1.2-7.1,3-12.9,2.6-3.6,17.9-19.8,21.6-22.9,2-1.7,4.6-2.1,7.1-2-4.5,20.3-6.7,41.4,6.9,58.8l26.3,30.4c1.4-9.9,4.6-22.2,8.8-31.3,16.5-35.7,58.6-57.3,72.2-95.7,2.8-7.9,4-16.1,5.2-24.2,3.8-3.5,5.7,10,5.8,11.5,1.3,12,2.3,27.9,1.7,39.9,0,1.5.1,3,0,4.5,0,.4-1.2,3.9-1.5,6-.1,1,.1,2,0,3h0ZM525.3,1245.9h-4.5v3c2.1.5,4-.8,4.5-3h0ZM531.4,1283.7c3.1-2.9-8-7.5-6-2.3.7,1.9,5,3.2,6,2.3ZM440.6,1376h-3v6c3-.8,3.4-3.2,3-6h0ZM295.3,1439.5l-6-3,5.3,6c1.6.1.4-2.6.7-3s10.3-5.5,7.6-7.6c-3.5-2.7-9.6,2.5-7.6,7.6h0ZM301.4,1445.5c-1.8-1.7-4.9.6-.7,3,1.3.2.9-2.9.7-3Z"/>
        <path class="st1" d="M1354.4,1500c.5-5,4.3-8.4,6.1-12.8,9.3-22.3,16.8-53,16.7-77.2,0-10-4.9-22.2-4.7-32.5l-13.8,27.7c-5.6,5.4-11.8,13.9-18,18.3-13.4,9.5-42.8,16.5-58.2,16.2-1,0-12.3,13.3-15.8,4.3,7.3.6-.3-12.4,7.1-9.4,2.8,1.1.8,4.1,4.2,3.4,3.8-4.2-4.4-7.4-7.7-7.4-.7,0-.3,2.9-1.5,2.9-1,0-2.9-1.7-3.5-1.4-1.2.7-1.9,9.5-5-.7-1.1-3.6-.8-10.3,0-14,.6-2.7-.9-4.2,3.3-3.5-.7,2.9-1.4,5.2-1.5,8.3,0,.8-.6,9.5,2.2,8.3,4-2,.3-6.5,2.1-8.4,1.8-2,5.4-1.8,6-2.4.7-.8,1.1-9.6,1.8-11.8l-9.1,1.5,4.5,9.1-9-8.3c1.8-1.1,8.8-9.3,9.4-9.6,1.7-.8,6.6,3.4,5.7-4.8l-7.5,1.5,1.5-6c-4-.2-5.5-1-6.8,3l-3.8-3.8,6-1.5c-10.3-3.1-3.8-5.5-4.4-10.4-.2-1.5-7.6-2.8-6.2-7,7.1,2.9,3.2.5,4.7-1.7.9-1.4,2.6-1.6,2.8-2.4.7-2.8-.3-6.5,0-9.5-7.5,5.6-11-14.4-5-15.2,9.2-1.4,4.9,5,5,6.8,0,.9,2.4.7,2.7,1.2.4.6-1.3,2.6-1.1,2.7,2.8,1.9,7.6-2.2,6.1-6h-4.6c3.4-2.4-2.3-8.3-4.6-9.7s-5.7-.9-8.1-2.5c-1.8-1.2-2.3-4.4-3.1-4.4-4.2,0-3.7,6-5.2,8.5-1.3,2.2-4.7,4.3-4.7,4.6-.3,2.8,2,7.3,0,11.1-4.9,1.2-4-5.4-4.5-6.1-.3-.3-6.6,2.9-9.1,1.5-.3-3.6,2.3-13.4,7.3-10.2.2.1.7,5.6,3.3,2.6,1.1-1.3-3.1-7.8,4.5-6.1-2-5.4-12,3.2-13.6,1.5-3.8-8.6,7.1-11.7,7.4-13,.3-1.7-2.1-6,.2-8.9l-7.6,6,8.3-14.3,5.3,6c.5-16.4-1.1-28.1,5.8-43.3,1.5-3.4,14.2-24.9,15.7-25.8,1.8-1.1,7-.3,9.5-1.9,1.2,6.3-5,14.6-6.7,20.5-5.6,18.7-4.8,30.2-5.9,48.4,0,.9,2.3.6,2.8,1.7,2.6,5.7,5.2,12.3,4.5,18.6l3-1.5c-1.2,7.4,3.1,13.2,5.1,20,1,3.3,2.4,6.2,2.5,6.7.4,2.6-1.4,4.6-1.5,6,0,.5,3.8,5,4.3,6.3,2.8,8.2,4.4,25.8,3.3,34.5-.4,2.7-2.7,2.2-3.1,3.4-1,3.5-.9,10.2-3,12.9-2.1,2.7-10,.5-7.6,6.1s6.6,1.6,8.4,1.4c1.8-.2,3.9,1.3,4.8.8.5-.3.8-3.2,3.7-4.7,6-3.2,19.2-3.2,26.6-5.2,34-9.3,42.7-41.4,58.6-68.5,15.6,32.3,18.8,72.6,10.6,107.3-3.5,14.8-10,28.4-15.9,42.3h-12.1,0ZM1250,1286.7c.2.2-.2,6.2,3,3,3.2-3.2-2.8-2.8-3-3-.4-.4,1.3-4.5-4.5-3,0,2.6,3.9,2.4,4.5,3ZM1247,1315.5v-4.5l-4.5,3.8,4.5.7ZM1239.4,1326.1l-7.6,7.5c4.7,1.4,6.9-3.8,7.6-7.5ZM1266.7,1333.6h-3v4.5c2.2-.5,3.5-2.4,3-4.5h0ZM1233.8,1345.7c0-1-.8-1.9-1.9-1.9s-1.9.8-1.9,1.9.8,1.9,1.9,1.9,1.9-.8,1.9-1.9ZM1268.2,1369.9c-2.6-2.6-7.7,2.4-2.2,4.5,3.2,1.2,2.7-4.1,2.2-4.5ZM1293.9,1431.9h-6c0,6,6,5.9,6,0Z"/>
        <path class="st0" d="M283.2,1484.8c-2.6-.5-10.4,0-10.6-3.8-.3-5.2,9.6,1.7,10.6.7l-1.5-9.1-7.5,4.5c-1.8-8.8,3.5-5.1,4.5-6.1,1.2-1.2-2.1-8.4-1.5-9,7.7-.7,1.3,10.3,7.5,9.1-1.3-9.6,1-5.9,4.1-8,1-.7-.2-2.4,1.2-2.6,1.7-.2-.5,3.7,2.2,3,.3-2.6,2.1-5.4,1.6-8.1-.2-.9-6-1.3-3.1-4,.5-.5,3.3,1.4,5,1.1,1.5-.3,3.1-2.9,4.7-2.6,2.1.4,8.8,20.8,11.6,24.8,5.2,7.4,14.2,12.5,20.3,19,1.7,1.8,2.8,3.9,3.7,6.1h-7.6c.1-2.4-.2-5.5-3-6v6h-1.5c-.6-10.3-6.6-11.2-3,0h-3c-1.4-1.9-5.5-11.7-6.1-12.1-.8-.5-3,1.4-3.8,1.4-1.1,0,.2-4.1-2.9-2.9-1.9.8-1.9,4.2-2.3,4.5-1.5,1.4-5.2.7-4.5,3,2.7.4,5.2,0,6-3,9.3,0,7.4.5,10.6,9.1h-33.3c1.4-4.8-4-11.6,1.5-13.6-.4,1.7.8,7.1,3,5.3-2.3-6.2,2.2-5.7-3-6.8h0ZM293.8,1475.8c-5.3-1.7-8.5,2.8-9.1,7.6,2.3,0,2.2-3.5,3.3-4.2,2.3-1.4,6.8,1.9,5.7-3.3h0ZM296.7,1484.9l-7.4-1.6v4.5l4.5.7c-1.9,6.1-8,1.3-6,9.9,4.9-4.3,10.5-5.3,9-13.5Z"/>
        <path class="st1" d="M1331.7,1454.6c3.7-1.8,7.4-4.4,11-6.5,1.4-.8,4.7-.4,5.4-1.3.4-.5,2.2-9.3,3.5-12.1.1-.3,5.2-7.3,4.1-2.3-3.7,4.5-2,9.8-3.5,14.7s-10,20.7-12.8,24.9c-6.1,9.1-16.4,15.3-16.7,27.9h-12.1c-.9-6.1-5.4-5.9-1.5,0h-6c4.6-7.1-4.5-10.2-5.7-12.4-1-1.9,0-4.2-.4-6.2-.3-1.4-4.3-.6-3-3.3,1.1-2.3,4.2-2.7,6.5-2.3,1.5.2,3.4,6,5.6,6l-3-7.5,4.5-3h-4.5s7.5,0,7.5,0c-1.9-11.1,5.2-8.5,11.7-11.7,2-1,3.7-2.1,6.4-3.5h0l2,3.9,5.2-2.6-2-3.9-2.1,1.1h0ZM1328.7,1475.8l1.5-10.6c-3.4.4-4.8,9.7-1.5,10.6ZM1318,1472.8c-.6-.6-9.3.5-7.4,4.5,6.4-3.7,4.6,5.6,13.6,3v-7.5l-3,6c-3.3-.3-2.4-5.2-3.2-6h0ZM1299.2,1483.3v1.5c1-.5,1-1,0-1.5Z"/>
        <path class="st1" d="M1331.7,1454.6l-3,1.5c1-.5,2-1,3-1.5Z"/>
        <path class="st1" d="M1292.4,1500c-1.2-4.7-5.8-1.3-6-1.5-1.2-1.4-1-8.7,0-10.9.9-2,4.5-.3,2.2-7.2,7.4,2.7,4.4,7.7.7,12.1l6,3.1.8-6c2.4,4.1,6.9,4.9,5.3,10.6h-9.1Z"/>
        <path class="st0" d="M265.1,1487.9v12.1h-4.5l3-6-4.5-.7c.9-3.7,5.4-4.7,6-5.3h0Z"/>
        <path class="st1" d="M321.1,1500c-3.5-11.2,2.4-10.3,3,0h-3Z"/>
        <path class="st1" d="M302.9,1490.9c.4-.4.3-3.7,2.3-4.5,3.1-1.2,1.8,2.8,2.9,2.9.8,0,3-1.9,3.8-1.4.6.4,4.6,10.2,6.1,12.1h-3c-3.2-8.6-1.2-9-10.6-9.1h-1.5,0Z"/>
        <path class="st1" d="M328.6,1500h-3v-6c2.8.6,3.2,3.6,3,6Z"/>
        <path class="st0" d="M269.6,1500c2.4-2.9,6.9-5.4,6,0h-6Z"/>
        <path class="st0" d="M1310.6,1500h-1.5c-3.9-5.9.6-6.1,1.5,0Z"/>
        <path class="st0" d="M410.3,1001c1,.9-7,20.6-6.7,25.9,1.1,19.7,18.1,36.8,14,59.2-2.6,14-18.8,26.7-25.8,38.4-18.7,7.7-5.7-12.4-4.5-20.3,2.8-17.5-11.5-42.6-8.6-63,1.2-8.4,19.2-34.1,26.3-38.7,1.4-.9,4.3-2.4,5.4-1.4h0ZM383.1,1034.2v7.6h3v-7.6h-3ZM393.7,1049.4h-4.5v3h4.5v-3ZM399.7,1049.4c-2.3-2.3-4.8,4.3-4.5,4.5,1.9,1.5,6-3.1,4.5-4.5ZM405.8,1052.4c-6.3-.7-6.3,2.2,0,1.5v-1.5Z"/>
        <path class="st0" d="M289.2,1220.3c2,1.3,10.4,40.9,10.7,46.1.5,8.7-3.1,20.6-9.1,27.1-10.5,11.3-24.1,22.5-36.3,33.4l-16.6,17.4c-3-7-4.4-15.4-2.6-23,.6-2.7,8.6-20.1,10.4-22.8,6.2-9.4,25.5-23.1,29.9-32.4.9-1.9,7-19.4,7.3-21.1.6-3.5,1-23.7,1.9-24.6,1.3.2,3.7-.4,4.4,0h0ZM292.3,1268.6c.7-6.3-2.2-6.3-1.5,0h1.5Z"/>
        <path class="st0" d="M1433.1,1173.3c1.6,1.5-1.3,14.5-1.2,17.4.6,19.5,16.2,35.7,17.8,54.5,1.7,18.8-8,31.4-7.5,49.1-10.2,1.7-8.4-13.1-12.5-21.5-4.7-9.6-12.7-17.1-16.9-28.4-9.4-25.3,2.6-48.7,15.9-70,1.3-2.1,2.7-.8,4.5-1.1h0Z"/>
        <path class="st0" d="M1410.7,980c-.5.2-8,5.6-9.3,6.6-6.6,5.3-23.9,29.9-19.7,3,1.2-7.8,11.3-24.4,17.5-29.3,8.5-6.8,25.6-7.4,29.7-17.9l15.4-15.6c3.3,1.5,1.3,18,.6,21.7-3.4,18.9-12.9,25.8-29.6,32.2-1.2.5-3.4-1.4-4.7-.8h0Z"/>
        <path class="st0" d="M1442.2,1457.6c2.5,2.6-4.7,5.8-3.1,9-1.9-1.9-5.8.3-6,0-3.6-5.4,7.5-10.7,9.1-9.1h0Z"/>
        <path class="st0" d="M1446.7,1418.3h-1.5c-.7-6.3,2.2-6.3,1.5,0Z"/>
        <path class="st0" d="M1432.4,1438c1.5,1.4-2.3,3.8-2.3,2.3l2.3-2.3Z"/>
        <path class="st1" d="M768.9,1114.4c6.9-3.8,11.5-53.8,10.6-63.5,1.2.2,4-.3,4.5,0,2,1.7,3.8,22.2,7.6,25.7.1,1-.2,2.1,0,3,.4,2.2,1.2,5.8,1.5,7.6.2,1.4-.2,3.1,0,4.5,2.5,20,3.1,37.7-1.5,57.5,6.2-5.2,8.6-13.3,13.8-20.2,1.4-1.9,3.6-2.5,5-4.2,1.2-1.5,2.8-11.2,3.9.2l7.5-.8-44.6,49.1c-1.6-1-.7-4.8-.4-6.4,1.9-8.9,10.2-27,10.2-35.1v-34c-3.9-.3-2.5-.2-3,2.3-2,10.6-2.8,22.4-6.9,32.5-2.6,6.4-10.7,16.3-12.2,22.7-1.1,4.8,4.2,11.7-3.6,12.1v-6c-7.5,11.2-17.1,21.8-22,34.7-1.1,2.9-.1,5.8-.7,8.1-.3,1.3-3.1,1.1-3.1,1.8,0,2.6,4,5.8,3.1,10.5-.6,1.7-4.4-.3-4.7,1.6-.5,2.8-2.2,21.1-1.4,21.8,1.1,1.1,11.6-2.8,9.1,7.6l-7.5-6c.7,3.7-10.4,27.6-15.1,22.7-.7-.7,3.9-15.6,4.3-19.1,1.6-13.8-2.8-27.8-.9-41.7,1.8-13.4,11.8-22.8,14.7-34.4,3.7,0,13.4-14.5,15.8-18.3,4.3-6.8,6.7-12.3,10-19.5,1.6-3.5,3.1-7,4.5-10.6.4-1,1.2-2.1,1.5-3,.2-.8-.2-2.1,0-3h0Z"/>
        <path class="st1" d="M1204.6,1193c.6-6.9,5.4-12.8,7.2-19.3,12.3-45.7,0-57.7,41.7-92.6,1.3-1.1,1.2-5.4,4.2-2.2-1.3,2.7-1.2,5.5-1.5,8.3-.1,1,.2,2.1,0,3-.4,2.4-1.1,4.7-1.4,7.7-3.2,19.7-4.2,22.4-.2,42.2,0,.5-.1,1,0,1.5,3.9,17.9,8.8,33.6,5,52.6-2,9.8-7.9,20.4-14.8,27.5-.7-16.3,3.9-32.8,2.3-49.1-1.3-12.7-8.4-26-9-39.4-.4-8.2,2.1-15.3,1.5-23.4-14.6,16-13.2,39.4-18.1,59-.4,1.6-1.2,5.2-1.5,6-2,5.5-9.5,13.8-10.6,18.1-1.5-.2-3.2.2-4.5,0h0Z"/>
        <path class="st1" d="M1248.5,700.8c.1-.5,2.5-2.6,3-2.3,3.2,9.1,5.8,18.8,7.2,28.4,1.9,13.3.9,27.3,2.1,40.3.4,4.1,6.2,15,1.5,18.4-7.2,5.1-13.7-15.1-13.7-19.8v-65h0Z"/>
        <path class="st1" d="M1204.6,668.3c-3.6,1.1-4.1-2.7-4.4-5.4-3.2-28.7-11.7-290.8-26.4-317.4-2-3.7-9.1-12-9.6-14.6-.9-4.9,6.8,0,8.1,1,7.8,6.3,22,31.8,21.9,41.5l10.3,294.9Z"/>
        <path class="st1" d="M694.8,1295.8c.4-.2,1.9.4,2.7-.3,1.6-1.4,1.1-5.9,2.8-5.8.5,0,5,1.4,5.1,1.6,3,3.3-3.8,2.3-3,4.5,7.8,2.3,1.8-8.9,10.6-9-5.8,4.8-7.3,5.8,1.5,7.6.7,4.2-6.2,16.8-10.4,10.3-1.7-2.7,2.7-7.3-4.7-5.8l1.5,6c-3.4,1.8-15.2-4.3-16.6-3-.2.2.4,2.6-.5,4-5.9,8.2-15.9,2.4-14.6,17.2h5.3s-.8-3-.8-3c2.3-.3,4.9-.1,6,2.3,1.6,3.4-7.2.7-4.5,6.8-5.2-2.9-7.6.4-1.5,2.2-5.9,8.9-1.1,7.1,0,8.4,2.2,2.9-2.1,2.9-2.5,3.5-1.2,1.7.7,6.2-4.2,4-.4-.2-5.1-5.7-5.3-6,2.7,4-5.4,9.3-7.5,3.8s6.9-4.8,7.5-3.8c-.5-.9-1.8-5.7-1.5-6l9.1-2.3c-2.3-2-4-12.4-4.6-12.8-.8-.6-5.4,2.2-6,1.5-2.7-3.1,3.1-5,3.1-5.3-.2-3-3.7-3.6-3.1-6.8,6.2-1.4,5.6,1.8,9.1,4.5v-7.5c2.5-.7.7,2.7,2.5,3.1,4.8,1.1,10.9-2.3,11.1-7.6-1.1,3.1-11.8,6.5-7.5,1.5.1-.2,2.2-.3,3.6-1.7,5-4.8,7.8-3.7,8.5-4.4l1.5,1.5,10.6,3c.7-2.4-2.4-.7-3.1-2.5-.4-1.1.2-2.6,0-3.5h0ZM667.4,1336.8c-.3-.3-4.3-.7-4.4.6l6,6.8c-.2-1.3-1.3-7.2-1.6-7.4h0Z"/>
        <path class="st1" d="M685.7,1297.3c.2-.2-.4-2,.4-2.6,1.6-1.2,5.8-.7,7.9-2,1.5-.1.5,1.9.8,3-2.5,1.5-4.2,3.7-7.6,3l-1.5-1.5h0Z"/>
        <path class="st1" d="M581.3,1342.7c-1.6-1.6-3.4-3.2-4-5.6-.7-2.7-.8-21.8-.7-25.5,0-3.1,1.5-5.3,1.6-8.2-3,.5-5.3,9.3-9,6.8,4.6-16.1,16.5-29.5,30.2-38.6,2.1,5.9-3.5,8.3-4.4,10.3-8.8,20.6-10.4,29.8-12.2,51.7-.2,2.6-1.4,7-1.5,9.1h0Z"/>
        <path class="st1" d="M1185,660.7c3.2,1.1,4,7,4.3,10,.7,5.5,1.6,48-8.1,45.9-2.2-1.4-2.1-2.9-2.4-5.2-1.8-16.2,1.3-35.3,6.1-50.7h0Z"/>
        <path class="st1" d="M430,1436.5l-1.5,7.5c.2.2,5.3-3,6,.8.6,3.5-4.6,3-4.5,4.5,0,3.6,3.7,3,4.2,4,4.1,7.1-7.4,4.1-8.8,5-5.3,3.5,1,5.1,5.3,2.3,1.7.4.8,2,0,3.1-2.1,2.9-15.2,11.2-17.4,9l6-15.1c-5.3,2.5-8.4-3.5-6-6.1,3-3.2,4.6,4.7,7.5,3,.7-2.9,2.4-7.4,3.6-10.1.2-.6,4.1-.5,2.5-4.2-.9-2-4.9-1.3-4.5-3.8h7.6,0Z"/>
        <path class="st1" d="M811.3,1174.9l6-1.5-7.5-1.6c-.6-2.7,2.5-.9,3-1.5.9-1.1-12.1-14.8,13.6-14.4,2.7,1.7-2.4,18.7-4.5,21.3-2.8,3.4-8.7,1.3-10.6-2.3h0Z"/>
        <path class="st1" d="M640.3,1318.5c1-.2,2.2-1.7,3.6-1.6.4,0,4.8,4.5,3.8,6-.1.2-4,1.2-3.7,3.1l-3.8-3c2,6.7,0,11.9-7.6,9.8l6-3.8c0-8.9-10.4,7.1-12.1,9.1,6,3.1,3.2-2.3,8.3-1.5,3.7.6-4.2,10.9-8.3,9.1l3-3c-3.5-1.4-8.5-2.1-7.6-6.8,1-5.5,5.4-1.9,6.1-5.3l-4.5-3c3.5.2,9.9,3.3,10.6-2.3-4.1.6-7.4-.2-7.6-5.3,2.1-1.9,13.6,8.3,13.6-1.5-3.9,1-4.8,2.4-7.6-3,4.6,1.2,3.4-1.8,6-3,0,2,1.5,4.1,1.5,6h0Z"/>
        <path class="st1" d="M644.8,1357.8c-1.9,0-4.3,1.8-6.7,1.5-2-.2-6.9-4.6-8.4-3-1,1,2.8,6.3-6.1,4.5,6-6.7,1.2-5.3.6-6.4-3.4-5.8,6.7-5.1,10.6-3.9,1.4.4,3.9,7.3,7,4.3,1.9-1.9-5.2-6.5-4.5-7.5.1-.2,2.1.2,2.4-.3.7-1.1-1.1-3,1.3-4.2.6-.3,1.2,6.2,3.8,3,.8-.9-1.8-5.5,2.3-4.5,3.6,4.4,7.4,7.1,6.8,13.6-4,1.5-6.2-6.3-6.8-6-5.2,2.4-1.9,6.1-2.3,9.1,3.3,0,7.7-.6,10.6.7-3.3,10-9.2.7-10.6,2.3.2,3.2-1.1,7.5,1.5,9.8.4.3,5.4-2.2,3.1,3-.5,1.2-4.5,1-6.1,2.3-1.1-6.5.8-12.4,1.5-18.1h0Z"/>
        <path class="st1" d="M1232.2,1300c.2.4,5,.2,2,4.9-.2.4-5.9,4.3-6.3,4.4-6.1.9-2.8-16.9-3.6-21l3,1.5c.4-1.9-1.6-3.9-1.6-5.2s4.3.1,3.1-3.1l-4.5-2.3c3.4-.5,7.8.3,8.8,4.1.7,2.7-1.3,16-.9,16.7h0Z"/>
        <path class="st1" d="M659.6,1289.5c-1.3,2.4-17.5,8.6,1.9,9.4v4.5c-2.2-2-6.6,0-7.7-.7-1.5-.9-.3-5.3-4.4-3.8.1,1.9-.6,4.1.4,5.7.5.8,3.3-.7,2.6,1.8-7.7-2.2-6.6,3-12.1,4.5l-1.5-4.5c7.3-.7,11.4-5,6-11.3l3-.8-1.5-9.1c7.4,6.8,7.6,5.3,13.6-1.5-.1,1.8.6,4.1-.3,5.7h0Z"/>
        <path class="st1" d="M706.9,1307.9c1.7,8-5.7,1.2-7.5,8.3l6-.8c1,2.5-2.1,7.3-1.3,8.8,2.1,3.8,15.1,6.1,1.3,9.4-.3-1.2.4-4.1,0-4.5-2.7-3.2-3.3,6.1-6,3-.9-1,2.1-6.9,1.5-9.1-1.3-1.3-10.3,4.5-9-.7.6-2.6,13.1-16.7,15.1-14.4h0Z"/>
        <path class="st1" d="M594.9,1230.8c1,5.3-16.8,22.3-19.7,19.6-1.3-1.2,7-8,6.7-10.6,1.7-1.8,10.8-11.1,13-9h0Z"/>
        <path class="st1" d="M1172.9,771.1c3.8,3.7-15.3,16-16.6,9.8-.9-4.2,13.5-12.9,16.6-9.8h0Z"/>
        <path class="st1" d="M634,1383.8c.7.6,5.4,15.8,4.8,16.4-4.7,4.6-11.4-13-10.6-16.6,1.7.2,4.7-.6,5.8.3h0Z"/>
        <path class="st1" d="M383.1,1471.2c.1,0-1.1,1.7-.5,3,1.8,3.8,4.9,6,2.1,11.1-1,1.7-3.5.4-4.7,1.9-2.9,3.7,3.4,10.8-2.9,9.7.4-3.5-.7-7.8,0-11,.3-1.2,4.1-1.5,4.2-5,0-2.1-6.6-14.3,1.9-9.6h0Z"/>
        <path class="st1" d="M1219.8,759c-9.1.1-10-12.4-2.3-16.6,3.4,4.8,2.1,11.1,2.3,16.6Z"/>
        <path class="st1" d="M407.3,1456.1l-4.5,3c0,2.1,2.9,2.1,3.6,2.8,2.9,2.8-6.6,9.4-8.1,7.7-.5-.5,1.3-11.3,0-13.6h9.1,0Z"/>
        <path class="st1" d="M823.1,1143.4c.4.2,4.9,5.7,4.2,7.3-1.6,3.6-8.1,1.3-11.4,3-.4-4,2.1-12.3,7.2-10.3h0Z"/>
        <path class="st1" d="M720.5,1310.9l-4.1,8.7-6.5,7.9c.5-2.6-.9-8.6.2-10.4,1.5-2.3,8.2,1,4.3-6.3h6Z"/>
        <path class="st1" d="M744.7,1249c.3.2-1.6,4.2-1.7,6.8,0,5.4,4.2,10.5-4.4,9.8-1.2-2.8,2.7-5.8,2.7-6.8,0-1.7-5.4-4.4-5.7-6.8,4.3,2.9,7.1-4.8,9.1-3h0Z"/>
        <path class="st1" d="M1283.3,1230.8c-3.4,5.1-6.2,11.9-13.6,10.6-1.6-1.4,10.1-13.6,13.6-10.6Z"/>
        <path class="st1" d="M478.4,1409.2c.4-2.6,2.5-5.7,1.5-9.1,4.3-.5,5,3.5,4.7,6.9-.2,2.7-2.6,2.1-2.7,2.5-.6,1.3,3.3,5.3-3.5,5.7.2-1.9-.3-4.2,0-6h0Z"/>
        <path class="st1" d="M1233.4,1353.3c1.2,1.2-5.4,15.9-9.1,12.1-2.2-2.3,5.8-15.3,9.1-12.1Z"/>
        <path class="st1" d="M582.8,1344.2c0,1.9,2.3,5.7,3,7.6l1.5,6c-.2,1.4.8,4.1-.7,4.5-6.5-4.9-5.6-11.6-5.3-18.1h1.5,0Z"/>
        <path class="st1" d="M846.1,1111.3c1.5,1.3-13.1,20.4-10.4,4.7,3,.9,7.8-7.1,10.4-4.7Z"/>
        <path class="st1" d="M414.9,1439.5c1,.9-3.9,3-2.3,4.5l6.8,4.5c-2.1.7-4.1-1.3-5.4-1.4-1,0,.5,2.4-2.2,2.4-4.7-.1-9.1-1.7-4.4-6.1,2.8,1,5.3-5.9,7.4-3.9Z"/>
        <path class="st1" d="M737.1,1286.7c-9.1,2.8-1.3,3.1-1.5,3.8-11.6,11.8-5.1-1.3-4.5-8.3l6,4.5h0Z"/>
        <path class="st1" d="M563.1,1335.1c-.2.2-3.2.6-3-.8l5.3-11.3c4.6,1-1.8,11.7-2.3,12.1h0Z"/>
        <path class="st1" d="M635.8,1312.4c-.3.3-2.3-.4-3.3,0-1.2.6-2,5.5-4.3,2.9-.5-.6,2.8-12.5,5.3-13.6-1.3,2.5,2.7,10.2,2.3,10.6Z"/>
        <path class="st1" d="M454.2,1422.8c1.9-.1,3.9-1.9,6.1-1.5l-1.5,3c4-1.2,8.7.8,6.1,4.6-.1.2-2-.3-4.5,0-1.5.2-3.1-.1-4.5,0-.4-.9-1.3-2.5-1.5-3-.2-.8.2-2.1,0-3h0Z"/>
        <path class="st1" d="M461.8,1434.9c.4.4-1.5,14.5-4.5,10.6.8-2.5-1.7-6.5-1.4-8.2.5-2.3,5.1-3.2,5.9-2.4h0Z"/>
        <path class="st1" d="M734.1,1301.9l-3.8,10.6c-6.6-4.1-2.5-9.3,3.8-10.6Z"/>
        <path class="st1" d="M781,1232.3c.2,3.2.6,5.7-2.3,7.5-5.5-4.7-6.2-8.9,2.3-7.5Z"/>
        <path class="st1" d="M452.7,1441c-4.8-1-7.1-3-9.1-7.5,5.6-1.1,8.9,2.1,9.1,7.5Z"/>
        <path class="st1" d="M487.5,1398.6c-.4.4-4.6-.2-6,0l1.5-4.5-4.5.8c3.7-6.1,12.3.7,9.1,3.8Z"/>
        <path class="st1" d="M1234.9,1268.6c1.7,1.6-5.9,9.2-7.5,7.5.1-4.1,2.7-8.6,7.5-7.5Z"/>
        <path class="st1" d="M643.3,1288.3c.4,1.3-3.6,11.9-6,9.1l6-9.1Z"/>
        <path class="st1" d="M688.7,1323c1.1,1.4-2.5,5.5-3.8,6-.4.2-6.7-6.3-1.3-7.4.5-.1,4.9,1.1,5.1,1.3h0Z"/>
        <path class="st1" d="M744.7,1277.7c-3.1,3.1-9.2-2.8-6-6,2.4-2.4,8.5,3.6,6,6Z"/>
        <path class="st1" d="M830.9,1128l-3.8,9c-4.2-3.3-1.9-10.9,3.8-9Z"/>
        <path class="st1" d="M1259.1,1454.6h-4.5c-.2-3.2-.6-5.7,2.3-7.5,2.8,1.9,2.4,4.4,2.3,7.5Z"/>
        <path class="st1" d="M1278.8,1486.3v-2.2l6-5.3c.6,5.2-.4,8.4-6,7.6Z"/>
        <path class="st1" d="M672.1,1283.7c-1.3-.3-3-2-5.1-1.6-1.7.3-1.5,4.6-4,4.7-.6-2.7,1.7-3.3,2.5-5.6.3-.9-1-2.7-.6-3.3.1-.2,5.4-.5,2.6-3.3-.8-.8-3.5,4.2-6,3,2.3-9.3-4.7-3.2-4.5-9.1,5.9-.2,16,2.3,12.1,9.1,7.7-.1,4-5.9,4.7-8.1.9-2.7,4.7-1.4,4.4-4l-10.6,1.5-.7-3-6.8,3,10.6-15.1c3.8-2.6,5.7,10.1,8.6,12.2,2,1.4,9.5,4.2,11.1.6l-5.3-.7-.8-4.6-4.5,3c2.6-6.1-5.4-10.2-4.4-14.1.7-2.8,8.5-7.2,11.2-10.1,3-3.3,13.2-21.3,17.4-18.2.2,4.4-7.4,13-1.5,15.1,3.4-7.1,3.6-12,1.5-19.6l1.5,3c9.8-2.5,1.5-4.9,1.4-5.4,0-2.2,2.7-6.5,1.6-9.7,14.2,3.6,3.9,15.8,4.5,16.6,0,.1,2.6-.4,3,1,1.2,4.5-1.9,12,1.5,16.4l-4.5-.8c2.4,5.6,4,9.6,3.1,16-.5,3.3-2.8,1.8-3.1,2.2-2.3,3.1,2.2,2.8,2.6,3.3,1.1,1.3-2.9,26.3-8.7,20.9-1.3-1.2,5.9-12.3-.7-10.6-.7.2-7,8.8-9.6,9.8l4.3,6.8c-5,2.3-6.1-3.3-8.2-3.1-3.2.3-5.3,3.1-8.1,4.2-1.6.6-3.8,0-5.3.5-1.4.5-1,3-1.9,3-2.6,0-3.6-2.7-5.3-3.1,0,2.2,1.1,4.2.8,6-2.2-4.3-8-1.1-8.3-1.5-2.4-2.8,4.3-5.3,7.5-4.5,0-1,0-2,0-3,3.5.7,5.4,2.1,9.8,1.5,3.9-.5-4.5-12-3-3l-6.8-1.5c0,1,0,2,0,3h0ZM714.4,1223.2c-2.6-2.6-7.7,2.4-2.2,4.5,3.2,1.2,2.7-4.1,2.2-4.5ZM711.2,1238.1c.5-.8-.4-13.9-4.3-10.3-.5.4.7,11.1-1.5,12.9,1,.4,5.6-2.3,5.8-2.6ZM696.3,1239.9c-.9-.9-5.2.3-6,2.3l4.5,1.5c-1.4,4.6-10.8,9-12.1,12.1-1.6,3.8,9.7,2.7,10.6,3.8.4.5-1.3,10.7-3,12.1l7.6-8.3c-8-3.2.5-2.2,0-6.8h-6.1c3-2.9,6-6,7.4-10.1.8-2.4-1.4-1.4-2.7-3.2-.6-.8.1-3-.1-3.3h0ZM709.9,1247.4l-9.1-1.5,3,7.5,6-6h0ZM712.9,1261c-1.3-3.3-2.5-3.6-4.5-.7l4.5.7ZM672.1,1259.5h-6v1.5h6v-1.5ZM708.4,1262.6c-.6-.5-5.7-1-4.5,2.2,1.7,4.7,6.1-.8,4.5-2.2ZM688.7,1268.6c-.4-.3-7.1.5-10.2.3-2.9-.2-1.9-.1-1.9,2.7,2.5,2,16.6,1.1,12.1-3h0Z"/>
        <path class="st1" d="M1253.1,1441c-.9,4.1-1,5.7-1.5,9.1h-3c-.2-5.3-1.2-8,4.5-9.1Z"/>
        <path class="st1" d="M653.8,1309.5c.3.2,1.6,4.8,1.6,6-2.7.8-.7-3.6-2.2-3-2,.8-2.2,4-6.8,1.5-.6-.5,4.9-6.1,7.5-4.5h0Z"/>
        <path class="st1" d="M409.8,1436.1l-5.5,4.9c1.8-4.5.5-7.9,6-9.1l-.5,4.1h0Z"/>
        <path class="st1" d="M808.2,1179.4c-3.2-6.3.8-6.7,3.1-.7-.6,1.1-2.9.5-3.1.7-.5.8.3,4.5,0,6-3.8.4-5.1-2.4-4.5-6h4.5Z"/>
        <rect class="st1" x="682" y="1287.6" width="3" height="7.6" transform="translate(-608.7 1973.2) rotate(-89.9)"/>
        <path class="st1" d="M1236.4,1477.3c.5,2.5-1.1,3.4-3,4.5h-1.5c-7.2-.3-1.9-3.9,3-4.5.5,0,1,0,1.5,0Z"/>
        <path class="st1" d="M656.9,1363.9v4.5h-6c-1.1-3.6,2.7-4.1,6-4.5Z"/>
        <path class="st1" d="M696.3,1336.6c-2.8-1-2.2-8-3-10.6,4.2,1.5,2.9,6.9,3,10.6Z"/>
        <path class="st1" d="M1237.9,1474.3c-.7,0-2.1,1.3-3,1.5-.4-2.4-3.8-3.5-4.5-4.5l1.5-1.5c.3.5,5.7,1.9,6,4.5h0Z"/>
        <path class="st1" d="M464.8,1422.8c-.1-1,.2-2.1,0-3,2.8-.4,3.5,1.2,3-3,1.8,5,3.1,7.9-3,6h0Z"/>
        <path class="st1" d="M1257.6,1338.2c-1.2,5.5-10.2,1.2-7.6-1.5.5-.5,5.8,2,7.6,1.5Z"/>
        <path class="st1" d="M735.6,1236.9l2.2-7.6c3.6,1.9,1,5.9-2.2,7.6Z"/>
        <path class="st1" d="M1265.2,1444c1.6,1.4-3.1,6.1-4.5,4.5-2.3-2.6,2-6.8,4.5-4.5Z"/>
        <rect class="st1" x="1168.3" y="737.8" width="3" height="6.1" transform="translate(426.3 1909) rotate(-89.9)"/>
        <path class="st1" d="M758.3,1174.8c1.2-.3,1.7-3.2,4.5.8-1.8.3-4,3.6-4.5,3.8v-4.5Z"/>
        <path class="st1" d="M778,1229.3h-3v-6c3,.8,3.4,3.2,3,6h0Z"/>
        <path class="st1" d="M741.7,1285.2h-3v-6c3,.8,3.4,3.2,3,6h0Z"/>
        <path class="st1" d="M476.9,1421.3c-1.6,2.9-.8,5.5-4.5,4.5v-4.5h4.5Z"/>
        <path class="st1" d="M1254.6,1436.4c.4-1.7-1-5.1.7-6,6.2,6.4-.5,5.6-.7,6Z"/>
        <rect class="st1" x="643.3" y="1382" width="4.5" height="3"/>
        <path class="st1" d="M387.6,1493.9c1.4,1.4-2.7,6-4.5,4.5-.3-.2,2.2-6.8,4.5-4.5Z"/>
        <rect class="st1" x="737.1" y="1223.2" width="3" height="4.5"/>
        <path class="st1" d="M1245.5,1445.5c1,1.9-2.4,5.3-3,4.5l-1.5-4.5h4.5Z"/>
        <path class="st1" d="M487.5,1354.8v-6h1.5c.7,3.2,2.6,4.7-1.5,6Z"/>
        <path class="st1" d="M413.3,1459.1c-.5,2.2-2.4,3.5-4.5,3v-3h4.5Z"/>
        <path class="st1" d="M508.7,1401.7c.3-.2-1.1-6.6,4.5-.7-.3,1.8-3.9.2-4.5.7Z"/>
        <circle class="st1" cx="486" cy="1389.5" r="1.9"/>
        <path class="st1" d="M765.9,1168.8c.7.6-2.6,4-4.5,3-.7-.6,2.6-4,4.5-3Z"/>
        <circle class="st1" cx="759.9" cy="1188.4" r="1.9"/>
        <circle class="st1" cx="1253.1" cy="1469.7" r="1.9"/>
        <path class="st1" d="M1239.4,1495.4c.9.3,3.1-.8,3,.8.5,3-.5,2.2-3,2.3v-3h0Z"/>
        <path class="st1" d="M678.1,1294.3c-.5,1-2.6-.9-1.5-3,.5-1,2.6.9,1.5,3Z"/>
        <path class="st0" d="M1157.7,1409.2c.1,0-.5,1.8,2.3,1.6.6,0,1.9-7.8,6.8,2.2l-13.6,6.8c.1-2.4,2.7-10.9,4.5-10.6h0Z"/>
        <path class="st0" d="M295.3,1439.5c-2.1-5,4.1-10.2,7.6-7.6,2.7,2.1-7.2,7.2-7.6,7.6s.8,3.1-.7,3l-5.3-6,6,3h0Z"/>
        <path class="st0" d="M531.4,1283.7c-1,.9-5.3-.3-6-2.3-2-5.3,9.1-.6,6,2.3Z"/>
        <path class="st0" d="M440.6,1376c.4,2.8,0,5.2-3,6v-6h3Z"/>
        <path class="st0" d="M525.3,1245.9c-.5,2.2-2.4,3.5-4.5,3v-3h4.5Z"/>
        <path class="st0" d="M301.4,1445.5c.1.1.6,3.2-.7,3-4.1-2.4-1-4.7.7-3Z"/>
        <path class="st0" d="M1239.4,1326.1c-.6,3.7-2.9,8.9-7.6,7.5l7.6-7.5Z"/>
        <path class="st0" d="M1293.9,1431.9c0,5.9-6,6-6,0h6Z"/>
        <path class="st0" d="M1268.2,1369.9c.4.4,1,5.7-2.2,4.5-5.5-2.1-.4-7.1,2.2-4.5Z"/>
        <polygon class="st0" points="1247 1315.5 1242.5 1314.7 1247 1310.9 1247 1315.5"/>
        <path class="st0" d="M1250,1286.7c-.7-.6-4.5-.4-4.5-3,5.8-1.5,4.1,2.6,4.5,3,.2.2,6.2-.2,3,3-3.2,3.2-2.8-2.8-3-3Z"/>
        <path class="st0" d="M1266.7,1333.6c.5,2.1-.8,4-3,4.5v-4.5h3Z"/>
        <circle class="st0" cx="1231.9" cy="1345.7" r="1.9"/>
        <path class="st0" d="M1318,1472.8c.8.7-.2,5.7,3.2,6l3-6v7.5c-9,2.6-7.2-6.7-13.6-3-1.9-4,6.8-5,7.4-4.5Z"/>
        <path class="st0" d="M1328.7,1475.8c-3.3-.9-1.8-10.1,1.5-10.6l-1.5,10.6Z"/>
        <path class="st0" d="M1299.2,1483.3c1,.5,1,1,0,1.5v-1.5Z"/>
        <path class="st0" d="M257.5,1492.4v1.5l-4.5,1.5c-.7-4,.9-3.2,4.5-3Z"/>
        <path class="st0" d="M696.3,1239.9c.3.3-.5,2.5.1,3.3,1.3,1.8,3.5.8,2.7,3.2-1.3,4.2-4.3,7.2-7.4,10.1h6.1c.5,4.6-8,3.6,0,6.8l-7.6,8.3c1.8-1.3,3.5-11.6,3-12.1-.9-1.1-12.1,0-10.6-3.8,1.3-3.1,10.7-7.5,12.1-12.1l-4.5-1.5c.8-1.9,5.1-3.2,6-2.3h0Z"/>
        <path class="st0" d="M711.2,1238.1c-.2.3-4.8,3-5.8,2.6,2.2-1.7,1-12.4,1.5-12.9,4-3.6,4.8,9.5,4.3,10.3Z"/>
        <path class="st0" d="M688.7,1268.6c4.5,4.1-9.6,5-12.1,3,0-2.9-1-3,1.9-2.7,3,.2,9.8-.6,10.2-.3h0Z"/>
        <polygon class="st0" points="709.9 1247.4 703.9 1253.5 700.8 1245.9 709.9 1247.4"/>
        <path class="st0" d="M714.4,1223.2c.4.4,1,5.7-2.2,4.5-5.5-2.1-.4-7.1,2.2-4.5Z"/>
        <path class="st0" d="M708.4,1262.6c1.6,1.5-2.8,6.9-4.5,2.2-1.1-3.2,4-2.8,4.5-2.2Z"/>
        <path class="st0" d="M712.9,1261l-4.5-.7c2-2.9,3.2-2.6,4.5.7Z"/>
        <rect class="st0" x="666" y="1259.5" width="6" height="1.5"/>
        <path class="st0" d="M1307.5,789.2c-1.9,1-5.3-2.4-4.5-3,1.9-1,5.3,2.4,4.5,3Z"/>
        <path class="st0" d="M667.4,1336.8c.3.2,1.5,6.1,1.6,7.4l-6-6.8c0-1.4,4.1-.9,4.4-.6h0Z"/>
        <path class="st0" d="M728,1066c1,.5-.9,2.6-3,1.5-1-.5.9-2.6,3-1.5Z"/>
        <g>
          <path class="st1" d="M714.4,1500c6.7-23.7,18.3-46,27.3-68.9.3-5-5.6-7.5-8.3-11.3-8.4-12.1-8-28.2-4.4-42,.6-2.3,5.9-16.3,6.6-16.9,1.8-1.4,10.1,9.2,10.6-3l-7.5,3c-3.6-3.6,19.7-25.8,22.6-29.5,21-25.8,23.4-43.9,36.6-72.3.6-1.2,5-12.8,7.4-10,2,2.4-12.4,53.8-14.9,60-11.3,28.2-38.7,44.9-46.5,74.5-2.3,8.6-4.7,25.2,4.5,30.3,16.6,9.4,30.4-22.8,35.3-34.4,23.2-54.7,33.2-119.5,64.8-169.6,18.1-28.7,34.6-39.3,41.3,3.9,2.3,15.1,3,32-3,46.5-6.5,15.7-36.6,42.4-14.9,57.6,13,9.1,27.2.9,33.3-12,8.3-17.6,11.1-78.7,40.8-69.7,25.8,7.8,12.1,61.2,7.1,79.8-6.7,24.9-33.7,84.5-3.1,102.3,28.7,16.7,41.7-26.7,43-47.3,3-47.6-14.9-103.2-5.8-152.4,6.8-36.8,22.7-48.6,42.7-75.3,21.9-29.4,12.2-52.1,14.4-85.4,2.9-41.9,28.4-80.7,43.6-118.2,2.1-5.2,4.5-25.6,6.4-27.6,2.7-2.9,2.5,1,3,2.2,2.7,6.6,6.7,18.6,6,25.6-2.2,21.1-24.3,33.6-21.2,56.2,1.5,11.2,16.4,14.9,25.7,8.9,11.8-7.5,11.4-25,14.4-37,3.2-12.8,7.4-22.9,8.4-37,.9-13-5.4-70,2.9-75.8,6.6-4.6,95.8,40.6,99.9,37.2,2.8-2.4-2.1-3.3-3-3.8-5.6-3.3-11.4-4.1-16.2-6.5-4.1-2.1-8.7-6.9-11.5-8.3-20.4-10.5-42.5-21-64.7-26.8-1.1-1.2,10.4-18.8,11.6-22.4,3.5-10.4,2-22.2,9.6-31.4l68.1,23.6c2.4-2.5-8.4-9.2-10.1-10.3-13.3-8.4-29-13.3-42.8-20.7,3.9-1,15.5-10.6,17.6-11,6.3-1.2,25.2,7,31.8,10,12.7,5.6,53,26,60.6,35.5,6,7.5-4.5,10.8-2.6,19.2.8,1.7,5.1-10.9,4.5-3.8-.5,6.1-5.6,24-9.9,27.9-2,1.8-5.8,1.7-6.6,4.1-1,2.9,3.1,11.1,3,16.4-.3,15.2-7.9,29-24.3,30.3-15.4,43.4-32.1,87.5-45,131.9-5.2,17.8-10.9,38.1-14.1,56.3,0,.5,0,1,0,1.5-5.8,36,4.6,54,12.1,87.7.6,2.5,1,5.1,1.5,7.6,15.3,72.1-8.7,119.4-35.3,183.3-1,2.4-.6,6.5-1,7.3,0,.2-2.4-.7-3.5,1.9-2.3,5.2-5.3,12-5.6,17.8-1.9-.3-4.4,8.1-4.5,10.6,0,.5,0,1.1,0,1.5-5,5.5-6.3,13.1-9.1,19.7-1.1,2.5-1.9,5.2-3,7.6-1,2.1-3.4,5.2-4.5,7.6,0-4.8-1.2-7.4-1.5-10.6-.1-1,.1-2,0-3-4.9-38.3-13.3-57.6,2.3-96.7,1.8-4.6,14.9-25.2,12.8-27.2s-7,.3-8.7,1c-2,.8-23.5,22.4-26,25.5-12,14.7-20.2,32.9-23.9,51.7-2.6,13.1-1.5,41.2-11.7,50.3-6.5,5.9-15.1,6.3-20.4-.8-10.8-14.2-5.2-34.9-1.5-50.6-4.2-4.2-17.4,16.4-19,19.6-9.8,19.6-7.7,38.9-11.7,59.4-1.5,7.9-6,17-7.2,25.3h-254.2c11-25.8,21.9-51.6,31.8-77.8,10.5-27.6,22.7-58.9,31-87,.5-1.6,1.8-5.1,0-6.1-5.6,2.4-9.1,11.4-11.9,16.9-22.2,43.3-48.2,99.6-63.1,145.6-.9,2.8-1.8,5.4-1.4,8.4h-37.8,0ZM1259.1,854.3c.5-3.4,0-3.9-2.5-5.8-4.3-3.3-25.8-12.6-31.9-15-7.9-3-19.3-6.8-27.7-7.3-2.2-.1-4.8-1.3-6,1.6-.3.7,11.2,6.3,12.6,7.1,7.3,3.7,51,23.6,55.5,19.4h0ZM1189.2,988.5c5.2-3,27.4-64.8,24.5-75.3l-5,6.4c-7.9,22.8-20.6,44-23.8,68.4,0,1.4,3.2,1.1,4.3.4h0ZM1192.2,921.2c-.4-.6-3-1.6-3.7-1.6-8.4.2-13.2,28.6-7.3,34.5.8.3,5.8-13,6.5-14.6,2.5-5.4,9.7-11,4.5-18.3h0ZM1149.7,997.4c5.7-6.6,19.1-38.2,4.2-40.4s-9,23.6-9.8,32.6c-.4,4.9-2.9,9.4-3,14.4,2.1-2.1,6.9-4.7,8.5-6.6h0ZM1168.3,1025.2c-13.7-1.4-27.3,7.9-37.1,16.5-9,7.9-16.6,21.2-26.9,27.6-14,8.8-33.8,10.1-49.3,15,2.2,25.6-3.4,49.4-18,70.5-7.6,11-17.4,18.6-23.8,30.6-3.5,6.5-14,35.5-11,40.6,1.3,2.2,28.4,14.1,33,16.1,23.2,10.1,51,20.8,75.9,28.5,21.1,6.5,42.7,10.3,63.9,16.3,9.5-19.1,12.5-44.6,9.9-65.8-2.8-23.1-15.8-46.5-19.2-70-6.5-44.1,6.8-82.2,19.3-123.6-6.6.7-13.2,7-19.7,3.8v4.5c-5.5,1.5-5.9-2.5-3.2-6.5,1.7-2.6,6-1.1,6.2-4h0ZM1079.1,1291.3c-3.1-3.1-14.4,10.4-1.1,4.5,1.8-.8,1.4-4.1,1.1-4.5ZM1127.5,1300.4c-1.4-1.6-6.1,3.1-4.5,4.5,2.6,2.3,6.8-1.9,4.5-4.5ZM1159.3,1321.5c-1.9-1-5.3,2.4-4.5,3,1.9,1,5.3-2.4,4.5-3ZM1142.6,1363.9c2.3,2.5,6.1-4.7,4.5-7.6-2.6.3-6,6-4.5,7.6ZM735.6,1382h-3v4.5h3v-4.5ZM853.6,1394.1c-8.1-1.7-5.8,3.1-9,8.4-7.7,12.7-31.6,40.7-30.3,54.2,1,10.8,13.3,15.3,21.2,7.7,7.5-7.3,22.4-66.3,18.2-70.3h0Z"/>
          <path class="st0" d="M752.3,1500c-.3-3,.6-5.6,1.4-8.4,14.9-46.1,40.9-102.3,63.1-145.6,2.8-5.5,6.3-14.5,11.9-16.9,1.9,1,.5,4.5,0,6.1-8.3,28.1-20.6,59.3-31,87-9.9,26.2-20.8,52.1-31.8,77.8h-13.6Z"/>
          <path class="st1" d="M1100.2,799.8c11.8-3,5.9-5.7,6.1-12.9.2-10.5,14.8-29.6,26.2-29,4.4.2,9.6,3.6,8.6,8.6-11.8-4.2-26.1,14.1-27,23.8-.3,3.8,3.6,5.1,2.2,7.9-1.5,3-15.5,12-19.1,15.8-6.3,6.8-12,19.7-12.1,28.9-.2,13.3,1.7,14.1-3.4,28.3-6.9,19.1-33.7,54.4-47.4,70.6-5.4,6.4-14.2,12.7-19.6,19.7-4.8,6.3-13.5,18.6-9.6,26.3,4.3,8.4,11.7,8.3,19.4,4.7-9.4,18.4-16,37.3-34.3,48.9l-35.3,19.9c4.7-9.4,40.5-36.8,42.2-43.4,1-3.9-4.3-6.6-6.5-9.7-9.3-13.2-4.9-25.4,2.4-38.2,9.9-17.4,25.5-27,36.7-42,5.1-6.9,7.4-15.3,12.3-22.5,12-17.5,34.8-34.9,37.6-57.4,3-24.1-3.3-28.1,17.5-45.6.6-.5,3.1,1.4,3-3h0Z"/>
          <path class="st1" d="M1017,1126.5c2.1,6.5-3.8,9.7-5,12.4-7.8,17.4-14.1,20.3-22.9,34.5-5,8.1-6.2,15.4-9.6,23.8-.9,2.3.9,4.1-3.4,3.3-.7-10.3,2-29.4,7.6-38.1,7.1-11.1,20.5-19.2,29.5-33,1.2-1.8-.4-3.9,3.7-3Z"/>
          <path class="st1" d="M950.5,1093.2c1.3,15.8-21,17.4-32.8,23.9-8.4,4.7-15,11.9-23.2,16.9,6-23.8,35.1-33.7,56-40.8h0Z"/>
          <path class="st1" d="M1119.9,928.4c-2.1,2.2-2.7-.2-3-2.2-.5-4.3.5-9.2,0-13.6-2.1-20.1-13.3-50.3,6.1-64.3.6,8.6-3.2,16.3-3.1,25,0,7.2,2.8,15.6,3.1,22.7.2,4.5-1.1,30.5-3,32.5h0Z"/>
          <path class="st1" d="M956.5,1351.8c1.1,12.4-.9,24.1,2.2,36.4.8,3.3,8.3,18.3,6.9,19.6-20-.3-19.4-29.5-15.9-43.9.3-1.4,4.2-15.6,6.9-12h0Z"/>
          <path class="st1" d="M988.3,1082.6c-1.9-1.8,1.2-4.5,2.5-5.8,5.3-5.4,13.4-10.6,18-15.3,3.8-3.9,4.8-12.7,10.6-7.6,4.3,10.2-26.7,33-31.1,28.7Z"/>
          <path class="st1" d="M944.1,1208.5c1.5,1.4,1.3,6.4.2,7.1-1.9,1.3-7.4-1.8-11.5-.3-8.3,3.1-11.5,12.5-18.6,17-3.4-13.2,18.4-34.5,29.9-23.8h0Z"/>
          <path class="st1" d="M1041.2,948c-2.9.3-.8-2.8-.4-4.2,1.9-6.5,6-16,12.5-18.5,1.9,11.2-7.4,14.9-12.1,22.7h0Z"/>
          <path class="st0" d="M853.6,1394.1c4.3,4-10.6,63.1-18.2,70.3-7.8,7.6-20.1,3.1-21.2-7.7-1.3-13.6,22.6-41.6,30.3-54.2,3.2-5.3,1-10,9-8.4h0Z"/>
          <path class="st0" d="M1259.1,854.3c-4.5,4.3-48.2-15.6-55.5-19.4-1.4-.7-12.9-6.4-12.6-7.1,1.2-2.9,3.8-1.8,6-1.6,8.3.5,19.7,4.3,27.7,7.3,6.2,2.3,27.6,11.7,31.9,15,2.5,1.9,2.9,2.4,2.5,5.8h0Z"/>
          <path class="st0" d="M1189.2,988.5c-1.1.6-4.2.9-4.3-.4,3.2-24.4,15.9-45.6,23.8-68.4l5-6.4c2.9,10.4-19.3,72.3-24.5,75.3Z"/>
          <path class="st0" d="M1149.7,997.4c-1.6,1.9-6.4,4.4-8.5,6.6,0-5,2.6-9.4,3-14.4.8-9-4.6-34.6,9.8-32.6,14.4,2.1,1.5,33.7-4.2,40.4h0Z"/>
          <path class="st0" d="M1192.2,921.2c5.3,7.3-1.9,12.9-4.5,18.3-.8,1.7-5.8,15-6.5,14.6-5.9-5.9-1.2-34.3,7.3-34.5.7,0,3.3,1,3.7,1.6h0Z"/>
          <path class="st0" d="M1079.1,1291.3c.3.3.7,3.7-1.1,4.5-13.4,5.9-2-7.6,1.1-4.5Z"/>
          <path class="st0" d="M1142.6,1363.9c-1.5-1.6,1.9-7.3,4.5-7.6,1.6,2.8-2.2,10-4.5,7.6Z"/>
          <path class="st0" d="M1127.5,1300.4c2.3,2.6-2,6.8-4.5,4.5-1.6-1.4,3.1-6.1,4.5-4.5Z"/>
          <rect class="st0" x="732.6" y="1382" width="3" height="4.5"/>
          <path class="st0" d="M1159.3,1321.5c.7.6-2.6,4-4.5,3-.7-.6,2.6-4,4.5-3Z"/>
          <g>
            <path class="st0" d="M1168.3,1025.2c-.1,2.9-4.5,1.5-6.2,4-2.7,4.1-2.4,8.1,3.1,6.5v-4.5c6.5,3.2,13.1-3.1,19.7-3.8-12.4,41.3-25.8,79.5-19.3,123.6,3.5,23.5,16.5,46.9,19.2,70,2.5,21.2-.5,46.7-9.9,65.8-21.2-5.9-42.8-9.8-63.9-16.3-24.9-7.7-52.7-18.4-75.9-28.5-4.7-2-31.8-13.9-33-16.1-3-5.1,7.5-34.1,11-40.6,6.5-12,16.2-19.6,23.8-30.6,14.6-21.1,20.2-44.8,18-70.5,15.5-4.9,35.2-6.3,49.3-15,10.3-6.4,17.8-19.6,26.9-27.6,9.8-8.6,23.5-17.9,37.1-16.5h0ZM1145.6,1063c-1.3-1.4-28.4,18.9-32.9,20.8-15.3,6.5-31.1-.1-47.3,1.8.3,1.8-.6,6.8,0,7.5.9,1,23.3,4.5,26.3,4.7,20.5,1.3,52.1-11.5,53.8-34.8h0ZM1141.9,1105.3c-5.7,1.8-7.4,33.4-1.5,34.7,2.3.5,3.4-1.8,3.7-3.8,1-5.4,2.9-16.1,3.1-21.1.2-3.5.7-11.8-5.3-9.8h0ZM1115.5,1137.8c0-2.2-1.7-3.9-3.9-3.9s-3.9,1.7-3.9,3.9,1.7,3.9,3.9,3.9,3.9-1.7,3.9-3.9ZM1157.3,1260.6c7.1-8.8,5.5-47.3,3.1-58.9-1.5-7.4-9.6-28.6-13.6-34.8-1.2-1.9-1.4-3.2-4.2-2.6,1.4,22.2,5.5,41.4,4.5,64.2-.3,6.3-6.8,32.9,1,35.4,2.4.8,7.7-1.5,9.2-3.3h0ZM1046.9,1180.9c0-1.9-1.5-3.4-3.4-3.4s-3.4,1.5-3.4,3.4,1.5,3.4,3.4,3.4,3.4-1.5,3.4-3.4ZM1098.7,1206.6c13.9,4.8,15.4-14.1,6.6-16.4-6.6-1.8-3.6,4.6-4.1,6.3-.9,3.1-3.9,5.7-2.5,10.1h0ZM1068.5,1230.8c.3-2.4-1-7.1-3-8.3-8.9-5.4-12.6,12.1,3,8.3Z"/>
            <path class="st1" d="M1157.3,1260.6c-1.5,1.8-6.8,4.1-9.2,3.3-7.8-2.6-1.2-29.2-1-35.4,1-22.8-3.1-42-4.5-64.2,2.8-.6,3,.7,4.2,2.6,3.9,6.2,12,27.4,13.6,34.8,2.4,11.6,4,50.1-3.1,58.9h0Z"/>
            <path class="st1" d="M1145.6,1063c-1.7,23.3-33.2,36.1-53.8,34.8-3.1-.2-25.4-3.7-26.3-4.7-.7-.7.2-5.7,0-7.5,16.2-1.9,32,4.6,47.3-1.8,4.5-1.9,31.5-22.2,32.9-20.8h0Z"/>
            <path class="st1" d="M1141.9,1105.3c6-1.9,5.5,6.3,5.3,9.8-.2,5-2.2,15.7-3.1,21.1-.4,2-1.4,4.3-3.7,3.8-5.9-1.4-4.1-32.9,1.5-34.7h0Z"/>
            <path class="st1" d="M1098.7,1206.6c-1.4-4.4,1.6-7,2.5-10.1.5-1.7-2.5-8.1,4.1-6.3,8.8,2.4,7.3,21.3-6.6,16.4h0Z"/>
            <path class="st1" d="M1068.5,1230.8c-15.6,3.7-11.9-13.7-3-8.3,2,1.2,3.3,5.9,3,8.3Z"/>
            <circle class="st1" cx="1111.6" cy="1137.8" r="3.9"/>
            <circle class="st1" cx="1043.5" cy="1180.9" r="3.4"/>
          </g>
        </g>
      </g>
      <g>
        <g>
          <path class="st0" d="M1008.2,385.3c-5.5,5.3-15.1,9.9-22.2,13.3-39.8,19.4-104.6,43.8-134.1,75.1,15.2-26.8,48.5-39.5,75.4-52.3,25.9-12.4,54.4-25.3,80.9-36.1h0Z"/>
          <path class="st0" d="M1035.6,347.6c-41.1,18.4-82.9,35.6-123.4,55.6-29.5,14.5-64,31-83.6,58.4-21.7,30.3-26,56.5-60.4,80.3-7.5,5.2-19.7,14.1-27.9,8.3-22.7-16.2-52.1-80.8-62.9-107.7-17.7-44.1-32.5-93.2-34.9-140.8,5.1,5.3,7.2,11.3,12.7,16.7,15.7,15.3,67.3,41.2,89,42.8,17.2,1.3,47.4-3.5,64.4-8,2-.5,7.3-1.4,7.6-3.7-22.4-1.9-46.6,3.6-68.9,1.1-17.4-1.9-55.3-22.2-71.7-31.4-9.2-5.1-23.3-19.5-26.4-29.6-2.8-9.3-.9-11.6,7.8-13.5,29.7-6.5,66.4,22.9,92.4,34.7,27.7,12.6,90.8,30.7,120.3,28.1,27.6-2.5,35.4-17.7,58.9-24.2,14.8-4,31.4-3.5,45.5-8.8,10-3.8,19.1-11.9,28.5-16.9l1.2-2.7c-4.2-15-9.1-30.9-7.8-46.5,2,1.5,2.7,3.5,3.3,5.7,6.4,21.1,11.1,43.3,19,63.9,2,5.2,18.5,36.3,17.2,37.9h0ZM681.8,292.8c-.4-4.2-11.4-2.4-12.1-1.5,3.4,6.7,6.9,2.2,12.1,1.5ZM952.5,335.1v4.5s4.5,0,4.5,0v-4.5s-4.5,0-4.5,0ZM1003.9,338.4c-1.5-1.6-27.6,8.5-22.8,13.5,1.4,1.4,28-8.1,22.8-13.5ZM950.8,363.8c-2.7-2.4-46.8,12.7-53.4,15.2-19,7.2-51.9,20.9-64.1,37.1-2.1,2.8-4.4,5.1-3.8,9.1,2.7,2.6,18.6-11.1,22.3-13.2,27.7-15.9,61.2-22.5,88.4-38.4,1.3-.8,13.4-7.3,10.6-9.8h0ZM695,383.6c.5-6.7-3.1-14.6-10.4-10.5-1,7.9,2.7,11.1,10.4,10.5ZM744.9,380.9c-6.2-.9-11.6,1-10.7,8.2,1.1,8,16,6.4,16.7,3.2,1-4.6-7.1-3.5-7.6-3.8-.6-.5,2.2-5.7,1.6-7.5h0ZM809.9,403.9c2.5,2.5,9.6-3.8,3.8-6-5.2-2-4.4,5.4-3.8,6ZM808.1,443.2c-6.9-6.4-25.1,27.4-28.3,31.5-3.4,4.3-12.4,14.1-16.4,17.7-7,6.3-24.3,14.5-26.5,22.7s4.1,9.9,10.6,7.7c13.3-4.5,27.7-21.4,35.2-32.9l25.3-46.6h0ZM759.7,450.5c-5.1-.6-8.4.4-7.6,6,5.1.6,8.4-.4,7.6-6ZM730.6,478.9c5.1-3.2-1.2-9.5-7.7-8.6-13.2,1.8,1.1,12.8,7.7,8.6Z"/>
          <path class="st0" d="M1091.6,269.7c9.4,20.1,17.1,44,34.8,58-2.2.2-6.7,5.1-7.1,5.2-3.8.7-7-1.3-10.1-1.1-4.3.3-7.5,4.3-13,1.7-1.5-.7-10.4-10.1-12-12.2-7.1-8.7-11.4-20-19.5-28,0,8.4,2.4,17.3,6.1,24.8,3.5,7.2,14.7,17.5,16.3,21.5,1,2.6-9.6,5.5-10.7,9-13,6-27.7-19.8-32.8-29.2-3.2-5.9-10.2-19.2-12.1-24.4-.6-1.7-2.1-10.4-1.6-10.9,6.3,2.4,36.8-12.1,39.3-10.3.5,5.5,18.7,31.6,21.9,31.7,1.6,0,2.1-2.5,1.6-4.6-1.7-6.9-15.1-25.2-14.4-31,3.5-2,10.2-3.4,13.3-.3h0Z"/>
          <path class="st1" d="M950.8,363.8c2.8,2.5-9.3,9-10.6,9.8-27.2,15.9-60.8,22.4-88.4,38.4-3.7,2.1-19.6,15.8-22.3,13.2-.6-4,1.6-6.2,3.8-9.1,12.2-16.2,45.1-29.9,64.1-37.1,6.6-2.5,50.7-17.6,53.4-15.2h0Z"/>
          <path class="st1" d="M808.1,443.2l-25.3,46.6c-7.5,11.5-22,28.4-35.2,32.9-6.5,2.2-12.7.1-10.6-7.7,2.1-7.8,19.5-16.4,26.5-22.7,4-3.6,13-13.4,16.4-17.7,3.2-4,21.4-37.8,28.3-31.5h0Z"/>
          <path class="st1" d="M744.9,380.9c.6,1.8-2.2,7-1.6,7.5.4.4,8.5-.8,7.6,3.8-.7,3.2-15.6,4.8-16.7-3.2-.9-7.1,4.5-9.1,10.7-8.2h0Z"/>
          <path class="st1" d="M1003.9,338.4c5.2,5.4-21.4,14.9-22.8,13.5-4.8-5,21.2-15,22.8-13.5Z"/>
          <path class="st1" d="M730.6,478.9c-6.6,4.2-20.9-6.8-7.7-8.6,6.5-.9,12.8,5.4,7.7,8.6Z"/>
          <path class="st1" d="M695,383.6c-7.7.6-11.4-2.6-10.4-10.5,7.3-4.1,10.9,3.8,10.4,10.5Z"/>
          <path class="st1" d="M759.7,450.5c.9,5.6-2.4,6.6-7.6,6-.9-5.6,2.4-6.6,7.6-6Z"/>
          <path class="st1" d="M681.8,292.8c-5.2.7-8.7,5.2-12.1-1.5.7-.9,11.7-2.7,12.1,1.5Z"/>
          <path class="st1" d="M809.9,403.9c-.6-.7-1.4-8,3.8-6,5.8,2.2-1.3,8.5-3.8,6Z"/>
          <rect class="st1" x="952.4" y="335.1" width="4.5" height="4.5" transform="translate(609 1289) rotate(-89.5)"/>
        </g>
        <g>
          <path class="st1" d="M1155.5,275.7c-13.4-4.4-28.4-8.3-42.4-10-3.8-8.3-18.8-56-14.7-61.4,1.2-1.6,5.2,3.4,5.9,4.2,2.2,2.5,9.7,11.7,11.3,14,2.8,4.1,9.2,18.6,11.3,20.5,1.1,1,1.7.9,3,.7,2.8-3-10.6-29.6-13.1-34.4-2-3.8-6.1-5.6-4.8-11.1l-3,1.5c1.1-4.9-9.1-10.3-14-8.9-3.7,1.1-6.6,9.1-7.1,12.7-2.1,17.4,21.2,79.2,31.2,94.8,4.6,7.2,14.8,13.6,19.3,22.2,2.9,5.5,4,14,6.1,18.5-5.3.7-9.4,9.1-13.2,10.2-7.4,2.1-17.7-1.4-24.3,1.3-8.6,3.6-13.8,20.8-31.1,24.9-16.6,3.9-19.5-4.8-28.9-4.7-7.5,0-24.3,9.9-32.1,13.1-2.4,1-5.3.8-6.9,1.4-26.6,10.8-55,23.7-80.9,36.1-26.9,12.8-60.2,25.5-75.4,52.3-13.8,14.7-22.3,34.9-34.4,51.1-42.4,56.9-81.7,64.6-145.5,87.1-117.2,41.4-235.2,80.4-351.8,123.4-10.7,4-20.2,9.5-32.5,12.1-10-2-18.4-1-28.2-4.4-7.8-2.7-23.5-12.7-29.1-18.6-.3-.3-3.2-4.5-4.5-6.1-2-2.5-4.3-4.3-4.5-4.6-24.9-34.2-47.9-84.7-59.1-125.8-8.9-32.4-28-118.8,5.7-140.6,11.5-7.4,36.6-14.2,50.4-20.2,48.8-21.2,111-41.8,156.2-66.5,1.7-.9,4.5,0,6.1-3,2.2.7,3.3-.9,4.6-1.5,12.1-5.2,25.5-9.8,37.9-14.9,20-8.3,40.2-16.6,60.2-25.1,67.7-29.1,138.8-71.1,214.9-65.7,35.2,2.5,65,20.8,102.8,18.7,2.7-.1,5.2-.5,6.8-3,10.4-.6,18.5-2.5,28.5-5.5,44.6-13.2,102.7-30.7,145.1-48,13.9-5.7,5.9-6.5,12.2-16.5,4.5-7.2,17.4-13.1,25.7-13.2,6.5,0,17,4.7,22,3.7,8-1.5,6.2-9.2,12.5-11.8,5.4-2.3,7.8,1,12.1.2,9-1.6,11.2-13.6,26.9-9.5,23.2,6,49.3,60.9,56.6,82.4,3,8.7,6.5,18.5,6.3,27.6h0ZM1071.2,186c-8.6-1.8-10.6,7.3-10.8,14.3,0,4.5,7.2,35.6,9.8,35.6.9-16.6-2-33.2,1-49.9ZM1040.9,205.5c-5.1-.9-23.3-.7-21,7.9,2.4,9.3,23.6-5.7,21-7.9ZM1035.6,347.6c1.4-1.6-15.2-32.7-17.2-37.9-7.9-20.6-12.6-42.8-19-63.9-.7-2.3-1.4-4.2-3.3-5.7-1.3,15.6,3.6,31.5,7.8,46.5l-1.2,2.7c-9.4,5-18.5,13.1-28.5,16.9-14.2,5.3-30.7,4.7-45.5,8.8-23.4,6.4-31.3,21.7-58.9,24.2-29.5,2.6-92.6-15.5-120.3-28.1-26-11.8-62.6-41.2-92.4-34.7-8.7,1.9-10.6,4.2-7.8,13.5,3,10,17.2,24.5,26.4,29.6,16.5,9.1,54.3,29.4,71.7,31.4,22.2,2.5,46.4-3.1,68.9-1.1-.3,2.3-5.6,3.2-7.6,3.7-17,4.5-47.2,9.3-64.4,8-21.8-1.6-73.4-27.5-89-42.8-5.5-5.4-7.6-11.4-12.7-16.7,2.3,47.6,17.1,96.7,34.9,140.8,10.8,26.9,40.3,91.5,62.9,107.7,8.2,5.8,20.4-3.1,27.9-8.3,34.4-23.8,38.8-50,60.4-80.3,19.6-27.4,54.2-43.9,83.6-58.4,40.4-19.9,82.3-37.1,123.4-55.6h0ZM965,245.9c-24.4,3.6-49.9,11.3-73.5,19.2-10,3.4-43.1,14.1-49.8,19.3-1.4,1.1-1.3,4.3-1,4.6,1.2,1.2,29.7-4.9,34-6,20.6-5.1,70.3-21.1,87.2-32.1,1.9-1.2,3.6-2.5,3.2-5.1h0ZM1091.6,269.7c-3.1-3-9.8-1.7-13.3.3-.7,5.7,12.7,24.1,14.4,31,.5,2,0,4.6-1.6,4.6-3.2-.1-21.5-26.2-21.9-31.7-2.5-1.9-32.9,12.7-39.3,10.3-.5.5,1,9.2,1.6,10.9,1.9,5.2,8.9,18.6,12.1,24.4,5.1,9.4,19.8,35.1,32.8,29.2,1-3.5,11.7-6.4,10.7-9-1.6-4-12.8-14.2-16.3-21.5-3.7-7.5-6.1-16.4-6.1-24.8,8.1,8,12.4,19.4,19.5,28,1.7,2,10.6,11.5,12,12.2,5.6,2.6,8.7-1.4,13-1.7,3.1-.2,6.3,1.8,10.1,1.1.4,0,5-5,7.1-5.2-17.8-14-25.4-37.9-34.8-58h0ZM599.3,310.8c-.7,0-11.4,1.3-13.3,1.6-6.7,1.1-28,7.5-25.4,16.7.8,1.5,1.5,2.3,3.4,2.2,5.1-.3,36.6-13.1,37.5-17,.5-1.3-1.3-3.4-2.2-3.6h0ZM539.4,336c-35.3,6.2-69.8,21.2-102.6,35.5-39.9,17.3-86,38-123.9,58.8-2.7,1.5-9.3,3.6-8.6,7.3,1.7,1.3,27.8-7.7,32.2-9.3,50.4-18.4,110-41,158.3-63.5,9.5-4.4,18.1-8.1,27.1-13.7,2-1.2,20.4-12.3,17.4-15.1h0ZM274.1,426.8c-1.7-1.7-17.6,5.8-20.7,7.2-12.2,5.3-54.5,23.2-62,30.1-13.9,12.9-13.7,38.9-12.7,56.7,2.8,53.3,34.3,136.3,70.5,175.9,3,3.3,18.9,16.9,22,18.1,16.6,6,54-5.8,71.4-11.3,5.9-1.9,18.1-5,22.9-7.3,6.6-3.2-3.6-8.8-6.4-12.6-34.3-46.1-66.7-123.3-77.3-179.3-4.7-25.2-9-52-7.6-77.5h0ZM683.5,545.4h-3s0,4.5,0,4.5c2.2-.5,3.5-2.4,3-4.5h0ZM677.8,565c0-1-.8-1.9-1.9-1.9s-1.9.8-1.9,1.9.8,1.9,1.9,1.9,1.9-.8,1.9-1.9ZM619.9,570.8c-.8,8,2.3,9.1,7.5,3.8l-7.5-3.8ZM586.5,584.2c-1.6-1.6-6.1,3-4.6,4.5s6.1-3,4.6-4.5ZM483.4,621.4v6.1s3,0,3,0v-6.1s-3,0-3,0ZM416.8,627.1v4.6s7.6,0,7.6,0v-4.6s-7.6,0-7.6,0ZM483.2,630.7c-2-3.3-11.9-1.7-.6,4.4,1.4-.1,1-3.8.6-4.4ZM485.2,642.6c0-1-.8-1.9-1.9-1.9s-1.9.8-1.9,1.9.8,1.9,1.9,1.9,1.9-.8,1.9-1.9ZM478.7,656.2c1.2.9,4.5-1.4,4.5-2.2,0-.5-5.7-5.3-5.2-8.3-3.9.9.3,10.2.7,10.6h0ZM448.8,662.1c0-1-.8-1.9-1.9-1.9s-1.9.8-1.9,1.9.8,1.9,1.9,1.9,1.9-.8,1.9-1.9ZM416.6,669.5c-.5-2.2-2.4-3.5-4.5-3v3s4.5,0,4.5,0h0Z"/>
          <path class="st0" d="M225.7,718.4c1.3,1.6,4.2,5.8,4.5,6.1-.6-.7-4,2.6-3,4.5.6.7,4-2.6,3-4.5,5.6,5.9,21.4,15.9,29.1,18.6,9.8,3.4,18.2,2.4,28.2,4.4-5.3,1.1-16.9,2.3-23.4,3-3.1.3-15.9.4-18.1-.4s-2.1-3.7-2.6-4.1c-.3-.3-5.1,2.1-7.8,1.4-1.2-.3-1.4-2.7-2.7-3.7-1.2-.9-3.6-.6-4.2-1.2-.9-1,1-12.6-5.5-2.8-1.1-4.1-2.8-3.3-6.8-3.1-1.2-5,3-2.1,4.5-3.1.4-.2-.8-7.4-1.4-9,1.5,0,4.3,1.9,4.5,1.5l-1.4-7.6h3s0,0,0,0ZM228.7,732h-6s0,1.5,0,1.5h6s0-1.5,0-1.5ZM236.2,735.1h-4.5s0,6,0,6c3.8-1.6,5.4-1.3,4.6-6Z"/>
          <path class="st0" d="M213.6,716.8c2.5,3.4,3.9,2,6,7.6-1.9,0-3.9,1.9-6.1,1.5,2.4-4.6,1.8-4.6-3-6,.3-.8-.3-2.7,0-3s2.2.3,3,0h0Z"/>
          <path class="st0" d="M210.6,719.8c-.6,1.9-.2,4.1-3.8,4.5-.5,0-.7-6.6-5.3-.8l7.5,5.3-10.5-2.3c1.5,1.6,4.4,3.6,6.4,4.2,3.1.9,7.7-2.2,7.1,1.9-1.6,3.3-4.7.8-5.7,1.2-1.8.8-1.4,4.9-9,2.9-8.5-6.4-19.6-13.4-27-20.7-15.7-15.5-27.7-36.2-49.9-43.4-6.7-2.2-15.9-3.2-23-3.3-5.9-5.5,20.6-17.6,24.3-18.8,13.2-4.3,24.6-4.4,37.8.2-17.4-14.1-38.4-17.8-54.3-35-6.7-7.3-19-27.5-23.7-36.7-8-15.7-9-31.8-26.8-41.2-4.6-2.4-17.5-3.4-15.6-10.1.1-.4,2.1-2.3,2.3-2.3l33.3.2c5.2,0,19.3,6.2,23.9,9.4,5.3,3.7,19.1,19.2,23.5,20.4,8.9,2.5,1-10.8-.8-14.3-11.2-22.2-42.6-57.3-42.5-81.3l.2-29.5c9.6,1.1,7.7-.3,7.6-9-3.9-2.2-4.2,9.7-7.6,6-1-1.1,4.5-26.7,5.5-30.2,10-33.5,47.3-84.1,45.2-117.1-.3-5.6-2.6-10.3-3-15.8,13.7,0,25.8,22.1,29,33.7,6.9,24.9-7.8,44.5,2.5,68.3,5.2,12.1,17.2,21.7,29.9,25.3,0-5.5-6.4-8.1-8.7-11.7-35.5-54.9,15-86.6,41.8-124.3,8.4-11.9,13.7-22.6,11-37.7-2.6-14.8-14.3-23.1-15.8-37.8,36.5,9.3,71.4,24.5,86.2,61.4,5,12.4,11.6,48.1,17.8,56.1.4.5,9.4,8,10.1,8.5,15.5,9.3,31.7,4.3,30.6-15.6-.5-8.5-2.3-6.5-6-10.6-1.4-1.6-2.1-4.1-3.7-5.4-2.8-2.3-9.4-2.5-10.7-4.4-6.2-9.1,15-4.5,16.6-4.5.9,0,.7-2.8,1.9-3.1,2.8-.7,18.2,1.9,19.9,3.5.8.7-.4,3.3,1.1,4.4s6.5-.7,10.3,3c2.9,2.8,2.2,5.7,2.4,5.9.3.3,3.4-2.1,4.3-1.4.5.3.7,3,2.6,4.3,6.7,4.5,16.3,3.1,15.9-6.5-.6-13.7-14.6-21-25.1-26.4-2.9-1.5-19.3-7.2-20-8-.8-1,0-4.3-.1-5.9-8.5,3.8-4.7-.2-6.8-3-6.1-8.2-11.4-9.3-16-21.8-2.5-6.9-4.7-14.9-4.1-22.3,3.3-.8,3.3,1.9,4.8,3.5,8.5,9.2,8.8,16.8,21.9,23.5,23.4,12,53.9,1.1,77.9,11.7,23,10.2,26.5,36.2,59.1,36.4,10.9,0,22.1-9.9,19.9-21.2-3.3-17.6-18.8-31.2-34.5-38.2-4-1.8-17.8-5.5-19.2-6.6-1.7-1.4-2.1-6.1-1.5-6.8,2.4-2.5,37.6-3.4,43.2-2.9,29.4,2.8,49.6,39.3,85.3,33.1,16.9-3,32.3-12.7,52.4-14,46.8-3.1,66,30.4,100,51.3,14.1,8.6,38.1,9.3,54.6,8.4-1.6,2.5-4.1,2.9-6.8,3-37.9,2.1-67.7-16.2-102.8-18.7-76.1-5.5-147.3,36.6-214.9,65.7-19.9,8.6-40.1,16.8-60.2,25.1.3-4-10.3-7.4-4.5-12.1.4-.3,2.7.4,3,0,.5-.6-.3-4.5,0-6.1,8,.9,13,3.6,9.1-7.5l4.6-1.5c-7.7-.5-12,1.4-13.7,9-6.5-.7-4.5.7-3.1,6-12.1-3.2-4,11.9-8.4,13.6-.2,0-3.6-3.5-3.6-3.7,0-5.5,4.7-5-6.2-6.9.6,5.7,4,12.5-3.1,13.6.6-7.3-.5-3.1-6-3.1-.6.6,7.6,15.4-4.5,4.5v6.1c-6.1-2.4-9.4.6-15.2,1.4l3,6c-45.2,24.6-107.3,45.3-156.2,66.5-13.8,6-38.9,12.8-50.4,20.2-33.8,21.8-14.6,108.2-5.7,140.6,11.2,41.1,34.2,91.6,59.1,125.8-4.3-.7-3.7,1.7-7.6,3-.4-.5.8-3.1-.7-3l-6.8,6c1.4.3,3.4-.3,4.5,0h0ZM381.4,238.3c0-1-.8-1.9-1.9-1.9s-1.9.8-1.9,1.9.8,1.9,1.9,1.9,1.9-.8,1.9-1.9ZM724.4,246.2h-3s0,4.5,0,4.5c2.2-.5,3.5-2.4,3-4.5h0ZM729,249.2h-3s0,4.5,0,4.5h3s0-4.5,0-4.5ZM447.5,255.3c1.1-2.1-.9-4-1.5-3-1.1,2.1.9,4,1.5,3ZM444.5,253.8h-4.5s0,6,0,6h2.2c2.4-1.6,2.7-3.2,2.3-6h0ZM445.9,265.9c1.1-2.1-.9-4-1.5-3-1.1,2.1.9,4,1.5,3ZM441.3,264.5c-.8-.5-3.1,0-4.4-.1-1.7,4,3.1,2.6,3.1,3.9,0,7.9-8,6.5-4.6-2.4-11.3,0-9.9,2.3-7.2,11.3.3.9,2.4.7,2.4,1.5,0,1.6-2.9,10.8,2,3.4,5.4-8.1,3.8-2.9,9.9-5.1,1.6-.6,3.9-5,6.4-5.7-8,1.1-6.3-5.9-7.7-6.7ZM371.1,268.6l-2.3,2.2c0,1.6,3.8-.9,2.3-2.2ZM367.2,270c-1.7-1.7-4.9.6-.8,3,1.3.2.9-2.9.8-3ZM442.8,282.5c1.1-.9,12.1-.7,3.1-7.6.9,4.9-4.8,6.1-6.1,10.5,2.5-.4,8.4,6.9,10.6,4.6.2-.2.7-4.3-.9-4.6-.6,0-10.9.6-6.7-3h0ZM371.7,279.1c.6-6.2-7-2.7-4.5,0,1.5.2,3.1-.2,4.5,0-.4,4.1-7,5.4-4.6,7.5,1.8,1.6,5.5-3.7,6-3,1,5.1-4.2,6.7-6.1,10.5,1.3.3,4.7-.7,4.5.8-.6,3.8-1.5,2.3,1.6,7.2,3.8,5.9,13.2-6.7,10.6-10.8-1.5-.4-5.6,9.9-7.6,3.7-.5-1.5,4.7.3,2.3-2.3-4.7-1.1-4.3-4-2.2-7.9,1-1.8,3.5-.3,3-2.6-3.9,0-4.3,1.3-4.5-3.1.6,0,12.7,3.3,7.6-1.5-.3-.3-5.5-.6-6.8-1.6-1.3-.1-.8,1.9-.8,3-1-.1-2.1.1-3,0h0ZM473.1,285.7c.5-2.1-.8-4-3-4.5v4.5s3,0,3,0ZM438.7,284c0-1-.8-1.9-1.9-1.9s-1.9.8-1.9,1.9.8,1.9,1.9,1.9,1.9-.8,1.9-1.9ZM311.6,284.8c0-1-.8-1.9-1.9-1.9s-1.9.8-1.9,1.9.8,1.9,1.9,1.9,1.9-.8,1.9-1.9ZM420.1,286.9h-6.1s3,7.5,3,7.5l-4.6,1.5c8.9-.2,6.9-1.9,7.6-9h0ZM429.2,290c1.1-2.1-.9-4-1.5-3-1.1,2.1.9,4,1.5,3ZM436.7,291.5c2.9-2.7-6-6.8-6-2.3,0,1.6,5,3.2,6,2.3ZM460.9,300.8c5.4-3.6,13.4-6.2,5.3-12.1l-.8,4.6c-5.3-3.5-2,.4-1.5,4.5-.7.8-7.3-8.6-3,3h0ZM394.3,308c1,0,2,0,3,0-.3-2.6.9-6.7-.3-8.8-.3-.5-9.8-6.9-10.2-6.4-1,1.3,0,4.9,2.6,5.8,1.5.5,4.5,0,4.9.4.5.5,0,7.1,0,9-6-.3-15.6-4.4-13.6,6,2.7-1.4,1.4-4.5,6.6-3.1,2.3.6,1.2,7.8,4.7,6.1,4.9-2.3,2.4-6.7,2.3-9h0ZM447.3,300.7c.4-.4-.2-4.6,0-6-7.3-.1-8.8,5.7-15.1,3,1,2.3,2.9,3.1,3,6-1,.4-7.7,3.3-7.6,3.7,2.1,5.1,7.9,2.4,7.6-3.7,1.8-.7,11.7-2.5,12.1-3-.3.3.9,4.3-4.5,3v1.5s5.3,3,5.3,3l-9.8-3c-.5,5.1,6,5.3,7.5,9.1l-7.5-3,3,6c-9.1-3-7.8,5.5,1.5,3.8,2.9-5.3,10.4-6.9,13-12.9,2-4.5-2.4-5.6-2.1-8,.3-1.8,3.7-2.7,2.8-5.5h-7.6c4,7.8-.7,5.2-1.5,6h0ZM420.1,297.5h-3c-.4,2.8,0,4.4,2.2,6l.8-6ZM430.6,299.1l-4.5.7c1.4,1.6,2.3,2.8,4.5,2.3v-3s0,0,0,0ZM391.3,301.9c-2.1-2.2-6.1,2.6.8,4.5.3-.8-.6-4.3-.8-4.5ZM364.2,310.6c-.7-.5-1.4-4.5-1.7-5.8-2.8-.3-1.5,3.2-.7,4.5,2.9,4.9,6.3,5.2,11.3,3.1-.4-3.4-6.8-.4-8.8-1.7h0ZM468.4,306.8l-9.1,2.2,8.2,2.3c1.4,0,1-4.4.8-4.5h0ZM383.5,335.1c2.6-4.7,7-11.8-1.5-10.6l-1.5,7.5c3.5-7.7-1.1-3.3-6.5-4.6-.8-.2-8-6.7-8.6-8.3l6-2.2-13.6-3.1c-.4.3,5.1,4.1,0,7.5,4.8-.9,4,1.2,6.2,4.4-.7-.7-.7-1.9,0-2.6s1.9-.7,2.6,0,.7,1.9,0,2.6-1.9.7-2.6,0c2,3.7.4,5,7.4,3.2,1.1,8.4-2.4,1-6.1,5.3l6.8,8.3-3.8-7.5c6.5-2.3,3.6,4.5,5.3,4.6,4.7,0,6-3.6,9.8-4.5-.7,1.2-.2,3.1-2.2,4.6-1.8,1.4-8.6,1.3-4.1,6.7,6.4,7.6,10.7,0,1.6-1.5,2.1-4.7,7.3-5,11.2-8.5,2.6-2.4,1.9-6.3,5.5-5.9v-1.5s-3-.8-3-.8l7.6-6-4.5-.8.8-6c-2.3,6.7-9.8,12.3-5.4,19.6-2.9-.8-4.7-.7-7.6,0h0ZM356.4,319.9c1.1-2.1-.9-4-1.5-3-1.1,2.1.9,4,1.5,3ZM332.1,333.4h-3s0,4.5,0,4.5h3s0-4.5,0-4.5ZM398.7,333.7c-4.7-1.1-2.1,2.3-3.5,4.1-.9,1-3.2-.5-2.6,1.9h6s0-6,0-6h0ZM333.6,345.4c1-1.3-.3-5.8-3-6.1l-3.1,7.5c.3.3,5.9-1.2,6-1.5h0ZM366.9,342.6c-1.1-.9-11.8,4.2-12.2,5.3-1.8,5.3,2.4,2.5,3.1,3.1,1.9,1.7,3.1,5.8,5.3,6.7,5.7,2.5-2.1-7.8-2.3-7.5,7.5,1.3,1.2-3.3,6.1-7.5ZM257.8,351.2c-.3-.2-4.2-.3-4.4-.1-.3.3,1,3.2.7,4.7s-2,2.8-2.3,3.6c-.1.4,5.1.2,1.5,6.8,2.6-.9,3.4-4,5.3-6.1,1.5-1.5,4.4-.8,3.8-2.9-4.9.6-4.1-5.5-4.6-6h0ZM304.8,355.9c1-1.9-2.4-5.3-3-4.6-1,1.9,2.4,5.3,3,4.6ZM296.2,358.4c.9.8,2.9.6,3.8,1.4.6.5,5.2,8.3,6.2,2.9.5-2.5-10-9.9-12.1-8.3.5,1.1,1.3,3.5,2,4.1h0ZM236.7,355.5c-3.2-3.5-7.6,9.7-2.3,12.1,5.8.1-1-4.3-.6-6.5.2-1.3,4.3-3.9,2.9-5.5ZM279.4,360.3c0-1-.8-1.9-1.9-1.9s-1.9.8-1.9,1.9.8,1.9,1.9,1.9,1.9-.8,1.9-1.9ZM353.2,359.2l-.8,6c2.4-1.6,2.7-3.2,2.3-6h-1.5ZM347.1,366.7v-6c-.8-1.8-3.8,5.2-3,6h3ZM212.4,363h-4.5s0,3,0,3h4.5s0-3,0-3ZM305.1,368c0-1-.8-1.9-1.9-1.9s-1.9.8-1.9,1.9.8,1.9,1.9,1.9,1.9-.8,1.9-1.9ZM311.1,368c0-1-.8-1.9-1.9-1.9s-1.9.8-1.9,1.9.8,1.9,1.9,1.9,1.9-.8,1.9-1.9ZM313,366.5v1.5c1-.5,1-1,0-1.5ZM224.5,373.6c1-1.9-2.4-5.3-3-4.6-1,1.9,2.4,5.3,3,4.6ZM316.8,374.1c1-1.9-2.4-5.3-3-4.6-1,1.9,2.4,5.3,3,4.6ZM233.5,381.2c2.7-2.7-2.9-8.2-7.5-4.6-1.5,4,6.3,5.8,7.5,4.6ZM275.9,379.9c1.5-1.5-2.9-6.1-4.5-4.5s2.9,6.1,4.5,4.5ZM262.3,382.9l-6-6.1c-1.2,4.8,1.6,5.7,6,6.1ZM286.4,390.6c.2-7.3-3.4-10.3-10.5-9.1l10.5,9.1ZM238,385.8l-9.1-1.6c-1.6,6.8,6.6,7.8,9.1,1.6ZM269.8,389c-9.9,5.2-15-6.9-24.2-3.1.1,2.7,4.6,1.4,7.2,2.7,2,1,3.5,3.5,5,4.1.6.2,9.2,2.5,9.7,2.4,1.9-.3,2.8-4.1,2.3-6ZM263.8,385.9c-1.7-1.7-4.9.6-.8,3,1.3.2.9-2.9.8-3ZM216.8,393.2c1.6-1.4-3.1-6.2-4.5-4.5-2.3,2.6,1.9,6.8,4.5,4.5ZM275.8,392l-4.5.7c1.4,1.6,2.3,2.8,4.5,2.3v-3s0,0,0,0ZM275.8,396.6c-1.7-1.7-4.9.6-.8,3,1.3.2.9-2.9.8-3ZM228.9,399.3h-3c-.8.8,2.1,7.9,3,6v-6s0,0,0,0ZM107.8,413.8h-10.6c0,0,0,9,0,9,2.9-.1,3.8-5,4.9-5.7,2.4-1.4,6.8,1.9,5.7-3.3h0ZM188,414.3l-4.5.7c1.4,1.6,2.3,2.8,4.5,2.3v-3s0,0,0,0ZM98.4,474.3l1.6-10.6c-2.8,1.5-6.8,9.4-1.6,10.6ZM195.6,694c-7.7-1.4-1.5,3.4-6.1,7.5l6.1-7.5Z"/>
          <path class="st0" d="M180.2,166.2c-.3,8.9-.7,15.7,2.2,24.2,4.1,12,11.4,12.1,17,20.8,10,15.3,7,31.8-3.9,45.8-15.1,19.4-10.3-6.4-15.2-16.2-1.1-2.2-3.4-2.4-4.1-3.5-11.9-21.5-17.2-34.3-8-59.3.5-1.2,6.3-7.4,6.8-10.2l5.2-1.5h0Z"/>
          <path class="st0" d="M559,166.1c4.6,6.6,11.2,14.3,9.9,23.3-7.3-1.5-11.3-9.8-17.2-12.3-7.3-3.1-15.6-1.8-22.4-3.4-12.8-2.8-37-24.2-34.2-39.1,6.5,2.2,9.8,8.8,16.6,11.4,15.5,6.1,30.6-.9,44.6,14.6,1.6,1.7,1.6,3.9,2.7,5.5h0Z"/>
          <path class="st0" d="M221.6,742c.4.4,5.3,1.4,2.4,3.6-3.4,2.6-9.8-2.5-7.5-7.6,3.4-.7,3.4,2.2,5.1,4h0Z"/>
          <circle class="st0" cx="209" cy="739.4" r="1.9" transform="translate(-532 942.8) rotate(-89.6)"/>
          <path class="st0" d="M274.1,426.8c-1.3,25.5,2.9,52.3,7.6,77.5,10.5,56,42.9,133.2,77.3,179.3,2.8,3.7,13,9.4,6.4,12.6-4.8,2.3-17,5.5-22.9,7.3-17.4,5.5-54.8,17.4-71.4,11.3-3.1-1.1-19-14.8-22-18.1-36.2-39.7-67.7-122.6-70.5-175.9-.9-17.8-1.2-43.7,12.7-56.7,7.5-6.9,49.8-24.8,62-30.1,3.2-1.4,19.1-8.9,20.7-7.2h0ZM262.7,457.4c-8.2-1.4-46.5,17.1-46.3,24.3,1.9,2.8,3.4,2.5,6.4,2,2.3-.4,37.6-16.3,39.6-17.8,3.3-2.5,3.7-7.9.3-8.5h0ZM245,500.7c1.5,1.5,18.7-4.4,19.6-6.9,5.3-15.1-24.6,1.8-19.6,6.9ZM196.4,538.3l.2-33.3c3.6-.9,2.5.9,3.5,1.9,24.4,28.3,39.3,83.9,49.6,119.3,2.8,9.7,7.8,18.7,9.7,28.8,2.1.4,3.6-.5,4.3-2.5.4-1.1,1.6-14.5,1.5-16.4-.8-33-19.2-77.6-35.2-106.3-5-9-15.7-28.4-22.1-35.3-3.9-4.3-13-10.4-15.5-2.1-3.2,10.5-2.6,32,.5,42.5.8,2.6-.6,3.9,3.4,3.3h0ZM310.9,637.2h-6c-2.6,13.3,7.2,12.2,6,0ZM344,669.1c-8.4-.7-50.3,5.9-53.8,11.8-.8,1.3-1.2,5.6-.8,6.1,2.8,3,48.9-8,52.8-12.8,1.2-1.4,2-3.2,1.7-5.1h0ZM270.8,682.7c-1.8-1.4-19.7-10.6-20.7-9.6-2.9,7.8,15.9,16.1,20.3,15.2,2.6-.5,2.1-4.3.4-5.7h0ZM314.9,702.9l-12.4,2.3.8,4,12.4-2.3-.8-4Z"/>
          <path class="st0" d="M539.4,336c2.9,2.8-15.5,13.8-17.4,15.1-9,5.6-17.6,9.3-27.1,13.7-48.4,22.5-107.9,45.2-158.3,63.5-4.3,1.6-30.5,10.6-32.2,9.3-.7-3.7,5.9-5.8,8.6-7.3,37.9-20.8,84-41.5,123.9-58.8,32.8-14.2,67.3-29.3,102.6-35.5h0Z"/>
          <path class="st0" d="M599.3,310.8c.9.1,2.7,2.3,2.2,3.6-.8,3.9-32.4,16.7-37.5,17-1.9.1-2.5-.7-3.4-2.2-2.7-9.3,18.6-15.6,25.4-16.7,1.9-.3,12.6-1.7,13.3-1.6h0Z"/>
          <path class="st0" d="M619.9,570.8l7.5,3.8c-5.2,5.3-8.3,4.2-7.5-3.8Z"/>
          <path class="st0" d="M478.7,656.2c-.4-.3-4.6-9.6-.7-10.6-.4,3,5.2,7.8,5.2,8.3,0,.8-3.3,3.1-4.5,2.2h0Z"/>
          <rect class="st0" x="418.3" y="625.6" width="4.6" height="7.6" transform="translate(-212.2 1045) rotate(-89.5)"/>
          <path class="st0" d="M483.2,630.7c.4.6.7,4.3-.6,4.4-11.3-6.1-1.4-7.7.6-4.4Z"/>
          <rect class="st0" x="481.9" y="623" width="6.1" height="3" transform="translate(-143.2 1104.7) rotate(-89.6)"/>
          <path class="st0" d="M586.5,584.2c1.5,1.5-3,6.1-4.6,4.5s3-6.1,4.6-4.5Z"/>
          <path class="st0" d="M416.6,669.5h-4.5s0-3,0-3c2.1-.5,4,.8,4.5,3h0Z"/>
          <path class="st0" d="M683.5,545.4c.5,2.1-.8,4-3,4.5v-4.5s3,0,3,0Z"/>
          <circle class="st0" cx="446.9" cy="662.1" r="1.9"/>
          <circle class="st0" cx="483.3" cy="642.6" r="1.9"/>
          <circle class="st0" cx="675.9" cy="565" r="1.9"/>
          <path class="st0" d="M385,356.3c-1.3.6-2.3,2.2-4.6,1.5.3-.5-.2-2.1,0-3l4.5,1.5Z"/>
          <path class="st1" d="M196.4,538.3c-4,.6-2.7-.7-3.4-3.3-3.1-10.5-3.7-32.1-.5-42.5,2.5-8.3,11.5-2.1,15.5,2.1,6.4,6.9,17.1,26.3,22.1,35.3,16,28.7,34.4,73.3,35.2,106.3,0,1.9-1.2,15.2-1.5,16.4-.6,2-2.2,2.9-4.3,2.5-1.9-10-6.9-19.1-9.7-28.8-10.3-35.4-25.2-91-49.6-119.3-.9-1.1.1-2.9-3.5-1.9l-.2,33.3h0Z"/>
          <path class="st1" d="M344,669.1c.3,1.9-.6,3.7-1.7,5.1-3.9,4.7-50,15.7-52.8,12.8-.5-.5,0-4.8.8-6.1,3.5-5.9,45.4-12.5,53.8-11.8h0Z"/>
          <path class="st1" d="M262.7,457.4c3.4.6,3,6-.3,8.5-2,1.5-37.3,17.4-39.6,17.8-3,.5-4.5.8-6.4-2-.2-7.3,38.1-25.7,46.3-24.3h0Z"/>
          <path class="st1" d="M245,500.7c-5.1-5,24.9-21.9,19.6-6.9-.9,2.4-18.1,8.3-19.6,6.9Z"/>
          <path class="st1" d="M270.8,682.7c1.7,1.3,2.2,5.2-.4,5.7-4.4.9-23.2-7.5-20.3-15.2,1-1,18.9,8.2,20.7,9.6h0Z"/>
          <path class="st1" d="M310.9,637.2c1.2,12.2-8.6,13.3-6,0h6s0,0,0,0Z"/>
          <path class="st0" d="M377.5,330.6c.1.1.6,3.2-.8,3-4.1-2.4-1-4.7.8-3Z"/>
          <circle class="st0" cx="426" cy="320.2" r="1.9"/>
        </g>
      </g>
    </g>
  </g>
</svg>