<?xml version="1.0" encoding="UTF-8"?>
<svg id="Layer_2" xmlns="http://www.w3.org/2000/svg" version="1.1" viewBox="0 0 1500 1500">
  <!-- Generator: Adobe Illustrator 29.8.5, SVG Export Plug-In . SVG Version: 2.1.1 Build 2)  -->
  <defs>
    <style>
      .st0 {
        fill: #25211e;
      }

      .st1 {
        fill: #f75625;
      }
    </style>
  </defs>
  <g id="a">
    <g>
      <g>
        <path class="st1" d="M621.8,720.5c-26.8-17.1-43.6-35.1-75.9-45-48.3-14.7-55.5-1.3-96.9,13.1-36.5,12.7-69,14.1-99.9,41.9-24.4,22-23.3,40.3-34.7,67.2-9.5,22.3-24.1,44.6-34.3,68.6-4.3,0-5.5-2.4-7.7-5.3-12.1-16.3-18.1-38.8-14.3-58.6,3.5-3.3,14.5,16.9,21.8,11.8,8.6-6-12.5-41.2-14.8-49.8-15-55.2,38.1-88.8,22.4-142.2-1.6-5.6-11.7-19.4-11.4-20.5,2.3-11.2,24.2,6,28.1,9.9,8.3,8.5,18.2,26.5,19.7,38.2,1.6,12.5-6.7,57.3,14.2,54,23.2-3.7,20.8-47.9,16.6-64.8-6-24.1-22.1-36.2-30.2-57.7-14.5-38.6-4.1-87.4,22.5-118.4,1.7-.8,5,2.4,5,3v43.9c0,8.7,13.8,40.5,19.2,48.8,7.4,11.5,32.8,36.8,47.5,31.9,12.4-4.1-11.1-42-.5-58.5,6.3-9.7,11.6,12.1,15.8,17.7,12.2,16.6,31.2,21.4,41,43,9.5,21.1,3.7,45.5,30.4,55.5,12.5,4.7,21.9-1,22.4-14.7.4-9.8-11.3-22.8-14.8-32.8-1.6-4.7-8-26.1-2-27.9,1.9-.4,3.4,0,5,.9s13.6,16.2,17.9,20c12,10.5,28.4,18.9,38.8,31.1,17.1,20.1,18.3,48.5,30.8,71.1,5.4,9.7,13.6,15,18.3,24.6h0Z"/>
        <path class="st1" d="M146.1,1333.7c6.1-27,7.2-76.7-2.4-102.4-1.8-4.7-8.7-11.8-7.5-16.2,4-14.2,33,15.9,34.9,16.8,3.4,1.5,2.6-1.3,3.2-2.7,10.1-26.4-30.7-69.8-34-100.3s15.6-52.2,17.6-80c.3-3.9-5-18.4,3.1-16.6,7.5,1.6,15.5,23.8,16.8,31.2,1.7,10-.4,49.2,20.2,39.7,16.1-7.4,5.5-47.2.4-60.3-12.9-32.8-26-41.2-22.3-81.5.3-3.8,7.8-39.6,15.9-31-.2,18.9,4.4,37.9,15.5,53.4,17.3,24.1,47.6,20.3,52.2,57.7,1.2,9.5-1.4,19.4,2.2,28.8-7.9,15.1-25.8,43.3-29.1,57.8-2.7,11.5-1.7,25.1-3.4,36.5-5.6,36.6-22.9,56.2-38.5,87.4-13.2,26.3-21.8,52.4-39,77-1.7,2.5-1.5,5.9-6,4.9h0Z"/>
        <path class="st1" d="M441.9,1157.9c12.7,22.9,26.4-4.8,39.3-13.7,8.1-5.5,18.8-9.7,28.6-8.3,1,7.6-6.9,10.6-10.8,16.1-21.3,30.3-4.8,58.9-44.5,83.3-21.2,13-58.8,16.1-58.5,48.3,17.5-2.9,35-14.2,52.7-3.7,15.2,9-7.5,12.7-13.4,16.1-24.1,13.8-31.6,35.5-50.3,53.6-47.4,46.1-103.1,30.9-160.9,47.9,15.7-11.5,31.4-14.7,47-27.9,9.3-7.8,17.8-21.7,25.9-28,10.3-8,24.9-9.2,36-19.9,17.5-16.8,21.1-44.2,34-57.9,5.1-5.4,16.1-9.7,22.6-17.4,14.4-16.9,14.7-37.2,24.6-53.3,6.8-11,22.5-21.4,27.7-35.2h0Z"/>
        <path class="st1" d="M623.8,1183.9c.4.5,5.7,1.5,8.9,6.1,4.3,6.2,5.1,15.1,10,22,8.1,11.4,22.8,16.3,33.1,24.9,9.4,7.9,14.1,18.4,21.9,26.1,7.3,7.2,18.7,11.6,26.1,17.8,8.9,7.6,13.8,20,22.9,27,17.6,13.6,47.3,12.8,63,32-17.1-1.7-34.4,7.9-51.1,8.1-48.5.5-86.1-43.1-123.8-40-6.8.6-20.3,8.6-19.1-2.9.5-5,17.7-17,22.7-19.4,17.1-8.1,30.5-4.7,48.3-3.6,4.1-7-8.9-13.1-14.4-15.6-30.7-13.9-58.6-3.7-82.1-35.7-7-9.5-11.1-22.7-18.3-31.6-6.2-7.6-18-11-18-21,21.7-5.1,33.6,11,50.2,18.8,15.8,7.4,16.2,1.6,19.8-12.8h0Z"/>
        <path class="st1" d="M965.5,1114c18.1-12.8,32.7-31.4,30-54.9,16.1-1.7,17,27.9,16.1,40-1.5,18.9-13.2,30.4-15.5,46.4-.6,4.3-2.8,27,5.5,21.5,1.5-1,8.1-15,11.1-18.9,8.8-11.5,24.7-22.8,39.8-22.2,3,.1,5.9-1.3,5,3-36.1,32.4-18.1,78.8-41.1,118.7-22.1,38.3-40.2,35.9-70.8,58.1,3-13.7,15.1-23.3,21-36,15.4-33.6,4.5-48.3,3.4-78.9-.9-27.4,10.5-47.6-4.4-76.9h0Z"/>
        <path class="st1" d="M395.9,516.7c-5.4.9-8-2.3-10.9-6.1-26.5-34.4,5.7-61.4-3.1-97.7,8-8.3,25.1,34.7,25.8,41.2,2.4,23.7-14.2,39.4-11.8,62.7Z"/>
        <path class="st1" d="M563.8,1060c-8.3-.2-14.6-10.6-17.6-17.3-10.7-23.4-13.1-41.8-10.1-67.4,1.6-13.3,9-26.7,9.1-38.6,0-6.3-2.6-9.9-6.8-3.1-11.3,18.2-16.3,41.3-17.5,62.4-13.8-9.1-17.4-22.5-25.4-34.6-11.4-17-24.4-31.5-30.1-51.8-1.4-5-4.8-39.8-13.5-34.7-10.1,6-1.1,53.5,3.7,64.4,10.4,24,22.5,21.5,17.9,55-1.4,10.2-21.2,80.3-25.5,86.4-3,4.3-10.4,12.7-13.6,5.5-4.5-10.2-2.2-31.9-6.6-43-.8-2-3.6-1.8-4.5-4-1.5-4.1-.7-12.1-5.4-17.5-7.2-4.9,1.6,30.9,1.8,33.2,2.6,26.5,7.6,73.9-6,97.3-4.8,8.1-16.4,14.8-22.1,23.9-8.8,14-8.7,32.1-17.9,46-8.1,12.2-22.5,16.4-30.5,27.4-12.9,17.8-14.9,44.8-36.4,57.5-6.5,3.8-15.3,4.1-21.7,8.3-11.6,7.5-22.2,27.5-35.1,36.8s-82,44.6-95.3,46.6c-6.1.9-13.4,2-12.5-6.4.4-3.8,36.8-53.9,42.3-63.7,14.3-25,25.7-53.3,38.6-79.3,10.1-20.5,21.7-34.3,28-57.9,5.4-20.1,6.5-48,11.9-66,3.1-10.4,21.2-34.6,27.4-46.5,30.1-57.5,42.3-115.4,66.6-173.1,4.7-11.2,18.5-28.8,20.9-37.1,1-3.4-.3-3-3-3-16.7-.2-27.8,32.3-38.1,43.8-14.3,16-40.8,29.8-62.7,28.2-2.9-2.8,12.8-19.7,15.3-23.7,13-21,16.4-43.5,26.9-65,6.4-13,16.1-24.1,22.1-37.8,6-13.8,7.5-28.1,14.6-41.3,14.3-26.8,44.6-39.4,73-45.9-.5,11.5-17.5,16.6-18,26.9-.2,3.1-.3,3.5,3,3,23.5-15.3,48.4-41.1,74.4-51.5,52.4-20.8,90.7,22,130.6,46.3,16.4,10,38.8,16.8,52.8,27.1,12.1,9,22.3,26,32.9,37,28,28.9,55.4,45,76.3,81.5,11.3,19.6,15.8,42.7,30.6,59.3-.3-15-5.6-34.8-10.5-49.5-16.8-50.5-39.8-60.8-70.5-97.3-1.9-2.2-4.8-3.2-4-7l73.3,35.6c41.8,18.3,47.7,66.2,62.2,103.6,8.6,22,25.2,39.9,34.7,61.2,11.6,26.1,11,51.8,20.1,77.8,6.2,17.6,29.3,49.1,31.4,62.5.9,5.9-.3,12.8,0,18.8l-23-22c-3.1-.5-3.5,0-3,3,.8,5.6,14.3,23.7,17.7,32.2,7.1,17.4,12.2,44.9,10.2,63.6-2.5,24.4-34.6,74.4-59.9,80.9,3.4-5.4,12-19.1,12-24.9v-31c-2.3.3-4.4-1.2-6.2,1.2-6.5,8.7-4.1,27.9-15.9,41.7-29.5,34.6-54,5-82.5-7.3-8.8-3.8-24.9-5.9-31.3-10.7-10.1-7.5-22.1-31.2-22.2-43.9-.1-13.4,6.1-10.9,11-19.1,4.6-7.7,9.4-39.3,1.2-42.8-5.4-2.3-3.6,10.7-4.2,13.8-4,21.3-16.1,36-15.8,57.1-18.1-3.7-24.7-22.1-35.9-33-13.9-13.5-34.3-15.3-39-36.9-4.3-19.6,4-24,8.1-39.9,3.3-12.9,5.8-34.1-3.1-44-.6,23.3-11.3,42.4-18,63.9-3.9,1-3.8-1.6-5.6-3.3-7.1-7.1-10.8-19.1-17.3-26.7-9-10.5-21.1-12-29.4-24.5-5.2-7.8-18.7-43.3-19.6-52.3-2.7-28,13.7-46.2,11.9-72.9l-13.7,23.2c-1.3,3-8.3,20.5-8.3,21.7v33h0ZM519.8,732.4c1.6-1.6-.7-9.4-4-11-13.8-6.7-36.2,9.6-31.8,23.7,3.1,10,15-9,20.3-11.2,5-2,14.9-1,15.5-1.5h0ZM543.8,726.5h-6c-.5,3.7-.1,5.9,3,8h3v-8h0ZM613.6,782.2c1.5-2.2,0-6.6-1.8-8.8-4.1-4.9-46.4-27.3-53.4-28.5-7.8-1.3-21.5-1.6-17.2,9.5,15.6-4.8,62.2,42.4,72.5,27.8h0ZM540.1,778.7c5.4-3.5,18,4.3,20.7,3.7,9.6-2-7.5-17.9-17.6-17.4-11.1.6-22.2,18.7-10.3,21.4,7.9,1.8,4.9-6.3,7.2-7.8h0ZM457.9,772.4c-1.7-13-24.8-4-21.9,6.8,7.5,9.6,12.9-7.5,21.9-6.8ZM385.9,784.4c-.5-.5-12.6-.3-14.9,0-10.6,1.9-19.7,17-13.2,27,5,7.7,7.6-6.6,10.1-10.1,4.1-5.8,22.8-12,18-17h0ZM463.9,838.3c.1-6-4.1-8.2-4.1-14.8,0-6.9,11.4-25.2,1.1-25.2-13,0-25.3,47.5,3,40h0ZM657.2,802.9c-1.2-1.2-10.7-5.4-11.4-4.5-4.3,7.5,9.9,20,15,19.9,5.2-.1-2.4-14.2-3.5-15.4h0ZM589.3,816.9c-2.3-2.1-6.4-2.7-9.5-2.5-1.6,8.2,3.3,15.1,11,18,5.6-1.2,1-13.2-1.5-15.4h0ZM395.9,856.3c2.1-5.5-4.9-10.5-3.8-14.6.4-1.5,22.3-16.1,6.8-17.5-20.4-1.8-28.2,33.7-3,32ZM427.9,842.3c-9.8,5-2.5,34,7,32,10.1-2.2-9.8-25.6-7-32ZM501.8,844.3c-10.6.1-19.8,15.2-20.1,25-.4,13.9,9.8,18.1,11.7,26.3,1.9,8.2-3.6,30.7,7.4,32.6,6.4,1.1.9-9.8,1-13,.4-7.1,4.6-17.3,4-23.8-.8-7.7-10.4-13-10.1-24,.2-8.2,7.1-14.6,6.1-23h0ZM722.1,865.8c-1.2-1.2-2.2-9.4-5.6-13.4-5.6-6.5-23.4-13.8-24.8-.2,15.2-2.8,17.7,14.3,24.9,20,3.8,3,9.1,2.6,13.1,6.9,7.6,8.3,1,24.6,5.8,28.1,7,5.2,7.9-6.1,8.2-12,.6-10.5-.2-20.1-10.2-25.9-3.4-1.9-10.2-2.5-11.4-3.6h0ZM549.8,858.3c-2.2,1.8-3.3,19.7,5,18,6.6-1.4,2.9-24.3-5-18ZM795.6,858.3c-3.5-3.5-10.2,3.2-3,6,4.2,1.6,3.5-5.4,3-6ZM815.6,874.3c.4,3.9-1.1,13.5.3,15.7,3.6,5.8,23.4-2.3-.3-15.7-1.1-10.3-4.6-15.5-16-14,.8,9.3,10.5,10.9,16,14ZM336,864.3c-8.5-7.8-29.2,29.2-20.1,37.1,9.6,2.8,19.1.4,18.1-11.1-3.4-.8-10.8,2.6-10-3s15-20.2,12-23h0ZM849.6,1066c1.3-1.2-7.6-17.2-9.1-19.8-6.3-10.5-16.1-18-21.2-26.7-6.7-11.2-9-28.3-15.2-40.7-20-40.4-57.5-38.2-80-67.9-12.2-16-20-45.3-44.3-42.6l17.6,25.3c8.1,22.6,19.3,39.2,38.9,53,31.6,22.2,45,22,65.8,60.1,12.2,22.3,18.7,51,47.6,59.3h0ZM657.7,932.2c13.2-5.2,10.2-18.6,3-28-4.8-6.4-25.5-22.1-20.7-5.3,1.5,5.1,10.4,7.5,13.4,12.6,3.2,5.3,4.1,14.5,4.2,20.7h0ZM527.8,910.2c-11.2-1.6-7.6,10.1-8,18,9.7-.6,8.3-10.7,8-18ZM591.8,914.2c-12.8-2.5-16.1,29.9-6.9,31.9,9.3,2,6.8-27.4,6.9-31.9ZM863.5,994c.4-.4,1.4-8.9,1.4-10.6-.7-19.8-16.5-28-26.1-41.4-1.2-1.6-10.9-24.6-15.1-19.8-1.7,21.8,18.8,37.6,26.8,54.1,1.8,3.6,4.6,17,5.5,17.5,1,.7,7.2.6,7.6.2h0ZM427.9,932.2c-5.9-1.4-5.5,5.2-4.7,9.5,1.5,7.9,6,16.3,8.5,22,3,6.7,9.7,14.9,10.2,21.6.4,6-13,43.3,2.9,38.6,6.8-2,10.2-39.3,9.1-46.7-2.3-14.5-21.1-30.7-25.9-45h0ZM334,1062c-10.2-2.1-24,13.4-29.9,21-4.5,5.8-16.6,27.1-4.8,30.8,2.8.9,23.4-9,20.8-15.9,34.6-8.8,34.1-48.6,42.5-74.4,5.6-17.1,37.7-71.9,25.7-88.3-1.4-1.9-6.8-1.8-8.9-1.2-2.6.7-15.3,42.8-18.4,50-4.6,10.8-15.6,25.6-18,36-3.5,15.4-.7,25.8-9,42h0ZM776.2,993.6c-7.2-7.2-3.4-21.2-23.5-17.4-15.3,2.9,5.5,9.3,7.1,10.8,3.6,3.6,3.9,11.5,7.8,16.2s10.6,4.9,13,9c3,5,1.6,14.8,4.9,19.1,10.9,14.2,15.8-19.6,3.2-31.2-3.6-3.3-10.2-4.2-12.5-6.5h0ZM649.7,1006.1c-11.5-1-12.4,13.2-12,22,11.9.5,12.8-12.7,12-22ZM899.5,1124c2.2-12.1-2.1-22.1-3.8-33.2-1.4-9.4.7-14-3.8-24.1-2.2-5-29.8-38.3-34.2-41.8-2.4-1.9-8.4-4.6-10.1-2.8-5,5,29.7,46.7,32.4,54.5,4,11.3,5.7,36.6,13.4,46.2,1.8,2.3,3.8,1.1,6.1,1.2h0ZM618.8,1032.1c-6.8,1.4-18.3,40.3-16.9,48.8,1.7,10.4,30.9,36.1,29.9,18.3-.6-9.3-15-14.5-16-24.3-.6-6.1,15-45.3,3-42.8h0ZM699.7,1052c-7.5,8.7-3.2,37.1,10.5,33.7,14.8-3.7-2.6-13.8-3.5-15.7-2.6-5-.2-15-7-17.9ZM797.6,1080c3.7-3,6.4-26.8-3.9-20-3.5,2.3-2.8,25.3,3.9,20ZM386.2,1147.6c2.6,1.6,8.4.4,9.5-3,1.2-3.7,4.5-32.9,4.4-37.7-.1-7.9-8.4-42-19.1-39-7.4,2.1,4.4,21.9,5.1,28.9,1.5,14.8-5.2,26.6-4.2,38.1.2,2.2,3.4,12.1,4.4,12.7h0ZM845.6,1104c-1.1,1.1,5.5,28.3,13,25.9,11.2-3.6-4.7-34.1-13-25.9ZM304,1124c-26.6-2.2-23.9,25-28.9,42-6.4,21.9-16,43-19,65.8,4.2.7,5.6-2.6,7.6-5.3,8.1-10.8,16.4-27.7,20.4-40.6l3.9,2c0-2.9-1.8-5.4-1.5-8.5.6-6.5,7.3-31.9,10-38,2.4-5.5,9.7-9.1,7.5-17.4h0ZM357.7,1126.2c-11-6.8-2.2,19.4-1.8,24.7,1.8,22.7-8.6,41.5-5.9,62.9,8.9,6.1,15.4-25.5,15.9-31,.9-9-1.5-52.4-8.2-56.6h0ZM821.6,1167.9c-.1-6.1-7.3-8.2-9.1-13.9-3.3-10.4,4.6-29.9-12.9-28.1,4.9,17.8-10.4,49.2,22,41.9h0ZM703.7,1127.9c-3.2-3-3.4.7-4.2,2.8-2.3,6.2-.9,12.2-2.2,17.8-1.5,6-7.1,12.6-9.1,18.9-3.1,9.9-6.5,32.1,8.9,32.1,12.9,0,.7-11.9.4-16.6-.5-7.5,6.9-17.8,8-26.2.6-4.8.8-26.3-1.9-28.8h0ZM769.6,1128c-9.2-6.1-12.5,23.8-2.9,26,11.8,2.7,5-24.6,2.9-26ZM895.6,1221.8c16.2-3.9,31.8-19.6,24.5-37.4-1.5-3.7-6.2-6.2-8.2-9.8-2.5-4.4-6.1-17.1-9.3-18.6-4.9-2.4-3.1,14.7-2.8,16.8,1.4,9.3,9.5,14.6,7.8,24.1-1,5.8-13.8,16.3-12,25.1h0ZM224.1,1341.7c12.5-.2,25-10.8,32.8-20.1,5.2-6.3,19.1-33.2,23.1-34.9,2-.9,4.2,2.7,7.1,3.1,31.7,4.6,34.6-50.4,40.8-70.9.9-2.9,18.6-39.1,7.1-38.8-6.2.1-26.4,70.6-30.4,79.4-3.7,8.3-8.1,16.9-18.6,16.4v-18c-4.6-5-16.6,23.8-18.4,26.6-4.6,7.3-10.2,15.8-15.7,22.3-4.8,5.7-34.4,28.7-27.9,35h0ZM869.6,1179.9c-5.5-3.9-7.4,14.5-8.9,18-1.6,3.8-10.8,11.8-4.8,15.7,16,10.2,19.5-29.5,13.7-33.7ZM789.6,1247.8c2.7-33.6-16.7-1.6-8.2,9.2,9.7,12.2,33.8-16.8,8.2-9.2ZM925,1257.2c6.5-6.3,6.3-20-3.4-23.4.7,6.1-7.3,18.3-5.9,22.8s6.8,3,9.4.6h0ZM250,1245.8c-9.2-.2-24.7,26.9-20,31.9,10.1,3.8,21.6-30.2,20-31.9ZM869.6,1255.8c-5.7-5.5-12.3,16.4-18,18.9-6.9,3.1-21.3-3.2-20.1,8,1.5,13.4,32.4,5.5,37.2-10.9.8-2.8,1.7-15.3.9-16.1h0Z"/>
        <path class="st0" d="M224.1,1341.7c-6.5-6.3,23.1-29.3,27.9-35,5.5-6.5,11.1-15,15.7-22.3,1.8-2.8,13.8-31.6,18.4-26.6v18c10.5.6,14.9-8.1,18.6-16.4,3.9-8.9,24.2-79.3,30.4-79.4,11.5-.2-6.2,35.9-7.1,38.8-6.2,20.6-9.1,75.5-40.8,70.9-2.8-.4-5.1-3.9-7.1-3.1-4,1.7-17.9,28.7-23.1,34.9-7.8,9.3-20.3,19.9-32.8,20.1h0Z"/>
        <path class="st0" d="M899.5,1124c-2.4-.2-4.3,1.1-6.1-1.2-7.7-9.6-9.4-34.9-13.4-46.2-2.8-7.8-37.5-49.5-32.4-54.5,1.8-1.7,7.8.9,10.1,2.8,4.4,3.5,31.9,36.8,34.2,41.8,4.6,10.1,2.4,14.7,3.8,24.1,1.7,11,6,21.1,3.8,33.2h0Z"/>
        <path class="st0" d="M427.9,932.2c4.8,14.3,23.6,30.6,25.9,45,1.2,7.4-2.2,44.7-9.1,46.7-15.9,4.7-2.4-32.6-2.9-38.6-.5-6.7-7.2-14.9-10.2-21.6-2.5-5.7-7.1-14.1-8.5-22-.8-4.3-1.1-10.9,4.7-9.5h0Z"/>
        <path class="st0" d="M386.2,1147.6c-.9-.6-4.2-10.5-4.4-12.7-1-11.5,5.7-23.3,4.2-38.1-.7-6.9-12.4-26.8-5.1-28.9,10.8-3,19,31.1,19.1,39,0,4.7-3.3,33.9-4.4,37.7-1.1,3.4-6.8,4.6-9.5,3h0Z"/>
        <path class="st0" d="M618.8,1032.1c12-2.5-3.6,36.7-3,42.8,1,9.8,15.4,15,16,24.3,1.1,17.8-28.2-7.8-29.9-18.2-1.4-8.5,10.1-47.4,16.9-48.8h0Z"/>
        <path class="st0" d="M501.8,844.3c1,8.5-5.9,14.9-6.1,23-.3,11.1,9.3,16.4,10.1,24,.6,6.5-3.6,16.7-4,23.8-.2,3.2,5.4,14.1-1,13-11-1.9-5.5-24.4-7.4-32.6-1.9-8.2-12.1-12.4-11.7-26.3.3-9.8,9.4-24.9,20.1-25h0Z"/>
        <path class="st0" d="M776.2,993.6c2.3,2.3,8.9,3.2,12.5,6.5,12.6,11.5,7.7,45.3-3.2,31.2-3.3-4.3-1.9-14-4.9-19.1-2.4-4.1-9-4.2-13-9s-4.2-12.6-7.8-16.2c-1.6-1.6-22.5-8-7.1-10.8,20.1-3.8,16.3,10.3,23.5,17.4h0Z"/>
        <path class="st0" d="M357.7,1126.2c6.7,4.2,9.1,47.7,8.2,56.6-.5,5.5-7,37.1-15.9,31-2.6-21.4,7.7-40.2,5.9-62.9-.4-5.3-9.3-31.6,1.8-24.7h0Z"/>
        <path class="st0" d="M863.5,994c-.4.4-6.6.5-7.6-.2-.8-.6-3.7-13.9-5.5-17.5-8-16.5-28.5-32.3-26.8-54.1,4.2-4.7,13.9,18.2,15.1,19.8,9.6,13.4,25.4,21.6,26.1,41.4,0,1.7-1,10.2-1.4,10.6h0Z"/>
        <path class="st0" d="M722.1,865.8c1.2,1.1,8,1.7,11.4,3.6,10,5.8,10.8,15.4,10.2,25.9-.3,5.9-1.1,17.2-8.2,12-4.8-3.5,1.8-19.8-5.8-28.1-4-4.3-9.3-3.9-13.1-6.9-7.2-5.7-9.7-22.8-24.9-20,1.4-13.7,19.2-6.4,24.8.2,3.4,4,4.4,12.2,5.6,13.4h0Z"/>
        <path class="st0" d="M895.6,1221.8c-1.8-8.7,11-19.2,12-25.1,1.6-9.5-6.4-14.7-7.8-24.1-.3-2.1-2.1-19.2,2.8-16.8,3.2,1.6,6.9,14.3,9.3,18.6,2,3.6,6.6,6.1,8.2,9.8,7.4,17.8-8.3,33.5-24.5,37.4h0Z"/>
        <path class="st0" d="M703.7,1127.9c2.6,2.5,2.5,24,1.9,28.8-1.1,8.4-8.5,18.6-8,26.2.3,4.6,12.5,16.5-.4,16.6-15.4,0-12-22.2-8.9-32.1,2-6.3,7.6-12.8,9.1-18.9,1.3-5.5,0-11.6,2.2-17.8.8-2.1,1-5.7,4.2-2.8h0Z"/>
        <path class="st0" d="M334,1062c-6.2,12.2-18.9,17.2-23.1,29.9-3.2,9.5,3.3,7.6,9.1,6.1,2.7,6.8-17.9,16.7-20.8,15.9-11.8-3.7.3-25,4.8-30.8,5.9-7.7,19.7-23.1,29.9-21Z"/>
        <path class="st0" d="M869.6,1255.8c.8.8,0,13.3-.9,16.1-4.8,16.4-35.7,24.3-37.2,10.9-1.2-11.2,13.2-4.9,20.1-8,5.7-2.5,12.3-24.5,18-18.9h0Z"/>
        <path class="st0" d="M821.6,1167.9c-32.3,7.2-17.1-24.1-22-41.9,17.5-1.9,9.6,17.7,12.9,28.1,1.8,5.7,9,7.7,9.1,13.9h0Z"/>
        <path class="st0" d="M463.9,838.3c-28.3,7.5-16-40-3-40,10.3,0-1.1,18.3-1.1,25.2,0,6.7,4.2,8.8,4.1,14.8h0Z"/>
        <path class="st0" d="M519.8,732.4c-.5.5-10.5-.5-15.5,1.5-5.3,2.1-17.1,21.1-20.3,11.2-4.4-14,17.9-30.4,31.8-23.7,3.3,1.6,5.6,9.4,4,11h0Z"/>
        <path class="st0" d="M336,864.3c3,2.8-11.2,17.2-12,23s6.6,2.2,10,3c1,11.5-8.5,13.9-18.1,11.1-9.1-7.9,11.6-44.9,20.1-37.1h0Z"/>
        <path class="st0" d="M657.7,932.2c0-6.2-1-15.4-4.2-20.7-3-5.1-12-7.5-13.4-12.6-4.8-16.8,15.9-1.1,20.7,5.3,7.1,9.4,10.1,22.8-3,28h0Z"/>
        <path class="st0" d="M540.1,778.7c-2.3,1.5.6,9.6-7.2,7.8-12-2.7-.8-20.9,10.3-21.4,10.2-.5,27.3,15.5,17.6,17.4-2.7.5-15.2-7.2-20.7-3.7h0Z"/>
        <path class="st0" d="M395.9,856.3c-25.2,1.7-17.4-33.8,3-32,15.5,1.3-6.4,15.9-6.8,17.5-1,4.1,5.9,9.1,3.8,14.6Z"/>
        <path class="st0" d="M385.9,784.4c4.7,4.9-14,11.2-18,17-2.5,3.5-5,17.8-10.1,10.1-6.6-10,2.6-25,13.2-27,2.3-.4,14.4-.6,14.9,0h0Z"/>
        <path class="st0" d="M869.6,1179.9c5.8,4.2,2.3,43.9-13.7,33.7-6.1-3.9,3.1-11.9,4.8-15.7,1.5-3.5,3.5-21.9,8.9-18Z"/>
        <path class="st0" d="M699.7,1052c6.8,2.9,4.4,13,7,17.9,1,1.9,18.3,12.1,3.5,15.7-13.7,3.4-18-25-10.5-33.7Z"/>
        <path class="st0" d="M789.6,1247.8c25.7-7.6,1.5,21.4-8.2,9.2-8.5-10.8,10.8-42.8,8.2-9.2Z"/>
        <path class="st0" d="M591.8,914.2c0,4.6,2.4,34-6.9,31.9-9.2-2-5.9-34.5,6.9-31.9Z"/>
        <path class="st0" d="M845.6,1104c8.2-8.2,24.1,22.4,13,25.9-7.4,2.4-14.1-24.8-13-25.9Z"/>
        <path class="st0" d="M769.6,1128c2.1,1.4,8.9,28.7-2.9,26-9.6-2.2-6.3-32.1,2.9-26Z"/>
        <path class="st0" d="M427.9,842.3c-2.9,6.3,17,29.8,7,32-9.5,2-16.8-27-7-32Z"/>
        <path class="st0" d="M925,1257.2c-2.5,2.4-8.1,3.8-9.4-.6s6.6-16.7,5.9-22.8c9.8,3.4,10,17.1,3.4,23.4h0Z"/>
        <path class="st0" d="M457.9,772.4c-9-.7-14.4,16.4-21.9,6.8-2.9-10.8,20.2-19.8,21.9-6.8Z"/>
        <path class="st0" d="M649.7,1006.1c.9,9.3,0,22.5-12,22-.4-8.7.5-22.9,12-22Z"/>
        <path class="st0" d="M657.2,802.9c1.1,1.2,8.8,15.3,3.5,15.4-5.1.1-19.3-12.4-15-19.9.8-.9,10.3,3.3,11.4,4.5h0Z"/>
        <path class="st0" d="M589.3,816.9c2.5,2.3,7.1,14.2,1.5,15.4-7.7-2.8-12.6-9.7-11-18,3.1-.1,7.1.4,9.5,2.5h0Z"/>
        <path class="st0" d="M797.6,1080c-6.8,5.4-7.4-17.7-3.9-20,10.4-6.9,7.7,17,3.9,20Z"/>
        <path class="st0" d="M815.6,874.3c23.7,13.4,3.9,21.4.3,15.7-1.3-2.1.1-11.7-.3-15.7-5.5-3.1-15.1-4.7-16-14,11.4-1.5,14.9,3.7,16,14Z"/>
        <path class="st0" d="M549.8,858.3c7.8-6.4,11.6,16.6,5,18-8.2,1.7-7.2-16.1-5-18Z"/>
        <path class="st0" d="M527.8,910.2c.3,7.2,1.7,17.4-8,18,.4-7.9-3.2-19.5,8-18Z"/>
        <path class="st0" d="M543.8,726.5v8h-3c-3.1-2.1-3.5-4.3-3-8h6,0Z"/>
        <path class="st0" d="M795.6,858.3c.6.6,1.3,7.6-3,6-7.2-2.8-.5-9.4,3-6Z"/>
      </g>
      <g>
        <path class="st0" d="M917.5,219.1c22.1,12,41.9,52.7,48.6,76.3,5.9,21,7.7,46.1,15.4,67.5,2.4,2.2,20.7-15.5,24-18,48.6-36.3,153.1-110.8,215.8-90.9,43.4,13.8,44.2,58.5,43.9,96,0,2.6,2.1,4.6,2.1,4.8-.2,20-9.4,39.8-12,59.9-5.5,18-12.6,44.1-14.1,62.9-1,12.1,2.2,23,2.2,33.9,0,15.9-3.8,32.5-2.1,48.1,1,9.5,5.6,18.2,6,29,.8,19-5.8,62.1-16,77.9-14.8,22.9-53.4,37.3-77.9,46.9,24.9,11,61.9,11.1,84.6,27.3,4.4,3.1,35.8,39,39.3,44.6,10.1,15.8,6.9,24.5,10.9,41.1,2.2,9.1,7.2,17.3,9.6,26.3,5.3,20.2-4.3,45.9-8.6,67.5-7.8,40-6.8,29.7-29.9,59-16.2,20.5-20.6,40-44.7,53.2-29.4,16.1-59.2,34.5-92.8,41-45,8.8-97.2-30.9-133-55.7-13.4-9.3-26.5-19.6-39.3-29.6,8.6,22.5,34.8,77.2-12,67.9.6,12.6,7.1,24.9,12.9,36,3.9,7.4,12.2,16.4,15,21.9,14.9,29.3,3.5,49.5,4.4,76.9,1,30.6,12,45.3-3.4,78.9-5.8,12.7-18,22.3-21,36-22.2,16.1-26.8,37.5-61.8,43.1-34.1,5.4-46.7-6.4-74-9.1-15.7-19.2-45.3-18.4-63-32-9.2-7-14.1-19.4-22.9-27-7.4-6.3-18.8-10.7-26.1-17.8-7.8-7.7-12.5-18.2-21.9-26.1-10.3-8.6-25-13.4-33.1-24.9-4.9-6.8-5.7-15.8-10-22-3.2-4.6-8.5-5.6-8.9-6.1-6.8-8.3-11.5-21.2-19-30-11.8-13.8-27.2-15.2-36.1-31.8-4.9-9.1-6.4-20.7-12.9-29.1s-19-12.7-26.8-23.2c-9.7-12.9-8.7-24.2-14.8-37.1-1.5-3.2-13.2-19.7-15.4-20.6-3.7-1.6-3,2.3-3.5,4.4-6.4,22.1-12.2,61.9-24.5,79.4-5.3,7.6-16.1,13.4-19.9,22.1-4.9,11.3-4.7,28.7-9,40-5.2,13.8-20.9,24.2-27.7,35.2-9.9,16.1-10.2,36.4-24.6,53.3-6.5,7.7-17.5,11.9-22.6,17.4-12.9,13.7-16.5,41.1-34,57.9-11.2,10.7-25.7,11.9-36,19.9-8.2,6.3-16.7,20.2-25.9,28-15.6,13.2-31.4,16.4-47,27.9-11.3,3.3-23.9,13.9-36,18.9-19.7,8.2-49.6,18.7-66.9,1-26.8-27.2,19.7-60.4,25-83.9,4.5,1,4.2-2.5,6-4.9,17.1-24.6,25.8-50.7,39-77,15.6-31.2,32.8-50.8,38.5-87.4,1.8-11.4.8-25,3.4-36.5,3.3-14.5,21.2-42.7,29.1-57.8,5-9.6,11.5-18,16.3-28.6,11.5-25.3,19.1-52.5,29.6-78.3-9.9-2.3-20.6,3.2-30.6,2.9-8.6-.2-36.2-4.2-38.9-13.2-6.5-21.8,23.5-43.4,33.2-61.9,4.3-8.2,5.3-17.5,8.3-24.6,10.2-23.9,24.9-46.3,34.3-68.6,11.4-26.9,10.3-45.2,34.7-67.2,30.9-27.8,63.5-29.3,99.9-41.9,41.4-14.4,48.5-27.8,96.9-13.1,32.3,9.9,49.1,27.9,75.9,45,19,12.1,39.1,18.4,57.3,29.6,13.4,8.3,23.4,21.5,40.6,22.3-3.4-6.5-1.9-16.2-4.5-22.5-3.2-7.6-22.6-7.6-28-24-4.1-12.6,2.7-30.7,1.5-33.4-1.3-3-19-15.2-23.1-19-34.9-32.5-72.3-77.3-85.9-123.8-1.9-6.5-9.8-37.8,2.7-36.7,15.5,1.4,9.7,29.8,12.3,39.7,9.1,35.7,56.7,92.6,83.9,117.8,3.5,3.2,21.5,19.2,25,15.9-8.8-21.2-23-40-31.5-61.4-13.6-34.1-27.4-97.4-17.9-132.8,5.9-21.6,21-16.5,19.3,1.2-.9,9.1-8.7,16.1-9.8,22.3-4.2,22.7,8.2,74.7,16.4,97.3,2.9,8,30.6,67.1,33.9,69,2.7,1.5,8.7-.2,12.5.5,11.5,2.2,19.3,16.3,24.1,25.9,2.1-15.1-4.5-30-6.7-45.2-5.7-39.2-7.5-78.9-6.3-118.6,2.6-86.8,18.2-177.2,65.1-251.5,20.2-32.1,70.3-98.2,114.8-74.1h0ZM892.2,232.6c0-2.3-1.9-4.2-4.2-4.2s-4.2,1.9-4.2,4.2,1.9,4.2,4.2,4.2,4.2-1.9,4.2-4.2ZM900.6,233.1c-4.5,1.2-3.3,9.7,0,9.9,6.9.4,10-12.6,0-9.9ZM863,249.4c-11.7,2.4-13.8,21,2,14.1,9.3-4.1,9.4-16.4-2-14.1ZM929.5,249.1c-8.1-1.4-14.1,3.6-7,10l7-10ZM896.5,253.8c-8.7,0-14.5,15.5,0,13.3,9.8-1.5,8.6-13.4,0-13.3ZM833.6,275c6.1,2.2,16.3-16.4,9-15.9-2.2.1-11.8,11.6-9,15.9h0ZM1209.3,269.1c-.6-.8-7.1-1.4-8.7-.1-6.3,12.4,12.9,5.7,8.7.1ZM829.6,329c3,.7,4.7-.7,7.1-1.9,6.7-3.3,47.7-34.3,50.3-39.6,7.8-15.5-6.7-15.4-17.9-11.9-18.9,5.9-41.2,33.1-39.5,53.3ZM916.8,279.3c-6.1,2-4.5,14.3,3.8,15.7,18.5,3.1,12.5-21.2-3.8-15.7ZM945.5,279.1h-4v8c4-1.1,4.5-4.2,4-8h0ZM1145.4,295c2.6,3,31.5,5.5,25.8-10.7-4.4-12.5-32.9,2.4-25.8,10.7ZM1211.3,281.1c-.4,3.4-.4,6.5,3.3,7.7,14.7,4.7,14.9-16-3.3-7.7ZM1133.4,283c-5.8-3.2-27.1,10.7-22,16,2.4,2.5,25.8-7.2,22-16ZM1206.8,312.5c10.8-10.7-13.5-19.4-18.5-9.5-5.7,11.2,12.5,15.4,18.5,9.5ZM893,303.5c-9.4,1.6-36.9,20.4-41.6,28.4-4.1,7,2,17.9,10.9,17s47.8-28,48.7-37.2c1-10.2-11.1-9.4-18.1-8.2h0ZM1245.3,313c.4-3.4.4-6.5-3.3-7.7-14.7-4.7-14.9,16,3.3,7.7ZM955.5,309c-5.8-5-11.9,11-4.9,14,8.4,3.6,6.2-12.9,4.9-14ZM1077.4,354.9c4.2.1,8.3.2,12.5-.5,15.2-2.6,56.9-12.3,70.5-17.4,20.2-7.7,25.8-23.5,0-26-27.9-2.7-72,17.2-83,43.9h0ZM937.3,315.2c-6.2-4.2-15.2,6.3-11.5,13.5,13.5,9.9,17.5-9.6,11.5-13.5ZM949.5,333c-1.4,1.4-.8,14.2,7,12,8.9-2.6-1.3-17.6-7-12ZM1224.8,354.5c14.5-14.6-20.8-28.3-19.7-6.5.4,9.1,14.9,11.3,19.7,6.5ZM819.4,339.3c-9.2-5.6-17.5,17.1-15.4,24.2,1.1,3.9,6.2,7.4,9.8,4.2.6-.6,9.3-13.4,9.5-14.2.7-2.9-2.5-13.3-3.9-14.2h0ZM927.5,343c-2.5-3-12.3,9.1-5,12,7.8,3,4.4-7.9,5-12ZM872.3,361.6c-6.2,7-5,11.6,2.2,17.3,18,14.1,43.9-11.3,31.2-27.1-8.7-10.8-26.8,2.4-33.4,9.8ZM1241.3,354.9c3.3,3.3,12.7-5.1,5-8-6.9-2.6-5.8,7.1-5,8ZM833,353.3c-9,2.7-25.2,29.7-4.2,31.6,23,2.1,24.7-37.7,4.2-31.6ZM1097.4,390.9c17.9-.1,79.9-6.9,90.1-20.9,2.8-3.8-1-12.6-5.7-14.5-18-7.5-61,.6-77.1,11.8-10.5,7.3-4.6,12.1-7.3,23.6ZM1027.6,392.7c5,3.5,44.6-19.3,29-32-11.6-9.5-39.9,24.3-29,32ZM964.5,361c-4.5.1-7.8,14.8-2,15.9,7.1,1.4,6-16,2-15.9ZM945,382.4c14.3-14-25.2-34.3-15.2,2.2,2.4,1.5,13,0,15.2-2.2ZM779.9,394.6c7.9,12.4,21.2-21.1,8.7-27.6-6.7-1.5-11.5,23.3-8.7,27.6ZM998.9,381.2c-5.7.9-19.3,16.4-20.6,21.6-.6,2.2,3.7,6.5,5.3,7.2,10.5,4.4,33.8-31.7,15.3-28.8h0ZM1052.7,390.1c-8.6,5-23.3,9.3-17,21.4,4.1,7.9,10.4,8.1,18.5,7.1,36.6-4.5,33.2-49.6.7-31.7-1.2.7-1.6,2.8-2.2,3.2h0ZM1219.6,392.5c0-5.5-4.4-9.9-9.9-9.9s-9.9,4.4-9.9,9.9,4.4,9.9,9.9,9.9,9.9-4.4,9.9-9.9ZM1234.5,387.1c-6.2,2-3.3,13.5,1.8,15.8,7.8-4.3,10.3-19.8-1.8-15.8ZM929.5,398.9c-5.7-.1-9.5,5.6-15.1,5.9-7.9.4-10.8-3.8-22,0-15.6,5.2-47.6,41.4-50.4,57.5-2.4,14,3.2,26.7,3.5,40.5l28-20.9c10.7-13.2,45.3-35.5,47.6-52.5.8-5.9-2.4-10.9-1.4-15s11-9,9.7-15.4h0ZM1102,428.3c2.7,3.3,14.9,11,19.3,11.8,7.5,1.2,26.3-5,31-11.2,8.9-11.8,5.5-26.1-10.4-27.5-11.4-1-54,9.6-39.9,26.9h0ZM946,401.4l-8.9,9,2.1,2,8.9-9-2.1-2ZM1180.7,403.2c-14.4,1.4-16.4,22-.8,17.3,7.7-2.3,7.4-18,.8-17.3ZM843.4,411.1c-12.4-7.6-33.1,24.3-23.9,30.9,11.5,8.2,32.5-25.6,23.9-30.9ZM1234,419.6c0-4.1-3.3-7.4-7.4-7.4s-7.4,3.3-7.4,7.4,3.3,7.4,7.4,7.4,7.4-3.3,7.4-7.4ZM797,417.1c-7.4,2.1-14.9,30.1-4.4,31.8,15.9,2.6,22.2-36.8,4.4-31.8ZM768.7,426.9c-6.5,4.2-10.5,33.9-4,35.9,10.6,3.3,12.6-37.9,4-35.9ZM987,435.1c-7.7,1.2-25.4,19.4-27.1,27.2-5.1,23.2,35.5,2.9,37.5-12.6.9-6.8-3-15.7-10.5-14.6h0ZM919.7,478.6c8.3,5.8,33.1-28.8,31.9-36.7-1.2-8.3-9.2-3.5-14,0-5.5,4.1-24.9,31.8-18,36.7h0ZM1180.8,441.3c-13.1,3-16.6,20-2,23.1,21.9,4.7,27.1-28.9,2-23.1ZM1033,447.2c-21.2,2.9-58.2,39.2-13,29,23.1-5.2,39.1-32.6,13-29ZM1227.3,448.8c-9.9-.6-14.1,9.8-9.8,17.9,7,4.6,11.2-13.4,9.8-17.9ZM779.6,722.5c8.9-28.1,15.9-57.3,25.9-85,5.7-15.6,15.7-30.5,19.5-46.4,10.7-44.6,4.7-81,6.1-123.9.4-11.6-14.1-1.8-20.2,2-13,8.1-22.8,19-28.9,33.1-24.6,56.5-18.6,152.9-5.8,212.6.5,2.3.3,8,3.3,7.6h0ZM1153.4,476.8c-15.8,5-22.5-6.7-33.9-9.1-26.8-5.7-89.2,19.3-104.9,41.2-3.4,4.7-23,47.9-21.1,49.8,32.7-12.3,68.2-21.5,100.5-34.4,11.4-4.6,29.6-11.2,36.3-21.6,3-4.6,3.5-11.5,7-15,5-5.2,15.9-2.6,16.1-10.9h0ZM1219,487c-1-1.6-11-4.6-13.6-2.1-3.8,21.9,20,12.2,13.6,2.1ZM878.2,493.4c.5-.8,9.1-4.6,5.3-8.6-1.6-1.7-31.9,26-34.4,30.5-6.2,11.2-7.1,30.6-7.6,43.4,5.1-4.6,8.8-12.5,12.3-18.6,8.7-15.2,15.8-31.4,24.3-46.7h0ZM1180.8,502.2c8.4-9.2-5.3-19.5-16.5-9.5-15.6,13.8,7.8,18.9,16.5,9.5ZM1001.5,498.8c-34.2,2.4-62.2,10-88.9,32-46.1,38-94.9,148.4-109.5,206.2-1,4-5.3,16.8-1.5,19.5,4.7,3.3,32.3-23.9,37.2-28.7,56.3-54,106.3-108.2,139.6-179,7.8-16.6,15.8-33.1,22.9-50h0ZM759.6,528.7c3.1-4.2,6.7-22-1-21.9-4.2,0-8,20.1,1,21.9ZM891.5,520.7c-5.1-5.3-17.5,16.7-14,22,9.2,2.2,18.2-17.7,14-22ZM1186.8,521.1c-6.9,2.1-9.9,18.5,1.5,19.7,18.1,2,17.4-25.4-1.5-19.7ZM1148.7,533.4c-19.4-16.6-59.5,6.7-81.7,13.8-25.6,8.2-52.3,14.3-76.9,25l-50.5,68.3c55.4-17.2,113.2-26.8,169.5-41.3,10.1-2.6,23.5-4.7,32.4-9.5,22.2-12,27-39.4,7.2-56.3h0ZM1223.3,528.7c-7.1,3.4-11.8,11.8-4.9,18,7,1.5,4.9-14.5,4.9-18ZM1213.3,570.7c-1,1-.5,13.3,5,12,7.7-1.8.3-17.2-5-12ZM1187.6,588.4c8.8,5.5,18.8-8.4,9.8-14.9-8.1-5.8-16.8,10.5-9.8,14.9ZM813.6,766.4c3.5.4,6.6,0,10-1,27.5-7.3,58.2-21,86.4-29.5,57.4-17.4,115.6-31.6,173.5-46.3,30.8-7.8,86.2-15.5,99.3-46.6,6.4-15.2-5.5-39.2-22-39.8-13.3-.5-50,9.1-65.5,12.3-32.5,6.7-65.6,14.2-97.9,22-17.5,4.2-53.4,11.1-68,18-10,4.7-14.9,15-21.9,22-30.4,30.7-60.6,61.4-94,88.8h0ZM1221.1,628.8c-8.3-5.2-19.8,9.6-13.5,17.5,8.7,4.3,20-13.5,13.5-17.5ZM563.8,1060v-33c0-1.2,7-18.7,8.3-21.7l13.7-23.2c1.8,26.7-14.6,44.9-11.9,72.9.9,9,14.4,44.5,19.6,52.3,8.3,12.6,20.4,14,29.4,24.5,6.5,7.5,10.2,19.5,17.3,26.7s1.8,4.3,5.6,3.3c6.8-21.5,17.4-40.6,18-63.9,8.9,9.9,6.4,31.1,3.1,44-4.1,15.9-12.4,20.3-8.1,39.9,4.7,21.6,25.1,23.3,39,36.9,11.2,10.9,17.8,29.3,35.9,33-.3-21.1,11.8-35.8,15.8-57.1.6-3.1-1.2-16.1,4.2-13.8,8.3,3.5,3.5,35.1-1.2,42.8-4.9,8.2-11.1,5.7-11,19.1.1,12.7,12.1,36.4,22.2,43.9,6.4,4.8,22.5,6.9,31.3,10.7,28.5,12.3,53,41.8,82.5,7.3,11.8-13.8,9.4-33,15.9-41.7,1.7-2.3,3.9-.9,6.2-1.2v31c0,5.9-8.6,19.5-12,24.9,25.4-6.4,57.4-56.5,59.9-80.9,1.9-18.7-3.2-46.2-10.2-63.6-3.5-8.5-16.9-26.6-17.7-32.2-.5-3.1,0-3.5,3-3l23,22c-.4-6.1.8-12.9,0-18.8-2.1-13.4-25.2-44.9-31.4-62.5-9.2-26-8.5-51.7-20.1-77.8-9.5-21.3-26.1-39.3-34.7-61.2-14.6-37.4-20.4-85.2-62.2-103.6l-73.3-35.6c-.9,3.8,2.1,4.8,4,7,30.7,36.6,53.7,46.9,70.5,97.3,4.9,14.6,10.2,34.5,10.5,49.5-14.9-16.5-19.4-39.6-30.6-59.3-20.9-36.5-48.4-52.6-76.3-81.5-10.6-11-20.8-28-32.9-37-14-10.3-36.4-17.2-52.8-27.1-39.9-24.3-78.2-67.1-130.6-46.3-26.1,10.3-50.9,36.1-74.4,51.5-3.3.5-3.2.1-3-3,.6-10.3,17.6-15.5,18-26.9-28.4,6.5-58.7,19.1-73,45.9-7.1,13.2-8.6,27.5-14.6,41.3-5.9,13.7-15.7,24.8-22.1,37.8-10.6,21.4-13.9,44-26.9,65-2.5,4-18.2,20.8-15.3,23.7,22,1.7,48.4-12.2,62.7-28.2,10.4-11.5,21.5-44,38.2-43.8,2.7,0,3.9-.4,3,3-2.4,8.2-16.2,25.8-20.9,37.1-24.3,57.7-36.5,115.6-66.6,173.1-6.2,11.9-24.4,36.1-27.4,46.5-5.3,18.1-6.5,46-11.9,66-6.3,23.6-17.9,37.4-28,57.9-12.8,25.9-24.3,54.2-38.6,79.3-5.6,9.8-42,59.9-42.3,63.7-.8,8.4,6.4,7.3,12.5,6.4,13.3-2,83-37.7,95.3-46.6,12.3-8.9,23.5-29.3,35.1-36.8,6.4-4.2,15.2-4.4,21.7-8.3,21.4-12.7,23.4-39.7,36.4-57.5,8-11,22.4-15.3,30.5-27.4,9.2-13.9,9.1-32,17.9-46,5.7-9,17.3-15.8,22.1-23.9,13.7-23.4,8.7-70.8,6-97.3-.2-2.2-9-38.1-1.8-33.2,4.7,5.4,3.9,13.4,5.4,17.5.8,2.2,3.7,2.1,4.5,4,4.4,11.1,2.1,32.8,6.6,43,3.2,7.2,10.5-1.2,13.6-5.5,4.3-6.1,24-76.2,25.5-86.4,4.6-33.5-7.5-31-17.9-55-4.7-11-13.8-58.5-3.7-64.4,8.7-5.1,12.1,29.7,13.5,34.7,5.8,20.2,18.8,34.7,30.1,51.8,8,12,11.6,25.5,25.4,34.6,1.2-21.2,6.1-44.3,17.5-62.4,4.2-6.8,6.8-3.2,6.8,3.1,0,11.9-7.5,25.2-9.1,38.6-3,25.6-.6,44,10.1,67.4,3.1,6.7,9.3,17.2,17.6,17.3h0ZM735.7,714.5c4.1-4.2-7.1-17.7-14-14-4.2,7.3,10.9,17.1,14,14ZM1151.4,736.4c7.4-7.3-24.1-14.9-28-7-1.7,3.5,3.5,3.6,5.6,4.3,3.9,1.3,20.5,4.5,22.4,2.6h0ZM969.5,730.5l-153.9,47.9c41.3.7,83-12.2,120.6-28.2l33.2-19.7h0ZM1095.4,732.5c-2.3-3-27.3.5-26,7,1.5,6.9,30.1-1.4,26-7ZM799.6,804.4c-2.2-21.4-20.2-53.4-39.3-63.6-8.5-4.5-19.8-8.6-12.8,4.8,21.8,13.4,32.9,35.1,46.9,55,1.7,2.4,0,4.9,5.2,3.8h0ZM1191.3,752.4c1.8-11.5-11.2-19.1-20-10.9,1.9,10.5,10.9,11.8,20,10.9ZM1007.5,786.4c1.5,1.6,21.2,6.2,25,6.2,26-.3,62.6-9.2,90-12.1,12-1.3,26.4-.6,38.1-1.9,8.7-1,7.8-3.7,3.8-10-4.8-7.5-15.4-19.5-24.3-21.7-33.6-8-102.6,13.7-129.9,34.9-1.4,1.1-5.4,1.5-2.5,4.5h0ZM1037.5,746.5c-40.8,10.9-80.4,26.9-121.5,37.4-7.5,1.9-51.9,9.2-52.5,11.8-.4,1.9.3,4.6,0,6.7,59.7-13,130.9-5,173.9-55.9h0ZM1225.3,756.4c2.2-13.5-22-12.8-12-3,2.8,2.7,8.2,3.2,12,3ZM1205,768.7c-5.2-8.6-22.9,6.4.3,7.7-.3-2.3.8-5.9-.3-7.7ZM1249.3,780.4c2.9-3.9-11.1-18.6-18-14-4.4,9.2,14.1,19.2,18,14ZM1217.3,828.3c3.7-44.6-29.2-41.8-62.9-39.9l-112.9,12c-.6,3.1.3,4.6,1.9,7.1,16.3,25.4,108.1,18,137.1,18.8,11.6.3,24.6,3.9,36.9,2.1h0ZM1245.1,794.6c-6.6-4.4-17.2,8-8.4,14s14-10.2,8.4-14ZM1117.4,872.2c1.7-2.2-2.5-5.5-4-7-24-23.3-43.8-25.5-69.3-40.6-13.8-8.1-24.5-25.2-40.1-27.8-24.4-4.1-53.5,4.2-77.7,7.3-14.6,1.8-31,2.1-45.5,4.5-30.2,4.9-38.8,8-5.8,21.2,59.4,23.8,147.8,58.4,211.4,52.5,4.7-.4,29.3-8,30.9-10.1h0ZM1268.8,806.9c-8.7-9.5-15,16.8,2.5,13.5,0-3.9.3-10.5-2.5-13.5ZM1245.3,832.3c2.1-1.9-3.8-9.1-6-3-1.5,4.2,5.2,3.6,6,3ZM1275.3,844.3c0-3.2.9-9.1-1.8-11.1-10.2-7.3-17.5,15,1.8,11.1ZM1036.1,939.6c-2.8-4.1-2.8-14-7.7-21.2-30.1-44.6-116.1-53.5-161.3-80.4l-9.4-1.6c36.7,49.2,87.5,85,131.9,126.8,22.1,20.8,54,69.5,89.4,57.4,8.1-2.8,19.4-21.2,18.2-29-.4-2.6-24-32-26.6-33.5-9.6-5.6-26.1-6.4-34.5-18.5h0ZM1238.7,850.9c-4.8-5.2-21.2-9.9-28.4-10.6l-114.9-4c9.2,5.4,30.1,27.8,38.5,30.4,9.6,2.9,21,3.5,31.5,6.6,11.5,3.4,47.6,18.6,55.2,18.9,16.7.6,30.9-27.2,18.2-41.2h0ZM868.3,865.6c-2-1.9-3-5.6-5.7-7.3-1.5-.3-1.3,1.9-1,3,3,9.5,11.7,26.1,17.1,34.8,18.9,30.2,80.3,77.7,110.9,98.9,9.4,6.5,19.5,12.1,29.8,17.2.8-3.5-1.8-4.9-3.9-7-47.5-47.6-98-93.2-147.2-139.5h0ZM1260.3,858.3c-4.1,1-7,14.1-2,13.9,5-.1,10.8-16,2-13.9ZM1281.3,874.3c-4.9-5-15.4,12.4-7,16,8,3.4,7.8-15.1,7-16ZM1105.4,890.3c-3.4,3.7,17.3,16.5,20,18.9,9,8.1,41.3,42.7,49.8,44.1,24.6,4,60.8-38.6,34.6-52.6-9.2-4.9-69.1-23.4-76.5-21.6-8.2,2-18.5,11-28,11.2h0ZM1017.5,890.2c-2.2,2.1,8.1,11.3,9.9,13,15.7,14.8,34.7,26.4,49,42.9,7,8,31.5,46.5,37,48.9,7.7,3.5,31.3-.8,38.7-5.3,6-3.6,16.5-20.2,13.1-26.3-3.8-7-35.8-37.2-43.7-44.3-5.9-5.3-17.9-16.6-24.1-19.8-22.5-11.7-55.5.3-79.8-9.1h0ZM1249.3,896.2h-3c-3.1,2.1-3.5,4.3-3,8h6v-8ZM1271.3,922.2c1.2-4.8.6-23.4-8-18-3.3,2.1-4.6,23.3,8,18ZM1234.7,928.5c-6.2,1-13.2,11.5-6.2,13.5,10,2.9,18.5-15.5,6.2-13.5ZM1255.3,948.2c-3.3-3.7-19,12-8.9,14,4.6.9,11.7-10.9,8.9-14ZM1199.3,972.1c3.7,3.8,20.2-12.4,10.9-14-4.7-.8-14.2,10.7-10.9,14ZM909.5,968.2c-7.2-1.9-10.5,12.2-5,11.9,2.1,0,6-9,5-11.9ZM1231.3,974.1c-5-5.3-12.9,11.2-10,16,6.8,1.3,13-12.8,10-16ZM1191.3,986.1c-14.4-2.6-16.4,17.2-3.2,7.8,3.4-2.4,3.7-3.6,3.2-7.8ZM921.5,990.1c-6.8-1.3-16.9,8.7-8,13,9,4.4,8.6-6.9,8-13ZM1152.8,1004.4c-6.6,1.4-14.2,11-6.2,13.5,11.7,3.5,22-16.7,6.2-13.5ZM1207.3,1004.1c-6-2.3-17.9,3.9-16,10.9,2.3,8.1,20.3-2.1,16-10.9ZM1107.9,1030.5c3.5-2,9.4,1.3,13.7-5.3,7.2-11.3-5.4-20.8-13.9-7.9-1.6,2.5-1.6,6.7-3.3,8.7-2.8,3.3-14.9,3.7-9,11.1,6.8,8.5,10.2-5.3,12.5-6.6h0ZM933.5,1016.1c-12.9.2-18.5,12.9-2.2,11.8l2.2-11.8ZM1177.3,1024.1c-2-2-12.9,1.9-12,7,1.6,8.6,18.1-.9,12-7ZM1059.4,1034.1c-6.4,7.6,20.3,18.5,23.8,6.8,3.1-10.3-21.6-9.5-23.8-6.8ZM1134.8,1034.5c-13.6,2.8-8.8,23,6.4,12.5,8.2-5.7,5.1-14.9-6.4-12.5h0ZM1111.4,1058c8.9-12.8-33-7.6-16.5-.4,2.7,1.2,15.1,2.5,16.5.4Z"/>
        <path class="st1" d="M1231.3,666.5l22-2c2.9,2.5-26,28-19,41.9,3.3,6.5,11.8,4.2,16.9.9,12.3-7.8,41.9-44.1,45.5-58.4,2.4-9.8,1.5-31.7,4.6-37,1.2-2.1,3.3-1.9,5-1.4,6.1,1.9,15.4,32.6,14.8,40.7-.5,7.1-11.7,33.5.8,26.9,29.4-15.7,5-83.5,49.5-108.4,3.6-2,11-7.1,13.9-2.1.8,3.6-9.8,16.5-12,21.9-13.3,32.6,3.9,46.8,4.1,76,0,14.8-9.9,37.4-18.4,49.5-14,19.9-41.9,34.6-37.6,62.3,1.6,3.1,3.5.2,5-1,15.2-11.3,24.4-25.3,47.6-23.8,27.7,1.8,4.5,12.3-2.7,18.8-27,24.4-23.9,45.1-33,76.9-7.8,27.5-22.2,58.5-49,71.9,4.2-21.6,13.9-47.3,8.6-67.5-2.4-9-7.4-17.3-9.6-26.3-4-16.6-.8-25.3-10.9-41.1-3.5-5.5-35-41.4-39.3-44.6-22.7-16.2-59.7-16.3-84.6-27.3,24.5-9.7,63.1-24,77.9-46.9h0Z"/>
        <path class="st1" d="M1005.5,345c2.6-11.8,10.6-22.7,15-34,4.6-11.9,6.8-24.9,11.5-36.4,15.9-39.1,59.1-50.1,81.8-86,4.7-7.4,8.9-29.5,15.7-8.5,4.3,13.5,1.7,25.9-3.7,38.4-3.2,7.4-21.5,31.5-3.2,32.5,18.7,1,25.3-21.1,34.8-32.8,29.4-36.3,68.6-27.6,77.7-86.1,1.1-6.9-3.6-24.3,9.3-14.9,11,8,16.1,45.9,14.8,59-1.8,18.5-17.9,30.3-16.1,48,2.6,25.6,29.3-10.9,36.1-16.1,8.6-6.6,15-8.1,26-6.9-.9,8.3-8,12.6-11.7,21.3-15.5,36.1,14.3,68.3-14.7,119.2-2.2,3.8-6.6,13.2-11.6,13.4,0-.3-2.1-2.3-2.1-4.8.3-37.5-.5-82.3-43.9-96-62.7-19.9-167.3,54.5-215.8,90.9h0Z"/>
        <path class="st1" d="M737.7,544.7l-25.4-71.5c-18.8-51.4,15.9-101.3,11.4-151.2-.4-4.8-9.5-23.9,2.7-20.7,15.8,4.3,23,51.7,25.3,53.6,8.3,6.9,17.1-25.5,17.7-31.2,2.9-23.9-1.4-49.6,6.7-73.2,16.5-48.4,71.3-70.3,79.2-122.5,1.2-7.6-2.5-17.1,3.2-22.7,6.2-1.3,15.4,27.9,16.4,33.5,3.4,18.4-1.1,27-1.6,43.4-.7,20.7,13.9,8.6,20.5-1.6,8.5-13.1,8.4-24.1,7.6-39.3,2.8-3.2,9.7,8.4,10.8,10.2,10.8,19.5,9.3,46.5,5.2,67.7-44.4-24.1-94.5,42-114.8,74.1-46.9,74.3-62.6,164.7-65.1,251.5h0Z"/>
        <path class="st1" d="M1255.3,414.9c-1.4,11.2-6.9,42,12.7,31.7,16.3-8.6,17.5-44.7,29.2-60.6,4-5.4,18.6-19,24.5-21.4,3-1.2,10.2-4.2,9.5,1.4-.8,6.2-15.1,21.9-18.4,31.5-9.9,28.6,5.9,55.1-4,83.9-8.1,23.5-33.2,45.5-45.9,68-7.4,13-10,25.8-15.7,39.3-.4-10.7-5-19.5-6-29-1.7-15.6,2-32.2,2.1-48.1,0-10.9-3.1-21.8-2.2-33.9,1.5-18.8,8.5-44.8,14.1-62.9h0Z"/>
        <path class="st1" d="M1157.4,175.2c0-7,4.8-12.2,5.8-19.1,4.6-33.1-8.2-52.9,26.3-77.5,25.8-18.3,5,13.2,3.9,19.9-2.1,13.1,4.3,22.4,4,33.8-.5,19-20.1,43.8-40.1,42.9Z"/>
        <path class="st1" d="M1347.1,550.6c-1.2,1.1-7.2.4-8.9-1.8-2.5-3.2-3-14-2.5-18.4,2.4-23.5,28.5-37,23.5-62.5,7.2-4.3,13,9.3,14.9,15,11.6,34.2-11.9,36.5-24.6,59.2-1.5,2.8-2.1,8.2-2.4,8.5h0Z"/>
        <path class="st1" d="M813.6,766.4c33.4-27.4,63.6-58.1,94-88.8,7-7.1,11.9-17.4,21.9-22,14.6-6.8,50.5-13.7,68-18,32.2-7.8,65.4-15.3,97.9-22,15.4-3.2,52.2-12.7,65.5-12.3,16.5.5,28.4,24.6,22,39.8-13.1,31-68.5,38.7-99.3,46.6-57.9,14.8-116.1,28.9-173.5,46.3-28.1,8.5-58.9,22.3-86.4,29.5-3.4.9-6.5,1.3-10,1h0Z"/>
        <path class="st1" d="M1001.5,498.8c-7.1,16.9-15.2,33.4-22.9,50-33.3,70.8-83.3,125-139.6,179-5,4.8-32.6,32-37.2,28.7-3.8-2.7.5-15.5,1.5-19.5,14.6-57.7,63.4-168.1,109.5-206.2,26.6-22,54.7-29.6,88.9-32Z"/>
        <path class="st1" d="M1036.1,939.6c8.4,12,24.9,12.8,34.5,18.5,2.6,1.5,26.2,30.9,26.6,33.5,1.2,7.7-10.1,26.2-18.2,29-35.3,12.1-67.3-36.6-89.4-57.4-44.4-41.8-95.2-77.6-131.9-126.8l9.4,1.6c45.3,26.9,131.2,35.9,161.3,80.4,4.9,7.2,4.9,17.2,7.7,21.2h0Z"/>
        <path class="st1" d="M1117.4,872.2c-1.6,2.1-26.2,9.7-30.9,10.1-63.7,5.9-152-28.7-211.4-52.5-33-13.2-24.4-16.3,5.8-21.2,14.5-2.3,30.9-2.7,45.5-4.5,24.2-3,53.3-11.4,77.7-7.3,15.6,2.7,26.4,19.7,40.1,27.8,25.5,15,45.3,17.3,69.3,40.6,1.5,1.5,5.6,4.8,4,7h0Z"/>
        <path class="st1" d="M1148.7,533.4c19.8,16.9,15,44.4-7.2,56.3-9,4.8-22.3,6.9-32.4,9.5-56.2,14.5-114.1,24.2-169.5,41.3l50.5-68.4c24.7-10.7,51.3-16.8,76.9-25,22.2-7.1,62.3-30.4,81.7-13.8h0Z"/>
        <path class="st1" d="M779.6,722.5c-3.1.3-2.8-5.3-3.3-7.6-12.8-59.7-18.8-156.1,5.8-212.6,6.1-14,15.8-25,28.9-33.1,6.1-3.8,20.6-13.6,20.2-2-1.5,42.9,4.6,79.3-6.1,123.9-3.8,15.9-13.8,30.8-19.5,46.4-10.1,27.7-17.1,56.9-25.9,85h0Z"/>
        <path class="st1" d="M1017.5,890.2c24.3,9.4,57.4-2.6,79.8,9.1,6.2,3.2,18.2,14.5,24.1,19.8,8,7.2,39.9,37.3,43.7,44.3,3.4,6.2-7.1,22.7-13.1,26.3-7.4,4.4-31,8.8-38.7,5.3-5.5-2.5-30-40.9-37-48.9-14.4-16.5-33.3-28.1-49-42.9-1.8-1.7-12.2-10.9-9.9-13h0Z"/>
        <path class="st1" d="M1153.4,476.8c-.2,8.3-11.1,5.7-16.1,10.9-3.5,3.5-4,10.4-7,15-6.8,10.4-24.9,17-36.3,21.6-32.2,12.9-67.8,22.1-100.5,34.4-1.9-1.9,17.7-45.1,21.1-49.8,15.7-21.9,78.2-46.9,104.9-41.2,11.3,2.4,18.1,14.1,33.9,9.1h0Z"/>
        <path class="st1" d="M1217.3,828.3c-12.3,1.8-25.3-1.8-36.9-2.1-28.9-.8-120.7,6.6-137.1-18.8-1.6-2.5-2.5-4-1.9-7.1l112.9-12c33.8-1.9,66.6-4.7,62.9,39.9h0Z"/>
        <path class="st1" d="M1105.4,890.3c9.5-.2,19.8-9.1,28-11.2,7.4-1.8,67.3,16.7,76.5,21.6,26.1,14-10,56.6-34.6,52.6-8.6-1.4-40.9-36-49.8-44.1-2.7-2.5-23.4-15.3-20-18.9Z"/>
        <path class="st1" d="M1238.7,850.9c12.8,14.1-1.5,41.9-18.2,41.2-7.6-.3-43.6-15.5-55.2-18.9-10.5-3-21.9-3.7-31.5-6.6-8.3-2.5-29.3-24.9-38.5-30.4l114.9,4c7.2.7,23.6,5.3,28.4,10.6h0Z"/>
        <path class="st1" d="M1007.5,786.4c-2.9-3.1,1.2-3.5,2.5-4.5,27.4-21.3,96.3-42.9,129.9-34.9,8.9,2.1,19.4,14.1,24.3,21.7,4,6.2,5,9-3.8,10-11.7,1.3-26,.6-38.1,1.9-27.3,2.9-64,11.8-90,12.1-3.8,0-23.5-4.6-25-6.2h0Z"/>
        <path class="st1" d="M929.5,398.9c1.3,6.5-8.7,11.4-9.7,15.4s2.2,9.1,1.4,15c-2.3,16.9-36.9,39.3-47.6,52.5l-28,20.9c-.3-13.8-5.9-26.5-3.5-40.5,2.8-16.1,34.8-52.3,50.4-57.5,11.2-3.8,14,.5,22,0,5.6-.3,9.4-6,15.1-5.9h0Z"/>
        <path class="st1" d="M868.3,865.6c49.2,46.3,99.7,91.8,147.2,139.5,2.1,2.1,4.7,3.5,3.9,7-10.3-5-20.4-10.6-29.8-17.2-30.6-21.2-92-68.7-110.9-98.9-5.5-8.7-14.1-25.3-17.1-34.8-.3-1-.5-3.3,1-3,2.7,1.7,3.7,5.4,5.7,7.3h0Z"/>
        <path class="st1" d="M1097.4,390.9c2.7-11.5-3.1-16.3,7.3-23.6,16.1-11.2,59.1-19.4,77.1-11.8,4.7,2,8.5,10.7,5.7,14.5-10.3,14-72.2,20.8-90.1,20.9h0Z"/>
        <path class="st1" d="M1077.4,354.9c11-26.8,55.1-46.7,82.9-43.9,25.9,2.5,20.3,18.4,0,26-13.6,5.1-55.3,14.9-70.5,17.4-4.2.7-8.3.6-12.5.5h0Z"/>
        <path class="st1" d="M1037.5,746.5c-42.9,50.9-114.2,42.9-173.9,55.9.3-2.1-.5-4.8,0-6.7.6-2.6,45-9.9,52.5-11.8,41.1-10.5,80.7-26.4,121.5-37.4Z"/>
        <path class="st1" d="M1102,428.3c-14.2-17.3,28.5-27.9,39.9-26.9,15.9,1.4,19.3,15.7,10.4,27.5-4.7,6.2-23.5,12.5-31,11.2-4.4-.7-16.6-8.4-19.3-11.8Z"/>
        <path class="st1" d="M969.5,730.5l-33.2,19.7c-37.7,16-79.4,28.9-120.6,28.2l153.9-47.9h0Z"/>
        <path class="st1" d="M893,303.5c7-1.2,19.1-2,18.1,8.2-.9,9.3-40,36.4-48.7,37.2s-15-10.1-10.9-17c4.7-8,32.2-26.8,41.6-28.4h0Z"/>
        <path class="st1" d="M829.6,329c-1.7-20.2,20.7-47.4,39.5-53.3,11.2-3.5,25.8-3.6,17.9,11.9-2.7,5.3-43.6,36.3-50.3,39.6-2.4,1.2-4.1,2.5-7.1,1.9Z"/>
        <path class="st1" d="M1052.7,390.1c.6-.4,1-2.5,2.2-3.2,32.5-17.9,36,27.2-.7,31.7-8.1,1-14.4.8-18.5-7.1-6.4-12.1,8.4-16.4,17-21.4h0Z"/>
        <path class="st1" d="M872.3,361.6c6.5-7.4,24.7-20.7,33.4-9.8,12.8,15.8-13.2,41.2-31.2,27.1-7.2-5.7-8.4-10.3-2.2-17.3h0Z"/>
        <path class="st1" d="M1033,447.2c26-3.6,10.1,23.8-13,29-45.2,10.2-8.2-26.1,13-29Z"/>
        <path class="st1" d="M987,435.1c7.5-1.1,11.4,7.8,10.5,14.6-2,15.5-42.7,35.8-37.5,12.6,1.7-7.7,19.4-26,27.1-27.2h0Z"/>
        <path class="st1" d="M878.2,493.4c-8.4,15.2-15.6,31.5-24.3,46.7-3.5,6.1-7.2,14-12.3,18.6.5-12.8,1.4-32.1,7.6-43.4,2.5-4.5,32.8-32.2,34.4-30.5,3.8,4-4.9,7.8-5.3,8.6h0Z"/>
        <path class="st1" d="M799.6,804.4c-5.1,1.1-3.5-1.4-5.2-3.8-14-19.9-25.1-41.6-46.9-55-7-13.4,4.3-9.4,12.8-4.8,19.1,10.2,37,42.2,39.3,63.6h0Z"/>
        <path class="st1" d="M833,353.3c20.5-6.1,18.8,33.7-4.2,31.6-21-1.9-4.8-29,4.2-31.6Z"/>
        <path class="st1" d="M1027.6,392.7c-11-7.7,17.4-41.5,29-32,15.6,12.7-24,35.5-29,32Z"/>
        <path class="st1" d="M919.7,478.6c-7-4.9,12.5-32.6,18-36.7,4.7-3.6,12.8-8.4,14,0,1.2,8-23.7,42.6-31.9,36.7h0Z"/>
        <path class="st1" d="M843.4,411.1c8.6,5.3-12.4,39.1-23.9,30.9-9.2-6.6,11.5-38.5,23.9-30.9Z"/>
        <path class="st1" d="M1180.8,441.3c25.2-5.8,19.9,27.9-2,23.1-14.7-3.2-11.2-20.1,2-23.1Z"/>
        <path class="st1" d="M797,417.1c17.8-5,11.6,34.4-4.4,31.8-10.5-1.7-3-29.7,4.4-31.8Z"/>
        <path class="st1" d="M998.9,381.2c18.5-2.9-4.8,33.2-15.3,28.8-1.6-.7-5.9-5-5.3-7.2,1.4-5.2,15-20.7,20.6-21.6h0Z"/>
        <path class="st1" d="M819.4,339.3c1.4.9,4.6,11.3,3.9,14.2-.2.8-8.8,13.7-9.5,14.2-3.6,3.2-8.7-.3-9.8-4.2-2-7.1,6.2-29.8,15.4-24.2h0Z"/>
        <path class="st1" d="M1107.9,1030.5c-2.4,1.3-5.7,15.1-12.5,6.6-5.9-7.4,6.2-7.8,9-11.1,1.7-2,1.7-6.2,3.3-8.7,8.4-12.9,21.1-3.4,13.9,7.9-4.3,6.7-10.2,3.4-13.7,5.3h0Z"/>
        <path class="st1" d="M1224.8,354.5c-4.8,4.9-19.3,2.6-19.7-6.5-1.1-21.8,34.2-8.1,19.7,6.5Z"/>
        <path class="st1" d="M1145.4,295c-7.2-8.3,21.4-23.2,25.8-10.7,5.7,16.2-23.2,13.7-25.8,10.7Z"/>
        <path class="st1" d="M768.7,426.9c8.6-2,6.5,39.3-4,35.9-6.5-2.1-2.5-31.7,4-35.9Z"/>
        <path class="st1" d="M1186.8,521.1c18.9-5.7,19.7,21.8,1.5,19.7-11.4-1.3-8.4-17.7-1.5-19.7Z"/>
        <path class="st1" d="M945,382.4c-2.2,2.2-12.8,3.7-15.2,2.2-9.9-36.5,29.5-16.2,15.2-2.2Z"/>
        <path class="st1" d="M1180.8,502.2c-8.7,9.4-32.1,4.3-16.5-9.5,11.2-9.9,24.9.3,16.5,9.5Z"/>
        <path class="st1" d="M779.9,394.6c-2.8-4.4,2-29.2,8.7-27.6,12.6,6.5-.8,40.1-8.7,27.6Z"/>
        <ellipse class="st1" cx="1209.8" cy="392.5" rx="9.9" ry="9.9"/>
        <path class="st1" d="M1206.8,312.5c-6,5.9-24.2,1.7-18.5-9.5,5-9.9,29.4-1.2,18.5,9.5Z"/>
        <path class="st1" d="M1059.4,1034.1c2.3-2.7,27-3.5,23.8,6.8-3.6,11.7-30.3.8-23.8-6.8Z"/>
        <path class="st1" d="M916.8,279.3c16.3-5.5,22.3,18.8,3.8,15.7-8.3-1.4-9.9-13.6-3.8-15.7Z"/>
        <path class="st1" d="M1221.1,628.8c6.4,4-4.8,21.8-13.5,17.5-6.3-7.9,5.2-22.7,13.5-17.5Z"/>
        <path class="st1" d="M1134.8,1034.5c11.5-2.4,14.6,6.8,6.4,12.5-15.2,10.6-20-9.6-6.4-12.5h0Z"/>
        <path class="st1" d="M1180.7,403.2c6.7-.6,6.9,15.1-.8,17.3-15.6,4.6-13.7-16,.8-17.3Z"/>
        <path class="st1" d="M1151.4,736.4c-1.9,1.9-18.5-1.3-22.4-2.6-2-.7-7.3-.8-5.6-4.3,3.9-7.9,35.4-.4,28,7h0Z"/>
        <path class="st1" d="M1191.3,752.4c-9.1.9-18.1-.5-20-10.9,8.8-8.2,21.8-.5,20,10.9Z"/>
        <path class="st1" d="M863,249.4c11.5-2.3,11.4,10.1,2,14.1-15.9,6.9-13.7-11.8-2-14.1Z"/>
        <path class="st1" d="M1133.4,283c3.9,8.7-19.6,18.4-22,16-5.1-5.3,16.2-19.2,22-16Z"/>
        <path class="st1" d="M891.5,520.7c4.2,4.3-4.7,24.1-14,22-3.6-5.3,8.8-27.2,14-22Z"/>
        <path class="st1" d="M1187.6,588.4c-7-4.4,1.7-20.6,9.8-14.9,9,6.4-1,20.4-9.8,14.9Z"/>
        <path class="st1" d="M1095.4,732.5c4.2,5.5-24.5,13.8-26,7-1.4-6.5,23.7-10,26-7Z"/>
        <path class="st1" d="M937.3,315.2c5.9,4,2,23.4-11.5,13.5-3.6-7.2,5.4-17.7,11.5-13.5Z"/>
        <path class="st1" d="M1249.3,780.4c-3.9,5.2-22.3-4.8-18-14,6.9-4.7,20.9,10.1,18,14Z"/>
        <path class="st1" d="M1152.8,1004.4c15.8-3.3,5.5,17-6.2,13.5-8.1-2.4-.5-12.1,6.2-13.5Z"/>
        <ellipse class="st1" cx="1226.6" cy="419.6" rx="7.4" ry="7.4"/>
        <path class="st1" d="M1219,487c6.4,10.2-17.3,19.8-13.6-2.1,2.5-2.6,12.6.5,13.6,2.1Z"/>
        <path class="st1" d="M1245.1,794.6c5.6,3.7.4,20-8.4,14s1.8-18.4,8.4-14Z"/>
        <path class="st1" d="M1207.3,1004.1c4.3,8.9-13.7,19-16,10.9-1.9-7,10-13.2,16-10.9Z"/>
        <path class="st1" d="M1271.3,922.2c-12.5,5.3-11.3-15.9-8-18,8.5-5.4,9.1,13.2,8,18Z"/>
        <path class="st1" d="M896.5,253.8c8.5,0,9.7,11.8,0,13.3-14.4,2.2-8.6-13.3,0-13.3Z"/>
        <path class="st1" d="M1227.3,448.8c1.3,4.5-2.8,22.4-9.8,17.9-4.2-8,0-18.5,9.8-17.9Z"/>
        <path class="st1" d="M1234.7,928.5c12.2-1.9,3.8,16.5-6.2,13.5-7-2,0-12.6,6.2-13.5Z"/>
        <path class="st1" d="M1111.4,1058c-1.5,2.1-13.9.7-16.5-.4-16.5-7.1,25.4-12.4,16.5.4Z"/>
        <path class="st1" d="M759.6,528.7c-9-1.8-5.2-21.9-1-21.9,7.6,0,4,17.7,1,21.9Z"/>
        <path class="st1" d="M1234.5,387.1c12.1-4,9.6,11.4,1.8,15.8-5.1-2.3-7.9-13.7-1.8-15.8Z"/>
        <path class="st1" d="M735.7,714.5c-3.1,3.2-18.1-6.7-14-14,6.9-3.7,18,9.8,14,14Z"/>
        <path class="st1" d="M1268.8,806.9c2.8,3,2.5,9.5,2.5,13.5-17.5,3.3-11.1-23-2.5-13.5Z"/>
        <path class="st1" d="M1281.3,874.3c.8.8,1,19.3-7,16-8.4-3.6,2-21,7-16Z"/>
        <path class="st1" d="M1275.3,844.3c-19.3,3.9-12.1-18.4-1.8-11.1,2.8,2,1.8,8,1.8,11.1Z"/>
        <path class="st1" d="M921.5,990.1c.6,6.1,1,17.4-8,13-8.9-4.3,1.2-14.3,8-13Z"/>
        <path class="st1" d="M1231.3,974.1c3,3.2-3.1,17.2-10,16-2.9-4.8,4.9-21.3,10-16Z"/>
        <path class="st1" d="M1211.3,281.1c18.2-8.3,18,12.4,3.3,7.7-3.6-1.2-3.6-4.3-3.3-7.7Z"/>
        <path class="st1" d="M1245.3,313c-18.2,8.3-18-12.4-3.3-7.7,3.6,1.2,3.6,4.3,3.3,7.7Z"/>
        <path class="st1" d="M1199.3,972.1c-3.2-3.3,6.2-14.8,10.9-14,9.2,1.6-7.2,17.8-10.9,14Z"/>
        <path class="st1" d="M933.5,1016.1l-2.2,11.8c-16.3,1.1-10.7-11.5,2.2-11.8Z"/>
        <path class="st1" d="M1225.3,756.4c-3.8.3-9.2-.3-12-3-10-9.8,14.2-10.5,12,3Z"/>
        <path class="st1" d="M1223.3,528.7c0,3.5,2,19.4-4.9,18-6.9-6.1-2.1-14.6,4.9-18Z"/>
        <path class="st1" d="M1255.3,948.2c2.7,3.1-4.3,14.9-8.9,14-10.1-2,5.7-17.6,8.9-14Z"/>
        <path class="st1" d="M955.5,309c1.2,1.1,3.5,17.6-4.9,14-6.9-3-.8-18.9,4.9-14Z"/>
        <path class="st1" d="M949.5,333c5.6-5.7,15.9,9.3,7,12-7.7,2.3-8.4-10.5-7-12Z"/>
        <path class="st1" d="M833.6,275c-2.9-4.3,6.8-15.8,9-15.9,7.3-.5-2.9,18.2-9,15.9h0Z"/>
        <path class="st1" d="M964.5,361c4.1-.1,5.1,17.4-2,15.9-5.8-1.2-2.6-15.8,2-15.9Z"/>
        <path class="st1" d="M1177.3,1024.1c6.1,6.1-10.3,15.6-12,7-1-5.1,10-8.9,12-7Z"/>
        <path class="st1" d="M1205,768.7c1.1,1.8,0,5.3.3,7.7-23.2-1.2-5.5-16.3-.3-7.7Z"/>
        <path class="st1" d="M1191.3,986.1c.5,4.2.2,5.3-3.2,7.8-13.2,9.4-11.2-10.4,3.2-7.8Z"/>
        <path class="st1" d="M1260.3,858.3c8.8-2,2.9,13.8-2,13.9-5,.1-2.1-13,2-13.9Z"/>
        <path class="st1" d="M1213.3,570.7c5.2-5.2,12.6,10.1,5,12-5.5,1.3-6-10.9-5-12Z"/>
        <path class="st1" d="M929.5,249.1l-7,10c-7.2-6.4-1.2-11.4,7-10Z"/>
        <path class="st1" d="M927.5,343c-.5,4.1,2.9,15-5,12-7.3-2.9,2.5-14.9,5-12Z"/>
        <path class="st1" d="M900.6,233.1c9.9-2.7,6.9,10.3,0,9.9-3.3-.2-4.5-8.7,0-9.9Z"/>
        <path class="st1" d="M1209.3,269.1c4.2,5.6-15.1,12.3-8.7-.1,1.7-1.3,8.2-.6,8.7.1Z"/>
        <path class="st1" d="M909.5,968.2c1,2.9-2.9,11.8-5,11.9-5.5.2-2.2-13.9,5-11.9Z"/>
        <path class="st1" d="M1241.3,354.9c-.9-.9-1.9-10.5,5-8,7.7,2.9-1.7,11.2-5,8Z"/>
        <circle class="st1" cx="888" cy="232.6" r="4.2"/>
        <path class="st1" d="M1249.3,896.2v8h-6c-.5-3.7-.1-5.9,3-8h3,0Z"/>
        <rect class="st1" x="936.2" y="405.5" width="12.7" height="2.9" transform="translate(-9.3 791.5) rotate(-45.3)"/>
        <path class="st1" d="M945.5,279.1c.5,3.7,0,6.9-4,8v-8h4Z"/>
        <path class="st1" d="M1245.3,832.3c-.7.7-7.5,1.3-6-3,2.2-6.2,8.1,1,6,3Z"/>
      </g>
    </g>
  </g>
</svg>