<svg id="large-button-bg-dark" xmlns="http://www.w3.org/2000/svg" width="399.305" height="69.308" viewBox="0 0 399.305 69.308">
  <path id="Path_141" data-name="Path 141" d="M1134.521,2595.226c-12.465,0-12.465,5.386-24.93,5.386s-12.464-2.505-24.929-2.505-87.254,2.557-99.717,2.557-38.33-3.29-50.795-3.29H810.85c-12.469,0-12.9,3.455-25.371,3.455-7.277,0-13.186-6.869-17.954-11.638s-10.207-10.677-10.207-17.954c0-5.3-.033-5.3-.033-10.6,0-7.276,5.273-13.383,10.041-18.152s10.876-10.266,18.153-10.266c12.465,0,37.394-.7,49.859-.7s62.325,1.095,74.791,1.095,62.32-.561,74.785-.561,59.469.561,71.936.561,61.532-.4,74-.4c7.277,0,17.953,4.6,22.721,9.369s3.467,43.277-.977,47.722C1147.825,2594.078,1141.8,2595.226,1134.521,2595.226Z" transform="translate(-757.285 -2531.521)" fill="#0e1011"/>
</svg>
