<svg xmlns="http://www.w3.org/2000/svg" width="229.719" height="70.941" viewBox="0 0 229.719 70.941">
  <g id="small-button-bg-light-outline" transform="translate(2 2)">
    <path id="Path_134" data-name="Path 134" d="M1051.711,4626.862c-9.17,0-9.17,2.985-18.341,2.985s-9.169-1.389-18.338-1.389-9.17-.377-18.34-.377-9.17-1.291-18.34-1.291-9.171,1.727-18.342,1.727-9.169,1.358-18.338,1.358-9.172-1.966-18.344-1.966-9.172-1.809-18.344-1.809-9.174,3.344-18.348,3.344-9.173-1.392-18.347-1.392c-5.417,0-11.672-.726-15.223-4.276a23.317,23.317,0,0,1-6.22-15.223c0-12.034,2.194-12.034,2.194-24.068,0-5.418.557-11.592,4.107-15.142s9.725-3.943,15.142-3.943c9.171,0,9.171-1.536,18.341-1.536s9.169-.018,18.338-.018,9.17,1.4,18.34,1.4,9.17-1.522,18.34-1.522,9.171,2.454,18.343,2.454,9.168-2.841,18.337-2.841,9.172,3.583,18.344,3.583,9.172-3.984,18.345-3.984,9.173,1.008,18.347,1.008,9.173,1.44,18.347,1.44c5.417,0,11.393.609,14.943,4.159a22.322,22.322,0,0,1,5.911,14.944c0,12.034-2.651,12.034-2.651,24.068,0,5.418-.771,10.332-4.321,13.882S1057.128,4626.862,1051.711,4626.862Z" transform="translate(-846.846 -4562.934)" fill="none" stroke="#fbf2e1" stroke-width="4"/>
  </g>
</svg>
