<?xml version="1.0" encoding="UTF-8"?>
<svg id="b" data-name="Layer 2" xmlns="http://www.w3.org/2000/svg" width="125.356" height="126.678" viewBox="0 0 125.356 126.678">
  <g id="c" data-name="Layer 1">
    <g>
      <path d="m103.987,125.006c-10.314,0-10.314,1.672-20.628,1.672s-10.315-.778-20.629-.778c-10.316,0-10.316-.211-20.632-.211s-10.316-.724-20.632-.724c-5.664,0-10.929-1.385-14.641-5.097s-6.825-8.977-6.825-14.641c0-10.461,1.101-10.461,1.101-20.921,0-10.461,1.013-10.461,1.013-20.922,0-10.463-1.873-10.463-1.873-20.925,0-10.463.78-10.463.78-20.925,0-5.664,1.472-11.548,5.184-15.26S15.802,0,21.466,0c10.314,0,10.314,1.229,20.628,1.229S52.408.017,62.723.017s10.316,1.304,20.632,1.304,10.316-.86,20.632-.86c5.664,0,11.196,2.453,14.908,6.165,3.712,3.712,5.392,9.244,5.392,14.908,0,10.461.853,10.461.853,20.921,0,10.461-1.375,10.461-1.375,20.922s1.591,10.463,1.591,20.925c0,10.463-2.007,10.463-2.007,20.925,0,5.664-.381,11.557-4.093,15.269s-9.605,4.509-15.269,4.509Z" fill="#fffcee"/>
      <path d="m86.522,42.458c-.494-.255-.974-.535-1.44-.838-1.354-.895-2.595-1.95-3.697-3.141-2.757-3.155-3.787-6.355-4.166-8.596h.015c-.317-1.86-.186-3.063-.166-3.063h-12.558v48.56c0,.652,0,1.296-.027,1.933,0,.079-.008.152-.012.238,0,.035,0,.072-.008.108v.027c-.269,3.538-2.28,6.711-5.365,8.464-1.583.901-3.374,1.373-5.196,1.371-5.851,0-10.593-4.771-10.593-10.663s4.742-10.663,10.593-10.663c1.108-.001,2.208.173,3.261.516l.015-12.787c-6.463-.835-12.981,1.072-17.975,5.259-2.165,1.881-3.984,4.125-5.377,6.631-.53.914-2.53,4.587-2.772,10.547-.152,3.383.864,6.888,1.348,8.337v.03c.305.853,1.485,3.764,3.409,6.218,1.551,1.969,3.384,3.698,5.44,5.132v-.03l.03.03c6.08,4.131,12.82,3.86,12.82,3.86,1.167-.047,5.076,0,9.515-2.104,4.923-2.332,7.726-5.807,7.726-5.807,1.791-2.076,3.214-4.442,4.21-6.997,1.136-2.987,1.516-6.57,1.516-8.002v-25.762c.152.091,2.181,1.433,2.181,1.433,0,0,2.923,1.874,7.484,3.094,3.272.868,7.681,1.051,7.681,1.051v-12.467c-1.545.168-4.681-.32-7.892-1.921Z" fill="#0e1011"/>
    </g>
  </g>
</svg>