<svg xmlns="http://www.w3.org/2000/svg" width="160.461" height="73.148" viewBox="0 0 160.461 73.148"><defs><style>.a{fill:#efdece;}</style></defs><path class="a" d="M73.009,74.585l3.3,28.571c3.371-1.308,8.83-5.158,8.22-16.318-.26-4.664-1.68-8.021-4.21-9.982a12.47,12.47,0,0,0-7.31-2.271m-.22,55.148-6.96-59.494,3.29-.7c.39-.082,9.66-1.963,16.64,3.381,4.34,3.329,6.74,8.532,7.12,15.467.64,11.569-4,17.688-8,20.784a20.3,20.3,0,0,1-6.73,3.407l1.71,14Z" transform="translate(-65.829 -58.117)"/><path class="a" d="M99.289,120.318l-1.92-28.175,6.73-1.76,1.92,28.22Z" transform="translate(-65.829 -58.117)"/><path class="a" d="M115.519,70.258l1.34,23.132,1.03-.015c.77-.056,7.95-.916,7.5-12.845-.14-3.616-1.189-6.2-3.22-7.9a11.781,11.781,0,0,0-6.65-2.375m16.95,48.653c-6.93-4.092-11.18-9.551-15.03-17.949l.75,15.314-6.79,1.262-3.11-56.005,3.1-.461c.36-.054,9-1.269,15.13,3.815,3.58,2.971,5.51,7.321,5.72,12.933.43,11.242-4.61,16.625-9.35,18.771,3.37,6.769,7.06,12.869,13.071,16.417Z" transform="translate(-65.829 -58.117)"/><rect class="a" width="6.85" height="28.783" transform="matrix(1, -0.001, 0.001, 1, 73.49, 27.303)"/><path class="a" d="M159.249,63.61l-.48,28.643c3.38-.895,9-4.046,9.82-15.072.36-4.754-.62-8.313-2.9-10.577a11.813,11.813,0,0,0-6.441-2.994m-7.63,50.657,1-55.841,3.26-.271c.38-.032,9.37-.7,15.4,5.273,3.85,3.823,5.54,9.292,5.02,16.253-.859,11.43-6.06,16.855-10.28,19.392a19.336,19.336,0,0,1-6.89,2.516l-.28,13.008Z" transform="translate(-65.829 -58.117)"/><path class="a" d="M184.189,117.984l-6.8-1.149,1.84-28.747,6.8,1.208Z" transform="translate(-65.829 -58.117)"/><path class="a" d="M197.609,95.815l1.02.114c.77.055,8.01.092,9.061-11.8.309-3.6-.4-6.3-2.2-8.238A11.813,11.813,0,0,0,199.18,72.7Zm22.99,35.45c-19.56-.966-23.35-23.994-23.82-25.334l-.67,14.553-6.75-1.573L192.8,63.6l3.131-.067c.369-.009,9.1-.126,14.539,5.689,3.18,3.4,4.54,7.956,4.04,13.549-1.03,11.658-7.13,16.28-12.22,17.616,1.23,5.492,6.6,23.364,19.11,23.959Z" transform="translate(-65.829 -58.117)"/><path class="a" d="M221.639,119.205a8.943,8.943,0,0,1-6.65-3.047c2.03-16.78,2.77-21.613,2.77-21.613l6.79,1.949s-1.26,8.778-2.91,22.711" transform="translate(-65.829 -58.117)"/><path class="a" d="M103.359,82.1c.11,2.983-1.44,5.463-3.47,5.538s-3.76-2.282-3.87-5.265,1.441-5.463,3.47-5.538,3.76,2.282,3.87,5.265" transform="translate(-65.829 -58.117)"/><path class="a" d="M146.439,76.337c0,2.985-1.65,5.4-3.67,5.4s-3.68-2.42-3.68-5.4,1.65-5.4,3.68-5.4,3.67,2.42,3.67,5.4" transform="translate(-65.829 -58.117)"/><path class="a" d="M186.939,79.359c0,2.985-1.64,5.4-3.67,5.4s-3.67-2.42-3.67-5.4,1.64-5.4,3.67-5.4,3.67,2.42,3.67,5.4" transform="translate(-65.829 -58.117)"/><path class="a" d="M226.259,86.671c-.25,2.974-2.1,5.245-4.12,5.072s-3.45-2.725-3.2-5.7,2.1-5.245,4.119-5.072,3.46,2.725,3.2,5.7" transform="translate(-65.829 -58.117)"/></svg>