<?xml version="1.0" encoding="UTF-8"?><svg width="128" height="128" id="Isolation_Mode" data-name="Isolation Mode" xmlns="http://www.w3.org/2000/svg" viewBox="0 0 34.69 44.08"><defs><style>
      .cls-1 {
        fill: #1d1d1b;
      }
    </style></defs><path class="cls-1" d="M28.06,10.32c.07.29-.14.49-.21.7-.13.36-.23.83-.37,1.17-.09.24-.34.39-.2.74.45.2.83.54,1.24.82,1.57,1.09,3.28,2.2,4.8,3.38.56.44.31.29.47.93.08.34.17.67.25,1.01.06.23.24.51.18.71-.06.19-.22.17-.35.26-.57.39-1.15.81-1.72,1.18-.06.04-.32.2-.35.21-.09.04-.2,0-.28.05-.09.04-.09.2-.16.26-.09.08-.47.24-.6.33-.34.22-.65.48-.97.71-.09.07-.36.06-.26.26.14.26,1.13.09,1.4.09.96.01,1.93.07,2.89.06.29,0,.41-.06.74,0,.03,0,.16-.03.12.07-.04.09-.25.12-.34.17-.72.43-1.41.87-2.13,1.27-.92.51-1.83,1.13-2.78,1.65-.87.48-1.76,1.08-2.65,1.54-1,.52-2.09,1.26-3.09,1.85-.32.19-1.14.55-1.33.81-.08.11-.1.17-.12.3-.07.64,0,1.52,0,2.2,0,.18-.09.35,0,.56.11,1.1-.17,2.54-.01,3.59.08.55.56-.11.72-.25,1.39-1.2,2.77-2.37,4.1-3.64l.65-.54c.07.26-.12.39-.2.57-.41.94-.87,1.88-1.3,2.82-.18.39-.4.78-.56,1.17-.04.09-.26.68-.24.73.08.24.52-.07.64-.1.67-.14,1.34-.37,2.01-.55.26-.07.55-.35.89-.29.12.23-.09.34-.16.51-.31.74-.62,1.62-.88,2.39-.05.14-.18.19-.12.37l4.04,3.62c-.16.17-.42.02-.58.02-1.47.02-2.93.01-4.39,0l-4.16-.02-1.12-1.02-.35-.3c-1.62-1.39-3.15-2.92-4.74-4.31-.21-.19-.54-.28-.62-.6s-.2-.67-.31-.99c-.03-.1-.13-.17-.15-.27-.04-.17.05-.31.03-.4s-.24-.21-.3-.36c-.13-.35-.2-.88-.32-1.22-.03-.09-.12-.15-.17-.25-.12-.29-.07-.75-.44-.9-.19,0-.18.17-.27.27-.76.87-1.67,1.92-2.53,2.65-.14.11-.17.36-.42.19l-2.16-2.55-.26.02-.08,9.99-.12.02c-.05-.17-.18-.3-.26-.44-.4-.78-.73-1.58-1.14-2.36-.31-.59-.44-.31-.71.06-.55.76-1.11,1.76-1.69,2.46-.04.05-.18.21-.23.24-.11.06-1.55.07-1.62.02-.09-.18-.03-.41-.04-.61-.13-2.05-.06-4.2-.07-6.25,0-.66-.02-1.32.04-1.97,1.02-.77,2.07-1.51,3.1-2.27,1.57-1.16,3.12-2.36,4.7-3.5.12-.09.68-.37.68-.49,0-.09-.08-.14-.15-.17-.56-.28-1.36-.2-1.96-.28-.31-.05-.65-.19-.94-.23-1.26-.14-2.48-.29-3.73-.48-.19-.03-.42.04-.6-.06-.19-.11-.49-.74-.59-.95-.37-.57-.69-1.19-1.02-1.78-.09-.16-.37-.55-.43-.69-.03-.08,0-.17-.03-.22-.01-.02-.14-.07-.2-.15-.06-.09-.07-.21-.12-.3-.07-.12-.52-.71-.41-.82.27-.04.4.17.56.25,1.07.55,2.36,1.08,3.37,1.68.14.08.21.37.45.05.02-.21-.17-.35-.25-.48-.88-1.61-1.84-3.18-2.7-4.81-.08-.16-.24-.25-.25-.5-.02-.34.15-.4.29-.61.63-.96,1.39-1.96,1.93-2.93.04-.08.15-.13.17-.2.13-.42-.09-.96-.16-1.36-.05-.28-.03-.56-.06-.82-.04-.26-.29-1.13-.2-1.29s.16.28.19.32c1.37,2.44,2.78,4.9,4.11,7.36.04.08.15.13.17.2.1.32-.08.33-.17.51-.44.8-.92,1.66-1.41,2.42-.08.13-.31.22-.21.44.12.27,1.27.34,1.57.39.79.14,1.66.38,2.44.5.52.08.44-.07.88.33s.89.99,1.3,1.45c.94,1.04,1.95,2.37,2.93,3.32.06.06.34.29.41.28l12.17-11.91c.07-.14-.17-.4-.26-.5-.91-.96-2.03-1.88-2.95-2.83-.15-.15-.6-.49-.56-.69l3.26-2.96.17-.04Z"/><path class="cls-1" d="M20.3,11.9l.12-.07c.12.1.1.26.17.39.26.52.54.94.75,1.49.03.07.13.11.13.2,0,.04-.19.62-.22.71-.07.21-.17.45-.26.68-.06.18-.31.45-.16.69.1.14.23-.06.32-.1.1-.05.21-.06.31-.11.13-.06.13-.24.38-.13.56.53,1.16,1.06,1.69,1.62.1.1.45.47.44.57l-5.7,6.17c-.31.04-.27-.28-.36-.46-.4-.86-.8-1.73-1.19-2.58-.12-.26-.03-.61-.49-.54-.13.16-.12.37-.19.54-.3.75-.64,1.49-.94,2.24-.09.23-.07.69-.43.55l-.66-.95c-1.41-1.76-2.85-3.56-4.19-5.39-.25-.34-.54-.46-.35-.97.14-.36.39-.85.56-1.22,1.13-2.48,2.31-4.95,3.39-7.46.03-.08.11-.13.15-.22.26-.62-.06-1.34-.17-1.93-.29-1.56-.57-3.12-.86-4.68-.06-.32-.24-.57-.16-.93.18,0,.13.22.2.34.13.26.3.51.43.78.93,1.93,1.83,3.86,2.81,5.76.16.3.13.61.01.92-.03.09-.12.16-.16.26-.4,1.11-.76,2.22-1.16,3.32-.07.21-.3.42-.19.7l.44.44c.3.45.69.84,1.04,1.24.17.19.12.42.52.19l1.17-1.77c.21-.4-.37-2.08-.23-2.29.12-.2.19.2.22.25.36.63.83,1.28,1.17,1.91.22.4.08.74.07,1.14-.02.71-.02,1.44-.1,2.14-.02.18-.2.41-.02.59.4-.14.5-.49.73-.81s.5-.64.7-.94c.1-.15.33-.52.33-.69,0-.04-.04-.08-.04-.1v-1.49Z"/><path class="cls-1" d="M25.6,9.97s-.07-.19-.13-.27c-.34-.45-.69-.84-1.02-1.31-.07-.11-.22-.16-.21-.3,0-.09.04-.18.07-.26.39-.95.81-1.87,1.19-2.83.03-.08.08-.44.13-.43.18,0,.35.66.42.8.39.85.81,1.69,1.19,2.54.07.15.13.42.04.57l-1.52,1.55c-.05,0-.12-.02-.15-.06Z"/><path class="cls-1" d="M1.16,16.57c0-.21-.17-.29-.25-.42-.21-.34-.41-.72-.61-1.07C.2,14.92,0,14.8,0,14.54c0-.03.12-.51.14-.56.3-.85.65-1.7.94-2.56.06-.18.02-.4.16-.54.3.25.27.59.37.89.24.76.53,1.53.79,2.29.08.24.31.39.15.67-.23.43-.65.94-.93,1.36-.12.19-.13.5-.47.48Z"/><path class="cls-1" d="M9.05,13.05c-.33-.08-.04-.38,0-.53.79-2.46,1.33-4.99,2.15-7.44.03-.09.05-.5.19-.47.03,0,.25.57.28.65.12.33.22.83.34,1.15.08.21.22.31.24.61.02.38-.12.35-.25.59-.86,1.59-1.73,3.27-2.67,4.85-.12.2-.29.25-.28.59Z"/></svg>