<?xml version="1.0" encoding="UTF-8"?><svg width="128" height="128" id="Isolation_Mode" data-name="Isolation Mode" xmlns="http://www.w3.org/2000/svg" viewBox="0 0 31.71 31.92"><defs><style>
      .cls-1 {
        fill: #1d1d1b;
      }
    </style></defs><path class="cls-1" d="M17.49,4.19l3.71.95.68,2.84c.29.06.26-.22.33-.44.39-1.22.75-2.46,1.06-3.71l2.07-1.57c.24.08.09.52.05.72-.18,1.04-.48,2.08-.64,3.13l.88,1.56,1.75-1.01.26-1.96c.42.19,1.2,1.22,1.07,1.63l-4.93,8.01-5.01,2.03-2.41,4.11-5.24-.04-5.31-4.86-.32.09c-1.22.97-2.38,2.06-3.66,2.96-.19.13-.2.31-.55.22L0,10.03l2.75,3.1.88-.65L1.61,7.72l2.63-4.06c.38-.06.24.54.21.76-.13.85-.76,2.29-.68,3.09.07.64,1.25,3.32,1.58,4.15.09.24.06.66.38.61l.27-6.4,2.85,2.45c.35-1.5.87-3.01,1.41-4.46.09-.23.08-.66.39-.6l.63,6.28-2.4,1.32c.26.46.11.96.26,1.46.33,1.04,1.83,2.18,2.09,3.31l.44-.11.47-3.64,1.54.89c.02-1.21.97-2.85.59-3.98-.12-.35-1.78-2.75-1.65-2.87l3.72,2.14-.47,4.16.22,1.22,1.75-3.22c-.08-.88.7-2.86.06-3.49-.5-.49-1.96-1.17-2.64-1.46v-.32S17.52,0,17.52,0c.38-.05.21.51.21.77.01,1.17-.1,2.26-.24,3.41Z"/><path class="cls-1" d="M28.43,17.08l-.16,7.28-8.11,7.56H7.81S1.92,21.38,1.92,21.38l2.97-2.92,5.76,4.64c.79.24,1.48-.14,2.17-.18,1.48-.09,3.18-.03,4.64-.18.25-.03.51-.15.73-.26.91-1.1,1.84-3.47,2.83-4.36.78-.69,2.53-1.16,3.37-1.93l4.04.89Z"/><path class="cls-1" d="M26.02,14.63l3.36-6.59c.29-.3,1.96.86,2.32,1.11-.27.85-1.53,5.8-1.92,6.07-.42.3-3.07-.5-3.76-.59Z"/></svg>