<?xml version="1.0" encoding="UTF-8"?>
<svg id="Layer_2" data-name="Layer 2" xmlns="http://www.w3.org/2000/svg" viewBox="0 0 1274.33 1354.32">
  <defs>
    <style>
      .cls-1 {
        fill: #25211e;
      }

      .cls-2 {
        fill: #f75625;
      }
    </style>
  </defs>
  <g id="a">
    <g>
      <g>
        <path class="cls-2" d="M508.92,647.62c-26.81-17.1-43.6-35.1-75.92-44.96-48.32-14.74-55.47-1.3-96.88,13.08-36.48,12.67-69.04,14.14-99.94,41.93-24.41,21.96-23.27,40.33-34.68,67.2-9.46,22.28-24.11,44.64-34.33,68.56-4.31,0-5.47-2.38-7.66-5.32-12.15-16.28-18.06-38.76-14.31-58.59,3.53-3.31,14.48,16.89,21.79,11.8,8.58-5.97-12.48-41.19-14.81-49.76-14.99-55.17,38.12-88.78,22.42-142.25-1.64-5.59-11.66-19.36-11.42-20.5,2.34-11.16,24.24,5.95,28.07,9.86,8.26,8.45,18.18,26.47,19.72,38.21,1.65,12.55-6.68,57.31,14.24,53.97,23.24-3.71,20.79-47.89,16.58-64.8-5.99-24.09-22.06-36.16-30.17-57.73-14.53-38.61-4.1-87.44,22.53-118.36,1.7-.75,4.97,2.38,4.97,2.99v43.94c0,8.71,13.82,40.46,19.16,48.76,7.41,11.51,32.84,36.76,47.5,31.93,12.38-4.08-11.07-42.02-.48-58.49,6.26-9.73,11.62,12.13,15.76,17.74,12.24,16.62,31.22,21.4,40.96,42.95,9.55,21.12,3.67,45.49,30.43,55.49,12.5,4.67,21.89-.96,22.42-14.72.38-9.83-11.32-22.85-14.83-32.84-1.64-4.67-7.96-26.13-2.02-27.9,1.89-.35,3.37-.08,5.02.94s13.56,16.21,17.92,20.04c11.95,10.51,28.39,18.86,38.82,31.11,17.12,20.1,18.28,48.45,30.8,71.09,5.37,9.71,13.56,14.99,18.34,24.62Z"/>
        <path class="cls-2" d="M33.27,1260.83c6.07-26.98,7.23-76.73-2.44-102.42-1.78-4.73-8.72-11.83-7.47-16.24,4.04-14.21,32.98,15.94,34.92,16.77,3.4,1.46,2.63-1.26,3.19-2.71,10.13-26.45-30.72-69.8-33.97-100.35s15.6-52.17,17.63-80.01c.28-3.88-5.02-18.42,3.09-16.64,7.48,1.64,15.55,23.85,16.82,31.15,1.74,9.97-.44,49.17,20.17,39.72,16.11-7.39,5.53-47.22.39-60.26-12.92-32.77-26.05-41.25-22.31-81.5.35-3.76,7.75-39.57,15.95-30.99-.2,18.9,4.39,37.89,15.54,53.39,17.32,24.06,47.58,20.32,52.21,57.68,1.18,9.52-1.42,19.42,2.21,28.75-7.89,15.12-25.75,43.33-29.08,57.82-2.65,11.53-1.68,25.08-3.44,36.51-5.64,36.63-22.91,56.25-38.46,87.4-13.15,26.34-21.83,52.44-38.98,77-1.72,2.47-1.49,5.93-5.95,4.94Z"/>
        <path class="cls-2" d="M329.05,1085.06c12.67,22.92,26.37-4.83,39.3-13.65,8.06-5.5,18.8-9.72,28.64-8.31.99,7.62-6.94,10.63-10.81,16.14-21.28,30.34-4.78,58.94-44.54,83.32-21.2,13-58.84,16.14-58.55,48.33,17.52-2.9,35.02-14.24,52.68-3.73,15.18,9.04-7.45,12.68-13.36,16.07-24.09,13.81-31.62,35.52-50.26,53.63-47.39,46.05-103.1,30.86-160.94,47.88,15.65-11.49,31.4-14.69,47.02-27.91,9.26-7.84,17.78-21.66,25.94-28.01,10.33-8.04,24.87-9.2,36.04-19.91,17.52-16.78,21.08-44.23,33.99-57.91,5.14-5.44,16.05-9.69,22.59-17.37,14.41-16.92,14.69-37.22,24.57-53.34,6.75-11.01,22.45-21.42,27.69-35.24Z"/>
        <path class="cls-2" d="M510.92,1111.02c.4.48,5.7,1.47,8.92,6.07,4.3,6.16,5.09,15.13,9.98,21.98,8.14,11.41,22.82,16.28,33.09,24.86,9.42,7.87,14.08,18.38,21.89,26.07,7.27,7.16,18.74,11.58,26.11,17.85,8.88,7.56,13.79,19.96,22.94,27.01,17.62,13.57,47.3,12.79,62.95,31.97-17.14-1.71-34.36,7.88-51.06,8.06-48.54.54-86.11-43.14-123.8-39.99-6.83.57-20.29,8.6-19.06-2.95.54-5.01,17.68-17.04,22.69-19.41,17.08-8.08,30.45-4.7,48.31-3.63,4.08-7-8.89-13.05-14.42-15.55-30.67-13.87-58.57-3.7-82.15-35.74-6.98-9.49-11.08-22.74-18.34-31.61-6.25-7.64-18-10.97-17.97-20.97,21.73-5.06,33.59,11.04,50.16,18.75,15.81,7.36,16.18,1.62,19.78-12.77Z"/>
        <path class="cls-2" d="M852.67,1041.11c18.06-12.81,32.67-31.38,29.97-54.92,16.14-1.68,17.05,27.93,16.07,40.01-1.53,18.91-13.18,30.43-15.54,46.39-.63,4.27-2.79,27.03,5.54,21.52,1.54-1.02,8.12-14.97,11.1-18.87,8.79-11.51,24.71-22.78,39.75-22.22,3.02.11,5.86-1.35,5.02,3.04-36.09,32.4-18.1,78.77-41.11,118.71-22.07,38.31-40.23,35.92-70.79,58.08,2.95-13.69,15.1-23.27,20.95-35.99,15.44-33.59,4.46-48.27,3.44-78.86-.92-27.43,10.54-47.58-4.4-76.9Z"/>
        <path class="cls-2" d="M283.07,443.88c-5.39.88-7.95-2.34-10.85-6.12-26.46-34.38,5.69-61.42-3.12-97.73,8.01-8.28,25.1,34.69,25.75,41.16,2.39,23.68-14.25,39.39-11.78,62.69Z"/>
        <path class="cls-2" d="M450.96,987.18c-8.33-.16-14.59-10.61-17.65-17.31-10.72-23.41-13.12-41.76-10.11-67.37,1.57-13.34,9.03-26.66,9.07-38.56.02-6.27-2.57-9.92-6.82-3.13-11.34,18.15-16.26,41.26-17.45,62.44-13.8-9.1-17.35-22.53-25.38-34.56-11.39-17.05-24.37-31.54-30.15-51.76-1.42-4.96-4.75-39.78-13.48-34.65-10.14,5.96-1.09,53.48,3.66,64.44,10.37,23.98,22.46,21.53,17.85,55.03-1.41,10.24-21.18,80.3-25.45,86.42-3.03,4.33-10.39,12.73-13.58,5.55-4.52-10.19-2.2-31.89-6.58-42.95-.77-1.95-3.62-1.83-4.45-4.05-1.53-4.06-.69-12.08-5.41-17.49-7.18-4.88,1.56,30.94,1.78,33.2,2.63,26.51,7.65,73.91-6.05,97.33-4.75,8.13-16.41,14.84-22.08,23.88-8.79,14.01-8.68,32.06-17.93,45.99-8.07,12.15-22.51,16.42-30.51,27.43-12.94,17.8-14.94,44.85-36.39,57.51-6.52,3.85-15.28,4.07-21.72,8.26-11.56,7.51-22.25,27.53-35.07,36.85s-81.96,44.62-95.3,46.6c-6.1.9-13.37,1.96-12.53-6.4.38-3.81,36.75-53.93,42.35-63.7,14.33-25.03,25.74-53.35,38.59-79.28,10.14-20.46,21.73-34.3,28.04-57.86,5.38-20.07,6.53-47.97,11.87-66.03,3.07-10.38,21.18-34.58,27.42-46.5,30.1-57.51,42.32-115.36,66.64-173.09,4.73-11.22,18.54-28.82,20.89-37.06.96-3.37-.31-2.96-2.98-2.99-16.68-.19-27.78,32.26-38.15,43.8-14.34,15.97-40.76,29.82-62.73,28.17-2.91-2.83,12.77-19.65,15.26-23.68,12.99-21,16.35-43.54,26.94-64.96,6.43-13,16.13-24.11,22.09-37.85,5.99-13.82,7.54-28.11,14.61-41.33,14.31-26.77,44.59-39.41,72.97-45.9-.47,11.46-17.46,16.64-18.04,26.92-.18,3.13-.31,3.48,3.02,3,23.54-15.33,48.38-41.12,74.43-51.46,52.39-20.79,90.73,22,130.63,46.33,16.37,9.98,38.82,16.82,52.79,27.14,12.14,8.96,22.29,25.99,32.93,37,27.95,28.93,55.4,44.98,76.34,81.5,11.26,19.64,15.77,42.72,30.64,59.26-.26-14.95-5.62-34.84-10.48-49.45-16.77-50.45-39.81-60.77-70.48-97.34-1.88-2.24-4.85-3.25-3.97-7l73.3,35.58c41.79,18.35,47.66,66.23,62.22,103.6,8.56,21.96,25.2,39.9,34.67,61.22,11.6,26.09,10.95,51.8,20.12,77.77,6.23,17.63,29.28,49.11,31.38,62.51.93,5.95-.34,12.77.1,18.85l-22.98-21.96c-3.07-.48-3.46-.07-3.01,3,.82,5.63,14.28,23.74,17.74,32.22,7.08,17.36,12.16,44.93,10.25,63.61-2.5,24.4-34.58,74.45-59.93,80.9,3.43-5.44,11.99-19.07,11.99-24.95v-30.96c-2.28.27-4.43-1.16-6.17,1.19-6.45,8.73-4.1,27.94-15.86,41.7-29.51,34.55-54.05,4.99-82.54-7.3-8.8-3.8-24.89-5.91-31.29-10.68-10.07-7.49-22.07-31.23-22.19-43.89-.12-13.44,6.06-10.92,11-19.13,4.64-7.71,9.44-39.28,1.15-42.81-5.43-2.32-3.62,10.69-4.2,13.79-4.01,21.34-16.14,36.02-15.79,57.12-18.14-3.66-24.67-22.06-35.92-32.99-13.93-13.53-34.34-15.29-39.04-36.88-4.26-19.57,4.05-23.99,8.11-39.88,3.31-12.95,5.83-34.14-3.07-44.04-.64,23.32-11.27,42.41-18.03,63.91-3.87.99-3.85-1.57-5.62-3.34-7.12-7.12-10.81-19.13-17.29-26.66-9.03-10.49-21.08-11.96-29.42-24.53-5.19-7.82-18.7-43.32-19.57-52.34-2.69-27.97,13.71-46.15,11.94-72.88l-13.68,23.25c-1.29,2.98-8.28,20.52-8.28,21.69v32.96ZM407,659.6c1.56-1.58-.69-9.37-3.99-10.98-13.81-6.73-36.18,9.61-31.75,23.67,3.14,9.96,14.96-9.04,20.26-11.17,4.98-2.01,14.94-.97,15.49-1.52ZM430.97,653.62h-5.98c-.47,3.69-.12,5.86,3.02,7.96h2.96s0-7.96,0-7.96ZM500.74,709.36c1.52-2.17,0-6.59-1.84-8.79-4.1-4.91-46.41-27.33-53.4-28.49-7.75-1.29-21.53-1.6-17.24,9.5,15.56-4.85,62.23,42.43,72.48,27.77ZM427.25,705.82c5.42-3.48,17.96,4.28,20.67,3.73,9.65-1.95-7.47-17.93-17.63-17.4-11.09.58-22.22,18.73-10.26,21.44,7.86,1.78,4.94-6.31,7.21-7.77ZM345.04,699.53c-1.72-12.99-24.77-3.97-21.88,6.81,7.49,9.6,12.92-7.54,21.88-6.81ZM273.1,711.55c-.52-.54-12.64-.32-14.9.09-10.57,1.93-19.72,16.96-13.17,26.96,5.04,7.7,7.56-6.56,10.06-10.1,4.07-5.77,22.75-12.04,18.02-16.95ZM351.03,765.46c.14-6.04-4.13-8.18-4.1-14.83.03-6.91,11.38-25.22,1.11-25.18-13.04.05-25.29,47.52,2.99,40ZM544.36,730.05c-1.18-1.21-10.65-5.41-11.44-4.52-4.32,7.48,9.89,20.04,14.99,19.92,5.24-.13-2.41-14.23-3.55-15.39ZM476.43,744.04c-2.33-2.13-6.37-2.65-9.46-2.52-1.65,8.22,3.26,15.13,10.95,17.96,5.59-1.18,1.02-13.15-1.49-15.43ZM283.07,783.44c2.1-5.48-4.86-10.5-3.82-14.6.39-1.55,22.3-16.12,6.81-17.45-20.37-1.75-28.23,33.74-2.99,32.05ZM315.04,769.47c-9.77,4.97-2.52,33.98,6.98,31.95,10.07-2.16-9.83-25.64-6.98-31.95ZM389,771.47c-10.65.11-19.76,15.24-20.07,25.03-.44,13.89,9.79,18.11,11.67,26.32,1.87,8.19-3.61,30.7,7.4,32.56,6.43,1.09.85-9.84,1.02-12.99.38-7.11,4.62-17.31,3.98-23.81-.75-7.69-10.39-12.96-10.09-24.05.21-8.15,7.11-14.58,6.09-23.04ZM609.3,792.98c-1.19-1.17-2.18-9.42-5.6-13.38-5.63-6.52-23.4-13.85-24.82-.16,15.23-2.81,17.67,14.35,24.91,20.05,3.8,2.99,9.14,2.56,13.11,6.87,7.63,8.29,1.02,24.61,5.83,28.13,7.04,5.15,7.86-6.12,8.19-12.01.57-10.49-.2-20.13-10.22-25.89-3.36-1.93-10.25-2.48-11.39-3.61ZM436.99,785.44c-2.24,1.83-3.29,19.7,4.95,17.97,6.65-1.4,2.85-24.33-4.95-17.97ZM682.78,785.46c-3.48-3.47-10.2,3.2-2.96,5.96,4.25,1.62,3.55-5.37,2.96-5.96ZM702.78,801.42c.41,3.94-1.06,13.54.28,15.68,3.59,5.75,23.4-2.26-.28-15.68-1.08-10.26-4.59-15.46-15.98-13.97.83,9.26,10.52,10.88,15.98,13.97ZM223.12,791.45c-8.49-7.85-29.17,29.17-20.11,37.07,9.64,2.78,19.12.37,18.11-11.1-3.43-.82-10.83,2.58-10.02-3.01s14.99-20.2,12.02-22.95ZM736.75,993.16c1.29-1.25-7.59-17.21-9.14-19.8-6.27-10.45-16.11-18.05-21.24-26.71-6.66-11.25-9.04-28.3-15.2-40.73-20.01-40.39-57.46-38.24-79.98-67.88-12.16-16-19.98-45.29-44.3-42.6l17.63,25.3c8.07,22.59,19.27,39.24,38.87,53.03,31.61,22.23,44.96,21.99,65.77,60.11,12.15,22.27,18.68,51.03,47.58,59.28ZM544.9,859.34c13.17-5.21,10.15-18.58,3.04-28.01-4.82-6.38-25.52-22.14-20.69-5.31,1.46,5.09,10.36,7.52,13.41,12.59,3.22,5.35,4.13,14.49,4.24,20.73ZM414.98,837.39c-11.2-1.56-7.62,10.06-7.97,17.96,9.7-.58,8.26-10.74,7.97-17.96ZM478.93,841.38c-12.78-2.55-16.1,29.92-6.92,31.93,9.29,2.03,6.83-27.36,6.92-31.93ZM750.63,921.17c.39-.36,1.42-8.89,1.37-10.56-.67-19.77-16.51-28.02-26.11-41.4-1.17-1.63-10.93-24.58-15.11-19.84-1.67,21.79,18.79,37.62,26.78,54.11,1.75,3.61,4.63,16.95,5.46,17.51,1.01.68,7.19.56,7.61.17ZM315.02,859.36c-5.86-1.39-5.53,5.24-4.74,9.55,1.46,7.89,6.01,16.31,8.53,22,2.96,6.7,9.67,14.89,10.16,21.59.43,5.96-12.98,43.3,2.88,38.59,6.82-2.03,10.25-39.29,9.07-46.69-2.3-14.45-21.14-30.73-25.89-45.05ZM221.13,989.18c-10.22-2.08-24.02,13.37-29.93,21.02-4.5,5.83-16.56,27.15-4.81,30.8,2.81.87,23.45-9.03,20.75-15.87,34.55-8.83,34.12-48.58,42.52-74.36,5.57-17.1,37.67-71.92,25.66-88.26-1.38-1.87-6.83-1.77-8.89-1.25-2.58.66-15.33,42.84-18.35,49.99-4.59,10.84-15.61,25.59-17.98,35.96-3.53,15.4-.69,25.76-8.97,41.97ZM663.34,920.74c-7.17-7.17-3.4-21.19-23.5-17.43-15.34,2.86,5.53,9.26,7.13,10.83,3.64,3.59,3.89,11.47,7.79,16.18s10.58,4.93,12.99,8.99c2.99,5.02,1.6,14.77,4.91,19.06,10.89,14.15,15.76-19.61,3.2-31.15-3.6-3.31-10.21-4.18-12.51-6.48ZM536.89,933.26c-11.5-.97-12.4,13.22-11.97,21.95,11.91.54,12.84-12.66,11.97-21.95ZM786.71,1051.11c2.17-12.07-2.1-22.14-3.79-33.17-1.44-9.41.71-14.03-3.85-24.11-2.25-4.96-29.81-38.26-34.17-41.76-2.36-1.89-8.37-4.57-10.14-2.83-5.04,4.95,29.68,46.66,32.44,54.45,3.99,11.29,5.65,36.59,13.37,46.17,1.85,2.3,3.78,1.05,6.13,1.25ZM505.95,959.23c-6.84,1.43-18.27,40.35-16.89,48.82,1.7,10.43,30.94,36.1,29.87,18.25-.56-9.34-15.02-14.49-15.98-24.31-.6-6.11,14.96-45.27,3-42.76ZM586.89,979.2c-7.46,8.7-3.15,37.06,10.55,33.67,14.8-3.66-2.56-13.83-3.55-15.73-2.59-4.96-.2-15.01-7-17.94ZM684.77,1007.15c3.73-2.96,6.44-26.84-3.94-19.96-3.49,2.31-2.81,25.32,3.94,19.96ZM273.35,1074.78c2.62,1.58,8.39.45,9.46-2.98,1.16-3.72,4.51-32.92,4.44-37.65-.11-7.86-8.35-42.02-19.12-38.97-7.36,2.08,4.36,21.93,5.06,28.86,1.49,14.8-5.2,26.55-4.2,38.06.19,2.22,3.44,12.13,4.36,12.69ZM732.77,1031.14c-1.1,1.09,5.55,28.3,12.96,25.94,11.18-3.56-4.73-34.09-12.96-25.94ZM191.15,1051.11c-26.61-2.18-23.95,25-28.91,42-6.39,21.88-15.97,42.99-19.04,65.84,4.19.73,5.59-2.64,7.63-5.34,8.13-10.76,16.45-27.67,20.39-40.6l3.93,2.01c-.08-2.94-1.82-5.42-1.54-8.47.6-6.51,7.33-31.91,10.03-37.99,2.45-5.51,9.7-9.13,7.51-17.45ZM244.84,1053.38c-11.04-6.85-2.18,19.38-1.76,24.71,1.79,22.7-8.55,41.51-5.93,62.88,8.91,6.09,15.41-25.47,15.94-30.97.87-8.97-1.54-52.45-8.25-56.62ZM708.77,1095.03c-.13-6.14-7.3-8.16-9.1-13.86-3.28-10.4,4.64-29.93-12.88-28.06,4.92,17.79-10.36,49.15,21.97,41.92ZM590.83,1055.1c-3.15-2.97-3.41.67-4.19,2.76-2.3,6.18-.87,12.21-2.22,17.75-1.48,6.04-7.13,12.55-9.09,18.88-3.07,9.92-6.5,32.12,8.94,32.09,12.87-.02.68-11.91.39-16.55-.46-7.54,6.91-17.76,8.03-26.15.64-4.79.75-26.32-1.86-28.78ZM656.77,1055.11c-9.21-6.12-12.55,23.79-2.91,26.01,11.84,2.73,4.99-24.62,2.91-26.01ZM782.73,1148.96c16.18-3.91,31.85-19.64,24.46-37.44-1.53-3.67-6.15-6.23-8.16-9.81-2.46-4.37-6.11-17.09-9.34-18.64-4.91-2.36-3.11,14.67-2.79,16.79,1.41,9.33,9.48,14.55,7.84,24.05-1,5.82-13.82,16.32-12.01,25.05ZM111.22,1268.81c12.46-.25,25.01-10.81,32.8-20.13,5.23-6.26,19.15-33.2,23.15-34.92,1.98-.86,4.25,2.67,7.09,3.09,31.74,4.6,34.59-50.37,40.8-70.94.88-2.92,18.61-39.05,7.08-38.83-6.19.12-26.45,70.56-30.4,79.43-3.68,8.27-8.08,16.94-18.55,16.4l-.02-17.96c-4.6-5.03-16.6,23.75-18.37,26.57-4.55,7.26-10.17,15.82-15.66,22.3-4.8,5.66-34.38,28.66-27.91,35ZM756.72,1107.04c-5.45-3.95-7.44,14.5-8.94,18-1.62,3.78-10.82,11.83-4.76,15.69,16.05,10.23,19.53-29.46,13.7-33.69ZM676.81,1174.93c2.65-33.63-16.71-1.63-8.2,9.18,9.65,12.25,33.85-16.77,8.2-9.18ZM812.16,1184.35c6.53-6.3,6.34-20.01-3.43-23.39.67,6.12-7.26,18.29-5.94,22.8s6.83,3.03,9.37.58ZM137.18,1172.95c-9.22-.18-24.69,26.87-19.96,31.94,10.07,3.77,21.57-30.19,19.96-31.94ZM756.73,1182.92c-5.69-5.54-12.34,16.42-18.01,18.95-6.89,3.08-21.28-3.16-20.07,7.99,1.45,13.39,32.37,5.52,37.17-10.87.83-2.82,1.73-15.28.9-16.08Z"/>
        <path class="cls-1" d="M111.22,1268.81c-6.47-6.35,23.11-29.34,27.91-35,5.49-6.48,11.11-15.04,15.66-22.3,1.77-2.82,13.77-31.59,18.37-26.57l.02,17.96c10.48.55,14.87-8.13,18.55-16.4,3.95-8.87,24.21-79.31,30.4-79.43,11.54-.22-6.19,35.91-7.08,38.83-6.21,20.57-9.05,75.54-40.8,70.94-2.84-.41-5.11-3.94-7.09-3.09-4,1.73-17.92,28.66-23.15,34.92-7.78,9.32-20.34,19.88-32.8,20.13Z"/>
        <path class="cls-1" d="M786.71,1051.11c-2.36-.2-4.28,1.05-6.13-1.25-7.72-9.58-9.38-34.87-13.37-46.17-2.75-7.79-37.48-49.5-32.44-54.45,1.77-1.74,7.78.94,10.14,2.83,4.36,3.49,31.92,36.79,34.17,41.76,4.57,10.09,2.41,14.7,3.85,24.11,1.68,11.02,5.96,21.09,3.79,33.17Z"/>
        <path class="cls-1" d="M315.02,859.36c4.75,14.32,23.59,30.6,25.89,45.05,1.18,7.39-2.25,44.66-9.07,46.69-15.86,4.72-2.44-32.63-2.88-38.59-.49-6.7-7.2-14.89-10.16-21.59-2.52-5.7-7.07-14.11-8.53-22-.8-4.31-1.12-10.94,4.74-9.55Z"/>
        <path class="cls-1" d="M273.35,1074.78c-.92-.55-4.16-10.46-4.36-12.69-1-11.51,5.69-23.26,4.2-38.06-.7-6.92-12.42-26.77-5.06-28.86,10.77-3.05,19.01,31.1,19.12,38.97.07,4.73-3.28,33.93-4.44,37.65-1.07,3.43-6.84,4.56-9.46,2.98Z"/>
        <path class="cls-1" d="M505.95,959.23c11.96-2.51-3.61,36.66-3,42.76.97,9.82,15.42,14.97,15.98,24.31,1.07,17.85-28.17-7.82-29.87-18.25-1.38-8.47,10.06-47.39,16.89-48.82Z"/>
        <path class="cls-1" d="M389,771.47c1.02,8.46-5.88,14.89-6.09,23.04-.29,11.1,9.34,16.37,10.09,24.05.64,6.5-3.6,16.71-3.98,23.81-.17,3.16,5.41,14.08-1.02,12.99-11.01-1.86-5.53-24.37-7.4-32.56-1.87-8.2-12.1-12.43-11.67-26.32.31-9.79,9.41-24.91,20.07-25.03Z"/>
        <path class="cls-1" d="M663.34,920.74c2.3,2.3,8.91,3.17,12.51,6.48,12.56,11.54,7.7,45.3-3.2,31.15-3.31-4.29-1.92-14.04-4.91-19.06-2.41-4.06-9.01-4.18-12.99-8.99s-4.15-12.6-7.79-16.18c-1.59-1.57-22.46-7.97-7.13-10.83,20.11-3.75,16.33,10.26,23.5,17.43Z"/>
        <path class="cls-1" d="M244.84,1053.38c6.71,4.17,9.12,47.65,8.25,56.62-.53,5.5-7.03,37.06-15.94,30.97-2.62-21.37,7.72-40.18,5.93-62.88-.42-5.33-9.27-31.56,1.76-24.71Z"/>
        <path class="cls-1" d="M750.63,921.17c-.42.39-6.6.5-7.61-.17-.83-.56-3.71-13.9-5.46-17.51-7.99-16.49-28.45-32.32-26.78-54.11,4.18-4.74,13.94,18.21,15.11,19.84,9.6,13.37,25.43,21.63,26.11,41.4.06,1.67-.97,10.2-1.37,10.56Z"/>
        <path class="cls-1" d="M609.3,792.98c1.15,1.13,8.03,1.67,11.39,3.61,10.02,5.76,10.79,15.4,10.22,25.89-.32,5.89-1.14,17.16-8.19,12.01-4.81-3.52,1.8-19.84-5.83-28.13-3.97-4.32-9.31-3.89-13.11-6.87-7.24-5.7-9.68-22.85-24.91-20.05,1.42-13.69,19.19-6.36,24.82.16,3.42,3.96,4.41,12.21,5.6,13.38Z"/>
        <path class="cls-1" d="M782.73,1148.96c-1.81-8.73,11.01-19.23,12.01-25.05,1.63-9.5-6.44-14.72-7.84-24.05-.32-2.11-2.12-19.15,2.79-16.79,3.23,1.55,6.88,14.27,9.34,18.64,2.01,3.57,6.63,6.13,8.16,9.81,7.39,17.8-8.28,33.53-24.46,37.44Z"/>
        <path class="cls-1" d="M590.83,1055.1c2.61,2.46,2.5,23.99,1.86,28.78-1.12,8.38-8.49,18.6-8.03,26.15.28,4.64,12.48,16.53-.39,16.55-15.44.03-12.01-22.17-8.94-32.09,1.96-6.33,7.62-12.83,9.09-18.88,1.35-5.54-.08-11.57,2.22-17.75.78-2.09,1.04-5.73,4.19-2.76Z"/>
        <path class="cls-1" d="M221.13,989.18c-6.2,12.15-18.85,17.21-23.12,29.86-3.22,9.53,3.3,7.58,9.13,6.09,2.7,6.84-17.94,16.74-20.75,15.87-11.75-3.65.31-24.97,4.81-30.8,5.91-7.65,19.71-23.11,29.93-21.02Z"/>
        <path class="cls-1" d="M756.73,1182.92c.82.8-.08,13.26-.9,16.08-4.8,16.39-35.72,24.26-37.17,10.87-1.21-11.15,13.18-4.92,20.07-7.99,5.67-2.53,12.32-24.49,18.01-18.95Z"/>
        <path class="cls-1" d="M708.77,1095.03c-32.34,7.24-17.06-24.13-21.97-41.92,17.51-1.87,9.6,17.66,12.88,28.06,1.8,5.7,8.97,7.72,9.1,13.86Z"/>
        <path class="cls-1" d="M351.03,765.46c-28.28,7.52-16.03-39.95-2.99-40,10.27-.04-1.08,18.27-1.11,25.18-.03,6.65,4.25,8.79,4.1,14.83Z"/>
        <path class="cls-1" d="M407,659.6c-.55.55-10.51-.49-15.49,1.52-5.3,2.13-17.11,21.13-20.26,11.17-4.43-14.05,17.93-30.39,31.75-23.67,3.3,1.61,5.56,9.4,3.99,10.98Z"/>
        <path class="cls-1" d="M223.12,791.45c2.98,2.75-11.19,17.2-12.02,22.95s6.59,2.19,10.02,3.01c1.01,11.47-8.47,13.88-18.11,11.1-9.07-7.89,11.61-44.92,20.11-37.07Z"/>
        <path class="cls-1" d="M544.9,859.34c-.1-6.25-1.01-15.38-4.24-20.73-3.05-5.06-11.95-7.5-13.41-12.59-4.84-16.83,15.87-1.07,20.69,5.31,7.11,9.42,10.13,22.79-3.04,28.01Z"/>
        <path class="cls-1" d="M427.25,705.82c-2.28,1.46.65,9.56-7.21,7.77-11.96-2.71-.83-20.86,10.26-21.44,10.16-.53,27.28,15.45,17.63,17.4-2.71.55-15.25-7.21-20.67-3.73Z"/>
        <path class="cls-1" d="M283.07,783.44c-25.24,1.69-17.38-33.81,2.99-32.05,15.49,1.33-6.42,15.9-6.81,17.45-1.04,4.1,5.93,9.12,3.82,14.6Z"/>
        <path class="cls-1" d="M273.1,711.55c4.74,4.91-13.95,11.17-18.02,16.95-2.5,3.55-5.02,17.8-10.06,10.1-6.55-10,2.6-25.03,13.17-26.96,2.27-.41,14.39-.63,14.9-.09Z"/>
        <path class="cls-1" d="M756.72,1107.04c5.83,4.22,2.35,43.92-13.7,33.69-6.06-3.86,3.14-11.92,4.76-15.69,1.5-3.5,3.49-21.94,8.94-18Z"/>
        <path class="cls-1" d="M586.89,979.2c6.8,2.94,4.41,12.99,7,17.94,1,1.91,18.35,12.07,3.55,15.73-13.71,3.39-18.02-24.97-10.55-33.67Z"/>
        <path class="cls-1" d="M676.81,1174.93c25.65-7.59,1.45,21.43-8.2,9.18-8.52-10.81,10.85-42.82,8.2-9.18Z"/>
        <path class="cls-1" d="M478.93,841.38c-.09,4.57,2.37,33.96-6.92,31.93-9.18-2.01-5.85-34.48,6.92-31.93Z"/>
        <path class="cls-1" d="M732.77,1031.14c8.23-8.16,24.14,22.38,12.96,25.94-7.41,2.36-14.06-24.85-12.96-25.94Z"/>
        <path class="cls-1" d="M656.77,1055.11c2.09,1.39,8.93,28.73-2.91,26.01-9.64-2.22-6.3-32.13,2.91-26.01Z"/>
        <path class="cls-1" d="M315.04,769.47c-2.85,6.31,17.05,29.79,6.98,31.95-9.5,2.03-16.76-26.97-6.98-31.95Z"/>
        <path class="cls-1" d="M812.16,1184.35c-2.54,2.45-8.08,3.79-9.37-.58s6.6-16.69,5.94-22.8c9.77,3.38,9.96,17.09,3.43,23.39Z"/>
        <path class="cls-1" d="M345.04,699.53c-8.96-.73-14.39,16.41-21.88,6.81-2.88-10.78,20.16-19.8,21.88-6.81Z"/>
        <path class="cls-1" d="M536.89,933.26c.87,9.29-.06,22.5-11.97,21.95-.43-8.73.47-22.92,11.97-21.95Z"/>
        <path class="cls-1" d="M544.36,730.05c1.14,1.16,8.79,15.27,3.55,15.39-5.11.13-19.31-12.43-14.99-19.92.79-.89,10.26,3.32,11.44,4.52Z"/>
        <path class="cls-1" d="M476.43,744.04c2.5,2.28,7.08,14.25,1.49,15.43-7.69-2.83-12.6-9.74-10.95-17.96,3.09-.13,7.13.4,9.46,2.52Z"/>
        <path class="cls-1" d="M684.77,1007.15c-6.76,5.36-7.43-17.65-3.94-19.96,10.38-6.88,7.68,17,3.94,19.96Z"/>
        <path class="cls-1" d="M702.78,801.42c23.68,13.42,3.86,21.43.28,15.68-1.34-2.14.14-11.74-.28-15.68-5.46-3.1-15.14-4.72-15.98-13.97,11.39-1.49,14.9,3.71,15.98,13.97Z"/>
        <path class="cls-1" d="M436.99,785.44c7.8-6.36,11.59,16.57,4.95,17.97-8.24,1.73-7.19-16.14-4.95-17.97Z"/>
        <path class="cls-1" d="M414.98,837.39c.29,7.21,1.72,17.38-7.97,17.96.35-7.9-3.23-19.52,7.97-17.96Z"/>
        <path class="cls-1" d="M430.97,653.62v7.97s-2.96,0-2.96,0c-3.14-2.1-3.48-4.28-3.02-7.96h5.98Z"/>
        <path class="cls-1" d="M682.78,785.46c.59.59,1.29,7.58-2.96,5.96-7.24-2.76-.52-9.44,2.96-5.96Z"/>
      </g>
      <g>
        <path class="cls-1" d="M804.71,146.28c22.08,11.98,41.94,52.7,48.6,76.27,5.94,21.03,7.66,46.15,15.37,67.54,2.44,2.18,20.67-15.5,23.97-17.97,48.57-36.33,153.09-110.76,215.83-90.87,43.41,13.76,44.16,58.49,43.9,96.02-.02,2.57,2.08,4.57,2.08,4.83-.15,20.02-9.41,39.83-11.99,59.92-5.53,18.03-12.56,44.1-14.06,62.85-.97,12.14,2.22,23.04,2.16,33.92-.1,15.87-3.77,32.48-2.1,48.06,1.01,9.46,5.56,18.23,6.01,28.95.8,18.98-5.77,62.09-15.99,77.9-14.82,22.93-53.43,37.28-77.93,46.93,24.88,11.02,61.88,11.09,84.6,27.3,4.38,3.13,35.83,39.05,39.35,44.56,10.06,15.75,6.89,24.49,10.88,41.06,2.18,9.06,7.24,17.33,9.62,26.34,5.31,20.17-4.32,45.89-8.55,67.47-7.85,39.97-6.8,29.69-29.92,58.98-16.15,20.47-20.58,40.01-44.67,53.23-29.41,16.14-59.22,34.46-92.84,41.04-45.01,8.81-97.2-30.89-133.01-55.71-13.42-9.3-26.45-19.57-39.29-29.62,8.58,22.53,34.78,77.15-12,67.92.56,12.61,7.1,24.92,12.93,35.99,3.88,7.36,12.23,16.42,15.03,21.93,14.94,29.32,3.48,49.47,4.4,76.9,1.02,30.6,12,45.28-3.44,78.86-5.85,12.72-18.01,22.29-20.95,35.99-22.19,16.1-26.84,37.54-61.85,43.05-34.14,5.37-46.67-6.36-74.05-9.09-15.65-19.17-45.33-18.4-62.95-31.97-9.15-7.04-14.06-19.45-22.94-27.01-7.37-6.27-18.83-10.69-26.11-17.85-7.81-7.69-12.46-18.19-21.89-26.07-10.27-8.58-24.95-13.45-33.09-24.86-4.89-6.85-5.68-15.82-9.98-21.98-3.22-4.61-8.52-5.59-8.92-6.07-6.84-8.26-11.49-21.22-18.97-29.98-11.8-13.84-27.18-15.19-36.11-31.83-4.9-9.13-6.39-20.71-12.88-29.07s-18.97-12.71-26.8-23.15c-9.68-12.91-8.71-24.19-14.81-37.13-1.5-3.18-13.24-19.69-15.37-20.6-3.69-1.57-2.95,2.32-3.54,4.36-6.35,22.08-12.23,61.87-24.54,79.39-5.32,7.57-16.11,13.39-19.87,22.09-4.91,11.34-4.72,28.72-8.98,39.96-5.24,13.83-20.94,24.23-27.69,35.24-9.88,16.12-10.16,36.42-24.57,53.34-6.54,7.68-17.45,11.93-22.59,17.37-12.91,13.68-16.47,41.13-33.99,57.91-11.17,10.7-25.72,11.87-36.04,19.91-8.16,6.35-16.67,20.17-25.94,28.01-15.62,13.22-31.36,16.42-47.02,27.91-11.31,3.33-23.86,13.89-36.01,18.94-19.7,8.19-49.57,18.65-66.92,1.04-26.83-27.23,19.69-60.36,24.99-83.9,4.46,1,4.23-2.47,5.95-4.94,17.15-24.56,25.83-50.66,38.98-77,15.55-31.15,32.83-50.76,38.46-87.4,1.76-11.43.79-24.98,3.44-36.51,3.33-14.49,21.2-42.7,29.08-57.82,5-9.58,11.51-18.03,16.34-28.62,11.54-25.34,19.13-52.5,29.61-78.27-9.88-2.34-20.56,3.16-30.63,2.87-8.61-.25-36.17-4.16-38.87-13.24-6.48-21.81,23.47-43.4,33.21-61.86,4.31-8.17,5.31-17.52,8.34-24.62,10.22-23.92,24.87-46.28,34.33-68.56,11.41-26.87,10.27-45.24,34.68-67.2,30.9-27.79,63.46-29.27,99.94-41.93,41.4-14.38,48.55-27.82,96.88-13.08,32.32,9.86,49.11,27.86,75.92,44.96,19.01,12.13,39.08,18.38,57.3,29.62,13.4,8.27,23.43,21.53,40.63,22.29-3.39-6.45-1.89-16.23-4.49-22.46-3.16-7.57-22.58-7.6-27.95-24-4.12-12.59,2.68-30.72,1.55-33.37-1.27-2.99-19.02-15.2-23.1-19-34.87-32.47-72.28-77.35-85.94-123.84-1.93-6.55-9.83-37.77,2.68-36.68,15.48,1.35,9.74,29.79,12.28,39.71,9.14,35.69,56.72,92.57,83.95,117.84,3.47,3.22,21.46,19.22,25.03,15.92-8.76-21.24-22.98-39.97-31.49-61.38-13.57-34.13-27.44-97.44-17.87-132.76,5.86-21.61,21.01-16.52,19.3,1.16-.88,9.07-8.66,16.09-9.81,22.3-4.22,22.74,8.22,74.68,16.37,97.31,2.9,8.05,30.56,67.07,33.9,68.97,2.67,1.52,8.72-.21,12.49.51,11.49,2.2,19.34,16.28,24.1,25.86,2.12-15.08-4.52-30.03-6.72-45.22-5.68-39.22-7.45-78.92-6.28-118.56,2.56-86.8,18.22-177.16,65.12-251.5,20.24-32.09,70.31-98.19,114.75-74.07ZM779.38,159.79c0-2.31-1.88-4.19-4.19-4.19s-4.19,1.88-4.19,4.19,1.88,4.19,4.19,4.19,4.19-1.88,4.19-4.19ZM787.74,160.28c-4.53,1.24-3.3,9.72-.03,9.92,6.92.41,9.95-12.63.03-9.92ZM750.2,176.57c-11.65,2.35-13.84,20.99,2.02,14.12,9.35-4.05,9.42-16.44-2.02-14.12ZM816.69,176.25c-8.11-1.41-14.14,3.57-6.96,9.97l6.96-9.97ZM783.7,180.94c-8.66.04-14.47,15.5-.09,13.31,9.82-1.5,8.64-13.36.09-13.31ZM720.78,202.2c6.08,2.25,16.31-16.43,8.98-15.93-2.21.15-11.85,11.59-8.98,15.93ZM1096.48,196.23c-.57-.77-7.05-1.43-8.72-.15-6.35,12.42,12.87,5.7,8.72.15ZM716.78,256.12c3.05.69,4.7-.67,7.13-1.85,6.74-3.27,47.67-34.26,50.34-39.56,7.82-15.48-6.74-15.42-17.94-11.93-18.86,5.88-41.17,33.08-39.53,53.34ZM803.99,206.47c-6.07,2.04-4.5,14.31,3.8,15.69,18.49,3.08,12.49-21.17-3.8-15.69ZM832.67,206.21h-3.98s0,7.98,0,7.98c3.97-1.07,4.48-4.25,3.97-7.98ZM1032.54,222.17c2.56,2.97,31.46,5.49,25.76-10.71-4.41-12.51-32.92,2.41-25.76,10.71ZM1098.51,208.23c-.37,3.4-.37,6.54,3.27,7.69,14.71,4.68,14.89-16.03-3.27-7.69ZM1020.54,210.2c-5.78-3.24-27.06,10.69-21.96,15.96,2.38,2.46,25.82-7.22,21.96-15.96ZM1093.99,239.66c10.84-10.7-13.5-19.43-18.53-9.51-5.66,11.17,12.53,15.43,18.53,9.51ZM780.19,230.65c-9.4,1.58-36.88,20.41-41.58,28.4-4.09,6.96,2,17.88,10.94,17.03s47.84-27.97,48.73-37.23c.98-10.19-11.09-9.38-18.09-8.2ZM1132.45,240.12c.37-3.4.37-6.54-3.27-7.69-14.71-4.68-14.89,16.03,3.27,7.69ZM842.64,236.16c-5.79-4.98-11.87,10.98-4.94,13.97,8.4,3.62,6.17-12.91,4.94-13.97ZM964.6,282.09c4.18.14,8.34.24,12.5-.47,15.2-2.56,56.92-12.27,70.5-17.42,20.22-7.67,25.8-23.51-.06-26.04-27.88-2.73-72,17.17-82.95,43.93ZM824.51,242.34c-6.18-4.16-15.16,6.31-11.53,13.53,13.54,9.9,17.45-9.55,11.53-13.53ZM836.69,260.14c-1.41,1.42-.75,14.24,6.96,11.96,8.92-2.64-1.35-17.63-6.96-11.96ZM1112,281.61c14.52-14.64-20.78-28.3-19.71-6.49.45,9.13,14.9,11.34,19.71,6.49ZM706.53,266.41c-9.18-5.57-17.46,17.09-15.4,24.23,1.11,3.88,6.2,7.42,9.84,4.17.64-.57,9.26-13.41,9.46-14.25.7-2.91-2.45-13.29-3.89-14.16ZM814.69,270.13c-2.46-2.97-12.27,9.1-4.97,11.95,7.82,3.05,4.43-7.85,4.97-11.95ZM759.46,288.79c-6.18,6.97-5,11.64,2.25,17.31,17.99,14.07,43.91-11.32,31.16-27.14-8.73-10.83-26.85,2.44-33.41,9.83ZM1128.48,282.09c3.28,3.29,12.67-5.1,4.97-7.96-6.89-2.56-5.82,7.1-4.97,7.96ZM720.2,280.46c-8.98,2.66-25.23,29.72-4.23,31.62,23.03,2.09,24.74-37.69,4.23-31.62ZM984.57,318.04c17.91-.13,79.87-6.85,90.14-20.9,2.81-3.84-1-12.58-5.7-14.54-17.99-7.53-61.04.58-77.1,11.82-10.48,7.33-4.61,12.13-7.34,23.62ZM914.8,319.88c5,3.5,44.57-19.29,28.99-31.98-11.61-9.46-39.94,24.31-28.99,31.98ZM851.67,288.13c-4.53.13-7.77,14.76-1.97,15.93,7.09,1.43,6.05-16.04,1.97-15.93ZM832.19,309.58c14.29-13.97-25.15-34.31-15.22,2.19,2.37,1.49,12.96,0,15.22-2.19ZM667.09,321.74c7.91,12.42,21.24-21.09,8.68-27.65-6.67-1.55-11.45,23.3-8.68,27.65ZM886.08,308.35c-5.67.9-19.26,16.4-20.62,21.59-.59,2.23,3.71,6.53,5.27,7.19,10.51,4.42,33.84-31.7,15.35-28.77ZM939.88,317.29c-8.59,5.04-23.35,9.29-16.97,21.44,4.14,7.88,10.44,8.12,18.53,7.11,36.62-4.54,33.21-49.6.67-31.73-1.21.66-1.58,2.8-2.22,3.17ZM1106.81,319.62c0-5.45-4.42-9.87-9.88-9.87s-9.88,4.42-9.88,9.87,4.42,9.87,9.88,9.87,9.88-4.42,9.88-9.87ZM1121.68,314.23c-6.15,2.04-3.28,13.47,1.79,15.77,7.82-4.34,10.28-19.78-1.79-15.77ZM816.69,326.05c-5.72-.13-9.52,5.6-15.08,5.91-7.93.44-10.79-3.77-21.99-.02-15.6,5.22-47.61,41.43-50.37,57.49-2.4,13.98,3.23,26.66,3.52,40.46l28-20.93c10.69-13.16,45.27-35.55,47.57-52.5.8-5.88-2.43-10.94-1.36-15s10.98-8.96,9.71-15.41ZM989.19,355.43c2.73,3.34,14.9,11.05,19.33,11.76,7.51,1.21,26.28-5.02,30.98-11.23,8.93-11.79,5.46-26.09-10.41-27.47-11.43-1-54.05,9.61-39.9,26.94ZM833.12,328.51l-8.91,9.01,2.06,2.03,8.91-9.01-2.06-2.03ZM1067.88,330.32c-14.43,1.39-16.37,21.95-.77,17.34,7.71-2.28,7.44-17.98.77-17.34ZM730.53,338.25c-12.36-7.63-33.08,24.27-23.88,30.89,11.48,8.25,32.48-25.58,23.88-30.89ZM1121.17,346.74c0-4.1-3.33-7.42-7.43-7.42s-7.43,3.32-7.43,7.42,3.33,7.42,7.43,7.42,7.43-3.32,7.43-7.42ZM684.2,344.29c-7.39,2.07-14.89,30.06-4.36,31.79,15.92,2.62,22.2-36.79,4.36-31.79ZM655.84,354.01c-6.54,4.19-10.53,33.87-4,35.93,10.56,3.33,12.57-37.91,4-35.93ZM874.12,362.24c-7.67,1.16-25.36,19.43-27.07,27.16-5.12,23.18,35.53,2.93,37.55-12.6.89-6.78-2.95-15.7-10.49-14.56ZM806.86,405.79c8.27,5.84,33.09-28.78,31.94-36.74-1.19-8.29-9.25-3.53-14,.05-5.46,4.12-24.94,31.76-17.95,36.69ZM1067.93,368.41c-13.13,3.01-16.64,19.99-1.96,23.15,21.91,4.72,27.12-28.91,1.96-23.15ZM920.14,374.38c-21.25,2.94-58.18,39.23-13.01,29.05,23.1-5.21,39.07-32.65,13.01-29.05ZM1114.47,375.99c-9.89-.63-14.07,9.83-9.84,17.85,7.04,4.57,11.15-13.37,9.84-17.85ZM666.78,649.61c8.87-28.08,15.86-57.27,25.93-84.95,5.69-15.64,15.69-30.48,19.51-46.42,10.67-44.6,4.66-81.01,6.12-123.9.39-11.61-14.06-1.83-20.19,1.97-13.04,8.07-22.75,19.04-28.86,33.08-24.6,56.51-18.58,152.86-5.82,212.61.49,2.3.26,7.95,3.32,7.61ZM1040.52,403.95c-15.77,4.97-22.52-6.71-33.86-9.11-26.75-5.67-89.2,19.32-104.91,41.18-3.38,4.7-23.02,47.89-21.1,49.8,32.67-12.27,68.22-21.47,100.45-34.41,11.41-4.58,29.56-11.17,36.35-21.59,2.99-4.59,3.53-11.45,6.98-15,5.02-5.16,15.91-2.58,16.08-10.87ZM1106.21,414.18c-.99-1.57-11.04-4.65-13.55-2.08-3.76,21.89,19.98,12.25,13.55,2.08ZM765.36,420.51c.45-.82,9.11-4.61,5.35-8.58-1.59-1.68-31.88,26.03-34.37,30.54-6.19,11.21-7.06,30.57-7.56,43.36,5.11-4.59,8.84-12.55,12.32-18.63,8.71-15.2,15.85-31.44,24.27-46.69ZM1067.96,429.39c8.42-9.18-5.27-19.45-16.48-9.51-15.6,13.84,7.82,18.94,16.48,9.51ZM888.64,425.92c-34.17,2.36-62.24,10.03-88.88,31.99-46.1,38.01-94.89,148.43-109.48,206.16-1.02,4.03-5.28,16.78-1.46,19.5,4.67,3.32,32.3-23.91,37.25-28.66,56.34-54.05,106.32-108.21,139.63-179.03,7.79-16.57,15.84-33.1,22.94-49.96ZM646.8,455.87c3.06-4.19,6.65-21.98-.98-21.93-4.23.03-7.98,20.15.98,21.93ZM778.71,447.9c-5.14-5.26-17.53,16.68-13.97,21.95,9.23,2.16,18.15-17.67,13.97-21.95ZM1073.92,448.27c-6.9,2.07-9.89,18.46,1.54,19.73,18.11,2.02,17.4-25.41-1.54-19.73ZM1035.85,460.56c-19.38-16.58-59.48,6.72-81.72,13.82-25.64,8.19-52.27,14.33-76.92,25l-50.5,68.35c55.44-17.15,113.25-26.82,169.49-41.31,10.11-2.6,23.45-4.68,32.44-9.52,22.19-11.96,26.99-39.41,7.21-56.34ZM1110.46,455.88c-7.05,3.36-11.82,11.83-4.95,17.97,6.96,1.46,4.86-14.51,4.95-17.97ZM1100.5,497.83c-1.03,1.03-.54,13.28,4.96,11.96,7.68-1.84.27-17.16-4.96-11.96ZM1074.78,515.52c8.78,5.54,18.84-8.43,9.81-14.86-8.07-5.75-16.81,10.45-9.81,14.86ZM700.78,693.54c3.49.39,6.64-.06,10.02-.95,27.51-7.26,58.25-21.01,86.38-29.52,57.44-17.37,115.61-31.56,173.5-46.31,30.75-7.84,86.15-15.55,99.29-46.56,6.44-15.2-5.49-39.24-22.02-39.8-13.29-.45-50.02,9.08-65.45,12.28-32.48,6.73-65.64,14.18-97.88,22.02-17.5,4.25-53.37,11.14-67.95,17.98-10,4.69-14.86,14.95-21.9,22.05-30.38,30.67-60.61,61.39-93.98,88.81ZM1108.23,556c-8.31-5.21-19.85,9.61-13.53,17.53,8.74,4.27,19.98-13.48,13.53-17.53ZM450.96,987.18v-32.96c0-1.16,6.99-18.71,8.28-21.69l13.68-23.25c1.77,26.73-14.64,44.9-11.94,72.88.87,9.02,14.38,44.52,19.57,52.34,8.34,12.56,20.38,14.04,29.42,24.53,6.49,7.53,10.17,19.54,17.29,26.66,1.77,1.77,1.75,4.34,5.62,3.34,6.76-21.5,17.39-40.59,18.03-63.91,8.9,9.89,6.38,31.08,3.07,44.04-4.06,15.89-12.37,20.31-8.11,39.88,4.7,21.59,25.11,23.35,39.04,36.88,11.25,10.93,17.78,29.33,35.92,32.99-.35-21.1,11.79-35.79,15.79-57.12.58-3.1-1.23-16.11,4.2-13.79,8.28,3.53,3.49,35.1-1.15,42.81-4.94,8.21-11.11,5.69-11,19.13.11,12.67,12.12,36.4,22.19,43.89,6.4,4.77,22.48,6.88,31.29,10.68,28.48,12.29,53.03,41.85,82.54,7.3,11.76-13.77,9.41-32.97,15.86-41.7,1.74-2.35,3.88-.92,6.17-1.19v30.96c0,5.87-8.56,19.51-11.99,24.95,25.36-6.45,57.44-56.5,59.93-80.9,1.91-18.68-3.17-46.25-10.25-63.61-3.46-8.48-16.92-26.59-17.74-32.22-.45-3.07-.06-3.48,3.01-3l22.98,21.96c-.44-6.08.83-12.91-.1-18.85-2.1-13.41-25.16-44.88-31.38-62.51-9.17-25.96-8.52-51.68-20.12-77.77-9.48-21.32-26.12-39.26-34.67-61.22-14.56-37.37-20.43-85.24-62.22-103.6l-73.3-35.58c-.88,3.75,2.09,4.75,3.97,7,30.67,36.58,53.71,46.89,70.48,97.34,4.86,14.61,10.22,34.49,10.48,49.45-14.88-16.54-19.38-39.62-30.64-59.26-20.94-36.52-48.39-52.57-76.34-81.5-10.64-11.01-20.79-28.04-32.93-37-13.97-10.31-36.42-17.15-52.79-27.14-39.9-24.33-78.24-67.12-130.63-46.33-26.06,10.34-50.89,36.13-74.43,51.46-3.32.47-3.2.12-3.02-3,.58-10.28,17.56-15.46,18.04-26.92-28.38,6.49-58.66,19.12-72.97,45.9-7.07,13.22-8.62,27.51-14.61,41.33-5.95,13.74-15.66,24.84-22.09,37.85-10.59,21.41-13.95,43.96-26.94,64.96-2.49,4.02-18.17,20.85-15.26,23.68,21.98,1.65,48.4-12.2,62.73-28.17,10.37-11.55,21.47-43.99,38.15-43.8,2.66.03,3.94-.37,2.98,2.99-2.35,8.24-16.16,25.84-20.89,37.06-24.32,57.72-36.54,115.58-66.64,173.09-6.24,11.92-24.35,36.12-27.42,46.5-5.34,18.06-6.5,45.96-11.87,66.03-6.31,23.56-17.91,37.4-28.04,57.86-12.85,25.93-24.26,54.25-38.59,79.28-5.59,9.77-41.96,59.89-42.35,63.7-.84,8.36,6.44,7.3,12.53,6.4,13.34-1.98,83-37.65,95.3-46.6s23.51-29.35,35.07-36.85c6.44-4.18,15.2-4.41,21.72-8.26,21.45-12.66,23.45-39.71,36.39-57.51,8.01-11.01,22.44-15.28,30.51-27.43,9.25-13.93,9.14-31.98,17.93-45.99,5.67-9.03,17.33-15.75,22.08-23.88,13.69-23.42,8.67-70.83,6.05-97.33-.22-2.25-8.96-38.08-1.78-33.2,4.73,5.41,3.88,13.43,5.41,17.49.83,2.22,3.68,2.1,4.45,4.05,4.38,11.06,2.06,32.76,6.58,42.95,3.18,7.18,10.55-1.22,13.58-5.55,4.27-6.12,24.04-76.18,25.45-86.42,4.6-33.49-7.48-31.05-17.85-55.03-4.74-10.96-13.8-58.48-3.66-64.44,8.73-5.12,12.06,29.7,13.48,34.65,5.78,20.22,18.76,34.71,30.15,51.76,8.03,12.03,11.58,25.46,25.38,34.56,1.19-21.17,6.1-44.29,17.45-62.44,4.25-6.8,6.84-3.15,6.82,3.13-.05,11.9-7.51,25.22-9.07,38.56-3.01,25.61-.61,43.96,10.11,67.37,3.07,6.7,9.33,17.15,17.65,17.31ZM622.83,641.62c4.08-4.16-7.1-17.68-13.97-13.96-4.17,7.26,10.87,17.12,13.97,13.96ZM1038.53,663.59c7.43-7.33-24.07-14.87-27.95-6.95-1.73,3.52,3.53,3.63,5.57,4.32,3.93,1.32,20.49,4.51,22.39,2.63ZM856.66,657.63l-153.87,47.9c41.26.69,82.95-12.18,120.62-28.22l33.25-19.67ZM982.56,659.62c-2.28-3.01-27.34.5-25.96,6.95,1.48,6.91,30.13-1.44,25.96-6.95ZM686.78,731.51c-2.23-21.4-20.22-53.36-39.28-63.59-8.49-4.55-19.81-8.62-12.8,4.81,21.79,13.41,32.91,35.12,46.92,55.03,1.68,2.38.07,4.89,5.17,3.75ZM1078.51,679.57c1.81-11.47-11.24-19.1-19.99-10.92,1.9,10.46,10.87,11.83,19.99,10.92ZM894.65,713.51c1.5,1.57,21.17,6.22,24.97,6.18,25.96-.31,62.62-9.24,89.95-12.13,12.04-1.28,26.38-.61,38.06-1.91,8.73-.97,7.8-3.7,3.76-9.95-4.85-7.51-15.4-19.54-24.3-21.65-33.59-7.97-102.56,13.66-129.93,34.92-1.36,1.06-5.44,1.48-2.51,4.55ZM924.62,673.61c-40.78,10.93-80.4,26.9-121.48,37.36-7.46,1.9-51.87,9.19-52.47,11.83-.43,1.89.35,4.57.09,6.71,59.7-13.03,130.94-4.98,173.86-55.9ZM1112.47,683.57c2.25-13.5-21.99-12.81-11.97-2.99,2.78,2.72,8.21,3.25,11.97,2.99ZM1092.18,695.88c-5.18-8.6-22.88,6.44.3,7.66-.29-2.32.78-5.86-.3-7.66ZM1136.46,707.53c2.91-3.89-11.05-18.63-17.97-13.96-4.36,9.19,14.07,19.17,17.97,13.96ZM1104.5,755.49c3.69-44.64-29.2-41.81-62.94-39.94l-112.93,11.97c-.58,3.11.32,4.63,1.9,7.08,16.34,25.41,108.14,17.99,137.08,18.8,11.56.32,24.57,3.94,36.9,2.09ZM1132.27,721.73c-6.55-4.4-17.24,7.95-8.4,13.97s13.97-10.22,8.4-13.97ZM1004.56,799.4c1.66-2.2-2.46-5.54-3.96-6.99-24.03-23.31-43.79-25.54-69.32-40.58-13.75-8.1-24.49-25.17-40.11-27.82-24.42-4.14-53.54,4.21-77.71,7.26-14.58,1.84-30.99,2.14-45.46,4.5-30.18,4.91-38.75,7.97-5.75,21.21,59.37,23.82,147.75,58.43,211.42,52.52,4.67-.43,29.31-8.01,30.89-10.1ZM1155.97,734.01c-8.66-9.48-14.99,16.76,2.46,13.48.04-3.94.3-10.46-2.46-13.48ZM1132.46,759.47c2.09-1.94-3.76-9.12-5.97-2.96-1.51,4.22,5.23,3.64,5.97,2.96ZM1162.44,771.46c-.08-3.15.94-9.14-1.85-11.13-10.25-7.31-17.5,15.01,1.85,11.13ZM923.22,866.75c-2.85-4.08-2.84-14.02-7.73-21.25-30.11-44.56-116.07-53.5-161.34-80.44l-9.4-1.57c36.74,49.16,87.55,84.97,131.93,126.79,22.1,20.82,54.03,69.51,89.36,57.41,8.08-2.77,19.39-21.24,18.23-28.97-.39-2.57-23.99-31.99-26.57-33.51-9.58-5.64-26.08-6.44-34.48-18.46ZM1125.85,778.07c-4.75-5.24-21.17-9.88-28.37-10.58l-114.9-3.99c9.16,5.43,30.12,27.84,38.46,30.37,9.57,2.91,21.03,3.51,31.49,6.56,11.53,3.37,47.55,18.61,55.16,18.89,16.66.62,30.95-27.16,18.16-41.25ZM755.44,792.74c-2.02-1.9-2.98-5.58-5.71-7.28-1.51-.31-1.28,1.93-.96,2.95,3.02,9.49,11.68,26.11,17.13,34.82,18.91,30.21,80.29,77.66,110.93,98.87,9.41,6.52,19.51,12.13,29.78,17.16.75-3.55-1.82-4.91-3.94-7.03-47.54-47.64-98.03-93.22-147.23-139.48ZM1147.48,785.45c-4.09.95-7.04,14.06-2.02,13.94,4.98-.12,10.83-15.98,2.02-13.94ZM1168.43,801.43c-4.94-5.05-15.41,12.38-6.97,15.95,7.99,3.38,7.78-15.12,6.97-15.95ZM992.57,817.42c-3.37,3.68,17.3,16.48,20.01,18.94,8.95,8.12,41.25,42.73,49.81,44.11,24.64,3.97,60.76-38.64,34.64-52.61-9.15-4.89-69.12-23.44-76.48-21.6-8.19,2.05-18.51,10.95-27.98,11.16ZM904.65,817.4c-2.2,2.14,8.11,11.28,9.94,13.01,15.74,14.82,34.66,26.4,49.02,42.89,7,8.04,31.51,46.45,36.97,48.93,7.69,3.49,31.28-.84,38.65-5.27,5.99-3.6,16.46-20.15,13.09-26.3-3.85-7.03-35.76-37.16-43.74-44.33-5.88-5.28-17.91-16.59-24.12-19.83-22.45-11.71-55.52.32-79.81-9.1ZM1136.45,823.41h-2.96c-3.14,2.11-3.48,4.29-3.02,7.97h5.98s0-7.97,0-7.97ZM1158.44,849.37c1.16-4.79.56-23.36-7.96-17.98-3.31,2.09-4.57,23.33,7.96,17.98ZM1121.9,855.68c-6.16.97-13.24,11.5-6.25,13.54,10.04,2.93,18.5-15.48,6.25-13.54ZM1142.45,875.34c-3.27-3.66-19.04,12.01-8.95,13.97,4.63.9,11.69-10.9,8.95-13.97ZM1086.51,899.29c3.74,3.81,20.15-12.42,10.93-13.98-4.74-.81-14.17,10.68-10.93,13.98ZM796.7,895.31c-7.22-1.93-10.46,12.17-4.99,11.93,2.08-.09,6-9.03,4.99-11.93ZM1118.47,901.3c-5.02-5.31-12.92,11.21-9.97,15.96,6.84,1.26,12.97-12.8,9.97-15.96ZM1078.5,913.29c-14.4-2.61-16.37,17.18-3.2,7.76,3.4-2.43,3.73-3.56,3.2-7.76ZM808.69,917.28c-6.82-1.3-16.89,8.67-7.99,12.99,8.99,4.37,8.58-6.9,7.99-12.99ZM1039.98,931.6c-6.63,1.37-14.23,11.03-6.15,13.46,11.67,3.51,21.97-16.73,6.15-13.46ZM1094.49,931.27c-5.98-2.29-17.93,3.94-15.98,10.94,2.26,8.1,20.31-2.08,15.98-10.94ZM995.02,957.68c3.51-1.95,9.39,1.35,13.65-5.33,7.21-11.3-5.43-20.81-13.86-7.87-1.63,2.51-1.62,6.68-3.3,8.68-2.79,3.32-14.93,3.68-9.02,11.11,6.79,8.54,10.15-5.27,12.53-6.6ZM820.68,943.25c-12.91.23-18.48,12.86-2.17,11.78l2.17-11.78ZM1064.51,951.24c-2-1.99-12.93,1.88-11.97,6.95,1.63,8.63,18.07-.88,11.97-6.95ZM946.6,961.24c-6.42,7.62,20.26,18.5,23.84,6.8,3.14-10.29-21.58-9.48-23.84-6.8ZM1022.01,961.61c-13.57,2.85-8.79,23.02,6.41,12.46,8.2-5.69,5.1-14.88-6.41-12.46ZM998.56,985.16c8.89-12.81-33.02-7.59-16.53-.44,2.67,1.16,15.07,2.55,16.53.44Z"/>
        <path class="cls-2" d="M1118.48,593.7l21.97-1.99c2.94,2.51-25.98,27.97-19.01,41.93,3.27,6.55,11.8,4.15,16.93.9,12.29-7.77,41.89-44.14,45.46-58.42,2.45-9.79,1.5-31.74,4.57-37.01,1.24-2.14,3.27-1.94,5.01-1.4,6.13,1.92,15.39,32.6,14.77,40.74-.54,7.08-11.67,33.54.85,26.86,29.42-15.7,5-83.54,49.46-108.38,3.57-1.99,11-7.07,13.87-2.08.78,3.58-9.85,16.5-12.04,21.89-13.27,32.62,3.91,46.76,4.11,76.04.1,14.83-9.88,37.36-18.39,49.5-13.97,19.93-41.86,34.63-37.64,62.26,1.6,3.06,3.47.2,5.03-.97,15.22-11.34,24.42-25.31,47.63-23.85,27.71,1.75,4.52,12.28-2.72,18.8-27.04,24.38-23.88,45.09-32.96,76.92-7.83,27.45-22.15,58.54-48.96,71.92,4.24-21.58,13.86-47.3,8.55-67.47-2.37-9.01-7.44-17.29-9.62-26.34-3.98-16.57-.82-25.31-10.88-41.06-3.52-5.51-34.97-41.44-39.35-44.56-22.72-16.21-59.72-16.28-84.6-27.3,24.5-9.65,63.11-23.99,77.93-46.93Z"/>
        <path class="cls-2" d="M892.64,272.11c2.64-11.82,10.56-22.71,14.96-33.99,4.62-11.88,6.82-24.95,11.5-36.44,15.92-39.06,59.08-50.06,81.84-85.99,4.66-7.36,8.93-29.53,15.71-8.47,4.34,13.49,1.73,25.94-3.72,38.44-3.24,7.43-21.52,31.52-3.16,32.48,18.74.98,25.27-21.07,34.79-32.82,29.37-36.26,68.6-27.57,77.69-86.14,1.08-6.94-3.55-24.26,9.33-14.9,11.03,8.01,16.14,45.9,14.84,59.03-1.84,18.46-17.9,30.32-16.1,48.01,2.6,25.63,29.28-10.85,36.07-16.07,8.59-6.61,14.99-8.1,26.02-6.93-.91,8.31-7.97,12.65-11.68,21.26-15.54,36.06,14.33,68.32-14.67,119.16-2.17,3.81-6.59,13.21-11.61,13.37,0-.26-2.1-2.26-2.08-4.83.26-37.53-.49-82.26-43.9-96.02-62.74-19.89-167.26,54.53-215.83,90.87Z"/>
        <path class="cls-2" d="M624.84,471.85l-25.42-71.47c-18.76-51.39,15.86-101.31,11.44-151.25-.43-4.84-9.53-23.94,2.65-20.67,15.84,4.26,23.01,51.7,25.34,53.64,8.29,6.91,17.06-25.55,17.74-31.19,2.89-23.93-1.37-49.57,6.71-73.19,16.55-48.41,71.28-70.32,79.24-122.54,1.16-7.57-2.46-17.11,3.24-22.74,6.16-1.31,15.4,27.88,16.44,33.46,3.44,18.44-1.07,26.99-1.62,43.4-.69,20.72,13.87,8.64,20.52-1.58,8.5-13.08,8.39-24.07,7.61-39.33,2.8-3.15,9.74,8.4,10.75,10.21,10.82,19.48,9.34,46.54,5.23,67.68-44.43-24.11-94.5,41.98-114.75,74.07-46.9,74.34-62.56,164.71-65.12,251.5Z"/>
        <path class="cls-2" d="M1142.46,342.02c-1.45,11.24-6.86,42.01,12.73,31.68,16.3-8.59,17.53-44.7,29.24-60.64,3.96-5.39,18.61-18.95,24.54-21.41,2.98-1.23,10.22-4.22,9.46,1.43-.83,6.16-15.12,21.92-18.44,31.54-9.88,28.61,5.9,55.11-4.02,83.87-8.12,23.55-33.16,45.54-45.86,68.02-7.37,13.04-9.99,25.84-15.65,39.29-.45-10.72-5-19.49-6.01-28.95-1.67-15.58,2.01-32.19,2.1-48.06.07-10.88-3.13-21.78-2.16-33.92,1.5-18.75,8.53-44.81,14.06-62.85Z"/>
        <path class="cls-2" d="M1044.54,102.32c-.07-7.02,4.84-12.16,5.81-19.14,4.61-33.11-8.23-52.94,26.35-77.53,25.76-18.32,5.01,13.18,3.94,19.9-2.08,13.08,4.33,22.39,4.03,33.84-.5,19.03-20.13,43.8-40.13,42.93Z"/>
        <path class="cls-2" d="M1234.27,477.72c-1.24,1.06-7.2.4-8.9-1.84-2.47-3.25-2.97-13.96-2.5-18.44,2.45-23.46,28.49-36.99,23.51-62.47,7.19-4.29,13.01,9.32,14.94,15.03,11.58,34.21-11.89,36.47-24.62,59.2-1.54,2.75-2.1,8.24-2.43,8.53Z"/>
        <path class="cls-2" d="M700.78,693.54c33.37-27.42,63.6-58.14,93.98-88.81,7.04-7.11,11.9-17.36,21.9-22.05,14.58-6.84,50.45-13.73,67.95-17.98,32.25-7.83,65.4-15.29,97.88-22.02,15.44-3.2,52.16-12.73,65.45-12.28,16.53.55,28.45,24.6,22.02,39.8-13.14,31.01-68.54,38.72-99.29,46.56-57.89,14.76-116.07,28.94-173.5,46.31-28.13,8.51-58.87,22.26-86.38,29.52-3.39.89-6.53,1.34-10.02.95Z"/>
        <path class="cls-2" d="M888.64,425.92c-7.1,16.86-15.15,33.39-22.94,49.96-33.31,70.82-83.29,124.99-139.63,179.03-4.95,4.75-32.59,31.98-37.25,28.66-3.82-2.72.45-15.47,1.46-19.5,14.59-57.73,63.38-168.15,109.48-206.16,26.64-21.96,54.71-29.63,88.88-31.99Z"/>
        <path class="cls-2" d="M923.22,866.75c8.4,12.02,24.9,12.82,34.48,18.46,2.59,1.52,26.19,30.94,26.57,33.51,1.16,7.73-10.14,26.2-18.23,28.97-35.33,12.1-67.26-36.59-89.36-57.41-44.38-41.81-95.19-77.62-131.93-126.79l9.4,1.57c45.27,26.94,131.23,35.87,161.34,80.44,4.89,7.23,4.87,17.18,7.73,21.25Z"/>
        <path class="cls-2" d="M1004.56,799.4c-1.58,2.09-26.22,9.67-30.89,10.1-63.68,5.9-152.05-28.71-211.42-52.52-33-13.24-24.44-16.3,5.75-21.21,14.47-2.35,30.89-2.66,45.46-4.5,24.18-3.05,53.29-11.41,77.71-7.26,15.63,2.65,26.36,19.72,40.11,27.82,25.53,15.04,45.29,17.27,69.32,40.58,1.5,1.46,5.62,4.8,3.96,6.99Z"/>
        <path class="cls-2" d="M1035.85,460.56c19.78,16.93,14.98,44.38-7.21,56.34-8.99,4.85-22.33,6.92-32.44,9.52-56.25,14.48-114.06,24.16-169.49,41.31l50.5-68.35c24.65-10.66,51.27-16.8,76.92-25,22.25-7.11,62.35-30.41,81.72-13.82Z"/>
        <path class="cls-2" d="M666.78,649.61c-3.07.33-2.83-5.31-3.32-7.61-12.76-59.74-18.78-156.1,5.82-212.61,6.11-14.04,15.82-25,28.86-33.08,6.13-3.8,20.59-13.57,20.19-1.97-1.45,42.89,4.56,79.3-6.12,123.9-3.82,15.94-13.82,30.78-19.51,46.42-10.06,27.68-17.06,56.87-25.93,84.95Z"/>
        <path class="cls-2" d="M904.65,817.4c24.29,9.42,57.36-2.61,79.81,9.1,6.22,3.24,18.25,14.55,24.12,19.83,7.98,7.17,39.9,37.3,43.74,44.33,3.37,6.15-7.1,22.7-13.09,26.3-7.36,4.43-30.95,8.76-38.65,5.27-5.46-2.48-29.97-40.9-36.97-48.93-14.36-16.49-33.27-28.07-49.02-42.89-1.83-1.73-12.15-10.87-9.94-13.01Z"/>
        <path class="cls-2" d="M1040.52,403.95c-.17,8.29-11.06,5.71-16.08,10.87-3.45,3.55-3.99,10.41-6.98,15-6.8,10.42-24.94,17.01-36.35,21.59-32.23,12.94-67.78,22.15-100.45,34.41-1.92-1.91,17.72-45.1,21.1-49.8,15.7-21.87,78.16-46.85,104.91-41.18,11.34,2.4,18.09,14.08,33.86,9.11Z"/>
        <path class="cls-2" d="M1104.5,755.49c-12.33,1.85-25.34-1.77-36.9-2.09-28.93-.81-120.73,6.62-137.08-18.8-1.58-2.45-2.48-3.97-1.9-7.08l112.93-11.97c33.75-1.87,66.63-4.7,62.94,39.94Z"/>
        <path class="cls-2" d="M992.57,817.42c9.47-.22,19.79-9.12,27.98-11.16,7.36-1.84,67.33,16.71,76.48,21.6,26.12,13.96-10,56.57-34.64,52.61-8.56-1.38-40.86-35.98-49.81-44.11-2.71-2.46-23.38-15.26-20.01-18.94Z"/>
        <path class="cls-2" d="M1125.85,778.07c12.78,14.09-1.51,41.87-18.16,41.25-7.62-.28-43.63-15.53-55.16-18.89-10.46-3.05-21.91-3.66-31.49-6.56-8.33-2.53-29.29-24.94-38.46-30.37l114.9,3.99c7.2.71,23.62,5.35,28.37,10.58Z"/>
        <path class="cls-2" d="M894.65,713.51c-2.93-3.06,1.15-3.49,2.51-4.55,27.37-21.26,96.35-42.89,129.93-34.92,8.9,2.11,19.45,14.14,24.3,21.65,4.04,6.25,4.98,8.98-3.76,9.95-11.68,1.3-26.02.63-38.06,1.91-27.32,2.89-63.99,11.82-89.95,12.13-3.8.05-23.47-4.61-24.97-6.18Z"/>
        <path class="cls-2" d="M816.69,326.05c1.27,6.45-8.66,11.41-9.71,15.41s2.16,9.12,1.36,15c-2.29,16.94-36.88,39.34-47.57,52.5l-28,20.93c-.29-13.81-5.92-26.49-3.52-40.46,2.76-16.06,34.77-52.27,50.37-57.49,11.2-3.75,14.05.46,21.99.02,5.57-.31,9.36-6.03,15.08-5.91Z"/>
        <path class="cls-2" d="M755.44,792.74c49.2,46.26,99.69,91.84,147.23,139.48,2.12,2.12,4.69,3.48,3.94,7.03-10.27-5.02-20.37-10.64-29.78-17.16-30.63-21.2-92.01-68.66-110.93-98.87-5.45-8.71-14.11-25.33-17.13-34.82-.32-1.01-.55-3.26.96-2.95,2.73,1.7,3.68,5.38,5.71,7.28Z"/>
        <path class="cls-2" d="M984.57,318.04c2.73-11.49-3.14-16.29,7.34-23.62,16.06-11.23,59.11-19.35,77.1-11.82,4.69,1.97,8.5,10.7,5.7,14.54-10.27,14.05-72.23,20.77-90.14,20.9Z"/>
        <path class="cls-2" d="M964.6,282.09c10.95-26.76,55.07-46.66,82.95-43.93,25.86,2.54,20.28,18.37.06,26.04-13.58,5.15-55.31,14.86-70.5,17.42-4.17.7-8.32.61-12.5.47Z"/>
        <path class="cls-2" d="M924.62,673.61c-42.93,50.92-114.16,42.87-173.86,55.9.26-2.14-.53-4.82-.09-6.71.61-2.63,45.01-9.93,52.47-11.83,41.08-10.47,80.71-26.43,121.48-37.36Z"/>
        <path class="cls-2" d="M989.19,355.43c-14.15-17.34,28.47-27.94,39.9-26.94,15.86,1.38,19.33,15.68,10.41,27.47-4.7,6.21-23.46,12.45-30.98,11.23-4.43-.72-16.6-8.42-19.33-11.76Z"/>
        <path class="cls-2" d="M856.66,657.63l-33.25,19.67c-37.67,16.05-79.37,28.91-120.62,28.22l153.87-47.9Z"/>
        <path class="cls-2" d="M780.19,230.65c6.99-1.17,19.06-1.99,18.09,8.2-.89,9.27-40.03,36.4-48.73,37.23s-15.03-10.07-10.94-17.03c4.7-8,32.18-26.82,41.58-28.4Z"/>
        <path class="cls-2" d="M716.78,256.12c-1.65-20.25,20.67-47.45,39.53-53.34,11.2-3.49,25.76-3.55,17.94,11.93-2.67,5.29-43.6,36.28-50.34,39.56-2.43,1.18-4.07,2.54-7.13,1.85Z"/>
        <path class="cls-2" d="M939.88,317.29c.64-.38,1.02-2.51,2.22-3.17,32.54-17.87,35.95,27.19-.67,31.73-8.09,1-14.39.77-18.53-7.11-6.38-12.15,8.38-16.41,16.97-21.44Z"/>
        <path class="cls-2" d="M759.46,288.79c6.55-7.39,24.67-20.66,33.41-9.83,12.76,15.82-13.17,41.21-31.16,27.14-7.25-5.67-8.43-10.34-2.25-17.31Z"/>
        <path class="cls-2" d="M920.14,374.38c26.05-3.6,10.09,23.84-13.01,29.05-45.17,10.19-8.24-26.11,13.01-29.05Z"/>
        <path class="cls-2" d="M874.12,362.24c7.54-1.14,11.38,7.78,10.49,14.56-2.03,15.52-42.68,35.78-37.55,12.6,1.71-7.73,19.39-25.99,27.07-27.16Z"/>
        <path class="cls-2" d="M765.36,420.51c-8.41,15.25-15.56,31.49-24.27,46.69-3.48,6.08-7.21,14.04-12.32,18.63.49-12.79,1.36-32.15,7.56-43.36,2.49-4.51,32.78-32.22,34.37-30.54,3.77,3.97-4.9,7.77-5.35,8.58Z"/>
        <path class="cls-2" d="M686.78,731.51c-5.1,1.14-3.49-1.36-5.17-3.75-14.01-19.92-25.13-41.62-46.92-55.03-7.01-13.43,4.32-9.36,12.8-4.81,19.06,10.22,37.05,42.19,39.28,63.59Z"/>
        <path class="cls-2" d="M720.2,280.46c20.51-6.07,18.8,33.71-4.23,31.62-21-1.9-4.75-28.97,4.23-31.62Z"/>
        <path class="cls-2" d="M914.8,319.88c-10.95-7.67,17.38-41.45,28.99-31.98,15.58,12.7-23.99,35.48-28.99,31.98Z"/>
        <path class="cls-2" d="M806.86,405.79c-6.99-4.93,12.49-32.57,17.95-36.69,4.74-3.58,12.8-8.35,14-.05,1.15,7.96-23.67,42.58-31.94,36.74Z"/>
        <path class="cls-2" d="M730.53,338.25c8.61,5.31-12.39,39.14-23.88,30.89-9.2-6.62,11.52-38.52,23.88-30.89Z"/>
        <path class="cls-2" d="M1067.93,368.41c25.16-5.76,19.95,27.88-1.96,23.15-14.68-3.16-11.17-20.15,1.96-23.15Z"/>
        <path class="cls-2" d="M684.2,344.29c17.84-5,11.56,34.41-4.36,31.79-10.53-1.73-3.02-29.72,4.36-31.79Z"/>
        <path class="cls-2" d="M886.08,308.35c18.48-2.93-4.84,33.19-15.35,28.77-1.57-.66-5.86-4.95-5.27-7.19,1.36-5.18,14.96-20.69,20.62-21.59Z"/>
        <path class="cls-2" d="M706.53,266.41c1.44.87,4.59,11.26,3.89,14.16-.2.83-8.82,13.68-9.46,14.25-3.64,3.25-8.73-.3-9.84-4.17-2.05-7.15,6.22-29.81,15.4-24.23Z"/>
        <path class="cls-2" d="M995.02,957.68c-2.38,1.32-5.74,15.14-12.53,6.6-5.91-7.43,6.24-7.79,9.02-11.11,1.68-2,1.66-6.17,3.3-8.68,8.43-12.94,21.07-3.44,13.86,7.87-4.26,6.68-10.15,3.38-13.65,5.33Z"/>
        <path class="cls-2" d="M1112,281.61c-4.81,4.85-19.26,2.64-19.71-6.49-1.07-21.81,34.24-8.14,19.71,6.49Z"/>
        <path class="cls-2" d="M1032.54,222.17c-7.16-8.3,21.36-23.22,25.76-10.71,5.7,16.19-23.2,13.68-25.76,10.71Z"/>
        <path class="cls-2" d="M655.84,354.01c8.56-1.98,6.55,39.26-4,35.93-6.52-2.06-2.54-31.74,4-35.93Z"/>
        <path class="cls-2" d="M1073.92,448.27c18.94-5.68,19.65,21.75,1.54,19.73-11.43-1.27-8.44-17.66-1.54-19.73Z"/>
        <path class="cls-2" d="M832.19,309.58c-2.25,2.2-12.84,3.69-15.22,2.19-9.94-36.5,29.51-16.17,15.22-2.19Z"/>
        <path class="cls-2" d="M1067.96,429.39c-8.65,9.43-32.08,4.33-16.48-9.51,11.21-9.94,24.9.33,16.48,9.51Z"/>
        <path class="cls-2" d="M667.09,321.74c-2.77-4.35,2.01-29.2,8.68-27.65,12.56,6.55-.77,40.07-8.68,27.65Z"/>
        <ellipse class="cls-2" cx="1096.93" cy="319.62" rx="9.88" ry="9.87"/>
        <path class="cls-2" d="M1093.99,239.66c-5.99,5.92-24.18,1.66-18.53-9.51,5.02-9.92,29.36-1.19,18.53,9.51Z"/>
        <path class="cls-2" d="M946.6,961.24c2.26-2.68,26.98-3.49,23.84,6.8-3.57,11.7-30.26.82-23.84-6.8Z"/>
        <path class="cls-2" d="M803.99,206.47c16.3-5.48,22.29,18.77,3.8,15.69-8.3-1.38-9.88-13.65-3.8-15.69Z"/>
        <path class="cls-2" d="M1108.23,556c6.44,4.05-4.8,21.8-13.53,17.53-6.32-7.92,5.23-22.74,13.53-17.53Z"/>
        <path class="cls-2" d="M1022.01,961.61c11.52-2.42,14.61,6.77,6.41,12.46-15.2,10.56-19.98-9.61-6.41-12.46Z"/>
        <path class="cls-2" d="M1067.88,330.32c6.67-.64,6.93,15.06-.77,17.34-15.59,4.61-13.66-15.95.77-17.34Z"/>
        <path class="cls-2" d="M1038.53,663.59c-1.9,1.88-18.46-1.31-22.39-2.63-2.03-.69-7.29-.79-5.57-4.32,3.88-7.92,35.38-.38,27.95,6.95Z"/>
        <path class="cls-2" d="M1078.51,679.57c-9.12.9-18.09-.47-19.99-10.92,8.75-8.17,21.8-.55,19.99,10.92Z"/>
        <path class="cls-2" d="M750.2,176.57c11.45-2.31,11.38,10.07,2.02,14.12-15.87,6.87-13.68-11.77-2.02-14.12Z"/>
        <path class="cls-2" d="M1020.54,210.2c3.85,8.74-19.58,18.42-21.96,15.96-5.1-5.27,16.18-19.2,21.96-15.96Z"/>
        <path class="cls-2" d="M778.71,447.9c4.18,4.28-4.74,24.11-13.97,21.95-3.56-5.27,8.83-27.21,13.97-21.95Z"/>
        <path class="cls-2" d="M1074.78,515.52c-7-4.42,1.74-20.61,9.81-14.86,9.03,6.44-1.03,20.4-9.81,14.86Z"/>
        <path class="cls-2" d="M982.56,659.62c4.17,5.51-24.48,13.85-25.96,6.95-1.38-6.45,23.68-9.95,25.96-6.95Z"/>
        <path class="cls-2" d="M824.51,242.34c5.91,3.98,2,23.43-11.53,13.53-3.63-7.22,5.36-17.68,11.53-13.53Z"/>
        <path class="cls-2" d="M1136.46,707.53c-3.9,5.21-22.32-4.77-17.97-13.96,6.92-4.68,20.88,10.07,17.97,13.96Z"/>
        <path class="cls-2" d="M1039.98,931.6c15.82-3.27,5.53,16.97-6.15,13.46-8.08-2.43-.48-12.09,6.15-13.46Z"/>
        <ellipse class="cls-2" cx="1113.74" cy="346.74" rx="7.43" ry="7.42"/>
        <path class="cls-2" d="M1106.21,414.18c6.43,10.16-17.32,19.81-13.55-2.08,2.51-2.56,12.56.51,13.55,2.08Z"/>
        <path class="cls-2" d="M1132.27,721.73c5.57,3.74.44,19.98-8.4,13.97s1.85-18.37,8.4-13.97Z"/>
        <path class="cls-2" d="M1094.49,931.27c4.33,8.86-13.72,19.04-15.98,10.94-1.95-7,10-13.22,15.98-10.94Z"/>
        <path class="cls-2" d="M1158.44,849.37c-12.53,5.35-11.26-15.88-7.96-17.98,8.51-5.39,9.11,13.18,7.96,17.98Z"/>
        <path class="cls-2" d="M783.7,180.94c8.55-.04,9.74,11.82-.09,13.31-14.38,2.19-8.57-13.27.09-13.31Z"/>
        <path class="cls-2" d="M1114.47,375.99c1.31,4.49-2.8,22.42-9.84,17.85-4.23-8.02-.05-18.49,9.84-17.85Z"/>
        <path class="cls-2" d="M1121.9,855.68c12.25-1.94,3.8,16.48-6.25,13.54-7-2.04.08-12.57,6.25-13.54Z"/>
        <path class="cls-2" d="M998.56,985.16c-1.46,2.11-13.86.71-16.53-.44-16.49-7.14,25.41-12.37,16.53.44Z"/>
        <path class="cls-2" d="M646.8,455.87c-8.95-1.77-5.2-21.9-.98-21.93,7.63-.05,4.03,17.73.98,21.93Z"/>
        <path class="cls-2" d="M1121.68,314.23c12.07-4.01,9.61,11.43,1.79,15.77-5.07-2.3-7.94-13.73-1.79-15.77Z"/>
        <path class="cls-2" d="M622.83,641.62c-3.1,3.16-18.14-6.71-13.97-13.96,6.87-3.72,18.05,9.8,13.97,13.96Z"/>
        <path class="cls-2" d="M1155.97,734.01c2.76,3.02,2.51,9.54,2.46,13.48-17.46,3.28-11.13-22.96-2.46-13.48Z"/>
        <path class="cls-2" d="M1168.43,801.43c.81.83,1.02,19.33-6.97,15.95-8.44-3.57,2.03-21,6.97-15.95Z"/>
        <path class="cls-2" d="M1162.44,771.46c-19.35,3.88-12.1-18.44-1.85-11.13,2.79,1.99,1.77,7.98,1.85,11.13Z"/>
        <path class="cls-2" d="M808.69,917.28c.59,6.1,1,17.36-7.99,12.99-8.9-4.32,1.17-14.29,7.99-12.99Z"/>
        <path class="cls-2" d="M1118.47,901.3c3,3.16-3.13,17.22-9.97,15.96-2.95-4.75,4.95-21.26,9.97-15.96Z"/>
        <path class="cls-2" d="M1098.51,208.23c18.16-8.33,17.99,12.37,3.27,7.69-3.64-1.16-3.64-4.29-3.27-7.69Z"/>
        <path class="cls-2" d="M1132.45,240.12c-18.16,8.33-17.99-12.37-3.27-7.69,3.64,1.16,3.64,4.29,3.27,7.69Z"/>
        <path class="cls-2" d="M1086.51,899.29c-3.24-3.3,6.19-14.79,10.93-13.98,9.22,1.57-7.2,17.79-10.93,13.98Z"/>
        <path class="cls-2" d="M820.68,943.25l-2.17,11.78c-16.31,1.08-10.74-11.55,2.17-11.78Z"/>
        <path class="cls-2" d="M1112.47,683.57c-3.77.26-9.2-.27-11.97-2.99-10.02-9.82,14.22-10.5,11.97,2.99Z"/>
        <path class="cls-2" d="M1110.46,455.88c-.08,3.46,2.01,19.43-4.95,17.97-6.87-6.13-2.1-14.61,4.95-17.97Z"/>
        <path class="cls-2" d="M1142.45,875.34c2.74,3.07-4.32,14.87-8.95,13.97-10.09-1.96,5.68-17.62,8.95-13.97Z"/>
        <path class="cls-2" d="M842.64,236.16c1.23,1.05,3.46,17.59-4.94,13.97-6.93-2.99-.85-18.95,4.94-13.97Z"/>
        <path class="cls-2" d="M836.69,260.14c5.61-5.67,15.88,9.32,6.96,11.96-7.71,2.28-8.37-10.54-6.96-11.96Z"/>
        <path class="cls-2" d="M720.78,202.2c-2.86-4.34,6.78-15.78,8.98-15.93,7.33-.5-2.9,18.18-8.98,15.93Z"/>
        <path class="cls-2" d="M851.67,288.13c4.08-.12,5.12,17.36-1.97,15.93-5.8-1.17-2.56-15.8,1.97-15.93Z"/>
        <path class="cls-2" d="M1064.51,951.24c6.1,6.07-10.34,15.59-11.97,6.95-.96-5.07,9.97-8.94,11.97-6.95Z"/>
        <path class="cls-2" d="M1092.18,695.88c1.08,1.8.02,5.34.3,7.66-23.19-1.22-5.49-16.26-.3-7.66Z"/>
        <path class="cls-2" d="M1078.5,913.29c.53,4.2.19,5.33-3.2,7.76-13.16,9.42-11.19-10.37,3.2-7.76Z"/>
        <path class="cls-2" d="M1147.48,785.45c8.8-2.05,2.95,13.82-2.02,13.94-5.02.12-2.07-12.99,2.02-13.94Z"/>
        <path class="cls-2" d="M1100.5,497.83c5.23-5.2,12.64,10.13,4.96,11.96-5.5,1.31-5.99-10.94-4.96-11.96Z"/>
        <path class="cls-2" d="M816.69,176.25l-6.96,9.97c-7.19-6.4-1.16-11.38,6.96-9.97Z"/>
        <path class="cls-2" d="M814.69,270.13c-.53,4.11,2.86,15.01-4.97,11.95-7.31-2.85,2.51-14.92,4.97-11.95Z"/>
        <path class="cls-2" d="M787.74,160.28c9.92-2.72,6.89,10.33-.03,9.92-3.26-.19-4.5-8.68.03-9.92Z"/>
        <path class="cls-2" d="M1096.48,196.23c4.15,5.55-15.07,12.27-8.72-.15,1.67-1.28,8.15-.62,8.72.15Z"/>
        <path class="cls-2" d="M796.7,895.31c1.01,2.9-2.91,11.85-4.99,11.93-5.48.23-2.23-13.87,4.99-11.93Z"/>
        <path class="cls-2" d="M1128.48,282.09c-.86-.86-1.92-10.52,4.97-7.96,7.7,2.86-1.68,11.25-4.97,7.96Z"/>
        <circle class="cls-2" cx="775.19" cy="159.79" r="4.19"/>
        <path class="cls-2" d="M1136.45,823.41v7.97s-5.97,0-5.97,0c-.47-3.68-.12-5.86,3.02-7.96h2.96Z"/>
        <rect class="cls-2" x="823.35" y="332.59" width="12.68" height="2.89" transform="translate(8.99 689.59) rotate(-45.35)"/>
        <path class="cls-2" d="M832.67,206.21c.52,3.73,0,6.91-3.97,7.98v-7.98s3.97,0,3.97,0Z"/>
        <path class="cls-2" d="M1132.46,759.47c-.74.68-7.48,1.26-5.97-2.96,2.21-6.16,8.06,1.02,5.97,2.96Z"/>
      </g>
    </g>
  </g>
</svg>