<?xml version="1.0" encoding="UTF-8"?>
<svg id="Layer_2" data-name="Layer 2" xmlns="http://www.w3.org/2000/svg" viewBox="0 0 1581.08 1332.86">
  <defs>
    <style>
      .cls-1 {
        fill: #ff5224;
      }

      .cls-2 {
        fill: #25211e;
      }
    </style>
  </defs>
  <g id="a">
    <g>
      <path class="cls-2" d="M1138.53,815.66c2.97-.9,5.54.08,6.5,3.16,2.36,7.54.76,27.35,2.79,37.16,5.34,25.83,22.96,42.05,21.6,72.46-1.77,39.42-47.71,49.15-57.83,9.69-6.52-25.44,3.59-70.05,12.81-94.63,1.54-4.11,11.78-27.13,14.12-27.84ZM1134.36,873.46c-5.08-.14-7.73,47.29-7.04,52.94,3.07,25.14,24.85,24.69,24.09-3.95-.15-5.77-14.06-48.9-17.05-48.98Z"/>
      <path class="cls-2" d="M671.69,194.3c-4.1,4.09-13.78-12.13-15.58-15.37-10.49-18.85-11.84-32.16-.07-51.2,9.01-14.57,23.64-16.1,19.53-38.18-1.28-6.89-15.4-29.34,7.05-11.02,14.5,11.82,16.07,29.9,8.84,46.65-5.09,11.78-18.12,20.1-20.88,33.07-1.99,9.37,2.39,34.78,1.1,36.06Z"/>
      <path class="cls-2" d="M1227.29,797.52c.18.54-.12,1.31,0,2,.34,1.9.39,8.22,0,9.99l-2,2c-2.45,5.97-3.36,9.36-10.94,10.13-19.45,2-24.05-6.67-17.46-23.54,6-15.37,26.81-11.29,30.4-.58ZM1199.31,803.53c-6.34,7.03,14.19,12.23,15.98,2.95,1.46-7.54-15.17-3.85-15.98-2.95Z"/>
      <path class="cls-1" d="M1048.86,1187.47c4.41-1.04,14.43-1.61,17.58,1.49,3.14,3.1,3.53,22.59,1.02,25.07-5.09,5.04-21.74,3.92-25.05-3.04s-2.98-21.31,6.44-23.52Z"/>
      <path class="cls-2" d="M1031.44,1149.06c-4.86.67-13.95-3.41-17,1.97-8.54,15.08,12.25,2.79,19,4.02.26,1.2,3.22,2.6,1.85,6.62-2.12,6.2-28.04,10.79-31.82,3.88-9.75-17.82,17.19-38.69,26.96-22.39,1.29,2.15.52,4.75,1.02,5.9Z"/>
      <path class="cls-2" d="M1411.16,901.38c-5.85,13.09.32,30.93,13.97,16.94.93-2.27-14.54-13.39,2.02-10.95,7.64,3.63,9.73,6.73,7.11,16.04-3.31,11.76-12.79,12.59-23.06,8.92-18.89-6.76-11.39-31.19-.05-30.95Z"/>
      <path class="cls-2" d="M1085.94,1038.7c-8.07-8.52,1.5-25.59,16.68-21.86,25.96,6.37-1.15,38.26-16.68,21.86Z"/>
      <path class="cls-2" d="M1400.9,1053.45c2.62,4.06-1.28,18.22-5.74,20.68-14.01,7.74-24.16-10.06-19.67-22.65,3.62-4.33,24.08-.11,25.42,1.97Z"/>
      <path class="cls-1" d="M465.39,466.37c1.58,2.78.51,17.35-1.99,19.13-8.14,5.8-23.42,1.82-23.69-10.53-.32-15.15,21.42-16.09,25.68-8.61Z"/>
      <path class="cls-1" d="M1222.6,842.05c16.56-.87,18.3,23.59,1.43,24.72-19.26,1.29-16.7-23.92-1.43-24.72Z"/>
      <path class="cls-2" d="M515.81,463.95c-5.58,2.58-14.12-7.92-14.99-7.95-6.17-.2.63,15.33,1,17.94-8.41.66-15.24-8.16-13.6-16.48,2.4-12.18,9.38-11.87,20.15-9.03,8.92,2.36,10.15,7.89,7.44,15.52Z"/>
      <path class="cls-1" d="M1381.51,857.8c14.27-8.71,32.07,25.5,2.57,21.71-12.31-1.58-5.52-19.91-2.57-21.71Z"/>
      <path class="cls-1" d="M1448.84,877.13c-1.16.73-16.28.74-17.42.03-4.14-2.58-1.59-18.62,10.71-17.91,11.34.66,10.59,15.44,6.71,17.88Z"/>
      <ellipse class="cls-2" cx="487.03" cy="509.38" rx="9.63" ry="9.62"/>
      <path class="cls-2" d="M1003.19,1212.71c-3.93,6.18-21.8,2.96-18.98-7.76,4.27-16.21,24.9-1.56,18.98,7.76Z"/>
      <path class="cls-1" d="M1427.15,907.38c-16.55-2.43-1.09,8.69-2.02,10.95-13.65,13.99-19.82-3.86-13.97-16.94,1.74.04,13.42,4.77,15.99,5.99Z"/>
      <path class="cls-1" d="M515.81,463.95c-3.21,9.03-4.89,9.28-13.99,9.99-.37-2.61-7.17-18.14-1-17.94.87.03,9.41,10.53,14.99,7.95Z"/>
      <path class="cls-1" d="M1031.44,1149.06c1.11,2.56,1.37,3.09,2,5.99-6.75-1.23-27.54,11.06-19-4.02,3.05-5.38,12.14-1.3,17-1.97Z"/>
      <path class="cls-1" d="M1227.29,797.52c9.07.19,15.72-2.35,21.98,4.98-8.32,11.51-11.79-3.72-21.98-2.99-.12-.69.18-1.45,0-2Z"/>
      <path class="cls-1" d="M1225.29,811.5l2-2c-.35,1.59-1.94,1.87-2,2Z"/>
      <path class="cls-1" d="M1287.26,915.36c2.13,5.35-3.54,26.68-.06,29.04,6.77,4.58,23.89-13,27-18.93,9.78,5.78,15.4,9.85,11.03,21.85,5.26,1.71,5.48-5.64,6.03-5.98,2.2-1.36,13.77,14.03-2,8.97,2.93,2,4.34,7.39,6.96,9,1.16.72.57-7.76,3.98-1.99,4.04,6.86,2.95,16.31,2.99,23.96-.56.72-5.05-2.84-5.96-1.99-3.82,3.56,4.27,3.23,4.17,6.87-.11,4.01-2.67,10.14-4.16,14.12-6.54,17.48-31.49,72.99-47.94,79.77-1.81.75-4.51-1.32-5.64-.61-1.44.9-1.2,6.54-5.37,5.7-2.77-.56-2.83-3.29-2.01-5.99,1.96-6.46,16.54-8.33-3.01-13.96l2,5.96-10,3.99,9.95-1c-1.19,3.44-6.12,11.12-5.98,13.98.13,2.66,6.71-1.1,6.01,3-8.41,3.53-18.11,8.37-25.8,13.17-33.17,20.7-38.68,35.45-83.09,36.9-11.77.38-7.31-2.81-11.43-4.73-10.66-4.96-6.05,1.99-7.9,4.15-4.03,4.68-43.77,3.19-49.68-2.46-13.48-12.92,33.72-24.03,40.73-27.32,24.44-11.47,26.18-26.18,41.3-44.61,13.43-16.37,33.22-26.66,39.33-48.57,3.82-13.67,4.25-29.96,7.57-44.37,3.33-14.47,8.19-33.25,18.95-42.98,11.99-10.85,25.55-16.54,42.03-14.93ZM1258.1,960.49c-2.3-3.09-4.37-7.88-6.95-10.04-7.44-6.24-14.14-2.98-11.01,6.96,1.36,4.29,23.53,27.57,27.11,23.86,1.1-9.07-4.71-14.8-9.15-20.78ZM1281.4,987.12c2.52,3.61,25.69-2.58,30.38-4.29,20.78-7.56,17.18-20.18-5.66-13.64-2.61.75-21.95,8.27-22.9,9.06-2.66,2.23-2.37,5.8-1.83,8.87ZM1253.42,982.27c0-4.99-4.05-9.04-9.04-9.04s-9.04,4.05-9.04,9.04,4.05,9.04,9.04,9.04,9.04-4.05,9.04-9.04ZM1307.46,998.09c0-4.66-3.78-8.44-8.45-8.44s-8.45,3.78-8.45,8.44,3.78,8.44,8.45,8.44,8.45-3.78,8.45-8.44ZM1329.22,1001.23l-5.02-5.95c-4.33-.97-2.94,2.01-2.96,5.96h7.99ZM1288.8,1040.81c1.82-3.18.47-13.25-1.06-17.07-8.78-21.97-64.81-22.53-58.11.07,3.03,10.2,16.26,2.91,22.66,3.24,11.29.58,9.84,14.08,15.81,18.31,4.7,3.33,11.53.86,12.95,2.05.61.51,1.59,11.79,7.21,13.76,2.42-5.65,4.58-6.71,10.98-5.99,2.77-2.39-8.67-10.68-12.93-10.11-2.09.28.35,5.02-3.04,4.11-2.2-6.8,4.62-6.81,5.52-8.38ZM1263.26,1071.17c-2.32-2.27-6.43.85-.98,3.97,1.74.25,1.13-3.83.98-3.97ZM1243.27,1089.15c-1.3-1.29-11.08.06-9.97,4.95,1.73,7.66,14.54-.39,9.97-4.95ZM1191.31,1119.11h-3.98v5.97h3.98v-5.97ZM1205.3,1131.07c2.14-1.88-4.06-8.11-5.98-5.97-3,3.37,2.55,8.99,5.98,5.97Z"/>
      <path class="cls-1" d="M1134.36,873.46c2.99.08,16.9,43.21,17.05,48.98.75,28.64-21.03,29.09-24.09,3.95-.69-5.65,1.97-53.07,7.04-52.94Z"/>
      <path class="cls-1" d="M1199.31,803.53c.81-.9,17.44-4.59,15.98,2.95-1.79,9.29-22.32,4.09-15.98-2.95Z"/>
      <path class="cls-2" d="M1288.8,1040.81c-.9,1.57-7.73,1.57-5.52,8.38,3.39.91.95-3.83,3.04-4.11,4.26-.58,15.7,7.71,12.93,10.11-6.4-.72-8.56.35-10.98,5.99-5.62-1.97-6.6-13.25-7.21-13.76-1.42-1.19-8.25,1.28-12.95-2.05-5.97-4.23-4.52-17.73-15.81-18.31-6.4-.33-19.63,6.96-22.66-3.24-6.71-22.6,49.32-22.04,58.11-.07,1.53,3.82,2.88,13.89,1.06,17.07Z"/>
      <path class="cls-2" d="M1281.4,987.12c-.54-3.07-.83-6.63,1.83-8.87.94-.79,20.28-8.31,22.9-9.06,22.84-6.55,26.44,6.08,5.66,13.64-4.69,1.71-27.86,7.9-30.38,4.29Z"/>
      <path class="cls-2" d="M1258.1,960.49c4.45,5.97,10.26,11.7,9.15,20.78-3.58,3.71-25.76-19.56-27.11-23.86-3.14-9.94,3.56-13.21,11.01-6.96,2.58,2.16,4.65,6.95,6.95,10.04Z"/>
      <ellipse class="cls-2" cx="1244.37" cy="982.27" rx="9.04" ry="9.04"/>
      <ellipse class="cls-2" cx="1299.01" cy="998.09" rx="8.45" ry="8.44"/>
      <path class="cls-2" d="M1243.27,1089.15c4.57,4.56-8.24,12.61-9.97,4.95-1.11-4.9,8.68-6.25,9.97-4.95Z"/>
      <path class="cls-2" d="M1329.22,1001.23h-7.99c.02-3.94-1.36-6.93,2.96-5.95l5.02,5.95Z"/>
      <path class="cls-2" d="M1205.3,1131.07c-3.42,3.02-8.98-2.61-5.98-5.97,1.91-2.14,8.11,4.09,5.98,5.97Z"/>
      <rect class="cls-2" x="1187.33" y="1119.11" width="3.98" height="5.97"/>
      <path class="cls-2" d="M1263.26,1071.17c.15.14.76,4.23-.98,3.97-5.45-3.12-1.34-6.24.98-3.97Z"/>
      <path class="cls-2" d="M1307.24,885.41c1.59-.98,6.12-15.37,6.06-18.88-.17-8.79-12.13-27.69-9.88-30.89,1.68-2.39,23.07-8,27.84-5.17,5.73,3.39,6.46,29.2,6.04,36.06-.52,8.59-7.3,25.03-6.21,29.56.29,1.21,7.48,3.9,10.18,6.25,2.88,2.51,21.57,22.46,21.92,24.05,1.19,5.44-8.62,5.49-11.98,4.98,20.71,34.59,7.03,67.59-8.28,100.57-23.83,51.32-33.74,55.81-79.5,84.33-14.6,9.1-28.43,24.58-42.36,31.57-21,10.54-84.55,15.46-108.45,12.97-17.53-1.83-43.1-11.29-36.3-33.8,7.47-24.74,50.5-25.89,66.06-39.82,7.08-6.33,17.11-25.7,25.01-34.93,10.67-12.48,27.64-23.07,32.95-38.97,9.78-29.3,6.37-62.93,27.9-89.96,5.57-6.99,27.85-20.67,28.79-22.24,1.42-2.39-3.35-11.62-1.76-15.67,8.05-1.71,48.29,2.28,51.96,0ZM1287.26,915.36c-16.48-1.61-30.04,4.08-42.03,14.93-10.76,9.74-15.62,28.51-18.95,42.98-3.32,14.41-3.75,30.7-7.57,44.37-6.12,21.91-25.9,32.21-39.33,48.57-15.12,18.43-16.86,33.13-41.3,44.61-7.01,3.29-54.22,14.4-40.73,27.32,5.91,5.66,45.64,7.14,49.68,2.46,1.86-2.15-2.75-9.11,7.9-4.15,4.12,1.92-.34,5.12,11.43,4.73,44.41-1.45,49.92-16.2,83.09-36.9,7.7-4.8,17.4-9.64,25.8-13.17.71-4.1-5.88-.34-6.01-3-.14-2.86,4.79-10.54,5.98-13.98l-9.95,1,10-3.99-2-5.96c19.55,5.63,4.97,7.5,3.01,13.96-.82,2.7-.76,5.42,2.01,5.99,4.17.85,3.93-4.79,5.37-5.7,1.13-.7,3.83,1.36,5.64.61,16.45-6.79,41.4-62.3,47.94-79.77,1.49-3.98,4.05-10.11,4.16-14.12.1-3.64-7.98-3.31-4.17-6.87.91-.85,5.4,2.71,5.96,1.99-.04-7.65,1.06-17.1-2.99-23.96-3.41-5.78-2.82,2.7-3.98,1.99-2.62-1.61-4.03-7-6.96-9,15.77,5.06,4.2-10.32,2-8.97-.56.34-.77,7.69-6.03,5.98,4.37-12.01-1.26-16.07-11.03-21.85-3.1,5.93-20.23,23.52-27,18.93-3.48-2.36,2.19-23.69.06-29.04Z"/>
      <g>
        <path class="cls-2" d="M283.7,164.62c1.04,14.38-12.32,30.99,6.82,39.2l39.42-5.51c.8,2.78-3.19,10.66-1.99,11.96.72.78,14.53,4.21,19.71,7.28,30.35,17.96,28.25,47.15,42.49,73.38,8.06,14.84,23.01,18.9,34.68,29.25,8,7.09,13.51,18,22.35,23.6,12.3,7.79,29.28,6.68,43.2,12.75,27.58,12.03,22.6,34.73-4.11,42.94-12.75,3.92-69.56,6.15-82.9,4.07-13.8-2.15-32.48-15.64-46.06-21.88-16.97-7.79-30.26-8.73-46.31-21.63-13.21-10.62-48.88-56.94-53.45-72.42-3.68-12.44-1.53-28.82.46-41.38l-8-.02c-.86-.74,8.89-18.81,9.95-20.46,1.78-2.76,8.89-5.9,9.59-10.85.38-2.69-7.14-15.35-8.6-20.57-6.33-22.61-6.55-39.4,22.74-29.72ZM346.66,237.64c-3.45-3.26-3.3-6.6-9.33-9.78-4.15-2.19-26.08-8.48-27.51-2.27l4.13,24.63c-3.64,3.68-23.85-13.86-27-13.61-2.21.18-14.26,15.19-8.98,19.61l-5.97-2c-.67.66-1.88,16.52-1.7,18.73.89,11.08,13.68,30.53,19.93,39.9,28.37,42.53,36.54,40.31,81.03,58.88,6.08,2.54,24.17,13.94,27.79,14.37,4.15.5,7.34-2.17,9.73-2.13.9.02,3.9,12.14,10.1-3.86,10.39,11.16,10.21,6.07,21.9,5.86,14.14-.25,31.97,2.9,45.07-2.9,9.64-4.26,9.71-7.75.01-12.02s-20.2-3.56-29.63-6.34c-21.42-6.3-25.2-18.77-40.31-31.62-8.94-7.6-20.94-12.89-29.06-20.9-19.41-19.15-16.98-52.18-34.84-72.62-1.54-1.76-4.41-1.06-5.36-1.94Z"/>
        <path class="cls-2" d="M625.71,443.98c-13.58-3.94-.23-31.39,1.55-41.42,4.59-25.97.96-51.14-13.89-73.06-26.48-39.1-65.52-56.43-48.5-113.13,8.6-28.66,27.48-33.3,22.37-70.48-1.56-11.33-9.55-24.97-11.09-34.91-1.78-11.49,6.61-3.2,10.43,1.61,14.07,17.7,24.65,46.01,23.12,68.71-1.52,22.45-18.09,39.22-13.06,63.06,7.99,37.9,53.42,55.9,58.85,102.96,4.55,39.36-19.64,61.69-29.78,96.66Z"/>
        <path class="cls-2" d="M571.77,509.89c-13.45-3.39-12.74-23.77-11.75-34.71,3.14-34.38,19.33-55.45,6.7-93.07-16.12-48.02-83.87-54.56-80.97-116.98.99-21.29,20.58-58.35,36.7-72.16,2.03-1.74,4.57-3,7.35-2.64-9.81,33.28-29.91,75.28.98,103.89,6.98,6.46,15.7,7.67,22.38,11.59,39.25,23.04,54.81,66.3,43.13,109.75-3.46,12.86-24.51,57.28-24.51,63.39v30.96Z"/>
        <path class="cls-2" d="M525.36,544.4c14.03-1.46,29.46-.51,42.87,3.99,4.35,1.46,20.61,8.89,19.52,14.4-.34,1.73-24.55,6.16-30.61,9.37-20.84,11.03-53.27,55.48-80,33.3-3.96-3.28-6.72-7.49-7.37-12.59-3.85-30.02,30.57-45.87,55.59-48.48ZM547.79,559.85c-15.35-5.64-69.66,8.22-61.75,30.66,3.7,10.51,23.12-1.18,28.74-4.75,10.5-6.67,23.84-17.74,33.01-25.91Z"/>
        <path class="cls-1" d="M346.66,237.64c.94.89,3.82.18,5.36,1.94,17.86,20.44,15.43,53.47,34.84,72.62,8.11,8.01,20.11,13.29,29.06,20.9,15.11,12.85,18.9,25.31,40.31,31.62,9.43,2.78,20.21,2.2,29.63,6.34s9.62,7.76-.01,12.02c-13.11,5.8-30.93,2.64-45.07,2.9-11.69.21-11.51,5.3-21.9-5.86-6.2,15.99-9.19,3.87-10.1,3.86-2.39-.04-5.57,2.63-9.73,2.13-3.61-.43-21.7-11.83-27.79-14.37-44.49-18.57-52.66-16.35-81.03-58.88-6.25-9.37-19.04-28.82-19.93-39.9-.18-2.21,1.03-18.06,1.7-18.73l5.97,2c-5.28-4.42,6.77-19.43,8.98-19.61,3.14-.25,23.36,17.3,27,13.61l-4.13-24.63c1.43-6.2,23.36.09,27.51,2.27,6.03,3.17,5.88,6.52,9.33,9.78ZM343.94,266.21c1.35-2.32,7.09-18.94,5.99-19.96-10.59-5.07-21.88,23.88-17.97,27.94,5.02,1.37,9.75-4.16,11.98-7.98-4.26,19.32,20.34,12.45,12.22,2.88-3.08-3.63-7.92-3.04-12.22-2.88ZM323.95,280.17c-1.79-9.07-35.45-13.6-37.96-9.93-3.72,13.43,35.23,13.64,37.96,9.93ZM316.93,291.28c0-3.84-3.12-6.95-6.96-6.95s-6.96,3.11-6.96,6.95,3.12,6.95,6.96,6.95,6.96-3.11,6.96-6.95ZM341.48,325.68c3.85-3.96,1.24-17.64,12.41-20.74,3.65-1.01,14.3,3.32,13.62-5.81-.94-12.6-44.68-7.51-45.75,15.98-.62,13.71,12.76,17.74,19.72,10.57ZM337.93,340.13l-5.98.98c1.82,2.12,3.03,3.64,5.98,3v-3.97ZM347.95,358.09c7.75-3.65,3.83-11.46-4.01-9.98l4.01,9.98ZM437.51,373.15l-4.2,1.46,2.91,8.37,4.2-1.46-2.91-8.37Z"/>
        <path class="cls-1" d="M547.79,559.85c-9.17,8.17-22.51,19.25-33.01,25.91-5.62,3.57-25.04,15.26-28.74,4.75-7.91-22.44,46.4-36.3,61.75-30.66Z"/>
        <g>
          <path class="cls-2" d="M1503.09,593.78c16.58,96.61-16.38,196.55-128.9,197.74-8.18.09-20.94-3.72-7.02-9.01,29.91-11.37,41.02-2.9,69.27-29.64,35.63-33.72,45.08-79.34,44.67-127.14-.17-20.12-3.37-48.61-6.02-68.89-2.58-19.77-8.43-39.02-9.96-58.94,4.11-.86,4.64,2.03,6.37,4.6,15.95,23.59,22.85,58.22,28.05,85.91.57,3.03,3.49,5.05,3.54,5.36Z"/>
          <g>
            <path class="cls-1" d="M715.67,443.98c-17.05-61.08-23.66-129.82-7.02-191.78,2.53-9.41,22.43-63.88,31.97-61.89,5.27,1.1,1.34,19.79,5.49,24.5l13.51,23.42c2.9-24.92,11.62-54.38,25.18-75.72,25.56-40.22,87.27-58.57,111.47-100.32,3.23-5.57,10.73-29.34,12.3-29.68,8.16-1.76,14.59,24.64,15.02,30.87,1.79,25.59-12.52,39.59-11.07,62.99,16.31-15.32,35.82-30.38,56.26-39.65,43.83-19.9,87.11-18.49,121.65-58.19,3.65-4.2,18.69-27.48,20.34-28.02,9.21-2.99,7.2,7.33,6.7,15.1-1.3,20.16-7.72,48.23-18.42,65.47-2.1,3.38-22.92,26.13-21.63,27.3,4,3.62,7.65-4.88,9.57-5.91,57.04-30.86,107.25-9.53,161.77-51.4,11-8.45,18.17-19.78,27.47-28.6,2.17-2.06,3.49-4.67,7.03-3.94,1.47,20.59-7.64,43.03-19.11,59.78-11.43,16.67-33.55,30.63-19.7,53.91,14.26,23.96,54.3,14.16,74.13,2.49,26.46-15.58,36.4-36.48,42.58-65.33.6-2.78-1.7-5.78,3.02-4.89,27.97,29.39,22.28,76.67-4.95,104.86,9.38,3.13,17.5.28,25.46-4.52,53.49-32.26,42.31-112.43,108.48-133.26,5-1.58,27.61-7.28,18.56,3.02-69.2,78.84.74,134.9-6.56,218.71-3.58,41.14-40.99,92.18-35.87,127.59,1.28,8.88,7,18.88,16.86,19.28,23.82.97,38.6-59.7,68.92-51.04-33.19,38.29-8.64,83.63-12.04,127.78-2.06,26.71-16.9,82.44-30.35,105.49-2.44,4.19-5.11,9.09-9.59,11.39-.05-.32-2.97-2.34-3.54-5.36-5.2-27.68-12.1-62.32-28.05-85.91-1.73-2.56-2.27-5.45-6.37-4.6,1.53,19.91,7.38,39.17,9.96,58.94,2.64,20.28,5.84,48.77,6.02,68.89-11.67,10.02-20.65,27.37-35.97,31.96,1.18-111.08-78.69-266.4-152.86-347.58-79.23-86.71-168.84-131.96-287.84-135.77-130.52-4.19-259.66,77.04-254.88,218.78.19,5.65,4.35,21.27,2.98,24.99-1.66,4.51-24.53,19.29-30.22,23.61-2.16,1.64-5.83,1.62-6.65,2.25Z"/>
            <path class="cls-1" d="M1581.02,186.32c.69,8.04-5.59,12.65-8.36,20.58-7.83,22.4,3.81,43.4-2.5,67.41s-36.77,45.45-61.06,49.81c-.78-9.6,7.98-16.48,12.32-24.62,13.37-25.09,6.46-54.35,18.58-79.31,7.94-16.35,22.46-30.85,41.03-33.88Z"/>
          </g>
          <g>
            <path class="cls-2" d="M1445.13,657.7c-.17,16.08-4.3,50.28-18.06,60.85-18.44,14.16-7.29-27.64-11.92-36.88-5.16-10.3-47.61-24.74-59.85-27.07-70.35-13.35-126.3,19.44-177.97,59.02-77.6,59.45-97.31,108.47-147.89,187.76-56.88,89.17-119.51,198.39-202.91,263.6-132.59,103.68-326.52,126.85-463.55,17.97-5.86-4.66-12.45-14.44-18.31-17.65-6.89-3.78-19.1-5.33-27.24-8.73-86.33-36.02-152.88-112.52-191.05-196.56-38.48-84.71-32.46-224.13,4-309.03,6.79-15.81,23.25-37.02,27.8-50.11,3.12-8.97,3.42-21.26,6.44-31.51,4.76-16.13,14.61-30.87,21.79-46.13,2.79-5.92,2.83-13.22,8.63-17.3,3.85-.03,2.64,35.11,15.59,31.69,18.13-4.79,14.72-52.92,20.41-67.66,2.15-5.56,18.51-28.24,23.97-27.94,5.49.3.94,13.44.91,16.84-.19,21.72,6.23,30.9,18.04,48.13,3.82,2.43,24.38-4.32,31.25-4.83,58.98-4.34,114.38,39.45,136.65,91.61,3.56,8.34,9.21,26.5,11.4,35.55,11.71,48.5,4.54,98.94,6.61,148.21,1.67,2.44,33.78-18.97,36.95-21.98,5.67-5.4,9.99-14.84,15-20.97,2.68-3.29,8.84-5.62,9.75-8.34,1.69-5.03-3.22-17.27-3.72-23.65-2.48-31.57,11.77-68.89,43.93-78.85-3.11,17.23-6.68,31.07-5.98,48.95.09,2.41-1.51,7.43,1.97,6.96,38.83-69.49,70.63-144.27,124.91-203.75,8.57-9.39,23.21-24.47,33-31.93.82-.63,4.49-.61,6.65-2.25,5.69-4.32,28.57-19.11,30.22-23.61,1.36-3.71-2.79-19.34-2.98-24.99-4.78-141.74,124.36-222.96,254.88-218.78,119,3.82,208.61,49.06,287.84,135.77,74.17,81.18,154.04,236.49,152.86,347.58ZM1167.33,246.23c.72-3.66-1.73-4.97-4.2-6.77-6.72-4.9-73-32.19-75.72-29.17,3.34,18.4,5.59,32.13-.56,50.38-9.02,26.73-39.57,42.14-32.96,74,4.84,23.3,48.77,37.56,60.5,11.45,10.62-23.63-7.39-49.19,2.64-71.26,8.01-17.62,31.54-29.09,50.3-28.63ZM877.55,527.87c.43-.51,2.54-.64,2.94-1.85.67-2.01-1.51-5.61-.95-6.11.46-.41,3.82.63,5.43-.45.92-.62,4.72-9.29,4.44-10.42-.36-1.48-11.63-7.65-9.85-13.11,1.78-1.67,18.85,8.29,27.37,4.54,5.18-2.28,5.63-7.04,8.67-9.46,4.85-3.87,13.99-4.5,17.9-12.08-12.14-7.07,1.32-2.8,3.96-3.9.79-.33,12.66-10.23,13.08-10.98,1.15-2.04-2.06-6.48-1.02-7.99s10.23,0,7.98-6.08c-4.35,1.41-9.72-2.1-12.87-2.07-.44,0-3.52,7.81-7.11,4.05-2.11-2.21,2.44-10.75,4.43-11.55,3.05-1.22,4.59,1.21,6.65,1.37,1.03.08.74-3.37,2.14-3.8,9.66-2.95,5.91,5.02,6.76,6,3.34,3.83,4.09-3.84,5.27-4.08,2.11-.44,11.8,1.17,12.7,2.11,1,1.04.89,4.89-2.87,3.87-2.49-.68-6.08-5.84-8.15-1.92-1.64,3.1.51,5.22.09,7.05-.63,2.71-3.98,3.43-3.03,6.95.85.95,21.38-11.87,21.95-13.01,2.25-4.5-6.16-1.71-7.77-6.22-1.68-4.71,2.37-14.18,1.79-14.71-.2-.18-3.28.45-5.2-.75-6.2-3.85-3.95-9.52-5.06-10.94-.56-.71-5.02-.82-7.11-1.85s-4.74-4.13-5.82-4.3c-5.29-.87-8.7,10.48,1.19,7.86l-5.97,2,3.97,3.95c-5.56,1.91-12.79.24-13.87,7.22-.6,3.86,7.66,2.84,3.87,6.79-.5.52-5.87-4.05-9.02-3.96-3.63.1-9.33,9.61-10.93,2.92-2.25-9.44,10.72-19.49,14.85-27.05,11.59-21.24,2.93-46.2-2.88-67.78l-6.81,4.16-7.14,19.79c-5.69-20.33-22.17-31.71-20.02-54.93,1-10.74,7.79-20.88,9.9-30.07,1.94-8.45-10.35,4.2-11.88,6.12-7.65,9.59-17.08,32.08-17.8,44.24-1.16,19.62,11.14,36.81,7.79,56.62l-10.02-18.91c-2.42-1.87-17.49-19.81-19.92-17.02-.43,16.96,12.15,27.27,12.15,44.93,0,14.47-8.54,29.61-20.06,38.04-16.95,12.41-.11-17.94,3.89-24.07,1.53-4.8-50.34,14.77-51.97,17.02-.29.4,2.83,5.33,2.01,5.95-10.2-3.06-9.98,4.12-12.33,5.77-1.03.73-4.23-1.7-7.5-.73-27.27,8.11-80.8,59.78-100.06,82.46-49.62,58.4-74.09,126.27-115.52,189.58l2.55,6.55c11.51-7.44,10.32-22.64,25-25.94-5.53,23.53,8.26,45.26,5.98,68.88-1.72,17.79-15.09,36.59-31.94,42.95,2.27-11.1,11.59-18.92,15.72-29.21,7.55-18.83,3.42-33.62.25-52.66-4.83-.51-6.54,4.76-10.48,6.46-29.24,12.63-40.65-51.42-33.49-70.39-11.99,12.2-15.33,30.36-14.04,47.01,1.46,18.85,29.9,65.85,9.22,80.96-11.84,8.66-14.45-7.98-23.14-10.13v30.96c0,3.22-9.09,16.73-13.01,18.94l3.01-31.91c-1.71-2.05-12.34,8.46-13.05,10.03-2.77,6.09,3.16,6.42,3.08,11.93-10.16-1.02-3.2,1.87-4.92,5.92-1.06,2.48-6.3,5.43-8.09,8.07-.57-7.78-9.87,2.63-7.03-6.99.54-1.83,8.43-2.4,10.02-6l-5.98-2.97,9.98-.04c-1.52-1.59-1.78-5.77-2.01-5.98-.99-.92-24.38,8.77-25.13,9.89-2.14,3.18,5.21,12.38,5.23,15.07,0,.58-8.81,2.54-1.51,8.45,8.08,6.54,10.16-1.51,16.44-5.4-4.75,9.28,13.55,10.09,16.95,13.98,8.82,10.08-16.18-3.34-17.22-3.44-4.42-.42-11.39,2.88-16.74,1.41-.91.89,2.71,22.09,3.98,24.5,1.57,2.97,17.35,5.58,7.11,13.6-4.79,3.75-10.34-1.56-5.3,11.09,3.01,7.56,4.35-.71,6.84-2.61,1.65-1.26,5.19-.9,6.53-2.51,1.47-1.76-3.64-6.61.82-6.11,4.97,10.58-1.78,7.74-3.96,10.01-3.98,4.16,6.25,6.99,9.67-1.36,2.19-5.33-7.74-5.59-1.73-7.7,3.97-1.4,7.93-1.11,12.01-.96,1.76,7.5-9.19.55-5.79,8.77.67,1.63,14.08,11.31,9.79,15.17s-6.44-4.11-7.96-5.04c-2.45-1.5-21.45,1.77-21.94,4.18-.14.66,1.57,12.28,2.04,12.73.66.63,8.84.43,10.67-.15,3.54-1.14,2.02-7.36,6.18-5.7,6.82,2.72-4.66,12.41,7.03,9.99-3.06,6.58-13.32.12-19.88,4.09-.63,19.95,6.46,12.12,13.32,15.25,5.16,2.36,5,10.57,12.54,8.6,2.84-13.54-10.37-2.65-3.96-15.95l4.99,5.97.96-3.97h8.01s-1.97,15.96-1.97,15.96l8-2.01-2.03-5.97,9.98-2.01c1.02,4.74-2.85,10.4-2.05,14.66.15.82,6.97,2.61,4.08,9.3-.95.95-11.52-2.7-8,4.99,1.94,4.25,9.64.48,7.99,6.99l-6.04,1.04c-.68,5.46,7.49,11.73-3.95,6.95.87,5.85-.12,6.83-6.02,6.02.09,2.55,5.84,5.69,5.97,6.97.53,5.5-13.99-2.88-11.92,3.96.25.81,7.6,14.32,8.27,14.85.46.36,10.26-1.41,11.7.18,1.14,1.26-2.25,6.97-1.79,8.83.87,3.51,16.89,6.04,17.76,5.13.21-.22.21-5.76,0-5.97-1.37-1.36-8.57,4.35-5.97-10.01,3.17,4.78,6.27-5.72,9.96-1.98,1.79,1.82-9.8,15.49,4,18.96-4.1,1.47-6.36,6.66-8.69,8.42-1.62,1.23-5,.29-5.3.58-.83.82,3.85,9.49,4.32,9.76,3.35,1.94,14.63-7.36,19.65-3.76,3.5,4.04-12.51,5.82-6.94,17.92,5.21,11.31,11.48.99,15.81,2.08,7.06,1.77,2.36,10.34-6.84,3.96-.3,1.86-.21,2.53.94,4.03,2.48,3.22,29.56,20.95,34.49,23.46,10.14,5.17,22.89,8.31,33.53,12.43l.97-5.97c8.91-2.69,4.51,5.89,9,7.98,7.91,3.68,2.02-9.57,9.97-5.97,5.58,2.53-1.41,13.35,11,9.96l-1.99-7.96c3.66-.48,5.82-.11,7.94,2.97-1.81,3.27-6.19,6.22-1.02,8.31,1.22.49,23.03,2.68,26.14,2.77,126.55,3.53,208.8-99.2,269.56-193.98,77.9-121.53,113.13-213.96,251.61-281.84,4.47-2.19,15.93-9.24,16.88-9.57,6.92-2.45,22.18-5.71,30.04-7.45,4.86-1.07,29.29-3.52,30.39-4.6.71-.69-1.95-4.67-1.58-6.75.54-3.09,7.97-6.2,7.61-11.21,7.08-1.75,3.01,7.96,3.97,12.96-3.7.13-4.63-2.82-4,2.99h17.97s-1.98-9.97-1.98-9.97l9.97,2c3.94-7.87-2.06-13.82-1.98-18.74.05-3.28,4.45-10.8,4.01-11.2s-8.18-.15-9.99-5.05c-1.56-4.23,9.05-3.85,5.96-10.95-3.36,3.67-12.83-1.02-13.96.01-.84.77,6.19,19.41-5.99,19.95l.31-32.8c1.01-3.61,7.03-2.57,8.76-5.06,2.18-3.13-1.46-9,3.86-8.02,7.94,1.46,5.56,10.21,3.04,15.92h13.97s-7.98-7.95-7.98-7.95c12.12,1.82,12.47,2.52,18.01-8.99.09-3.02-12.61,2.43-10-5,4.34-1.61,9.83,2.16,12.86,2.09,1.64-.04-.12-6.24,5.11-4.08l-1.99,5.96h7.99c-4.7-3.37-11.77-20.07-14.03-21.94-8.14-6.73,3.82,20.23-7.95,13.98,2.28-11.92-4.39-6.69-6.01-8.02-.57-.46,3.2-9.33,1.64-14.54-1.37-4.56-29.12-28.2-31.6-25.39-.05,7.54,2.49,12.04-5.99,13.97-.25-5.87-.36-18.51-4.04-22.94-1.63-1.96-38.77-22.43-41.3-22.68-8.97-.88-2.58,16.41-14.62,11.66-1.42-6.77,5.48-9.87,5.98-15.94l-13.96-4.03c.89,11.19-19.11,46.22-8.05,53,15.22,9.33,13.29-26.81,23.21-28.95,6.32-1.36,13.57,20.16,14.32,25.37,1.53,10.69-2.85,23.77,4.47,31.49-9.71.13-6.02,7.74-7.99,10.98,1.64-1.59,6.96.39.99,3.99-1.64.35-1.14-3.85-.99-3.99-6.18,10.17-27.07,17.24-36.67,24.27-3.7,2.71-4.03,8.22-9.28,7.68.38-15.38,18.07-21.15,27.05-29.87,13.08-12.69,15.25-33.06,10.89-50.01-4.37,3.21-4.64,9.59-8.88,14.06-10.77,11.34-26.2,6.75-30.12-8.01-7.04-26.54,24.98-50.18,5.43-85.33-3.1-5.58-8.75-10.55-12.02-15.95-9.59-15.9-12.53-30.66-6.36-48.57-6.69-7.18-17.64,31.26-17.95,34.95-2.24,26.66,20.56,55.97,8.99,82.9-9.04,21.04-34.85,21.9-35.99-4-7.14,10.1-12.07,28.5-11.03,40.92,1.62,19.34,27.1,48.09,2.04,64.93,5.16-19.88-13.94-38.28-16.01-56.92-2.26-20.35,2.86-31.13,11.66-48.28,1.8-3.5,6.48-8.19,7.35-10.74.55-1.62-.51-9.89-1.01-9.89h-31.98l3.98,3.97c-3.68-.3-10.18,4.43-12.81,4.15-1.92-.21-1.7-5.21-4-5.63-1.07-.2-20.37,3.77-21.24,4.41-2.72,2-1.1,8.79-4.94,11.05-9.43-1.41,4.6-5.19,1.02-7.96-3.95-3.05-19.31,3.83-23.96,6.01l21.53,10.36c2.92,16.52-10.11,4.89-14.39,5.43-1.71.22-3.69,10.03-9.14,8.14-2.55-10.26,5.42-8.62,11.96-12.96-3.73-11.43-11.29-2.59-11.93-3.01-.28-.19-.46-4.6-3.06-5.98-2.42-1.29-4.97,7.56-10.98,4l2,7.96c-4.98,1.93-5.7-6.55-6.98-5.97-5.81,2.65-4.75,19.58-2.73,21.8.87.95,5.22-.3,5.71.17,3.94,3.84-2.21,7.6-8.61,5.94-1.59-.41-1.32-3.8-2.68-4.03-4.67-.8-13.29,5.68-16.66-2.94-1.39-3.55,7.83-5.11,8.85-5.07,1.37.05.38,5.6,4.09,4.09,10.83-4.41-9.01-12.8-15.32-5.75l-23.6,15.78c-.86,3.54,3.37,1.29,3.98,1.99.36.4-3.65,9.58-4.02,9.97-3.44,3.63-3.3-4.1-6.88-4.22-5.72-.19-12.18,2.57-11.23,9.05.32,2.16,7.78,1.94,6.13,7.15-6.41-3.64-24.86.59-28.86,6.22-1.29,1.82-.84,5.31-1.22,5.72-.2.22-3.38-2.08-5.8-1.02-1.46.63-20.16,18.64-23.37,21.75-96.86,94.01-125.63,263.96-251.15,331.24-19.16,10.27-36.38,15.96-58.3,17.64-4.56-8.78,12.83-10.69,19.6-14.37,30.6-16.65,56.93-41.19,79.41-66.43,9.86-11.08,37.26-42.32,41.77-54.37,2.49-6.64-3.19-10.59,4.82-7.15,15.75-20.29,28.18-44.3,39.95-67.49,8.65-17.04,18.05-40.06,29.3-57.37,1.01-1.56,3.47-6.28,3.81-7.77.83-3.61-8.22-3.22-3.85-6.7.66-.53,6,1.08,9.08-1.93s5.97-17.72,8.84-22.61c11.94-20.36,33.28-47.66,48.04-65.34-4.24,1.39-13.42-6.64-9.98-9.98s11.24,5.56,9.98,9.98ZM955.48,396.03v4s8.01.02,8.01.02v-4s-8.01-.02-8.01-.02ZM987.48,400.09c-1.23-1.79-8.61-.41-10.6-.81s-10.68-7.3-9.43-.22c1.71,9.68,16.31,9.48,22.01,15.97-1.8,3.14-8.87-2.24-9.97-1-4.24,4.78,7.84,10.16,8.1,11.38.87,4.04-2.52,9.81-.1,14.56,8.9-2.91,16.4-4.88,13.99-15.96,3.86-.5.49,4,3.17,6.18,4.14,3.38,12.09-2.89,10.8-4.17l-9.95-5.03c6.97.43,8.83,3.89,7.96-4.98,23.01,11.41,7.67-6.05-2.98-8.02-6.72-1.24.48,12.24-5.99,10s2.36-6.01.13-10c-.89-1.6-8.55-6.37-9.11-5.96-.82.61-.09,7.66-7.02,5.97-4.27-1.04-.65-7.38-1.01-7.92ZM1179.32,437.99h-19.97c-1.52,7.14,6.03,1.93,9.03,5.94,5.22,6.96.61,19.06-5.04,14.02-.74-.66,3.13-9.25,1.97-11.97-3.4-4.52-14.76,27.32,4.6,21.6,10.66-3.15,10.05-20.82,9.4-29.59ZM260,1079.15c-.47-1.85-2.08-17.86-1.82-18.76.75-2.64,5.53-2.47,5.97-4.56.75-3.52-2.58-8.72-2.16-12.65-8.02,4.24-3.94-3.39-13.06-2.16-.89.12-11.11,5.36-15.48,5.64-1.97.13-4.91-1.98-7.43-1.48,1.53-7.33,6.93-7.4,11.4-10.6,2.18-1.56,1.23-6.64,7.6-5.42,1.19.23.53,4.65,1.95,4.06.95-.4,8.94-4.5,9.04-5.01,1.25-5.91-3.19-4.18-3.9-6.45-12.41-40.13-36.16-162.42-20.65-197.91.74-1.7-.27-6.09,3.51-4.35,9.31,4.29,8.06,50.71,9.18,60.74,3.59,32.18,21.67,98.94,35.45,128.36,7.17,15.3,7.99,2.97,10.33,4.63,6.21,8.12.99,10.98.88,16.98-.1,6.13,24.35,47.61,27.11,44.95l4.01-5.99c-4.31,12.07.6,16.49,7.18,25.77,9.21,13,22.34,25.06,31.74,38.29,3.38,3.39,7.21.44,11.04-.15.89,3.44-4.16.87-4.14,3.14.02,4.26,4.64,9.85,8.15,6.83.3-.26-.84-10.44,3.97-5.98,2.87,2.66-1,15.43,8.23,20.65,6.21,3.52,8.14,4.04,13.77-.69.37,2.27-1.89,4.82-1.58,6.77.73,4.58,44.75,28.2,51.5,30.23s10.22,2.81,11.27-4.79l8.76-8.23c3.36,16.52-3.48,9.31-3.97,9.97-1.87,2.52,7.78,9.47,10.58,10.59,4.27,1.71,7.76-1.08,9.02-.32,2.69,1.65,3.17,7.51,13.34,7.74,1.82-.51-.3-12.5,5.01-8.01,2,1.69-3.06,11.96,10.03,9.96l-1-4,10.96,2.05-7.97,3.95c36.97,6.19,77.49,9.6,114.56,1.67,14.58-3.12,6.12-1.64,9.36-15.63,5.16.3,7.17,11,8.21,11.76,1.39,1.01,21.9-3.4,23.73-4.78,2.35-1.77,2.49-8.42,5.05-9,2.19-.49,4.93,4.15,9.7,4.01,1.32-.04,22.49-7.05,23.25-8.01s-8.29-15.46,7-17.91l-1.02,13.93c1.63,1.47,14.76-3.89,15.27-6.89.77-4.55-.68-15.51.69-21.06-9.62,7.49-8-.32-8.96,0-2.54.87-7.14,6.39-11.87,6.09-1.13-.07-.93-3.68-2.48-4.07-10.1-2.52-34.46-.86-47.07-2.57-136.75-18.5-214.61-156.19-231.18-282.28-13.03-99.14,21.84-210.66-35.34-298.24-24.68-37.81-72.55-54.09-114.79-38.74.35,21.41-10.76,41.27-26.93,54.55-2.25,1.85-3.22,4.85-6.99,3.98,7.07-22.8,22.24-36.88,20.05-63-1.83-21.84-19.2-38.03-22.08-58.83-2.78.37-3.44,2.71-3.87,5.1-2.35,12.86-.8,26.91-4.22,39.73-3.92,14.7-17.51,36.9-35.35,29.56-3.31-1.36-9.75-10.54-12.47-8.46-11.8,29.81-23.41,58.19-11.56,90.42,1.39,3.79,11.38,19.61,9.53,21.41-8.19.51-13.6-5.36-16.97-11.97-15.71,25.81-24.45,55.88-30.44,85.43-1.73,8.52-1.43,17.31-2.7,25.26-2,12.49-11.57,27.08.17,37.09-1.62.26-5.72-1.05-6.14,1.11-.59,3.01-.58,22.7,0,25.79.49,2.57,5.99-.22,6.16,2.11-6.32,8.17-6.54,11.74-6.09,22.03.37,8.36.44,17.95,10.08,14.91l-8,7.97c12.38-1.58,26.1.71,12.98,13.95-4.68-4.54-.38-9.76-8.98-7.96-3.76,3.56,5.59,47.04,9.78,52.75,1.69,2.31,5.62.72,6.21,1.21.28.23-2.17,4.42-2.14,6.97.05,4.06,8.18,20.55,11.15,22.97,2.16,1.76,13.8,4.78,14.96,9.01,1.24,4.47-7.25,6.39-7.74,7.23-1.58,2.68,11.25,26.29,14,30.44,3.19,4.81,15.58,16.17,17.72,19.24-.29-.35.14-2.75.01-3.98h5.98s0,5.98,0,5.98c-1.53-1.41-5.77-1.75-5.98-2,.51.74-.48,5.5,1.83,7.15,5.92,4.21,14.21-9.42,10.18,12.82,3.91-1.32,4.54-11.62,3.05-14.06-.83-1.36-9.74-2.43-2.06-5.9.39-.17,5.53,5.86,5.78,6.2,3.04,4.24-1.67,8.66,9.18,3.78,1.47,9.66-2.98,5.19-9.96,4-3.58,12.14,6.81,22.24,17.85,25.21,6.24,1.68,3.3-3.34,5.13-3.32,3.18.04,6.62,5.16,10.98,4.1l-8.01,3.98c-1.12,6.37,7.73,15.01,14,13.97,1.21,4.72,6.18,8.1,9.02,11.97l6.95-3.97c-.61,4.54-.96,11.74,5.04,12,.59.03.72-7.63,8.94-2.03,1.54-11.68-7.51-5.47-7.97-5.97s.59-4.55-.04-6.57c-.74-2.38-1.41-2.49-2.95-8.39-1.79-6.85-11.27-10.46-14.9-6.92-.87.84,1.22,9-4.09,9.88ZM1351.18,563.82c.58-6.15-5.02-6.46-9.97-5.97,1.23,4.27,6.63,4.02,9.97,5.97ZM1347.2,571.8c1.5-10.66-8.82-7.88-15.97-7.96.03,4.21,6.49.63,9.61,2.4,1.64.94,1.3,7.05,6.36,5.56ZM1389.81,605.36c-.46-.87,1.04-4.17.09-7.08-1.52-4.66-11.38-34.35-18.72-28.44,8.36,5.97,3.06,10.73,4.16,14.74.71,2.59,5.26,2.32,5.87,4.61,1.5,5.61-1.05,12.98-2.03,18.57l7.97-3.98c-6.31,18.28,7.64,13.87,6.14,3.22-.18-1.3-3.27-1.22-3.49-1.63ZM1355.19,585.82l-5.96-2.02c-.99,5.25,1.14,4.18,5.97,3.97v-1.95ZM1371.18,595.79c-8.51-1.15-13.09,8.25-17.98,10.72-1.55.78-3.88-.93-3.98-.75-.94,1.69,1.19,9.02-.98,12.03l-7.01-4.03-2.01,11.97,13.99-3.99c-3.78-8.25.09-4.65,2.8-8.16,1.15-1.49.75-4.61,1.62-5.37,2.06-1.81,14.65-1.12,13.54-12.42ZM1375.15,613.8c-.41-.29-4.21-.74-3.98.99,4.1,5.99-1.49,7.47-1.97,12.95,6.32-.1,15.58-.47,10.93-8-.55-.89-2.69-1.18-3.41-2.03-1.64-1.93-1.39-3.78-1.57-3.91ZM1349.2,625.73v4.01s14.01,0,14.01,0v-4.01s-14.01,0-14.01,0ZM535.78,757.58c-6.68-1.84-10.17,11.79-7.97,13.97,5.56,5.52,9.01-10.1,7.97-13.97ZM513.48,953.56c-.57-.43-13.43.04-14.22.16-14.44,2.11-1.01,13.18-1.41,21.57,5.65-4.94,12.98-4.07,19.95-5.98,2.54,2.5-8.23,10.4-10.02,11.04-2.9,1.04-4.18-4.29-7.94-3.05-1.44,1.43,7.74,18.31,10.98,19.92,3.44.08,4-13.61,5.15-16.39.82-1.99,3.67-1.86,4.46-3.98.99-2.65,3.66-14.3,3.42-16.51-.21-1.95-5.35-.26-8.05-2.05-1.49-.99-1.54-4.14-2.31-4.73ZM813.58,1135.1c-5.29-.83-10.02.84-11.98,5.95,1.38,1.08,11.82-2.76,11.98-5.95ZM775.6,1149.06c-5.16-1.82-7.67,5.38-9.46,5.93-6.24,1.92-3.71-.5-10.23,3.87-1.17.79-3.87-.14-4.27.21-.77.67,3.58,10.02,1.97,11.94-.88,1.05-7.75-2.6-5.96,4.01,4.76-.42,11.21-3.29,15.44-5.45,2.35-1.2,2.32-3.29,4.1-4.38,8.34-5.13,13.05-.08,8.41-16.13Z"/>
            <path class="cls-1" d="M1415.16,681.67c-28.13,16.63-61.89,36.4-95.17,39.71-24.38,2.42-61.49,3.84-85.78,2.32-18.67-1.17-38.67-5.85-56.87-10.07,51.67-39.59,107.63-72.37,177.97-59.02,12.25,2.32,54.69,16.77,59.85,27.07Z"/>
            <path class="cls-1" d="M1255.27,537.86c1.97-3.24-1.72-10.85,7.99-10.98-7.32-7.72-2.94-20.8-4.47-31.49-.75-5.21-8-26.73-14.32-25.37-9.91,2.13-7.99,38.28-23.21,28.95-11.06-6.78,8.94-41.81,8.05-53l13.96,4.03c-.5,6.07-7.41,9.18-5.98,15.94,12.04,4.75,5.65-12.53,14.62-11.66,2.54.25,39.67,20.72,41.3,22.68,3.68,4.43,3.79,17.08,4.04,22.94,8.48-1.93,5.94-6.43,5.99-13.97,2.47-2.81,30.23,20.83,31.6,25.39,1.56,5.2-2.2,14.07-1.64,14.54,1.62,1.33,8.28-3.9,6.01,8.02,11.77,6.25-.19-20.72,7.95-13.98,2.25,1.86,9.33,18.57,14.03,21.93h-7.99s1.99-5.95,1.99-5.95c-5.23-2.16-3.47,4.05-5.11,4.08-3.03.07-8.53-3.7-12.86-2.09-2.61,7.43,10.09,1.98,10,5-5.54,11.51-5.89,10.81-18.01,8.99l7.98,7.96h-13.97c2.52-5.73,4.9-14.47-3.04-15.93-5.32-.98-1.68,4.89-3.86,8.02-1.73,2.49-7.75,1.46-8.76,5.06l-.31,32.8c12.18-.54,5.15-19.18,5.99-19.95,1.14-1.04,10.6,3.66,13.96-.01,3.09,7.11-7.51,6.73-5.96,10.95,1.81,4.9,9.53,4.64,9.99,5.05s-3.96,7.92-4.01,11.2c-.08,4.92,5.93,10.87,1.98,18.74l-9.97-2,1.98,9.97h-17.97c-.63-5.8.29-2.85,4-2.99-.96-5,3.11-14.71-3.97-12.96.36,5-7.06,8.12-7.61,11.21-.36,2.08,2.29,6.06,1.58,6.75-1.1,1.07-25.54,3.53-30.39,4.6-7.87,1.74-23.12,5-30.04,7.45-.95.33-12.41,7.38-16.88,9.57-138.47,67.88-173.71,160.31-251.61,281.84-60.75,94.78-143.01,197.51-269.56,193.98-3.11-.09-24.92-2.28-26.14-2.77-5.17-2.08-.79-5.04,1.02-8.31-2.12-3.08-4.28-3.44-7.94-2.97l1.99,7.96c-12.41,3.39-5.42-7.43-11-9.96-7.94-3.6-2.06,9.65-9.97,5.97-4.49-2.09-.09-10.67-9-7.98l-.97,5.97c-10.64-4.12-23.39-7.27-33.53-12.43-4.92-2.51-32-20.24-34.49-23.46-1.16-1.5-1.24-2.17-.94-4.03,9.2,6.38,13.9-2.19,6.84-3.96-4.34-1.09-10.61,9.23-15.81-2.08-5.57-12.1,10.44-13.88,6.94-17.92-5.02-3.6-16.31,5.7-19.65,3.76-.46-.27-5.14-8.94-4.32-9.76.29-.29,3.68.64,5.3-.58,2.33-1.77,4.58-6.96,8.69-8.42-13.8-3.46-2.21-17.14-4-18.96-3.69-3.74-6.79,6.75-9.96,1.98-2.6,14.36,4.6,8.65,5.97,10.01.21.21.21,5.76,0,5.97-.87.91-16.89-1.62-17.76-5.13-.46-1.86,2.93-7.57,1.79-8.83-1.44-1.59-11.24.18-11.7-.18-.67-.52-8.02-14.03-8.27-14.85-2.06-6.84,12.45,1.54,11.92-3.96-.12-1.28-5.88-4.43-5.97-6.97,5.9.81,6.89-.17,6.02-6.02,11.44,4.78,3.27-1.48,3.95-6.95l6.04-1.04c1.65-6.51-6.05-2.75-7.99-6.99-3.52-7.69,7.05-4.04,8-4.99,2.89-6.69-3.93-8.48-4.08-9.3-.8-4.26,3.07-9.92,2.05-14.66l-9.98,2.01,2.03,5.97-8,2.01,1.97-15.97h-8.01s-.96,3.98-.96,3.98l-4.99-5.97c-6.41,13.3,6.8,2.42,3.96,15.95-7.55,1.97-7.38-6.24-12.54-8.6-6.86-3.13-13.95,4.7-13.32-15.25,6.57-3.96,16.83,2.49,19.88-4.09-11.69,2.42-.21-7.27-7.03-9.99-4.17-1.66-2.64,4.56-6.18,5.7-1.82.58-10.01.78-10.67.15-.46-.45-2.17-12.07-2.04-12.73.49-2.41,19.49-5.68,21.94-4.18,1.53.93,3.5,9.05,7.96,5.04s-9.11-13.54-9.79-15.17c-3.41-8.22,7.55-1.28,5.79-8.77-4.08-.15-8.04-.44-12.01.96-6.01,2.12,3.92,2.37,1.73,7.7-3.43,8.34-13.65,5.51-9.67,1.36,2.18-2.27,8.93.57,3.96-10.01-4.46-.5.66,4.35-.82,6.11-1.35,1.61-4.88,1.24-6.53,2.51-2.49,1.9-3.83,10.18-6.84,2.61-5.04-12.65.51-7.34,5.3-11.09,10.24-8.02-5.54-10.63-7.11-13.6-1.27-2.41-4.89-23.61-3.98-24.5,5.35,1.48,12.32-1.83,16.74-1.41,1.05.1,26.04,13.52,17.22,3.44-3.4-3.89-21.71-4.7-16.95-13.98-6.28,3.89-8.36,11.94-16.44,5.4-7.3-5.91,1.52-7.87,1.51-8.45-.03-2.7-7.37-11.9-5.23-15.07.75-1.12,24.15-10.81,25.13-9.89.23.22.49,4.39,2.01,5.98l-9.98.04,5.98,2.97c-1.6,3.59-9.48,4.16-10.02,6-2.85,9.62,6.45-.79,7.03,6.99,1.79-2.64,7.03-5.59,8.09-8.07,1.72-4.04-5.24-6.94,4.92-5.92.08-5.51-5.85-5.84-3.08-11.93.71-1.57,11.35-12.07,13.05-10.03l-3.01,31.91c3.92-2.2,13.01-15.72,13.01-18.94v-30.96c8.69,2.15,11.3,18.79,23.14,10.13,20.68-15.12-7.76-62.12-9.22-80.96-1.29-16.65,2.04-34.82,14.04-47.01-7.16,18.97,4.25,83.02,33.49,70.39,3.94-1.7,5.66-6.98,10.48-6.46,3.17,19.04,7.3,33.83-.25,52.66-4.13,10.29-13.45,18.12-15.72,29.21,16.85-6.37,30.22-25.17,31.94-42.95,2.28-23.62-11.51-45.35-5.98-68.88-14.68,3.3-13.49,18.5-25,25.94l-2.55-6.55c41.43-63.31,65.9-131.18,115.52-189.58,19.26-22.67,72.79-74.35,100.06-82.46,3.27-.97,6.47,1.46,7.5.73,2.35-1.65,2.13-8.83,12.33-5.77.82-.63-2.31-5.55-2.01-5.95,1.63-2.24,53.5-21.82,51.97-17.02-4,6.13-20.85,36.48-3.89,24.07,11.52-8.44,20.06-23.57,20.06-38.04,0-17.67-12.58-27.97-12.15-44.93,2.44-2.79,17.5,15.15,19.92,17.02l10.02,18.91c3.36-19.8-8.95-36.99-7.79-56.62.72-12.16,10.15-34.65,17.8-44.24,1.53-1.92,13.82-14.57,11.88-6.12-2.11,9.19-8.9,19.33-9.9,30.07-2.15,23.23,14.33,34.6,20.02,54.93l7.14-19.79,6.81-4.16c5.81,21.58,14.47,46.54,2.88,67.78-4.13,7.56-17.1,17.61-14.85,27.05,1.6,6.7,7.31-2.82,10.93-2.92,3.16-.09,8.53,4.48,9.02,3.96,3.79-3.95-4.47-2.93-3.87-6.79,1.08-6.97,8.31-5.3,13.87-7.22l-3.97-3.95,5.97-2c-9.89,2.61-6.48-8.73-1.19-7.86,1.08.18,3.77,3.29,5.82,4.3s6.55,1.14,7.11,1.85c1.11,1.42-1.14,7.09,5.06,10.94,1.92,1.19,5,.57,5.2.75.58.53-3.47,10-1.79,14.71,1.61,4.5,10.02,1.72,7.77,6.22-.57,1.14-21.1,13.96-21.95,13.01-.96-3.52,2.4-4.24,3.03-6.95.42-1.83-1.73-3.95-.09-7.05,2.07-3.92,5.66,1.25,8.15,1.92,3.76,1.02,3.87-2.83,2.87-3.87-.91-.94-10.59-2.55-12.7-2.11-1.18.25-1.93,7.92-5.27,4.08-.86-.98,2.9-8.95-6.76-6-1.4.43-1.11,3.88-2.14,3.8-2.06-.15-3.61-2.58-6.65-1.37-1.99.8-6.54,9.34-4.43,11.55,3.59,3.76,6.67-4.05,7.11-4.05,3.15-.02,8.52,3.48,12.87,2.07,2.25,6.08-6.97,4.6-7.98,6.08s2.18,5.95,1.02,7.99c-.42.74-12.29,10.65-13.08,10.98-2.65,1.1-16.11-3.17-3.96,3.9-3.91,7.58-13.05,8.21-17.9,12.08-3.04,2.42-3.49,7.18-8.67,9.46-8.52,3.75-25.6-6.21-27.37-4.54-1.78,5.47,9.5,11.64,9.85,13.11.27,1.13-3.52,9.79-4.44,10.42-1.6,1.09-4.97.05-5.43.45-.56.5,1.62,4.1.95,6.11-.4,1.22-2.51,1.34-2.94,1.85,1.26-4.42-6.54-13.32-9.98-9.98s5.74,11.36,9.98,9.98c-14.76,17.69-36.1,44.98-48.04,65.34-2.87,4.9-5.72,19.55-8.84,22.61s-8.41,1.41-9.08,1.93c-4.37,3.49,4.68,3.1,3.85,6.7-.34,1.48-2.8,6.21-3.81,7.77-11.25,17.32-20.65,40.34-29.3,57.37-11.78,23.19-24.21,47.2-39.95,67.49-8.01-3.44-2.34.51-4.82,7.15-4.51,12.04-31.9,43.29-41.77,54.37-22.48,25.24-48.8,49.78-79.41,66.43-6.77,3.68-24.16,5.6-19.6,14.37,21.92-1.68,39.14-7.37,58.3-17.64,125.51-67.28,154.29-237.23,251.15-331.24,3.2-3.11,21.9-21.11,23.37-21.75,2.43-1.05,5.61,1.24,5.8,1.02.38-.42-.07-3.91,1.22-5.72,4-5.63,22.45-9.86,28.86-6.22,1.65-5.21-5.81-4.98-6.13-7.15-.95-6.48,5.51-9.24,11.23-9.05,3.59.12,3.45,7.85,6.88,4.22.37-.39,4.38-9.57,4.02-9.97-.62-.7-4.84,1.55-3.98-1.99l23.6-15.78c6.31-7.06,26.15,1.33,15.32,5.75-3.71,1.51-2.71-4.03-4.09-4.09-1.02-.04-10.24,1.52-8.85,5.07,3.36,8.62,11.99,2.14,16.66,2.94,1.37.24,1.1,3.62,2.68,4.03,6.4,1.66,12.55-2.1,8.61-5.94-.49-.47-4.84.78-5.71-.17-2.02-2.22-3.08-19.15,2.73-21.8,1.28-.58,2,7.9,6.98,5.97l-2-7.96c6.01,3.57,8.55-5.29,10.98-4,2.6,1.39,2.78,5.8,3.06,5.98.64.42,8.2-8.42,11.93,3.01-6.54,4.33-14.51,2.69-11.96,12.96,5.46,1.89,7.43-7.92,9.14-8.14,4.29-.55,17.31,11.08,14.39-5.43l-21.53-10.36c4.64-2.18,20.01-9.06,23.96-6.01,3.58,2.77-10.45,6.55-1.02,7.96,3.84-2.26,2.22-9.05,4.94-11.05.87-.64,20.17-4.61,21.24-4.41,2.3.42,2.08,5.43,4,5.63,2.63.28,9.13-4.45,12.81-4.15l-3.98-3.97h31.98c.5,0,1.56,8.27,1.01,9.89-.86,2.55-5.55,7.24-7.35,10.74-8.79,17.15-13.91,27.93-11.66,48.28,2.07,18.64,21.17,37.04,16.01,56.92,25.05-16.84-.42-45.59-2.04-64.93-1.04-12.42,3.89-30.82,11.03-40.92,1.14,25.9,26.95,25.05,35.99,4,11.57-26.93-11.23-56.24-8.99-82.9.31-3.69,11.26-42.13,17.95-34.95-6.17,17.91-3.23,32.67,6.36,48.57,3.26,5.41,8.91,10.37,12.02,15.95,19.55,35.16-12.47,58.79-5.43,85.33,3.91,14.76,19.34,19.35,30.12,8.01,4.24-4.47,4.52-10.85,8.88-14.06,4.36,16.94,2.2,37.32-10.89,50.01-8.98,8.71-26.67,14.49-27.05,29.87,5.25.54,5.58-4.97,9.28-7.68,9.61-7.03,30.49-14.1,36.67-24.27-.15.14-.65,4.34.99,3.99,5.97-3.6.65-5.58-.99-3.99ZM899.51,422.01c.66-3.78-2.33-6.65-5.98-5.97l5.98,5.97ZM871.56,423.99l-.02,5.99,6,.02.02-5.99-6-.02ZM911.52,428.02c-1.55-2.05-25.24-8.06-13.98,2.96,6.26,6.12,17.26,1.38,13.98-2.96ZM957.5,433.98c3.02.57,13.17.55,11.97-4.95s-13.59-.14-11.97,4.95ZM821.57,437.95c2.25-2.3-3.08-11.63-8.81-9.85-2,.62-2.38,4.29-3.82,5.22-10.62,6.86-17.98,8.27-15.33,24.63l14.99-17.96c4.01,10.49,4.34.94,7.05-.94,1.96-1.36,5.65-.83,5.91-1.1ZM831.57,428.01c-3.78-2.97-7.05,6.92-5.98,7.97,2.41,2.35,7.91-3.97,5.98-7.97ZM935.5,438c-12.3-2.33-10.73,7.59,0,7.97v-7.97ZM918.96,446.69c-10.24-3.21-2.62,3.64-3.27,8.09-.19,1.34-6.76-.36-.15,11.17,3.23,3.04,9.74-10.63,9.98-12.99.55-5.31-5.86-.99-6.57-6.27ZM1087.39,461.95c4.06-3.77-10.6-9.96-7.96-3.02.97,2.57,6.64,4.24,7.96,3.02ZM1091.39,465.95c-1.87.03-7.67-.3-7.99,0-7.85,7.84,24.85,15.68,29.96,13.96,4.72-3.98-18.78-12.44-21.99-9.98.05-1.32-.07-2.67.02-3.99,14.63-.26,18.9-2.5,2.03-7.98-.19,2.69-1.85,5.38-2.03,7.98ZM875.46,473.84c4.06-4.75-5.88-13.2-11.06-13.88-6.06-.8-19.7,4.04-20.86,10.97-1.1,6.55,9.89,1.2,13.08,1.33,3.8.16,15.38,5.63,18.84,1.58ZM935.5,461.97h-9.97c-.18,8.2,10.15,8.2,9.97,0ZM839.56,473.93c4.39-4.38-8.37-13.38-13.97-9.97-.69,4.24,4.22,5.32,7.37,7.25.6.36,3.5,5.81,6.6,2.72ZM895.52,465.96c-6.35-1.98-11.2,16.58-9.97,17.94l11.97,2.02-2-19.96ZM1273.25,477.93c2.66-2.85-5.25-12.57-7.97-9.97-1.84,1.76,5.29,12.85,7.97,9.97ZM820.1,479.89c0-1.36-1.11-2.47-2.47-2.47s-2.47,1.1-2.47,2.47,1.11,2.47,2.47,2.47,2.47-1.1,2.47-2.47ZM881.53,477.95h-5.98v3.97h5.98v-3.97ZM813.58,479.94c-3.48-3.47-10.2,3.2-2.96,5.96,4.25,1.62,3.55-5.37,2.96-5.96ZM1293.24,479.94c-8.32-.02-9.23-1.95-5.98,5.97-5.81-1.22-7.89,2.43-7.99,7.99,5.12,2.46,15.68-12.5,13.97-13.96ZM791.62,481.94c-27.52-2.81-75.17,13.16-81.49,43.38-6.14,29.33,21.95,35.15,40.5,18.52,10.11-12.57,16.12-27.52,22.99-41.92-20.92,4.87-23.54,36.69-47.96,33.95.14-3.54-.51-7.39.12-10.88,3.24-18.17,48.1-38.51,65.85-37.08v-5.98ZM873.54,491.91l-.98-7.97c-5.37,4.14-6.71,7.39.98,7.97ZM1277.25,487.95c-.29-.36-7.96-3.78-5.97.95,2.25,5.36,9.04,2.8,5.97-.95ZM817.58,493.9c2.14-1.88-4.06-8.11-5.98-5.97-3,3.37,2.55,8.99,5.98,5.97ZM833.57,489.93h-3.98v5.97h3.98v-5.97ZM865.55,489.93c-.74-.68-7.48-1.26-5.97,2.96,2.21,6.16,8.06-1.02,5.97-2.96ZM908.04,491.88c0-1.36-1.11-2.47-2.47-2.47s-2.47,1.1-2.47,2.47,1.11,2.47,2.47,2.47,2.47-1.1,2.47-2.47ZM1009.96,495.87c0-1.36-1.11-2.47-2.47-2.47s-2.47,1.1-2.47,2.47,1.11,2.47,2.47,2.47,2.47-1.1,2.47-2.47ZM1025.42,505.89c6.52-5.78-2.92-15.17-9.96-4.97,3.69-.94,7.64,7.03,9.96,4.97ZM1035.42,495.92l-5.98.98c1.82,2.12,3.03,3.64,5.98,3v-3.97ZM853.53,499.91c-10.31-.03-1.26,10.55-3.98,15.96,3.62.36,22.06,1.47,17.01-6-2.13-3.15-13.14,3.19-13.03-9.97ZM993.45,509.88c1.71-7.67-6.24-9.17-11.97-9.97-2.04,9.64,3.57,9.89,11.97,9.97ZM1065.4,499.92c-2.76-.61-5.31,1.08-5.98,3.96h5.99s0-3.96,0-3.96ZM1077.4,499.93c-5.25-.99-4.18,1.14-3.98,5.96h1.95s2.02-5.96,2.02-5.96ZM1317.2,515.88l4.01-15.97c-3.85,1.18-13.82,16.75-4.01,15.97ZM1067.92,509.85c0-1.36-1.11-2.47-2.47-2.47s-2.47,1.1-2.47,2.47,1.11,2.47,2.47,2.47,2.47-1.1,2.47-2.47ZM1079.39,507.91c-2.07-2.05-8.01,3.96-5.98,5.97,2.07,2.05,8.01-3.96,5.98-5.97ZM1278.12,516.57c-1.06,1.89-3.02,3.53-2.86,6.26,4.9,9.75,11.46-8.69,11.41-10-.07-1.8-8.26-10.44-6.73-.42.91,5.97-.66,2.1-1.82,4.16ZM835.57,509.9h-3.98v5.97h3.98v-5.97ZM1311.22,509.91c-5.73-1.72-10.22,9.75-7.98,11.96,5.2,5.13,7.7-7.39,7.98-11.96ZM1037.42,519.88l-.98-7.97-4.99,5.01c-.97,4.32,2.01,2.94,5.97,2.96ZM1096.42,513.9c-6.83,3.53-14.34,19.3-2.04,19.24,9.22-.04,7.88-20.49,2.04-19.24ZM1327.22,525.85c-1.07-3.97-4.26-4.48-7.98-3.96v3.97s7.98,0,7.98,0ZM1309.74,525.83c0-1.36-1.11-2.47-2.47-2.47s-2.47,1.1-2.47,2.47,1.11,2.47,2.47,2.47,2.47-1.1,2.47-2.47ZM835.57,537.87c-17-5.21-26.2,11.67-29.96,25.94,3.34,3.39,12.27-11.46,14.13-12.83,4.53-3.34,15.7-3.88,15.83-13.12ZM1121.36,535.87c-1.91-2.14-8.11,4.09-5.98,5.97,3.42,3.02,8.98-2.61,5.98-5.97ZM1305.23,535.85c-1.64.26-5.46-.42-5.98.02-2.08,1.78,7.27,22.28,5.98-.02ZM1270.51,542.63c-2.38-1.74-6.54-2.58-9.22-4.77l-.04,7.98-5.96-1.99.98,19.93c4.3-1.53,4.54-11.51,5.01-11.96.81-.77,22.42,7.73,14.46-4.06-.21-.3-4.75-4.79-5.24-5.14ZM1087.38,541.86c-3.48-3.47-10.2,3.2-2.96,5.96,4.25,1.62,3.55-5.37,2.96-5.96ZM785.6,543.86c-3.42-3.02-8.98,2.61-5.98,5.97,1.91,2.14,8.11-4.09,5.98-5.97ZM1113.37,543.86l-10.97-.02c-3.63,11.48,11.6,12.69,10.97.02ZM1119.38,549.86c-4.38,6.24,8.1,11.41,9.97,2.95,1.34-6.07-8.84-4.57-9.97-2.95ZM837.36,550.05c-8.77-5.4-5.73,9.27,2.2,7.78.69-.67-1.86-7.56-2.2-7.78ZM1007.44,551.85h-3.98v5.97h3.98v-5.97ZM1267.25,555.84c-3.03-3.75-3.06-.74-3.56,2.47-.69,4.37,7.29,31.34,10.57,31.44s2.6-5.55,2.12-8.04c-1.58-8.22-3.93-13.65-7.74-19.99-1.75-2.91-1.2-5.64-1.39-5.88ZM1037.43,629.75c-1.98-20.5,12.69-37.28,24.3-52.62,3.46-4.57,10.55-6.94,9.65-15.3-19.29,5.55-46.56,39.35-48,58.97-2.23,30.25,29.79,33.64,42.38,8.3,2.12-4.27,11.6-33.81.67-31.31-8.68,11.44-9.95,34.42-29,31.96ZM839.56,565.83c-1.1-1.09-10.39,2.87-7.97,3.97h7.97s0-3.97,0-3.97ZM1290.09,576.88c-.97-1.05-.77-5.25-2.85-2.07-2.2,7.08,2.57,20.1,1.57,25.48-1.17,6.34-19.59,16.51-6.55,25.43,1.14-4.88,7.29-10.45,8.85-13.61.73-1.48-.61-5.03.41-6.17.86-.96,5.4.91,5.86-1.27.83-3.93-.76-17.84-2.19-21.87-1.48-4.17-2.97-3.63-5.11-5.94ZM1139.36,581.8h-6v7.99h6v-7.99ZM747.63,587.8c-24.21-.28-22.37,35.09,2.59,27.54,2.46-.74,8.17-6.52,9-8.99,5.03-14.76-13.76.91-17.57-2.6l5.98-15.96ZM1237.27,613.76l-5.44-19.33-6.52-4.63c-2.72,3.21,5.36,23.81,11.96,23.96ZM979.46,591.8c-34.34,6.53-10.25,44.91,8.03,20.99,15.91-20.82-12.8-3.74-14.01-5.03-4.01-4.28,8.01-14.01,5.97-15.96ZM1281.24,601.76c2.1-2.26-3.02-11.3-7.97-9.97-2.3,2.77,5.7,12.42,7.97,9.97ZM1169.35,607.76c10.28.96,13.32-3.81,4.99-9.94l-4.99,9.94ZM801.59,607.76c.47-3.68.12-5.86-3.02-7.96h-2.96s0,7.96,0,7.96h5.98ZM1223.29,607.78c-7.85,0-7.96,7.92,0,7.97v-7.97ZM1199.72,614.66c0-2.47-2-4.47-4.47-4.47s-4.47,2-4.47,4.47,2,4.47,4.47,4.47,4.47-2,4.47-4.47ZM1253.26,613.77c-4.71-1.48-5.49,3.63-5.98,7.97h5.98s0-7.97,0-7.97ZM767.6,617.76c-.38-.31-2.73.13-3.96,0v5.97s5.98,0,5.98,0c-1.34-1.5-1.78-5.77-2.02-5.97ZM1177.32,637.69c8.42-12.1-29.65,1.42-32.49,2.51-35.9,13.77-69.36,36.69-91.86,67.98-5.32,7.4-33.34,51.3-27.51,57.37,4.86.58,8.64-1.83,12.07-4.89,15.73-14.05,31.71-37.33,46.85-53.05,27.55-28.61,57.17-52.15,92.95-69.92ZM687.68,635.74c-6.85-6.23-38.83,21.27-43.89,27.02-13.07,14.81-22.13,46.75,6.77,42.79,14.73-2.02,26.18-26.26,25.14-39.85-11.27.34-11.88,12.72-17.11,19.83-7.16,9.74-20.97,16.24-15.93-1.93,7.08-25.52,37.87-25.36,45.03-47.86ZM741.64,639.74c-2.07-2.05-8.01,3.96-5.98,5.97s8.01-3.96,5.98-5.97ZM727.65,655.71c-6.54-.74-11.16.42-9.97,7.97h9.99s-.02-7.97-.02-7.97ZM747.65,685.66c8.22,3.29,18.65-18.13,10.86-19.93s-11.45,14.1-10.86,19.93ZM775.61,679.68c-4.31-3.32-10.92,1.23-7.97,7.97,1.69,2.12,10.1-6.33,7.97-7.97ZM955.52,741.6c-2.22,2.2-3.45,26.05-11.05,29.95-3.9.35-3.92-2.49-4.85-5.1-5.09-14.17,3.36-36.65,10.23-49.47,3.93-7.32,13.44-13.16,11.61-23.33-23.29,14.33-40.14,49.57-35.83,76.77,2.78,17.49,22.46,21.89,30.97,5.24,5.39-10.56,5.56-19.79,2.84-31.09-.57-2.36-.54-6.35-3.93-2.98ZM753.63,705.63l-6,.02.02,5.99,6-.02-.02-5.99ZM713.66,723.62c-6.23-6.14-26.44,24.11-16.93,25.97,10.29-3.79,18.29-14.63,16.93-25.97ZM887.53,729.62c-4.87-4.55-31.07,23.28-34.99,27.93-14.92,17.7-46.05,79.44-14.11,92.04,36.98,14.59,49.55-49.02,41.1-74.05-2.97-3.7-3.47.53-3.92,3.04-3.4,19.01-8,53.42-31.87,54.73-7.04-25.91,10.16-56.7,25.86-76.69,6.71-8.54,17.66-12.38,17.94-26.99ZM637.71,785.52c4.47-6.56-8.78-12.04-7.97,2,.4.42,7.74-1.66,7.97-2ZM629.72,789.54c-.14-.15-4.23-.76-3.98.98,3.12,5.45,6.25,1.34,3.98-.98ZM1007.44,795.52c-7.91-8-30.17,30.23-31.49,37.43-.76,4.15-.57,8.33-.47,12.5,4.77,5.03,24.7-23.8,26.84-28.08,3.63-7.25,6.22-13.39,5.11-21.85ZM683.71,819.49c.76.97,5.29-3.49,3.96-5.99-.76-.97-5.29,3.49-3.96,5.99ZM529.79,825.49h-5.98v3.97h5.98v-3.97ZM643.71,829.49c-6.16-.19-30.81,3.4-27.95,12.9s28.43-3.72,27.95-12.9ZM517.8,831.46v4.01s12.01,0,12.01,0v-4.01s-12.01,0-12.01,0ZM783.61,831.49c-31.55,6.36-43.24,30.46-42.05,61.01.37,9.37,7.25,36.7,3.17,42.92-3.05,4.65-10.51-.02-12.83-3.32-7.53-10.73.86-48.11-19.28-20.78-28.07,38.09,6.13,69.46.58,98.45-.59,3.1-7.05,13.85-5.51,15.44,42.49-18.9.89-60.3,10.01-91.86,3.9,1.93,4.51,7.32,8.18,10.76,5.81,5.44,12.21,6.75,19.89,4.3,19.86-6.35,4.99-50.47,6-65.71.67-10.17,7.66-25.76,14.88-33.24.6,6.47-1.33,11.57-.51,18.44,1.95,16.46,14.15,31.47,15.33,46.73.85,10.95-8.24,35.04,6.03,39.8,10.96,3.65,20.71-3.67,24.22-13.98,1.38-4.07,2.36-20.78,6.1-10.33,11.6,32.44-10.01,45.59-23.84,68.49-5.86,9.71-15.98,29.36-.37,34.59.2-27.33,28.16-40.41,36.1-62.8,6.39-18,2.56-42.03-8.47-57.68-8.53-12.09-10.63-13.3-14.2,1.07-2.61,10.51-1.97,26.52-15.4,29.52-.2-11.43,2.87-20.96,1.73-32.7-2.22-22.93-19.11-32.53-15.2-59.65,1.01-7.01,5.15-12.57,5.45-19.48ZM551.77,837.48l-9.97,2.01c3.02,11.64,10.33,10.23,9.97-2.01ZM505.83,845.47c-1.55,8.13,13.37,17.4,15.96,8.96,2.32-7.55-11.1-9.29-15.96-8.96ZM539.79,845.48l-7.98.97c3.09,4.36,6.16,3.88,7.98-.97ZM477.83,847.46c-2.07-2.05-8.01,3.96-5.98,5.97s8.01-3.96,5.98-5.97ZM549.78,863.4c-5.12-9.18-11.7-11.42-21.97-9.95-1.27,7.64,3.57,8.44,10,7.99l-6.01,3.99c.56,11.73,10.78-1.37,17.99-2.03ZM485.82,861.44c-.48-.5-10.43.54-9.98,3.94l9.98,6.02v-9.97ZM495.22,864.06c-.45-.4-4.58-2.79-5.35-1.65l3.96,8.99c-4.58-.8-11.54,3.31-6.01,7.07,1.43.97,11.58-.34,14.91.07,8.31,1.02,13.85,9.12,13.09-9.11-3.41-.41-7.51.75-10.71.03-1.3-.29-2.53-10.34-6.28-.04-1.8-1.35-1.99-3.93-3.61-5.36ZM573.74,881.4l2-19.96-10,12.97,8,6.99ZM527.85,887.4c1.19-.92,4.1,3.98,4.95,3.96,2.03-.04,2.87-6.26,4.18-7.78,3.47-4.03,10.39-4.46,8.79-12.16-6.61,5.29-15.23,11.28-23.52,13.43-10.02,2.61-19.59-4.29-14.41,12.52,3.35.48,1.6-4.18,4.9-5.34,1.81-.64,9.16,2.04,11.77,1.11,3.36-1.2,3.05-5.53,3.33-5.74ZM529.79,873.43c-3.73-.52-6.91,0-7.98,3.96h7.98s0-3.96,0-3.96ZM605.73,875.43l-5.98.98c1.82,2.12,3.03,3.64,5.98,3v-3.97ZM561.84,881.11l-4.07,1.07,2.64,10.08,4.07-1.07-2.64-10.08ZM583.74,887.39c.99-8.31-2.95-8.31-1.96,0h1.96ZM589.74,885.39c1.44-2.81-1.26-5.33-1.96-3.97-1.44,2.81,1.26,5.33,1.96,3.97ZM519.8,897.4l-11.97,4.97c3.14,4.24,6.66,5.78,11.97,5.01v-9.98ZM549.8,917.35c8.11,1.41,14.14-3.57,6.96-9.97l-6.96,9.97ZM579.75,911.38c-7.72,3.07-20.58-5.22-17.99,5.98,8-1.55,19.14,7,17.99-5.98ZM901.52,915.38c-5.83-6.36-27.82,35.97,1.01,34.12,18.78-1.2,23.35-32.3,15.98-32.1-2.41.07-10,22.58-18.98,19.92l1.98-21.95ZM521.31,917.96c-6.63-2.52-13.64,3.58-13.5,10.36,4.46,6.28,6.48.54,10.59-1.42,2.4-1.14,7.12-1.3,7.4-1.56,1.64-1.56-4.09-7.22-4.49-7.38ZM531.79,925.36h-3.98s0,5.98,0,5.98c2.89-.67,4.58-3.23,3.97-5.98ZM557.77,925.35c-3.7.24-20.89,3.53-19.97,8.96s4.75.77,6.2.28c12.73-4.32,11.33-1.54,23.76.74v-5.97s-9.97,2-9.97,2l-.02-6.01ZM601.73,927.36l-10,2c4.54,8.97-2.57,2.92-1.97,9.97,8.23,2.16,11.48-4.44,11.97-11.97ZM645.71,931.36h-3.98v5.97h3.98v-5.97ZM669.7,939.35l-11.97-2.01v5.99s5.96-1.99,5.96-1.99l3.99,7.99,2.02-9.98ZM549.78,943.34c-8.96-1.77-8.52,7.94-9.97,13.96,2.75,2.89,11.75-10.32,9.97-13.96ZM539.78,947.33h-5.98v3.97h5.98v-3.97ZM585.75,963.29c4.37-4.18-7.51-6.91-7.99-7.26-1.91-1.43-4.73-9.28-7.98-6.7-.46.36-3.03,7.19-.04,9.02s5.17-.65,7.15-.38c1.36.19,4.78,9.22,8.86,5.32ZM617.74,949.34c-10.74-1.02-25.19,3.09-27.82,14.75,7.19,16.07,30.35-12.91,27.82-14.75ZM625.72,961.32c-.71-.69-7.67-.23-9,1.98-2.13,3.88,5.44-.15,1,5.98,4.03,1.36,11.48-4.57,7.99-7.96ZM641.71,971.3c-1.91-1.96-8.6,2.34-9.94,4.98,4.67,8.05,13.34-1.49,9.94-4.98ZM695.67,981.29h-3.98v5.97h3.98v-5.97ZM555.78,995.26c-.09-3.32.08-6.67-.01-9.98-3.87,1.15-11.37.85-14.44,2.03-1.22.47-5.01,3.22-9.57,5.19-6.25,2.7-9.93,13.35.08,10.75-3.69,12.34,5.01-3.71,8-4.99s6.29-.33,8.51-1.11c1.86-.66,1.36-3.67,2.37-3.68,1.07-.01,3.43,1.92,5.06,1.79.14,5.47-.93,8.18,6.73,5.73,3.1-.99,4.57-6.22,3.25-7.72-.34-.38-7.51,1.79-9.98,1.99ZM593.74,1003.24c1.97-1.82-5.56-11.64-7.96-4.96-2.28,6.34,2.77,5.23,7.96,4.96ZM583.75,999.27c-3.61-4.55-11.91,16.23,0,11.98v-11.98ZM571.76,1003.26h-3.98v5.97h3.98v-5.97ZM553.81,1011.28l9.93-1.04c-5.98-7.33-4.69.72-9.93,1.04ZM593.58,1009.4c-.19-.25-4.67-1.13-5.8-2.16,2.18,7.31-6.22,5.67-6,11.98,4.51.77,15.58-4.91,11.81-9.82ZM623.72,1015.25c-5.38-1.92-3.14,3.58-5.29,4.03-2.7.57-5.89-.32-8.71-.04-1.07,9.93,1.88,4.33,7.09,4.92,1.98.23,3.52,3.02,3.92,3.02,3.08-.02,3.57-9.02,2.99-11.93ZM865.55,1021.24c-6.4.75-8,7.01-15.22,7.98-6.27.84-4.54-3.71-5.76-4.03-5.26-1.38-4.41,2.39-5.81,3.24-3.92,2.39-11.07,4.86-6.27,12.8,7.58,12.54,37.16-5.87,33.05-19.98ZM629.73,1025.21v14s4,0,4,0v-14s-4,0-4,0ZM585.75,1027.24c-14.42-3.15-8.79,15.02-7.97,23.97,7.65-4.29,5.41,1.88,7.25,2.12s4.3-1.78,5.86-1.61c1.13.12,4.91,9.48,8.86,5.45,6.19-6.31-16.72-10.96-17.97-13.43-.46-.9-2.13-10.53-1.9-11.32.98-3.28,6.31-1.8,5.88-5.18ZM567.78,1043.18l-.02,8.01h4s.02-8.01.02-8.01h-4ZM620.76,1053.19c-4.18.98-10.37,22.23-4.02,21.93,3.74-.18,15.08-24.51,4.02-21.93ZM605.76,1054.15l-5.05,5.05,7.02,7.01,5.05-5.05-7.02-7.01ZM721.21,1063.67c-2.03.52-3.9,3.01-6.64,3.4-5.73.81-32.64-2.07-28.76,10.83,4.17,13.87,54.15,6.94,43.96-13.84-2.83-1.6-5.58-1.15-8.55-.39ZM601.74,1069.18c-8.19-.05-17.69-1.81-19.99,7.95,9.89-2.07,4.78,8.47,12,8.01l-1.94-11c4.86.55,10.02,2.5,9.94-4.96ZM675.68,1069.18c-1.88-2.14-8.12,4.06-5.98,5.97,3.37,3,8.99-2.55,5.98-5.97ZM667.69,1091.15c-2.01-2.03-8.02,3.9-5.98,5.97s8.02-3.9,5.98-5.97ZM655.7,1103.11c3.29-3.28-5.1-12.66-7.96-4.96-2.56,6.89,7.1,5.82,7.96,4.96Z"/>
            <path class="cls-1" d="M1167.33,246.23c-18.76-.46-42.29,11.01-50.3,28.63-10.03,22.07,7.98,47.64-2.64,71.26-11.73,26.11-55.67,11.85-60.5-11.45-6.61-31.86,23.95-47.27,32.96-74,6.16-18.25,3.9-31.98.56-50.38,2.72-3.02,69,24.27,75.72,29.17,2.47,1.8,4.91,3.11,4.2,6.77Z"/>
            <path class="cls-1" d="M987.48,400.09c.36.53-3.26,6.87,1.01,7.92,6.93,1.69,6.21-5.36,7.02-5.97.56-.41,8.22,4.36,9.11,5.96,2.22,3.99-6.46,7.81-.13,10s-.73-11.25,5.99-10c10.66,1.97,25.99,19.43,2.98,8.02.87,8.87-.99,5.41-7.96,4.98l9.95,5.03c1.28,1.29-6.66,7.55-10.8,4.17-2.68-2.19.7-6.69-3.17-6.18,2.41,11.08-5.09,13.04-13.99,15.96-2.42-4.75.97-10.52.1-14.56-.26-1.22-12.33-6.6-8.1-11.38,1.1-1.24,8.17,4.14,9.97,1-5.7-6.49-20.3-6.28-22.01-15.97-1.25-7.08,7.37-.19,9.43.22s9.37-.98,10.6.81ZM999.46,430.02c-4.18-.57-4.55-.2-3.98,3.97l3.98-3.97Z"/>
            <path class="cls-1" d="M513.48,953.56c.77.58.82,3.74,2.31,4.73,2.7,1.79,7.83.1,8.05,2.05.24,2.21-2.43,13.86-3.42,16.51-.79,2.12-3.64,1.99-4.46,3.98-1.15,2.78-1.7,16.46-5.15,16.39-3.24-1.61-12.42-18.49-10.98-19.92,3.76-1.25,5.05,4.09,7.94,3.05,1.79-.64,12.56-8.54,10.02-11.04-6.97,1.91-14.3,1.04-19.95,5.98.41-8.39-13.02-19.46,1.41-21.57.79-.12,13.65-.59,14.22-.16Z"/>
            <path class="cls-1" d="M1179.32,437.99c.64,8.77,1.26,26.44-9.4,29.59-19.36,5.73-8-26.12-4.6-21.6,1.16,2.72-2.71,11.31-1.97,11.97,5.64,5.04,10.25-7.06,5.04-14.02-3.01-4.01-10.55,1.2-9.03-5.93h19.97Z"/>
            <path class="cls-1" d="M1389.81,605.36c.22.41,3.3.33,3.49,1.63,1.5,10.66-12.45,15.07-6.14-3.22l-7.97,3.98c.98-5.59,3.53-12.96,2.03-18.57-.61-2.29-5.16-2.02-5.87-4.61-1.1-4.01,4.2-8.77-4.16-14.74,7.33-5.91,17.2,23.78,18.72,28.44.95,2.92-.56,6.21-.09,7.08Z"/>
            <path class="cls-1" d="M1371.18,595.79c1.1,11.29-11.49,10.61-13.54,12.42-.87.76-.47,3.88-1.62,5.37-2.7,3.51-6.58-.09-2.8,8.16l-13.99,3.99,2.01-11.97,7.01,4.03c2.17-3,.04-10.33.98-12.03.1-.18,2.43,1.54,3.98.75,4.89-2.47,9.47-11.88,17.98-10.72Z"/>
            <path class="cls-1" d="M1375.15,613.8c.17.12-.07,1.97,1.57,3.91.72.85,2.86,1.14,3.41,2.03,4.65,7.53-4.61,7.9-10.93,8,.48-5.48,6.07-6.96,1.97-12.95-.22-1.73,3.57-1.28,3.98-.99Z"/>
            <path class="cls-1" d="M535.78,757.58c1.04,3.87-2.42,19.49-7.97,13.97-2.2-2.18,1.29-15.82,7.97-13.97Z"/>
            <path class="cls-1" d="M1347.2,571.8c-5.06,1.5-4.72-4.62-6.36-5.56-3.12-1.77-9.58,1.8-9.61-2.4,7.15.08,17.47-2.7,15.97,7.96Z"/>
            <rect class="cls-1" x="1354.2" y="620.73" width="4.01" height="14.01" transform="translate(727.61 1983.55) rotate(-89.96)"/>
            <path class="cls-1" d="M1351.18,563.82c-3.34-1.95-8.74-1.7-9.97-5.97,4.95-.49,10.55-.18,9.97,5.97Z"/>
            <rect class="cls-1" x="957.49" y="394.03" width="4" height="8.02" transform="translate(559.28 1356.62) rotate(-89.87)"/>
            <path class="cls-1" d="M1355.19,585.82v1.95c-4.82.2-6.95,1.27-5.96-3.97l5.96,2.02Z"/>
            <path class="cls-2" d="M783.61,831.49c-.3,6.92-4.44,12.48-5.45,19.48-3.91,27.12,12.98,36.72,15.2,59.65,1.14,11.75-1.93,21.28-1.73,32.7,13.43-3,12.79-19.01,15.4-29.52,3.57-14.36,5.67-13.16,14.2-1.07,11.03,15.64,14.86,39.68,8.47,57.68-7.94,22.39-35.9,35.47-36.1,62.8-15.61-5.23-5.49-24.89.37-34.59,13.83-22.91,35.44-36.05,23.84-68.49-3.74-10.45-4.71,6.26-6.1,10.33-3.5,10.3-13.25,17.63-24.22,13.98-14.27-4.75-5.18-28.84-6.03-39.8-1.18-15.26-13.39-30.27-15.33-46.73-.81-6.87,1.11-11.97.51-18.44-7.22,7.48-14.21,23.07-14.88,33.24-1.01,15.25,13.86,59.36-6,65.71-7.68,2.46-14.08,1.14-19.89-4.3-3.67-3.44-4.29-8.84-8.18-10.76-9.11,31.55,32.49,72.96-10.01,91.86-1.55-1.59,4.92-12.34,5.51-15.44,5.55-29-28.65-60.37-.58-98.45,20.15-27.33,11.75,10.05,19.28,20.78,2.32,3.3,9.78,7.97,12.83,3.32,4.07-6.22-2.81-33.56-3.17-42.92-1.19-30.55,10.5-54.65,42.05-61.01Z"/>
            <path class="cls-2" d="M1177.32,637.69c-35.77,17.77-65.4,41.3-92.95,69.92-15.14,15.72-31.12,39-46.85,53.05-3.43,3.07-7.21,5.48-12.07,4.89-5.82-6.07,22.2-49.97,27.51-57.37,22.5-31.29,55.97-54.21,91.86-67.98,2.84-1.09,40.91-14.6,32.49-2.51Z"/>
            <path class="cls-2" d="M887.53,729.62c-.27,14.61-11.23,18.45-17.94,26.99-15.7,19.99-32.9,50.78-25.86,76.69,23.88-1.3,28.47-35.72,31.87-54.73.45-2.5.95-6.74,3.92-3.04,8.44,25.03-4.12,88.64-41.1,74.05-31.94-12.6-.8-74.34,14.11-92.04,3.92-4.65,30.12-32.48,34.99-27.93Z"/>
            <path class="cls-2" d="M791.62,481.94v5.98c-17.75-1.44-62.6,18.91-65.85,37.08-.62,3.49.03,7.34-.12,10.88,24.42,2.74,27.04-29.08,47.96-33.95-6.86,14.4-12.88,29.35-22.99,41.92-18.55,16.63-46.64,10.82-40.5-18.52,6.33-30.22,53.97-46.19,81.49-43.38Z"/>
            <path class="cls-2" d="M1037.43,629.75c19.06,2.46,20.32-20.52,29-31.96,10.94-2.5,1.46,27.04-.67,31.31-12.6,25.33-44.61,21.95-42.38-8.3,1.45-19.62,28.71-53.42,48-58.97.89,8.36-6.2,10.73-9.65,15.3-11.61,15.34-26.28,32.12-24.3,52.62Z"/>
            <path class="cls-2" d="M955.52,741.6c3.39-3.37,3.36.62,3.93,2.98,2.73,11.31,2.55,20.53-2.84,31.09-8.51,16.65-28.19,12.25-30.97-5.24-4.32-27.21,12.53-62.44,35.83-76.77,1.83,10.16-7.69,16.01-11.61,23.33-6.88,12.81-15.32,35.3-10.23,49.47.94,2.61.96,5.45,4.85,5.1,7.6-3.9,8.83-27.74,11.05-29.95Z"/>
            <path class="cls-2" d="M687.68,635.74c-7.16,22.5-37.96,22.34-45.03,47.86-5.04,18.18,8.77,11.67,15.93,1.93,5.23-7.12,5.84-19.49,17.11-19.83,1.04,13.59-10.4,37.83-25.14,39.85-28.9,3.97-19.83-27.98-6.77-42.79,5.07-5.74,37.04-33.25,43.89-27.02Z"/>
            <path class="cls-2" d="M1007.44,795.52c1.11,8.45-1.48,14.59-5.11,21.85-2.14,4.28-22.07,33.11-26.84,28.08-.1-4.17-.29-8.35.47-12.5,1.31-7.2,23.58-45.43,31.49-37.43Z"/>
            <path class="cls-2" d="M721.21,1063.67c2.98-.76,5.72-1.21,8.55.39,10.19,20.78-39.79,27.72-43.96,13.84-3.88-12.91,23.03-10.02,28.76-10.83,2.75-.39,4.62-2.88,6.64-3.4Z"/>
            <path class="cls-2" d="M901.52,915.38l-1.98,21.95c8.97,2.66,16.56-19.86,18.98-19.92,7.37-.21,2.8,30.89-15.98,32.1-28.84,1.85-6.85-40.49-1.01-34.12Z"/>
            <path class="cls-2" d="M747.63,587.8l-5.98,15.96c3.82,3.51,22.6-12.16,17.57,2.6-.84,2.46-6.54,8.24-9,8.99-24.96,7.54-26.8-27.83-2.59-27.54Z"/>
            <path class="cls-2" d="M865.55,1021.24c4.11,14.11-25.47,32.53-33.05,19.98-4.8-7.94,2.35-10.41,6.27-12.8,1.4-.85.55-4.62,5.81-3.24,1.22.32-.51,4.88,5.76,4.03,7.22-.97,8.81-7.23,15.22-7.98Z"/>
            <path class="cls-2" d="M979.46,591.8c2.04,1.95-9.99,11.67-5.97,15.96,1.21,1.29,29.92-15.79,14.01,5.03-18.28,23.92-42.38-14.46-8.03-20.99Z"/>
            <path class="cls-2" d="M1290.09,576.88c2.14,2.31,3.63,1.76,5.11,5.94,1.43,4.03,3.02,17.94,2.19,21.87-.46,2.18-5,.31-5.86,1.27-1.02,1.14.32,4.69-.41,6.17-1.56,3.16-7.7,8.73-8.85,13.61-13.04-8.93,5.38-19.1,6.55-25.43,1-5.38-3.78-18.41-1.57-25.48,2.07-3.18,1.88,1.02,2.85,2.07Z"/>
            <path class="cls-2" d="M875.46,473.84c-3.46,4.05-15.04-1.43-18.84-1.58-3.19-.13-14.18,5.22-13.08-1.33,1.16-6.93,14.8-11.76,20.86-10.97,5.18.68,15.12,9.14,11.06,13.88Z"/>
            <path class="cls-2" d="M617.74,949.34c2.53,1.85-20.63,30.82-27.82,14.75,2.63-11.66,17.09-15.77,27.82-14.75Z"/>
            <path class="cls-2" d="M495.22,864.06c1.63,1.43,1.81,4.01,3.61,5.36,3.75-10.3,4.98-.25,6.28.04,3.21.72,7.3-.45,10.71-.03.76,18.23-4.78,10.13-13.09,9.11-3.33-.41-13.48.9-14.91-.07-5.53-3.76,1.44-7.86,6.01-7.07l-3.96-8.99c.77-1.15,4.89,1.25,5.35,1.65Z"/>
            <path class="cls-2" d="M821.57,437.95c-.26.27-3.96-.25-5.91,1.1-2.71,1.88-3.04,11.43-7.05.94l-14.99,17.96c-2.66-16.37,4.71-17.77,15.33-24.63,1.44-.93,1.81-4.6,3.82-5.22,5.74-1.78,11.06,7.56,8.81,9.85Z"/>
            <path class="cls-2" d="M527.85,887.4c-.28.21.03,4.54-3.33,5.74-2.61.93-9.96-1.75-11.77-1.11-3.31,1.17-1.55,5.82-4.9,5.34-5.18-16.81,4.39-9.92,14.41-12.52,8.28-2.15,16.91-8.14,23.52-13.43,1.59,7.7-5.32,8.13-8.79,12.16-1.31,1.52-2.14,7.74-4.18,7.78-.85.02-3.76-4.88-4.95-3.96Z"/>
            <path class="cls-2" d="M835.57,537.87c-.14,9.24-11.31,9.78-15.83,13.12-1.86,1.37-10.79,16.21-14.13,12.83,3.76-14.27,12.96-31.15,29.96-25.94Z"/>
            <path class="cls-2" d="M555.78,995.26c-1.63.13-3.99-1.8-5.06-1.79-1.01,0-.52,3.02-2.37,3.68-2.22.78-5.45-.2-8.51,1.11s-11.69,17.33-8,4.99c-10.01,2.6-6.33-8.05-.08-10.75,4.56-1.97,8.35-4.72,9.57-5.19,3.07-1.19,10.57-.88,14.44-2.03.09,3.31-.08,6.66.01,9.98,2.47-.2,9.64-2.37,9.98-1.99,1.32,1.5-.14,6.73-3.25,7.72-7.66,2.45-6.59-.26-6.73-5.73Z"/>
            <path class="cls-2" d="M713.66,723.62c1.36,11.34-6.64,22.18-16.93,25.97-9.51-1.86,10.7-32.11,16.93-25.97Z"/>
            <path class="cls-2" d="M643.71,829.49c.48,9.17-25.09,22.37-27.95,12.9s21.79-13.09,27.95-12.9Z"/>
            <path class="cls-2" d="M1270.51,542.63c.48.35,5.03,4.84,5.24,5.14,7.96,11.78-13.65,3.29-14.46,4.06-.47.45-.71,10.42-5.01,11.96l-.98-19.93,5.96,1.99.04-7.98c2.68,2.19,6.84,3.03,9.22,4.77Z"/>
            <path class="cls-2" d="M585.75,1027.24c.43,3.38-4.89,1.9-5.88,5.18-.24.79,1.44,10.42,1.9,11.32,1.26,2.47,24.16,7.11,17.97,13.43-3.95,4.03-7.73-5.33-8.86-5.45-1.56-.17-4.03,1.84-5.86,1.61s.4-6.41-7.25-2.12c-.82-8.95-6.44-27.12,7.97-23.97Z"/>
            <path class="cls-2" d="M1091.39,465.95c.18-2.6,1.84-5.29,2.03-7.98,16.88,5.48,12.61,7.72-2.03,7.98-.09,1.32.03,2.67-.02,3.99,3.21-2.45,26.71,6.01,21.99,9.98-5.11,1.72-37.81-6.12-29.96-13.96.31-.31,6.12.02,7.99,0Z"/>
            <path class="cls-2" d="M549.78,863.4c-7.21.66-17.43,13.77-17.99,2.03l6.01-3.99c-6.43.45-11.27-.35-10-7.99,10.28-1.48,16.86.76,21.97,9.95Z"/>
            <path class="cls-2" d="M1267.25,555.84c.19.23-.36,2.97,1.39,5.88,3.81,6.33,6.16,11.76,7.74,19.99.48,2.49,1.21,8.14-2.12,8.04s-11.26-27.06-10.57-31.44c.51-3.21.53-6.22,3.56-2.47Z"/>
            <path class="cls-2" d="M1096.42,513.9c5.85-1.25,7.18,19.19-2.04,19.24-12.3.06-4.8-15.71,2.04-19.24Z"/>
            <path class="cls-2" d="M747.65,685.66c-.59-5.83,3.2-21.71,10.86-19.93s-2.64,23.23-10.86,19.93Z"/>
            <path class="cls-2" d="M853.53,499.91c-.1,13.16,10.9,6.82,13.03,9.97,5.06,7.47-13.39,6.36-17.01,6,2.71-5.41-6.33-16,3.98-15.96Z"/>
            <path class="cls-2" d="M895.52,465.96l2,19.96-11.97-2.02c-1.22-1.36,3.63-19.92,9.97-17.94Z"/>
            <path class="cls-2" d="M620.76,1053.19c11.06-2.59-.28,21.75-4.02,21.93-6.35.3-.16-20.95,4.02-21.93Z"/>
            <path class="cls-2" d="M918.96,446.69c.71,5.28,7.11.96,6.57,6.27-.24,2.36-6.76,16.03-9.98,12.99-6.61-11.53-.04-9.83.15-11.17.64-4.45-6.98-11.3,3.27-8.09Z"/>
            <path class="cls-2" d="M521.31,917.96c.4.15,6.13,5.82,4.49,7.38-.27.26-4.99.42-7.4,1.56-4.12,1.96-6.13,7.7-10.59,1.42-.14-6.77,6.87-12.87,13.5-10.36Z"/>
            <path class="cls-2" d="M601.74,1069.18c.08,7.46-5.08,5.5-9.94,4.96l1.94,11c-7.22.46-2.1-10.08-12-8.01,2.31-9.76,11.8-8,19.99-7.95Z"/>
            <path class="cls-2" d="M505.83,845.47c4.87-.34,18.28,1.4,15.96,8.96-2.59,8.44-17.51-.83-15.96-8.96Z"/>
            <path class="cls-2" d="M1237.27,613.76c-6.6-.15-14.68-20.75-11.96-23.96l6.52,4.63,5.44,19.33Z"/>
            <polygon class="cls-2" points="573.74 881.4 565.74 874.4 575.75 861.44 573.74 881.4"/>
            <path class="cls-2" d="M911.52,428.02c3.28,4.34-7.72,9.08-13.98,2.96-11.26-11.02,12.43-5.01,13.98-2.96Z"/>
            <path class="cls-2" d="M557.77,925.35l.02,6.01,9.97-2v5.97c-12.43-2.28-11.03-5.06-23.76-.74-1.45.49-5.31,4.93-6.2-.28s16.26-8.73,19.97-8.96Z"/>
            <path class="cls-2" d="M579.75,911.38c1.15,12.98-9.99,4.43-17.99,5.98-2.59-11.2,10.27-2.91,17.99-5.98Z"/>
            <path class="cls-2" d="M1278.12,516.57c1.15-2.07,2.73,1.8,1.82-4.16-1.53-10.02,6.66-1.38,6.73.42.05,1.31-6.51,19.75-11.41,10-.15-2.72,1.81-4.36,2.86-6.26Z"/>
            <path class="cls-2" d="M623.72,1015.25c.58,2.91.09,11.91-2.99,11.93-.39,0-1.93-2.79-3.92-3.02-5.21-.6-8.17,5.01-7.09-4.92,2.82-.28,6.01.61,8.71.04,2.14-.45-.1-5.95,5.29-4.03Z"/>
            <path class="cls-2" d="M993.45,509.88c-8.4-.07-14.01-.33-11.97-9.97,5.73.8,13.68,2.3,11.97,9.97Z"/>
            <path class="cls-2" d="M1113.37,543.86c.62,12.66-14.61,11.46-10.97-.02l10.97.02Z"/>
            <path class="cls-2" d="M601.73,927.36c-.49,7.53-3.74,14.13-11.97,11.97-.6-7.04,6.51-1,1.97-9.97l10-2Z"/>
            <path class="cls-2" d="M839.56,473.93c-3.1,3.1-6-2.35-6.6-2.72-3.15-1.93-8.06-3.01-7.37-7.25,5.6-3.41,18.36,5.58,13.97,9.97Z"/>
            <path class="cls-2" d="M1293.24,479.94c1.71,1.46-8.85,16.42-13.97,13.96.1-5.56,2.18-9.21,7.99-7.99-3.26-7.92-2.34-5.99,5.98-5.97Z"/>
            <path class="cls-2" d="M549.78,943.34c1.78,3.64-7.23,16.85-9.97,13.96,1.45-6.02,1.02-15.73,9.97-13.96Z"/>
            <path class="cls-2" d="M549.8,917.35l6.96-9.97c7.19,6.4,1.16,11.38-6.96,9.97Z"/>
            <path class="cls-2" d="M519.8,897.4v9.98c-5.31.77-8.83-.76-11.97-5.01l11.97-4.97Z"/>
            <path class="cls-2" d="M593.58,1009.4c3.77,4.91-7.3,10.59-11.81,9.82-.22-6.31,8.18-4.67,6-11.98,1.13,1.03,5.61,1.92,5.8,2.16Z"/>
            <path class="cls-2" d="M727.65,655.71l.02,7.97h-9.99c-1.19-7.55,3.44-8.71,9.97-7.97Z"/>
            <path class="cls-2" d="M1169.35,607.76l4.99-9.94c8.33,6.13,5.29,10.89-4.99,9.94Z"/>
            <path class="cls-2" d="M551.77,837.48c.36,12.24-6.95,13.65-9.97,2.01l9.97-2.01Z"/>
            <path class="cls-2" d="M1119.38,549.86c1.13-1.62,11.32-3.12,9.97,2.95-1.88,8.47-14.35,3.3-9.97-2.95Z"/>
            <path class="cls-2" d="M1317.2,515.88c-9.81.78.16-14.79,4.01-15.97l-4.01,15.97Z"/>
            <polygon class="cls-2" points="669.7 939.35 667.68 949.32 663.68 941.33 657.72 943.32 657.73 937.34 669.7 939.35"/>
            <path class="cls-2" d="M1311.22,509.91c-.28,4.57-2.78,17.09-7.98,11.96-2.25-2.22,2.24-13.68,7.98-11.96Z"/>
            <path class="cls-2" d="M957.5,433.98c-1.62-5.1,10.73-10.6,11.97-4.95s-8.95,5.52-11.97,4.95Z"/>
            <path class="cls-2" d="M1025.42,505.89c-2.32,2.05-6.27-5.91-9.96-4.97,7.04-10.2,16.48-.8,9.96,4.97Z"/>
            <rect class="cls-2" x="603.17" y="1055.22" width="7.15" height="9.92" transform="translate(-572.04 739.89) rotate(-45.02)"/>
            <path class="cls-2" d="M585.75,963.29c-4.08,3.9-7.5-5.13-8.86-5.32-1.97-.27-4.22,2.18-7.15.38s-.42-8.66.04-9.02c3.25-2.58,6.06,5.27,7.98,6.7.47.35,12.36,3.08,7.99,7.26Z"/>
            <path class="cls-2" d="M583.75,999.27v11.98c-11.91,4.24-3.61-16.54,0-11.98Z"/>
            <circle class="cls-2" cx="1195.25" cy="614.66" r="4.47"/>
            <path class="cls-2" d="M485.82,861.44v9.97s-9.98-6.02-9.98-6.02c-.46-3.4,9.5-4.45,9.98-3.94Z"/>
            <path class="cls-2" d="M641.71,971.3c3.4,3.49-5.28,13.03-9.94,4.98,1.34-2.65,8.03-6.95,9.94-4.98Z"/>
            <rect class="cls-2" x="624.72" y="1030.21" width="14" height="4.01" transform="translate(-400.88 1663.3) rotate(-89.96)"/>
            <path class="cls-2" d="M637.71,785.52c-.23.34-7.58,2.43-7.97,2-.8-14.04,12.44-8.57,7.97-2Z"/>
            <path class="cls-2" d="M655.7,1103.11c-.86.86-10.52,1.92-7.96-4.96,2.86-7.7,11.25,1.68,7.96,4.96Z"/>
            <path class="cls-2" d="M935.5,438v7.97c-10.73-.38-12.3-10.3,0-7.97Z"/>
            <path class="cls-2" d="M625.72,961.32c3.48,3.4-3.97,9.32-7.99,7.96,4.44-6.13-3.13-2.1-1-5.98,1.33-2.22,8.29-2.67,9-1.98Z"/>
            <path class="cls-2" d="M1281.24,601.76c-2.28,2.45-10.28-7.2-7.97-9.97,4.95-1.33,10.07,7.71,7.97,9.97Z"/>
            <path class="cls-2" d="M1273.25,477.93c-2.69,2.88-9.81-8.21-7.97-9.97,2.73-2.6,10.63,7.11,7.97,9.97Z"/>
            <path class="cls-2" d="M935.5,461.97c.18,8.2-10.15,8.2-9.97,0h9.97Z"/>
            <path class="cls-2" d="M593.74,1003.24c-5.19.26-10.25,1.37-7.96-4.96,2.41-6.68,9.93,3.14,7.96,4.96Z"/>
            <rect class="cls-2" x="521.8" y="827.47" width="4.01" height="12.01" transform="translate(-310.09 1356.61) rotate(-89.95)"/>
            <path class="cls-2" d="M775.61,679.68c2.13,1.64-6.28,10.09-7.97,7.97-2.95-6.74,3.67-11.28,7.97-7.97Z"/>
            <rect class="cls-2" x="1133.36" y="581.8" width="6" height="7.99"/>
            <path class="cls-2" d="M1305.23,535.85c1.29,22.31-8.06,1.81-5.98.02.52-.44,4.34.24,5.98-.02Z"/>
            <path class="cls-2" d="M837.36,550.05c.34.21,2.89,7.11,2.2,7.78-7.93,1.5-10.97-13.17-2.2-7.78Z"/>
            <path class="cls-2" d="M801.59,607.76h-5.98s0-7.97,0-7.97h2.96c3.14,2.11,3.48,4.29,3.02,7.97Z"/>
            <path class="cls-2" d="M1253.26,613.77v7.97s-5.98,0-5.98,0c.49-4.34,1.27-9.44,5.98-7.97Z"/>
            <path class="cls-2" d="M553.81,1011.28c5.24-.32,3.94-8.37,9.93-1.04l-9.93,1.04Z"/>
            <path class="cls-2" d="M1087.39,461.95c-1.32,1.23-6.99-.45-7.96-3.02-2.63-6.94,12.02-.76,7.96,3.02Z"/>
            <path class="cls-2" d="M1223.29,607.78v7.97c-7.96-.05-7.85-7.97,0-7.97Z"/>
            <path class="cls-2" d="M831.57,428.01c1.93,4-3.57,10.32-5.98,7.97-1.08-1.05,2.2-10.94,5.98-7.97Z"/>
            <path class="cls-2" d="M1037.42,519.88c-3.95-.02-6.94,1.36-5.97-2.96l4.99-5.01.98,7.97Z"/>
            <rect class="cls-2" x="559.02" y="881.48" width="4.21" height="10.42" transform="translate(-206.57 171.34) rotate(-14.69)"/>
            <rect class="cls-2" x="747.64" y="705.64" width="6" height="5.99" transform="translate(-2.53 2.68) rotate(-.2)"/>
            <rect class="cls-2" x="871.55" y="424" width="5.99" height="6" transform="translate(444.43 1300.02) rotate(-89.8)"/>
            <path class="cls-2" d="M873.54,491.91c-7.69-.58-6.35-3.83-.98-7.97l.98,7.97Z"/>
            <path class="cls-2" d="M1087.38,541.86c.59.59,1.29,7.58-2.96,5.96-7.24-2.76-.52-9.44,2.96-5.96Z"/>
            <path class="cls-2" d="M813.58,479.94c.59.59,1.29,7.58-2.96,5.96-7.24-2.76-.52-9.44,2.96-5.96Z"/>
            <rect class="cls-2" x="565.76" y="1045.19" width="8.01" height="4" transform="translate(-478.71 1614.59) rotate(-89.87)"/>
            <path class="cls-2" d="M1121.36,535.87c3,3.37-2.55,8.99-5.98,5.97-2.14-1.88,4.06-8.11,5.98-5.97Z"/>
            <path class="cls-2" d="M675.68,1069.18c3.02,3.42-2.61,8.97-5.98,5.97-2.14-1.91,4.09-8.11,5.98-5.97Z"/>
            <path class="cls-2" d="M817.58,493.9c-3.42,3.02-8.98-2.61-5.98-5.97,1.91-2.14,8.11,4.09,5.98,5.97Z"/>
            <path class="cls-2" d="M785.6,543.86c2.14,1.88-4.06,8.11-5.98,5.97-3-3.37,2.55-8.99,5.98-5.97Z"/>
            <path class="cls-2" d="M865.55,489.93c2.09,1.94-3.76,9.12-5.97,2.96-1.51-4.22,5.23-3.64,5.97-2.96Z"/>
            <path class="cls-2" d="M667.69,1091.15c2.05,2.07-3.97,8.01-5.98,5.97s3.97-8.01,5.98-5.97Z"/>
            <path class="cls-2" d="M767.6,617.76c.24.2.68,4.47,2.02,5.97h-5.99s0-5.96,0-5.96c1.23.12,3.59-.31,3.96,0Z"/>
            <path class="cls-2" d="M529.79,873.43v3.97s-7.98,0-7.98,0c1.07-3.97,4.26-4.48,7.98-3.96Z"/>
            <path class="cls-2" d="M1327.22,525.85h-7.98s0-3.96,0-3.96c3.73-.52,6.91,0,7.98,3.96Z"/>
            <path class="cls-2" d="M1079.39,507.91c2.03,2.01-3.9,8.02-5.98,5.97-2.03-2.01,3.9-8.02,5.98-5.97Z"/>
            <path class="cls-2" d="M741.64,639.74c2.03,2.01-3.9,8.02-5.98,5.97s3.9-8.02,5.98-5.97Z"/>
            <path class="cls-2" d="M477.83,847.46c2.03,2.01-3.9,8.02-5.98,5.97s3.9-8.02,5.98-5.97Z"/>
            <rect class="cls-2" x="533.81" y="947.33" width="5.98" height="3.97"/>
            <rect class="cls-2" x="641.73" y="931.36" width="3.98" height="5.97"/>
            <rect class="cls-2" x="523.81" y="825.49" width="5.98" height="3.97"/>
            <path class="cls-2" d="M539.79,845.48c-1.82,4.85-4.89,5.33-7.98.97l7.98-.97Z"/>
            <rect class="cls-2" x="691.69" y="981.29" width="3.98" height="5.97"/>
            <rect class="cls-2" x="831.59" y="509.9" width="3.98" height="5.97"/>
            <rect class="cls-2" x="1003.47" y="551.85" width="3.98" height="5.97"/>
            <rect class="cls-2" x="875.56" y="477.95" width="5.98" height="3.97"/>
            <rect class="cls-2" x="829.59" y="489.93" width="3.98" height="5.97"/>
            <rect class="cls-2" x="567.78" y="1003.26" width="3.98" height="5.97"/>
            <path class="cls-2" d="M1277.25,487.95c3.06,3.74-3.72,6.31-5.97.95-1.99-4.73,5.68-1.3,5.97-.95Z"/>
            <path class="cls-2" d="M839.56,565.83v3.98s-7.97,0-7.97,0c-2.42-1.09,6.87-5.05,7.97-3.97Z"/>
            <path class="cls-2" d="M1035.42,495.92v3.97c-2.95.65-4.16-.88-5.98-3l5.98-.98Z"/>
            <path class="cls-2" d="M531.79,925.36c.61,2.76-1.08,5.31-3.97,5.98v-5.98s3.97,0,3.97,0Z"/>
            <path class="cls-2" d="M605.73,875.43v3.97c-2.95.65-4.16-.88-5.98-3l5.98-.98Z"/>
            <path class="cls-2" d="M899.51,422.01l-5.98-5.97c3.64-.68,6.64,2.19,5.98,5.97Z"/>
            <path class="cls-2" d="M1065.4,499.92v3.97s-5.98,0-5.98,0c.67-2.89,3.23-4.58,5.98-3.96Z"/>
            <circle class="cls-2" cx="1065.45" cy="509.85" r="2.47"/>
            <circle class="cls-2" cx="817.63" cy="479.89" r="2.47"/>
            <path class="cls-2" d="M1077.4,499.93l-2.02,5.96h-1.95c-.2-4.82-1.27-6.95,3.98-5.96Z"/>
            <circle class="cls-2" cx="1307.28" cy="525.83" r="2.47"/>
            <path class="cls-2" d="M683.71,819.49c-1.33-2.5,3.2-6.96,3.96-5.99,1.33,2.5-3.2,6.96-3.96,5.99Z"/>
            <circle class="cls-2" cx="1007.49" cy="495.87" r="2.47"/>
            <circle class="cls-2" cx="905.57" cy="491.88" r="2.47"/>
            <path class="cls-2" d="M583.74,887.39h-1.96c-.99-8.31,2.95-8.31,1.96,0Z"/>
            <path class="cls-2" d="M629.72,789.54c2.27,2.32-.86,6.43-3.98.98-.25-1.74,3.83-1.12,3.98-.98Z"/>
            <path class="cls-2" d="M589.74,885.39c-.69,1.36-3.39-1.17-1.96-3.97.69-1.36,3.39,1.17,1.96,3.97Z"/>
            <path class="cls-2" d="M999.46,430.02l-3.98,3.97c-.57-4.17-.2-4.55,3.98-3.97Z"/>
          </g>
        </g>
        <path class="cls-2" d="M341.48,325.68c-6.96,7.16-20.35,3.14-19.72-10.57,1.07-23.49,44.81-28.58,45.75-15.98.68,9.13-9.97,4.79-13.62,5.81-11.17,3.1-8.56,16.78-12.41,20.74Z"/>
        <path class="cls-2" d="M323.95,280.17c-2.73,3.71-41.68,3.5-37.96-9.93,2.51-3.67,36.17.86,37.96,9.93Z"/>
        <path class="cls-2" d="M343.94,266.21c-2.23,3.82-6.96,9.35-11.98,7.98-3.91-4.06,7.37-33.01,17.97-27.94,1.1,1.02-4.63,17.64-5.99,19.96,4.3-.16,9.14-.74,12.22,2.88,8.12,9.57-16.48,16.43-12.22-2.88Z"/>
        <ellipse class="cls-2" cx="309.97" cy="291.28" rx="6.96" ry="6.95"/>
        <path class="cls-2" d="M347.95,358.09l-4.01-9.98c7.84-1.48,11.75,6.32,4.01,9.98Z"/>
        <rect class="cls-2" x="434.64" y="373.63" width="4.45" height="8.87" transform="translate(-99.96 164.51) rotate(-19.18)"/>
        <path class="cls-2" d="M337.93,340.13v3.97c-2.95.65-4.16-.88-5.98-3l5.98-.98Z"/>
        <g>
          <path class="cls-1" d="M1029.44,901.38c14.36,15.7,29.73-2.33,38.43-14.52,3.1-4.35,14.06-25.58,15.47-26.49,11.03-7.12,2.34,22.6,1.5,25.47-4.49,15.23-13.32,34.31-23.37,46.55-7.09,8.63-36.35,31.47-37.72,38.38-2.26,11.33,10.11,11.97,18.28,10.08,4.95-1.14,19.04-15.15,14.46-1.51-13.71,40.81-49.84,39.12-77.94,61.92-11.38,9.24-22.17,21.96-29,34.92,17.46-4.6,33.79-16.93,52.73-14.85,3.19.35,18.28,4.24,17.17,8.81-42.8,20.06-58.86,64.1-82.67,101.15-32.72,50.91-75.16,84.57-133.14,103.61-1.95-7.7,4.74-10.16,7.02-15.93,3.25-8.23,7.5-34.21-7.54-31.66-10.61,1.8-35.63,30.42-45.44,38.64-44.89,37.6-113.98,65.87-172.93,66.92-1.97.04-10.59-1.05-8.95-5,1.74-4.2,26.17-14.63,33.01-20.95s12.98-15.24,14.93-24.01c-26.1,4.48-50.76,14.36-77.19,17.71-83.74,10.6-168-9.08-238.01-55.23-48.83-32.18-85.64-83.01-135.07-112.68-7.8-4.68-34.4-14.89-38.41-19.54-1.36-1.59-2.14-2.83.11-4.02,9.35-4.91,37.63-4.61,48.89-4.03,3.52-3.53-9.41-14.51-12.15-16.8-24.27-20.31-55.79-33.77-79.81-56.06-30.89-28.67-55.71-81.48-61.92-122.86,10.5,1.25,17.98,16.23,29.01,16.13,6.65-.06,14.87-10.59,14.59-16.58-.8-16.91-34.85-58.41-44.65-77.42-25.04-48.58-34.01-104.4-26.61-158.5.83-6.05,9.58-47.85,11.69-49.26,8.11-5.43,12.46,23.68,15.55,29.36,11.04,20.31,38.05,17.31,45.02-5.76,12.66-41.92-19.13-79.99-28.03-119.08-12.25-53.82,8.91-104.16,44.35-144.25,8.69-9.83,20.6-22.46,32.96-26.96-11.91,40.37-26.59,82.71-4.29,122.2,8.41,14.89,25.4,29.96,41.15,14.49,17.33-17.01,4.12-36.12,1.16-55.76,13.05,1.53,41.2,14.14,48.9-4.05,10.87-25.68-41.82-57.88-44.8-87.07-1.42-13.94,11.68-53.21,24.9-58.69,4.02-1.67,2.9,2.74,3.02,5,1.12,20.63-7.45,27.67,6.27,49.58,16.86,26.93,51.43,29.27,69.58,50.31,23.07,26.73,15.8,85.65,61.28,88.71,31.9,2.15,20.27-37.45,35.65-53.84,1.21-1.29,4.02-5.68,6.07-1.99,1.91,3.43,3.48,15.79,6,21.97,12.51,30.67,41.88,47.47,53.88,75.98,8.38,19.91,13.64,48.61,9.03,69.87-22.27-52.17-77.67-95.96-136.65-91.61-6.87.51-27.43,7.25-31.25,4.83-11.81-17.23-18.24-26.41-18.04-48.13.03-3.4,4.59-16.54-.91-16.84-5.46-.3-21.82,22.38-23.97,27.94-5.69,14.74-2.28,62.87-20.41,67.66-12.95,3.42-11.74-31.72-15.59-31.69-5.8,4.09-5.84,11.38-8.63,17.3-7.18,15.26-17.03,30-21.79,46.13-3.02,10.25-3.33,22.53-6.44,31.51-4.55,13.1-21.02,34.31-27.8,50.11-36.45,84.9-42.47,224.32-4,309.03,38.17,84.04,104.72,160.54,191.05,196.56,8.14,3.4,20.35,4.95,27.24,8.73,5.86,3.21,12.45,13,18.31,17.65,137.02,108.87,330.95,85.7,463.55-17.97,83.4-65.21,146.03-174.43,202.91-263.6Z"/>
          <path class="cls-1" d="M202.04,1021.23c-2.14-3.08-14.53-14.43-17.72-19.24-2.75-4.15-15.58-27.76-14-30.44.49-.84,8.98-2.76,7.74-7.23-1.17-4.22-12.81-7.25-14.96-9.01-2.97-2.42-11.1-18.91-11.15-22.97-.03-2.55,2.42-6.74,2.14-6.97-.58-.48-4.52,1.1-6.21-1.21-4.19-5.71-13.54-49.19-9.78-52.75,8.61-1.8,4.3,3.42,8.98,7.96,13.12-13.25-.6-15.53-12.98-13.95l8-7.97c-9.64,3.04-9.71-6.55-10.08-14.91-.45-10.29-.23-13.87,6.09-22.03-.16-2.33-5.67.46-6.16-2.11-.58-3.08-.6-22.77,0-25.79.43-2.16,4.53-.85,6.14-1.11-11.74-10.01-2.17-24.6-.17-37.09,1.28-7.95.98-16.75,2.7-25.26,5.99-29.55,14.73-59.61,30.44-85.43,3.37,6.6,8.78,12.48,16.97,11.97,1.85-1.8-8.14-17.62-9.53-21.41-11.85-32.24-.24-60.62,11.56-90.42,2.72-2.08,9.17,7.1,12.47,8.46,17.85,7.34,31.43-14.85,35.35-29.56,3.42-12.81,1.87-26.87,4.22-39.73.44-2.39,1.1-4.73,3.87-5.1,2.89,20.8,20.26,36.99,22.08,58.83,2.18,26.12-12.98,40.2-20.05,63,3.76.87,4.73-2.13,6.99-3.98,16.18-13.28,27.28-33.14,26.93-54.55,42.25-15.35,90.11.93,114.79,38.74,57.18,87.59,22.31,199.1,35.34,298.24,16.57,126.09,94.43,263.78,231.18,282.28,12.61,1.71,36.97.05,47.07,2.57,1.55.39,1.35,4,2.48,4.07,4.74.3,9.33-5.22,11.87-6.09.95-.33-.66,7.49,8.96,0-1.37,5.55.09,16.51-.69,21.06-.51,3-13.64,8.36-15.27,6.89l1.02-13.93c-15.29,2.45-6.27,16.99-7,17.91-.76.96-21.93,7.97-23.25,8.01-4.76.14-7.5-4.5-9.7-4.01-2.57.57-2.7,7.23-5.05,9-1.83,1.38-22.35,5.79-23.73,4.78-1.04-.76-3.05-11.46-8.21-11.76-3.23,13.99,5.23,12.51-9.36,15.63-37.07,7.93-77.59,4.52-114.56-1.67l7.97-3.95-10.96-2.05,1,4c-13.09,2-8.03-8.27-10.03-9.96-5.3-4.5-3.18,7.5-5.01,8.01-10.17-.23-10.65-6.09-13.34-7.74-1.25-.77-4.75,2.03-9.02.32-2.8-1.12-12.44-8.07-10.58-10.59.49-.66,7.33,6.54,3.97-9.97l-8.76,8.23c-1.05,7.61-4.33,6.87-11.27,4.79s-50.77-25.65-51.5-30.23c-.31-1.95,1.96-4.49,1.58-6.77-5.63,4.72-7.56,4.2-13.77.69-9.23-5.23-5.35-17.99-8.23-20.65-4.81-4.46-3.67,5.72-3.97,5.98-3.51,3.02-8.13-2.57-8.15-6.83-.01-2.27,5.03.3,4.14-3.14-3.83.58-7.66,3.54-11.04.15-9.4-13.24-22.53-25.29-31.74-38.29-6.58-9.29-11.48-13.7-7.18-25.77l-4.01,5.99c-2.76,2.66-27.21-38.83-27.11-44.95.1-6,5.32-8.86-.88-16.98-2.33-1.65-3.16,10.67-10.33-4.63-13.78-29.42-31.85-96.18-35.45-128.36-1.12-10.04.13-56.45-9.18-60.74-3.78-1.74-2.77,2.66-3.51,4.35-15.52,35.49,8.24,157.77,20.65,197.91.7,2.27,5.15.54,3.9,6.45-.11.51-8.1,4.61-9.04,5.01-1.42.59-.76-3.83-1.95-4.06-6.38-1.22-5.43,3.86-7.6,5.42-4.47,3.2-9.87,3.26-11.4,10.6,2.51-.49,5.46,1.61,7.43,1.48,4.37-.28,14.59-5.52,15.48-5.64,9.12-1.23,5.04,6.4,13.06,2.16-.42,3.94,2.91,9.14,2.16,12.65-.44,2.08-5.23,1.92-5.97,4.56-.26.91,1.35,16.91,1.82,18.76,5.32-.88,3.23-9.03,4.09-9.88,3.63-3.54,13.11.07,14.9,6.92,1.54,5.9,2.21,6.01,2.95,8.39.63,2.02-.4,6.09.04,6.57s9.51-5.71,7.97,5.97c-8.22-5.61-8.34,2.05-8.94,2.03-6-.27-5.66-7.47-5.04-12l-6.95,3.97c-2.85-3.88-7.82-7.25-9.02-11.97-6.27,1.04-15.13-7.6-14-13.97l8.01-3.98c-4.36,1.06-7.8-4.05-10.98-4.1-1.83-.02,1.11,4.99-5.13,3.32-11.05-2.97-21.43-13.07-17.85-25.21,6.98,1.19,11.43,5.66,9.96-4-10.85,4.88-6.14.46-9.18-3.78-.25-.34-5.39-6.38-5.78-6.2-7.68,3.46,1.23,4.54,2.06,5.9,1.49,2.44.86,12.74-3.05,14.06,4.03-22.24-4.27-8.61-10.18-12.82-2.31-1.65-1.32-6.41-1.83-7.15.2.24,4.45.59,5.98,2v-5.98s-5.97,0-5.97,0c.13,1.23-.3,3.63-.01,3.98ZM273.98,607.78c-3.92-3.73-16.36,8.9-9.97,13.96,3.84,3.03,11.31-12.68,9.97-13.96ZM283.96,621.74c-3.05,2.56-6.95-.22-8.79.06-1.5.23-1.11,3.29-1.51,3.49-1.5.72-4.89-2.41-5.67-1.54-5.11,5.77,7.6,5.21,6.02,9.96h1.94c-.09-7.72,10.67-2.45,8.01-11.97ZM328.08,709.51c-3.87-2.7,3.43-32.28,3.84-38.85.39-6.26,2.3-19.44-3.95-22.94-1.15,15.84-11.87,31.28-13.84,47.1-5.17,41.56,35.97,38.84,37.42,3.86.07-1.68-1.25-14.73-5.58-11-3.23,2.78-7.17,29.3-17.89,21.83ZM238,663.7h-3.98v5.97h3.98v-5.97ZM196.04,719.62v30.96c0,5.73-8.99,27.41-17.02,19-14.05-14.7,17.47-65.53,12-83.94-3.49-.3-4.58,3.45-6.21,5.78-8.43,12.02-20.11,44.36-20.83,59.07-2.38,48.83,42.71,43.63,42.19,4.05-.09-6.89-2.26-17.15-4.25-23.82-.88-2.97-2.56-10.22-5.89-11.09ZM212.03,701.64v5.99h8v-5.99h-8ZM273.45,737.2c2.77-7.92-7.74-9.26-9.45-7.6-.62.6.37,9.53,0,12,2.03,1.91,9.16-3.55,9.45-4.4ZM367.69,749.8c-6.79-4.22-5.82,5.09-7.18,9.33-8.31,26.08-26.27,59.47-17.04,87.79,7.55,23.15,39.19,19.27,42.48-8.39,1.33-11.16-11.41-84.46-18.26-88.72ZM151.35,777.71c-8.06,1.38-10.15,16.9,2.71,10.82,7.34-3.47,1.65-11.57-2.71-10.82ZM228.01,789.54c-3.37-3-8.99,2.55-5.98,5.97,1.88,2.14,8.12-4.06,5.98-5.97ZM252,803.52c-2.1-2.15-15.5.45-11.98,7.95l7.99,2.01-2.05-3.97,6.03-.02c-.23-1.61.39-5.58,0-5.98ZM170.05,819.5h-5.98v3.97h5.98v-3.97ZM154.05,823.49c-10.57,1.85-7.03,13.02,2.01,11.97l-2.01-11.97ZM181.69,840.98c1.12-.68,13.26-13.87,5.36-13.46-.75.04-7.31,8.94-13,5.96.18,4.9,2.33,10.71,7.64,7.5ZM224.01,833.5c-.26-.32-7.59-2.4-7.97-2.02-4.78,4.67,13.43,8.71,7.97,2.02ZM200.03,849.44c3.24-3.23-4.77-11.2-7.97-7.97-4.17,4.21,3.82,12.11,7.97,7.97ZM275.97,847.44l-6,.02.02,5.99,6-.02-.02-5.99ZM162.06,853.46c-1.1-1.09-10.39,2.87-7.97,3.97h7.97s0-3.97,0-3.97ZM180.04,853.46c-7.19-1.13-20.42,10.29-5.97,9.99-7.95,19.9-10.33,45.44-7.79,66.68,1.49,12.41,11.53,34.66,26.56,33.16,25.81-2.58,10.62-41.68.19-53.9.62,13.28,2.55,26.81-1.01,39.94-8.53.9-13.42-8.85-15.09-15.86-6.5-27.21.81-52.95,3.11-80.01ZM281.97,859.45h-5.98v3.97h5.98v-3.97ZM222.01,865.44c-4.69-4.52-12.39,8.99-9.97,13.96,7.03,2.93,11.89-12.11,9.97-13.96ZM158.06,881.4l-.98-5.97c-2.12,1.82-3.65,3.03-3,5.97h3.98ZM160.06,891.41c-2.05-2.05-12.05.23-7.98,5.96,3.29,4.62,11.62-2.33,7.98-5.96ZM224.01,901.37c2.89-2.68-8.22-9.81-9.97-7.97-2.6,2.73,7.12,10.62,9.97,7.97ZM333.93,895.4c-3.7-1.37-9.82,6.26-7.97,7.97,3.53,3.26,9-3.44,7.97-7.97ZM222.02,903.4l-11.98-2.01c.09,7.61,9.03,3.06,3.99,11.96l7.99-9.95ZM293.97,912.37c-1.6,6.54,0,25.6,0,33.96,0,10.37,12.63,43.95,19.95,51.97,10.08,11.03,29.34,14.16,36.47-1.56,9.36-20.64-9.2-46.35-22.42-61.39-.17,3.52-.18,7.01.46,10.51,1.36,7.48,16.09,42.04,6.28,45.27-14.32,4.72-25.22-37.38-28.18-47.36-2.19-7.38-5.06-27.97-7.53-32.42-1.69-3.05-4.64-.54-5.03,1.03ZM212.02,917.35v4.01s10.01.01,10.01.01v-4.01s-10.01-.01-10.01-.01ZM285.97,943.32c2.92-2.63-7.52-8.58-7.96-7.98-3,4.1,4.79,10.83,7.96,7.98ZM219.77,937.61c-8.25-5.28-4.98,8.96-3.62,14.25.43,1.66,3.3,1.54,3.42,1.8.66,1.52-2.39,4.81-1.54,5.63,4.83,4.65,8.17-6.37,7.44-10.69-.1-.61-5.18-10.66-5.71-10.99ZM371.93,965.29c2.63,2.63,11.85-3.48,4.97-5.96-5.89-2.12-6.47,4.46-4.97,5.96ZM192.03,965.31c-15.03,2.29-8.5,2.65-8.17,11.13.03.68-7.25,1.08-1.78,10.83,8.36-3.86,9.74-13.66,9.95-21.96ZM216.01,965.31c-11.53-1.04-5.31,6.61-5.96,13.97l4.97-5.98c5.02,2.35-.37,11.94,8.99,5.97l4,6c.6-9.4-13.19-11.1-12-19.96ZM279.97,965.31h-5.98s0,7.97,0,7.97c4.71,1.48,5.49-3.63,5.98-7.97ZM202.05,1009.23c.48.45,11.76-1.06,13-1.79,4.05-2.39,11.27-13.79,8.12-18.22-1.66-2.34-13.78-5.75-17.11-7.94l-.03,8c-7.94-2.73-12.67,2.78-19.97,0,5.01,8.73,2.83,12.68,14.51,7.87,2.57-1.06.27-4.64,3.45-3.89,2.86,5.05-4.16,6.57-3.98,6.96.44.95,2.63,1.68,3.1,3.99.31,1.52-1.73,4.4-1.09,5ZM240,993.25c2.64-2.62-3.48-11.85-5.97-4.96-2.12,5.89,4.46,6.46,5.97,4.96ZM236.01,1007.25c-1.05.81-8.13-1.81-8,6.94l14,5.03c-.34-4.32-9.18-7.86-6-11.96.39-.5,4.18,1.09,3.99-.99l-3.97-3.01c-.28,1.11.29,3.76-.02,4ZM246,1007.26h-3.98c-.65,2.94.88,4.15,3,5.97l.98-5.97ZM397.89,1015.22v4s8.01.02,8.01.02v-4s-8.01-.02-8.01-.02ZM228.03,1017.24l-9.99.98c1.26,3.35,5.55.85,5.81,1.24,1.37,2.04-2.41,7.24,4.16,5.75l.02-7.97ZM363.92,1019.25c-4.23,1.11-15.64-3.45-13.98,3.96l13.98-3.96ZM311.95,1025.23c-7.02-.47-6.27,6.64-5.96,11.97,5.17-1.99,6.7-6.71,5.96-11.97ZM449.85,1043.19c1.96-1.91-2.34-8.59-4.99-9.94-8.05,4.66,1.49,13.33,4.99,9.94ZM307.95,1045.19c.4-.4-.2-4.37,0-5.98l-7.97,2.02c0,3.41,6.67,5.28,7.98,3.96ZM361.79,1041.34c-.48-.52-11.48-1.56-13.87-2.12,5.03,4.42-5.45,4.12-1.98,7.94,1.16,1.28,15.14,2.89,15.99,2.01-.36-2.05.65-6.98-.14-7.84ZM431.86,1043.19c-3.58-4.41-6.05,8.61-5.99,9.95l8,2.03c-1.12-2.26-1.62-11.51-2-11.98ZM375.9,1045.2c-5.63-5.2-5.79,11.02-3.97,13.97,8.04,2.36,5.34-12.71,3.97-13.97ZM476.35,1047.15c0-1.36-1.11-2.47-2.47-2.47s-2.47,1.1-2.47,2.47,1.11,2.47,2.47,2.47,2.47-1.1,2.47-2.47ZM321.94,1055.17c3.54-3.55-3.9-10.87-9.97-5.97-2,5.35,8.31,7.64,9.97,5.97ZM429.86,1115.1c-25.68-9.45-27.06-44.67-38.95-65.89-8.13,4.95-1.82,26.76.68,35.25,4.61,15.61,14.85,30.12,21.45,44.35,9.89-3.06,18.61,4.6,26.87-4.66,11.32-12.7-1.69-41.06-16.01-46.98-1.11,13.1,9.58,24.77,5.96,37.94ZM350.87,1051.06l-2.25,7.71,11.57,3.37,2.25-7.71-11.57-3.37ZM459.84,1073.2c-2.58-3.57-14.85-6.34-11.99,3.95,2.87,1.17,16.19,1.85,11.99-3.95ZM365.91,1075.17c-3.77-.64-6.63,2.33-5.97,5.97h7.98s-2.01-5.97-2.01-5.97ZM346.44,1087.1c0-1.36-1.11-2.47-2.47-2.47s-2.47,1.1-2.47,2.47,1.11,2.47,2.47,2.47,2.47-1.1,2.47-2.47ZM369.91,1091.15c-1.17-1.17-7,.35-7.97,3-3.86,10.61,13.25,2.32,7.97-3ZM361.93,1103.1l-.02,8.01h4s.02-8.01.02-8.01h-4ZM355.92,1107.13c-2.76-.61-5.31,1.08-5.98,3.96h5.99s0-3.96,0-3.96ZM371.9,1117.09c.61-2.76-1.08-5.31-3.97-5.98v5.98s3.97,0,3.97,0ZM381.9,1113.12h-3.98v5.97h3.98v-5.97ZM533.79,1115.11c-2.68-1.01-15.47,4.92-11.97,7.97,1.09.95,16.34-1.23,11.97-7.97ZM389.77,1131.27c-1.73-1.35-8,4.37-7.97,4.88.2,2.72,6.19,14.36,8.01,5.85,1.19-5.58,4.38-2.24,10.1-2.93l-.03-5.98c-11.7,4.85-8.57-.62-10.11-1.82ZM515.8,1137.06c1.87-2.8-3.38-7.34-6.96-5.95-10.51,9.22,4.68,9.38,6.96,5.95ZM443.85,1133.09c-1.5-1.49-25.14,6.02-23.97,13.95,7.11.09,6.52-13.15,10.97-1.97,1.47-2.92,18.78-6.23,13-11.98ZM491.81,1135.09c-.56-.62-14.16,1.58-9.97,7.97,4.01,1.4,14.16-3.37,9.97-7.97ZM527.79,1137.09c-.74-.68-7.48-1.26-5.97,2.96,2.21,6.16,8.06-1.02,5.97-2.96ZM579.75,1145.08c-3.73-.52-6.91,0-7.98,3.96h7.98s0-3.96,0-3.96ZM561.77,1173.02c-18.49-1.72-28.35-22.15-45.95-25.95-2.33,2.33,16.15,23.4,18.98,25.95,13.13,11.82,49.33,23.77,39.42-5.46-1.59-4.68-14.74-22.46-10.41-10.53l-6.01.04,3.96,15.94ZM394.41,1151.02c0-1.36-1.11-2.47-2.47-2.47s-2.47,1.1-2.47,2.47,1.11,2.47,2.47,2.47,2.47-1.1,2.47-2.47ZM465.46,1151.53c-7.79-3.35-8.4,12.04-5.59,17.52,6.27-1.48,13.66-2.29,15.94-9.04-2.39-.58-9.74-8.21-10.35-8.48ZM627.72,1165.05c-6.86-1.57-3.11,6.13-4.02,10.64-.12.57-7.35,3.72-3.95,7.32,4.73,5.02,10.98-13.8,7.97-17.96ZM709.66,1167.05c-1.06-1.03-11.45,2.58-7.97,5.97,1.06,1.03,11.45-2.58,7.97-5.97ZM513.79,1177.02v-7.99s-9.96,5-9.96,5l9.96,2.99ZM695.67,1171.04h-7.97c.05,7.95,7.98,7.85,7.97,0ZM519.81,1179.04c-2.5-1.33-6.97,3.2-5.99,3.96,2.5,1.33,6.97-3.2,5.99-3.96ZM633.71,1179.03h-3.98v5.97h3.98v-5.97ZM695.68,1179.02v5.99h8v-5.99h-8ZM721.68,1185.01c.76.97,5.29-3.49,3.96-5.99-.76-.97-5.29,3.49-3.96,5.99ZM505.81,1181.03h-3.98s0,5.98,0,5.98c2.89-.67,4.58-3.23,3.97-5.98ZM687.67,1189c4.33-4.52-17.79-17.21-13.96,4,3.36.84.83-3.34,3.21-3.92,1.31-.32,9.16,1.58,10.75-.07ZM671.71,1187.04c-.5-.66-13.65-3.42-16-4,.63,13.69,11.44,3.23,12.02,11.95,2.11.59,4.26-7.59,3.99-7.95ZM535.79,1185l-6,.02.02,5.99,6-.02-.02-5.99ZM581.77,1185l-.02,8.01h4s.02-8.01.02-8.01h-4ZM509.81,1191.02c-.35-.37-9.6-2.34-9.98-2.01-1.5,1.34,4.51,8.03,4.98,8.03,3.61,0,6.47-4.5,4.99-6.03ZM595.74,1189c-3.78-4.73-7.41,12.7-8.26,13.7-.25.3-4.67-1.73-7.68,1.23-5.97,5.86,1.04,9.26,6.81,9.09,1.18-.03,1.13-2.89,1.66-3.16,1.76-.91,5.53,1.53,5.52-4.87,2.43-1.15,2.34,8.53,5.95,3.98.63-.8-3.36-19.18-4-19.97ZM519.79,1200.98v-7.97h-1.96v7.97h1.96ZM609.73,1200.98c2.27-2.32-.86-6.43-3.98-.98-.25,1.74,3.83,1.12,3.98.98ZM611.73,1205h-3.98v5.97h3.98v-5.97ZM563.76,1207c-4.34.49-9.45,1.27-7.97,5.97h7.98s0-5.97,0-5.97Z"/>
          <path class="cls-1" d="M775.6,1149.06c4.63,16.05-.07,11-8.41,16.13-1.78,1.09-1.75,3.18-4.1,4.38-4.23,2.16-10.68,5.03-15.44,5.45-1.79-6.61,5.08-2.96,5.96-4.01,1.6-1.92-2.74-11.27-1.97-11.94.4-.35,3.1.58,4.27-.21,6.52-4.37,4-1.95,10.23-3.87,1.8-.55,4.3-7.75,9.46-5.93Z"/>
          <path class="cls-1" d="M813.58,1135.1c-.16,3.19-10.61,7.03-11.98,5.95,1.96-5.11,6.69-6.78,11.98-5.95Z"/>
          <path class="cls-2" d="M367.69,749.8c6.85,4.26,19.59,77.56,18.26,88.72-3.29,27.66-34.93,31.54-42.48,8.39-9.23-28.31,8.73-61.7,17.04-87.79,1.35-4.24.39-13.55,7.18-9.33ZM365.94,787.54c-.38,5.57-4.17,10.41-5.44,15.56-1.76,7.14-6.85,42.45,4.42,42.46s6.35-42.65,5-51.04c-.48-2.97-.11-6.16-3.99-6.97Z"/>
          <path class="cls-2" d="M293.97,912.37c.39-1.58,3.34-4.08,5.03-1.03,2.47,4.45,5.34,25.04,7.53,32.42,2.96,9.98,13.86,52.08,28.18,47.36,9.81-3.23-4.92-37.79-6.28-45.27-.64-3.5-.63-6.99-.46-10.51,13.23,15.04,31.78,40.75,22.42,61.39-7.12,15.72-26.39,12.58-36.47,1.56-7.33-8.01-19.95-41.6-19.95-51.97,0-8.35-1.6-27.42,0-33.96Z"/>
          <path class="cls-2" d="M196.04,719.62c3.33.87,5.01,8.13,5.89,11.09,1.98,6.67,4.15,16.93,4.25,23.82.52,39.57-44.57,44.78-42.19-4.05.72-14.7,12.4-47.04,20.83-59.07,1.63-2.33,2.72-6.07,6.21-5.78,5.47,18.41-26.05,69.24-12,83.94,8.03,8.4,17.02-13.27,17.02-19v-30.96Z"/>
          <path class="cls-2" d="M429.86,1115.1c3.62-13.17-7.07-24.85-5.96-37.94,14.32,5.93,27.34,34.29,16.01,46.98-8.26,9.26-16.98,1.6-26.87,4.66-6.6-14.23-16.84-28.74-21.45-44.35-2.51-8.49-8.82-30.3-.68-35.25,11.89,21.23,13.26,56.44,38.95,65.89Z"/>
          <path class="cls-2" d="M180.04,853.46c-2.3,27.06-9.61,52.8-3.11,80.01,1.67,7.01,6.56,16.76,15.09,15.86,3.56-13.13,1.63-26.66,1.01-39.94,10.43,12.22,25.61,51.32-.19,53.9-15.03,1.5-25.07-20.75-26.56-33.16-2.54-21.24-.16-46.78,7.79-66.68-14.45.29-1.23-11.12,5.97-9.99Z"/>
          <path class="cls-2" d="M328.08,709.51c10.72,7.47,14.67-19.05,17.89-21.83,4.33-3.73,5.65,9.32,5.58,11-1.45,34.98-42.59,37.7-37.42-3.86,1.97-15.82,12.69-31.25,13.84-47.1,6.25,3.51,4.34,16.68,3.95,22.94-.41,6.57-7.71,36.15-3.84,38.85Z"/>
          <path class="cls-2" d="M561.77,1173.02l-3.96-15.94,6.01-.04c-4.33-11.93,8.83,5.85,10.41,10.53,9.91,29.23-26.29,17.28-39.42,5.46-2.83-2.55-21.31-23.62-18.98-25.95,17.59,3.8,27.46,24.22,45.95,25.95Z"/>
          <path class="cls-2" d="M202.05,1009.23c-.64-.6,1.4-3.49,1.09-5-.47-2.31-2.66-3.04-3.1-3.99-.18-.4,6.84-1.91,3.98-6.96-3.19-.75-.88,2.83-3.45,3.89-11.68,4.81-9.5.85-14.51-7.87,7.3,2.78,12.04-2.73,19.97,0l.03-8c3.34,2.19,15.46,5.6,17.11,7.94,3.15,4.43-4.07,15.83-8.12,18.22-1.24.73-12.52,2.24-13,1.79ZM216.03,991.29c-7.62-2.38-10.84,8.03-5.02,5.95,1.17-.42,4.58-4.24,5.02-5.95Z"/>
          <path class="cls-2" d="M595.74,1189c.64.8,4.63,19.17,4,19.97-3.61,4.55-3.52-5.13-5.95-3.98,0,6.4-3.77,3.95-5.52,4.87-.53.28-.48,3.13-1.66,3.16-5.77.17-12.78-3.23-6.81-9.09,3.01-2.96,7.43-.93,7.68-1.23.85-1,4.48-18.43,8.26-13.7Z"/>
          <path class="cls-2" d="M465.46,1151.53c.61.26,7.96,7.89,10.35,8.48-2.28,6.75-9.67,7.56-15.94,9.04-2.81-5.47-2.2-20.87,5.59-17.52Z"/>
          <path class="cls-2" d="M192.03,965.31c-.22,8.3-1.59,18.1-9.95,21.96-5.47-9.75,1.81-10.16,1.78-10.83-.33-8.47-6.86-8.83,8.17-11.13Z"/>
          <path class="cls-2" d="M219.77,937.61c.52.33,5.6,10.38,5.71,10.99.73,4.32-2.61,15.34-7.44,10.69-.85-.82,2.2-4.11,1.54-5.63-.11-.26-2.99-.14-3.42-1.8-1.37-5.3-4.63-19.53,3.62-14.25Z"/>
          <path class="cls-2" d="M443.85,1133.09c5.78,5.75-11.54,9.07-13,11.98-4.44-11.18-3.85,2.06-10.97,1.97-1.17-7.94,22.47-15.45,23.97-13.95Z"/>
          <path class="cls-2" d="M216.01,965.31c-1.2,8.85,12.59,10.55,12,19.96l-4-6c-9.36,5.97-3.97-3.62-8.99-5.97l-4.97,5.98c.66-7.36-5.57-15.01,5.96-13.97Z"/>
          <path class="cls-2" d="M389.77,1131.27c1.54,1.2-1.58,6.67,10.11,1.82l.03,5.98c-5.72.69-8.9-2.65-10.1,2.93-1.82,8.51-7.81-3.13-8.01-5.85-.04-.51,6.23-6.23,7.97-4.88Z"/>
          <path class="cls-2" d="M361.79,1041.34c.79.86-.22,5.79.14,7.84-.85.88-14.82-.73-15.99-2.01-3.47-3.83,7.01-3.52,1.98-7.94,2.39.56,13.39,1.6,13.87,2.12Z"/>
          <path class="cls-2" d="M151.35,777.71c4.36-.75,10.05,7.36,2.71,10.82-12.86,6.07-10.77-9.44-2.71-10.82Z"/>
          <path class="cls-2" d="M687.67,1189c-1.58,1.65-9.44-.25-10.75.07-2.38.59.15,4.77-3.21,3.92-3.83-21.21,18.29-8.52,13.96-4Z"/>
          <path class="cls-2" d="M181.69,840.98c-5.31,3.21-7.46-2.6-7.64-7.5,5.69,2.98,12.25-5.93,13-5.96,7.9-.41-4.24,12.79-5.36,13.46Z"/>
          <path class="cls-2" d="M283.96,621.74c2.66,9.53-8.1,4.26-8.01,11.98h-1.94c1.59-4.76-11.13-4.2-6.02-9.97.77-.87,4.17,2.26,5.67,1.54.4-.19,0-3.25,1.51-3.49,1.84-.29,5.74,2.49,8.79-.06Z"/>
          <path class="cls-2" d="M222.01,865.44c1.92,1.85-2.94,16.89-9.97,13.96-2.42-4.97,5.29-18.48,9.97-13.96Z"/>
          <path class="cls-2" d="M273.45,737.2c-.3.84-7.42,6.31-9.45,4.4.37-2.47-.62-11.4,0-12,1.71-1.66,12.22-.31,9.45,7.6Z"/>
          <path class="cls-2" d="M273.98,607.78c1.34,1.27-6.13,16.99-9.97,13.96-6.39-5.05,6.04-17.68,9.97-13.96Z"/>
          <path class="cls-2" d="M236.01,1007.25c.31-.24-.27-2.88.02-4l3.97,3.01c.19,2.08-3.6.49-3.99.99-3.18,4.11,5.66,7.65,6,11.96l-14-5.03c-.13-8.75,6.95-6.13,8-6.94Z"/>
          <path class="cls-2" d="M671.71,1187.04c.27.35-1.88,8.54-3.99,7.95-.58-8.72-11.38,1.74-12.02-11.95,2.36.58,15.5,3.34,16,4Z"/>
          <path class="cls-2" d="M252,803.52c.39.4-.23,4.36,0,5.98l-6.03.02,2.05,3.97-7.99-2.01c-3.52-7.51,9.88-10.1,11.98-7.95Z"/>
          <path class="cls-2" d="M627.72,1165.05c3.01,4.16-3.24,22.98-7.97,17.96-3.4-3.61,3.84-6.75,3.95-7.32.91-4.5-2.84-12.21,4.02-10.64Z"/>
          <rect class="cls-2" x="351.51" y="1050.58" width="8.03" height="12.05" transform="translate(-758.34 1102.52) rotate(-73.76)"/>
          <path class="cls-2" d="M154.05,823.49l2.01,11.97c-9.04,1.06-12.58-10.12-2.01-11.97Z"/>
          <path class="cls-2" d="M375.9,1045.2c1.37,1.26,4.06,16.33-3.97,13.97-1.82-2.95-1.66-19.17,3.97-13.97Z"/>
          <path class="cls-2" d="M459.84,1073.2c4.2,5.79-9.12,5.12-11.99,3.95-2.86-10.29,9.41-7.51,11.99-3.95Z"/>
          <path class="cls-2" d="M222.02,903.4l-7.99,9.95c5.04-8.9-3.89-4.35-3.99-11.96l11.98,2.01Z"/>
          <path class="cls-2" d="M533.79,1115.11c4.37,6.74-10.88,8.92-11.97,7.97-3.5-3.06,9.29-8.98,11.97-7.97Z"/>
          <path class="cls-2" d="M515.8,1137.06c-2.29,3.42-17.47,3.27-6.96-5.95,3.58-1.39,8.84,3.15,6.96,5.95Z"/>
          <path class="cls-2" d="M321.94,1055.17c-1.66,1.67-11.96-.62-9.97-5.97,6.07-4.9,13.5,2.42,9.97,5.97Z"/>
          <path class="cls-2" d="M491.81,1135.09c4.19,4.6-5.96,9.37-9.97,7.97-4.19-6.39,9.41-8.59,9.97-7.97Z"/>
          <path class="cls-2" d="M431.86,1043.19c.38.47.89,9.72,2,11.98l-8-2.03c-.06-1.34,2.42-14.36,5.99-9.95Z"/>
          <path class="cls-2" d="M449.85,1043.19c-3.49,3.39-13.04-5.27-4.99-9.94,2.65,1.34,6.95,8.03,4.99,9.94Z"/>
          <path class="cls-2" d="M200.03,849.44c-4.15,4.14-12.14-3.76-7.97-7.97,3.2-3.23,11.21,4.74,7.97,7.97Z"/>
          <path class="cls-2" d="M311.95,1025.23c.73,5.27-.79,9.98-5.96,11.97-.3-5.34-1.06-12.44,5.96-11.97Z"/>
          <path class="cls-2" d="M369.91,1091.15c5.28,5.32-11.82,13.61-7.97,3,.96-2.65,6.8-4.18,7.97-3Z"/>
          <path class="cls-2" d="M160.06,891.41c3.64,3.63-4.69,10.58-7.98,5.96-4.08-5.73,5.93-8,7.98-5.96Z"/>
          <path class="cls-2" d="M224.01,901.37c-2.85,2.66-12.58-5.24-9.97-7.97,1.76-1.84,12.86,5.28,9.97,7.97Z"/>
          <path class="cls-2" d="M363.92,1019.25l-13.98,3.96c-1.66-7.41,9.75-2.86,13.98-3.96Z"/>
          <rect class="cls-2" x="695.68" y="1179.02" width="8" height="5.99"/>
          <rect class="cls-2" x="212.03" y="701.64" width="8" height="5.99"/>
          <path class="cls-2" d="M509.81,1191.02c1.47,1.52-1.38,6.04-4.99,6.03-.47,0-6.49-6.69-4.98-8.03.38-.34,9.62,1.64,9.98,2.01Z"/>
          <path class="cls-2" d="M228.03,1017.24l-.02,7.97c-6.57,1.49-2.79-3.71-4.16-5.75-.26-.39-4.55,2.1-5.81-1.24l9.99-.98Z"/>
          <polygon class="cls-2" points="513.79 1177.02 503.83 1174.04 513.79 1169.04 513.79 1177.02"/>
          <path class="cls-2" d="M333.93,895.4c1.03,4.53-4.44,11.23-7.97,7.97-1.84-1.7,4.27-9.34,7.97-7.97Z"/>
          <path class="cls-2" d="M285.97,943.32c-3.17,2.85-10.97-3.88-7.96-7.98.44-.6,10.89,5.35,7.96,7.98Z"/>
          <rect class="cls-2" x="215.02" y="914.35" width="4.01" height="10.02" transform="translate(-702.58 1135.34) rotate(-89.93)"/>
          <path class="cls-2" d="M371.93,965.29c-1.5-1.5-.93-8.08,4.97-5.96,6.89,2.48-2.34,8.6-4.97,5.96Z"/>
          <path class="cls-2" d="M695.67,1171.04c0,7.85-7.93,7.95-7.97,0h7.97Z"/>
          <path class="cls-2" d="M279.97,965.31c-.49,4.34-1.27,9.44-5.98,7.97v-7.97s5.98,0,5.98,0Z"/>
          <path class="cls-2" d="M240,993.25c-1.51,1.5-8.09.93-5.97-4.96,2.48-6.88,8.6,2.34,5.97,4.96Z"/>
          <path class="cls-2" d="M563.76,1207v5.97s-7.97,0-7.97,0c-1.48-4.7,3.63-5.48,7.97-5.97Z"/>
          <path class="cls-2" d="M365.91,1075.17l2.01,5.96h-7.98c-.65-3.63,2.2-6.6,5.97-5.96Z"/>
          <rect class="cls-2" x="269.99" y="847.45" width="6" height="5.99" transform="translate(-3.04 .98) rotate(-.2)"/>
          <rect class="cls-2" x="529.8" y="1185.01" width="6" height="5.99" transform="translate(-4.24 1.91) rotate(-.2)"/>
          <path class="cls-2" d="M709.66,1167.05c3.48,3.4-6.91,7.01-7.97,5.97-3.48-3.4,6.91-7.01,7.97-5.97Z"/>
          <path class="cls-2" d="M224.01,833.5c5.45,6.69-12.76,2.65-7.97-2.02.39-.38,7.71,1.7,7.97,2.02Z"/>
          <rect class="cls-2" x="579.75" y="1187.01" width="8.01" height="4" transform="translate(-606.57 1770.08) rotate(-89.87)"/>
          <rect class="cls-2" x="359.91" y="1105.11" width="8.01" height="4" transform="translate(-744.02 1468.53) rotate(-89.87)"/>
          <rect class="cls-2" x="399.89" y="1013.22" width="4" height="8.02" transform="translate(-616.25 1416.82) rotate(-89.87)"/>
          <path class="cls-2" d="M307.95,1045.19c-1.31,1.32-7.98-.55-7.98-3.96l7.97-2.02c-.19,1.61.41,5.58,0,5.98Z"/>
          <path class="cls-2" d="M228.01,789.54c2.14,1.91-4.09,8.11-5.98,5.97-3.02-3.42,2.61-8.97,5.98-5.97Z"/>
          <path class="cls-2" d="M527.79,1137.09c2.09,1.94-3.76,9.12-5.97,2.96-1.51-4.22,5.23-3.64,5.97-2.96Z"/>
          <path class="cls-2" d="M579.75,1145.08v3.97s-7.98,0-7.98,0c1.07-3.97,4.26-4.48,7.98-3.96Z"/>
          <rect class="cls-2" x="164.08" y="819.5" width="5.98" height="3.97"/>
          <rect class="cls-2" x="275.99" y="859.45" width="5.98" height="3.97"/>
          <rect class="cls-2" x="377.92" y="1113.12" width="3.98" height="5.97"/>
          <rect class="cls-2" x="234.03" y="663.7" width="3.98" height="5.97"/>
          <path class="cls-2" d="M162.06,853.46v3.98s-7.97,0-7.97,0c-2.42-1.09,6.87-5.05,7.97-3.97Z"/>
          <rect class="cls-2" x="607.75" y="1205" width="3.98" height="5.97"/>
          <rect class="cls-2" x="629.74" y="1179.03" width="3.98" height="5.97"/>
          <path class="cls-2" d="M505.81,1181.03c.61,2.76-1.08,5.31-3.97,5.98v-5.98s3.97,0,3.97,0Z"/>
          <path class="cls-2" d="M246,1007.26l-.98,5.97c-2.12-1.82-3.65-3.03-3-5.97h3.98Z"/>
          <path class="cls-2" d="M158.06,881.4h-3.98c-.65-2.94.88-4.15,3-5.97l.98,5.97Z"/>
          <path class="cls-2" d="M355.92,1107.13v3.97s-5.98,0-5.98,0c.67-2.89,3.23-4.58,5.98-3.96Z"/>
          <path class="cls-2" d="M371.9,1117.09h-3.98s0-5.98,0-5.98c2.89.67,4.58,3.23,3.97,5.98Z"/>
          <circle class="cls-2" cx="391.94" cy="1151.02" r="2.47"/>
          <circle class="cls-2" cx="473.88" cy="1047.15" r="2.47"/>
          <path class="cls-2" d="M519.81,1179.04c.97.76-3.49,5.29-5.99,3.96-.97-.76,3.49-5.29,5.99-3.96Z"/>
          <circle class="cls-2" cx="343.98" cy="1087.1" r="2.47"/>
          <path class="cls-2" d="M721.68,1185.01c-1.33-2.5,3.2-6.96,3.96-5.99,1.33,2.5-3.2,6.96-3.96,5.99Z"/>
          <rect class="cls-2" x="517.83" y="1193.01" width="1.96" height="7.97"/>
          <path class="cls-2" d="M609.73,1200.98c-.14.15-4.23.76-3.98-.98,3.12-5.45,6.25-1.34,3.98.98Z"/>
          <path class="cls-1" d="M365.94,787.54c3.88.81,3.51,4,3.99,6.97,1.35,8.4,6.56,51.06-5,51.04s-6.18-35.32-4.42-42.46c1.27-5.15,5.06-9.99,5.44-15.56Z"/>
          <path class="cls-1" d="M216.03,991.29c-.44,1.71-3.86,5.54-5.02,5.95-5.82,2.08-2.59-8.34,5.02-5.95Z"/>
        </g>
      </g>
    </g>
  </g>
</svg>