<svg xmlns="http://www.w3.org/2000/svg" width="936.133" height="70.092" viewBox="0 0 936.133 70.092"><g transform="translate(2 2)"><g transform="translate(932.133 66.092) rotate(180)"><path d="M905.465,63.93c-19.944,0-19.944.157-39.887.157s-19.942,1.6-39.884,1.6-19.942-.111-39.883-.111S765.87,64.5,745.928,64.5s-19.942.616-39.884.616-19.943-1.558-39.885-1.558-19.945,2.31-39.89,2.31S606.327,63.5,586.384,63.5,566.44,66.088,546.5,66.088s-19.943-2.98-39.887-2.98-19.943.215-39.887.215-19.944.346-39.887.346-19.945.907-39.891.907S367,66.092,347.052,66.092s-19.943-.468-39.885-.468-19.943-1.88-39.886-1.88S247.336,65.8,227.391,65.8s-19.947-.506-39.892-.506-19.946.282-39.893.282-19.947.294-39.892.294-19.949-2.7-39.9-2.7-19.949,2.268-39.9,2.268c-14.662,0-26.106-11.057-26.106-23.657C1.813,32.938,0,32.938,0,24.1,0,11.5,13.257.675,27.919.675,47.863.675,47.863.1,67.806.1S87.748.535,107.69.535s19.942-.1,39.883-.1,19.942,1.337,39.883,1.337,19.943.12,39.885.12S247.282.306,267.224.306s19.945,2.385,39.89,2.385S327.057,2.21,347,2.21,366.944,0,386.888,0s19.943.343,39.886.343,19.944,1.6,39.888,1.6S486.606.826,506.55.826s19.945.387,39.891.387S566.386.23,586.331.23s19.943.885,39.885.885,19.943.626,39.886.626,19.945.286,39.891.286,19.947-1.8,39.892-1.8,19.947.752,39.893.752,19.947.407,39.892.407S845.618.024,865.567.024s19.949,2.566,39.9,2.566c14.662,0,26.668,8.91,26.668,21.511,0,8.837-1.091,8.837-1.091,17.675C931.041,54.376,920.127,63.93,905.465,63.93Z" transform="translate(0)" fill="none" stroke="#000" stroke-width="4"/></g></g></svg>