<?xml version="1.0" encoding="UTF-8"?>
<svg id="b" data-name="Layer 2" xmlns="http://www.w3.org/2000/svg" width="521.535" height="826.419" viewBox="0 0 521.535 826.419">
  <g id="c" data-name="Layer 1">
    <path d="m165.201,814.217c-10.426-3.266-21.439,9.19-44.797-.706-13.485-5.713-28.175-8.164-42.7-6.295-21.404,2.754-38.043,9.078-49.713.599-12.213-8.874-19.324-23.118-19.334-38.214-.037-50.897-14.335-138.623,3.62-187.661l2.169-7.922c6.132-33.503-1.441-64.319-6.002-96.712-1.116-7.926-.371-16.005,2.218-23.579,2.847-8.327,5.735-17.415,1.926-22.716-6.094-8.482-10.036-18.302-10.306-28.743-.403-15.564.141-33.024-1.364-43.725-2.695-25.475.659-34.848,8.65-49.572,5.624-10.361,7.552-22.355,5.27-33.922C1.528,207.563,13.68,138.96,4.803,72.835l.513-16.905C19.043-11.187,43.993,25.919,85.444.894c2.491-3.088,298.309,1.926,363.892,13.41,3.789.664,7.446,1.849,11.025,3.261,1.984.783,5.792,1.502,10.379,2.14,21.368,2.971,38.446,19.254,42.643,40.415,4.838,24.395,9.58,55.974,7.751,79.523-.525,6.762-2.405,13.341-5.523,19.364-4.427,8.552-9.921,18.786-5.84,24.757,3.59,5.253,6.19,11.128,7.616,17.328,9.039,39.308-15.231,34.377-6.547,81.528.808,4.385,1.005,8.86.648,13.305-3.949,49.212,19.071,52.1,1.17,102.298l-1.865,4.536c-19.063,42.128,4.666,92.547-2.606,135.899-9.483,48.986-4.321,119.447-3.073,173.459,1.082,46.822,1.842,79.009-44.642,102.067-33.768,18.409-76.033,12.453-113.538,5.27-8.924-1.709-17.997-2.522-27.082-2.376l-117.155,1.89c-12.661.204-25.413-.968-37.496-4.753Z" fill="#0e1011"/>
  </g>
</svg>