<?xml version="1.0" encoding="UTF-8"?>
<svg id="b" data-name="Layer 2" xmlns="http://www.w3.org/2000/svg" width="522.632" height="831.814" viewBox="0 0 522.632 831.814">
  <g id="c" data-name="Layer 1">
    <path d="m462.246,816.217c-3.255.913-5.493,4.801-8.871,4.698-84.212-2.569-168.785,19.16-195.061,2.644-.641-.403-36.972,10.725-57.499-3.602-.373-.26-21.541-10.178-32.041-6.172-.839.32-1.638.736-2.436,1.148-20.799,10.725-32.933-6.99-52.118-3.247-1.243.242-2.461.607-3.649,1.047-41.076,15.214-80.692,40.354-104.216-15.092-.517-1.218-.914-2.486-1.224-3.772-6.37-26.45-3.487-30.934,3.067-56.052.335-1.284.576-2.596.705-3.916,6.802-69.824-8.626-142.266,4.438-211.822.698-3.716-5.61-59.036-3.589-88.436.233-3.384-.239-6.777-1.38-9.972-6.469-18.115-9.515-43.257-7.984-61.805.156-1.887.55-3.739,1.117-5.545,14.241-45.371,5.547-88.555,12.32-133.849.313-2.095-14.483-78.79-1.393-113.679,1.225-3.266,1.816-6.729,1.664-10.214C12.313,57.698-3.679,5.266,54.284,1.999c1.599-.09,3.191-.349,4.741-.753,30.138-7.867,55.126,24.608,83.583,11.678,2.821-1.282,165.93-5.082,245.308,6.92.945.143,1.899.248,2.855.262,25.887.383,28.35-24.189,61.531-3.215,15.547,9.267,34.582-3.562,48.947,10.112,20.373,18.38,5.177,32.521,8.6,52.17.211,1.209.544,2.396.934,3.559,14.199,42.322-7.386,89.277,5.007,132.322.994,3.453,1.145,7.09.569,10.637-6.512,40.122-10.309,86.711-.841,126.18.76,3.17.906,6.455.384,9.673-11.433,70.566,10.726,147.409-3.763,216.866-.218,1.045-.382,35.631-.459,36.695-5.546,76.469,51.095,172.924-49.435,201.112Z" fill="#0e1011"/>
  </g>
</svg>