<?xml version="1.0" encoding="UTF-8"?>
<svg id="b" data-name="Layer 2" xmlns="http://www.w3.org/2000/svg" width="516.27" height="831.909" viewBox="0 0 516.27 831.909">
  <g id="c" data-name="Layer 1">
    <path d="m54.612,17.014c2.885-.862,5.602-2.244,7.914-4.174,34.726-28.989,80.631.428,120.566-1.399,24.198.463,52.921-17,75.023-2.123,1.006.677,2.027,1.341,3.128,1.851,18.136,8.388,37.878-11.929,55.174,2.375,8.463,6.913,19.771,9.63,30.125,6.251,1.322-.431,2.592-1.025,3.792-1.727,17.599-10.297,35.149,7.252,53.155,3.128,1.072-.245,2.169-.366,3.266-.435,20.882-1.325,30.956-2.166,52.617,3.172.425.105.865.195,1.296.272,81.032,14.597,33.867,224.627,42.275,300.447.264,2.384.993,4.683,2.019,6.85,11.925,25.177.832,44.552,1.317,68.31.061,2.996.74,5.949,1.943,8.694,23.125,52.793-11.966,110.642-1.898,164.391.545,2.911.54,5.896-.036,8.801-9.721,49.048,14.675,95.104-2.26,142.877-1.038,2.928-1.516,6.033-1.335,9.134,3.59,61.571,18.29,99.422-63.31,98.168-3.087-.047-6.13-.756-8.955-2.004-63.14-27.881-83.364,7.22-145.906-8.298-2.881-.715-5.875-.904-8.812-.471-47.661,7.018-97.749-1.481-146.209-7.788-1.607-.209-3.23-.274-4.842-.115-20.316,2.001-38.721,20.164-58.332,4.661-2.602-2.057-5.578-3.628-8.807-4.388-13.661-3.217-29.635,3.778-41.289-6.62-.55-.491-1.112-.972-1.691-1.43-16.069-12.718-6.594-31.604-7.516-48.534-.145-2.664-.797-5.275-1.855-7.724-13.003-30.107,2.827-65.494,1.206-96.607-.116-2.221-.593-4.409-1.37-6.492-11.764-31.542,1.967-70.592,2.309-102.833.607-35.933-12.434-75.514-2.782-111.115.175-.646.329-1.29.445-1.95,10.178-57.709,2.769-219.778-.656-307.648C1.236,43.371-.33,33.437,54.612,17.014Z" fill="#0e1011"/>
  </g>
</svg>