<svg xmlns="http://www.w3.org/2000/svg" width="1923" height="505.855" viewBox="0 0 1923 505.855">
  <g id="footer-bg" transform="translate(1.5 1.5)">
    <path id="Path_714" data-name="Path 714" d="M1920,7793.856v-496.4c-34.839-.941-42.149-3.977-89.339-3.977-55.836,0-55.836,17.211-111.672,17.211s-55.833-15.761-111.666-15.761S1551.491,7291,1495.659,7291s-55.832,12.708-111.665,12.708-55.832,7.6-111.664,7.6-55.832,2.9-111.665,2.9-55.83,1.81-111.66,1.81-55.832-24.986-111.664-24.986-55.832,21.688-111.664,21.688-55.832-19.844-111.664-19.844-55.833,19.368-111.665,19.368-55.832-13.063-111.664-13.063-55.832,5.159-111.663,5.159-55.831-9.023-111.662-9.023-55.832-.937-111.664-.937S99.864,7307.81,44.034,7307.81c-20.245,0-33.147.177-44.034.394v485.653Z" transform="translate(0 -7291.001)" fill="#0e1011"/>
    <path id="Path_3993" data-name="Path 3993" d="M1920,7793.856v-496.4c-34.839-.941-42.149-3.977-89.339-3.977-55.836,0-55.836,17.211-111.672,17.211s-55.833-15.761-111.666-15.761S1551.491,7291,1495.659,7291s-55.832,12.708-111.665,12.708-55.832,7.6-111.664,7.6-55.832,2.9-111.665,2.9-55.83,1.81-111.66,1.81-55.832-24.986-111.664-24.986-55.832,21.688-111.664,21.688-55.832-19.844-111.664-19.844-55.833,19.368-111.665,19.368-55.832-13.063-111.664-13.063-55.832,5.159-111.663,5.159-55.831-9.023-111.662-9.023-55.832-.937-111.664-.937S99.864,7307.81,44.034,7307.81c-20.245,0-33.147.177-44.034.394v485.653Z" transform="translate(0 -7291.001)" fill="#0e1011" stroke="#fbf2e1" stroke-width="3"/>
  </g>
</svg>
