<?xml version="1.0" encoding="UTF-8"?>
<svg id="b" data-name="Layer 2" xmlns="http://www.w3.org/2000/svg" width="521.523" height="832.239" viewBox="0 0 521.523 832.239">
  <g id="c" data-name="Layer 1">
    <path d="m64.773,15.923c35.059-33.523,82.517-2.269,123.643-4.151,24.638.471,53.967-17.641,76.222-1.279,18.657,10.883,39.192-11.431,57.102,3.382,9.178,7.497,21.703,10.059,32.728,5.263,18.386-12.093,36.705,7.415,55.535,2.085,22.527-1.408,41.628-26.063,64.449-20.371,49.12,8.617,51.158,65.239,37.91,103.397-1.011,33.317-1.339,77.015-.249,110.248,13.567,36.646-8.853,77.464-3.374,114.318,15.352,28.49.593,49.327,3.156,76.467,13.378,30.861,11.261,71.202,3.078,103.165-5.941,19.579-7.896,49.366-2.393,69.18,2.003,13.114-7.505,34.579-4.861,47.666,2.643,13.891,8.025,42.595,10.022,56.611,2.927,14.525-10.188,32.906-9.984,47.204,3.06,65.686,21.376,105.879-67.872,102.987-66.982-29.626-36.694-4.236-98.671-8.771-17.257,1.513-39.182,4.55-55.79-2.575-15.421-4.664-31.245,9.342-46.669,5.523-16.12-5.372-39.995-4.748-56.625-5.546-12.464-3.188-36.853-6.104-49.473-7.352-22.065.528-41.756,22.329-62.965,3.166-15.148-9.067-35.25,3.322-48.947-10.108-19.022-13.991-5.22-35.896-9.041-54.311-15.753-31.874,3.045-70.111-.294-103.01-13.648-31.993.875-72.371,1.227-105.541.628-18.293-2.802-49.179-7.39-66.811-2.684-10.852,5.253-34.302,4.872-45.274-.37-47.936-5.277-102.834-6.207-150.446,6.896-19.137,7.692-49.36,4.326-69.279C5.261,144.368-28.085,34.226,64.773,15.923Z" fill="#0e1011"/>
  </g>
</svg>