<?xml version="1.0" encoding="UTF-8"?>
<svg id="Layer_2" data-name="Layer 2" xmlns="http://www.w3.org/2000/svg" viewBox="0 0 2750.07 1430.27">
  <defs>
    <style>
      .cls-1 {
        fill: #0a0807;
      }

      .cls-2 {
        fill: #f75e29;
      }
    </style>
  </defs>
  <g id="a">
    <g>
      <path class="cls-2" d="M1956.58,1430.27c16.58-93.52,117.09-131.6,153.6-215.01,6.59-15.06,6.06-21.72,6.35-37.76.09-4.74-4.13-21.47,7.91-15.93,4.58,2.11,20.86,31.99,23.52,38.47,8.99,21.93,14.35,51.28,12.47,74.41,3.59,3.99,21.33-21.24,22.86-24.07,16.42-30.4,12.96-86.23,11.09-120.7-.47-8.67-3.59-19.1-4.06-27.9-2.86-54.2,10.37-96.53,47.99-135.96,2.59-2.72,22.59-21.21,24.08-21.87,3.26-1.45,6.54-1.21,9.95-1.05,2.1,11.94-7.18,23.25-7.26,34.6-.24,35.56,33.94,76.75,50.27,107.17,7.36,13.71,25.46,60.58,34.25,67.64,15.88,12.76,30.46-7.89,32.49-22.83,7.27-53.44-35.8-101.08-50.36-151.06-23.11-79.35,10.21-106.14,42.88-170,18.34-35.85,25.11-69.05,15.64-109.2,21.67-4.22,37.63,27.53,44.34,44.58,24.08,61.21-19.22,121.41.08,179.68,8.5,25.66,41.2,54.34,69.62,50.5,2.54-1.76,1.97-5.14,1.77-7.84-.87-11.48-7.02-24.65-7.97-38.13-4.04-57.27,13.39-92.13,44.02-137.95,36.08-53.98,112.23-114.64,105.71-185.48-.69-7.53-9.15-28.28-5.96-32.29,7.2-9.05,17.53,6.52,21.86,12.42,27.36,37.39,35.57,73.24,32.41,119.58-2.13,31.23-20.31,79.85,6.82,104.87,12.23,11.27,31.54,12.42,47.05,9.89l.07,280.71-4.09,24.89c-2.92.35-3.58-5.21-3.8-7.15-3.49-30.8-4.14-52.68-18.41-81.48-3.09-6.23-34.51-50.98-41.71-43.18-1.71,54.99-12.5,105.51-38.94,153.83-17.75,32.44-44.63,59.52-45.02,99.82-3.55.78-3.95-1.04-5.67-3.3-4.18-5.5-8.56-18.7-13.48-26.47-13.14-20.73-42.84-48.38-62.94-62.93-4.65-3.36-22.64-16.36-27.63-12.97-1.9,1.3-3.65,32.04-4.72,38.23-8.34,48.06-37.42,107.38-78.76,135.01-8.16,5.45-79.4,39.52-82.57,36.3,4-18.87,6.22-32.15.07-51-1.72-5.28-19.81-38.97-22.47-40.44-9.81-5.41-6.95,5.46-8.47,11.67-3.57,14.69-28.43,54.23-39.15,66.73-23.08,26.92-57.9,46.42-80.72,75.13-3.71,4.67-8.91,11.59-9.16,17.81h-75.94c-.11-5.68-3.53-11.21-10-6.97l4.01,6.97h-123.91Z"/>
      <path class="cls-2" d="M213.84,1430.27c-13.02-29.61-8.16-53.91,1.95-82.94,18.09-51.97,43.9-98.35,16.12-153.82-1.12-2.23-9.37-16.04-10.09-9.91-.08,7.58.18,18.31-2.16,25.41-1.56,4.76-3.14,10.35-4.79,15.54-9.49,29.74-35.33,55.57-60.49,71.93-16.24,10.57-50.22,1.4-62.49-12.99-38.13-44.76,6.1-131.28,35.17-170.64,50.8-68.79,108.41-131.88,102.84-224.96-.8-13.43-5.84-27.03-4.07-40.87,2.8-.35,5.35.17,8.04.95,8.84,2.56,51.79,38.42,58.93,46.97,11.26,13.5,19.21,30.82,22.98,47.95,15.56-6.66,24.09-24.74,25.71-41.18,4.04-40.82-19.25-45.51-28.73-76.66-8.2-26.95-5.97-62.14,6.19-87.69,4.48-9.41,23.31-35.74,33.75-36.21,6.65-.3,1.11,14.41.94,18.96-2.96,81.12,27.06,88.12,57.46,150.46,35.04,71.86,23.08,141.13-15.03,207.54-10.53,18.35-28.52,35.21-30.43,57.47-1.51,17.64-1.97,37.54,7.58,52.43,1.25,1.95-.2,3.57,4.45,2.56,16.88-43.62,42.78-90.14,84.63-114.18,7.84-4.51,57.19-28.68,62.8-29.29,2.57-.28,5.73.07,6.48,2.69,1.69,5.93-19.29,19.38-24.01,23.91-34.95,33.6-51.86,68.16-48.02,117.96,4.86,63.02,74.11,112.56,80.01,175.7,1.98,21.23-.52,42.52-5.98,62.9h-27.98c1.55-11.76-5.61-11.47-4,0h-43.97c1.23-4.07-3.18-3.37-3.95-5.51-1.34-3.72,2.42-6.99-3.06-6.51-3.35.29-6.42,3.77-10.06,3.99-6.07.36-23.31-6.15-22.9,8.04h-21.98c3.2-16.77-1.85-37.74-6.57-54.36-1.82-6.42-17.62-48.84-20.44-49.5s-5.44,3.2-6.44,5.51c-5.83,13.38-5.99,35.26-12.73,51.19-2.96,7-14.33,27.13-18.91,33.04-4.2,5.42-11.32,8.1-12.85,14.12h-2c1.83-6.45-10.17-5.94-7.99,0h-27.98c-.19-3.5-2.55-6.83-5.98-7.99l-.02,7.99h-59.96ZM319.78,1206.55c3.33,3.05,13.66-6.07,6.95-9.97-4.39-.82-8.81,8.27-6.95,9.97ZM412.21,1420.24c0-1.36-1.11-2.47-2.47-2.47s-2.47,1.1-2.47,2.47,1.11,2.47,2.47,2.47,2.47-1.1,2.47-2.47Z"/>
      <path class="cls-2" d="M561.59,1430.27c12.28-25.79,22.39-56.1,24.07-84.81.79-13.46-2.37-25.78-2.22-38.06.62-50.93,34.97-105.12,73.15-136.74,10.26-8.5,43.25-29.32,55.85-28.05,3.09.31,9.42,5.66,8.87,8.72-.32,1.77-16.96,23-20.2,29.87-19.7,41.79-12.18,89.07,14.75,125.85l15.59,21.34c-3.77-27.86-3.65-55.22,7.63-81.27,2.18-5.04,15.49-31.4,22.36-24.58,1.31,1.3-2.61,29.64-1.96,36.92,3.62,40.01,51.24,77.77,70.26,113.54,9.54,17.95,17.14,36.61,17.64,57.27h-285.79Z"/>
      <path class="cls-2" d="M0,1146.64v-31.96c6.35,1.55,5.95-7.75,0-5.99v-49.93c4.25,1.16,4.43-2.66,5.99-5.97l-5.99-.02v-367.52c14.65-17.94,26.43-35.31,43.94-50.96,6.13-5.48,25.78-25.84,31.09-14.9,1.64,3.37-9.69,40.86-10.87,49.09-13.36,92.64,72.23,165.37,67.84,255.56-3.63,74.7-42.23,115.87-85.95,169.77-14.29,17.62-26.16,40.8-46.05,52.85ZM38.48,1008.78c0-1.36-1.11-2.47-2.47-2.47s-2.47,1.1-2.47,2.47,1.11,2.47,2.47,2.47,2.47-1.1,2.47-2.47ZM13.99,1048.76v5.99h8v-5.99h-8ZM10,1082.71l-.02,5.99,6,.02.02-5.99-6-.02Z"/>
      <path class="cls-2" d="M2088.48,873c5.1,5.17-17.12,20.81-21.04,25.91-18.51,24.14-11.28,69.84-36.91,92.94,6.42,1.29,20.92-3.91,26.68-7.29,8.72-5.12,13.36-16.97,20.24-21.72,7.49-5.16,7.13,3.1,6.16,8.11-10.37,53.54-44.56,68.8-93.03,80.84-25.47,6.33-51.28,5.56-72.97,22.95-4.06,3.25-16.65,19.96-17.99,19.94-7.61-.12-1.97-21.65-.45-26.38,21.77-67.44,81.71-65.67,111.71-116.06,10.07-16.92,17.81-42.49,31.56-56.34,5.54-5.58,39.9-29.11,46.04-22.89Z"/>
      <path class="cls-2" d="M687,265.25c-6.35,7.67-18.02-12.05-24.83-17.1-25.98-19.28-53.55-20.48-73.44-52.44-21.68-34.84-5.71-63.29-14.16-97.7-1.31-5.33-8.29-11.47-3.97-18,38.68,17.53,22.55,81.58,68.92,91.89.54-9.53-.73-19.43.03-28.93,2-24.84,9.58-39.07.96-64.92-3.22-9.66-12.49-17.38-10.97-27.97,5.84-5.86,25.11,15.34,29,19.95,8.33,9.86,18.67,25.43,22.05,37.89,7.53,27.79-6.74,50.73-5.16,79.07.91,16.27,20.37,67.66,11.57,78.28Z"/>
      <path class="cls-2" d="M2170.29,463.63c2.32,1.45.57,35.16-.08,40.63-1.2,10.16-7.94,25.8-13.39,34.55-5.27,8.46-13.73,13.41-16.37,22.58,16.84,2.07,33.31-8.77,43.91-21.01,5.73-6.61,13.18-23.25,17.93-27.6,6.9-6.3,7.68,7.57,7.69,13.67.15,46.39-25.88,72.09-66.19,89.24-23.91,10.17-35.05,8.14-54.35,29.57-5.15,5.72-15.33,26.18-22.7,21.71-5.77-3.49-6.81-33.57-6.22-40.63,6.14-72.59,79.67-82.27,102.48-153.28,1.28-4,.52-13.66,7.27-9.45Z"/>
      <path class="cls-2" d="M592.27,1157.32c-13.19,15.48-33.95,33.83-30.68,55.24-13.63,3.14-18.59-13.16-21.09-23.87-16.82-72.01,55.1-109.67,57.07-180.91.21-7.75-8.06-43.62,9.15-31.06,7.24,5.29,25.78,65.72,26.8,77.07,4.71,52.33-10.7,67.7-41.24,103.53Z"/>
      <path class="cls-2" d="M1300.09.14c10.04-2.23-.58,22.11-1,26.97-3.8,44.23,35.15,74.44,38.01,117.76,1.26,19.03-7.1,62.66-23.94,74.08-16.48,11.17-11.02-10.7-12.27-19.9-2.82-20.81-24.78-41.05-34.17-59.72-16.72-33.25-15.1-61.12.03-94.59,3.8-8.4,25.75-42.9,33.35-44.59Z"/>
      <path class="cls-2" d="M929.29,1060.74c-6.69,4.47-11.65-14.9-15.08-19.84-24.13-34.66-72.92-18.48-95.16-68.68-11.13-25.12-5.88-62.22-23.57-80.31-3.13-3.2-20.31-12.84-12.06-17.99,4.82-3.01,29.27,7.89,34.66,11.38,25.65,16.6,21.6,39.46,37.3,60.59,3.61,4.86,20.57,23.51,24.99,26.96,25.44,19.89,47,20.56,52.43,61.44.65,4.93-.13,24.19-3.5,26.45Z"/>
      <path class="cls-2" d="M153.46,455.99c18.34,24.69,30.82,42.17,28.48,74.52-2.85,39.27-32.17,61.18-32.15,99.89,0,5.18,1.72,9.72,2.03,14.77-3.85.9-7.87,3.9-10.93.16-10.68-18.94-22.35-32.36-24.73-55.22-4.78-45.9,25.79-70.43,29.77-111.7.65-6.73-4.9-29.28,7.53-22.43Z"/>
      <path class="cls-2" d="M2572.4,623.03c-2.48-3.97,4.1-26.47,3.82-34.72-.88-25.93-12.02-49.07-7.62-77.37,2.89-18.6,26.17-60.74,39.78-74.09,1.98-1.94,2.68-4.51,6.68-3.27,7.3,2.25-.27,16.7-.82,21.11-7.19,57.19,20.67,101.1-17.27,154.52-2.91,4.1-19.51,21.93-24.58,13.82Z"/>
      <path class="cls-2" d="M451.67,1426.25l-7.98-.97c3.09-4.36,6.16-3.88,7.98.97Z"/>
      <g>
        <path class="cls-2" d="M1476.93,420.58c-4.25,38.6-50.08,64.37-71.21,94.62-11.66,16.69-9.26,27.95-16.38,43.55-2.06,4.53-19.64,27.12-24.32,22.61,3.71-18.48,6.01-42.13-3.53-59.36-4.78-8.63-4.23,3.06-6,6.89-14.54,31.44-54.52,40.35-72.76,75.1-12.11,23.08-12.57,39.57-9.66,65.25-4.92,5.03-16.06-13.83-17.73-17.22-8.09-16.44-11.77-43.24-10-61.43,5.35-54.93,48.59-81.84,73.76-126.02,16.26-28.54,28.7-72.22,18.57-104.56-3.45-11.02-21.4-31.96,9.87-23.84,24.13,6.27,57.22,55.88,57.46,81.4,10.45-12.62,20.11-36.29,20.15-52.93.21-83.68-64.55-138.55-37.14-230.68,5.81-19.54,30.44-62.16,48.22-71.64s7.27,15.44,6.74,22.71c-6.09,84.55,31.34,86.58,74.95,140.77,19.17,23.83,30.45,65.77,32.96,95.9,2.99.45,4.71-.17,7.12-1.86,4.2-2.94,22.2-25.14,25.67-30.27,6.71-9.93,14.04-23.61,16.67-35.28,6.79-30.19-7.68-61.98-13.55-91.41-.18-1.71,1.9-4.71,3.1-4.97,4.53-.94,36.32,31.37,40.98,36.91,30.31,36.01,33.55,76.34,27.9,121.86-3.03,24.38-15.01,46.76-16.03,69.85-.7,15.68-2,27.34,17.72,21.69,16.05-4.59,36.63-26.15,41.86-42.04,2.13-6.48,2.16-36.15,9.42-34.49,4.97,1.13,17.67,46.29,18.5,53.43,15.08,128.93-96.45,124.72-163.42,185.2-5.42,4.89-17.88,25.95-18.1,6.05-.44-40.66,48.54-62.47,34.12-104.87-3.44-3.08-15.43,14.42-18.12,16.83-7.45,6.68-52.91,33.97-59.82,27.12,3.53-40.7,4.85-94.43-27.97-123.85-.73,9.31,1,19.84,0,28.96Z"/>
        <path class="cls-2" d="M1744.72,297.75c-6.63,6.4-23.45-19.68-26.31-24.63-20.83-36.11-19.6-78.22-9.07-117.6,1.63-6.09,12.07-41.72,21.37-35.53,1.71,1.14,7.49,34.39,8.94,40.02.64,2.47,2.07,9.57,5.05,9.89,14.24-30.31,40.22-54.99,47.51-89.35,1.02-4.8,1.47-27.49,2.48-28.49,5.2-5.16,12.14,6.96,14.03,10.95,22.18,46.74,26.84,101.46-7.21,142.7-23.28,28.2-61.61,50.02-56.8,92.05Z"/>
        <g>
          <path class="cls-1" d="M1546.88,801.09c-4.03-21.39-5.94-38.38-1.02-59.94,12.7-55.61,28.18-85.8,68.87-124.92,13.2-12.69,13.45-15.79,24.13-29.81,51.42-67.49,151.31-73.5,208.82-140.85,17.66-20.69,17.36-42.86,29.48-64.41,13.69-24.35,30.18-22.36,50.45-5.72,2.83-.03,26.37-41.99,29.66-48.04,6.13-11.27,29.21-53.64,30.81-63.09,5.13-30.39-15.73-56.77-14.76-87.07,2.09-64.98,97.87-98.22,132.76-37.9,3.46,5.99,9.14,25.95,12.36,27.58,8.66,4.41,40.58-2.52,54.76-.78,54.78,6.7,72.82,100.28,27.68,131.53-22.49,15.57-43.99,15.09-68.52,20.95-20.64,4.94-31.59,22.46-43.13,38.78-15.61,22.09-28.02,46.49-42.69,69.19-.25.8,9.33,2.71,11.82,4.13,10.45,5.98,22.34,20.59,21.66,33.3-1.09,20.29-16.61,21.06-27.49,32.47-7.31,7.66-28.92,35.95-32.95,44.97-11.45,25.6-15.44,88.07-14.26,116.47,1.1,26.54,11.65,53.08,11.3,80.15-.48,36.39-12.33,56.26-25.06,86.98-7.19,17.34-3.11,26.28-5.16,42.78-3.37,27.14-32.84,81.15-55.31,96.97-10.97,7.72-24.92,10.44-35.85,17.66-14.39,9.51-26.41,42.29-37.76,58.14-9.13,12.74-22.86,27.51-33.5,39.43-2.23,2.5-8,3.97-9.07,8.09-1.65,6.35,7.2,8.48,10.85,12.5,26.68,29.4,25.23,50.96,40.55,83.31,9.65,20.39,15.94,20.19,30.33,33.59,10.71,9.98,24.16,27.79,13.97,41.97-8.99,12.5-27.62,12.19-37.75,20.18-17.79,14.04-23.48,36.89-51.34,40.57-12.13,1.6-50.54-.78-48.8-18.61,1.22-12.57,21.9-17.08,32.06-20.09,3.45-1.02,8.41.54,11.32-1.64,1.76-1.31,22.35-32.26,24.63-36.34,1.83-3.29,8.14-15.31,8.14-18.03,0-9-46.85-65.53-56.06-75.94-23.43-26.5-44.52-30.02-35.58-73.37.99-4.81,4.11-8.83,4.96-13.02,3.56-17.45,6.07-35.13,10.52-52.38-19.74,3.19-43.62-2.28-61.69-11.25-11.31-5.62-21.76-15.16-32.45-21.5-25.41-15.07-38.68-17.61-59.69-42.22-4.53-5.31-15.49-23.7-18.16-25.8-12.79-10.04-58.51-16.84-79.22-30.69-10-6.69-15.79-18.64-27.6-24.35l15.36,28.59c14.6,33.08,7.1,77.06,28.79,107.05,8.81,12.19,23.56,16.75,26.33,33.61,3.78,22.99-27.01,35.01-39.49,51.45-8.6,11.33-12.53,25.24-23.94,36-10.76,10.14-42.84,26.03-49.19,5.02-4.86-16.08,16.17-15.95,21.79-24.59,4.26-22.26,27.86-65.83,27.41-86.24-.38-17.09-17.25-40.38-24.43-55.63-12.02-25.54-22.68-51.81-34.16-77.71-6.09-13.73-17.88-26.42-17.47-42.43.35-13.68,13.24-29.05,27.04-29.05h94.93ZM2138.44,215.83c-24.32,10.67-38.82-4.76-46.07-26.83-4.1-12.47-3.94-29.98-13.81-40.13-21.95-22.58-68.26-7.98-75.54,22.51-4.69,19.67,3.51,30.29,6.92,48.06,6.58,34.34,1.56,49.74-11.68,81.01-14.56,34.39-37.18,65.04-51.66,99.15,9.25-10.22,32.11-5.56,33.76,7.12.48,3.71-.51,15.64.42,16.62,4.23,4.47,10.94-1.51,13.69-5.29,9.15-12.6,54.86-98.06,63.03-98.3,6.74-.2-.95,15.75-1.94,17.99-12.93,29.07-32.84,57.4-49.01,84.84l10.07,2c20.59-31.02,38.1-67.88,60.21-97.55,5.59-7.51,14.42-18.66,21.63-24.33,30.4-23.91,93.15-5.49,97.91-59.94,1.82-20.77-2.7-46.08-25.49-52.34-17.15-4.71-35.74,3.69-52.4-.56-.8,5.58.89,11.96,5.12,15.83,5.7,5.22,14.58,2.23,14.84,10.11ZM1650.8,888.97c.85,6.65,3.79,12.11,4.07,16.94.42,7.31-10.5.4-13.03-3-4.59-6.18-10.26-27.52-10.27-35.25,0-6.33,2.98-12.88,3.31-19.57.43-8.95-1.78-16.36-2.06-25.03,10.6,1.73,12.4,17.08,12,25.96,13.52-2.29,14.14-17.45,11.93-28.92-.77-4.01-5.59-7.74-7.71-12.27-11.47-24.5.27-54.98,19.65-71.79,2.93-2.54,15.07-9.81,18.08-6.86.31.3.8,4.66-1.28,6.18-2.87,2.11-9.53-.59-14.57,9.14-1.73,3.34-.09,6.24-1.24,8.48-3.97,7.73-11.24,15.04-12.77,25.25-2.95,19.61,10.14,28.26,13.39,44.29,1.01,5-.53,11.26.74,15.24,1.73,5.41,11.26,2.4,16.28,3.7,21.81,5.66,32.36,21.74,48.69,31.23,4.91,2.86,26.76,7.88,28.43,10.53.81,1.28.02,3.93.26,5.74l-15.98,1.98c8.96,3.6,16.92,1.72,25.95.03,1.07,4.99-1.14,3.52-3.73,5.18-6.49,4.15-12.45,5.54-20.23,4.81,4.97,5.74,1.99,30.58,2.84,31.96,4.56,7.42,35.35,8.81,43.64,7.49,16.32-2.59,30.11-22.18,47.39-26.55,3.51-.89,21.71-3.07,24.95-2.87,13.56.83,30.17,36.69,27.1,49.87,45.89-25.24,36.35-82.98,12.36-121.23-17.25-27.51-39.18-25.57-64.18-39.72-15.76-8.92-28.4-24.58.29-16.27,15.5,4.49,53.09,16.1,63.57,26.35,5.02,4.91,26.63,36.66,30.3,43.62,5.53,10.48,9.73,25.5,9.62,37.35,17.33-16.48,12.12-39.98,14-60.89,2.56-28.5,23.15-50.37,25.93-77.95,2.91-28.85-6.37-54.02-8.07-81.78-1.41-23.11.03-58.68,2.13-81.96,4.16-46.09,15.5-75.2,50.99-104.84,4.79-4,14.11-7.95,17.04-10.93,11.12-11.31,4.4-21.2-10.96-19-11.39,1.63-9.34,13.11-30.01,9.78-14.66-2.36-8.44-17.56-24.13-16-15.76,1.57-24.49,22.97-39.67,22.04-2.26-.14-9.28-2.25-10.37-3.81-5.63-8.11,7.13-6.63,12.19-10.01.88-.59,13.41-15.15,13.85-16.12,1.57-3.49,5.89-24.65-1.02-23.06-3.76.87-15.68,6.47-19.3,8.74-5.24,3.28-12.47,12.91-16.01,13.96-3.46,1.03-22.18,1.12-24.65-.51-10.02-6.58,11.04-16.42,11.64-17.46,2.83-4.86-1.58-17.17-3.53-22.6-4.29-11.93-6.73-16.69-13.82-1.76-12.08,25.46-19.6,53.54-38.24,75.63-45.98,54.48-120.03,64.26-173.65,104.09-19.64,14.59-24.14,30.27-39.11,46.8-14.81,16.35-34.51,27.27-46.63,47.27-6.48,10.7-9.57,23.15-14.35,34.57,3.25,2.48,25-11.28,29.78-12.78,65.3-20.56,137.47,33.82,172.04,85.74.41,5.11-.73,2.2-3.45,1.45-19.82-5.44-33.58-27.49-51.14-36.78-15.48-8.19-61.89-26.28-78.32-27.59-27.07-2.16-65.88,10.45-75.96,37.88-18.06,49.19,7.43,82.43,31.84,120.07,19.65,30.31,27.61,49.85,58.88,70.99,12.41,8.39,26.29,14.8,38.89,23.05,20.5,13.43,23.66,22.35,52.55,25.38,26.2,2.75,17.17,1.08,24.88-14.19,2.6-5.15,9.33-14.68,12.47-20.01,1.25-2.12,6.88-10.01,5.37-11.49-10.39,3.68-19.9,4.94-31.04,4.05-5.84-.47-20.53-5.97-21.63-5.76-2.92.56-12.59,13.4-21.26,9.7-1.46,5.6,4.57,4.7,5.99,5.98.55.5.86,6.11,7.99,5.99.7.61,1.26,1.41,2,2,9.37,7.43,16.8,5.78,27.98,8.01-7.74,10.43-37.55-.02-44.02-8.96-2.93-4.05-2.66-9.03-6.89-13.08-2.96-2.84-21.23-7.95-9.7-11.59,5.67-1.79,13.85,2.17,18.64-2.34,24.82-2.84,5.88-40.42-3.16-51.77-13.5-16.93-44.94-35.43-66.18-24.54-8.07,4.14-11.35,9.38-10.59,18.38.14,1.7.06,3.42,2,3.99.07.66-.08,1.34,0,2ZM2000.55,767.15c-1.1-1.01-10.19,4.45-9.98,4.96,3.1,7.79,8.15-.54,9.98-4.96ZM1998.54,777.13c-2.04-2.17-22.06,6.02,0,5.99-.21-1.62.42-5.55,0-5.99ZM1522.88,831.06h-3.98s0,5.98,0,5.98c2.89-.67,4.58-3.23,3.97-5.98ZM1515.41,842.99c0-1.36-1.11-2.47-2.47-2.47s-2.47,1.1-2.47,2.47,1.11,2.47,2.47,2.47,2.47-1.1,2.47-2.47ZM1575.37,876.95c0-1.36-1.11-2.47-2.47-2.47s-2.47,1.1-2.47,2.47,1.11,2.47,2.47,2.47,2.47-1.1,2.47-2.47ZM1488.91,926.91c.61-2.76-1.08-5.31-3.97-5.98v5.98s3.97,0,3.97,0ZM1797.21,1042.73c0-1.36-1.11-2.47-2.47-2.47s-2.47,1.1-2.47,2.47,1.11,2.47,2.47,2.47,2.47-1.1,2.47-2.47ZM1786.69,1086.73c-1.94-2.09-9.12,3.75-2.96,5.96,4.22,1.51,3.64-5.23,2.96-5.96ZM1800.69,1104.69c-8.92,1.11-2.82,8.65-.01,5.98.26-1.92-.33-4.22.01-5.98,1.29-.16,2.68.12,3.98-.01.56-4.16.19-4.53-3.97-3.97-.17,1.28.22,2.79-.01,3.98ZM1789.21,1116.64c0-1.36-1.11-2.47-2.47-2.47s-2.47,1.1-2.47,2.47,1.11,2.47,2.47,2.47,2.47-1.1,2.47-2.47ZM1828.67,1158.6c7.63,1.72,9.38-6.39,9.97-11.96l-9.97,11.96Z"/>
          <path class="cls-2" d="M1732.74,960.88c-1.42-1.28-7.45-.38-5.99-5.98,8.67,3.69,18.34-9.14,21.26-9.7,1.1-.21,15.78,5.3,21.63,5.76,11.14.89,20.65-.37,31.04-4.05,1.51,1.48-4.12,9.38-5.37,11.49-3.14,5.33-9.87,14.86-12.47,20.01-7.71,15.26,1.32,16.94-24.88,14.19-28.89-3.03-32.05-11.95-52.55-25.38-12.6-8.25-26.48-14.66-38.89-23.05-31.26-21.14-39.23-40.68-58.88-70.99-24.4-37.64-49.9-70.88-31.84-120.07,10.07-27.43,48.89-40.04,75.96-37.88,16.43,1.31,62.84,19.4,78.32,27.59,17.55,9.29,31.31,31.35,51.14,36.78,2.73.75,3.86,3.66,3.45-1.45-34.58-51.92-106.74-106.3-172.04-85.74-4.78,1.51-26.54,15.27-29.78,12.78,4.78-11.42,7.87-23.88,14.35-34.57,12.12-20,31.82-30.91,46.63-47.27,14.97-16.53,19.46-32.21,39.11-46.8,53.61-39.83,127.67-49.61,173.65-104.09,18.64-22.09,26.16-50.17,38.24-75.63,7.08-14.93,9.53-10.17,13.82,1.76,1.95,5.43,6.36,17.74,3.53,22.6-.61,1.04-21.67,10.88-11.64,17.46,2.47,1.62,21.19,1.53,24.65.51,3.55-1.05,10.77-10.68,16.01-13.96,3.62-2.27,15.54-7.87,19.3-8.74,6.91-1.59,2.59,19.57,1.02,23.06-.44.97-12.96,15.53-13.85,16.12-5.07,3.37-17.83,1.89-12.19,10.01,1.08,1.56,8.1,3.67,10.37,3.81,15.18.92,23.91-20.47,39.67-22.04,15.69-1.57,9.47,13.64,24.13,16,20.67,3.33,18.63-8.14,30.01-9.78,15.35-2.2,22.07,7.69,10.96,19-2.93,2.98-12.25,6.93-17.04,10.93-35.49,29.64-46.84,58.75-50.99,104.84-2.1,23.28-3.54,58.84-2.13,81.96,1.7,27.75,10.98,52.93,8.07,81.78-2.78,27.58-23.37,49.45-25.93,77.95-1.88,20.9,3.33,44.41-14,60.89.11-11.85-4.09-26.87-9.62-37.35-3.67-6.96-25.28-38.71-30.3-43.62-10.49-10.25-48.07-21.86-63.57-26.35-28.68-8.31-16.04,7.35-.29,16.27,25,14.15,46.93,12.22,64.18,39.72,23.99,38.24,33.53,95.99-12.36,121.23,3.07-13.18-13.54-49.03-27.1-49.87-3.24-.2-21.44,1.98-24.95,2.87-17.28,4.36-31.07,23.96-47.39,26.55-8.29,1.32-39.07-.08-43.64-7.49-.85-1.38,2.13-26.22-2.84-31.96,7.79.73,13.75-.67,20.23-4.81,2.59-1.65,4.8-.19,3.73-5.18-9.04,1.69-16.99,3.57-25.95-.03l15.98-1.98c-.24-1.8.55-4.46-.26-5.74-1.68-2.65-23.52-7.67-28.43-10.53-16.33-9.49-26.88-25.57-48.69-31.23-5.02-1.3-14.56,1.71-16.28-3.7-1.27-3.98.27-10.24-.74-15.24-3.25-16.03-16.34-24.68-13.39-44.29,1.54-10.21,8.81-17.52,12.77-25.25,1.15-2.24-.49-5.14,1.24-8.48,5.04-9.73,11.7-7.03,14.57-9.14,2.08-1.53,1.59-5.88,1.28-6.18-3.01-2.95-15.15,4.31-18.08,6.86-19.38,16.81-31.12,47.29-19.65,71.79,2.12,4.53,6.93,8.26,7.71,12.27,2.21,11.48,1.59,26.63-11.93,28.92.4-8.88-1.4-24.23-12-25.96.28,8.67,2.49,16.08,2.06,25.03-.32,6.69-3.31,13.23-3.31,19.57,0,7.73,5.68,29.07,10.27,35.25,2.52,3.39,13.45,10.3,13.03,3-.28-4.82-3.22-10.29-4.07-16.94,11.99,26.25,47.97,55.36,77.94,51.93-4.79,4.51-12.97.55-18.64,2.34-11.53,3.65,6.74,8.75,9.7,11.59,4.24,4.06,3.96,9.03,6.89,13.08,6.47,8.94,36.27,19.39,44.02,8.96-11.18-2.23-18.6-.58-27.98-8.01l32.82,6c5.29-2.18,12.57-5.03,11.14-11.98-18.15,1.91-30.08.32-47.42-3.56-2.03-.45-7.02-2-6.53,1.55,4.76-.44,6.02,4.29,7.99,5.99-7.14.12-7.44-5.49-7.99-5.99ZM1912.6,487.51c.39-.38.23-8.92-.11-10.87-2.72-15.46-24.14-17.5-17.42-5.53.44.78,4.58,1.79,6.49,4.43,2.01,2.79,5.91,16.99,11.05,11.98ZM1996.56,493.48c3.04,3.04,25.01-12.04,23.96-16.94-2.07-9.7-28.03,8.65-23.96,16.94ZM1978.59,501.47c6.46,4.79,15.85-21.19,4.9-25.96-12,.09-8.75,23.11-4.9,25.96ZM1851.32,516.12c5.42-3.71,22.47-6.46,15.47-15.77-8.77-11.66-32.13,11.04-26.11,23.09,7.43,2.15,7.81-5.39,10.64-7.32ZM1724.75,575.38c-13.22-1.03-17.85-.75-15.99,13.98-17.62,7.69-20.85,25.22-31.98,33.96-1.42,1.11-6.82.54-9.02,4.04-1.77,2.83-.39,6.61-.97,7.95-2.33,5.4-19.56,6.77-20.12,26.95-.72,25.82,26.71.14,30.68-9.58.98-2.4.57-8.62-.57-9.37,9.83-4.73,8.79-4.98,4-13.98,4.1.95,11.97,3.69,15.58,1.56.77-.45,1.79-4.02,3.3-5.57,8.57-8.78,40.93-41.45,51.06-41.93.53-.03,2.6,1.72,4.86,1.68,3.14-.05,6.87-2.36,9.78-1.84,1.96.35,2.36,4.89,4.13,6.28,8,6.27,24.31-6.38,16.03-12.34-3.69-2.66-19.68-3.05-24.82-1.77,25.85-18.22,54.08-31.64,73.94-56.94-6.51-1.57-17.92,4.24-24.72,7.25-12.38,5.47-84.25,39.97-85.19,49.69ZM1978.55,517.47c-3.48-3.67-12.04,5.49-14.05,8.91-8.38,14.29-16.31,39.4-11.36,55.44.75,2.44,8.64,18.82,9.47,19.52,3.57,2.99,5.65-4.46,5.85-7.21.62-8.63-2.8-17.08-1.67-27.52.83-7.66,13.82-46.96,11.76-49.13ZM1948.57,519.46c-3.03-2.9-10.67,2.67-12.81,6.17-3.98,6.5-1.65,10.81-1.16,17.78,3.8,4.17,15.98-22.02,13.97-23.95ZM1916.63,563.4c6.29-3.28,8.73-12.06,0-11.97v11.97ZM1911.23,576.65c-1.34-.89.52-4.07-2.59-3.25-1.7,6.05-5.28,11.3-4.01,17.95l9.97-5.99c-2.09,10.7,2.89,6.55,7.01,9.91s12.41,15.6,17.94,14.06c10.9-14.62-15.29-19.9-21.06-24.98-2.26-2,1.2-2.06-7.27-7.7ZM1850.08,595.76c-9.99,2.27-15.68,16.82-8.45,17.5,1.13.11,20.45-7.95,20.86-9.11,3.09-8.87-5.72-9.91-12.41-8.39ZM1906.6,609.35c-5.07-5.08-8.79,8.13-7.97,11.96,5.72,1.7,10.22-9.71,7.97-11.96ZM1722.74,619.33h-3.98s0,7.98,0,7.98c3.97-1.07,4.48-4.25,3.97-7.98ZM1782.69,623.33c-3.68-.47-5.86-.12-7.96,3.02v2.96s7.97,0,7.97,0v-5.97ZM1961.87,634c-4.22-4.86-21.37-15.07-19.27-3.72.28,1.54,16.19,24.19,17.87,25.65,9.19,8,9.07-13.09,1.4-21.93ZM1784.69,667.27c-.65-5.95,1.03-13.34.01-18.99-2.38-13.1-35.29-7.47-31.29,9.03,2.39,9.84,9.75-4.5,17.94-1.82,5.57,1.82,4.97,14.55,13.33,11.78ZM1886.62,641.31c-1.41-1.43-22.64,4.48-23.69,6.23-2.15,3.59-.34,10.5,5.8,8.88,3.79-1,23.16-9.77,17.89-15.11ZM1930.59,659.26c3.41-3.42-4.31-12.88-8.6-14.53-5.21-2.01-10.18,1.4-15.39.57.29,1.73-.51,4.86.12,5.85.69,1.07,22.92,9.07,23.87,8.12ZM1884.6,663.26c1.06-1.01,2.22-9.62,2.01-11.97-4.24-.27-8.36,18.03-2.01,11.97ZM1700.76,657.27c-4.49.04-14.94-2.71-17.99,3.97,12.75-1.68,6.12,2.98,8.01,10.67.38,1.55,3.95,1.27,4.1,2.58.3,2.5-2.94,7.84-2.12,8.73,2.14,2.34,7.81-7.66,11.69-6.32.98-.98.02-3.4.29-3.65,5.29-4.87,16.48,1.03,13.69-10.56-2.31-9.59-11.56-5.48-17.69-5.42ZM1959.1,710.65c2.53,2.51,8.02,3.78,9.31-.7,2.54-8.84-16.13-42.47-24.79-40.69-2.31.48-3.36,3.89-2.66,6.58.49,1.9,16.74,33.43,18.14,34.82ZM1921.99,681.86c-2.22-1.96-22.13-9.9-23.36-8.6-3.33,9.76,19.63,27.56,26.92,28.04,8.01.52-.28-16.55-3.55-19.44ZM1874.66,717.21c11.86-4.83,26.14,12.29,35.28,13.71,7.03,1.09,5.15-10.88,1.8-15.84-6.8-10.07-44.31-21.5-37.08,2.14ZM1856.16,721.7c-3.68-3.57-23.3-3.31-25.3-.33-6.13,9.14,24.73,27.93,33.83,16.76-.05-.92-7.86-15.79-8.53-16.43ZM1957.42,730.35c-3.36-4.07-5.17-8.19-10.74-10.25-2.48-.92-9.94-2.68-8.07,2.06,2.37,5.99,10.27,16.77,13.72,24.25,2.35,5.1,4.01,21.46,11.06,18.55,12.23-5.05-.43-27.89-5.98-34.61ZM1606.83,745.16c4.17-2.89,15.37-10.34,19.52-11.45s8.29-.51,12.44-.55c1.08-6.29-1.95-3.01-4.93-3.94-12.2-3.83-19.74-2.62-30.9,5.09-27.26,18.83-28.76,74.87-10.96,100.58l24.8,34.11c3.71-20.75-11.59-35.15-19.97-51.92,8.97-5.64,1.71-19.24,1.83-26.96.07-4.53,1.61-9.98,2.16-14.99,10.97-6.44,10.39-17.67,23.98-19.97.27-.05,1.73,1.43,4.06.92,10.55-2.31,23.96-10.08,3.94-8.91,4.17-2.22,10.27-2.39,11.98-5.97-15.12-3.05-24.76,6.2-37.96,9.97.44-1.55-.3-4.16,0-5.99ZM1834.67,759.17c-.51-.5-8.48-2.58-12.93-6.08-6.98-5.49-10.28-13.57-17.17-18.78-3-.33-14.9-10.7-16.89-7.15-8.11,14.48,21.82,37.77,36.02,38.15,2.07.06,15.33-1.83,10.98-6.14ZM1896.34,735.45c-.76-1.23-23.71-7.99-27.68-8.26-5.55,11.92,22.14,28.77,27.68,19.67.8-1.32.81-10.13,0-11.42ZM1931.6,747.2c-8.96,10.13,4.8,29.25,11.37,38.54,3.89,5.5,12.88,19.51,13.78,4.38.88-14.83-18.29-30.19-25.15-42.92ZM1682.77,763.15c-1.91-2.37-9.07,7.65-10.9,8.03-5.28,5.83-.84,35.89,3.92,37.89,9.16,3.85,1.76-9.78,1.22-15.18-.38-3.79-.69-8.06-.27-11.82.55-4.95,7.82-16.7,6.03-18.92ZM1628.81,765.15c-4.52-3.99-15.3,7.35-17.51,11.44-4.2,7.78-7.32,33.6,5.54,29.49.46-6.3-.97-13.43.41-19.54.86-3.83,13.31-19.84,11.56-21.38ZM1946.56,835.03c1.91-5.99,2.73-9.78,1.08-16.02-1.09-4.14-18.78-32.73-22.06-35.89-12.43-11.97-41.87-18.59-58.93-17.98-.76,3.87,1.79,4.82,4.58,6.39,7.16,4.02,18.19,5.57,27.42,10.55,18.3,9.86,25.19,20.97,36.01,37.92,3.29,5.15,3.69,14.96,11.9,15.04ZM1698.05,775.84c-1.47-1.41-11.32-8.5-9.25-1.75,1.78,5.79,10.98,17.03,13.04,24.93,3.84,14.78-.48,29.95,14.83,41.11,17.31,12.62.58-10.84-.89-15.08-5.53-15.88-3.55-35.61-17.72-49.2ZM1724.55,771.31c-1.14-.73-4.02.05-5.79-.17,2.84,15.04,1.04,30.79,5.35,45.56,7.45,25.52,31.25,38.84,56.59,40.29-13.84-14.48-29.07-15-41.22-33.69-7.71-11.86-12.64-50.53-14.93-52ZM1750.73,817.07c-.45-.4-2.68-.09-3.86-1.15-3.34-3.01-4.24-9.37-10.11-8.82.6,11.44,13.7,24.92,23.79,29.13,6.06,2.53,4.03-1.4,4.17-5.18,2.65,1.41,14.15,4.48,16.99,4.05,2.3-.9.4-5.15,1-6.05.32-.47,8.13,1.01,2-7.99.53.4,4.1-.32,5.84,1.08,12.48,10.05,37.54,47.64,38.22,63.79.3,7.01-5.88,26.74,4.86,16.99,12.93-11.75,1.5-46.21-3.98-59.84,20.96,6.99,31.01,13.55,36.1,35.81,1.61,7.06-1.17,14.83,3.9,20.07,7.14-11.52.48-24.16-.99-35.94l22.06,15.41c1.6,1.54,9.89,18.03,9.89,19.55v34.95c4.64.93,3.21-.5,4.5-2.55,9.49-15.01,6.13-38.91-.15-54.73-19.89-50.16-78.8-43.69-118.11-71.71-3.47-2.47-13.5-15.39-18.15-10.81-3.96,3.9,12.22,25.08,15.98,27.95-4.07-5.98-26.46-20.56-33.98-23.97-1.17-2.5-2.8-14.6-6.55-5.45-2.6,6.36,3.51,19.16,6.55,25.42ZM1622.76,821.08c-.24-.19-5.94-.88-5.97,1.04,1.75,4.62.86,30.86,5.03,30.85,5.3,0,2.79-30.4.94-31.9ZM1796.7,888.96c4.71,5.24,14.78-22.15,6.98-21.92-2.14.06-7.82,20.99-6.98,21.92ZM1856.64,900.97c2.99-2.82,1.79-29.84-4.98-29.93-6.42-.08-.72,25.65-.99,29.94,1.62-.26,5.56.39,5.97,0ZM1788.69,880.99c-2.02-2.26-12.23,7.77-9.97,9.97,5.56-.21,11.39-3.63,9.97-9.97ZM1776.71,910.94c-3.69,1.02-11.49-.28-9.99,5.96,10.21,2.7,9.19,8.24,20.45,3.48s22.39-15.8,21.5-29.41c-1.31.03-2.67-.12-3.98,0-5.48.46-27.59,12.48-27.98,19.97Z"/>
          <path class="cls-2" d="M1828.67,1158.6l9.97-11.96c-.59,5.58-2.34,13.69-9.97,11.96Z"/>
          <path class="cls-2" d="M1998.54,777.13c.41.44-.21,4.37,0,5.99-22.05.03-2.04-8.16,0-5.99Z"/>
          <path class="cls-2" d="M2000.55,767.15c-1.83,4.42-6.88,12.75-9.98,4.96-.21-.52,8.88-5.97,9.98-4.96Z"/>
          <path class="cls-2" d="M1786.69,1086.73c.68.73,1.26,7.47-2.96,5.96-6.17-2.21,1.02-8.05,2.96-5.96Z"/>
          <path class="cls-2" d="M1522.88,831.06c.61,2.76-1.08,5.31-3.97,5.98v-5.98s3.97,0,3.97,0Z"/>
          <path class="cls-2" d="M1488.91,926.91h-3.98s0-5.98,0-5.98c2.89.67,4.58,3.23,3.97,5.98Z"/>
          <circle class="cls-2" cx="1786.74" cy="1116.64" r="2.47"/>
          <path class="cls-2" d="M1800.69,1104.69c.23-1.19-.16-2.7.01-3.98,4.17-.56,4.53-.19,3.97,3.97-1.3.13-2.69-.15-3.98.01Z"/>
          <circle class="cls-2" cx="1572.9" cy="876.95" r="2.47"/>
          <circle class="cls-2" cx="1794.74" cy="1042.73" r="2.47"/>
          <path class="cls-2" d="M1650.8,886.98c-1.94-.57-1.86-2.3-2-3.99,1.96.63,1.82,2.28,2,3.99Z"/>
          <path class="cls-1" d="M1784.7,821.06c-3.76-2.87-19.94-24.05-15.98-27.95,4.65-4.58,14.67,8.33,18.15,10.81,39.31,28.02,98.22,21.55,118.11,71.71,6.27,15.82,9.63,39.72.15,54.73-1.3,2.05.14,3.49-4.5,2.55v-34.95c0-1.52-8.3-18.01-9.89-19.55l-22.06-15.41c1.47,11.78,8.13,24.42.99,35.94-5.07-5.24-2.29-13.01-3.9-20.07-5.09-22.26-15.14-28.82-36.1-35.81,5.48,13.63,16.91,48.09,3.98,59.84-10.74,9.76-4.57-9.97-4.86-16.99-.68-16.15-25.74-53.73-38.22-63.79-1.74-1.4-5.31-.67-5.84-1.08Z"/>
          <path class="cls-1" d="M1946.56,835.03c-8.21-.08-8.61-9.89-11.9-15.04-10.82-16.95-17.7-28.05-36.01-37.92-9.23-4.97-20.26-6.52-27.42-10.55-2.79-1.57-5.34-2.52-4.58-6.39,17.07-.61,46.51,6.01,58.93,17.98,3.28,3.16,20.97,31.75,22.06,35.89,1.65,6.24.82,10.03-1.08,16.02Z"/>
          <path class="cls-1" d="M1978.55,517.47c2.05,2.17-10.94,41.47-11.76,49.13-1.13,10.44,2.3,18.9,1.67,27.52-.2,2.75-2.28,10.2-5.85,7.21-.83-.7-8.72-17.07-9.47-19.52-4.95-16.04,2.98-41.14,11.36-55.44,2.01-3.42,10.57-12.58,14.05-8.91Z"/>
          <path class="cls-1" d="M1724.55,771.31c2.29,1.47,7.22,40.14,14.93,52,12.15,18.69,27.38,19.2,41.22,33.69-25.34-1.45-49.14-14.77-56.59-40.29-4.31-14.77-2.51-30.53-5.35-45.56,1.77.22,4.65-.56,5.79.17Z"/>
          <path class="cls-1" d="M1834.67,759.17c4.35,4.31-8.91,6.19-10.98,6.14-14.2-.38-44.13-23.67-36.02-38.15,1.99-3.55,13.89,6.82,16.89,7.15,6.9,5.22,10.19,13.29,17.17,18.78,4.45,3.5,12.42,5.58,12.93,6.08Z"/>
          <path class="cls-1" d="M1606.83,751.15c-2.87,10.11-4.62,11.43-6,23.97-.55,5.01-2.09,10.46-2.16,14.99-.12,7.72,7.14,21.31-1.83,26.96-13.05-26.12-15.84-53.97,9.99-71.91-.3,1.83.44,4.44,0,5.99Z"/>
          <path class="cls-1" d="M1698.05,775.84c14.18,13.59,12.2,33.32,17.72,49.2,1.48,4.24,18.21,27.71.89,15.08-15.31-11.16-10.99-26.33-14.83-41.11-2.05-7.9-11.26-19.14-13.04-24.93-2.07-6.75,7.78.34,9.25,1.75Z"/>
          <path class="cls-1" d="M1874.66,717.21c-7.24-23.64,30.27-12.21,37.08-2.14,3.35,4.96,5.23,16.94-1.8,15.84-9.14-1.42-23.42-18.53-35.28-13.71Z"/>
          <path class="cls-1" d="M1957.42,730.35c5.55,6.73,18.21,29.56,5.98,34.61-7.05,2.91-8.71-13.45-11.06-18.55-3.45-7.48-11.35-18.26-13.72-24.25-1.87-4.74,5.59-2.98,8.07-2.06,5.56,2.06,7.38,6.18,10.74,10.25Z"/>
          <path class="cls-1" d="M1931.6,747.2c6.86,12.73,26.03,28.09,25.15,42.92-.9,15.12-9.89,1.12-13.78-4.38-6.57-9.28-20.32-28.41-11.37-38.54Z"/>
          <path class="cls-1" d="M1856.16,721.7c.66.64,8.48,15.51,8.53,16.43-9.09,11.17-39.96-7.62-33.83-16.76,2-2.98,21.62-3.24,25.3.33Z"/>
          <path class="cls-1" d="M1750.73,817.07c-3.04-6.26-9.15-19.07-6.55-25.42,3.75-9.15,5.37,2.95,6.55,5.45,6.43,13.73,18.03,25.68,31.98,31.96-.6.89,1.31,5.14-1,6.05-2.84.43-14.34-2.63-16.99-4.05-4.37-2.34-10.4-10.8-13.99-13.98Z"/>
          <path class="cls-1" d="M1784.69,667.27c-8.36,2.77-7.77-9.95-13.33-11.78-8.19-2.68-15.56,11.66-17.94,1.82-4-16.5,28.91-22.13,31.29-9.03,1.02,5.64-.66,13.04-.01,18.99Z"/>
          <path class="cls-1" d="M1959.1,710.65c-1.39-1.38-17.64-32.91-18.14-34.82-.69-2.69.35-6.1,2.66-6.58,8.65-1.78,27.33,31.85,24.79,40.69-1.29,4.49-6.78,3.21-9.31.7Z"/>
          <path class="cls-1" d="M1911.23,576.65c8.47,5.65,5,5.71,7.27,7.7,5.77,5.09,31.96,10.36,21.06,24.98-5.53,1.53-13.67-10.58-17.94-14.06s-9.1.78-7.01-9.91l-9.97,5.99c-1.27-6.65,2.31-11.91,4.01-17.95,3.11-.82,1.25,2.36,2.59,3.25Z"/>
          <path class="cls-1" d="M1921.99,681.86c3.27,2.89,11.56,19.97,3.55,19.44-7.28-.48-30.25-18.28-26.92-28.04,1.23-1.31,21.14,6.64,23.36,8.6Z"/>
          <path class="cls-1" d="M1961.87,634c7.67,8.84,7.8,29.92-1.4,21.93-1.68-1.47-17.59-24.12-17.87-25.65-2.1-11.34,15.05-1.14,19.27,3.72Z"/>
          <path class="cls-1" d="M1851.32,516.12c-2.83,1.94-3.21,9.48-10.64,7.32-6.02-12.05,17.34-34.75,26.11-23.09,7,9.31-10.05,12.06-15.47,15.77Z"/>
          <path class="cls-1" d="M1896.34,735.45c.8,1.29.79,10.1,0,11.42-5.53,9.09-33.23-7.76-27.68-19.67,3.97.27,26.92,7.03,27.68,8.26Z"/>
          <path class="cls-1" d="M1760.72,575.38c5.14-1.28,21.13-.89,24.82,1.77,8.27,5.96-8.03,18.61-16.03,12.34-1.78-1.39-2.17-5.93-4.13-6.28-2.91-.52-6.64,1.79-9.78,1.84-2.26.04-4.33-1.71-4.86-1.68.04-6.11,5.17-6.79,9.99-7.99Z"/>
          <path class="cls-1" d="M1628.81,765.15c1.75,1.54-10.7,17.55-11.56,21.38-1.38,6.11.05,13.25-.41,19.54-12.86,4.11-9.74-21.7-5.54-29.49,2.21-4.09,12.99-15.42,17.51-11.44Z"/>
          <path class="cls-1" d="M1682.77,763.15c1.79,2.22-5.48,13.97-6.03,18.92-.42,3.76-.11,8.03.27,11.82.55,5.4,7.95,19.02-1.22,15.18-4.76-2-9.21-32.06-3.92-37.89,1.83-.38,8.99-10.4,10.9-8.03Z"/>
          <path class="cls-1" d="M1700.76,657.27c6.13-.06,15.38-4.17,17.69,5.42,2.79,11.59-8.41,5.69-13.69,10.56-10.86,1.22-9.76-9.82-4-15.98Z"/>
          <path class="cls-1" d="M1850.08,595.76c6.68-1.52,15.5-.48,12.41,8.39-.4,1.16-19.72,9.21-20.86,9.11-7.23-.68-1.54-15.23,8.45-17.5Z"/>
          <path class="cls-1" d="M1978.59,501.47c-3.85-2.86-7.1-25.87,4.9-25.96,10.95,4.78,1.56,30.75-4.9,25.96Z"/>
          <path class="cls-1" d="M1676.78,623.32c1.19,2.07,2.88,3.89,4,5.99,4.79,9,5.84,9.25-4,13.98-2.21-1.47-8.01.64-9.99-7.99.58-1.34-.8-5.12.97-7.95,2.2-3.5,7.6-2.93,9.02-4.04Z"/>
          <path class="cls-1" d="M1912.6,487.51c-5.14,5.02-9.03-9.19-11.05-11.98-1.91-2.64-6.05-3.65-6.49-4.43-6.72-11.97,14.7-9.93,17.42,5.53.34,1.95.5,10.49.11,10.87Z"/>
          <path class="cls-1" d="M1996.56,493.48c-4.06-8.29,21.9-26.63,23.96-16.94,1.04,4.89-20.92,19.98-23.96,16.94Z"/>
          <path class="cls-1" d="M1930.59,659.26c-.95.95-23.18-7.05-23.87-8.12-.63-.99.17-4.12-.12-5.85,5.21.83,10.19-2.58,15.39-.57,4.29,1.65,12,11.11,8.6,14.53Z"/>
          <path class="cls-1" d="M1886.62,641.31c5.27,5.34-14.09,14.1-17.89,15.11-6.14,1.62-7.95-5.3-5.8-8.88,1.05-1.74,22.28-7.65,23.69-6.23Z"/>
          <path class="cls-1" d="M1804.69,890.97c-1.69,15.33-16.43,16.78-27.98,19.97.39-7.49,22.5-19.52,27.98-19.97Z"/>
          <path class="cls-1" d="M1856.64,900.97c-.42.39-4.36-.25-5.97,0,.27-4.29-5.43-30.02.99-29.94,6.77.09,7.97,27.11,4.98,29.93Z"/>
          <path class="cls-1" d="M1948.57,519.46c2.01,1.93-10.17,28.12-13.97,23.95-.49-6.97-2.82-11.28,1.16-17.78,2.14-3.5,9.78-9.06,12.81-6.17Z"/>
          <path class="cls-1" d="M1724.75,575.38c-.11,1.16,3.36,3.04.2,7.04-5.25,6.65-11.96,5.09-16.19,6.94-1.86-14.73,2.77-15.01,15.99-13.98Z"/>
          <path class="cls-1" d="M1622.76,821.08c1.85,1.5,4.36,31.89-.94,31.9-4.17,0-3.28-26.23-5.03-30.85.02-1.92,5.73-1.23,5.97-1.04Z"/>
          <path class="cls-1" d="M1796.7,888.96c-.84-.93,4.85-21.86,6.98-21.92,7.79-.23-2.27,27.16-6.98,21.92Z"/>
          <path class="cls-1" d="M1632.81,747.16c20.02-1.17,6.61,6.61-3.94,8.91-2.33.51-3.79-.97-4.06-.92-1.06-4.02,4.59-6.17,7.99-7.99Z"/>
          <path class="cls-1" d="M1906.6,609.35c2.25,2.25-2.25,13.66-7.97,11.96-.82-3.83,2.91-17.04,7.97-11.96Z"/>
          <path class="cls-1" d="M1788.69,880.99c1.42,6.33-4.41,9.75-9.97,9.97-2.26-2.19,7.95-12.23,9.97-9.97Z"/>
          <path class="cls-1" d="M1916.63,563.4v-11.97c8.73-.09,6.29,8.69,0,11.97Z"/>
          <path class="cls-1" d="M1884.6,663.26c-6.35,6.06-2.23-12.24,2.01-11.97.22,2.34-.95,10.96-2.01,11.97Z"/>
          <path class="cls-1" d="M2074.5,299.73c6.32-22.16,29.85-42.05,53.63-34.62,20.09,6.28-17.4,13.26-23.09,16.22-4.97,2.58-26.19,22.4-30.53,18.4Z"/>
          <path class="cls-1" d="M2042.04,160.28c7.19-.9,16.46,3.11,18.46,10.55-5.09,7.5-10.97,2.91-16.52,3.51-8.85.96-14.19,10.15-20.45,15.5-9.97-11.64,6.73-28.09,18.51-29.56Z"/>
          <path class="cls-1" d="M1994.57,395.62c-4.07-9.27,24.79-57.81,28.96-57.88,2.14-.04,3.12,4.41,2.95,6.83-.69,10.16-24.63,41.99-31.91,51.06Z"/>
          <path class="cls-2" d="M2064.49,289.76c1.69,9.55-9.77,15.28-13.35,20.57-2.15,3.18-1.95,13.28-8.6,15.37-2.66-16.36,6.26-30.86,21.95-35.94Z"/>
          <path class="cls-2" d="M2026.52,295.76c3.42,8.47-3.15,11.64-3.83,13.52-3.84,10.61-5.06,20.92-15.16,28.38.91-10.83,6.07-24.94,11.26-34.66,1.74-3.26,2.88-7.96,7.73-7.23Z"/>
          <path class="cls-2" d="M2074.46,185.9c3.11,3,1.73,20.81,2.01,25.95l-6.04-14.91c-.32-2.4-.85-15.74,4.03-11.04Z"/>
          <path class="cls-2" d="M2034.54,219.84c.18-4.31-1.58-8.12-1.48-12.45.04-1.82.9-9.2,4.42-7.5,5.81,2.8,3.36,17.94-2.95,19.95Z"/>
          <path class="cls-2" d="M2174.41,253.81c2.16,1.98-9.94,13.79-13.97,9.97-.7-.66-.25-5.88,1.99-7.12,2.08-1.14,3.91.77,4.98.67s1.7-5.85,7-3.52Z"/>
          <path class="cls-1" d="M1714.62,922.81c-1.42,1.01-10.72-.92-11.56-2.25-.98-1.56.43-5.09-.73-7.13-.48-.84-13.91-11.48-15.01-12.01-6.01-2.9-29.34-1.5-21.51-14.43,8.8-14.54,41.73,7.13,47.37,18.53,1.64,3.31,4.52,15.1,1.45,17.3Z"/>
        </g>
        <g>
          <path class="cls-1" d="M843.39,78.03c-5.03,7,.8,9.09,4,2,9.51,3.07,13.53,10.55,17.44,11.67,5.29,1.51,10.06-2.11,15.34-1.66,7.09.61,19.34,11.71,23.05,17.51,1.53,2.39.82,7.02,2.74,9.85,2.8,4.13,16.93,8.89,22.43,14.51,10.71,10.94,7.66,20.19,11.95,28.01s21.07,6.41,26.08,25.87c3.87,15.01-.88,11.23,11.65,23.42,5.1,4.96,3.93.6,9.43,11.04.91,1.72,5.64,8.27,5.78,8.91.84,4-.91,7.98.61,12.19.71,1.97,12.16,8.29,14.38,10.49,10.31,10.22,13.05,24,15.01,37.93,2.02.86,3.97-4.66,3.97-4.98v-29.96c0-19.23,34.79-95.89,48.66-110.16,4.43-4.56,10.74-7.95,17.29-6.69-2.77,43.25,4.04,85.04,16.56,126.28,5.16,17.01,12.75,32.97,17.95,49.97,16.79,54.89,23.32,110.17,19.47,167.3,4.43,4.63,68.64-35.66,69.54-49.33l22.18-87.51c-4.1-16.72-35.46-39.11-18.7-56.81,2.7-2.86,8.11-3.63,8.6-4.38,3.48-5.41-5.62-23.44,9.55-31.39,12.49-6.54,52.52,7.04,58.09,21.32,6.56,16.83,2.01,36.99-6.31,52.38-4.04,7.46-11.18,13.51-14.05,21.92-12.47,36.57-6.54,86.91-29.31,122.51-4.82,7.54-11.81,11.6-16.75,17.21-21.59,24.53-43.11,46.63-68.58,67.36,5.64,34.05,19.9,66.12,30.26,98.95,9.21,29.19,20.58,58.69,26.92,88.95,1.31,6.27,1.28,13.98,2.52,20.47,30.03-21.15,53.03-46.46,87.2-61.63,39.28-17.44,84.3-27.14,124.63-42.27-1.35-6.36-3.6-12.25-4.07-18.86-.71-9.96,2.01-19.99,1.88-28.24-.28-18.08-4.84-34.57,1.25-52.67,5.45-16.19,20.08-28.57,29.92-8.05,15.39,32.13,18.22,82.47,32.59,116.82.72,21.39-35.13,21.29-50.34,27.23-21.27,8.31-42.66,27.94-63.15,38.75-25.7,13.56-54.83,16.92-75.01,38.88-17.01,18.51-71.4,87.73-81.72,108.08-2.75,5.42-2.79,11.27-5.45,16.52-8.04,15.88-30.98,50.34-29.85,66.15,1.34,18.76,22.02,28.24,6.99,50.82-14.06,21.13-54.67,31.69-78.49,32.98-12.34.67-19.94-3.33-27.13-13.04-8.66-11.69-11.28-36.13-29.15-33.79.82,35.96,9.56,77.16,5.97,112.84-2,19.91-22.6,37.75-36.9,51.01-23.3,21.62-52.21,37.16-71.01,62.82,6.37,11.87,9.14,31.55,19.02,40.97,16.05,15.32,59.36,7.21,65.99,31.93,2.24,8.36.84,17.44-8.48,19.6-10.45,2.42-59.61,1.85-71.34.25-6.05-.82-10.4-3.2-15.22-6.76-8.34-6.17-40.82-40.97-47.86-50.04-3.75-4.83-10.16-13.91-10.15-19.93,0-13.37,27.99-34.32,37.11-44.92,7.61-8.85,13.7-20.36,21-28.95,18.39-21.63,38.12-42.05,55.55-64.48-4.92-38.95-21.95-76.49-31.14-113.79-1.17-4.74.55-9.81-1.5-14.48-1.43-3.26-32.3-27.64-38.88-35.04-54.61-61.35-65.66-124.45-95.01-196.66-6.31-15.53-14.81-31.35-22.25-45.77-30.96,6.26-76.42,17.07-92.97,46.4-5.3,9.39-27.12,60.18-27.54,68.54-.75,15.14,24.23,29.4,23.62,47.73-.41,12.25-14.41,11.54-15.75,12.91-1.1,1.13,6.37,22.32-1.97,30.96-10.11,10.48-45.65-.46-56.06-7.93-19.98-14.33-8.36-45.47.34-63.74,2.92-6.13,8.28-11.32,10.72-17.25,18.43-44.93,13.62-96.24,55.14-130.65,22.17-18.37,49.49-29.47,71.78-47.08-20.12-12.58-42.21-27.38-63.9-37.03-28.95-12.89-70.2-10.94-96.62,7.4-5.59,3.88-26.78,30.21-29.39,12.5-.57-3.89,1.49-28.91,2.27-33.61,2.8-16.78,17.74-50.12,28.73-63.16,20.07-23.83,58.13-38.09,88.96-37.95-25.12-42.44-39.51-91.65-70-130.76-11.38-14.59-55.59-54.88-49.67-73.64,2.98-9.45,19.32,6.72,23.91,9.5,35.99,21.72,68.03,21.41,101.75,38.12,9.48,4.7,16.25,13.2,25.97,16.97-3.75-9.13,4.7-24.77,4.05-30.9-.48-4.5-8.95-10.18-10.07-19.97-1.61-14.11,5.89-18.26,5.91-24.01,0-4.24-7.27-15.27-7.86-24.02-.85-12.6,6.39-21.29,5.97-27.76-.58-8.95-7.22-14.75-6.05-30.21.96-12.7,8.82-18.03,9.59-22.12.97-5.14-2.71-11.35.38-21.84,3.08-10.44,10.84-13.88,13.06-18.9,3.02-6.82-.33-12.59,6.16-21.8,7.04-9.99,12.91-6.79,18.27-10.71,8.12-5.95,4.3-16.72,25.65-17.45,7.78-.27,10.59,3.37,14.24,3.69,2.17.19,9.6-4.69,18.64-3.63ZM813.41,96.01c-3.37-.85-2.78-3.37-8.73.23-11.64,7.04-5.24,26.91,3.38,25.25,3.2-.62,5.77-4.94,7.36-5.5,1.01-.36,2.86.32,4,0,.6-.17,1.35.14,2,0,4.12-.9,7.07-1.18,5.66-6.55-1.9-7.23-6.95-11.74-13.65-13.42ZM839.39,109.99c-4.22.09-8.16-1.11-5.98,4.97,1.94,5.41,6.48,1.89,5.98-4.97,2.28-.05,9.25.53,9.88-.14,1.44-1.53-2.18-5.35,2.11-5.85.28,1.06-.25,2.72,0,3.98,5.9,1.11,6.56-4.75,0-3.98-3.03-11.45-6.25-10.01-17.98-9.97-.47,5.78,5.62,10.9,5.99,15.97ZM881.36,109.99c-.36-.42,1.13-3.68-1.21-4.15-3.34-.67-7.4,1.88-10.77,2.18-2.32,3.12,7.49,9.23,8.94,12.06,1.36,2.66.79,7.61,1.06,7.9.85.92,15.96-1.16,9.98-10-1.41-2.09-6.08-5.77-7.99-7.99ZM785.41,111.99c-8.09.73-11.31,9.09-9.97,15.97,13.92,1.83,13.67-4.93,9.97-15.97ZM849.38,127.96c.21.53-.17,1.34,0,2s-.21,1.45,0,2c.07.19-1.85.15,0,3.99.38.79,3.37,1.36,3.94,3.5.64,2.41-.45,7.93.07,8.5.88.96,21.93-2.73,21.98-10,.04-6.01-3.44-6.88-6-9.99-5.52-6.7-8.95-11.28-19.01-10.18-9.78,1.08-1.31,9.34-.98,10.18ZM830.92,124.48c-18.07-7.27-22.44,27.52-12.13,29.58,3.36.67,21.21-3.94,22.39-7.4,2-5.87-5.99-20.46-10.26-22.18ZM805.2,159.7c1.6-2.3-.05-33.17-15.68-18.65-7.34,6.82-2.29,14.6-2.08,22.87,3.15-1.15,16.77-2.8,17.76-4.22ZM917.33,151.93c-.69-1.56.26-4.09-1.88-7.02-5.52-7.55-22.22-14.51-26.08-3.94-1.27,3.49,4.5,3.77,6.91,7,3.29,4.41,7.95,17.95,9.54,19.53.95.95,2.79.13,3.52.41,10.55,4.06,14.24.84,11.97-11.03-.78-4.05-3.79-4.52-3.98-4.95ZM773.43,143.95c-13.05-1.65-14.16,24.13,0,19.98v-19.98ZM851.37,145.95h-5.98v3.97h5.98v-3.97ZM887.36,157.93c-7.74-7.93-24.83-7.46-25.5.97-.1,1.28,9.84,22.47,10.91,23.17,6.58,4.3,15.77-.63,18.59-8.16,3.13-8.38,2.34-9.48-4-15.98ZM829.76,195.54c3.29,1.94,23.46-3.25,26.52-7.74,17.59-25.79-41.08-40.42-32.46-3.32.32,1.4,5.4,10.74,5.94,11.06ZM793.75,205.52c3.71,2.28,18.47-1.18,20.71-5.63,1.98-3.92-2.53-23.42-4.92-25.12-5.05-3.61-16.78,2.05-19.08,7.15-2.23,4.93-.54,21.24,3.28,23.6ZM777.43,177.91c-18.51-2.84-21.73,30.35-8.57,33.71s4.49-15.86,4.71-20.6c.22-4.67,3.94-8.38,3.86-13.11ZM924.65,178.19c-7.21,2.37,4.09,25.31,7.52,27.82,7.03,5.13,20.02-.85,18.36-10.18-1.93-10.88-14.8-21.28-25.88-17.64ZM1125.18,385.63c-5.73-41.25-19.18-81.22-34-119.84l-5.95,3.99c-4.67-24.64-10.93-49.71-11.63-74.91-.15-5.25,5.76-12.22-4.56-7.81-10.14,37.81-29.84,79.79-25.9,119.77.45,4.56,12.55,37.05,15.08,40.86.54.81,2.5,2.65,2.99,1.98-1.04-6.03-1.95-12.19.98-17.94,14.93,3.53,6.82,3.13,8.04,12.95.07.58,2.6,10.59,3.01,11,.21.21,5.74.16,5.98-.03,1.18-.97-1.99-4.63-1.99-4.98v-56.93c9.08,4.48,3.84,15.47,4.6,20.65.26,1.77,2.99,3.77,3.3,6.4.64,5.39,2.17,15.38,2.26,20.01s-4.67,1.21-4.15,4.85c1.48-.19,3.33-.37,3.93,1.43,3.32,9.96,2.65,28.57,3.97,39.62.36,2.99.39,6.15,4.05,6.92,6.26-38.45-1.4-76.97-7.99-114.83,1.44-2.78,3.82,2.65,4.39,3.6,3.25,5.43,13.17,27.19,3.64,27.37v1.94c6.76.66,9.21,16.92,9.95,23.02,14.65,120.16-38.27,242.91-27.94,365.48.2,2.42.74,10.68,3.95,11-2.13-54.5,15.23-107.14,26-159.78.25-1.21-.25-2.78,0-3.99.13-.64-.13-1.36,0-2,22.15-49.19,25.36-106.76,17.99-159.79ZM904.85,190.4c-5.98-3.42-23.03-1.31-25.19,6.94-1.45,5.54,5.55,22.48,11,24.28,3.07,1.01,19.38-4.54,20.33-6.09,2.96-4.81-.93-22.14-6.15-25.13ZM852.89,202.4c-4.52.67-15.65,4.29-17.2,8.81-1.91,5.59,3.71,23.12,8.9,24.35,2.04.49,27.74-8.53,28.58-11.02,1.15-3.42-2.26-18.21-4.74-20.74-3.34-3.41-11.02-2.08-15.54-1.4ZM801.96,218.39c-6.86,5.56-7.72,30.01,6.22,29.41,2.67-.12,14.35-4.17,16.19-6.01,5.89-5.9.29-27.96-9.96-27.78-1.13.02-11.72,3.8-12.44,4.38ZM948.81,218.21c-1.86.37-5.72,2.13-6.64,3.62-1.32,2.16,7.84,24.89,10.22,27.89,9.59,12.08,22.68.39,20.51-12.37-1.89-11.1-12.19-21.5-24.09-19.14ZM977.29,219.86h-5.99s0,3.96,0,3.96c2.76.61,5.31-1.08,5.98-3.96ZM777.42,223.85c-17.24,2.43-22.29,39.68-1.92,33.1,12.29-3.97-.03-23.2,1.92-33.1ZM983.27,225.86l-5.96-2.02c-.99,5.25,1.14,4.18,5.97,3.97v-1.95ZM935.04,257.52c1.06-1.65.52-15.26-.15-18.27-2.09-9.41-11.7-12.53-20.4-11.32-26.18,3.65-14.08,37.04,1.58,35.82,2.05-.16,18.42-5.39,18.96-6.23ZM1047.23,237.81c.61-2.76-1.08-5.31-3.97-5.98v5.98s3.97,0,3.97,0ZM886.89,269.32c1.34-1.32,2.1-4.73,2.31-6.68,4.2-38.4-57.13-18.37-37.89,9.7,5.84,8.52,30.44,2.04,35.58-3.02ZM807.83,291.31c3.38,1.94,20.59-1.85,24.19-3.93,10.99-6.35,3.55-33.61-16.75-28.72-16.08,3.87-14.67,28.51-7.44,32.65ZM975.3,305.72c23.15-1.15,34.99-8.61,23.53-32.5-4.91-10.22-26.88-16.96-29.44-8.23-.84,2.87,11.88,29.46,11.94,35.72l-6.02,5.01ZM946.72,272.45c-9.93-3.03-26.43-2.71-27.56,10.28-.18,2.03,4.07,25.32,4.67,26.52,1.33,2.65,14.59,12.5,18.51,12.37.91-.03,16.11-6.49,16.88-6.99,10.27-6.64,3.49-31.32-3.72-37.6-2.5-2.18-5.08-.66-6.57-1.43-1.83-.93-1.85-3.06-2.22-3.17ZM785.19,272.02c-22.66-5.91-23.83,38.3-1.21,33.28,13.97-3.1,1.18-22.57,1.21-33.28ZM882.84,284.24c-1.52.41-14.19,7.19-15.61,8.38-10.76,9.01-6.84,36.34,5.04,43.2,4.77,2.75,20.61.1,26.52-1.67,6.45-1.93,15.95-8.04,16.46-15.52.29-4.33-5.99-23.57-8.75-27.04-4.75-5.99-16.28-9.36-23.66-7.34ZM828.93,304.26c-15.78,2.2-21.48,15.02-19.03,29.96,3.01,18.33,12.84,20.41,30.03,16.99,15.98-3.18,13.96-22.75,9.8-34.85-3.87-11.25-9.07-13.74-20.8-12.1ZM998.69,312.15c-15.12,4.45-1.33,17.88.14,24.98,1.18,5.69-1.36,20.1,5.79,22.31s24.53-8.25,24.73-16.66c.41-16.83-11.31-36.33-30.66-30.64ZM791.42,319.7c-34.64-1.16-20.78,65.57,8.62,44.09,9.93-7.26-12.52-32.71-8.62-44.09ZM950.89,359.97c.48.8-1.48,3.21-1.15,4.41,2.61,9.45,35.27-2.07,36.97-9.98,2.08-9.72-2.39-25.16-13.28-27.84-18.33-4.51-32.03,9.48-28.16,28.18,1.04,5.03,5.03,4.23,5.63,5.24ZM738.76,390.32c5.89,5.71,12.1,14.91,17.71,21.23-2.05-6.7-1.49-18.1-4.07-23.87-1.22-2.72-28.15-28.64-32.27-31.67-13.66-10.06-49.69-23.55-66.54-27.38-1.77-.4-5.27-2.39-6.05.06,8.91,13.35,21.78,24,30.8,37.13,21.16,30.83,26.74,69.37,47.51,100.33,12.13,18.08,21.52,27.78,43.6,33.31l-67.98-110.81c-1.16-5.44,4.53-1.19,5.36-.33,4.71,4.83,7.48,12.71,14.32,16.62,10.18,7.32,30.24,51.38,37.33,54.58,1.06.48,3.39.38,2.96-.97-4.04-6.12-6.93-12.92-10.05-19.51-4.78-10.1-5.74-19.02-12.31-30.04-8.54-14.33-23.78-30.73-35.58-42.34,3.06-1.42,10.57,3.32,12.98,5.01,5.67,3.96,17.25,13.77,22.29,18.67ZM911.34,341.69c-16.32,2.35-40.99,7.96-34.62,29.62,5.7,19.38,24.29,16.29,40.21,10.92,18.71-6.3,21.56-16.17,12.39-32.56-3.46-6.18-3.29-10.6-13.04-10.18-2.67.12-4.33,2.1-4.95,2.19ZM1039.24,405.6c33.11-10.68,3.63-55.84-17.94-40.9-13.13,9.09,7.62,29.78,6,42.87,3.51,1.62,6.29-1.62,7.94-1.97,1.23-.26,2.97.33,4,0ZM864.78,395.03c3.95-4.6-1.96-26.21-6.61-29.17-6.17-3.93-28.43-1.42-31.86,3.71-1.81,2.7-1.35,16.83-.49,20.64,3.72,16.6,30.37,14.84,38.96,4.83ZM971.28,371.64c.15-.14.76-4.23-.98-3.97-5.45,3.12-1.34,6.24.98,3.97ZM989.28,423.58c34.65-3,24.35-46.63,4.89-49.81-9.09-1.49-27.6,3.65-30.46,13.27-2.03,6.85,5.17,27.99,9.47,33.22,1.78,2.16,3.08.92,4.1,1.32,4.88,1.89,6.11,2.51,11.99,2ZM809.42,377.63c-20.17-1.55-33.59,5.32-26.66,27.66,1.12,3.61,6.51,11.16,10.08,12,2.13.5,19.72-5.07,20.3-5.96,3.37-5.23-6.59-26.05-3.71-33.7ZM925.33,387.64c-2.8-2.71-5.66,4.84-8.49,6.45-15.96,9.15-25.78,1.03-23.46,28.48s15.14,28.66,38.79,20.83c5.1-1.69,21.33-8.48,22.75-13.21,5.49-18.28-7.32-45.89-29.63-39.57-3.04,2.01.15-2.87.04-2.97ZM1064.63,414.21c-8.15-6.03-24.64.24-29.11,8.8,1.02,4.6,12.97,34.1,15.05,34.62,6.59,1.66,20.3-4.93,22.23-11.48,2.42-8.21-1.23-26.8-8.17-31.94ZM862.95,413.99c-52.31,4.56-17.57,68.54,14.36,44.5,12.33-9.28,4.43-46.13-14.36-44.5ZM1015.26,429.57c-2.98,1.3-9.61,1.32-13.95,3.05-18.26,7.26-21.8,22.28-9.77,37.63,8.84,11.27,22.51,3.49,31.71-2.73.5-.34,2.73.95,4.17-1.19,10.5-15.59-4.07-27.39-8.19-40.74-2.75-.95-2.07,3.15-3.97,3.98ZM819.12,427.85c-44.31-10.72-36.75,64.04,2.77,45.16,15.29-7.3-3.38-32.11-2.77-45.16ZM961.3,449.55c-8.17-2.56-42.63,6.6-47.9,13.05-9.31,11.38-.99,41.23,18.73,38.84,2.78-.34,38.29-14.37,39.9-15.78,2.58-2.25.68-4.92,1.25-6.14.25-.54,3.7-1.1,4.04-4.96.46-5.24-2.59-7.45-4.04-11.02-3.05-7.5-1.72-10.77-11.99-13.98ZM1141.19,469.52c.76.97,5.29-3.49,3.96-5.99-.76-.97-5.29,3.49-3.96,5.99ZM1067.22,469.52c-1.26.67-2.68.72-4,2-10.69,10.37-1.94,11.4,1.86,23.1,1.77,5.44,1.25,21.62,9.9,14.61,1.73-1.4,9.66-40.1,6.12-43.59-4.28-4.21-12,2.88-13.88,3.88ZM1043.23,467.53c-3.05-3.08-6.38,5.64-5.98,5.96,2.47,1.99,7.88-4.06,5.98-5.96ZM892.79,476.07c-9.76-9.75-39.82-1.48-39.49,16.47.4,21.92,26.7,30.05,42.16,14.05,6.13-6.35,2.63-25.22-2.66-30.51ZM983.29,489.48c3.97,3.37,12.78-5.42,4.96-9.95l-2.95-.02c.62,2.35-2.8,9.3-2.01,9.97ZM1049.24,505.47c-.63-8.87.77-15.11-8.07-20.88-8.38-5.47-32.56,1.11-36.41,9.36-3.65,7.81,2.17,31.27,8.39,36.6,11.36,9.73,33.72.54,36.1-13.1.21-1.22-.12-2.69,0-3.99,2.46-1.98,2.46-4.01,0-5.99-.01-.66.05-1.34,0-2ZM816.83,487.93c-20.77,4.68-13.02,48.97,18.46,38.41,16.14-5.42-.26-24.01,1.22-36.96-2.05-3.02-15.69-2.35-19.68-1.45ZM968.78,501.96c-8.48,1.36-34.41,11.89-37.94,19.98-4.05,9.26,1.18,31.76,10.99,35.96,11.85,5.07,47.98-3.61,52.36-16.57,5.89-17.44-4.55-42.7-25.4-39.36ZM779.43,527.48c-2.26-2.37-45.33-17.41-50.98-17.98-24.23-2.48-59.06,4.08-77.87,19.99-16.75,14.17-30.65,40.7-35,61.87,5.35-3.29,10.81-5.9,16.59-8.4,79.52-34.41,133.46,25.73,199.87,58.69,28.22,14.01,61.13,22.9,88.63,37.26,18.77,9.8,42.94,27.45,60.12,39.76,9.37,6.71,17.05,16.47,28.46,20.49l-24.93-29.99c-23.64-27.41-54.38-46.73-81-70.85-27.9-25.28-49.7-58.55-83.29-76.55-26.53-14.22-79.69-27.13-109.63-26.42-5.24.13-29.8,5.19-30.87,4.06-8.38-8.81,29.33-15.37,33.21-15.73,12.65-1.18,28.87.2,41.52,1.96,7.34,1.02,15.29,4.89,22.35,5.67,3.8.42,4.29-2.33,2.84-3.85ZM918.78,568.85c1.31-1.09,4.25-8.2,4.09-10.12-.21-2.62-10.63-29.85-12.47-31.36-8.13-6.67-30.4-2.64-36.46,4.62-8.64,10.37-2.82,39.67,10.89,42.84,7.2,1.66,28.53-1.5,33.94-5.99ZM849.36,555.41c1.32-9.04-1.03-19.03-12-15.01-6.34,4.19,8.5,13.94,12,15.01ZM1060.72,580.88c1.3-1.42,6.53-19.79,6.54-22.46.21-32.12-43.46-15.03-43.69,3.95-.04,3.58,4.84,20.35,7.64,22.04,4.92,2.95,25.35,1.03,29.51-3.52ZM988.76,563.88c-7.81,1.24-32.29,9.25-36.29,15.66-6.8,10.91,4.85,31.74,17.77,31.84,6.3.05,39.24-11.38,42.04-16,3.03-4.99-.24-23.47-4.07-27.94-4.47-5.23-13.4-4.52-19.46-3.56ZM1135.16,565.4c-4.68-.3-3.53-.67-3.99,2.95-1.85,14.44-1.11,42.68.03,57.95,3.47,46.36,21.07,94.4,25.5,140.46,1.11,11.52.86,19.45-3.54,29.35-.72,1.63,3.47.21,4.02,2.27,1.21,4.59.4,27.43-.23,33.45-2.22,21.18-12.45,43.71-14.75,65.15,14.58-2.44,5.42-3.07,6.97-12.86.58-3.7,5.71-9.69,7.52-14.61,13.05-35.44,18.59-65.17,15.32-102.27-.77-8.71-3.08-17.25-2.83-26.07,3.98-.56-.34,5.13,4.96,4,8.2-1.76-6.24-8.48-6.56-9.27-5.93-14.38-6.49-36.44-12.43-51.64,2.63-3.93,6.75,4,7.99,2.95.19-.16-.43-2.8.45-3.43,4.23-3.05,10.81,4.37,5.56-8.54-1.45,2.78-15.32,4.58-15.95,4.01-2.53-2.32-12.58-59.9-13.67-67.27-2.28-15.41-3.26-31.08-4.34-46.6ZM891.59,591.59c-5.51,7.91,18.79,33.16,26.63,33.45,10.52.4,22.41-3.98,20.69-16.18-4.72-33.52-22.64-25.6-47.32-17.27ZM1115.18,593.37c-5.23-.45-3.31-.27-3.92,3-3.58,19.26-5.64,50.48-4.13,69.97,1.17,15.03,6.74,30.26,10.07,44.86l-7.99,4c3.33.71,8.07-2.73,10.77-1.9,3.28,1.01,1.81,6.33,5.19,5.89l-.63-26.6c-9.86-30.92-8.31-66.73-9.35-99.21ZM1061.22,595.36c-20.32,4.75-26.56,16.45-19.31,36.33,1.66,4.55,8.23,12.89,13.23,9.53,1.93-1.29,5.51-39.77,6.08-45.87ZM1161.14,645.28l1.24-14.02-11.19-23.91c.95,8.65,2.25,20.19,4.51,28.42.64,2.35,2.55,9.17,5.45,9.51ZM1010.56,614.02c-8.08.27-36.81,9.83-40.24,17.32-4.88,10.65,7.78,35.42,19.57,35.36,4.17-.02,30.1-10.93,34.07-13.72,13.67-9.59,5.85-39.6-13.4-38.97ZM959.29,659.26c.73-17.49-12.45-29.85-29.96-23.95-.93,3.81,1.4,3.84,3.35,5.62,4.52,4.12,13.73,11.9,18.53,15.43,2.74,2.02,4.05,3.75,8.08,2.89ZM1165.15,651.3h-7.98s0,3.96,0,3.96c3.73.52,6.91,0,7.98-3.96ZM1005.95,708.52c2.33,2.03,9.51,6.67,12.3,6.59,1.1-.03,19.91-6.47,20.83-7.08,11.93-7.97,7.29-37.3-5.89-43.87-4.32-2.16-9.69,4.44-13.93,6.09-8.85,3.44-33.8,7.39-28.53,20.37.45,1.12,13.69,16.55,15.23,17.89ZM1181.14,687.25c-5.14-4.27-5.92,9.25-6.33,9.74-1.23,1.49-7.37-2.28-5.64,4.22l5.98-.94c3.66,35.65,16.26,78.31,14.07,113.87-1.37,22.15-5.47,49.01-11.54,70.35-2.9,10.19-9.38,19.47-8.5,30.44,2.86-2.52,12.63-11.15,13.86-13.6,34.07-67.44,13.32-139.24-3.04-208.1-.62-2.61,1.44-5.75,1.15-5.99ZM901.33,701.23l-5.98.98c1.82,2.12,3.03,3.64,5.98,3v-3.97ZM1135.69,703.17c0-1.36-1.11-2.47-2.47-2.47s-2.47,1.1-2.47,2.47,1.11,2.47,2.47,2.47,2.47-1.1,2.47-2.47ZM1008.02,888.2c-61.98-53.89-71.24-116.5-121.62-171.05-1.77-1.92-11.05-7.67-13.04-5.92,7.38,10.33,14.91,20.72,21.02,31.9,14.97,27.41,25.69,60.65,40.6,87.26,6.18,11.03,28.88,35.32,31.33,42.71,1.12,3.39-1.58,7.19-1.01,7.88,3.72,4.51,3.44-5.16,5.97-3.97-.87,6.83,9.88,12.34,15.33,16.65,10.8,8.53,21,12.23,32.49,20.46,21.41,15.33,34.12,36.14,58.68,50.22,2.11,1.21,5.78-.18,7.09.87,1.09.87.19,6.75,3.52,7.55,1.86.45,8.52-1.51,6.82-5.85l-11.97-4.06c-2.86-4.49,8.07-4.16,3.97-7.95-.97-.89-6.29,3.42-9.95,1.1-2.03-1.28-11.32-14.91-14.04-18.15-1.42-1.7-9.86-4.72-5.97-8.91,2.23-2.4,8.55,6.35,11.03,2.04l-.06-16.02c4.62,4.62,14.16,16.72,5.01,18.95,3.18,3.95,8.6,2.07,12.1,5.89,2.64,2.89,4.49,10.89,7.13,14.94,1.05,1.62,4.05,1.85,4.51,2.49,1.13,1.56-2.36,4.74-1.37,7.23.16.41,6.33,5.98,7.59,4.41,3.18-3.97-5.68-14.84-3.98-19.95,10.24,1.07,10.44,12.46,19.95,15.97,1.52-24.49-6.76-50.43-15.58-73.3-23.17-60.09-63.67-99.82-111.25-140.47l-8.76-3.28c9.96,18.03,28.27,30.67,41.62,46.33,10.17,11.92,28.47,35.47,35,49.06,1.03,2.15-.93,4.94-.58,5.5.56.9,5.42,1.57,6.77,4.29s-1.68,5.72-.84,7.62c.18.41,2.81.49,3.63,1.84,2.47,4.07,3.46,8.53,8.02,11.56l-9.02,1.01c-4.31,8.06,10.76,1.16,14.15,7.98,1.94,3.92-2.71,9.89.65,17.19,2.83,6.17,8.41,2.6,4.24,10.73l7.98.04c.79,3.63-3.37,1.26-3.99,1.99-.8.95,3.25,3.41,3.73,5.43.59,2.45-2.13,6.36-1.75,6.53,4.03,1.78,9.22-.27,8.16,10.79-.13,1.39-7.16.89-4.13,5.2.26.36,8.56-4.87,7.97,3.97-2.59,0-7.92,3.28-9.82,1.9-.63-.46-7.04-13.01-7.27-13.75-1.25-3.99-.1-7.83-.88-10.77-.38-1.46-10.28-2.56,0-6.3-1.12-5.3-9.23-7.09-10.04-8.37-18.08-28.8-38.17-87.28-73.74-101.69-11.83-4.79,3.26,7.49,3.82,8.17,17.6,21.21,30.73,47.34,43.91,70.4,4.25,7.43,9.7,15.27,12.07,23.46l-12-2.97c2.09,5.7,1.9,7.37-2,11.95l7.98,3.99c-2.27-.01-4.44,2.03-6.69,1.61-2.69-.49-37.42-29.9-42.5-34.32ZM1027.26,723.22l.98,5.97c10.32,7.61,16.91,25.03,24.98,32.96,1.85,1.82,3.1,4.3,6.04,2.1,7.13-3.59,1.67-36.45-1.92-42.16-7.11-11.29-20.77-.64-30.08,1.14ZM1141.16,725.18c.39-.39-.2-4.37-.01-5.98-16.84,3.41-3,9,.01,5.98ZM964.6,755.82c-4.99-7.09-21.47-25-28.27-30.63-2.25-1.86-3.23-4.84-6.99-3.98-4.44,4.53,34.06,43.27,36,49.92,7.19-2.59,2.4-10.85-.74-15.31ZM1127.16,723.19c-4.44-3.72-11.73,7.13-9.97,11.98h11.98c-.29-1.95-1.54-11.59-2.01-11.98ZM1144.29,738.3c.81-1.41,3.29-3.93,1.9-5.08-9,1.86-15.41,5.84-5.04,11.94-1.55-4.65,2.27-5.35,3.14-6.86ZM893.33,801.09c-2.05-14.12-11.42-56.37-22.85-64.03-7.24-4.86-8.8-.83-7.03,6.67.34,1.46,3.08,1.52,3.74,3.01,6.53,14.73,8.53,28.4,16.56,42.97,2.19,3.98,5.4,9.26,9.58,11.37ZM1321.03,739.16l-6,.02.02,5.99,6-.02-.02-5.99ZM1123.17,749.14c0-9.26-6.65-3.47-10.54-4.34-2.68-.6-3.79-4.74-7.43-3.63l2.01,97.85c3.49-1.99,5.56-10.61,6.54-14.4,6.61-25.73,2.86-49.71-.57-75.47h9.99ZM1203.64,747.12c0-1.36-1.11-2.47-2.47-2.47s-2.47,1.1-2.47,2.47,1.11,2.47,2.47,2.47,2.47-1.1,2.47-2.47ZM1131.17,757.13v-7.97c-1.1-2.42-5.07,6.87-3.98,7.97h3.98ZM1139.16,753.14c-.42-.39-4.36.25-5.97,0,1.42,32.42.64,64.45-6.59,96.3-1.11,4.88-14.55,40.17-.96,23.01,18.22-23.02,19.89-68.07,17.61-96.39-.24-3-3.23-22.11-4.08-22.91ZM1151.15,757.13c2.27-2.32-.86-6.43-3.98-.98-.25,1.74,3.83,1.12,3.98.98ZM1153.16,773.1l-5.02-5.95c-4.33-.97-2.94,2.01-2.96,5.96h7.99ZM953.3,777.11c1.23-1.32-.45-6.99-3.02-7.96-6.94-2.63-.76,12.02,3.02,7.96ZM1007.25,781.12c-6.1,3.47-16.09-3.45-15.96,5.98,7.85-4.9,4.46,3.99,10.66,1.71,2.74-1.01,5.95-4.36,5.3-7.69ZM953.27,787.16c-8.04-6.24-.57,6.63-.46,7.22.44,2.31-2.13,5.9-1.49,6.69,3.67,4.54,3.46-5.17,5.97-3.97,3.76,19.03,19.26,38.28,31.99,52.93l-3.97,2.96c10.3,2.77,27.07,10.21,25.99,22,4.07.15,7.71-7.46,8.26-7.65,1.07-.36,5.09,2.43,9.66-2.38l-14.94-11.69c-6.83,6.58-3.62,2.44-5.7.55-19.31-17.51-33.67-50.2-47.07-61.42-2.8-2.34-5.81-.48-7.69-1.84-.98-.71-.32-3.24-.53-3.41ZM983.27,789.11c-2.76-.61-5.31,1.08-5.98,3.96h5.99s0-3.96,0-3.96ZM1089.21,799.08v10.01s4,0,4,0v-10.01s-4,0-4,0ZM953.29,809.08c.66-3.78-2.33-6.65-5.98-5.97l5.98,5.97ZM997.79,811.03c0-1.36-1.11-2.47-2.47-2.47s-2.47,1.1-2.47,2.47,1.11,2.47,2.47,2.47,2.47-1.1,2.47-2.47ZM999.27,815.09h-5.99s0,3.96,0,3.96c2.76.61,5.31-1.08,5.98-3.96ZM971.27,934.91c7.22-17.79-8.13-22.51-16.83-34.09-7.17-9.53-41.17-71.59-46.1-71.73-5.08-.14-1.24,12.04-.38,14.32,5.16,13.64,29.31,57.83,38.02,68.85,5.02,6.35,19.28,15.65,25.29,22.64ZM957.27,869.09c-1.73-2.6-15.73-2.58-9.97,1.91.98.76,6.19-1.23,5.95.97-.56,5.28-3.69,11.68,6.03,13.01,1.18-3.57-3.02-4.68-3.48-7.25s2.5-7.07,1.46-8.63ZM965.28,888.96c1.44-2.81-1.26-5.33-1.96-3.97-1.44,2.81,1.26,5.33,1.96,3.97ZM1039.23,886.99c-3.42-3.02-8.98,2.61-5.98,5.97,1.91,2.14,8.11-4.09,5.98-5.97ZM979.27,892.97c-4.49,7.85-13.42-2.68-13.95-2-4.14,5.37,14.78,16.72,17.96,13.97,1.66-1.43-5.49-8.66-4.01-11.97ZM1047.23,892.98c-1.94-2.09-9.12,3.75-2.96,5.96,4.22,1.51,3.64-5.23,2.96-5.96ZM933.83,898.92c0-1.36-1.11-2.47-2.47-2.47s-2.47,1.1-2.47,2.47,1.11,2.47,2.47,2.47,2.47-1.1,2.47-2.47ZM1144.68,932.41c.75-.73,10.7-15.83,11.48-17.47,1.22-2.58,5.01-10.91-.02-11.97-3.94-.83-13.34,17.77-16.13,21.79-1.71,2.47-6.13,5.57-6.81,7.19-2.26,5.36,9.34,2.56,11.48.47ZM1135.16,944.89l-.98-5.97c-2.12,1.82-3.65,3.03-3,5.97h3.98ZM1149.15,940.92h-3.98v5.97h3.98v-5.97ZM1141.16,950.88v-7.97c-1.1-2.42-5.07,6.87-3.98,7.97h3.98ZM1059.68,960.56c-1.45-.97-2.58-7.43-6.42-7.67-4.38,11.69,11.15,23.4,15.95,10.96,2.19-5.67-8.82-2.82-9.52-3.29ZM1171.14,954.9c-1.27-1.46-28.59,18.25-33.44,19.49-9.56,2.44-22.53,2.19-30.16,4.91-.61.22-4.88,6.68-10.33,6.54,5.74,9.04,38.6-2.52,39.95-.98s-.43,7.98-2.86,10.1c-5.69,4.97-18.24,4.74-23.11,11.84l32.75-1.5c4.2,2.46,6.87,4.52,2.25,7.54l-18.99,6.94c7.95,8.5,10.14-.82,10.83-.77,4.02.29,4.47,2.39,11.14.87,5.61-1.28,30.31-15.59,31.72-20.45,1.98-6.8-15.6-32.85-9.75-44.52ZM1065.22,980.86c-3.48-3.47-10.2,3.2-2.96,5.96,4.25,1.62,3.55-5.37,2.96-5.96Z"/>
          <path class="cls-2" d="M847.38,80.03c-3.2,7.1-9.03,5-4-2,2.17.25,3.1,1.71,4,2Z"/>
          <path class="cls-2" d="M779.43,527.48c1.45,1.52.97,4.27-2.84,3.85-7.05-.78-15.01-4.65-22.35-5.67-12.65-1.77-28.86-3.14-41.52-1.96-3.88.36-41.59,6.92-33.21,15.73,1.07,1.13,25.63-3.93,30.87-4.06,29.94-.71,83.1,12.2,109.63,26.42,33.59,18,55.39,51.27,83.29,76.55,26.62,24.12,57.36,43.44,81,70.85l24.93,29.99c-11.41-4.02-19.09-13.78-28.46-20.49-17.18-12.31-41.35-29.96-60.12-39.76-27.5-14.36-60.41-23.25-88.63-37.26-66.41-32.97-120.35-93.1-199.87-58.69-5.78,2.5-11.24,5.12-16.59,8.4,4.35-21.17,18.24-47.71,35-61.87,18.82-15.91,53.65-22.47,77.87-19.99,5.65.58,48.72,15.61,50.98,17.98ZM669.51,527.46c-9.37-.77-9.06,5.08-10,11.94,9.96,2.01,1.54-5.93,10-11.94ZM657.52,553.41c-15.47,8.42-6.08,16.63,0,2,12.35-1.42,24.52-3.5,37.02-3.99,4.15-.16,3.64-1.16,2.96-4.99-1.13-6.37-34.53,4.02-39.98,6.98ZM719.47,545.43h-17.99s0,5.97,0,5.97c6.26-.56,17.96,3.15,17.99-5.97ZM729.47,547.44l-7.98.97c3.09,4.36,6.16,3.88,7.98-.97ZM848.66,624.07c-46.03-26.47-91.63-63.05-147.16-62.66-.97,6,1.45,3.21,4.84,4.04,58.15,14.16,86.21,42.3,137.67,66.24,12.75,5.93,27.9,11.24,41.34,15.59,1.21-4.28-5.78-6.93-8.62-8.33-11.39-5.6-17.34-8.71-28.07-14.88ZM867.37,619.3c-21.58-28.15-55.33-45.7-89.92-51.9-3.08,2.69,9.15,9.51,10.62,10.34,10.7,6.04,23.46,11,34.68,17.27,14.47,8.08,28.21,20.56,44.62,24.29Z"/>
          <path class="cls-2" d="M1107.2,551.41c-10.77,52.64-28.13,105.28-26,159.78-3.21-.32-3.75-8.58-3.95-11-10.33-122.57,42.59-245.32,27.94-365.48-.74-6.1-3.19-22.35-9.96-23.02v-1.94c9.54-.18-.39-21.94-3.63-27.37-.57-.95-2.96-6.38-4.39-3.6,6.59,37.86,14.25,76.38,7.99,114.83-3.66-.77-3.69-3.92-4.05-6.92-1.32-11.04-.65-29.66-3.97-39.62-.6-1.8-2.45-1.63-3.93-1.43-.52-3.63,4.24,0,4.15-4.85s-1.62-14.62-2.26-20.01c-.31-2.63-3.04-4.62-3.3-6.4-.76-5.18,4.48-16.17-4.6-20.65v56.93c0,.35,3.17,4.01,1.99,4.98-.23.19-5.77.24-5.98.03-.4-.41-2.93-10.42-3.01-11-1.22-9.82,6.89-9.42-8.04-12.95-2.93,5.75-2.02,11.91-.98,17.94-.49.66-2.45-1.17-2.99-1.98-2.53-3.81-14.63-36.3-15.08-40.86-3.95-39.98,15.76-81.96,25.9-119.77,10.33-4.42,4.42,2.56,4.56,7.81.7,25.2,6.96,50.27,11.63,74.91l5.95-3.99c14.82,38.62,28.27,78.59,34,119.84l-8.01,2.97c7.66,2.91,6.3,7.59,5.99,15l-5.01-1.96c-4.92,5.49,6.13,4.13,7.06,6.96,2.77,8.43-7.94,3.27-8.05,5.99l8.11,4.31c-1.7,13.19.81,26.39-.12,39.61-1.97,28-12.17,58.75-17.96,86.91-.13.64.13,1.36,0,2l-1.99,2.98,1.99,1.02ZM1067.25,243.83c-2.91,14.36-7.3,30.3-8.19,44.93-.44,7.29.17,29.4,2.32,35.8,3.31,9.85,7.14,8.78,7.93-1.76,1.44-19.16.69-52.24-.09-72.01-.1-2.42,1.5-7.43-1.98-6.96ZM1051.22,293.74l-1.95-13.96c-1.18,3.47-2.79,12.32,1.95,13.96ZM1121.7,447.51c0-1.36-1.11-2.47-2.47-2.47s-2.47,1.1-2.47,2.47,1.11,2.47,2.47,2.47,2.47-1.1,2.47-2.47Z"/>
          <path class="cls-2" d="M1008.02,888.2c5.08,4.42,39.81,33.83,42.5,34.32,2.25.41,4.43-1.62,6.69-1.61l-7.98-3.99c3.9-4.57,4.09-6.25,2-11.95l12,2.97c-2.37-8.19-7.82-16.03-12.07-23.46-13.18-23.06-26.31-49.19-43.91-70.4-.57-.68-15.66-12.96-3.82-8.17,35.58,14.4,55.67,72.89,73.74,101.69.81,1.28,8.92,3.07,10.04,8.37-10.28,3.74-.38,4.84,0,6.3.77,2.95-.37,6.78.88,10.77.23.74,6.64,13.29,7.27,13.75,1.9,1.38,7.23-1.9,9.82-1.9.59-8.85-7.71-3.61-7.97-3.97-3.03-4.31,3.99-3.81,4.13-5.2,1.06-11.06-4.13-9.01-8.16-10.79-.39-.17,2.33-4.08,1.75-6.53-.48-2.01-4.53-4.48-3.73-5.43.62-.73,4.78,1.63,3.99-1.99l-7.98-.04c4.17-8.13-1.4-4.56-4.24-10.73-3.35-7.3,1.3-13.27-.65-17.19-3.38-6.82-18.46.08-14.15-7.98l9.02-1.01c-4.56-3.03-5.55-7.49-8.02-11.56-.82-1.35-3.45-1.43-3.63-1.84-.84-1.9,2.19-4.9.84-7.62s-6.21-3.39-6.77-4.29c-.35-.56,1.61-3.35.58-5.5-6.53-13.59-24.84-37.13-35-49.06-13.35-15.65-31.66-28.3-41.62-46.33l8.76,3.28c47.58,40.65,88.08,80.39,111.25,140.47,8.82,22.87,17.09,48.81,15.58,73.3-9.51-3.51-9.72-14.9-19.95-15.97-1.71,5.11,7.16,15.98,3.98,19.95-1.26,1.57-7.43-4-7.59-4.41-.99-2.48,2.49-5.67,1.37-7.23-.46-.64-3.46-.87-4.51-2.49-2.63-4.05-4.49-12.05-7.13-14.94-3.5-3.82-8.92-1.95-12.1-5.89,9.15-2.23-.39-14.33-5.01-18.95l.06,16.02c-2.48,4.31-8.8-4.44-11.03-2.04-3.89,4.19,4.55,7.21,5.97,8.91,2.72,3.24,12.01,16.87,14.04,18.15,3.66,2.32,8.98-1.99,9.95-1.1,4.11,3.79-6.82,3.45-3.97,7.95l11.97,4.06c1.7,4.33-4.95,6.3-6.82,5.85-3.34-.8-2.44-6.68-3.52-7.55-1.31-1.05-4.97.34-7.09-.87-24.56-14.07-37.28-34.88-58.68-50.22-11.49-8.23-21.69-11.93-32.49-20.46-5.45-4.31-16.2-9.82-15.33-16.65-2.53-1.19-2.25,8.48-5.97,3.97-.56-.68,2.14-4.49,1.01-7.88-2.45-7.39-25.15-31.67-31.33-42.71-14.91-26.61-25.63-59.85-40.6-87.26-6.11-11.19-13.64-21.57-21.02-31.9,2-1.75,11.27,4,13.04,5.92,50.38,54.56,59.64,117.16,121.62,171.05Z"/>
          <path class="cls-2" d="M1135.16,565.4c1.08,15.52,2.06,31.19,4.34,46.6,1.09,7.37,11.14,64.95,13.67,67.27.62.57,14.5-1.24,15.95-4.01,5.25,12.9-1.33,5.48-5.56,8.54-.88.63-.25,3.26-.45,3.43-1.24,1.05-5.36-6.88-7.99-2.95,5.94,15.2,6.5,37.25,12.43,51.64.33.79,14.76,7.51,6.56,9.27-5.29,1.14-.97-4.56-4.96-4-.25,8.83,2.06,17.36,2.83,26.07,3.27,37.1-2.27,66.83-15.32,102.27-1.81,4.92-6.93,10.92-7.52,14.61-1.55,9.79,7.61,10.42-6.97,12.86,2.3-21.44,12.53-43.98,14.75-65.15.63-6.03,1.45-28.87.23-33.45-.54-2.06-4.74-.65-4.02-2.27,4.4-9.9,4.65-17.83,3.54-29.35-4.43-46.05-22.04-94.1-25.5-140.46-1.14-15.27-1.88-43.5-.03-57.95.46-3.62-.68-3.25,3.99-2.95Z"/>
          <path class="cls-2" d="M968.78,501.96c20.85-3.34,31.3,21.93,25.4,39.36-4.38,12.97-40.51,21.65-52.36,16.57-9.81-4.2-15.04-26.69-10.99-35.96,3.54-8.09,29.46-18.62,37.94-19.98ZM967.3,539.46c-.88-1.07-13.96-1.4-16.62-2.4-3.18-1.2-3.09-4.22-4.5-5.49-8.74-7.86-7.82,2.73-3.99,9.98,8.53,16.17,30.02,3.87,25.11-2.09Z"/>
          <path class="cls-2" d="M925.33,387.64c.11.1-3.08,4.98-.04,2.97,22.31-6.32,35.13,21.29,29.63,39.57-1.42,4.73-17.65,11.52-22.75,13.21-23.65,7.83-36.43,7.08-38.79-20.83s7.5-19.33,23.46-28.48c2.82-1.62,5.69-9.17,8.49-6.45ZM906.37,415.6c-6.34,1.45-.68,16.78,2.94,18.98,4.22,2.56,21.01.18,22-4.03,1.78-7.53-14.63-3.53-18.07-5.87-2.32-1.58-2-10.18-6.87-9.07Z"/>
          <path class="cls-2" d="M1181.14,687.25c.29.24-1.77,3.38-1.15,5.99,16.37,68.86,37.11,140.66,3.04,208.1-1.23,2.44-11,11.07-13.86,13.6-.88-10.96,5.6-20.24,8.5-30.44,6.07-21.35,10.18-48.21,11.54-70.35,2.2-35.57-10.4-78.22-14.07-113.87l-5.98.94c-1.73-6.49,4.41-2.73,5.64-4.22.41-.5,1.2-14.01,6.33-9.74Z"/>
          <path class="cls-2" d="M1171.14,954.9c-5.85,11.67,11.73,37.73,9.75,44.52-1.42,4.87-26.11,19.17-31.72,20.45-6.67,1.52-7.12-.58-11.14-.87-.68-.05-2.88,9.28-10.83.77l18.99-6.94c4.62-3.02,1.94-5.08-2.25-7.54l-32.75,1.5c4.86-7.1,17.41-6.87,23.11-11.84,2.43-2.12,4.25-8.51,2.86-10.1s-34.2,10.02-39.95.98c5.45.14,9.72-6.32,10.33-6.54,7.62-2.72,20.6-2.48,30.16-4.91,4.85-1.24,32.17-20.95,33.44-19.49ZM1165.14,996.82c.84-7.86-.35-15.47-4.98-21.95-5.9,2.48-1.79,13.98.08,17.98,1.39,2.98-.32,4.94,4.9,3.97Z"/>
          <path class="cls-2" d="M961.3,449.55c6.19,4.69,1.06,9.99,2.23,14.58,1.27,4.96,13.05,5.93,9.76,15.39-.58,1.22,1.33,3.89-1.25,6.14-1.62,1.41-37.12,15.44-39.9,15.78-19.72,2.39-28.04-27.46-18.73-38.84,5.27-6.44,39.72-15.6,47.9-13.05ZM925.29,473.53c-4.94-4.32-6.62,11.64-.81,15.81,5.03,3.61,19.77-.75,22.83-3.87,5.4-5.49-15.29-3.6-18.03-4.94-3.39-1.66-3.46-6.54-3.99-7Z"/>
          <path class="cls-2" d="M1010.56,614.02c19.25-.64,27.07,29.37,13.4,38.97-3.97,2.78-29.9,13.7-34.07,13.72-11.8.06-24.45-24.71-19.57-35.36,3.43-7.49,32.16-17.06,40.24-17.32ZM1003.27,643.3c-11.26,1.64-15.35-2.16-21.96-10-.25,10.08-2.43,20.66,10.91,20.12,5.94-.24,12.49-3.13,11.05-10.13Z"/>
          <path class="cls-2" d="M882.84,284.24c7.38-2.01,18.91,1.35,23.66,7.34,2.75,3.47,9.04,22.71,8.75,27.04-.51,7.48-10.01,13.59-16.46,15.52-5.91,1.77-21.74,4.43-26.52,1.67-11.88-6.86-15.8-34.19-5.04-43.2,1.41-1.18,14.09-7.96,15.61-8.38ZM891.07,321.98c-.97-1.54-15.98-3.97-15.69-13.29-7.37-.9-3.02,16.19-.11,18.13,4.47,2.97,11.11-2.29,16.06.89-.18-1.82.57-4.4-.26-5.73Z"/>
          <path class="cls-2" d="M988.76,563.88c6.06-.96,14.99-1.67,19.46,3.56,3.82,4.47,7.09,22.96,4.07,27.94-2.8,4.62-35.74,16.05-42.04,16-12.92-.11-24.57-20.93-17.77-31.84,4-6.42,28.48-14.42,36.29-15.66ZM985.27,595.37c-9.56,1.21-19.67-1.85-22-11.99-7.89,2.97-3.07,17.62,3.43,19.61,6.03,1.84,23.38-3.99,18.57-7.62Z"/>
          <path class="cls-2" d="M911.34,341.69c2.21.89,8.78,2.96,9.98,4.02,2.24,1.98-7.8,1.84-3.96,5.96.41.44,9.72-2.4,11.97-2,9.17,16.39,6.32,26.25-12.39,32.56-15.93,5.37-34.52,8.45-40.21-10.92-6.37-21.66,18.3-27.27,34.62-29.62Z"/>
          <path class="cls-2" d="M918.78,568.85c-5.41,4.49-26.74,7.65-33.94,5.99-13.71-3.16-19.53-32.46-10.89-42.84,6.05-7.27,28.33-11.29,36.46-4.62,1.84,1.51,12.26,28.74,12.47,31.36.15,1.92-2.79,9.03-4.09,10.12ZM879.37,543.43c-1.14,12.37,1.21,24.94,16.52,21.54,20-4.44-4.42-9.33-6.54-10.57-3.52-2.06-3.26-12.04-9.98-10.97Z"/>
          <path class="cls-2" d="M862.95,413.99c18.79-1.64,26.68,35.21,14.36,44.5-31.93,24.04-66.66-39.94-14.36-44.5Z"/>
          <path class="cls-2" d="M1049.24,505.47c-10.91,3.9-8.43-14.21-18.01-8.88-1.98,5.23,2.19,14.09,6.43,16.52,4.32,2.47,8.87-6.93,11.58,4.35-2.37,13.64-24.74,22.83-36.1,13.1-6.22-5.33-12.04-28.8-8.39-36.6,3.85-8.25,28.04-14.83,36.41-9.36,8.84,5.77,7.45,12.01,8.07,20.88Z"/>
          <path class="cls-2" d="M1005.95,708.52c-1.54-1.35-14.78-16.78-15.23-17.89-5.27-12.98,19.69-16.93,28.53-20.37,4.25-1.65,9.61-8.25,13.93-6.09,13.18,6.57,17.83,35.89,5.89,43.87-.91.61-19.73,7.05-20.83,7.08-2.79.08-9.98-4.56-12.3-6.59ZM1003.28,687.25c-2.96,10.8,10.92,23.51,19.96,14.95,1.89-6.24-17.66-17.37-19.96-14.95Z"/>
          <path class="cls-2" d="M989.28,423.58c-1.84-7.43,6.66-9.23,11.98-10.01.45-4.2-5.88-.5-7.72-2.25-.83-.79.11-4.89-2.26-6.75-1.42-1.11-11.01-1.02-4.85-5.05,3.18-2.08,10.28.39,8.84-5.89-8.51-1.81-16.33.48-14.13,10.63.52,2.42,6,1.42,5.86,5.89-.19,6.16-4.78,9.04-9.7,11.43-1.03-.4-2.33.84-4.1-1.32-4.31-5.23-11.5-26.38-9.47-33.22,2.85-9.63,21.37-14.76,30.46-13.27,19.46,3.18,29.76,46.81-4.89,49.81ZM1009.26,403.59c.61-2.76-1.08-5.31-3.97-5.98v5.98s3.97,0,3.97,0Z"/>
          <path class="cls-2" d="M946.72,272.45c.37.11.38,2.24,2.22,3.17,1.5.76,4.07-.76,6.57,1.43,7.21,6.28,13.99,30.96,3.72,37.6-.77.5-15.97,6.96-16.88,6.99-3.92.13-17.18-9.72-18.51-12.37-.6-1.2-4.85-24.49-4.67-26.52,1.13-12.99,17.63-13.32,27.56-10.28ZM935.29,287.76c-5.94-5.06-4.62,15.42-2.19,18.8s13.47,1.07,12.21-3.8c-7.6-1.16-9.23-14.32-10.02-15Z"/>
          <path class="cls-2" d="M1060.72,580.88c-4.15,4.55-24.59,6.48-29.51,3.52-2.8-1.68-7.68-18.45-7.64-22.04.23-18.98,43.9-36.07,43.69-3.95-.02,2.68-5.25,21.04-6.54,22.46Z"/>
          <path class="cls-2" d="M828.93,304.26c11.73-1.64,16.94.85,20.8,12.1,4.16,12.1,6.18,31.67-9.8,34.85-17.19,3.42-27.03,1.34-30.03-16.99-2.45-14.95,3.26-27.76,19.03-29.96ZM837.38,343.65c4.02-6.08-7.54-8.84-9.91-11.03s-5.16-10.8-7.07-10.87c-4.87-.18-5.16,22.57,6.1,24,1.93.25,10.53-1.56,10.88-2.1Z"/>
          <path class="cls-2" d="M1015.26,429.57c1.13,4.14,6.08,4.74,8.06,7.47,4.75,6.57,7.96,26.12-4.07,21.48l-3.97-8.97c.29,3.31-.8,7.73.23,10.74,1.56,4.55,9.23.89,7.75,7.22-9.2,6.21-22.87,14-31.71,2.73-12.03-15.35-8.49-30.37,9.77-37.63,4.34-1.73,10.97-1.75,13.95-3.05Z"/>
          <path class="cls-2" d="M891.59,591.59c24.68-8.33,42.6-16.24,47.32,17.27,1.72,12.21-10.17,16.59-20.69,16.18-7.84-.3-32.15-25.55-26.63-33.45Z"/>
          <path class="cls-2" d="M950.89,359.97c-.6-1.01-4.59-.21-5.63-5.24-3.87-18.7,9.83-32.68,28.16-28.18,10.89,2.68,15.36,18.12,13.28,27.84-1.69,7.91-34.36,19.44-36.97,9.98-.33-1.2,1.63-3.62,1.15-4.41Z"/>
          <path class="cls-2" d="M892.79,476.07c5.3,5.29,8.79,24.17,2.66,30.51-15.45,16.01-41.75,7.87-42.16-14.05-.33-17.94,29.73-26.21,39.49-16.47ZM869.23,487.61c-.73-.61-4.17.13-5.84-.12.01,4.44-.58,10.82,1.83,14.66,2.04,3.25,15.06,4.43,16.15,3.32,4.92-5.01-7.97-8.09-10.15-10.9-1.72-2.22-1.72-6.72-1.99-6.95Z"/>
          <path class="cls-2" d="M971.27,934.91c-6-6.99-20.27-16.29-25.29-22.64-8.71-11.03-32.87-55.21-38.02-68.85-.86-2.29-4.7-14.47.38-14.32,4.93.14,38.93,62.2,46.1,71.73,8.7,11.57,24.06,16.3,16.83,34.09Z"/>
          <path class="cls-2" d="M864.78,395.03c-8.59,10.01-35.24,11.77-38.96-4.83-.85-3.81-1.32-17.93.49-20.64,3.43-5.13,25.68-7.64,31.86-3.71,4.65,2.96,10.55,24.57,6.61,29.17Z"/>
          <path class="cls-2" d="M819.12,427.85c-.6,13.05,18.06,37.86,2.77,45.16-39.53,18.88-47.08-55.88-2.77-45.16ZM803.24,445.7c-.85-.68-4.11.1-5.81-.16-4.72,10.65,9.17,24.9,18.02,19.05,8.09-5.34-4.9-5.76-7.44-7.67-3.31-2.49-4.3-10.84-4.77-11.22Z"/>
          <path class="cls-2" d="M998.69,312.15c19.35-5.69,31.07,13.81,30.66,30.64-.21,8.41-17.49,18.89-24.73,16.66s-4.61-16.62-5.79-22.31c-1.47-7.1-15.26-20.53-.14-24.98Z"/>
          <path class="cls-2" d="M1064.63,414.21c6.94,5.14,10.59,23.73,8.17,31.94-1.93,6.56-15.65,13.14-22.23,11.48-2.08-.52-14.03-30.02-15.05-34.62,4.47-8.55,20.96-14.83,29.11-8.8Z"/>
          <path class="cls-2" d="M816.83,487.93c3.99-.9,17.63-1.58,19.68,1.45-1.49,12.95,14.92,31.54-1.22,36.96-31.47,10.57-39.23-33.73-18.46-38.41Z"/>
          <path class="cls-2" d="M1035.25,405.6c-1.64.35-4.43,3.59-7.94,1.97,1.61-13.1-19.13-33.78-6-42.87,21.57-14.94,51.04,30.22,17.94,40.9,4.22-6.08-3.75-8.42-4,0Z"/>
          <path class="cls-2" d="M953.27,787.16c.22.17-.45,2.7.53,3.41,1.88,1.36,4.9-.5,7.69,1.84,13.4,11.22,27.76,43.91,47.07,61.42,2.08,1.89-1.13,6.03,5.7-.55l14.94,11.69c-4.57,4.81-8.6,2.02-9.66,2.38-.55.19-4.19,7.8-8.26,7.65,1.09-11.79-15.69-19.23-25.99-22l3.97-2.96c-12.73-14.65-28.23-33.9-31.99-52.93-2.51-1.2-2.3,8.51-5.97,3.97-.64-.8,1.93-4.39,1.49-6.69-.11-.59-7.57-13.46.46-7.22Z"/>
          <path class="cls-2" d="M1139.16,753.14c.85.8,3.84,19.91,4.08,22.91,2.27,28.32.61,73.37-17.61,96.39-13.58,17.16-.15-18.12.96-23.01,7.24-31.85,8.01-63.88,6.59-96.3,1.62.25,5.55-.39,5.97,0Z"/>
          <path class="cls-2" d="M886.89,269.32c-5.14,5.05-29.74,11.54-35.58,3.02-19.24-28.07,42.09-48.1,37.89-9.7-.21,1.95-.97,5.36-2.31,6.68Z"/>
          <path class="cls-2" d="M1115.18,593.37c1.04,32.49-.51,68.29,9.35,99.21l.63,26.6c-3.38.43-1.91-4.89-5.19-5.89-2.69-.83-7.44,2.61-10.77,1.9l7.99-4c-3.32-14.59-8.9-29.82-10.07-44.86-1.51-19.49.55-50.71,4.13-69.97.61-3.27-1.31-3.45,3.92-3Z"/>
          <path class="cls-2" d="M791.42,319.7c-3.9,11.38,18.55,36.83,8.62,44.09-29.39,21.48-43.25-45.25-8.62-44.09Z"/>
          <path class="cls-2" d="M935.04,257.52c-.54.84-16.91,6.07-18.96,6.23-15.67,1.22-27.76-32.17-1.58-35.82,8.69-1.21,18.31,1.91,20.4,11.32.67,3.01,1.2,16.62.15,18.27Z"/>
          <path class="cls-2" d="M809.42,377.63c-2.88,7.65,7.08,28.47,3.71,33.7-.57.89-18.17,6.46-20.3,5.96-3.57-.84-8.95-8.39-10.08-12-6.93-22.34,6.49-29.21,26.66-27.66Z"/>
          <path class="cls-2" d="M975.3,305.72l6.02-5.01c-.06-6.26-12.78-32.85-11.94-35.72,2.56-8.74,24.54-1.99,29.44,8.23,11.47,23.89-.37,31.36-23.53,32.5Z"/>
          <path class="cls-2" d="M1027.26,723.22c9.31-1.77,22.97-12.42,30.08-1.14,3.6,5.71,9.05,38.57,1.92,42.16-2.94,2.2-4.19-.28-6.04-2.1-8.07-7.93-14.66-25.35-24.98-32.96l-.98-5.97Z"/>
          <path class="cls-2" d="M852.89,202.4c4.52-.67,12.2-2,15.54,1.4,2.48,2.53,5.89,17.32,4.74,20.74-.84,2.49-26.53,11.5-28.58,11.02-5.19-1.24-10.81-18.76-8.9-24.35,1.54-4.52,12.68-8.14,17.2-8.81Z"/>
          <path class="cls-2" d="M1123.17,749.14h-9.99c3.43,25.77,7.19,49.75.57,75.48-.97,3.79-3.05,12.42-6.54,14.4l-2.01-97.85c3.64-1.11,4.75,3.03,7.43,3.63,3.89.87,10.53-4.92,10.54,4.34Z"/>
          <path class="cls-2" d="M829.76,195.54c-.54-.32-5.61-9.66-5.94-11.06-8.62-37.1,50.04-22.47,32.46,3.32-3.06,4.49-23.23,9.68-26.52,7.74ZM837.9,179.37c-1.99-1.21-1.48-6.84-6.49-5.46-1.82,12.48,6.32,18.75,15.94,8.98-2.13-3.8-6.97-2.02-9.45-3.52Z"/>
          <path class="cls-2" d="M948.81,218.21c11.9-2.37,22.2,8.04,24.09,19.14,2.17,12.76-10.92,24.45-20.51,12.37-2.38-3-11.54-25.73-10.22-27.89.91-1.49,4.78-3.25,6.64-3.62Z"/>
          <path class="cls-2" d="M807.83,291.31c-7.23-4.15-8.65-28.78,7.44-32.65,20.3-4.89,27.74,22.37,16.75,28.72-3.6,2.08-20.81,5.87-24.19,3.93ZM814.98,272.33c-1.72-1.06-3.69-.45-5.56-.56-4.14,9.86,5.6,18.63,14.04,13.05,6.77-4.48-3.93-6.85-5.92-8.31-1.55-1.14-2.04-3.86-2.57-4.18Z"/>
          <path class="cls-2" d="M801.96,218.39c.72-.58,11.31-4.36,12.44-4.38,10.25-.18,15.85,21.88,9.96,27.78-1.84,1.84-13.52,5.89-16.19,6.01-13.94.6-13.08-23.84-6.22-29.41Z"/>
          <path class="cls-2" d="M1061.22,595.36c-.57,6.1-4.16,44.58-6.08,45.87-5,3.35-11.57-4.99-13.23-9.53-7.25-19.88-1.01-31.58,19.31-36.33Z"/>
          <path class="cls-2" d="M904.85,190.4c5.22,2.98,9.11,20.32,6.15,25.13-.96,1.55-17.27,7.1-20.33,6.09-5.45-1.8-12.45-18.74-11-24.28,2.16-8.24,19.21-10.36,25.19-6.94ZM895.17,204.01c.39.26,2.74,7.85,5.17,7.81.36,0,4.64-4.19,4.83-5.24.67-3.64-14.58-19.52-15.82-3.69-.5,6.4,4.5.24,5.82,1.12Z"/>
          <path class="cls-2" d="M793.75,205.52c-3.83-2.36-5.51-18.67-3.28-23.6,2.3-5.1,14.03-10.77,19.08-7.15,2.38,1.71,6.9,21.21,4.92,25.12-2.25,4.44-17,7.91-20.71,5.63Z"/>
          <path class="cls-2" d="M1067.22,469.52c1.88-1,9.6-8.09,13.88-3.88,3.54,3.49-4.39,42.19-6.12,43.59-8.65,7-8.13-9.18-9.9-14.61-3.8-11.7-12.55-12.73-1.86-23.1.08,3.68,1.98,6.72,5.99,5.98l-1.99-7.98Z"/>
          <path class="cls-2" d="M830.92,124.48c4.27,1.72,12.26,16.31,10.26,22.18-1.18,3.46-19.03,8.07-22.39,7.4-10.31-2.06-5.94-36.85,12.13-29.58Z"/>
          <path class="cls-2" d="M924.65,178.19c11.08-3.64,23.94,6.76,25.88,17.64,1.66,9.33-11.33,15.31-18.36,10.18-3.43-2.51-14.73-25.45-7.52-27.82Z"/>
          <path class="cls-2" d="M785.19,272.02c-.03,10.71,12.76,30.18-1.21,33.28-22.62,5.01-21.44-39.19,1.21-33.28Z"/>
          <path class="cls-2" d="M893.33,801.09c-4.18-2.11-7.39-7.39-9.58-11.37-8.03-14.57-10.03-28.25-16.56-42.97-.66-1.49-3.39-1.55-3.74-3.01-1.77-7.5-.21-11.53,7.03-6.67,11.42,7.66,20.79,49.91,22.85,64.03Z"/>
          <path class="cls-2" d="M887.36,157.93c-8.83,5.32-6.16,14.39,4,15.98-2.82,7.53-12.01,12.47-18.59,8.16-1.07-.7-11.01-21.9-10.91-23.17.67-8.43,17.76-8.9,25.5-.97Z"/>
          <path class="cls-2" d="M917.33,151.93l-1.03,11.96-8.96-9.95,1.99,13.97c-.73-.28-2.56.54-3.52-.41-1.59-1.58-6.25-15.12-9.54-19.53-2.41-3.23-8.18-3.51-6.91-7,3.85-10.57,20.56-3.61,26.08,3.94,2.14,2.93,1.2,5.46,1.88,7.02Z"/>
          <path class="cls-2" d="M777.42,223.85c-1.95,9.91,10.37,29.13-1.92,33.1-20.37,6.58-15.32-30.67,1.92-33.1Z"/>
          <path class="cls-2" d="M964.6,755.82c3.14,4.46,7.92,12.72.74,15.31-1.94-6.66-40.43-45.4-36-49.92,3.76-.86,4.74,2.12,6.99,3.98,6.8,5.63,23.29,23.55,28.27,30.63Z"/>
          <path class="cls-2" d="M869.37,127.96l-4.99,5.99.96-7.01c-7.27-1.38-7.88,7.95-5.02,13.08,2.03,3.65,11.27-3.51,15.06-2.07-.05,7.27-21.1,10.96-21.98,10-.52-.57.57-6.09-.07-8.5-.56-2.13-3.56-2.71-3.94-3.5,8.75,1.46,9.04-5.38,0-3.99-.21-.55.17-1.34,0-2,10.9-2.28,5.42-11.16,0-2-.33-.84-8.8-9.1.98-10.18,10.06-1.11,13.48,3.47,19.01,10.18Z"/>
          <path class="cls-2" d="M805.2,159.7c-.99,1.42-14.6,3.07-17.76,4.22-.21-8.27-5.26-16.06,2.08-22.87,15.63-14.52,17.28,16.35,15.68,18.65Z"/>
          <path class="cls-2" d="M777.43,177.91c.08,4.74-3.64,8.44-3.86,13.11-.22,4.74,8.72,24.03-4.71,20.6s-9.94-36.55,8.57-33.71Z"/>
          <path class="cls-2" d="M959.29,659.26c-4.02.86-5.34-.87-8.08-2.89-4.8-3.54-14.01-11.31-18.53-15.43-1.95-1.78-4.28-1.81-3.35-5.62,17.51-5.9,30.69,6.46,29.96,23.95Z"/>
          <path class="cls-2" d="M813.41,96.01c-4.65,7.4-.91,13.09,2,19.97-1.58.56-4.15,4.89-7.36,5.5-8.62,1.66-15.02-18.21-3.38-25.25,5.96-3.6,5.37-1.08,8.73-.23Z"/>
          <path class="cls-2" d="M1144.68,932.41c-2.14,2.1-13.74,4.89-11.48-.47.68-1.62,5.1-4.72,6.81-7.19,2.79-4.02,12.19-22.62,16.13-21.79,5.04,1.06,1.24,9.4.02,11.97-.78,1.64-10.73,16.74-11.48,17.47Z"/>
          <path class="cls-2" d="M851.38,104c6.57-.77,5.91,5.09,0,3.98-.26-1.26.27-2.92,0-3.98-4.29.5-.67,4.32-2.11,5.85-.64.68-7.6.09-9.88.14.5,6.87-4.03,10.38-5.98,4.97-2.19-6.08,1.76-4.89,5.98-4.97-.37-5.07-6.46-10.18-5.99-15.97,11.73-.04,14.95-1.47,17.98,9.97Z"/>
          <path class="cls-2" d="M889.35,117.98c5.98,8.84-9.13,10.92-9.98,10-.27-.29.3-5.24-1.06-7.9-1.45-2.84-11.25-8.94-8.94-12.06,3.38-.29,7.43-2.85,10.77-2.18,2.33.47.85,3.73,1.21,4.15-10.63-.92,2.05,15.72,7.99,7.99Z"/>
          <path class="cls-2" d="M1161.14,645.28c-2.89-.34-4.8-7.15-5.45-9.51-2.25-8.23-3.56-19.77-4.51-28.42l11.19,23.91-1.24,14.02Z"/>
          <path class="cls-2" d="M773.43,143.95v19.98c-14.16,4.15-13.05-21.62,0-19.98Z"/>
          <path class="cls-2" d="M785.41,111.99c3.7,11.04,3.95,17.8-9.97,15.97-1.34-6.88,1.88-15.24,9.97-15.97Z"/>
          <path class="cls-2" d="M849.36,555.41c-3.5-1.06-18.34-10.81-12-15.01,10.97-4.03,13.32,5.97,12,15.01Z"/>
          <path class="cls-2" d="M1059.68,960.56c.7.47,11.71-2.39,9.52,3.29-4.8,12.45-20.32.74-15.95-10.96,3.84.24,4.98,6.7,6.42,7.67Z"/>
          <path class="cls-2" d="M979.27,892.97c-1.48,3.31,5.67,10.54,4.01,11.97-3.18,2.75-22.1-8.6-17.96-13.97.53-.68,9.46,9.84,13.95,2Z"/>
          <path class="cls-2" d="M1127.16,723.19c.47.39,1.72,10.02,2.01,11.98h-11.98c-1.77-4.85,5.53-15.7,9.97-11.98Z"/>
          <path class="cls-2" d="M957.27,869.09c1.04,1.56-1.93,6.05-1.46,8.63s4.66,3.68,3.48,7.25c-9.73-1.33-6.59-7.74-6.03-13.01.23-2.19-4.97-.2-5.95-.97-5.77-4.49,8.23-4.51,9.97-1.91Z"/>
          <path class="cls-2" d="M1007.25,781.12c.64,3.32-2.56,6.67-5.3,7.69-6.19,2.29-2.81-6.61-10.66-1.71-.13-9.43,9.86-2.51,15.96-5.98Z"/>
          <path class="cls-2" d="M983.29,489.48c-.79-.67,2.63-7.62,2.01-9.97l2.95.02c7.83,4.53-.99,13.33-4.96,9.95Z"/>
          <path class="cls-2" d="M1144.29,738.3c-.87,1.51-4.69,2.21-3.14,6.86-10.37-6.11-3.96-10.08,5.04-11.94,1.39,1.16-1.08,3.68-1.9,5.08Z"/>
          <rect class="cls-2" x="1086.2" y="802.08" width="10.01" height="4.01" transform="translate(285.88 1894.37) rotate(-89.93)"/>
          <path class="cls-2" d="M953.3,777.11c-3.78,4.06-9.96-10.59-3.02-7.96,2.57.97,4.25,6.64,3.02,7.96Z"/>
          <path class="cls-2" d="M1153.16,773.1h-7.99c.02-3.94-1.36-6.93,2.96-5.95l5.02,5.95Z"/>
          <path class="cls-2" d="M1141.16,725.18c-3.01,3.02-16.85-2.57-.01-5.98-.19,1.61.41,5.59.01,5.98Z"/>
          <path class="cls-2" d="M1039.23,886.99c2.14,1.88-4.06,8.11-5.98,5.97-3-3.37,2.55-8.99,5.98-5.97Z"/>
          <path class="cls-2" d="M1065.22,980.86c.59.59,1.29,7.58-2.96,5.96-7.24-2.76-.52-9.44,2.96-5.96Z"/>
          <path class="cls-2" d="M1165.15,651.3c-1.07,3.97-4.26,4.48-7.98,3.96v-3.97s7.98,0,7.98,0Z"/>
          <path class="cls-2" d="M1047.23,892.98c.68.73,1.26,7.47-2.96,5.96-6.17-2.21,1.02-8.05,2.96-5.96Z"/>
          <path class="cls-2" d="M1141.16,950.88h-3.98c-1.09-1.1,2.88-10.39,3.97-7.97v7.97Z"/>
          <rect class="cls-2" x="1145.18" y="940.92" width="3.98" height="5.97"/>
          <path class="cls-2" d="M1131.17,757.13h-3.98c-1.09-1.1,2.88-10.39,3.97-7.97v7.97Z"/>
          <path class="cls-2" d="M901.33,701.23v3.97c-2.95.65-4.16-.88-5.98-3l5.98-.98Z"/>
          <path class="cls-2" d="M953.29,809.08l-5.98-5.97c3.64-.68,6.64,2.19,5.98,5.97Z"/>
          <path class="cls-2" d="M1047.23,237.81h-3.98s0-5.98,0-5.98c2.89.67,4.58,3.23,3.97,5.98Z"/>
          <path class="cls-2" d="M983.27,789.11v3.97s-5.98,0-5.98,0c.67-2.89,3.23-4.58,5.98-3.96Z"/>
          <path class="cls-2" d="M1135.16,944.89h-3.98c-.65-2.94.88-4.15,3-5.97l.98,5.97Z"/>
          <path class="cls-2" d="M999.27,815.09c-.67,2.89-3.23,4.58-5.98,3.96v-3.97s5.98,0,5.98,0Z"/>
          <circle class="cls-2" cx="931.36" cy="898.92" r="2.47"/>
          <circle class="cls-2" cx="995.32" cy="811.03" r="2.47"/>
          <circle class="cls-2" cx="1201.17" cy="747.12" r="2.47"/>
          <path class="cls-2" d="M1141.19,469.52c-1.33-2.5,3.2-6.96,3.96-5.99,1.33,2.5-3.2,6.96-3.96,5.99Z"/>
          <circle class="cls-2" cx="1133.22" cy="703.17" r="2.47"/>
          <path class="cls-2" d="M971.28,371.64c-2.32,2.27-6.43-.85-.98-3.97,1.74-.25,1.13,3.83.98,3.97Z"/>
          <path class="cls-2" d="M1049.24,513.46c.18-1.94.04-4.04,0-5.99,2.46,1.98,2.46,4.01,0,5.99Z"/>
          <path class="cls-2" d="M1151.15,757.13c-.14.15-4.23.76-3.98-.98,3.12-5.45,6.25-1.34,3.98.98Z"/>
          <path class="cls-2" d="M965.28,888.96c-.69,1.36-3.39-1.17-1.96-3.97.69-1.36,3.39,1.17,1.96,3.97Z"/>
          <path class="cls-2" d="M738.76,390.32c-5.04-4.9-16.62-14.71-22.29-18.67-2.41-1.68-9.91-6.43-12.98-5.01,11.79,11.61,27.04,28.01,35.58,42.34,6.57,11.03,7.54,19.95,12.31,30.04,3.12,6.59,6,13.4,10.05,19.51.43,1.35-1.9,1.45-2.96.97-7.09-3.2-27.15-47.27-37.33-54.58-6.85-3.91-9.61-11.79-14.32-16.62-.83-.85-6.52-5.11-5.36.33l67.98,110.81c-22.07-5.53-31.46-15.23-43.6-33.31-20.77-30.95-26.35-69.49-47.51-100.33-9.01-13.14-21.89-23.78-30.8-37.13.78-2.45,4.29-.46,6.05-.06,16.85,3.83,52.87,17.32,66.54,27.38,4.11,3.03,31.05,28.95,32.27,31.67,2.59,5.77,2.02,17.18,4.07,23.87-5.61-6.32-11.82-15.52-17.71-21.23Z"/>
          <path class="cls-2" d="M821.4,115.98c-.65.14-1.4-.17-2,0l1-1.96,1,1.96Z"/>
          <path class="cls-1" d="M848.66,624.07c10.73,6.17,16.68,9.27,28.07,14.88,2.84,1.4,9.83,4.05,8.62,8.33-13.44-4.36-28.59-9.66-41.34-15.59-51.46-23.94-79.51-52.07-137.67-66.24-3.39-.83-5.81,1.96-4.84-4.04,55.53-.39,101.13,36.19,147.16,62.66Z"/>
          <path class="cls-1" d="M867.37,619.3c-16.41-3.73-30.15-16.21-44.62-24.29-11.22-6.27-23.98-11.23-34.68-17.27-1.47-.83-13.69-7.65-10.62-10.34,34.59,6.2,68.34,23.75,89.92,51.9Z"/>
          <path class="cls-1" d="M657.52,553.41c5.45-2.96,38.85-13.35,39.98-6.98.68,3.82,1.19,4.82-2.96,4.99-12.5.49-24.67,2.57-37.02,3.99v-2Z"/>
          <path class="cls-1" d="M719.47,545.43c-.03,9.12-11.73,5.41-17.99,5.97v-5.98s17.99,0,17.99,0Z"/>
          <path class="cls-1" d="M729.47,547.44c-1.82,4.85-4.89,5.33-7.98.97l7.98-.97Z"/>
          <path class="cls-1" d="M1067.25,243.83c3.48-.47,1.88,4.54,1.98,6.96.78,19.78,1.53,52.85.09,72.01-.79,10.54-4.63,11.61-7.93,1.76-2.15-6.41-2.76-28.51-2.32-35.8.89-14.63,5.28-30.56,8.19-44.93Z"/>
          <path class="cls-1" d="M967.3,539.46c4.91,5.97-16.58,18.26-25.11,2.09-3.83-7.25-4.74-17.84,3.99-9.98,1.41,1.26,1.31,4.29,4.5,5.49,2.65,1,15.74,1.33,16.62,2.4Z"/>
          <path class="cls-1" d="M906.37,415.6c4.87-1.11,4.55,7.49,6.87,9.07,3.44,2.35,19.85-1.65,18.07,5.87-1,4.21-17.79,6.6-22,4.03-3.62-2.2-9.28-17.53-2.94-18.98Z"/>
          <path class="cls-1" d="M1165.14,996.82c-5.22.97-3.51-1-4.9-3.97-1.87-4-5.98-15.5-.08-17.98,4.63,6.48,5.81,14.09,4.98,21.95Z"/>
          <path class="cls-1" d="M925.29,473.53c.53.46.6,5.34,3.99,7,2.73,1.34,23.42-.56,18.03,4.94-3.06,3.11-17.79,7.48-22.83,3.87-5.81-4.17-4.13-20.13.81-15.81Z"/>
          <path class="cls-1" d="M1003.27,643.3c1.44,7-5.11,9.89-11.05,10.13-13.34.54-11.16-10.04-10.91-20.12,6.61,7.84,10.71,11.63,21.96,10Z"/>
          <path class="cls-1" d="M891.07,321.98c.83,1.33.08,3.92.26,5.73-4.95-3.19-11.59,2.07-16.06-.89-2.92-1.94-7.26-19.03.11-18.13-.29,9.32,14.72,11.75,15.69,13.29Z"/>
          <path class="cls-1" d="M985.27,595.37c4.81,3.62-12.55,9.46-18.57,7.62-6.5-1.99-11.32-16.64-3.43-19.61,2.33,10.14,12.44,13.2,22,11.99Z"/>
          <path class="cls-1" d="M879.37,543.43c6.72-1.06,6.46,8.91,9.98,10.97,2.11,1.24,26.54,6.13,6.54,10.57-15.31,3.4-17.66-9.17-16.52-21.54Z"/>
          <path class="cls-1" d="M1003.28,687.25c2.31-2.43,21.85,8.7,19.96,14.95-9.04,8.56-22.92-4.15-19.96-14.95Z"/>
          <path class="cls-1" d="M935.29,287.76c.79.68,2.42,13.83,10.02,15,1.26,4.87-9.82,7.13-12.21,3.8s-3.75-23.86,2.19-18.8Z"/>
          <path class="cls-1" d="M837.38,343.65c-.35.54-8.95,2.34-10.88,2.1-11.26-1.43-10.97-24.18-6.1-24,1.91.07,4.61,8.58,7.07,10.87s13.92,4.95,9.91,11.03Z"/>
          <path class="cls-1" d="M869.23,487.61c.28.23.28,4.73,1.99,6.95,2.17,2.81,15.06,5.89,10.15,10.9-1.09,1.11-14.11-.06-16.15-3.32-2.41-3.84-1.82-10.22-1.83-14.66,1.68.25,5.11-.49,5.84.12Z"/>
          <path class="cls-1" d="M803.24,445.7c.48.38,1.46,8.73,4.77,11.22,2.54,1.91,15.52,2.33,7.44,7.67-8.86,5.85-22.74-8.4-18.02-19.05,1.7.25,4.96-.52,5.81.16Z"/>
          <path class="cls-1" d="M837.9,179.37c2.48,1.51,7.32-.27,9.45,3.52-9.62,9.78-17.75,3.5-15.94-8.98,5.01-1.39,4.51,4.25,6.49,5.46Z"/>
          <path class="cls-1" d="M814.98,272.33c.53.32,1.02,3.04,2.57,4.18,1.99,1.46,12.69,3.83,5.92,8.31-8.44,5.58-18.19-3.19-14.04-13.05,1.87.11,3.84-.5,5.56.56Z"/>
          <path class="cls-2" d="M973.29,463.53c-1.44,5.39-7.88-1.55-5.98-3.99.86-1.11,4.1,4.24,5.98,3.99Z"/>
        </g>
      </g>
    </g>
  </g>
</svg>