<svg width="387" height="175" viewBox="5 1 74 34" fill="none" xmlns="http://www.w3.org/2000/svg"><path d="M64.6885 3.86108C64.8623 3.85696 68.8297 3.80551 71.3027 6.45288C72.7493 8.00106 73.368 10.0776 73.1406 12.6257C72.6719 17.9369 69.8975 20.0423 67.582 20.6511C68.1416 23.1532 70.5841 31.2958 76.2754 31.5671L75.9121 34.7185C67.0161 34.2787 65.2897 23.7924 65.0752 23.1765L64.7695 29.8064L61.6992 29.0896L63.2637 3.89136L64.6885 3.86108ZM6.99707 6.59741C7.1744 6.5602 11.3916 5.70245 14.5674 8.13745C16.5419 9.65468 17.6341 12.0254 17.8066 15.1843C18.0975 20.4552 15.9866 23.2423 14.167 24.6531C13.0478 25.5171 11.9196 25.9707 11.1055 26.2058L11.8828 32.5837L8.66699 34.0203L5.5 6.91479L6.99707 6.59741ZM23.7842 28.95L20.7227 29.7302L19.8496 16.8943L22.9111 16.0925L23.7842 28.95ZM77.708 18.8767C77.7024 18.9162 77.1315 22.9073 76.3848 29.2234C75.4614 29.2971 74.0147 28.6829 73.3594 27.8357C74.2828 20.1906 74.6191 17.988 74.6191 17.988L77.708 18.8767ZM26.2275 2.73804C26.3931 2.71309 30.3224 2.16052 33.1104 4.47632C34.7391 5.82959 35.6176 7.81267 35.7129 10.3689C35.9085 15.4906 33.6156 17.9432 31.459 18.9207C32.992 22.0045 34.671 24.7838 37.4053 26.4001L35.8174 29.0886C32.6653 27.2244 30.7319 24.7374 28.9805 20.9119L29.3213 27.8894L26.2324 28.4646L24.8174 2.948L26.2275 2.73804ZM60.1846 15.5974L59.3477 28.6677L56.2539 28.1433L57.0908 15.0466L60.1846 15.5974ZM46.4678 1.40991C46.6407 1.39518 50.7305 1.08814 53.4736 3.81128C55.2252 5.55288 55.9944 8.04505 55.7578 11.2166C55.3667 16.4241 53.0008 18.8957 51.0811 20.0515C49.9027 20.7622 48.7608 21.0679 47.9463 21.198L47.8193 27.1238L44.5303 26.9734L44.9844 1.53296L46.4678 1.40991ZM42.0684 26.9402L38.9521 26.9451L38.9336 13.8318L42.0498 13.8259L42.0684 26.9402ZM10.2686 21.9119C11.8016 21.3161 14.2851 19.5618 14.0078 14.4773C13.8893 12.3529 13.2439 10.8225 12.0928 9.92944C11.0645 9.13292 9.76826 8.91972 8.76758 8.89429L10.2686 21.9119ZM65.4521 18.5671L65.916 18.6189C66.2663 18.6439 69.5602 18.6608 70.0381 13.2429C70.179 11.6009 69.8559 10.3735 69.0371 9.48999C68.2318 8.62195 67.0762 8.22024 66.166 8.03491L65.4521 18.5671ZM28.7168 17.4626L29.1855 17.4558C29.5381 17.4301 32.8014 17.0356 32.5967 11.6033C32.533 9.95635 32.0556 8.77933 31.1318 8.00562C30.2264 7.24561 29.0298 6.99322 28.1064 6.92358L28.7168 17.4626ZM47.7822 16.9441C49.3201 16.5362 51.8769 15.1011 52.25 10.0779C52.4137 7.91183 51.9678 6.2898 50.9307 5.25854C50.071 4.40364 48.9107 4.04378 48.001 3.89526L47.7822 16.9441ZM77.0303 11.8044C77.9537 11.8833 78.6048 13.0464 78.4863 14.4011C78.3726 15.7557 77.5312 16.7903 76.6123 16.7117C75.6933 16.6328 75.0426 15.4697 75.1562 14.115C75.2745 12.76 76.1115 11.726 77.0303 11.8044ZM20.8135 9.91772C21.7369 9.88309 22.5241 10.9571 22.5742 12.3162C22.6243 13.6753 21.9198 14.8052 20.9961 14.8396C20.0727 14.8739 19.2858 13.7994 19.2354 12.4402C19.1855 11.081 19.8903 9.95228 20.8135 9.91772ZM58.9297 8.60718C59.853 8.60741 60.5986 9.70994 60.5986 11.0701C60.5985 12.4296 59.8529 13.5318 58.9297 13.532C58.0064 13.532 57.2599 12.4298 57.2598 11.0701C57.2598 9.71016 58.0062 8.60718 58.9297 8.60718ZM40.5039 7.23022C41.4277 7.23022 42.1738 8.33284 42.1738 9.69312C42.1737 11.0528 41.4228 12.155 40.5039 12.155C39.585 12.155 38.8302 11.0532 38.8301 9.69312C38.8301 8.33287 39.5801 7.23026 40.5039 7.23022Z" fill="#EFDECE"/></svg>