<?xml version="1.0" encoding="UTF-8"?>
<svg id="b" data-name="Layer 2" xmlns="http://www.w3.org/2000/svg" width="133.532" height="34.546" viewBox="0 0 133.532 34.546">
  <g id="c" data-name="Layer 1">
    <path d="m85.083,32.697c-1.959,1.19-3.429,1.803-4.407,1.839-.891.072-2.494-.29-4.809-1.082-18.208-6.382-33.545-11.592-46.01-15.63-1.562-.505-4.254-1.298-8.082-2.38l-2.404-.703-2.47-.649c-1.869-.541-3.495-1.01-4.877-1.406C4.234,10.377.226,8.718.003,7.71c-.042-1.48.425-2.542,1.404-3.191.981-.613,2.183-.685,3.609-.216,10.684,3.317,22.793,7.157,36.327,11.52,2.404.793,5.23,1.747,8.481,2.866l4.341,1.46,4.341,1.516c7.345,2.56,13.088,4.469,17.23,5.733l.266.054.333.054h-.066c1.735.433,4.339-.054,7.814-1.46,1.202-.505,2.492-1.1,3.872-1.785.533-.254,1.068-.541,1.604-.867l.667-.324.601-.326c4.317-2.342,10.64-6.039,18.965-11.087l9.418-5.679c3.515-2.055,6.698-3.876,9.549-5.462,1.334-.723,2.648-.687,3.938.108l.268.433.268.485c.891,2.199-.2,4.146-3.271,5.841l-5.879,3.137-5.875,3.137c-4.585,2.416-8.481,4.525-11.686,6.328-3.251,1.803-6.858,3.894-10.82,6.274l-5.342,3.191-5.276,3.245Z" fill="#fffcee"/>
  </g>
</svg>