<svg xmlns="http://www.w3.org/2000/svg" width="936.133" height="70.092" viewBox="0 0 936.133 70.092"><g transform="translate(2 2)"><path d="M1071.971,6789.448c-19.944,0-19.944.157-39.887.157s-19.942,1.6-39.884,1.6-19.942-.111-39.883-.111-19.942-1.077-39.884-1.077-19.942.616-39.884.616-19.943-1.558-39.885-1.558-19.945,2.31-39.89,2.31-19.943-2.367-39.886-2.367-19.944,2.587-39.888,2.587-19.943-2.98-39.887-2.98-19.943.215-39.887.215-19.944.346-39.887.346-19.945.907-39.891.907-19.945,1.516-39.891,1.516-19.943-.468-39.885-.468-19.943-1.88-39.886-1.88-19.945,2.052-39.891,2.052-19.947-.506-39.892-.506-19.947.282-39.893.282-19.947.294-39.892.294-19.949-2.7-39.9-2.7-19.949,2.267-39.9,2.267c-14.662,0-26.106-11.056-26.106-23.656,0-8.838-1.813-8.838-1.813-17.675,0-12.6,13.257-23.426,27.919-23.426,19.944,0,19.944-.573,39.887-.573s19.942.433,39.884.433,19.942-.1,39.883-.1,19.942,1.337,39.883,1.337,19.943.12,39.885.12,19.942-1.585,39.885-1.585,19.945,2.385,39.89,2.385,19.943-.481,39.886-.481,19.944-2.21,39.888-2.21,19.943.343,39.886.343,19.944,1.6,39.888,1.6,19.943-1.12,39.887-1.12,19.945.387,39.891.387,19.945-.983,39.891-.983,19.943.885,39.885.885,19.943.626,39.886.626,19.945.286,39.891.286,19.947-1.8,39.892-1.8,19.946.751,39.893.751,19.946.408,39.892.408,19.949-1.357,39.9-1.357,19.949,2.566,39.9,2.566c14.662,0,26.668,8.91,26.668,21.511,0,8.837-1.092,8.837-1.092,17.675C1097.547,6779.894,1086.633,6789.448,1071.971,6789.448Z" transform="translate(-166.506 -6725.518)" fill="none" stroke="#000" stroke-width="4"/></g></svg>