<svg xmlns="http://www.w3.org/2000/svg" width="1921" height="163.051" viewBox="0 0 1921 163.051">
  <g id="xl-button-bg" transform="translate(0.5 0.5)">
    <path id="Path_714" data-name="Path 714" d="M1920,7453.051V7293.079c-34.839-.3-42.149-1.281-89.339-1.281-55.836,0-55.836,5.546-111.672,5.546s-55.833-5.079-111.666-5.079S1551.491,7291,1495.659,7291s-55.832,4.1-111.665,4.1-55.832,2.45-111.664,2.45-55.832.935-111.665.935-55.83.583-111.66.583-55.832-8.052-111.664-8.052S881.509,7298,825.677,7298s-55.832-6.4-111.664-6.4-55.833,6.241-111.665,6.241-55.832-4.21-111.664-4.21-55.832,1.663-111.663,1.663-55.831-2.908-111.662-2.908-55.832-.3-111.664-.3-55.831,4.327-111.661,4.327c-20.245,0-33.147.057-44.034.127v156.507Z" transform="translate(0 -7291)" fill="#0e1011" stroke="#0f151f" stroke-width="1"/>
  </g>
</svg>
